<svg width="119" height="129" viewBox="0 0 119 129" fill="none" xmlns="http://www.w3.org/2000/svg">
<g filter="url(#filter0_d_1748_1056)">
<path d="M53.4167 31.885C50.8571 33.9309 45.3713 33.6505 45.3713 33.6505C46.7614 34.0109 48.0716 34.6203 49.2206 35.4408C50.3695 36.2613 51.3327 37.2753 52.0502 38.4198L53.4167 31.885Z" fill="white"/>
<path d="M62.2636 39.823C60.0049 37.7172 57.1424 36.2226 54.0378 35.528C54.0265 35.5198 54.0133 35.5141 53.9993 35.5114C53.9854 35.5088 53.9711 35.5093 53.9578 35.5129C53.9445 35.5164 53.9327 35.523 53.9233 35.5319C53.9139 35.5408 53.9072 35.5519 53.904 35.564C53.9007 35.5762 53.9009 35.5891 53.9046 35.6015C53.9083 35.6139 53.9153 35.6255 53.925 35.6353C53.9347 35.645 53.9468 35.6526 53.9603 35.6573C53.9737 35.6619 53.988 35.6636 54.0019 35.6621C56.9747 36.5907 59.7407 38.0479 62.1278 39.9434C62.2146 40.0059 62.3577 39.9135 62.2636 39.823Z" fill="white"/>
<path d="M64.6877 42.3675C64.6179 42.2966 64.5787 42.4429 64.5787 42.4429C66.6502 45.1846 68.3253 48.1384 69.5606 51.2274C69.5762 51.2521 69.6001 51.2721 69.6286 51.2842C69.6571 51.2964 69.6887 51.3001 69.7185 51.2948C69.7483 51.2895 69.7749 51.2755 69.794 51.2548C69.8131 51.2342 69.8239 51.2081 69.8246 51.1805C68.8738 47.966 67.115 44.9486 64.6877 42.3675Z" fill="white"/>
<path d="M71.0758 54.9008C70.985 54.7981 70.9654 54.8712 70.949 54.9322C71.8579 58.5923 72.0679 62.3269 71.5699 65.9726C71.5452 66.1752 71.848 66.204 71.8872 66.0577C72.617 62.3897 72.3387 58.5625 71.0758 54.9008Z" fill="white"/>
<path d="M53.1045 31.4945L54.1907 30.6263L53.9061 31.9873L52.5396 38.5221L52.2857 39.7367L51.6266 38.6854C50.9453 37.5987 50.0282 36.6319 48.93 35.8477C47.8317 35.0634 46.5776 34.4798 45.2458 34.1345L45.3967 33.1522C45.3967 33.1512 45.3967 33.1512 45.3967 33.1512L45.3968 33.1512L45.3971 33.1512L45.3993 33.1513L45.4095 33.1518L45.4526 33.1535C45.4911 33.155 45.5489 33.1569 45.6239 33.1587C45.7739 33.1623 45.9925 33.1652 46.2634 33.1624C46.8058 33.1568 47.5544 33.1285 48.3796 33.038C50.0587 32.8537 51.944 32.422 53.1045 31.4945ZM62.6046 39.4573L62.6047 39.4572L62.6104 39.4628C62.7112 39.5598 62.8085 39.7202 62.7929 39.9264C62.778 40.1232 62.6674 40.2613 62.5669 40.3381C62.3837 40.4779 62.0836 40.5276 61.8358 40.3493L61.8262 40.3424L61.8169 40.335C59.4938 38.4903 56.8023 37.068 53.9079 36.1567C53.8694 36.1512 53.8317 36.142 53.7952 36.1292C53.7132 36.1005 53.6358 36.0534 53.5711 35.9885C53.5062 35.9235 53.4538 35.8403 53.4251 35.7431C53.3962 35.6453 53.3931 35.5386 53.421 35.4346C53.4489 35.3306 53.5049 35.2398 53.5787 35.1696L53.9233 35.5319L53.5787 35.1696C53.6522 35.0997 53.7393 35.0539 53.8279 35.03C53.9164 35.0062 54.007 35.004 54.0924 35.0202L54.0924 35.0202C54.1306 35.0274 54.1681 35.0384 54.2044 35.053C57.3709 35.772 60.2928 37.302 62.6046 39.4573ZM65.0443 42.0171L65.0444 42.017L65.0519 42.025C67.5297 44.6597 69.3298 47.7449 70.3041 51.0387L70.3265 51.1144L70.3244 51.1934C70.3205 51.3451 70.2607 51.487 70.1604 51.595C70.0614 51.7017 69.934 51.7643 69.806 51.7871L69.8059 51.7871C69.6782 51.8098 69.5482 51.7935 69.4324 51.7441C69.3166 51.6947 69.2112 51.6104 69.1381 51.4948L69.1135 51.4559L69.0963 51.4131C67.8781 48.3667 66.2253 45.4517 64.1798 42.7443L64.0326 42.5494L64.0958 42.3135L64.5787 42.4429C64.0958 42.3135 64.0958 42.3134 64.0958 42.3133L64.0959 42.313L64.0961 42.3124L64.0964 42.3112L64.0971 42.3087L64.0988 42.3027L64.1033 42.2875C64.1069 42.2762 64.1118 42.2614 64.1182 42.2444C64.1293 42.2152 64.1521 42.1596 64.1913 42.1008C64.2201 42.0577 64.3173 41.9204 64.5076 41.8676C64.7543 41.7991 64.9482 41.9193 65.0443 42.0171ZM71.4505 54.5697L71.5161 54.644L71.5485 54.7378C72.8392 58.4801 73.1254 62.3971 72.3776 66.1552L72.3744 66.1713L72.3702 66.1871C72.3134 66.3991 72.1612 66.5298 72.0185 66.5925C71.8825 66.6521 71.7388 66.6606 71.6143 66.6378C71.4891 66.6148 71.343 66.5523 71.2288 66.423C71.1046 66.2825 71.0508 66.0986 71.0735 65.9122L71.0735 65.9122L71.0745 65.905C71.5637 62.3236 71.3577 58.6529 70.4638 55.0527L70.4327 54.9275L70.4661 54.8028L70.4667 54.8005C70.47 54.7878 70.4815 54.7444 70.499 54.7008C70.5131 54.6657 70.5639 54.5411 70.6938 54.4483C70.8726 54.3206 71.0775 54.3319 71.2239 54.3973C71.3367 54.4476 71.4119 54.5261 71.4505 54.5697Z" stroke="url(#paint0_linear_1748_1056)"/>
</g>
<defs>
<filter id="filter0_d_1748_1056" x="0.1203" y="0.367493" width="118.164" height="127.782" filterUnits="userSpaceOnUse" color-interpolation-filters="sRGB">
<feFlood flood-opacity="0" result="BackgroundImageFix"/>
<feColorMatrix in="SourceAlpha" type="matrix" values="0 0 0 0 0 0 0 0 0 0 0 0 0 0 0 0 0 0 127 0" result="hardAlpha"/>
<feMorphology radius="3" operator="erode" in="SourceAlpha" result="effect1_dropShadow_1748_1056"/>
<feOffset dy="16"/>
<feGaussianBlur stdDeviation="24"/>
<feComposite in2="hardAlpha" operator="out"/>
<feColorMatrix type="matrix" values="0 0 0 0 0.341176 0 0 0 0 0.333333 0 0 0 0 1 0 0 0 0.08 0"/>
<feBlend mode="normal" in2="BackgroundImageFix" result="effect1_dropShadow_1748_1056"/>
<feBlend mode="normal" in="SourceGraphic" in2="effect1_dropShadow_1748_1056" result="shape"/>
</filter>
<linearGradient id="paint0_linear_1748_1056" x1="42.6813" y1="43.6899" x2="75.5227" y2="52.4898" gradientUnits="userSpaceOnUse">
<stop stop-color="#101928"/>
<stop offset="1" stop-color="white"/>
</linearGradient>
</defs>
</svg>
