<svg width="279" height="241" viewBox="0 0 279 241" fill="none" xmlns="http://www.w3.org/2000/svg">
<g filter="url(#filter0_d_1748_2159)">
<path d="M220.37 176.775C223.598 171.702 233.489 168.75 233.489 168.75C230.798 169.007 228.09 168.791 225.532 168.115C222.975 167.44 220.623 166.32 218.623 164.825L220.37 176.775Z" fill="white"/>
<path d="M199.646 168.824C204.987 170.988 211.008 171.738 216.948 170.977C216.973 170.984 217 170.985 217.027 170.981C217.053 170.977 217.078 170.967 217.099 170.953C217.12 170.939 217.137 170.92 217.148 170.899C217.159 170.878 217.164 170.855 217.162 170.832C217.16 170.81 217.151 170.788 217.137 170.769C217.122 170.75 217.103 170.735 217.079 170.725C217.056 170.714 217.029 170.709 217.003 170.709C216.976 170.71 216.95 170.716 216.926 170.727C211.071 171.008 205.244 170.262 199.809 168.535C199.616 168.483 199.421 168.729 199.646 168.824Z" fill="white"/>
<path d="M193.731 166.018C193.9 166.095 193.876 165.822 193.876 165.822C188.461 162.461 183.612 158.492 179.455 154.019C179.411 153.987 179.356 153.968 179.298 153.965C179.24 153.962 179.182 153.976 179.132 154.004C179.083 154.031 179.045 154.072 179.024 154.119C179.003 154.165 179.001 154.217 179.017 154.264C182.75 159.128 187.788 163.152 193.731 166.018Z" fill="white"/>
<path d="M174.43 148.729C174.656 148.846 174.644 148.71 174.634 148.596C170.692 142.949 167.939 136.74 166.496 130.238C166.411 129.879 165.856 130.019 165.88 130.292C166.926 136.976 169.859 143.301 174.43 148.729Z" fill="white"/>
<path d="M220.792 177.043L220.07 178.178L219.876 176.847L218.128 164.898L217.953 163.7L218.922 164.425C220.868 165.879 223.161 166.972 225.66 167.632C228.159 168.292 230.808 168.503 233.441 168.252L233.632 169.229L233.632 169.229L233.632 169.229L233.632 169.229L233.631 169.23L233.626 169.231L233.606 169.237C233.588 169.242 233.562 169.251 233.526 169.262C233.455 169.284 233.349 169.317 233.213 169.362C232.941 169.451 232.547 169.584 232.064 169.76C231.097 170.112 229.775 170.634 228.355 171.311C225.488 172.679 222.324 174.635 220.792 177.043ZM199.458 169.288L199.458 169.288L199.451 169.285C199.3 169.221 199.133 169.091 199.069 168.87C199.007 168.657 199.074 168.467 199.155 168.347C199.304 168.123 199.611 167.964 199.939 168.052L199.95 168.055L199.961 168.058C205.317 169.76 211.06 170.5 216.835 170.231C216.888 170.217 216.941 170.21 216.995 170.209L216.999 170.473L216.995 170.209C217.091 170.208 217.19 170.227 217.283 170.268C217.376 170.31 217.465 170.375 217.534 170.465C217.603 170.556 217.649 170.667 217.66 170.789C217.671 170.91 217.645 171.028 217.592 171.13C217.539 171.23 217.464 171.31 217.379 171.367L217.099 170.953L217.379 171.367C217.295 171.424 217.201 171.46 217.106 171.475L217.064 171.215L217.106 171.475C217.053 171.483 216.998 171.486 216.944 171.482C210.945 172.238 204.862 171.477 199.458 169.288ZM193.524 166.473L193.524 166.473L193.514 166.469C187.506 163.571 182.405 159.499 178.621 154.568L178.571 154.504L178.545 154.427C178.486 154.257 178.496 154.076 178.567 153.917C178.636 153.76 178.755 153.642 178.888 153.567C179.022 153.492 179.174 153.459 179.323 153.466C179.472 153.473 179.623 153.522 179.753 153.617L179.79 153.645L179.821 153.679C183.946 158.118 188.761 162.059 194.14 165.397L194.353 165.529L194.374 165.779L193.876 165.822C194.374 165.779 194.374 165.779 194.374 165.779L194.374 165.779L194.374 165.78L194.375 165.781L194.375 165.784L194.375 165.791L194.376 165.812C194.377 165.827 194.378 165.848 194.377 165.872C194.377 165.915 194.373 165.99 194.351 166.074C194.334 166.141 194.281 166.314 194.109 166.432C193.895 166.579 193.666 166.538 193.524 166.473ZM174.199 149.172L174.111 149.127L174.048 149.051C169.421 143.556 166.447 137.148 165.386 130.369L165.383 130.353L165.382 130.336C165.359 130.078 165.48 129.875 165.616 129.75C165.747 129.629 165.91 129.56 166.065 129.535C166.221 129.509 166.412 129.52 166.591 129.613C166.785 129.714 166.928 129.893 166.982 130.122L166.982 130.122L166.984 130.13C168.412 136.565 171.138 142.715 175.044 148.31L175.121 148.42L175.133 148.553C175.134 148.574 175.141 148.636 175.138 148.7C175.136 148.752 175.128 148.9 175.028 149.04C174.895 149.225 174.692 149.283 174.526 149.273C174.393 149.264 174.277 149.213 174.199 149.172Z" stroke="url(#paint0_linear_1748_2159)"/>
</g>
<g filter="url(#filter1_d_1748_2159)">
<path d="M46 42C46 35.3726 51.3726 30 58 30H190C196.627 30 202 35.3726 202 42V110C202 116.627 196.627 122 190 122H58C51.3726 122 46 116.627 46 110V42Z" fill="white"/>
<path d="M58 29.5C51.0964 29.5 45.5 35.0964 45.5 42V110C45.5 116.904 51.0964 122.5 58 122.5H190C196.904 122.5 202.5 116.904 202.5 110V42C202.5 35.0964 196.904 29.5 190 29.5H58Z" stroke="url(#paint1_linear_1748_2159)"/>
</g>
<path d="M61.0777 100V89.92H65.0397C65.679 89.92 66.2157 90.0507 66.6497 90.312C67.0837 90.5733 67.4103 90.9117 67.6297 91.327C67.849 91.7377 67.9587 92.1717 67.9587 92.629C67.9587 93.1843 67.821 93.6603 67.5457 94.057C67.275 94.4537 66.9087 94.7243 66.4467 94.869L66.4327 94.526C67.0767 94.6847 67.5713 94.995 67.9167 95.457C68.262 95.9143 68.4347 96.4487 68.4347 97.06C68.4347 97.6527 68.3157 98.1683 68.0777 98.607C67.8443 99.0457 67.5013 99.3887 67.0487 99.636C66.6007 99.8787 66.057 100 65.4177 100H61.0777ZM62.5617 98.607H65.1937C65.525 98.607 65.8213 98.544 66.0827 98.418C66.3487 98.292 66.5563 98.1123 66.7057 97.879C66.8597 97.641 66.9367 97.3587 66.9367 97.032C66.9367 96.7287 66.869 96.4557 66.7337 96.213C66.603 95.9657 66.4117 95.772 66.1597 95.632C65.9123 95.4873 65.6207 95.415 65.2847 95.415H62.5617V98.607ZM62.5617 94.036H65.0187C65.2893 94.036 65.532 93.9823 65.7467 93.875C65.966 93.763 66.1387 93.6043 66.2647 93.399C66.3953 93.189 66.4607 92.937 66.4607 92.643C66.4607 92.251 66.33 91.929 66.0687 91.677C65.8073 91.425 65.4573 91.299 65.0187 91.299H62.5617V94.036ZM73.1107 100.21C72.3547 100.21 71.699 100.04 71.1437 99.699C70.5883 99.3583 70.159 98.8893 69.8557 98.292C69.557 97.69 69.4077 96.997 69.4077 96.213C69.4077 95.4243 69.5617 94.7313 69.8697 94.134C70.1777 93.532 70.6093 93.0653 71.1647 92.734C71.72 92.398 72.3687 92.23 73.1107 92.23C73.8667 92.23 74.5223 92.4003 75.0777 92.741C75.633 93.0817 76.0623 93.5507 76.3657 94.148C76.669 94.7453 76.8207 95.4337 76.8207 96.213C76.8207 97.0017 76.6667 97.697 76.3587 98.299C76.0553 98.8963 75.626 99.3653 75.0707 99.706C74.5153 100.042 73.862 100.21 73.1107 100.21ZM73.1107 98.831C73.834 98.831 74.373 98.5883 74.7277 98.103C75.087 97.613 75.2667 96.983 75.2667 96.213C75.2667 95.4243 75.0847 94.7943 74.7207 94.323C74.3613 93.847 73.8247 93.609 73.1107 93.609C72.6207 93.609 72.217 93.721 71.8997 93.945C71.5823 94.1643 71.3467 94.47 71.1927 94.862C71.0387 95.2493 70.9617 95.6997 70.9617 96.213C70.9617 97.0063 71.1437 97.641 71.5077 98.117C71.8717 98.593 72.406 98.831 73.1107 98.831ZM81.6419 100.21C80.8859 100.21 80.2302 100.04 79.6749 99.699C79.1196 99.3583 78.6902 98.8893 78.3869 98.292C78.0882 97.69 77.9389 96.997 77.9389 96.213C77.9389 95.4243 78.0929 94.7313 78.4009 94.134C78.7089 93.532 79.1406 93.0653 79.6959 92.734C80.2512 92.398 80.8999 92.23 81.6419 92.23C82.3979 92.23 83.0536 92.4003 83.6089 92.741C84.1642 93.0817 84.5936 93.5507 84.8969 94.148C85.2002 94.7453 85.3519 95.4337 85.3519 96.213C85.3519 97.0017 85.1979 97.697 84.8899 98.299C84.5866 98.8963 84.1572 99.3653 83.6019 99.706C83.0466 100.042 82.3932 100.21 81.6419 100.21ZM81.6419 98.831C82.3652 98.831 82.9042 98.5883 83.2589 98.103C83.6182 97.613 83.7979 96.983 83.7979 96.213C83.7979 95.4243 83.6159 94.7943 83.2519 94.323C82.8926 93.847 82.3559 93.609 81.6419 93.609C81.1519 93.609 80.7482 93.721 80.4309 93.945C80.1136 94.1643 79.8779 94.47 79.7239 94.862C79.5699 95.2493 79.4929 95.6997 79.4929 96.213C79.4929 97.0063 79.6749 97.641 80.0389 98.117C80.4029 98.593 80.9372 98.831 81.6419 98.831ZM86.8832 100L86.8902 89.92H88.3742V96.08L91.3422 92.44H93.2042L90.0682 96.22L93.5262 100H91.5382L88.3742 96.36V100H86.8832ZM94.372 91.201V89.78H95.835V91.201H94.372ZM94.372 100V92.44H95.835V100H94.372ZM103.243 100V96.283C103.243 95.989 103.217 95.688 103.166 95.38C103.119 95.0673 103.026 94.778 102.886 94.512C102.751 94.246 102.557 94.0313 102.305 93.868C102.058 93.7047 101.733 93.623 101.332 93.623C101.071 93.623 100.823 93.6673 100.59 93.756C100.357 93.84 100.151 93.9777 99.974 94.169C99.8014 94.3603 99.6637 94.6123 99.561 94.925C99.463 95.2377 99.414 95.618 99.414 96.066L98.504 95.723C98.504 95.037 98.6324 94.4327 98.889 93.91C99.1457 93.3827 99.5144 92.972 99.995 92.678C100.476 92.384 101.057 92.237 101.738 92.237C102.261 92.237 102.699 92.321 103.054 92.489C103.409 92.657 103.696 92.8787 103.915 93.154C104.139 93.4247 104.309 93.721 104.426 94.043C104.543 94.365 104.622 94.68 104.664 94.988C104.706 95.296 104.727 95.5667 104.727 95.8V100H103.243ZM97.93 100V92.44H99.239V94.624H99.414V100H97.93ZM109.665 103.57C109.259 103.57 108.865 103.507 108.482 103.381C108.104 103.255 107.759 103.068 107.446 102.821C107.134 102.578 106.875 102.277 106.669 101.918L108.02 101.232C108.184 101.554 108.417 101.79 108.72 101.939C109.024 102.088 109.343 102.163 109.679 102.163C110.095 102.163 110.449 102.088 110.743 101.939C111.037 101.794 111.259 101.575 111.408 101.281C111.562 100.987 111.637 100.623 111.632 100.189V98.075H111.807V92.44H113.102V100.203C113.102 100.404 113.095 100.595 113.081 100.777C113.067 100.959 113.042 101.141 113.004 101.323C112.897 101.832 112.692 102.252 112.388 102.583C112.09 102.914 111.707 103.162 111.24 103.325C110.778 103.488 110.253 103.57 109.665 103.57ZM109.553 100.21C108.849 100.21 108.24 100.035 107.726 99.685C107.218 99.335 106.823 98.859 106.543 98.257C106.268 97.6503 106.13 96.969 106.13 96.213C106.13 95.4523 106.27 94.7733 106.55 94.176C106.83 93.574 107.227 93.1003 107.74 92.755C108.258 92.405 108.872 92.23 109.581 92.23C110.295 92.23 110.895 92.405 111.38 92.755C111.87 93.1003 112.239 93.574 112.486 94.176C112.738 94.778 112.864 95.457 112.864 96.213C112.864 96.969 112.738 97.648 112.486 98.25C112.234 98.852 111.863 99.3303 111.373 99.685C110.883 100.035 110.277 100.21 109.553 100.21ZM109.756 98.887C110.237 98.887 110.629 98.7727 110.932 98.544C111.236 98.3153 111.457 98.0003 111.597 97.599C111.737 97.1977 111.807 96.7357 111.807 96.213C111.807 95.6903 111.735 95.2283 111.59 94.827C111.45 94.4257 111.231 94.113 110.932 93.889C110.638 93.665 110.263 93.553 109.805 93.553C109.32 93.553 108.921 93.672 108.608 93.91C108.296 94.148 108.062 94.4677 107.908 94.869C107.759 95.2703 107.684 95.7183 107.684 96.213C107.684 96.7123 107.759 97.165 107.908 97.571C108.062 97.9723 108.291 98.292 108.594 98.53C108.902 98.768 109.29 98.887 109.756 98.887ZM122.078 100.21C121.07 100.21 120.211 99.9907 119.502 99.552C118.792 99.1087 118.249 98.4927 117.871 97.704C117.497 96.9153 117.311 96.0007 117.311 94.96C117.311 93.9193 117.497 93.0047 117.871 92.216C118.249 91.4273 118.792 90.8137 119.502 90.375C120.211 89.9317 121.07 89.71 122.078 89.71C123.24 89.71 124.201 90.004 124.962 90.592C125.727 91.18 126.259 91.971 126.558 92.965L125.074 93.364C124.878 92.6593 124.528 92.1063 124.024 91.705C123.524 91.3037 122.876 91.103 122.078 91.103C121.364 91.103 120.769 91.264 120.293 91.586C119.817 91.908 119.457 92.3583 119.215 92.937C118.977 93.5157 118.858 94.19 118.858 94.96C118.853 95.73 118.97 96.4043 119.208 96.983C119.45 97.5617 119.81 98.012 120.286 98.334C120.766 98.656 121.364 98.817 122.078 98.817C122.876 98.817 123.524 98.6163 124.024 98.215C124.528 97.809 124.878 97.256 125.074 96.556L126.558 96.955C126.259 97.949 125.727 98.74 124.962 99.328C124.201 99.916 123.24 100.21 122.078 100.21ZM131.38 100.21C130.624 100.21 129.969 100.04 129.413 99.699C128.858 99.3583 128.429 98.8893 128.125 98.292C127.827 97.69 127.677 96.997 127.677 96.213C127.677 95.4243 127.831 94.7313 128.139 94.134C128.447 93.532 128.879 93.0653 129.434 92.734C129.99 92.398 130.638 92.23 131.38 92.23C132.136 92.23 132.792 92.4003 133.347 92.741C133.903 93.0817 134.332 93.5507 134.635 94.148C134.939 94.7453 135.09 95.4337 135.09 96.213C135.09 97.0017 134.936 97.697 134.628 98.299C134.325 98.8963 133.896 99.3653 133.34 99.706C132.785 100.042 132.132 100.21 131.38 100.21ZM131.38 98.831C132.104 98.831 132.643 98.5883 132.997 98.103C133.357 97.613 133.536 96.983 133.536 96.213C133.536 95.4243 133.354 94.7943 132.99 94.323C132.631 93.847 132.094 93.609 131.38 93.609C130.89 93.609 130.487 93.721 130.169 93.945C129.852 94.1643 129.616 94.47 129.462 94.862C129.308 95.2493 129.231 95.6997 129.231 96.213C129.231 97.0063 129.413 97.641 129.777 98.117C130.141 98.593 130.676 98.831 131.38 98.831ZM141.934 100V96.283C141.934 95.989 141.909 95.688 141.857 95.38C141.811 95.0673 141.717 94.778 141.577 94.512C141.442 94.246 141.248 94.0313 140.996 93.868C140.749 93.7047 140.425 93.623 140.023 93.623C139.762 93.623 139.515 93.6673 139.281 93.756C139.048 93.84 138.843 93.9777 138.665 94.169C138.493 94.3603 138.355 94.6123 138.252 94.925C138.154 95.2377 138.105 95.618 138.105 96.066L137.195 95.723C137.195 95.037 137.324 94.4327 137.58 93.91C137.837 93.3827 138.206 92.972 138.686 92.678C139.167 92.384 139.748 92.237 140.429 92.237C140.952 92.237 141.391 92.321 141.745 92.489C142.1 92.657 142.387 92.8787 142.606 93.154C142.83 93.4247 143.001 93.721 143.117 94.043C143.234 94.365 143.313 94.68 143.355 94.988C143.397 95.296 143.418 95.5667 143.418 95.8V100H141.934ZM136.621 100V92.44H137.93V94.624H138.105V100H136.621ZM145.935 100V92.174C145.935 91.9827 145.942 91.7797 145.956 91.565C145.97 91.3457 146.009 91.131 146.075 90.921C146.145 90.7063 146.259 90.5103 146.418 90.333C146.609 90.123 146.819 89.9737 147.048 89.885C147.276 89.7963 147.503 89.745 147.727 89.731C147.955 89.717 148.165 89.71 148.357 89.71H149.309V90.914H148.427C148.081 90.914 147.822 91.0003 147.65 91.173C147.482 91.341 147.398 91.5813 147.398 91.894V100H145.935ZM144.682 93.616V92.44H149.309V93.616H144.682ZM150.779 91.201V89.78H152.242V91.201H150.779ZM150.779 100V92.44H152.242V100H150.779ZM154.347 100V92.44H155.649V94.274L155.467 94.036C155.561 93.7933 155.682 93.5717 155.831 93.371C155.981 93.1657 156.153 92.9977 156.349 92.867C156.541 92.727 156.753 92.6197 156.986 92.545C157.224 92.4657 157.467 92.419 157.714 92.405C157.962 92.3863 158.2 92.398 158.428 92.44V93.812C158.181 93.7467 157.906 93.728 157.602 93.756C157.304 93.784 157.028 93.8797 156.776 94.043C156.538 94.197 156.349 94.3837 156.209 94.603C156.074 94.8223 155.976 95.0673 155.915 95.338C155.855 95.604 155.824 95.8863 155.824 96.185V100H154.347ZM168.819 100L168.826 95.289C168.826 94.743 168.686 94.3183 168.406 94.015C168.126 93.707 167.758 93.553 167.3 93.553C167.02 93.553 166.764 93.6183 166.53 93.749C166.302 93.875 166.115 94.0663 165.97 94.323C165.83 94.575 165.76 94.8923 165.76 95.275L165.053 94.918C165.044 94.386 165.156 93.9193 165.389 93.518C165.627 93.1167 165.949 92.8063 166.355 92.587C166.761 92.363 167.216 92.251 167.72 92.251C168.537 92.251 169.169 92.496 169.617 92.986C170.065 93.476 170.289 94.127 170.289 94.939L170.282 100H168.819ZM159.754 100V92.44H161.056V94.624H161.224V100H159.754ZM164.29 100L164.297 95.317C164.297 94.7663 164.157 94.3347 163.877 94.022C163.602 93.7093 163.231 93.553 162.764 93.553C162.302 93.553 161.929 93.7117 161.644 94.029C161.364 94.3463 161.224 94.7617 161.224 95.275L160.524 94.827C160.524 94.3323 160.643 93.8913 160.881 93.504C161.119 93.1167 161.441 92.811 161.847 92.587C162.253 92.363 162.713 92.251 163.226 92.251C163.763 92.251 164.22 92.3653 164.598 92.594C164.976 92.818 165.263 93.133 165.459 93.539C165.66 93.945 165.76 94.4163 165.76 94.953L165.753 100H164.29ZM175.364 100.21C174.613 100.21 173.953 100.047 173.383 99.72C172.819 99.3887 172.378 98.929 172.06 98.341C171.748 97.7483 171.591 97.0623 171.591 96.283C171.591 95.457 171.745 94.7407 172.053 94.134C172.366 93.5273 172.8 93.0583 173.355 92.727C173.911 92.3957 174.557 92.23 175.294 92.23C176.064 92.23 176.72 92.4097 177.261 92.769C177.803 93.1237 178.206 93.63 178.472 94.288C178.743 94.946 178.85 95.7277 178.794 96.633H177.331V96.101C177.322 95.2237 177.154 94.575 176.827 94.155C176.505 93.735 176.013 93.525 175.35 93.525C174.618 93.525 174.067 93.756 173.698 94.218C173.33 94.68 173.145 95.3473 173.145 96.22C173.145 97.0507 173.33 97.6947 173.698 98.152C174.067 98.6047 174.599 98.831 175.294 98.831C175.752 98.831 176.146 98.7283 176.477 98.523C176.813 98.313 177.075 98.0143 177.261 97.627L178.696 98.082C178.402 98.7587 177.957 99.2837 177.359 99.657C176.762 100.026 176.097 100.21 175.364 100.21ZM172.669 96.633V95.492H178.066V96.633H172.669ZM183.368 100.21C182.663 100.21 182.054 100.035 181.541 99.685C181.032 99.335 180.638 98.859 180.358 98.257C180.082 97.6503 179.945 96.969 179.945 96.213C179.945 95.4523 180.085 94.7733 180.365 94.176C180.645 93.574 181.041 93.1003 181.555 92.755C182.073 92.405 182.686 92.23 183.396 92.23C184.11 92.23 184.709 92.405 185.195 92.755C185.685 93.1003 186.053 93.574 186.301 94.176C186.553 94.778 186.679 95.457 186.679 96.213C186.679 96.969 186.553 97.648 186.301 98.25C186.049 98.852 185.678 99.3303 185.188 99.685C184.698 100.035 184.091 100.21 183.368 100.21ZM183.571 98.887C184.051 98.887 184.443 98.7727 184.747 98.544C185.05 98.3153 185.272 98.0003 185.412 97.599C185.552 97.1977 185.622 96.7357 185.622 96.213C185.622 95.6903 185.549 95.2283 185.405 94.827C185.265 94.4257 185.045 94.113 184.747 93.889C184.453 93.665 184.077 93.553 183.62 93.553C183.134 93.553 182.735 93.672 182.423 93.91C182.11 94.148 181.877 94.4677 181.723 94.869C181.573 95.2703 181.499 95.7183 181.499 96.213C181.499 96.7123 181.573 97.165 181.723 97.571C181.877 97.9723 182.105 98.292 182.409 98.53C182.717 98.768 183.104 98.887 183.571 98.887ZM185.622 100V94.561H185.454V89.92H186.924V100H185.622Z" fill="#101928"/>
<path d="M108 48C108 44.6863 110.686 42 114 42H134C137.314 42 140 44.6863 140 48V68C140 71.3137 137.314 74 134 74H114C110.686 74 108 71.3137 108 68V48Z" fill="#EAFBF7"/>
<path d="M124 66.3334C128.602 66.3334 132.333 62.6025 132.333 58.0001C132.333 53.3977 128.602 49.6667 124 49.6667C119.398 49.6667 115.667 53.3977 115.667 58.0001C115.667 62.6025 119.398 66.3334 124 66.3334Z" stroke="#4DDBBB" stroke-width="1.25" stroke-linecap="round" stroke-linejoin="round"/>
<path d="M121.5 57.9999L123.167 59.6666L126.5 56.3333" stroke="#4DDBBB" stroke-width="1.25" stroke-linecap="round" stroke-linejoin="round"/>
<defs>
<filter id="filter0_d_1748_2159" x="119.879" y="100.023" width="158.896" height="140.559" filterUnits="userSpaceOnUse" color-interpolation-filters="sRGB">
<feFlood flood-opacity="0" result="BackgroundImageFix"/>
<feColorMatrix in="SourceAlpha" type="matrix" values="0 0 0 0 0 0 0 0 0 0 0 0 0 0 0 0 0 0 127 0" result="hardAlpha"/>
<feMorphology radius="3" operator="erode" in="SourceAlpha" result="effect1_dropShadow_1748_2159"/>
<feOffset dy="16"/>
<feGaussianBlur stdDeviation="24"/>
<feComposite in2="hardAlpha" operator="out"/>
<feColorMatrix type="matrix" values="0 0 0 0 0.341176 0 0 0 0 0.333333 0 0 0 0 1 0 0 0 0.08 0"/>
<feBlend mode="normal" in2="BackgroundImageFix" result="effect1_dropShadow_1748_2159"/>
<feBlend mode="normal" in="SourceGraphic" in2="effect1_dropShadow_1748_2159" result="shape"/>
</filter>
<filter id="filter1_d_1748_2159" x="0" y="0" width="248" height="184" filterUnits="userSpaceOnUse" color-interpolation-filters="sRGB">
<feFlood flood-opacity="0" result="BackgroundImageFix"/>
<feColorMatrix in="SourceAlpha" type="matrix" values="0 0 0 0 0 0 0 0 0 0 0 0 0 0 0 0 0 0 127 0" result="hardAlpha"/>
<feMorphology radius="3" operator="erode" in="SourceAlpha" result="effect1_dropShadow_1748_2159"/>
<feOffset dy="16"/>
<feGaussianBlur stdDeviation="24"/>
<feComposite in2="hardAlpha" operator="out"/>
<feColorMatrix type="matrix" values="0 0 0 0 0.341176 0 0 0 0 0.333333 0 0 0 0 1 0 0 0 0.08 0"/>
<feBlend mode="normal" in2="BackgroundImageFix" result="effect1_dropShadow_1748_2159"/>
<feBlend mode="normal" in="SourceGraphic" in2="effect1_dropShadow_1748_2159" result="shape"/>
</filter>
<linearGradient id="paint0_linear_1748_2159" x1="231.85" y1="150.023" x2="168.094" y2="155.601" gradientUnits="userSpaceOnUse">
<stop stop-color="#101928"/>
<stop offset="1" stop-color="white"/>
</linearGradient>
<linearGradient id="paint1_linear_1748_2159" x1="124" y1="30" x2="124" y2="122" gradientUnits="userSpaceOnUse">
<stop stop-color="#E4E7EC"/>
<stop offset="1" stop-color="white"/>
</linearGradient>
</defs>
</svg>
