<svg xmlns="http://www.w3.org/2000/svg" width="40" height="40" fill="none" xmlns:v="https://vecta.io/nano"><rect width="40" height="40" rx="4" fill="#e8e7fe"/><path d="M21.194 18.794v.002l10.333.002c.258 0 .467-.209.467-.467v-4.466c0-.258-.209-.467-.467-.467H27.06c-.258 0-.467-.209-.467-.467v-4.47c0-.258-.209-.467-.467-.467H21.66c-.258 0-.467.209-.467.467v10.333zm-2.4 2.401H8.461c-.258 0-.467.209-.467.467v4.466c0 .258.209.467.467.467h4.466c.258 0 .467.209.467.467v4.466c0 .258.209.467.467.467h4.466c.258 0 .467-.209.467-.467V21.195zm13.199.466c0-.258-.209-.467-.467-.467H27.06c-.258 0-.467.209-.467.467v4.466c0 .258.209.467.467.467h4.466c.258 0 .467-.209.467-.467v-4.466zm-5.866 10.333c.258 0 .467-.209.467-.467v-4.466c0-.258-.209-.467-.467-.467H21.66c-.258 0-.467.209-.467.467v4.466c0 .258.209.467.467.467h4.466z" fill="#5755ff"/></svg>