<svg xmlns="http://www.w3.org/2000/svg" width="206" height="142" fill="none" xmlns:v="https://vecta.io/nano"><rect x=".5" y=".5" width="205" height="141" rx="10.5" fill="#fff" stroke="url(#B)"/><path d="M15.84 72v-8.64h3.336c.484 0 .906.1 1.266.3s.64.47.84.81a2.14 2.14 0 0 1 .3 1.116c0 .464-.124.878-.372 1.242s-.58.61-.996.75l-.012-.294c.56.16 1 .44 1.32.84s.48.884.48 1.452c0 .5-.106.932-.318 1.296s-.51.638-.894.834-.83.294-1.338.294H15.84zm.888-.846h2.508c.352 0 .668-.062.948-.186s.5-.308.66-.54.246-.512.246-.84c0-.32-.074-.608-.222-.864s-.35-.46-.606-.612-.54-.234-.864-.234h-2.67v3.276zm0-4.11h2.442c.276 0 .528-.062.756-.186a1.44 1.44 0 0 0 .54-.522 1.42 1.42 0 0 0 .204-.762c0-.408-.142-.74-.426-.996s-.638-.384-1.074-.384h-2.442v2.85zm8.949 5.118c-.388 0-.728-.06-1.02-.18s-.534-.282-.738-.486-.362-.436-.486-.696-.214-.542-.27-.834-.084-.59-.084-.882V65.52h.888v3.306c0 .356.034.686.102.99s.176.57.324.798.346.398.582.522.53.186.87.186c.312 0 .586-.054.822-.162s.44-.262.6-.462.288-.45.372-.738.126-.62.126-.984l.624.138c0 .664-.116 1.222-.348 1.674s-.552.794-.96 1.026a2.79 2.79 0 0 1-1.404.348zM27.855 72v-1.596h-.09V65.52h.882V72h-.792zm2.589 0v-8.82h.882V72h-.882zm2.675 0l.006-8.64h.888v5.28l2.892-3.12h1.176l-3.036 3.24L38.477 72h-1.284l-3.18-3.12V72h-.894zm8.481-7.71v-.99h.882v.99h-.882zm0 7.71v-6.48h.882V72h-.882zm10.409 0l.006-4.254c0-.5-.14-.892-.42-1.176s-.628-.432-1.056-.432c-.244 0-.482.056-.714.168s-.424.292-.576.54-.222.572-.222.972l-.522-.15c-.012-.464.078-.87.27-1.218s.464-.618.804-.81a2.31 2.31 0 0 1 1.164-.294c.652 0 1.174.202 1.566.606s.588.942.588 1.626L52.891 72h-.882zm-7.734 0v-6.48h.792v1.596h.096V72h-.888zm3.876 0l.006-4.194c0-.516-.138-.922-.414-1.218s-.632-.45-1.08-.45-.81.154-1.086.462-.414.71-.414 1.218l-.528-.288c0-.416.098-.788.294-1.116a2.09 2.09 0 0 1 .804-.78c.34-.192.726-.288 1.158-.288a2.24 2.24 0 0 1 1.098.264 1.88 1.88 0 0 1 .762.768c.184.336.276.744.276 1.224L49.021 72h-.87zm9.212.18c-.596 0-1.1-.15-1.512-.45s-.724-.714-.936-1.23-.318-1.102-.318-1.746c0-.656.106-1.24.318-1.752s.532-.922.948-1.218.928-.444 1.536-.444c.592 0 1.1.15 1.524.45s.748.708.972 1.224.342 1.096.342 1.74-.114 1.23-.342 1.746-.556.926-.984 1.23-.944.45-1.548.45zm-2.916 2.7v-9.36h.792v4.878h.096v4.482h-.888zm2.826-3.522c.452 0 .828-.114 1.128-.342a2.04 2.04 0 0 0 .672-.93c.152-.396.228-.84.228-1.332s-.074-.928-.222-1.32-.374-.702-.678-.93-.682-.342-1.146-.342c-.452 0-.828.11-1.128.33s-.518.526-.666.918-.222.836-.222 1.344c0 .5.074.948.222 1.344s.372.7.672.924.68.336 1.14.336zm6.988.822c-.644 0-1.194-.146-1.65-.438a2.85 2.85 0 0 1-1.05-1.212c-.244-.516-.366-1.108-.366-1.776 0-.68.124-1.276.372-1.788s.6-.91 1.056-1.194 1.006-.432 1.638-.432c.648 0 1.2.146 1.656.438s.81.69 1.05 1.206.366 1.102.366 1.77c0 .68-.122 1.278-.366 1.794s-.596.912-1.056 1.2-1.01.432-1.65.432zm0-.846c.72 0 1.256-.238 1.608-.714s.528-1.102.528-1.866c0-.784-.178-1.408-.534-1.872s-.886-.696-1.602-.696c-.484 0-.884.11-1.2.33s-.546.518-.702.906-.228.828-.228 1.332c0 .78.18 1.406.54 1.878s.89.702 1.59.702zm4.396.666v-6.48h.792v1.56l-.156-.204c.072-.192.166-.368.282-.528a1.83 1.83 0 0 1 .378-.402 1.71 1.71 0 0 1 .588-.336 2.38 2.38 0 0 1 .678-.138 1.96 1.96 0 0 1 .624.048v.828a2.14 2.14 0 0 0-.774-.042c-.28.032-.538.144-.774.336a1.61 1.61 0 0 0-.486.606c-.108.232-.18.48-.216.744a5.64 5.64 0 0 0-.054.774V72h-.882zm7.852 0a4.32 4.32 0 0 1-1.08.09c-.352-.016-.668-.092-.948-.228s-.486-.348-.63-.636a1.87 1.87 0 0 1-.192-.726l-.012-.846V63.72h.876v5.898l.006.684c.008.18.05.34.126.48.144.268.372.428.684.48s.706.04 1.17-.036V72zm-4.248-5.724v-.756h4.248v.756h-4.248zm8.851 8.604l1.254-3.402.018 1.008-2.838-6.966h.936l2.328 5.826h-.384l2.148-5.826h.9l-3.48 9.36h-.882zm7.876-2.7c-.644 0-1.194-.146-1.65-.438a2.85 2.85 0 0 1-1.05-1.212c-.244-.516-.366-1.108-.366-1.776 0-.68.124-1.276.372-1.788s.6-.91 1.056-1.194 1.006-.432 1.638-.432c.648 0 1.2.146 1.656.438s.81.69 1.05 1.206.366 1.102.366 1.77c0 .68-.122 1.278-.366 1.794s-.596.912-1.056 1.2-1.01.432-1.65.432zm0-.846c.72 0 1.256-.238 1.608-.714s.528-1.102.528-1.866c0-.784-.178-1.408-.534-1.872s-.886-.696-1.602-.696c-.484 0-.884.11-1.2.33s-.546.518-.702.906-.228.828-.228 1.332c0 .78.18 1.406.54 1.878s.89.702 1.59.702zm6.874.828c-.388 0-.728-.06-1.02-.18s-.534-.282-.738-.486-.362-.436-.486-.696-.214-.542-.27-.834-.084-.59-.084-.882V65.52h.888v3.306c0 .356.034.686.102.99s.176.57.324.798.346.398.582.522.53.186.87.186c.312 0 .586-.054.822-.162s.44-.262.6-.462.288-.45.372-.738.126-.62.126-.984l.624.138c0 .664-.116 1.222-.348 1.674s-.552.794-.96 1.026a2.79 2.79 0 0 1-1.404.348zM98.039 72v-1.596h-.09V65.52h.882V72h-.792zm2.469 0v-6.48h.792v1.56l-.156-.204c.072-.192.166-.368.282-.528a1.83 1.83 0 0 1 .378-.402 1.71 1.71 0 0 1 .588-.336 2.38 2.38 0 0 1 .678-.138 1.96 1.96 0 0 1 .624.048v.828a2.14 2.14 0 0 0-.774-.042c-.28.032-.538.144-.774.336a1.61 1.61 0 0 0-.486.606c-.108.232-.18.48-.216.744a5.64 5.64 0 0 0-.054.774V72h-.882zm9.415.18c-.652 0-1.204-.146-1.656-.438a2.79 2.79 0 0 1-1.032-1.206c-.232-.516-.352-1.108-.36-1.776.008-.68.132-1.276.372-1.788s.586-.916 1.038-1.2 1-.432 1.644-.432c.656 0 1.226.16 1.71.48a2.42 2.42 0 0 1 1.002 1.314l-.864.276c-.152-.388-.394-.688-.726-.9s-.704-.324-1.128-.324c-.476 0-.87.11-1.182.33a1.92 1.92 0 0 0-.696.906c-.152.388-.23.834-.234 1.338.008.776.188 1.4.54 1.872s.876.702 1.572.702c.44 0 .814-.1 1.122-.3s.548-.5.708-.888l.888.264c-.24.576-.592 1.016-1.056 1.32s-1.018.45-1.662.45zm6.486 0c-.644 0-1.194-.146-1.65-.438a2.85 2.85 0 0 1-1.05-1.212c-.244-.516-.366-1.108-.366-1.776 0-.68.124-1.276.372-1.788s.6-.91 1.056-1.194 1.006-.432 1.638-.432c.648 0 1.2.146 1.656.438s.81.69 1.05 1.206.366 1.102.366 1.77c0 .68-.122 1.278-.366 1.794s-.596.912-1.056 1.2-1.01.432-1.65.432zm0-.846c.72 0 1.256-.238 1.608-.714s.528-1.102.528-1.866c0-.784-.178-1.408-.534-1.872s-.886-.696-1.602-.696c-.484 0-.884.11-1.2.33s-.546.518-.702.906-.228.828-.228 1.332c0 .78.18 1.406.54 1.878s.89.702 1.59.702zm9.076.666v-3.306a4.48 4.48 0 0 0-.102-.99c-.068-.304-.178-.568-.33-.792a1.51 1.51 0 0 0-.582-.528c-.236-.124-.524-.186-.864-.186-.312 0-.588.054-.828.162a1.63 1.63 0 0 0-.6.468c-.16.2-.282.444-.366.732s-.126.616-.126.984l-.624-.138c0-.664.116-1.222.348-1.674s.552-.794.96-1.026a2.79 2.79 0 0 1 1.404-.348c.388 0 .726.06 1.014.18s.538.282.738.486a2.47 2.47 0 0 1 .492.702c.124.26.214.538.27.834a4.64 4.64 0 0 1 .084.876V72h-.888zm-4.686 0v-6.48h.798v1.596h.09V72h-.888zm10.659 0a4.32 4.32 0 0 1-1.08.09c-.352-.016-.668-.092-.948-.228s-.486-.348-.63-.636a1.87 1.87 0 0 1-.192-.726l-.012-.846V63.72h.876v5.898l.006.684c.008.18.05.34.126.48.144.268.372.428.684.48s.706.04 1.17-.036V72zm-4.248-5.724v-.756h4.248v.756h-4.248zm8.032 5.904c-.632 0-1.18-.14-1.644-.42a2.85 2.85 0 0 1-1.074-1.182c-.256-.508-.384-1.104-.384-1.788 0-.708.126-1.32.378-1.836s.606-.914 1.062-1.194 1.002-.42 1.626-.42c.64 0 1.186.148 1.638.444s.794.712 1.026 1.26.338 1.202.318 1.962h-.9v-.312c-.016-.84-.198-1.474-.546-1.902s-.848-.642-1.512-.642c-.696 0-1.23.226-1.602.678s-.552 1.096-.552 1.932c0 .816.184 1.45.552 1.902s.898.672 1.578.672c.464 0 .868-.106 1.212-.318s.622-.526.822-.93l.822.318c-.256.564-.634 1.002-1.134 1.314a3.13 3.13 0 0 1-1.686.462zm-2.478-3.174v-.738h4.95v.738h-4.95zM144.024 72v-3.306a4.48 4.48 0 0 0-.102-.99c-.068-.304-.178-.568-.33-.792a1.51 1.51 0 0 0-.582-.528c-.236-.124-.524-.186-.864-.186-.312 0-.588.054-.828.162a1.63 1.63 0 0 0-.6.468c-.16.2-.282.444-.366.732s-.126.616-.126.984l-.624-.138c0-.664.116-1.222.348-1.674s.552-.794.96-1.026a2.79 2.79 0 0 1 1.404-.348c.388 0 .726.06 1.014.18s.538.282.738.486a2.47 2.47 0 0 1 .492.702c.124.26.214.538.27.834a4.64 4.64 0 0 1 .084.876V72h-.888zm-4.686 0v-6.48h.798v1.596h.09V72h-.888zm10.659 0a4.32 4.32 0 0 1-1.08.09c-.352-.016-.668-.092-.948-.228s-.486-.348-.63-.636a1.87 1.87 0 0 1-.192-.726l-.012-.846V63.72h.876v5.898l.006.684c.008.18.05.34.126.48.144.268.372.428.684.48s.706.04 1.17-.036V72zm-4.248-5.724v-.756h4.248v.756h-4.248zM18.258 92.174c-.76 0-1.386-.164-1.878-.492a2.05 2.05 0 0 1-.9-1.368l.9-.15c.096.368.314.662.654.882s.768.324 1.272.324c.492 0 .88-.102 1.164-.306s.426-.49.426-.846c0-.2-.046-.362-.138-.486s-.27-.246-.546-.354-.688-.236-1.236-.384c-.588-.16-1.048-.32-1.38-.48s-.568-.344-.708-.552-.21-.47-.21-.774a1.56 1.56 0 0 1 .312-.966c.208-.28.496-.496.864-.648s.796-.234 1.284-.234.924.08 1.308.24.7.376.936.66a1.85 1.85 0 0 1 .42.99l-.9.162c-.06-.38-.25-.68-.57-.9s-.718-.34-1.206-.348c-.46-.012-.834.076-1.122.264s-.432.43-.432.738a.67.67 0 0 0 .156.444c.104.12.292.234.564.342a10.34 10.34 0 0 0 1.176.354c.596.152 1.064.312 1.404.48s.582.366.726.594.216.51.216.846c0 .612-.228 1.094-.684 1.446s-1.076.522-1.872.522zm6.593.006c-.644 0-1.194-.146-1.65-.438a2.85 2.85 0 0 1-1.05-1.212c-.244-.516-.366-1.108-.366-1.776 0-.68.124-1.276.372-1.788s.6-.91 1.056-1.194 1.006-.432 1.638-.432c.648 0 1.2.146 1.656.438s.81.69 1.05 1.206.366 1.102.366 1.77c0 .68-.122 1.278-.366 1.794s-.596.912-1.056 1.2-1.01.432-1.65.432zm0-.846c.72 0 1.256-.238 1.608-.714s.528-1.102.528-1.866c0-.784-.178-1.408-.534-1.872s-.886-.696-1.602-.696c-.484 0-.884.11-1.2.33s-.546.518-.702.906-.228.828-.228 1.332c0 .78.18 1.406.54 1.878s.89.702 1.59.702zm6.874.828c-.388 0-.728-.06-1.02-.18s-.534-.282-.738-.486-.362-.436-.486-.696-.214-.542-.27-.834-.084-.59-.084-.882V85.52h.888v3.306c0 .356.034.686.102.99s.176.57.324.798.346.398.582.522.53.186.87.186c.312 0 .586-.054.822-.162s.44-.262.6-.462.288-.45.372-.738.126-.62.126-.984l.624.138c0 .664-.116 1.222-.348 1.674s-.552.794-.96 1.026a2.79 2.79 0 0 1-1.404.348zM33.902 92v-1.596h-.09V85.52h.882V92h-.792zm2.469 0v-6.48h.792v1.56l-.156-.204c.072-.192.166-.368.282-.528a1.83 1.83 0 0 1 .378-.402 1.71 1.71 0 0 1 .588-.336 2.38 2.38 0 0 1 .678-.138 1.96 1.96 0 0 1 .624.048v.828a2.14 2.14 0 0 0-.774-.042c-.28.032-.538.144-.774.336a1.61 1.61 0 0 0-.486.606c-.108.232-.18.48-.216.744a5.64 5.64 0 0 0-.054.774V92h-.882zm6.895.18c-.652 0-1.204-.146-1.656-.438a2.79 2.79 0 0 1-1.032-1.206c-.232-.516-.352-1.108-.36-1.776.008-.68.132-1.276.372-1.788s.586-.916 1.038-1.2 1-.432 1.644-.432c.656 0 1.226.16 1.71.48a2.42 2.42 0 0 1 1.002 1.314l-.864.276c-.152-.388-.394-.688-.726-.9s-.704-.324-1.128-.324c-.476 0-.87.11-1.182.33a1.92 1.92 0 0 0-.696.906c-.152.388-.23.834-.234 1.338.008.776.188 1.4.54 1.872s.876.702 1.572.702c.44 0 .814-.1 1.122-.3s.548-.5.708-.888l.888.264c-.24.576-.592 1.016-1.056 1.32s-1.018.45-1.662.45zm6.523 0c-.632 0-1.18-.14-1.644-.42a2.85 2.85 0 0 1-1.074-1.182c-.256-.508-.384-1.104-.384-1.788 0-.708.126-1.32.378-1.836s.606-.914 1.062-1.194 1.002-.42 1.626-.42c.64 0 1.186.148 1.638.444s.794.712 1.026 1.26.338 1.202.318 1.962h-.9v-.312c-.016-.84-.198-1.474-.546-1.902s-.848-.642-1.512-.642c-.696 0-1.23.226-1.602.678s-.552 1.096-.552 1.932c0 .816.184 1.45.552 1.902s.898.672 1.578.672c.464 0 .868-.106 1.212-.318s.622-.526.822-.93l.822.318c-.256.564-.634 1.002-1.134 1.314a3.13 3.13 0 0 1-1.686.462zm-2.478-3.174v-.738h4.95v.738h-4.95zm9.174 3.168c-.76 0-1.386-.164-1.878-.492a2.05 2.05 0 0 1-.9-1.368l.9-.15c.096.368.314.662.654.882s.768.324 1.272.324c.492 0 .88-.102 1.164-.306s.426-.49.426-.846c0-.2-.046-.362-.138-.486s-.27-.246-.546-.354-.688-.236-1.236-.384c-.588-.16-1.048-.32-1.38-.48s-.568-.344-.708-.552-.21-.47-.21-.774a1.56 1.56 0 0 1 .312-.966c.208-.28.496-.496.864-.648s.796-.234 1.284-.234.924.08 1.308.24.7.376.936.66a1.85 1.85 0 0 1 .42.99l-.9.162c-.06-.38-.25-.68-.57-.9s-.718-.34-1.206-.348c-.46-.012-.834.076-1.122.264s-.432.43-.432.738a.67.67 0 0 0 .156.444c.104.12.292.234.564.342a10.34 10.34 0 0 0 1.176.354c.596.152 1.064.312 1.404.48s.582.366.726.594.216.51.216.846c0 .612-.228 1.094-.684 1.446s-1.076.522-1.872.522zm3.767 1.08l.054-.438c.16.012.276-.02.348-.096s.116-.178.132-.306a2.33 2.33 0 0 0 .012-.414h-.546v-1.266h1.026v1.506c0 .368-.094.644-.282.828s-.432.246-.744.186zm7.564-1.074c-.488 0-.898-.088-1.23-.264a1.79 1.79 0 0 1-.738-.702c-.164-.292-.246-.61-.246-.954 0-.352.07-.652.21-.9s.338-.458.582-.618.534-.282.858-.366l1.086-.21 1.17-.162 1.008-.138-.312.192c.012-.64-.112-1.114-.372-1.422s-.712-.462-1.356-.462c-.444 0-.82.1-1.128.3s-.518.516-.642.948l-.858-.252c.148-.58.446-1.03.894-1.35s1.03-.48 1.746-.48c.592 0 1.094.112 1.506.336s.71.54.882.96c.08.188.132.398.156.63s.036.468.036.708V92h-.786v-1.626l.228.096c-.22.556-.562.98-1.026 1.272s-1.02.438-1.668.438zm.102-.762c.412 0 .772-.074 1.08-.222s.556-.35.744-.606a2.08 2.08 0 0 0 .366-.876 3.28 3.28 0 0 0 .078-.684l.006-.564.336.174-.978.12-1.032.138-.912.186c-.184.052-.362.126-.534.222s-.314.216-.426.372-.162.35-.162.582c0 .188.046.37.138.546s.248.322.456.438.492.174.84.174zm9.392.582v-3.306a4.48 4.48 0 0 0-.102-.99c-.068-.304-.178-.568-.33-.792a1.51 1.51 0 0 0-.582-.528c-.236-.124-.524-.186-.864-.186-.312 0-.588.054-.828.162a1.63 1.63 0 0 0-.6.468c-.16.2-.282.444-.366.732s-.126.616-.126.984l-.624-.138c0-.664.116-1.222.348-1.674s.552-.794.96-1.026a2.79 2.79 0 0 1 1.404-.348c.388 0 .726.06 1.014.18s.538.282.738.486a2.47 2.47 0 0 1 .492.702c.124.26.214.538.27.834a4.64 4.64 0 0 1 .084.876V92h-.888zm-4.686 0v-6.48h.798v1.596h.09V92h-.888zm9.61.18c-.604 0-1.12-.15-1.548-.45s-.756-.714-.984-1.23-.342-1.098-.342-1.746.112-1.224.336-1.74.554-.924.978-1.224.932-.45 1.524-.45c.608 0 1.12.148 1.536.444s.73.702.942 1.218.324 1.096.324 1.752c0 .644-.106 1.226-.318 1.746s-.524.926-.936 1.23-.916.45-1.512.45zm.09-.822c.46 0 .84-.112 1.14-.336s.524-.532.672-.924.222-.844.222-1.344c0-.508-.074-.956-.222-1.344s-.372-.698-.672-.918-.67-.33-1.122-.33c-.464 0-.848.114-1.152.342s-.53.538-.678.93-.216.832-.216 1.32.074.936.222 1.332a2.08 2.08 0 0 0 .678.93c.3.228.676.342 1.128.342zm2.034.642v-4.878h-.096V83.36h.888V92h-.792zm6.258 0l-1.98-6.486.882.006 1.536 5.034 1.542-5.034h.804l1.542 5.034 1.548-5.034h.876L95.385 92h-.768l-1.62-5.16L91.383 92h-.768zm10.338.18c-.632 0-1.18-.14-1.644-.42a2.85 2.85 0 0 1-1.074-1.182c-.256-.508-.384-1.104-.384-1.788 0-.708.126-1.32.378-1.836s.606-.914 1.062-1.194 1.002-.42 1.626-.42c.64 0 1.186.148 1.638.444s.794.712 1.026 1.26.338 1.202.318 1.962h-.9v-.312c-.016-.84-.198-1.474-.546-1.902s-.848-.642-1.512-.642c-.696 0-1.23.226-1.602.678s-.552 1.096-.552 1.932c0 .816.184 1.45.552 1.902s.898.672 1.578.672c.464 0 .868-.106 1.212-.318s.622-.526.822-.93l.822.318c-.256.564-.634 1.002-1.134 1.314a3.13 3.13 0 0 1-1.686.462zm-2.478-3.174v-.738h4.95v.738h-4.95zM109.013 92l-1.98-6.486.882.006 1.536 5.034 1.542-5.034h.804l1.542 5.034 1.548-5.034h.876l-1.98 6.48h-.768l-1.62-5.16-1.614 5.16h-.768zm7.951-7.71v-.99h.882v.99h-.882zm0 7.71v-6.48h.882V92h-.882zm2.801 0v-8.82h.882V92h-.882zm2.8 0v-8.82h.882V92h-.882zm5.204-7.71v-.99h.882v.99h-.882zm0 7.71v-6.48h.882V92h-.882zm7.36 0v-3.306a4.48 4.48 0 0 0-.102-.99c-.068-.304-.178-.568-.33-.792a1.51 1.51 0 0 0-.582-.528c-.236-.124-.524-.186-.864-.186-.312 0-.588.054-.828.162a1.63 1.63 0 0 0-.6.468c-.16.2-.282.444-.366.732s-.126.616-.126.984l-.624-.138c0-.664.116-1.222.348-1.674s.552-.794.96-1.026a2.79 2.79 0 0 1 1.404-.348c.388 0 .726.06 1.014.18s.538.282.738.486a2.47 2.47 0 0 1 .492.702c.124.26.214.538.27.834a4.64 4.64 0 0 1 .084.876V92h-.888zm-4.686 0v-6.48h.798v1.596h.09V92h-.888zm9.61.18c-.604 0-1.12-.15-1.548-.45s-.756-.714-.984-1.23-.342-1.098-.342-1.746.112-1.224.336-1.74.554-.924.978-1.224.932-.45 1.524-.45c.608 0 1.12.148 1.536.444s.73.702.942 1.218.324 1.096.324 1.752c0 .644-.106 1.226-.318 1.746s-.524.926-.936 1.23-.916.45-1.512.45zm.09-.822c.46 0 .84-.112 1.14-.336s.524-.532.672-.924.222-.844.222-1.344c0-.508-.074-.956-.222-1.344s-.372-.698-.672-.918-.67-.33-1.122-.33c-.464 0-.848.114-1.152.342s-.53.538-.678.93-.216.832-.216 1.32.074.936.222 1.332a2.08 2.08 0 0 0 .678.93c.3.228.676.342 1.128.342zm2.034.642v-4.878h-.096V83.36h.888V92h-.792zm5.218.18c-.632 0-1.18-.14-1.644-.42a2.85 2.85 0 0 1-1.074-1.182c-.256-.508-.384-1.104-.384-1.788 0-.708.126-1.32.378-1.836s.606-.914 1.062-1.194 1.002-.42 1.626-.42c.64 0 1.186.148 1.638.444s.794.712 1.026 1.26.338 1.202.318 1.962h-.9v-.312c-.016-.84-.198-1.474-.546-1.902s-.848-.642-1.512-.642c-.696 0-1.23.226-1.602.678s-.552 1.096-.552 1.932c0 .816.184 1.45.552 1.902s.898.672 1.578.672c.464 0 .868-.106 1.212-.318s.622-.526.822-.93l.822.318c-.256.564-.634 1.002-1.134 1.314a3.13 3.13 0 0 1-1.686.462zm-2.478-3.174v-.738h4.95v.738h-4.95zM150.718 92l2.532-3.276-2.478-3.204h1.056l1.938 2.526 1.92-2.526h1.056l-2.478 3.204L156.802 92h-1.062l-1.974-2.598L151.78 92h-1.062zm12.978 0a4.32 4.32 0 0 1-1.08.09c-.352-.016-.668-.092-.948-.228s-.486-.348-.63-.636a1.87 1.87 0 0 1-.192-.726l-.012-.846V83.72h.876v5.898l.006.684c.008.18.05.34.126.48.144.268.372.428.684.48s.706.04 1.17-.036V92zm-4.248-5.724v-.756h4.248v.756h-4.248zM169.653 92v-3.306a4.48 4.48 0 0 0-.102-.99c-.068-.304-.178-.568-.33-.792a1.51 1.51 0 0 0-.582-.528c-.236-.124-.524-.186-.864-.186-.312 0-.588.054-.828.162a1.63 1.63 0 0 0-.6.468c-.16.2-.282.444-.366.732s-.126.616-.126.984l-.624-.138c0-.664.116-1.222.348-1.674s.552-.794.96-1.026a2.79 2.79 0 0 1 1.404-.348c.388 0 .726.06 1.014.18s.538.282.738.486a2.47 2.47 0 0 1 .492.702c.124.26.214.538.27.834a4.64 4.64 0 0 1 .084.876V92h-.888zm-4.686 0v-8.64h.798v4.878h.09V92h-.888zm9.873.18c-.632 0-1.18-.14-1.644-.42a2.85 2.85 0 0 1-1.074-1.182c-.256-.508-.384-1.104-.384-1.788 0-.708.126-1.32.378-1.836s.606-.914 1.062-1.194 1.002-.42 1.626-.42c.64 0 1.186.148 1.638.444s.794.712 1.026 1.26.338 1.202.318 1.962h-.9v-.312c-.016-.84-.198-1.474-.546-1.902s-.848-.642-1.512-.642c-.696 0-1.23.226-1.602.678s-.552 1.096-.552 1.932c0 .816.184 1.45.552 1.902s.898.672 1.578.672c.464 0 .868-.106 1.212-.318s.622-.526.822-.93l.822.318c-.256.564-.634 1.002-1.134 1.314a3.13 3.13 0 0 1-1.686.462zm-2.478-3.174v-.738h4.95v.738h-4.95zM18.528 112.18c-.652 0-1.204-.146-1.656-.438a2.79 2.79 0 0 1-1.032-1.206c-.232-.516-.352-1.108-.36-1.776.008-.68.132-1.276.372-1.788s.586-.916 1.038-1.2 1-.432 1.644-.432c.656 0 1.226.16 1.71.48a2.42 2.42 0 0 1 1.002 1.314l-.864.276c-.152-.388-.394-.688-.726-.9s-.704-.324-1.128-.324c-.476 0-.87.11-1.182.33a1.92 1.92 0 0 0-.696.906c-.152.388-.23.834-.234 1.338.008.776.188 1.4.54 1.872s.876.702 1.572.702c.44 0 .814-.1 1.122-.3s.548-.5.708-.888l.888.264c-.24.576-.592 1.016-1.056 1.32s-1.018.45-1.662.45zm6.487 0c-.644 0-1.194-.146-1.65-.438a2.85 2.85 0 0 1-1.05-1.212c-.244-.516-.366-1.108-.366-1.776 0-.68.124-1.276.372-1.788s.6-.91 1.056-1.194 1.006-.432 1.638-.432c.648 0 1.2.146 1.656.438s.81.69 1.05 1.206.366 1.102.366 1.77c0 .68-.122 1.278-.366 1.794s-.596.912-1.056 1.2-1.01.432-1.65.432zm0-.846c.72 0 1.256-.238 1.608-.714s.528-1.102.528-1.866c0-.784-.178-1.408-.534-1.872s-.886-.696-1.602-.696c-.484 0-.884.11-1.2.33s-.546.518-.702.906-.228.828-.228 1.332c0 .78.18 1.406.54 1.878s.89.702 1.59.702zm9.075.666v-3.306a4.48 4.48 0 0 0-.102-.99c-.068-.304-.178-.568-.33-.792a1.51 1.51 0 0 0-.582-.528c-.236-.124-.524-.186-.864-.186-.312 0-.588.054-.828.162a1.63 1.63 0 0 0-.6.468c-.16.2-.282.444-.366.732s-.126.616-.126.984l-.624-.138c0-.664.116-1.222.348-1.674s.552-.794.96-1.026a2.79 2.79 0 0 1 1.404-.348c.388 0 .726.06 1.014.18s.538.282.738.486a2.47 2.47 0 0 1 .492.702c.124.26.214.538.27.834a4.64 4.64 0 0 1 .084.876V112h-.888zm-4.686 0v-6.48h.798v1.596h.09V112h-.888zm10.659 0a4.32 4.32 0 0 1-1.08.09c-.352-.016-.668-.092-.948-.228s-.486-.348-.63-.636a1.87 1.87 0 0 1-.192-.726l-.012-.846v-5.934h.876v5.898l.006.684c.008.18.05.34.126.48.144.268.372.428.684.48s.706.04 1.17-.036V112zm-4.248-5.724v-.756h4.248v.756h-4.248zm8.032 5.904c-.632 0-1.18-.14-1.644-.42a2.85 2.85 0 0 1-1.074-1.182c-.256-.508-.384-1.104-.384-1.788 0-.708.126-1.32.378-1.836s.606-.914 1.062-1.194 1.002-.42 1.626-.42c.64 0 1.186.148 1.638.444s.794.712 1.026 1.26.338 1.202.318 1.962h-.9v-.312c-.016-.84-.198-1.474-.546-1.902s-.848-.642-1.512-.642c-.696 0-1.23.226-1.602.678s-.552 1.096-.552 1.932c0 .816.184 1.45.552 1.902s.898.672 1.578.672c.464 0 .868-.106 1.212-.318s.622-.526.822-.93l.822.318c-.256.564-.634 1.002-1.134 1.314a3.13 3.13 0 0 1-1.686.462zm-2.478-3.174v-.738h4.95v.738h-4.95zM52.629 112v-3.306a4.48 4.48 0 0 0-.102-.99c-.068-.304-.178-.568-.33-.792a1.51 1.51 0 0 0-.582-.528c-.236-.124-.524-.186-.864-.186-.312 0-.588.054-.828.162a1.63 1.63 0 0 0-.6.468c-.16.2-.282.444-.366.732s-.126.616-.126.984l-.624-.138c0-.664.116-1.222.348-1.674s.552-.794.96-1.026a2.79 2.79 0 0 1 1.404-.348c.388 0 .726.06 1.014.18s.538.282.738.486a2.47 2.47 0 0 1 .492.702c.124.26.214.538.27.834a4.64 4.64 0 0 1 .084.876V112h-.888zm-4.686 0v-6.48h.798v1.596h.09V112h-.888zm10.659 0a4.32 4.32 0 0 1-1.08.09c-.352-.016-.668-.092-.948-.228s-.486-.348-.63-.636a1.87 1.87 0 0 1-.192-.726l-.012-.846v-5.934h.876v5.898l.006.684c.008.18.05.34.126.48.144.268.372.428.684.48s.706.04 1.17-.036V112zm-4.248-5.724v-.756h4.248v.756h-4.248zM60.047 112v-1.026h1.026V112h-1.026z" fill="#667185"/><path d="M55.98 34V23.92h3.962c.639 0 1.176.131 1.61.392s.761.6.98 1.015.329.845.329 1.302c0 .555-.138 1.031-.413 1.428s-.637.667-1.099.812l-.014-.343c.644.159 1.139.469 1.484.931s.518.992.518 1.603c0 .593-.119 1.108-.357 1.547s-.576.782-1.029 1.029-.992.364-1.631.364h-4.34zm1.484-1.393h2.632c.331 0 .628-.063.889-.189s.474-.306.623-.539.231-.52.231-.847c0-.303-.068-.576-.203-.819s-.322-.441-.574-.581-.539-.217-.875-.217h-2.723v3.192zm0-4.571h2.457c.271 0 .513-.054.728-.161s.392-.271.518-.476.196-.462.196-.756c0-.392-.131-.714-.392-.966s-.611-.378-1.05-.378h-2.457v2.737zm10.115 6.167c-.523 0-.961-.084-1.316-.252s-.644-.387-.868-.658-.387-.574-.504-.896-.196-.637-.238-.945a6.1 6.1 0 0 1-.063-.812v-4.2h1.484v3.717a6.16 6.16 0 0 0 .07.91 2.96 2.96 0 0 0 .28.861c.14.266.334.481.581.644s.579.245.98.245c.261 0 .509-.042.742-.126s.436-.229.609-.42.315-.443.413-.756.154-.693.154-1.141l.91.343c0 .686-.128 1.293-.385 1.82a2.9 2.9 0 0 1-1.106 1.225c-.481.294-1.062.441-1.743.441zM70.078 34v-2.184h-.175V26.44h1.477V34h-1.302zm3.405 0V23.71h1.463V34h-1.463zm3.558 0l.007-10.08h1.484v6.16l2.968-3.64h1.862l-3.136 3.78L83.684 34h-1.988l-3.164-3.64V34h-1.491zm10.292 0V23.92h1.463V34h-1.463zm12.623 0l.007-4.711c0-.546-.14-.971-.42-1.274s-.649-.462-1.106-.462a1.55 1.55 0 0 0-.77.196c-.229.126-.415.317-.56.574s-.21.569-.21.952l-.707-.357c-.009-.532.103-.999.336-1.4a2.47 2.47 0 0 1 .966-.931c.406-.224.861-.336 1.365-.336.817 0 1.449.245 1.897.735s.672 1.141.672 1.953L101.419 34h-1.463zm-9.065 0v-7.56h1.302v2.184h.168V34h-1.47zm4.536 0l.007-4.683c0-.551-.14-.982-.42-1.295s-.646-.469-1.113-.469-.835.159-1.12.476-.42.733-.42 1.246l-.7-.448c0-.495.119-.936.357-1.323a2.57 2.57 0 0 1 .966-.917c.406-.224.866-.336 1.379-.336.537 0 .994.114 1.372.343s.665.539.861.945.301.877.301 1.414L96.89 34h-1.463zm11.366.21c-.724 0-1.33-.175-1.82-.525s-.861-.833-1.113-1.435-.378-1.281-.378-2.037.123-1.435.371-2.037.62-1.076 1.106-1.421 1.092-.525 1.806-.525 1.32.175 1.834.525.917.819 1.197 1.421.42 1.276.42 2.037-.14 1.437-.42 2.044-.67 1.078-1.183 1.428-1.116.525-1.82.525zm-3.556 3.15V26.44h1.302v5.439h.168v5.481h-1.47zm3.353-4.473c.466 0 .851-.119 1.155-.357s.536-.558.686-.959.231-.859.231-1.358-.077-.943-.231-1.344-.381-.721-.693-.959-.712-.357-1.197-.357c-.458 0-.836.112-1.134.336s-.514.537-.658.938-.21.863-.21 1.386.07.985.21 1.386.361.716.665.945.695.343 1.176.343zm8.454 1.323c-.756 0-1.411-.17-1.967-.511a3.45 3.45 0 0 1-1.288-1.407c-.298-.602-.448-1.295-.448-2.079s.154-1.482.462-2.079.74-1.069 1.295-1.4 1.204-.504 1.946-.504c.756 0 1.412.17 1.967.511s.985.81 1.288 1.407.455 1.286.455 2.065c0 .789-.154 1.484-.462 2.086s-.732 1.066-1.288 1.407-1.208.504-1.96.504zm0-1.379c.724 0 1.263-.243 1.617-.728.36-.49.539-1.12.539-1.89 0-.789-.182-1.419-.546-1.89-.359-.476-.896-.714-1.61-.714-.49 0-.893.112-1.211.336s-.553.525-.707.917-.231.838-.231 1.351c0 .793.182 1.428.546 1.904s.899.714 1.603.714zM120.293 34v-7.56h1.302v1.834l-.182-.238c.093-.243.214-.464.364-.665s.322-.373.518-.504a2.2 2.2 0 0 1 .637-.322c.238-.079.48-.126.728-.14a2.78 2.78 0 0 1 .714.035v1.372c-.248-.065-.523-.084-.826-.056s-.574.124-.826.287c-.238.154-.427.341-.567.56s-.234.464-.294.735a3.78 3.78 0 0 0-.091.847V34h-1.477zm9.74 0c-.476.093-.943.133-1.4.119s-.866-.103-1.225-.266-.63-.42-.812-.77c-.164-.313-.252-.63-.266-.952l-.014-1.106V24.34h1.47v6.615l.007.791c.009.224.058.413.147.567.168.289.434.455.798.497s.8.021 1.295-.049V34zm-5.166-6.384V26.44h5.166v1.176h-5.166z" fill="#475367"/><path d="M13 19a6 6 0 0 1 6-6h20a6 6 0 0 1 6 6v20a6 6 0 0 1-6 6H19a6 6 0 0 1-6-6V19z" fill="#eafbf7"/><mask id="A" maskUnits="userSpaceOnUse" x="17" y="17" width="24" height="24" mask-type="alpha"><path fill="#d9d9d9" d="M17 17h24v24H17z"/></mask><g mask="url(#A)"><path d="M34.101 33.8h-1.825c-.233 0-.438-.086-.613-.259s-.262-.386-.262-.641c0-.233.086-.442.259-.625s.386-.275.641-.275h1.8v-1.8c0-.255.086-.469.257-.641s.384-.259.638-.259a.87.87 0 0 1 .899.9V32h1.804c.256 0 .47.086.643.259a.87.87 0 0 1 .259.641.87.87 0 0 1-.259.641c-.173.172-.387.259-.643.259h-1.804v1.8a.87.87 0 0 1-.899.9c-.254 0-.466-.086-.638-.259s-.257-.386-.257-.641v-1.8zm-7.2 0h-2.7a4.62 4.62 0 0 1-3.396-1.406 4.63 4.63 0 0 1-1.404-3.4c0-1.33.468-2.461 1.404-3.394a4.63 4.63 0 0 1 3.396-1.4h2.7a.86.86 0 0 1 .625.275c.183.183.275.396.275.637s-.092.45-.275.625a.88.88 0 0 1-.625.262h-2.7a2.89 2.89 0 0 0-2.125.875A2.89 2.89 0 0 0 21.201 29a2.89 2.89 0 0 0 .875 2.125 2.89 2.89 0 0 0 2.125.875h2.7a.86.86 0 0 1 .625.275c.183.183.275.396.275.638s-.092.45-.275.625a.88.88 0 0 1-.625.263zm-.593-3.9c-.255 0-.469-.086-.645-.257s-.262-.384-.262-.637a.88.88 0 0 1 .259-.643c.172-.175.386-.262.64-.262h5.394c.255 0 .47.086.645.257s.262.384.262.637a.88.88 0 0 1-.258.643c-.172.175-.386.263-.64.263h-5.394zm12.293-.9h-1.8a2.89 2.89 0 0 0-.875-2.125A2.89 2.89 0 0 0 33.801 26h-2.725c-.233 0-.437-.086-.613-.259s-.262-.386-.262-.641c0-.233.086-.442.259-.625s.386-.275.641-.275h2.7c1.328 0 2.46.468 3.396 1.404s1.404 2.068 1.404 3.396z" fill="#4ddbbb"/></g><defs><linearGradient id="B" x1="103" y1="1" x2="103" y2="141" gradientUnits="userSpaceOnUse"><stop stop-color="#e4e7ec"/><stop offset="1" stop-color="#fff"/></linearGradient></defs></svg>