<svg width="206" height="142" viewBox="0 0 206 142" fill="none" xmlns="http://www.w3.org/2000/svg">
<rect x="0.5" y="0.5" width="205" height="141" rx="10.5" fill="white" stroke="url(#paint0_linear_1748_2012)"/>
<path d="M15.84 72V63.36H19.176C19.66 63.36 20.082 63.46 20.442 63.66C20.802 63.86 21.082 64.13 21.282 64.47C21.482 64.806 21.582 65.178 21.582 65.586C21.582 66.05 21.458 66.464 21.21 66.828C20.962 67.188 20.63 67.438 20.214 67.578L20.202 67.284C20.762 67.444 21.202 67.724 21.522 68.124C21.842 68.524 22.002 69.008 22.002 69.576C22.002 70.076 21.896 70.508 21.684 70.872C21.472 71.232 21.174 71.51 20.79 71.706C20.406 71.902 19.96 72 19.452 72H15.84ZM16.728 71.154H19.236C19.588 71.154 19.904 71.092 20.184 70.968C20.464 70.84 20.684 70.66 20.844 70.428C21.008 70.196 21.09 69.916 21.09 69.588C21.09 69.268 21.016 68.98 20.868 68.724C20.72 68.468 20.518 68.264 20.262 68.112C20.01 67.956 19.722 67.878 19.398 67.878H16.728V71.154ZM16.728 67.044H19.17C19.446 67.044 19.698 66.982 19.926 66.858C20.154 66.73 20.334 66.556 20.466 66.336C20.602 66.116 20.67 65.862 20.67 65.574C20.67 65.166 20.528 64.834 20.244 64.578C19.964 64.322 19.606 64.194 19.17 64.194H16.728V67.044ZM25.6774 72.162C25.2894 72.162 24.9494 72.102 24.6574 71.982C24.3694 71.862 24.1234 71.7 23.9194 71.496C23.7194 71.292 23.5574 71.06 23.4334 70.8C23.3094 70.536 23.2194 70.258 23.1634 69.966C23.1074 69.67 23.0794 69.376 23.0794 69.084V65.52H23.9674V68.826C23.9674 69.182 24.0014 69.512 24.0694 69.816C24.1374 70.12 24.2454 70.386 24.3934 70.614C24.5454 70.838 24.7394 71.012 24.9754 71.136C25.2154 71.26 25.5054 71.322 25.8454 71.322C26.1574 71.322 26.4314 71.268 26.6674 71.16C26.9074 71.052 27.1074 70.898 27.2674 70.698C27.4314 70.494 27.5554 70.248 27.6394 69.96C27.7234 69.668 27.7654 69.34 27.7654 68.976L28.3894 69.114C28.3894 69.778 28.2734 70.336 28.0414 70.788C27.8094 71.24 27.4894 71.582 27.0814 71.814C26.6734 72.046 26.2054 72.162 25.6774 72.162ZM27.8554 72V70.404H27.7654V65.52H28.6474V72H27.8554ZM30.4444 72V63.18H31.3264V72H30.4444ZM33.1192 72L33.1252 63.36H34.0132V68.64L36.9052 65.52H38.0812L35.0452 68.76L38.4772 72H37.1932L34.0132 68.88V72H33.1192ZM41.6006 64.29V63.3H42.4826V64.29H41.6006ZM41.6006 72V65.52H42.4826V72H41.6006ZM52.0094 72L52.0154 67.746C52.0154 67.246 51.8754 66.854 51.5954 66.57C51.3194 66.282 50.9674 66.138 50.5394 66.138C50.2954 66.138 50.0574 66.194 49.8254 66.306C49.5934 66.418 49.4014 66.598 49.2494 66.846C49.1014 67.094 49.0274 67.418 49.0274 67.818L48.5054 67.668C48.4934 67.204 48.5834 66.798 48.7754 66.45C48.9714 66.102 49.2394 65.832 49.5794 65.64C49.9234 65.444 50.3114 65.346 50.7434 65.346C51.3954 65.346 51.9174 65.548 52.3094 65.952C52.7014 66.352 52.8974 66.894 52.8974 67.578L52.8914 72H52.0094ZM44.2754 72V65.52H45.0674V67.116H45.1634V72H44.2754ZM48.1514 72L48.1574 67.806C48.1574 67.29 48.0194 66.884 47.7434 66.588C47.4714 66.288 47.1114 66.138 46.6634 66.138C46.2154 66.138 45.8534 66.292 45.5774 66.6C45.3014 66.904 45.1634 67.31 45.1634 67.818L44.6354 67.53C44.6354 67.114 44.7334 66.742 44.9294 66.414C45.1254 66.082 45.3934 65.822 45.7334 65.634C46.0734 65.442 46.4594 65.346 46.8914 65.346C47.3034 65.346 47.6694 65.434 47.9894 65.61C48.3134 65.786 48.5674 66.042 48.7514 66.378C48.9354 66.714 49.0274 67.122 49.0274 67.602L49.0214 72H48.1514ZM57.3633 72.18C56.7673 72.18 56.2633 72.03 55.8513 71.73C55.4393 71.426 55.1273 71.016 54.9153 70.5C54.7033 69.98 54.5973 69.398 54.5973 68.754C54.5973 68.098 54.7033 67.514 54.9153 67.002C55.1313 66.486 55.4473 66.08 55.8633 65.784C56.2793 65.488 56.7913 65.34 57.3993 65.34C57.9913 65.34 58.4993 65.49 58.9233 65.79C59.3473 66.09 59.6713 66.498 59.8953 67.014C60.1233 67.53 60.2373 68.11 60.2373 68.754C60.2373 69.402 60.1233 69.984 59.8953 70.5C59.6673 71.016 59.3393 71.426 58.9113 71.73C58.4833 72.03 57.9673 72.18 57.3633 72.18ZM54.4473 74.88V65.52H55.2393V70.398H55.3353V74.88H54.4473ZM57.2733 71.358C57.7253 71.358 58.1013 71.244 58.4013 71.016C58.7013 70.788 58.9253 70.478 59.0733 70.086C59.2253 69.69 59.3013 69.246 59.3013 68.754C59.3013 68.266 59.2273 67.826 59.0793 67.434C58.9313 67.042 58.7053 66.732 58.4013 66.504C58.1013 66.276 57.7193 66.162 57.2553 66.162C56.8033 66.162 56.4273 66.272 56.1273 66.492C55.8313 66.712 55.6093 67.018 55.4613 67.41C55.3133 67.798 55.2393 68.246 55.2393 68.754C55.2393 69.254 55.3133 69.702 55.4613 70.098C55.6093 70.49 55.8333 70.798 56.1333 71.022C56.4333 71.246 56.8133 71.358 57.2733 71.358ZM64.2608 72.18C63.6168 72.18 63.0668 72.034 62.6108 71.742C62.1548 71.45 61.8048 71.046 61.5608 70.53C61.3168 70.014 61.1948 69.422 61.1948 68.754C61.1948 68.074 61.3188 67.478 61.5668 66.966C61.8148 66.454 62.1668 66.056 62.6228 65.772C63.0828 65.484 63.6288 65.34 64.2608 65.34C64.9088 65.34 65.4608 65.486 65.9168 65.778C66.3768 66.066 66.7268 66.468 66.9668 66.984C67.2108 67.496 67.3328 68.086 67.3328 68.754C67.3328 69.434 67.2108 70.032 66.9668 70.548C66.7228 71.06 66.3708 71.46 65.9108 71.748C65.4508 72.036 64.9008 72.18 64.2608 72.18ZM64.2608 71.334C64.9808 71.334 65.5168 71.096 65.8688 70.62C66.2208 70.14 66.3968 69.518 66.3968 68.754C66.3968 67.97 66.2188 67.346 65.8628 66.882C65.5108 66.418 64.9768 66.186 64.2608 66.186C63.7768 66.186 63.3768 66.296 63.0608 66.516C62.7488 66.732 62.5148 67.034 62.3588 67.422C62.2068 67.806 62.1308 68.25 62.1308 68.754C62.1308 69.534 62.3108 70.16 62.6708 70.632C63.0308 71.1 63.5608 71.334 64.2608 71.334ZM68.6564 72V65.52H69.4484V67.08L69.2924 66.876C69.3644 66.684 69.4584 66.508 69.5744 66.348C69.6904 66.184 69.8164 66.05 69.9524 65.946C70.1204 65.798 70.3164 65.686 70.5404 65.61C70.7644 65.53 70.9904 65.484 71.2184 65.472C71.4464 65.456 71.6544 65.472 71.8424 65.52V66.348C71.6064 66.288 71.3484 66.274 71.0684 66.306C70.7884 66.338 70.5304 66.45 70.2944 66.642C70.0784 66.81 69.9164 67.012 69.8084 67.248C69.7004 67.48 69.6284 67.728 69.5924 67.992C69.5564 68.252 69.5384 68.51 69.5384 68.766V72H68.6564ZM76.5086 72C76.1446 72.076 75.7846 72.106 75.4286 72.09C75.0766 72.074 74.7606 71.998 74.4806 71.862C74.2046 71.726 73.9946 71.514 73.8506 71.226C73.7346 70.986 73.6706 70.744 73.6586 70.5C73.6506 70.252 73.6466 69.97 73.6466 69.654V63.72H74.5226V69.618C74.5226 69.89 74.5246 70.118 74.5286 70.302C74.5366 70.482 74.5786 70.642 74.6546 70.782C74.7986 71.05 75.0266 71.21 75.3386 71.262C75.6546 71.314 76.0446 71.302 76.5086 71.226V72ZM72.2606 66.276V65.52H76.5086V66.276H72.2606ZM81.1117 74.88L82.3657 71.478L82.3837 72.486L79.5457 65.52H80.4817L82.8097 71.346H82.4257L84.5737 65.52H85.4737L81.9937 74.88H81.1117ZM88.9874 72.18C88.3434 72.18 87.7934 72.034 87.3374 71.742C86.8814 71.45 86.5314 71.046 86.2874 70.53C86.0434 70.014 85.9214 69.422 85.9214 68.754C85.9214 68.074 86.0454 67.478 86.2934 66.966C86.5414 66.454 86.8934 66.056 87.3494 65.772C87.8094 65.484 88.3554 65.34 88.9874 65.34C89.6354 65.34 90.1874 65.486 90.6434 65.778C91.1034 66.066 91.4534 66.468 91.6934 66.984C91.9374 67.496 92.0594 68.086 92.0594 68.754C92.0594 69.434 91.9374 70.032 91.6934 70.548C91.4494 71.06 91.0974 71.46 90.6374 71.748C90.1774 72.036 89.6274 72.18 88.9874 72.18ZM88.9874 71.334C89.7074 71.334 90.2434 71.096 90.5954 70.62C90.9474 70.14 91.1234 69.518 91.1234 68.754C91.1234 67.97 90.9454 67.346 90.5894 66.882C90.2374 66.418 89.7034 66.186 88.9874 66.186C88.5034 66.186 88.1034 66.296 87.7874 66.516C87.4754 66.732 87.2414 67.034 87.0854 67.422C86.9334 67.806 86.8574 68.25 86.8574 68.754C86.8574 69.534 87.0374 70.16 87.3974 70.632C87.7574 71.1 88.2874 71.334 88.9874 71.334ZM95.861 72.162C95.473 72.162 95.133 72.102 94.841 71.982C94.553 71.862 94.307 71.7 94.103 71.496C93.903 71.292 93.741 71.06 93.617 70.8C93.493 70.536 93.403 70.258 93.347 69.966C93.291 69.67 93.263 69.376 93.263 69.084V65.52H94.151V68.826C94.151 69.182 94.185 69.512 94.253 69.816C94.321 70.12 94.429 70.386 94.577 70.614C94.729 70.838 94.923 71.012 95.159 71.136C95.399 71.26 95.689 71.322 96.029 71.322C96.341 71.322 96.615 71.268 96.851 71.16C97.091 71.052 97.291 70.898 97.451 70.698C97.615 70.494 97.739 70.248 97.823 69.96C97.907 69.668 97.949 69.34 97.949 68.976L98.573 69.114C98.573 69.778 98.457 70.336 98.225 70.788C97.993 71.24 97.673 71.582 97.265 71.814C96.857 72.046 96.389 72.162 95.861 72.162ZM98.039 72V70.404H97.949V65.52H98.831V72H98.039ZM100.508 72V65.52H101.3V67.08L101.144 66.876C101.216 66.684 101.31 66.508 101.426 66.348C101.542 66.184 101.668 66.05 101.804 65.946C101.972 65.798 102.168 65.686 102.392 65.61C102.616 65.53 102.842 65.484 103.07 65.472C103.298 65.456 103.506 65.472 103.694 65.52V66.348C103.458 66.288 103.2 66.274 102.92 66.306C102.64 66.338 102.382 66.45 102.146 66.642C101.93 66.81 101.768 67.012 101.66 67.248C101.552 67.48 101.48 67.728 101.444 67.992C101.408 68.252 101.39 68.51 101.39 68.766V72H100.508ZM109.923 72.18C109.271 72.18 108.719 72.034 108.267 71.742C107.815 71.45 107.471 71.048 107.235 70.536C107.003 70.02 106.883 69.428 106.875 68.76C106.883 68.08 107.007 67.484 107.247 66.972C107.487 66.456 107.833 66.056 108.285 65.772C108.737 65.484 109.285 65.34 109.929 65.34C110.585 65.34 111.155 65.5 111.639 65.82C112.127 66.14 112.461 66.578 112.641 67.134L111.777 67.41C111.625 67.022 111.383 66.722 111.051 66.51C110.723 66.294 110.347 66.186 109.923 66.186C109.447 66.186 109.053 66.296 108.741 66.516C108.429 66.732 108.197 67.034 108.045 67.422C107.893 67.81 107.815 68.256 107.811 68.76C107.819 69.536 107.999 70.16 108.351 70.632C108.703 71.1 109.227 71.334 109.923 71.334C110.363 71.334 110.737 71.234 111.045 71.034C111.357 70.83 111.593 70.534 111.753 70.146L112.641 70.41C112.401 70.986 112.049 71.426 111.585 71.73C111.121 72.03 110.567 72.18 109.923 72.18ZM116.409 72.18C115.765 72.18 115.215 72.034 114.759 71.742C114.303 71.45 113.953 71.046 113.709 70.53C113.465 70.014 113.343 69.422 113.343 68.754C113.343 68.074 113.467 67.478 113.715 66.966C113.963 66.454 114.315 66.056 114.771 65.772C115.231 65.484 115.777 65.34 116.409 65.34C117.057 65.34 117.609 65.486 118.065 65.778C118.525 66.066 118.875 66.468 119.115 66.984C119.359 67.496 119.481 68.086 119.481 68.754C119.481 69.434 119.359 70.032 119.115 70.548C118.871 71.06 118.519 71.46 118.059 71.748C117.599 72.036 117.049 72.18 116.409 72.18ZM116.409 71.334C117.129 71.334 117.665 71.096 118.017 70.62C118.369 70.14 118.545 69.518 118.545 68.754C118.545 67.97 118.367 67.346 118.011 66.882C117.659 66.418 117.125 66.186 116.409 66.186C115.925 66.186 115.525 66.296 115.209 66.516C114.897 66.732 114.663 67.034 114.507 67.422C114.355 67.806 114.279 68.25 114.279 68.754C114.279 69.534 114.459 70.16 114.819 70.632C115.179 71.1 115.709 71.334 116.409 71.334ZM125.485 72V68.694C125.485 68.334 125.451 68.004 125.383 67.704C125.315 67.4 125.205 67.136 125.053 66.912C124.905 66.684 124.711 66.508 124.471 66.384C124.235 66.26 123.947 66.198 123.607 66.198C123.295 66.198 123.019 66.252 122.779 66.36C122.543 66.468 122.343 66.624 122.179 66.828C122.019 67.028 121.897 67.272 121.813 67.56C121.729 67.848 121.687 68.176 121.687 68.544L121.063 68.406C121.063 67.742 121.179 67.184 121.411 66.732C121.643 66.28 121.963 65.938 122.371 65.706C122.779 65.474 123.247 65.358 123.775 65.358C124.163 65.358 124.501 65.418 124.789 65.538C125.081 65.658 125.327 65.82 125.527 66.024C125.731 66.228 125.895 66.462 126.019 66.726C126.143 66.986 126.233 67.264 126.289 67.56C126.345 67.852 126.373 68.144 126.373 68.436V72H125.485ZM120.799 72V65.52H121.597V67.116H121.687V72H120.799ZM131.458 72C131.094 72.076 130.734 72.106 130.378 72.09C130.026 72.074 129.71 71.998 129.43 71.862C129.154 71.726 128.944 71.514 128.8 71.226C128.684 70.986 128.62 70.744 128.608 70.5C128.6 70.252 128.596 69.97 128.596 69.654V63.72H129.472V69.618C129.472 69.89 129.474 70.118 129.478 70.302C129.486 70.482 129.528 70.642 129.604 70.782C129.748 71.05 129.976 71.21 130.288 71.262C130.604 71.314 130.994 71.302 131.458 71.226V72ZM127.21 66.276V65.52H131.458V66.276H127.21ZM135.242 72.18C134.61 72.18 134.062 72.04 133.598 71.76C133.138 71.48 132.78 71.086 132.524 70.578C132.268 70.07 132.14 69.474 132.14 68.79C132.14 68.082 132.266 67.47 132.518 66.954C132.77 66.438 133.124 66.04 133.58 65.76C134.04 65.48 134.582 65.34 135.206 65.34C135.846 65.34 136.392 65.488 136.844 65.784C137.296 66.076 137.638 66.496 137.87 67.044C138.102 67.592 138.208 68.246 138.188 69.006H137.288V68.694C137.272 67.854 137.09 67.22 136.742 66.792C136.398 66.364 135.894 66.15 135.23 66.15C134.534 66.15 134 66.376 133.628 66.828C133.26 67.28 133.076 67.924 133.076 68.76C133.076 69.576 133.26 70.21 133.628 70.662C134 71.11 134.526 71.334 135.206 71.334C135.67 71.334 136.074 71.228 136.418 71.016C136.766 70.8 137.04 70.49 137.24 70.086L138.062 70.404C137.806 70.968 137.428 71.406 136.928 71.718C136.432 72.026 135.87 72.18 135.242 72.18ZM132.764 69.006V68.268H137.714V69.006H132.764ZM144.024 72V68.694C144.024 68.334 143.99 68.004 143.922 67.704C143.854 67.4 143.744 67.136 143.592 66.912C143.444 66.684 143.25 66.508 143.01 66.384C142.774 66.26 142.486 66.198 142.146 66.198C141.834 66.198 141.558 66.252 141.318 66.36C141.082 66.468 140.882 66.624 140.718 66.828C140.558 67.028 140.436 67.272 140.352 67.56C140.268 67.848 140.226 68.176 140.226 68.544L139.602 68.406C139.602 67.742 139.718 67.184 139.95 66.732C140.182 66.28 140.502 65.938 140.91 65.706C141.318 65.474 141.786 65.358 142.314 65.358C142.702 65.358 143.04 65.418 143.328 65.538C143.62 65.658 143.866 65.82 144.066 66.024C144.27 66.228 144.434 66.462 144.558 66.726C144.682 66.986 144.772 67.264 144.828 67.56C144.884 67.852 144.912 68.144 144.912 68.436V72H144.024ZM139.338 72V65.52H140.136V67.116H140.226V72H139.338ZM149.997 72C149.633 72.076 149.273 72.106 148.917 72.09C148.565 72.074 148.249 71.998 147.969 71.862C147.693 71.726 147.483 71.514 147.339 71.226C147.223 70.986 147.159 70.744 147.147 70.5C147.139 70.252 147.135 69.97 147.135 69.654V63.72H148.011V69.618C148.011 69.89 148.013 70.118 148.017 70.302C148.025 70.482 148.067 70.642 148.143 70.782C148.287 71.05 148.515 71.21 148.827 71.262C149.143 71.314 149.533 71.302 149.997 71.226V72ZM145.749 66.276V65.52H149.997V66.276H145.749ZM18.258 92.174C17.498 92.174 16.872 92.01 16.38 91.682C15.892 91.354 15.592 90.898 15.48 90.314L16.38 90.164C16.476 90.532 16.694 90.826 17.034 91.046C17.378 91.262 17.802 91.37 18.306 91.37C18.798 91.37 19.186 91.268 19.47 91.064C19.754 90.856 19.896 90.574 19.896 90.218C19.896 90.018 19.85 89.856 19.758 89.732C19.67 89.604 19.488 89.486 19.212 89.378C18.936 89.27 18.524 89.142 17.976 88.994C17.388 88.834 16.928 88.674 16.596 88.514C16.264 88.354 16.028 88.17 15.888 87.962C15.748 87.75 15.678 87.492 15.678 87.188C15.678 86.82 15.782 86.498 15.99 86.222C16.198 85.942 16.486 85.726 16.854 85.574C17.222 85.418 17.65 85.34 18.138 85.34C18.626 85.34 19.062 85.42 19.446 85.58C19.834 85.736 20.146 85.956 20.382 86.24C20.618 86.524 20.758 86.854 20.802 87.23L19.902 87.392C19.842 87.012 19.652 86.712 19.332 86.492C19.016 86.268 18.614 86.152 18.126 86.144C17.666 86.132 17.292 86.22 17.004 86.408C16.716 86.592 16.572 86.838 16.572 87.146C16.572 87.318 16.624 87.466 16.728 87.59C16.832 87.71 17.02 87.824 17.292 87.932C17.568 88.04 17.96 88.158 18.468 88.286C19.064 88.438 19.532 88.598 19.872 88.766C20.212 88.934 20.454 89.132 20.598 89.36C20.742 89.588 20.814 89.87 20.814 90.206C20.814 90.818 20.586 91.3 20.13 91.652C19.678 92 19.054 92.174 18.258 92.174ZM24.8507 92.18C24.2067 92.18 23.6567 92.034 23.2007 91.742C22.7447 91.45 22.3947 91.046 22.1507 90.53C21.9067 90.014 21.7847 89.422 21.7847 88.754C21.7847 88.074 21.9087 87.478 22.1567 86.966C22.4047 86.454 22.7567 86.056 23.2127 85.772C23.6727 85.484 24.2187 85.34 24.8507 85.34C25.4987 85.34 26.0507 85.486 26.5067 85.778C26.9667 86.066 27.3167 86.468 27.5567 86.984C27.8007 87.496 27.9227 88.086 27.9227 88.754C27.9227 89.434 27.8007 90.032 27.5567 90.548C27.3127 91.06 26.9607 91.46 26.5007 91.748C26.0407 92.036 25.4907 92.18 24.8507 92.18ZM24.8507 91.334C25.5707 91.334 26.1067 91.096 26.4587 90.62C26.8107 90.14 26.9867 89.518 26.9867 88.754C26.9867 87.97 26.8087 87.346 26.4527 86.882C26.1007 86.418 25.5667 86.186 24.8507 86.186C24.3667 86.186 23.9667 86.296 23.6507 86.516C23.3387 86.732 23.1047 87.034 22.9487 87.422C22.7967 87.806 22.7207 88.25 22.7207 88.754C22.7207 89.534 22.9007 90.16 23.2607 90.632C23.6207 91.1 24.1507 91.334 24.8507 91.334ZM31.7243 92.162C31.3363 92.162 30.9963 92.102 30.7043 91.982C30.4163 91.862 30.1703 91.7 29.9663 91.496C29.7663 91.292 29.6043 91.06 29.4803 90.8C29.3563 90.536 29.2663 90.258 29.2103 89.966C29.1543 89.67 29.1263 89.376 29.1263 89.084V85.52H30.0143V88.826C30.0143 89.182 30.0483 89.512 30.1163 89.816C30.1843 90.12 30.2923 90.386 30.4403 90.614C30.5923 90.838 30.7863 91.012 31.0223 91.136C31.2623 91.26 31.5523 91.322 31.8923 91.322C32.2043 91.322 32.4783 91.268 32.7143 91.16C32.9543 91.052 33.1543 90.898 33.3143 90.698C33.4783 90.494 33.6023 90.248 33.6863 89.96C33.7703 89.668 33.8123 89.34 33.8123 88.976L34.4362 89.114C34.4362 89.778 34.3203 90.336 34.0883 90.788C33.8563 91.24 33.5363 91.582 33.1283 91.814C32.7203 92.046 32.2523 92.162 31.7243 92.162ZM33.9023 92V90.404H33.8123V85.52H34.6943V92H33.9023ZM36.3713 92V85.52H37.1633V87.08L37.0073 86.876C37.0793 86.684 37.1733 86.508 37.2893 86.348C37.4053 86.184 37.5313 86.05 37.6673 85.946C37.8353 85.798 38.0313 85.686 38.2553 85.61C38.4793 85.53 38.7053 85.484 38.9333 85.472C39.1613 85.456 39.3693 85.472 39.5573 85.52V86.348C39.3213 86.288 39.0633 86.274 38.7833 86.306C38.5033 86.338 38.2453 86.45 38.0093 86.642C37.7933 86.81 37.6313 87.012 37.5233 87.248C37.4153 87.48 37.3433 87.728 37.3073 87.992C37.2713 88.252 37.2533 88.51 37.2533 88.766V92H36.3713ZM43.2663 92.18C42.6143 92.18 42.0623 92.034 41.6103 91.742C41.1583 91.45 40.8143 91.048 40.5783 90.536C40.3463 90.02 40.2263 89.428 40.2183 88.76C40.2263 88.08 40.3503 87.484 40.5903 86.972C40.8303 86.456 41.1763 86.056 41.6283 85.772C42.0803 85.484 42.6283 85.34 43.2723 85.34C43.9283 85.34 44.4983 85.5 44.9823 85.82C45.4703 86.14 45.8043 86.578 45.9843 87.134L45.1203 87.41C44.9683 87.022 44.7263 86.722 44.3943 86.51C44.0663 86.294 43.6903 86.186 43.2663 86.186C42.7903 86.186 42.3963 86.296 42.0843 86.516C41.7723 86.732 41.5403 87.034 41.3883 87.422C41.2363 87.81 41.1583 88.256 41.1543 88.76C41.1623 89.536 41.3423 90.16 41.6943 90.632C42.0463 91.1 42.5703 91.334 43.2663 91.334C43.7063 91.334 44.0803 91.234 44.3883 91.034C44.7003 90.83 44.9363 90.534 45.0963 90.146L45.9843 90.41C45.7443 90.986 45.3923 91.426 44.9283 91.73C44.4643 92.03 43.9103 92.18 43.2663 92.18ZM49.789 92.18C49.157 92.18 48.609 92.04 48.145 91.76C47.685 91.48 47.327 91.086 47.071 90.578C46.815 90.07 46.687 89.474 46.687 88.79C46.687 88.082 46.813 87.47 47.065 86.954C47.317 86.438 47.671 86.04 48.127 85.76C48.587 85.48 49.129 85.34 49.753 85.34C50.393 85.34 50.939 85.488 51.391 85.784C51.843 86.076 52.185 86.496 52.417 87.044C52.649 87.592 52.755 88.246 52.735 89.006H51.835V88.694C51.819 87.854 51.637 87.22 51.289 86.792C50.945 86.364 50.441 86.15 49.777 86.15C49.081 86.15 48.547 86.376 48.175 86.828C47.807 87.28 47.623 87.924 47.623 88.76C47.623 89.576 47.807 90.21 48.175 90.662C48.547 91.11 49.073 91.334 49.753 91.334C50.217 91.334 50.621 91.228 50.965 91.016C51.313 90.8 51.587 90.49 51.787 90.086L52.609 90.404C52.353 90.968 51.975 91.406 51.475 91.718C50.979 92.026 50.417 92.18 49.789 92.18ZM47.311 89.006V88.268H52.261V89.006H47.311ZM56.4846 92.174C55.7246 92.174 55.0986 92.01 54.6066 91.682C54.1186 91.354 53.8186 90.898 53.7066 90.314L54.6066 90.164C54.7026 90.532 54.9206 90.826 55.2606 91.046C55.6046 91.262 56.0286 91.37 56.5326 91.37C57.0246 91.37 57.4126 91.268 57.6966 91.064C57.9806 90.856 58.1226 90.574 58.1226 90.218C58.1226 90.018 58.0766 89.856 57.9846 89.732C57.8966 89.604 57.7146 89.486 57.4386 89.378C57.1626 89.27 56.7506 89.142 56.2026 88.994C55.6146 88.834 55.1546 88.674 54.8226 88.514C54.4906 88.354 54.2546 88.17 54.1146 87.962C53.9746 87.75 53.9046 87.492 53.9046 87.188C53.9046 86.82 54.0086 86.498 54.2166 86.222C54.4246 85.942 54.7126 85.726 55.0806 85.574C55.4486 85.418 55.8766 85.34 56.3646 85.34C56.8526 85.34 57.2886 85.42 57.6726 85.58C58.0606 85.736 58.3726 85.956 58.6086 86.24C58.8446 86.524 58.9846 86.854 59.0286 87.23L58.1286 87.392C58.0686 87.012 57.8786 86.712 57.5586 86.492C57.2426 86.268 56.8406 86.152 56.3526 86.144C55.8926 86.132 55.5186 86.22 55.2306 86.408C54.9426 86.592 54.7986 86.838 54.7986 87.146C54.7986 87.318 54.8506 87.466 54.9546 87.59C55.0586 87.71 55.2466 87.824 55.5186 87.932C55.7946 88.04 56.1866 88.158 56.6946 88.286C57.2906 88.438 57.7586 88.598 58.0986 88.766C58.4386 88.934 58.6806 89.132 58.8246 89.36C58.9686 89.588 59.0406 89.87 59.0406 90.206C59.0406 90.818 58.8126 91.3 58.3566 91.652C57.9046 92 57.2806 92.174 56.4846 92.174ZM60.2513 93.254L60.3053 92.816C60.4653 92.828 60.5813 92.796 60.6533 92.72C60.7253 92.644 60.7693 92.542 60.7853 92.414C60.8013 92.286 60.8053 92.148 60.7973 92H60.2513V90.734H61.2773V92.24C61.2773 92.608 61.1833 92.884 60.9953 93.068C60.8113 93.252 60.5633 93.314 60.2513 93.254ZM67.8151 92.18C67.3271 92.18 66.9171 92.092 66.5851 91.916C66.2571 91.74 66.0111 91.506 65.8471 91.214C65.6831 90.922 65.6011 90.604 65.6011 90.26C65.6011 89.908 65.6711 89.608 65.8111 89.36C65.9551 89.108 66.1491 88.902 66.3931 88.742C66.6411 88.582 66.9271 88.46 67.2511 88.376C67.5791 88.296 67.9411 88.226 68.3371 88.166C68.7371 88.102 69.1271 88.048 69.5071 88.004C69.8911 87.956 70.2271 87.91 70.5151 87.866L70.2031 88.058C70.2151 87.418 70.0911 86.944 69.8311 86.636C69.5711 86.328 69.1191 86.174 68.4751 86.174C68.0311 86.174 67.6551 86.274 67.3471 86.474C67.0431 86.674 66.8291 86.99 66.7051 87.422L65.8471 87.17C65.9951 86.59 66.2931 86.14 66.7411 85.82C67.1891 85.5 67.7711 85.34 68.4871 85.34C69.0791 85.34 69.5811 85.452 69.9931 85.676C70.4091 85.896 70.7031 86.216 70.8751 86.636C70.9551 86.824 71.0071 87.034 71.0311 87.266C71.0551 87.498 71.0671 87.734 71.0671 87.974V92H70.2811V90.374L70.5091 90.47C70.2891 91.026 69.9471 91.45 69.4831 91.742C69.0191 92.034 68.4631 92.18 67.8151 92.18ZM67.9171 91.418C68.3291 91.418 68.6891 91.344 68.9971 91.196C69.3051 91.048 69.5531 90.846 69.7411 90.59C69.9291 90.33 70.0511 90.038 70.1071 89.714C70.1551 89.506 70.1811 89.278 70.1851 89.03C70.1891 88.778 70.1911 88.59 70.1911 88.466L70.5271 88.64C70.2271 88.68 69.9011 88.72 69.5491 88.76C69.2011 88.8 68.8571 88.846 68.5171 88.898C68.1811 88.95 67.8771 89.012 67.6051 89.084C67.4211 89.136 67.2431 89.21 67.0711 89.306C66.8991 89.398 66.7571 89.522 66.6451 89.678C66.5371 89.834 66.4831 90.028 66.4831 90.26C66.4831 90.448 66.5291 90.63 66.6211 90.806C66.7171 90.982 66.8691 91.128 67.0771 91.244C67.2891 91.36 67.5691 91.418 67.9171 91.418ZM77.3091 92V88.694C77.3091 88.334 77.2751 88.004 77.2071 87.704C77.1391 87.4 77.0291 87.136 76.8771 86.912C76.7291 86.684 76.5351 86.508 76.2951 86.384C76.0591 86.26 75.7711 86.198 75.4311 86.198C75.1191 86.198 74.8431 86.252 74.6031 86.36C74.3671 86.468 74.1671 86.624 74.0031 86.828C73.8431 87.028 73.7211 87.272 73.6371 87.56C73.5531 87.848 73.5111 88.176 73.5111 88.544L72.8871 88.406C72.8871 87.742 73.0031 87.184 73.2351 86.732C73.4671 86.28 73.7871 85.938 74.1951 85.706C74.6031 85.474 75.0711 85.358 75.5991 85.358C75.9871 85.358 76.3251 85.418 76.6131 85.538C76.9051 85.658 77.1511 85.82 77.3511 86.024C77.5551 86.228 77.7191 86.462 77.8431 86.726C77.9671 86.986 78.0571 87.264 78.1131 87.56C78.1691 87.852 78.1971 88.144 78.1971 88.436V92H77.3091ZM72.6231 92V85.52H73.4211V87.116H73.5111V92H72.6231ZM82.2329 92.18C81.6289 92.18 81.1129 92.03 80.6849 91.73C80.2569 91.426 79.9289 91.016 79.7009 90.5C79.4729 89.984 79.3589 89.402 79.3589 88.754C79.3589 88.11 79.4709 87.53 79.6949 87.014C79.9229 86.498 80.2489 86.09 80.6729 85.79C81.0969 85.49 81.6049 85.34 82.1969 85.34C82.8049 85.34 83.3169 85.488 83.7329 85.784C84.1489 86.08 84.4629 86.486 84.6749 87.002C84.8909 87.514 84.9989 88.098 84.9989 88.754C84.9989 89.398 84.8929 89.98 84.6809 90.5C84.4689 91.016 84.1569 91.426 83.7449 91.73C83.3329 92.03 82.8289 92.18 82.2329 92.18ZM82.3229 91.358C82.7829 91.358 83.1629 91.246 83.4629 91.022C83.7629 90.798 83.9869 90.49 84.1349 90.098C84.2829 89.702 84.3569 89.254 84.3569 88.754C84.3569 88.246 84.2829 87.798 84.1349 87.41C83.9869 87.018 83.7629 86.712 83.4629 86.492C83.1669 86.272 82.7929 86.162 82.3409 86.162C81.8769 86.162 81.4929 86.276 81.1889 86.504C80.8849 86.732 80.6589 87.042 80.5109 87.434C80.3669 87.826 80.2949 88.266 80.2949 88.754C80.2949 89.246 80.3689 89.69 80.5169 90.086C80.6689 90.478 80.8949 90.788 81.1949 91.016C81.4949 91.244 81.8709 91.358 82.3229 91.358ZM84.3569 92V87.122H84.2609V83.36H85.1489V92H84.3569ZM90.6145 92L88.6345 85.514L89.5165 85.52L91.0525 90.554L92.5945 85.52H93.3985L94.9405 90.554L96.4885 85.52H97.3645L95.3845 92H94.6165L92.9965 86.84L91.3825 92H90.6145ZM100.953 92.18C100.321 92.18 99.7731 92.04 99.3091 91.76C98.8491 91.48 98.4911 91.086 98.2351 90.578C97.9791 90.07 97.8511 89.474 97.8511 88.79C97.8511 88.082 97.9771 87.47 98.2291 86.954C98.4811 86.438 98.8351 86.04 99.2911 85.76C99.7511 85.48 100.293 85.34 100.917 85.34C101.557 85.34 102.103 85.488 102.555 85.784C103.007 86.076 103.349 86.496 103.581 87.044C103.813 87.592 103.919 88.246 103.899 89.006H102.999V88.694C102.983 87.854 102.801 87.22 102.453 86.792C102.109 86.364 101.605 86.15 100.941 86.15C100.245 86.15 99.7111 86.376 99.3391 86.828C98.9711 87.28 98.7871 87.924 98.7871 88.76C98.7871 89.576 98.9711 90.21 99.3391 90.662C99.7111 91.11 100.237 91.334 100.917 91.334C101.381 91.334 101.785 91.228 102.129 91.016C102.477 90.8 102.751 90.49 102.951 90.086L103.773 90.404C103.517 90.968 103.139 91.406 102.639 91.718C102.143 92.026 101.581 92.18 100.953 92.18ZM98.4751 89.006V88.268H103.425V89.006H98.4751ZM109.013 92L107.033 85.514L107.915 85.52L109.451 90.554L110.993 85.52H111.797L113.339 90.554L114.887 85.52H115.763L113.783 92H113.015L111.395 86.84L109.781 92H109.013ZM116.964 84.29V83.3H117.846V84.29H116.964ZM116.964 92V85.52H117.846V92H116.964ZM119.765 92V83.18H120.647V92H119.765ZM122.565 92V83.18H123.447V92H122.565ZM127.769 84.29V83.3H128.651V84.29H127.769ZM127.769 92V85.52H128.651V92H127.769ZM135.129 92V88.694C135.129 88.334 135.095 88.004 135.027 87.704C134.959 87.4 134.849 87.136 134.697 86.912C134.549 86.684 134.355 86.508 134.115 86.384C133.879 86.26 133.591 86.198 133.251 86.198C132.939 86.198 132.663 86.252 132.423 86.36C132.187 86.468 131.987 86.624 131.823 86.828C131.663 87.028 131.541 87.272 131.457 87.56C131.373 87.848 131.331 88.176 131.331 88.544L130.707 88.406C130.707 87.742 130.823 87.184 131.055 86.732C131.287 86.28 131.607 85.938 132.015 85.706C132.423 85.474 132.891 85.358 133.419 85.358C133.807 85.358 134.145 85.418 134.433 85.538C134.725 85.658 134.971 85.82 135.171 86.024C135.375 86.228 135.539 86.462 135.663 86.726C135.787 86.986 135.877 87.264 135.933 87.56C135.989 87.852 136.017 88.144 136.017 88.436V92H135.129ZM130.443 92V85.52H131.241V87.116H131.331V92H130.443ZM140.053 92.18C139.449 92.18 138.933 92.03 138.505 91.73C138.077 91.426 137.749 91.016 137.521 90.5C137.293 89.984 137.179 89.402 137.179 88.754C137.179 88.11 137.291 87.53 137.515 87.014C137.743 86.498 138.069 86.09 138.493 85.79C138.917 85.49 139.425 85.34 140.017 85.34C140.625 85.34 141.137 85.488 141.553 85.784C141.969 86.08 142.283 86.486 142.495 87.002C142.711 87.514 142.819 88.098 142.819 88.754C142.819 89.398 142.713 89.98 142.501 90.5C142.289 91.016 141.977 91.426 141.565 91.73C141.153 92.03 140.649 92.18 140.053 92.18ZM140.143 91.358C140.603 91.358 140.983 91.246 141.283 91.022C141.583 90.798 141.807 90.49 141.955 90.098C142.103 89.702 142.177 89.254 142.177 88.754C142.177 88.246 142.103 87.798 141.955 87.41C141.807 87.018 141.583 86.712 141.283 86.492C140.987 86.272 140.613 86.162 140.161 86.162C139.697 86.162 139.313 86.276 139.009 86.504C138.705 86.732 138.479 87.042 138.331 87.434C138.187 87.826 138.115 88.266 138.115 88.754C138.115 89.246 138.189 89.69 138.337 90.086C138.489 90.478 138.715 90.788 139.015 91.016C139.315 91.244 139.691 91.358 140.143 91.358ZM142.177 92V87.122H142.081V83.36H142.969V92H142.177ZM147.395 92.18C146.763 92.18 146.215 92.04 145.751 91.76C145.291 91.48 144.933 91.086 144.677 90.578C144.421 90.07 144.293 89.474 144.293 88.79C144.293 88.082 144.419 87.47 144.671 86.954C144.923 86.438 145.277 86.04 145.733 85.76C146.193 85.48 146.735 85.34 147.359 85.34C147.999 85.34 148.545 85.488 148.997 85.784C149.449 86.076 149.791 86.496 150.023 87.044C150.255 87.592 150.361 88.246 150.341 89.006H149.441V88.694C149.425 87.854 149.243 87.22 148.895 86.792C148.551 86.364 148.047 86.15 147.383 86.15C146.687 86.15 146.153 86.376 145.781 86.828C145.413 87.28 145.229 87.924 145.229 88.76C145.229 89.576 145.413 90.21 145.781 90.662C146.153 91.11 146.679 91.334 147.359 91.334C147.823 91.334 148.227 91.228 148.571 91.016C148.919 90.8 149.193 90.49 149.393 90.086L150.215 90.404C149.959 90.968 149.581 91.406 149.081 91.718C148.585 92.026 148.023 92.18 147.395 92.18ZM144.917 89.006V88.268H149.867V89.006H144.917ZM150.718 92L153.25 88.724L150.772 85.52H151.828L153.766 88.046L155.686 85.52H156.742L154.264 88.724L156.802 92H155.74L153.766 89.402L151.78 92H150.718ZM163.696 92C163.332 92.076 162.972 92.106 162.616 92.09C162.264 92.074 161.948 91.998 161.668 91.862C161.392 91.726 161.182 91.514 161.038 91.226C160.922 90.986 160.858 90.744 160.846 90.5C160.838 90.252 160.834 89.97 160.834 89.654V83.72H161.71V89.618C161.71 89.89 161.712 90.118 161.716 90.302C161.724 90.482 161.766 90.642 161.842 90.782C161.986 91.05 162.214 91.21 162.526 91.262C162.842 91.314 163.232 91.302 163.696 91.226V92ZM159.448 86.276V85.52H163.696V86.276H159.448ZM169.653 92V88.694C169.653 88.334 169.619 88.004 169.551 87.704C169.483 87.4 169.373 87.136 169.221 86.912C169.073 86.684 168.879 86.508 168.639 86.384C168.403 86.26 168.115 86.198 167.775 86.198C167.463 86.198 167.187 86.252 166.947 86.36C166.711 86.468 166.511 86.624 166.347 86.828C166.187 87.028 166.065 87.272 165.981 87.56C165.897 87.848 165.855 88.176 165.855 88.544L165.231 88.406C165.231 87.742 165.347 87.184 165.579 86.732C165.811 86.28 166.131 85.938 166.539 85.706C166.947 85.474 167.415 85.358 167.943 85.358C168.331 85.358 168.669 85.418 168.957 85.538C169.249 85.658 169.495 85.82 169.695 86.024C169.899 86.228 170.063 86.462 170.187 86.726C170.311 86.986 170.401 87.264 170.457 87.56C170.513 87.852 170.541 88.144 170.541 88.436V92H169.653ZM164.967 92V83.36H165.765V88.238H165.855V92H164.967ZM174.84 92.18C174.208 92.18 173.66 92.04 173.196 91.76C172.736 91.48 172.378 91.086 172.122 90.578C171.866 90.07 171.738 89.474 171.738 88.79C171.738 88.082 171.864 87.47 172.116 86.954C172.368 86.438 172.722 86.04 173.178 85.76C173.638 85.48 174.18 85.34 174.804 85.34C175.444 85.34 175.99 85.488 176.442 85.784C176.894 86.076 177.236 86.496 177.468 87.044C177.7 87.592 177.806 88.246 177.786 89.006H176.886V88.694C176.87 87.854 176.688 87.22 176.34 86.792C175.996 86.364 175.492 86.15 174.828 86.15C174.132 86.15 173.598 86.376 173.226 86.828C172.858 87.28 172.674 87.924 172.674 88.76C172.674 89.576 172.858 90.21 173.226 90.662C173.598 91.11 174.124 91.334 174.804 91.334C175.268 91.334 175.672 91.228 176.016 91.016C176.364 90.8 176.638 90.49 176.838 90.086L177.66 90.404C177.404 90.968 177.026 91.406 176.526 91.718C176.03 92.026 175.468 92.18 174.84 92.18ZM172.362 89.006V88.268H177.312V89.006H172.362ZM18.528 112.18C17.876 112.18 17.324 112.034 16.872 111.742C16.42 111.45 16.076 111.048 15.84 110.536C15.608 110.02 15.488 109.428 15.48 108.76C15.488 108.08 15.612 107.484 15.852 106.972C16.092 106.456 16.438 106.056 16.89 105.772C17.342 105.484 17.89 105.34 18.534 105.34C19.19 105.34 19.76 105.5 20.244 105.82C20.732 106.14 21.066 106.578 21.246 107.134L20.382 107.41C20.23 107.022 19.988 106.722 19.656 106.51C19.328 106.294 18.952 106.186 18.528 106.186C18.052 106.186 17.658 106.296 17.346 106.516C17.034 106.732 16.802 107.034 16.65 107.422C16.498 107.81 16.42 108.256 16.416 108.76C16.424 109.536 16.604 110.16 16.956 110.632C17.308 111.1 17.832 111.334 18.528 111.334C18.968 111.334 19.342 111.234 19.65 111.034C19.962 110.83 20.198 110.534 20.358 110.146L21.246 110.41C21.006 110.986 20.654 111.426 20.19 111.73C19.726 112.03 19.172 112.18 18.528 112.18ZM25.0148 112.18C24.3708 112.18 23.8208 112.034 23.3648 111.742C22.9088 111.45 22.5588 111.046 22.3148 110.53C22.0708 110.014 21.9488 109.422 21.9488 108.754C21.9488 108.074 22.0728 107.478 22.3208 106.966C22.5688 106.454 22.9208 106.056 23.3768 105.772C23.8368 105.484 24.3828 105.34 25.0148 105.34C25.6628 105.34 26.2148 105.486 26.6708 105.778C27.1308 106.066 27.4808 106.468 27.7208 106.984C27.9648 107.496 28.0868 108.086 28.0868 108.754C28.0868 109.434 27.9648 110.032 27.7208 110.548C27.4768 111.06 27.1248 111.46 26.6648 111.748C26.2048 112.036 25.6548 112.18 25.0148 112.18ZM25.0148 111.334C25.7348 111.334 26.2708 111.096 26.6228 110.62C26.9748 110.14 27.1508 109.518 27.1508 108.754C27.1508 107.97 26.9728 107.346 26.6168 106.882C26.2648 106.418 25.7308 106.186 25.0148 106.186C24.5308 106.186 24.1308 106.296 23.8148 106.516C23.5028 106.732 23.2688 107.034 23.1128 107.422C22.9608 107.806 22.8848 108.25 22.8848 108.754C22.8848 109.534 23.0648 110.16 23.4248 110.632C23.7848 111.1 24.3148 111.334 25.0148 111.334ZM34.0903 112V108.694C34.0903 108.334 34.0563 108.004 33.9883 107.704C33.9203 107.4 33.8103 107.136 33.6583 106.912C33.5103 106.684 33.3163 106.508 33.0763 106.384C32.8403 106.26 32.5523 106.198 32.2123 106.198C31.9003 106.198 31.6243 106.252 31.3843 106.36C31.1483 106.468 30.9483 106.624 30.7843 106.828C30.6243 107.028 30.5023 107.272 30.4183 107.56C30.3343 107.848 30.2923 108.176 30.2923 108.544L29.6683 108.406C29.6683 107.742 29.7843 107.184 30.0163 106.732C30.2483 106.28 30.5683 105.938 30.9763 105.706C31.3843 105.474 31.8523 105.358 32.3803 105.358C32.7683 105.358 33.1063 105.418 33.3943 105.538C33.6863 105.658 33.9323 105.82 34.1323 106.024C34.3363 106.228 34.5003 106.462 34.6243 106.726C34.7483 106.986 34.8383 107.264 34.8943 107.56C34.9503 107.852 34.9783 108.144 34.9783 108.436V112H34.0903ZM29.4043 112V105.52H30.2023V107.116H30.2923V112H29.4043ZM40.0633 112C39.6993 112.076 39.3393 112.106 38.9833 112.09C38.6313 112.074 38.3153 111.998 38.0353 111.862C37.7593 111.726 37.5493 111.514 37.4053 111.226C37.2893 110.986 37.2253 110.744 37.2133 110.5C37.2053 110.252 37.2013 109.97 37.2013 109.654V103.72H38.0773V109.618C38.0773 109.89 38.0793 110.118 38.0833 110.302C38.0913 110.482 38.1333 110.642 38.2093 110.782C38.3533 111.05 38.5813 111.21 38.8933 111.262C39.2093 111.314 39.5993 111.302 40.0633 111.226V112ZM35.8153 106.276V105.52H40.0633V106.276H35.8153ZM43.8476 112.18C43.2156 112.18 42.6676 112.04 42.2036 111.76C41.7436 111.48 41.3856 111.086 41.1296 110.578C40.8736 110.07 40.7456 109.474 40.7456 108.79C40.7456 108.082 40.8716 107.47 41.1236 106.954C41.3756 106.438 41.7296 106.04 42.1856 105.76C42.6456 105.48 43.1876 105.34 43.8116 105.34C44.4516 105.34 44.9976 105.488 45.4496 105.784C45.9016 106.076 46.2436 106.496 46.4756 107.044C46.7076 107.592 46.8136 108.246 46.7936 109.006H45.8936V108.694C45.8776 107.854 45.6956 107.22 45.3476 106.792C45.0036 106.364 44.4996 106.15 43.8356 106.15C43.1396 106.15 42.6056 106.376 42.2336 106.828C41.8656 107.28 41.6816 107.924 41.6816 108.76C41.6816 109.576 41.8656 110.21 42.2336 110.662C42.6056 111.11 43.1316 111.334 43.8116 111.334C44.2756 111.334 44.6796 111.228 45.0236 111.016C45.3716 110.8 45.6456 110.49 45.8456 110.086L46.6676 110.404C46.4116 110.968 46.0336 111.406 45.5336 111.718C45.0376 112.026 44.4756 112.18 43.8476 112.18ZM41.3696 109.006V108.268H46.3196V109.006H41.3696ZM52.6294 112V108.694C52.6294 108.334 52.5954 108.004 52.5274 107.704C52.4594 107.4 52.3494 107.136 52.1974 106.912C52.0494 106.684 51.8554 106.508 51.6154 106.384C51.3794 106.26 51.0914 106.198 50.7514 106.198C50.4394 106.198 50.1634 106.252 49.9234 106.36C49.6874 106.468 49.4874 106.624 49.3234 106.828C49.1634 107.028 49.0414 107.272 48.9574 107.56C48.8734 107.848 48.8314 108.176 48.8314 108.544L48.2074 108.406C48.2074 107.742 48.3234 107.184 48.5554 106.732C48.7874 106.28 49.1074 105.938 49.5154 105.706C49.9234 105.474 50.3914 105.358 50.9194 105.358C51.3074 105.358 51.6454 105.418 51.9334 105.538C52.2254 105.658 52.4714 105.82 52.6714 106.024C52.8754 106.228 53.0394 106.462 53.1634 106.726C53.2874 106.986 53.3774 107.264 53.4334 107.56C53.4894 107.852 53.5174 108.144 53.5174 108.436V112H52.6294ZM47.9434 112V105.52H48.7414V107.116H48.8314V112H47.9434ZM58.6024 112C58.2384 112.076 57.8784 112.106 57.5224 112.09C57.1704 112.074 56.8544 111.998 56.5744 111.862C56.2984 111.726 56.0884 111.514 55.9444 111.226C55.8284 110.986 55.7644 110.744 55.7524 110.5C55.7444 110.252 55.7404 109.97 55.7404 109.654V103.72H56.6164V109.618C56.6164 109.89 56.6184 110.118 56.6224 110.302C56.6304 110.482 56.6724 110.642 56.7484 110.782C56.8924 111.05 57.1204 111.21 57.4324 111.262C57.7484 111.314 58.1384 111.302 58.6024 111.226V112ZM54.3544 106.276V105.52H58.6024V106.276H54.3544ZM60.0471 112V110.974H61.0731V112H60.0471Z" fill="#667185"/>
<path d="M55.98 34V23.92H59.942C60.5813 23.92 61.118 24.0507 61.552 24.312C61.986 24.5733 62.3127 24.9117 62.532 25.327C62.7513 25.7377 62.861 26.1717 62.861 26.629C62.861 27.1843 62.7233 27.6603 62.448 28.057C62.1773 28.4537 61.811 28.7243 61.349 28.869L61.335 28.526C61.979 28.6847 62.4737 28.995 62.819 29.457C63.1643 29.9143 63.337 30.4487 63.337 31.06C63.337 31.6527 63.218 32.1683 62.98 32.607C62.7467 33.0457 62.4037 33.3887 61.951 33.636C61.503 33.8787 60.9593 34 60.32 34H55.98ZM57.464 32.607H60.096C60.4273 32.607 60.7237 32.544 60.985 32.418C61.251 32.292 61.4587 32.1123 61.608 31.879C61.762 31.641 61.839 31.3587 61.839 31.032C61.839 30.7287 61.7713 30.4557 61.636 30.213C61.5053 29.9657 61.314 29.772 61.062 29.632C60.8147 29.4873 60.523 29.415 60.187 29.415H57.464V32.607ZM57.464 28.036H59.921C60.1917 28.036 60.4343 27.9823 60.649 27.875C60.8683 27.763 61.041 27.6043 61.167 27.399C61.2977 27.189 61.363 26.937 61.363 26.643C61.363 26.251 61.2323 25.929 60.971 25.677C60.7097 25.425 60.3597 25.299 59.921 25.299H57.464V28.036ZM67.579 34.203C67.0563 34.203 66.6177 34.119 66.263 33.951C65.9083 33.783 65.619 33.5637 65.395 33.293C65.1757 33.0177 65.0077 32.719 64.891 32.397C64.7743 32.075 64.695 31.76 64.653 31.452C64.611 31.144 64.59 30.8733 64.59 30.64V26.44H66.074V30.157C66.074 30.451 66.0973 30.7543 66.144 31.067C66.1953 31.375 66.2887 31.662 66.424 31.928C66.564 32.194 66.7577 32.4087 67.005 32.572C67.257 32.7353 67.5837 32.817 67.985 32.817C68.2463 32.817 68.4937 32.775 68.727 32.691C68.9603 32.6023 69.1633 32.4623 69.336 32.271C69.5133 32.0797 69.651 31.8277 69.749 31.515C69.8517 31.2023 69.903 30.822 69.903 30.374L70.813 30.717C70.813 31.403 70.6847 32.0097 70.428 32.537C70.1713 33.0597 69.8027 33.468 69.322 33.762C68.8413 34.056 68.2603 34.203 67.579 34.203ZM70.078 34V31.816H69.903V26.44H71.38V34H70.078ZM73.4833 34V23.71H74.9463V34H73.4833ZM77.0414 34L77.0484 23.92H78.5324V30.08L81.5004 26.44H83.3624L80.2264 30.22L83.6844 34H81.6964L78.5324 30.36V34H77.0414ZM87.3329 34V23.92H88.7959V34H87.3329ZM99.956 34L99.963 29.289C99.963 28.743 99.823 28.3183 99.543 28.015C99.263 27.707 98.8943 27.553 98.437 27.553C98.157 27.553 97.9003 27.6183 97.667 27.749C97.4383 27.875 97.2516 28.0663 97.107 28.323C96.967 28.575 96.897 28.8923 96.897 29.275L96.19 28.918C96.1806 28.386 96.2926 27.9193 96.526 27.518C96.764 27.1167 97.086 26.8063 97.492 26.587C97.898 26.363 98.353 26.251 98.857 26.251C99.6736 26.251 100.306 26.496 100.754 26.986C101.202 27.476 101.426 28.127 101.426 28.939L101.419 34H99.956ZM90.891 34V26.44H92.193V28.624H92.361V34H90.891ZM95.427 34L95.434 29.317C95.434 28.7663 95.294 28.3347 95.014 28.022C94.7386 27.7093 94.3676 27.553 93.901 27.553C93.439 27.553 93.0656 27.7117 92.781 28.029C92.501 28.3463 92.361 28.7617 92.361 29.275L91.661 28.827C91.661 28.3323 91.78 27.8913 92.018 27.504C92.256 27.1167 92.578 26.811 92.984 26.587C93.39 26.363 93.8496 26.251 94.363 26.251C94.8996 26.251 95.357 26.3653 95.735 26.594C96.113 26.818 96.4 27.133 96.596 27.539C96.7966 27.945 96.897 28.4163 96.897 28.953L96.89 34H95.427ZM106.793 34.21C106.069 34.21 105.463 34.035 104.973 33.685C104.483 33.3303 104.112 32.852 103.86 32.25C103.608 31.648 103.482 30.969 103.482 30.213C103.482 29.457 103.605 28.778 103.853 28.176C104.105 27.574 104.473 27.1003 104.959 26.755C105.449 26.405 106.051 26.23 106.765 26.23C107.474 26.23 108.085 26.405 108.599 26.755C109.117 27.1003 109.516 27.574 109.796 28.176C110.076 28.7733 110.216 29.4523 110.216 30.213C110.216 30.969 110.076 31.6503 109.796 32.257C109.52 32.859 109.126 33.335 108.613 33.685C108.104 34.035 107.497 34.21 106.793 34.21ZM103.237 37.36V26.44H104.539V31.879H104.707V37.36H103.237ZM106.59 32.887C107.056 32.887 107.441 32.768 107.745 32.53C108.053 32.292 108.281 31.9723 108.431 31.571C108.585 31.165 108.662 30.7123 108.662 30.213C108.662 29.7183 108.585 29.2703 108.431 28.869C108.281 28.4677 108.05 28.148 107.738 27.91C107.425 27.672 107.026 27.553 106.541 27.553C106.083 27.553 105.705 27.665 105.407 27.889C105.113 28.113 104.893 28.4257 104.749 28.827C104.609 29.2283 104.539 29.6903 104.539 30.213C104.539 30.7357 104.609 31.1977 104.749 31.599C104.889 32.0003 105.11 32.3153 105.414 32.544C105.717 32.7727 106.109 32.887 106.59 32.887ZM115.044 34.21C114.288 34.21 113.633 34.0397 113.077 33.699C112.522 33.3583 112.093 32.8893 111.789 32.292C111.491 31.69 111.341 30.997 111.341 30.213C111.341 29.4243 111.495 28.7313 111.803 28.134C112.111 27.532 112.543 27.0653 113.098 26.734C113.654 26.398 114.302 26.23 115.044 26.23C115.8 26.23 116.456 26.4003 117.011 26.741C117.567 27.0817 117.996 27.5507 118.299 28.148C118.603 28.7453 118.754 29.4337 118.754 30.213C118.754 31.0017 118.6 31.697 118.292 32.299C117.989 32.8963 117.56 33.3653 117.004 33.706C116.449 34.042 115.796 34.21 115.044 34.21ZM115.044 32.831C115.768 32.831 116.307 32.5883 116.661 32.103C117.021 31.613 117.2 30.983 117.2 30.213C117.2 29.4243 117.018 28.7943 116.654 28.323C116.295 27.847 115.758 27.609 115.044 27.609C114.554 27.609 114.151 27.721 113.833 27.945C113.516 28.1643 113.28 28.47 113.126 28.862C112.972 29.2493 112.895 29.6997 112.895 30.213C112.895 31.0063 113.077 31.641 113.441 32.117C113.805 32.593 114.34 32.831 115.044 32.831ZM120.293 34V26.44H121.595V28.274L121.413 28.036C121.506 27.7933 121.627 27.5717 121.777 27.371C121.926 27.1657 122.099 26.9977 122.295 26.867C122.486 26.727 122.698 26.6197 122.932 26.545C123.17 26.4657 123.412 26.419 123.66 26.405C123.907 26.3863 124.145 26.398 124.374 26.44V27.812C124.126 27.7467 123.851 27.728 123.548 27.756C123.249 27.784 122.974 27.8797 122.722 28.043C122.484 28.197 122.295 28.3837 122.155 28.603C122.019 28.8223 121.921 29.0673 121.861 29.338C121.8 29.604 121.77 29.8863 121.77 30.185V34H120.293ZM130.033 34C129.557 34.0933 129.09 34.133 128.633 34.119C128.175 34.105 127.767 34.0163 127.408 33.853C127.048 33.6897 126.778 33.433 126.596 33.083C126.432 32.7703 126.344 32.453 126.33 32.131C126.32 31.8043 126.316 31.4357 126.316 31.025V24.34H127.786V30.955C127.786 31.2583 127.788 31.522 127.793 31.746C127.802 31.97 127.851 32.159 127.94 32.313C128.108 32.6023 128.374 32.768 128.738 32.81C129.106 32.8473 129.538 32.831 130.033 32.761V34ZM124.867 27.616V26.44H130.033V27.616H124.867Z" fill="#475367"/>
<path d="M13 19C13 15.6863 15.6863 13 19 13H39C42.3137 13 45 15.6863 45 19V39C45 42.3137 42.3137 45 39 45H19C15.6863 45 13 42.3137 13 39V19Z" fill="#EAFBF7"/>
<mask id="mask0_1748_2012" style="mask-type:alpha" maskUnits="userSpaceOnUse" x="17" y="17" width="24" height="24">
<rect x="17" y="17" width="24" height="24" fill="#D9D9D9"/>
</mask>
<g mask="url(#mask0_1748_2012)">
<path d="M34.101 33.8004H32.276C32.0427 33.8004 31.8385 33.7142 31.6635 33.5417C31.4885 33.3692 31.401 33.1554 31.401 32.9004C31.401 32.6671 31.4873 32.4588 31.6598 32.2754C31.8323 32.0921 32.046 32.0004 32.301 32.0004H34.101V30.2004C34.101 29.9454 34.1868 29.7317 34.3583 29.5592C34.5298 29.3867 34.7423 29.3004 34.9958 29.3004C35.2493 29.3004 35.4625 29.3867 35.6353 29.5592C35.8083 29.7317 35.8948 29.9454 35.8948 30.2004V32.0004H37.699C37.9545 32.0004 38.1688 32.0867 38.3418 32.2592C38.5146 32.4317 38.601 32.6454 38.601 32.9004C38.601 33.1554 38.5146 33.3692 38.3418 33.5417C38.1688 33.7142 37.9545 33.8004 37.699 33.8004H35.8948V35.6004C35.8948 35.8554 35.8083 36.0692 35.6353 36.2417C35.4625 36.4142 35.2493 36.5004 34.9958 36.5004C34.7423 36.5004 34.5298 36.4142 34.3583 36.2417C34.1868 36.0692 34.101 35.8554 34.101 35.6004V33.8004ZM26.901 33.8004H24.201C22.873 33.8004 21.741 33.3319 20.805 32.3947C19.869 31.4577 19.401 30.3244 19.401 28.9947C19.401 27.6652 19.869 26.5338 20.805 25.6004C21.741 24.6671 22.873 24.2004 24.201 24.2004H26.901C27.1344 24.2004 27.3427 24.2921 27.526 24.4754C27.7094 24.6588 27.801 24.8713 27.801 25.1129C27.801 25.3546 27.7094 25.5629 27.526 25.7379C27.3427 25.9129 27.1344 26.0004 26.901 26.0004H24.201C23.3677 26.0004 22.6594 26.2921 22.076 26.8754C21.4927 27.4588 21.201 28.1671 21.201 29.0004C21.201 29.8338 21.4927 30.5421 22.076 31.1254C22.6594 31.7088 23.3677 32.0004 24.201 32.0004H26.901C27.1344 32.0004 27.3427 32.0921 27.526 32.2754C27.7094 32.4588 27.801 32.6713 27.801 32.9129C27.801 33.1546 27.7094 33.3629 27.526 33.5379C27.3427 33.7129 27.1344 33.8004 26.901 33.8004ZM26.308 29.9004C26.0534 29.9004 25.8385 29.8147 25.6635 29.6432C25.4885 29.4717 25.401 29.2592 25.401 29.0057C25.401 28.7522 25.4872 28.5379 25.6595 28.3629C25.8319 28.1879 26.0454 28.1004 26.3 28.1004H31.694C31.9487 28.1004 32.1635 28.1862 32.3385 28.3577C32.5135 28.5292 32.601 28.7417 32.601 28.9952C32.601 29.2487 32.5149 29.4629 32.3425 29.6379C32.1702 29.8129 31.9567 29.9004 31.702 29.9004H26.308ZM38.601 29.0004H36.801C36.801 28.1671 36.5094 27.4588 35.926 26.8754C35.3427 26.2921 34.6344 26.0004 33.801 26.0004H31.076C30.8427 26.0004 30.6385 25.9142 30.4635 25.7417C30.2885 25.5692 30.201 25.3554 30.201 25.1004C30.201 24.8671 30.2873 24.6588 30.4598 24.4754C30.6323 24.2921 30.846 24.2004 31.101 24.2004H33.801C35.129 24.2004 36.261 24.6684 37.197 25.6044C38.133 26.5404 38.601 27.6724 38.601 29.0004Z" fill="#4DDBBB"/>
</g>
<defs>
<linearGradient id="paint0_linear_1748_2012" x1="103" y1="1" x2="103" y2="141" gradientUnits="userSpaceOnUse">
<stop stop-color="#E4E7EC"/>
<stop offset="1" stop-color="white"/>
</linearGradient>
</defs>
</svg>
