<svg xmlns="http://www.w3.org/2000/svg" width="529" height="372" fill="none" xmlns:v="https://vecta.io/nano"><style><![CDATA[.B{fill:#fff}.C{color-interpolation-filters:sRGB}.D{flood-opacity:0}]]></style><rect x="27.5" y="38.5" width="501" height="333" rx="10.5" stroke="url(#D)" class="B"/><g fill="#98a2b3"><path d="M250.774 253.168c-1.288 0-2.282-.303-2.982-.91-.691-.607-1.036-1.545-1.036-2.814l.028-.784.098-.728c.177-.971.499-1.806.966-2.506a4.75 4.75 0 0 1 1.82-1.624c.747-.383 1.605-.574 2.576-.574.756 0 1.419.107 1.988.322.569.205 1.013.523 1.33.952.327.429.49.971.49 1.624l-.014.378a2.78 2.78 0 0 1-.056.392h-1.61a.97.97 0 0 0 .042-.28l.014-.266c0-.401-.093-.733-.28-.994a1.49 1.49 0 0 0-.77-.588c-.327-.131-.719-.196-1.176-.196-.513 0-.975.079-1.386.238a3.17 3.17 0 0 0-1.078.686c-.308.289-.565.644-.77 1.064-.196.42-.341.887-.434 1.4l-.084.434-.056.364-.028.322v.308c0 .56.093 1.022.28 1.386a1.8 1.8 0 0 0 .826.798c.364.168.807.252 1.33.252.569 0 1.073-.084 1.512-.252a2.79 2.79 0 0 0 1.092-.77c.289-.345.481-.775.574-1.288h1.54c-.131.831-.425 1.517-.882 2.058-.448.541-1.008.943-1.68 1.204-.663.261-1.391.392-2.184.392zm8.031 0a3.08 3.08 0 0 1-1.078-.182 1.57 1.57 0 0 1-.756-.588c-.187-.271-.28-.63-.28-1.078a3.89 3.89 0 0 1 .028-.462l.098-.532.826-4.69h1.47l-.812 4.62-.056.35a1.62 1.62 0 0 0-.028.294c0 .252.046.453.14.602.102.14.238.243.406.308.177.056.373.084.588.084a2.21 2.21 0 0 0 .77-.14 2.09 2.09 0 0 0 .686-.42 2.52 2.52 0 0 0 .546-.686 2.81 2.81 0 0 0 .322-.952l.714-4.06h1.47L262.557 253h-1.176l.042-1.05h-.098c-.206.252-.444.471-.714.658-.271.177-.56.313-.868.406a2.86 2.86 0 0 1-.938.154zm8.529 0c-.485 0-.914-.047-1.288-.14-.373-.084-.69-.205-.952-.364-.252-.168-.443-.369-.574-.602-.121-.233-.182-.49-.182-.77 0-.112.01-.219.028-.322l.07-.266h1.428c-.018.056-.032.117-.042.182l-.014.154c0 .233.066.425.196.574.14.14.327.243.56.308.243.056.514.084.812.084.224 0 .439-.019.644-.056a2.45 2.45 0 0 0 .574-.196.99.99 0 0 0 .392-.336c.094-.14.14-.313.14-.518 0-.177-.056-.322-.168-.434a1.09 1.09 0 0 0-.42-.294 3.83 3.83 0 0 0-.616-.224l-.714-.21-.756-.252c-.242-.093-.466-.205-.672-.336-.196-.14-.354-.313-.476-.518-.121-.215-.182-.471-.182-.77 0-.392.08-.737.238-1.036.168-.299.397-.546.686-.742a3.15 3.15 0 0 1 1.008-.462c.383-.103.789-.154 1.218-.154a5.15 5.15 0 0 1 1.12.112c.346.075.64.187.882.336.252.149.444.331.574.546.14.205.21.443.21.714a1.67 1.67 0 0 1-.042.378.88.88 0 0 1-.056.224h-1.414a.87.87 0 0 0 .014-.154c.01-.047.014-.089.014-.126 0-.205-.056-.369-.168-.49-.102-.131-.252-.224-.448-.28-.196-.065-.434-.098-.714-.098-.252 0-.476.023-.672.07-.186.037-.35.098-.49.182s-.247.187-.322.308-.112.257-.112.406c0 .205.084.369.252.49.168.112.383.205.644.28l.854.266.798.266c.271.093.518.21.742.35a1.45 1.45 0 0 1 .532.532c.131.215.196.485.196.812 0 .457-.088.849-.266 1.176-.168.327-.406.593-.714.798s-.662.355-1.064.448a5.16 5.16 0 0 1-1.288.154zm6.362 0c-.364 0-.649-.061-.854-.182-.196-.121-.336-.275-.42-.462-.084-.196-.126-.415-.126-.658a1.53 1.53 0 0 1 .014-.21l.028-.224.798-4.592h-.924l.21-1.204h.952l.63-2.058h1.148l-.364 2.058h1.344l-.21 1.204h-1.33l-.756 4.284-.042.21-.014.182c0 .14.042.252.126.336.084.075.215.112.392.112h.728l-.182.98a2.11 2.11 0 0 1-.336.098 2.95 2.95 0 0 1-.406.084c-.14.028-.275.042-.406.042zm5.596 0c-.672 0-1.237-.098-1.694-.294-.458-.205-.803-.513-1.036-.924s-.35-.933-.35-1.568a5.81 5.81 0 0 1 .028-.56l.084-.616c.149-.859.401-1.563.756-2.114s.807-.957 1.358-1.218c.55-.271 1.199-.406 1.946-.406.681 0 1.25.103 1.708.308.457.196.798.499 1.022.91.233.411.35.938.35 1.582 0 .177-.01.364-.028.56-.01.187-.038.387-.084.602-.15.859-.397 1.563-.742 2.114s-.794.961-1.344 1.232c-.542.261-1.2.392-1.974.392zm.084-1.204c.457 0 .849-.089 1.176-.266.326-.187.592-.467.798-.84.214-.373.368-.845.462-1.414.046-.187.074-.345.084-.476.018-.14.028-.261.028-.364l.014-.28c0-.373-.061-.681-.182-.924a1.12 1.12 0 0 0-.532-.546c-.243-.121-.551-.182-.924-.182-.458 0-.85.093-1.176.28-.318.187-.584.467-.798.84-.206.364-.364.831-.476 1.4l-.07.49-.042.364c-.01.093-.014.187-.014.28 0 .373.056.681.168.924a1.19 1.19 0 0 0 .56.532c.252.121.56.182.924.182zM284.22 253l1.288-7.364h1.176l-.042 1.05h.098c.214-.261.443-.481.686-.658.252-.177.518-.313.798-.406.28-.103.574-.154.882-.154.457 0 .844.098 1.162.294.326.187.546.495.658.924h.098c.224-.261.462-.481.714-.658a3 3 0 0 1 .812-.406 2.69 2.69 0 0 1 .91-.154c.569 0 1.031.14 1.386.42.364.28.546.747.546 1.4a4 4 0 0 1-.028.448l-.07.476-.868 4.788h-1.442l.826-4.662.042-.322c.018-.103.028-.201.028-.294 0-.252-.047-.448-.14-.588-.084-.14-.206-.238-.364-.294-.159-.065-.341-.098-.546-.098-.308 0-.607.089-.896.266-.28.177-.523.429-.728.756-.206.317-.35.7-.434 1.148l-.714 4.088h-1.456l.826-4.662.042-.336c.018-.103.028-.196.028-.28 0-.252-.047-.448-.14-.588-.084-.14-.206-.238-.364-.294-.159-.065-.341-.098-.546-.098-.308 0-.607.089-.896.266-.28.177-.523.429-.728.756-.206.317-.35.7-.434 1.148l-.714 4.088h-1.456zm13.543-8.638l.266-1.484h1.456l-.266 1.484h-1.456zM296.265 253l1.302-7.364h1.456L297.721 253h-1.456zm6.22.168c-.486 0-.915-.047-1.288-.14-.374-.084-.691-.205-.952-.364-.252-.168-.444-.369-.574-.602-.122-.233-.182-.49-.182-.77a1.77 1.77 0 0 1 .028-.322l.07-.266h1.428a.99.99 0 0 0-.042.182c-.01.065-.014.117-.014.154 0 .233.065.425.196.574.14.14.326.243.56.308a3.61 3.61 0 0 0 .812.084 3.63 3.63 0 0 0 .644-.056c.214-.047.406-.112.574-.196s.298-.196.392-.336.14-.313.14-.518c0-.177-.056-.322-.168-.434-.103-.121-.243-.219-.42-.294-.178-.084-.383-.159-.616-.224l-.714-.21-.756-.252a3.7 3.7 0 0 1-.672-.336 1.68 1.68 0 0 1-.476-.518c-.122-.215-.182-.471-.182-.77 0-.392.079-.737.238-1.036.168-.299.396-.546.686-.742a3.13 3.13 0 0 1 1.008-.462 4.66 4.66 0 0 1 1.218-.154c.41 0 .784.037 1.12.112.345.075.639.187.882.336.252.149.443.331.574.546.14.205.21.443.21.714a1.67 1.67 0 0 1-.042.378c-.019.112-.038.187-.056.224h-1.414c.009-.056.014-.107.014-.154a.68.68 0 0 0 .014-.126c0-.205-.056-.369-.168-.49-.103-.131-.252-.224-.448-.28-.196-.065-.434-.098-.714-.098-.252 0-.476.023-.672.07-.187.037-.35.098-.49.182s-.248.187-.322.308-.112.257-.112.406c0 .205.084.369.252.49.168.112.382.205.644.28l.854.266.798.266a3.62 3.62 0 0 1 .742.35 1.46 1.46 0 0 1 .532.532c.13.215.196.485.196.812 0 .457-.089.849-.266 1.176-.168.327-.406.593-.714.798s-.663.355-1.064.448c-.402.103-.831.154-1.288.154zm7.761 0c-.69 0-1.269-.098-1.736-.294-.466-.205-.816-.513-1.05-.924-.224-.42-.336-.943-.336-1.568a7.22 7.22 0 0 1 .042-.77l.112-.742c.131-.653.346-1.232.644-1.736.308-.513.714-.919 1.218-1.218.514-.299 1.158-.448 1.932-.448.644 0 1.181.103 1.61.308.43.196.752.495.966.896.215.392.322.882.322 1.47 0 .215-.018.457-.056.728a4.94 4.94 0 0 1-.154.812h-5.096l-.042.364-.014.322c0 .364.056.667.168.91.122.243.304.42.546.532s.551.168.924.168c.234 0 .453-.028.658-.084a1.72 1.72 0 0 0 .56-.266 1.7 1.7 0 0 0 .434-.462c.131-.196.224-.434.28-.714h1.428c-.084.467-.228.873-.434 1.218-.196.336-.443.616-.742.84-.289.215-.62.378-.994.49-.364.112-.76.168-1.19.168zm-1.386-4.55h3.584l.042-.308.014-.28c0-.317-.056-.579-.168-.784-.102-.205-.261-.355-.476-.448-.214-.103-.471-.154-.77-.154-.382 0-.723.075-1.022.224a1.92 1.92 0 0 0-.728.672c-.196.289-.354.649-.476 1.078zm8.705 4.382l1.778-10.122h1.456l-.644 3.64h.098a3.25 3.25 0 0 1 .672-.56c.252-.159.518-.28.798-.364a3.2 3.2 0 0 1 .896-.126c.392 0 .742.061 1.05.182a1.57 1.57 0 0 1 .756.588c.187.271.28.63.28 1.078 0 .149-.009.308-.028.476l-.084.518-.826 4.69h-1.456l.812-4.606.042-.35a1.85 1.85 0 0 0 .028-.308c0-.252-.046-.448-.14-.588-.093-.149-.224-.252-.392-.308-.168-.065-.364-.098-.588-.098-.261 0-.522.051-.784.154-.252.093-.485.233-.7.42-.205.187-.387.42-.546.7a3.02 3.02 0 0 0-.308.966l-.714 4.018h-1.456zm11.26.168c-.672 0-1.237-.098-1.694-.294-.457-.205-.803-.513-1.036-.924s-.35-.933-.35-1.568a5.81 5.81 0 0 1 .028-.56l.084-.616c.149-.859.401-1.563.756-2.114s.807-.957 1.358-1.218c.551-.271 1.199-.406 1.946-.406.681 0 1.251.103 1.708.308.457.196.798.499 1.022.91.233.411.35.938.35 1.582a5.81 5.81 0 0 1-.028.56c-.009.187-.037.387-.084.602-.149.859-.397 1.563-.742 2.114a3.27 3.27 0 0 1-1.344 1.232c-.541.261-1.199.392-1.974.392zm.084-1.204c.457 0 .849-.089 1.176-.266.327-.187.593-.467.798-.84.215-.373.369-.845.462-1.414.047-.187.075-.345.084-.476.019-.14.028-.261.028-.364l.014-.28c0-.373-.061-.681-.182-.924-.112-.243-.289-.425-.532-.546s-.551-.182-.924-.182c-.457 0-.849.093-1.176.28-.317.187-.583.467-.798.84-.205.364-.364.831-.476 1.4l-.07.49-.042.364-.014.28c0 .373.056.681.168.924a1.19 1.19 0 0 0 .56.532c.252.121.56.182.924.182zm6.189 1.036l-.91-7.364h1.456l.35 3.556.042.56.042.77.042.714h.056l.266-.7.294-.756.238-.588 1.484-3.556h1.568l.266 3.556.028.602.042.756.042.686h.056l.252-.658.308-.742.266-.644 1.568-3.556h1.456l-3.5 7.364h-1.498l-.266-3.878-.028-.532-.028-.63-.014-.56h-.07l-.196.546-.238.63-.224.546L336.61 253h-1.512zm13.766.168c-.364 0-.649-.061-.854-.182-.196-.121-.336-.275-.42-.462-.084-.196-.126-.415-.126-.658a1.53 1.53 0 0 1 .014-.21l.028-.224.798-4.592h-.924l.21-1.204h.952l.63-2.058h1.148l-.364 2.058h1.344l-.21 1.204h-1.33l-.756 4.284-.042.21-.014.182c0 .14.042.252.126.336.084.075.215.112.392.112h.728l-.182.98a2.11 2.11 0 0 1-.336.098 2.95 2.95 0 0 1-.406.084c-.14.028-.275.042-.406.042zm5.596 0c-.672 0-1.237-.098-1.694-.294-.458-.205-.803-.513-1.036-.924s-.35-.933-.35-1.568a5.81 5.81 0 0 1 .028-.56l.084-.616c.149-.859.401-1.563.756-2.114s.807-.957 1.358-1.218c.55-.271 1.199-.406 1.946-.406.681 0 1.25.103 1.708.308.457.196.798.499 1.022.91.233.411.35.938.35 1.582 0 .177-.01.364-.028.56-.01.187-.038.387-.084.602-.15.859-.397 1.563-.742 2.114s-.794.961-1.344 1.232c-.542.261-1.2.392-1.974.392zm.084-1.204c.457 0 .849-.089 1.176-.266.326-.187.592-.467.798-.84.214-.373.368-.845.462-1.414.046-.187.074-.345.084-.476.018-.14.028-.261.028-.364l.014-.28c0-.373-.061-.681-.182-.924a1.12 1.12 0 0 0-.532-.546c-.243-.121-.551-.182-.924-.182-.458 0-.85.093-1.176.28-.318.187-.584.467-.798.84-.206.364-.364.831-.476 1.4l-.07.49-.042.364c-.01.093-.014.187-.014.28 0 .373.056.681.168.924a1.19 1.19 0 0 0 .56.532c.252.121.56.182.924.182zm10.151 3.584c-.504 0-.957-.065-1.358-.196-.392-.131-.7-.322-.924-.574a1.29 1.29 0 0 1-.336-.91v-.224c.009-.075.028-.173.056-.294h1.414c-.009.047-.014.084-.014.112v.084c0 .196.056.35.168.462.112.121.266.205.462.252a2.49 2.49 0 0 0 .658.084c.439 0 .812-.079 1.12-.238a1.73 1.73 0 0 0 .756-.686c.196-.308.336-.691.42-1.148l.042-.266.028-.224h-.084a2.62 2.62 0 0 1-.644.602c-.233.159-.49.275-.77.35-.271.075-.555.112-.854.112-.495 0-.924-.093-1.288-.28-.355-.196-.63-.49-.826-.882s-.294-.891-.294-1.498l.014-.518.084-.602c.215-1.251.621-2.161 1.218-2.73.597-.579 1.335-.868 2.212-.868.513 0 .957.098 1.33.294.383.196.667.49.854.882h.098l.308-1.008h1.176l-1.134 6.524c-.149.812-.383 1.465-.7 1.96a2.76 2.76 0 0 1-1.26 1.078c-.523.233-1.167.35-1.932.35zm.728-3.962c.261 0 .509-.047.742-.14.243-.093.462-.233.658-.42a2.45 2.45 0 0 0 .504-.714 3.97 3.97 0 0 0 .308-1.064l.07-.42c.019-.121.028-.229.028-.322l.014-.266c0-.336-.056-.616-.168-.84a1.04 1.04 0 0 0-.476-.504c-.215-.112-.495-.168-.84-.168-.373 0-.714.079-1.022.238-.299.149-.551.392-.756.728-.196.336-.341.784-.434 1.344l-.07.49-.042.336-.014.266c0 .327.051.597.154.812.112.215.28.378.504.49.224.103.504.154.84.154zm4.861 1.414l1.302-7.364h1.148l-.042 1.176h.084a3.64 3.64 0 0 1 .434-.63c.168-.205.369-.373.602-.504.234-.14.509-.21.826-.21.159 0 .299.014.42.042l.28.07-.224 1.372h-.504a2.37 2.37 0 0 0-.826.14 1.83 1.83 0 0 0-.644.42c-.177.187-.326.415-.448.686-.121.261-.21.565-.266.91L371.74 253h-1.456zm8.007.168c-.69 0-1.269-.098-1.736-.294-.466-.205-.816-.513-1.05-.924-.224-.42-.336-.943-.336-1.568a7.22 7.22 0 0 1 .042-.77l.112-.742c.131-.653.346-1.232.644-1.736.308-.513.714-.919 1.218-1.218.514-.299 1.158-.448 1.932-.448.644 0 1.181.103 1.61.308.43.196.752.495.966.896.215.392.322.882.322 1.47 0 .215-.018.457-.056.728a4.94 4.94 0 0 1-.154.812h-5.096l-.042.364-.014.322c0 .364.056.667.168.91.122.243.304.42.546.532s.551.168.924.168c.234 0 .453-.028.658-.084a1.72 1.72 0 0 0 .56-.266 1.7 1.7 0 0 0 .434-.462c.131-.196.224-.434.28-.714h1.428c-.084.467-.228.873-.434 1.218-.196.336-.443.616-.742.84-.289.215-.62.378-.994.49-.364.112-.76.168-1.19.168zm-1.386-4.55h3.584l.042-.308.014-.28c0-.317-.056-.579-.168-.784-.102-.205-.261-.355-.476-.448-.214-.103-.471-.154-.77-.154-.382 0-.723.075-1.022.224a1.92 1.92 0 0 0-.728.672c-.196.289-.354.649-.476 1.078zm9.138 4.55c-.69 0-1.269-.098-1.736-.294-.466-.205-.816-.513-1.05-.924-.224-.42-.336-.943-.336-1.568a7.22 7.22 0 0 1 .042-.77l.112-.742c.131-.653.346-1.232.644-1.736.308-.513.714-.919 1.218-1.218.514-.299 1.158-.448 1.932-.448.644 0 1.181.103 1.61.308.43.196.752.495.966.896.215.392.322.882.322 1.47 0 .215-.018.457-.056.728a4.94 4.94 0 0 1-.154.812h-5.096l-.042.364-.014.322c0 .364.056.667.168.91.122.243.304.42.546.532s.551.168.924.168c.234 0 .453-.028.658-.084a1.72 1.72 0 0 0 .56-.266 1.7 1.7 0 0 0 .434-.462c.131-.196.224-.434.28-.714h1.428c-.084.467-.228.873-.434 1.218-.196.336-.443.616-.742.84-.289.215-.62.378-.994.49-.364.112-.76.168-1.19.168zm-1.386-4.55h3.584l.042-.308.014-.28c0-.317-.056-.579-.168-.784-.102-.205-.261-.355-.476-.448-.214-.103-.471-.154-.77-.154-.382 0-.723.075-1.022.224a1.92 1.92 0 0 0-.728.672c-.196.289-.354.649-.476 1.078zm7.738 4.55c-.364 0-.648-.061-.854-.182-.196-.121-.336-.275-.42-.462-.084-.196-.126-.415-.126-.658a1.53 1.53 0 0 1 .014-.21l.028-.224.798-4.592h-.924l.21-1.204h.952l.63-2.058h1.148l-.364 2.058h1.344l-.21 1.204h-1.33l-.756 4.284-.042.21-.014.182c0 .14.042.252.126.336.084.075.215.112.392.112h.728l-.182.98a2.11 2.11 0 0 1-.336.098 2.92 2.92 0 0 1-.406.084c-.14.028-.275.042-.406.042zm5.667 2.38c-.308 0-.555-.023-.742-.07l-.35-.07.168-1.064h.728c.224 0 .439-.042.644-.126.215-.075.42-.215.616-.42.196-.196.378-.471.546-.826l-1.54-7.336h1.456l.728 3.542.14.728.126.812.098.714h.07l.21-.504.252-.574.266-.56.224-.476 1.834-3.682h1.526l-3.682 7.084c-.205.401-.42.77-.644 1.106-.224.345-.467.644-.728.896-.261.261-.551.462-.868.602-.317.149-.677.224-1.078.224zm10.019-2.38c-.672 0-1.237-.098-1.694-.294-.458-.205-.803-.513-1.036-.924s-.35-.933-.35-1.568a5.81 5.81 0 0 1 .028-.56l.084-.616c.149-.859.401-1.563.756-2.114s.807-.957 1.358-1.218c.55-.271 1.199-.406 1.946-.406.681 0 1.25.103 1.708.308.457.196.798.499 1.022.91.233.411.35.938.35 1.582 0 .177-.01.364-.028.56-.01.187-.038.387-.084.602-.15.859-.397 1.563-.742 2.114s-.794.961-1.344 1.232c-.542.261-1.2.392-1.974.392zm.084-1.204c.457 0 .849-.089 1.176-.266.326-.187.592-.467.798-.84.214-.373.368-.845.462-1.414.046-.187.074-.345.084-.476.018-.14.028-.261.028-.364l.014-.28c0-.373-.061-.681-.182-.924a1.12 1.12 0 0 0-.532-.546c-.243-.121-.551-.182-.924-.182-.458 0-.85.093-1.176.28-.318.187-.584.467-.798.84-.206.364-.364.831-.476 1.4l-.07.49-.042.364c-.01.093-.014.187-.014.28 0 .373.056.681.168.924a1.19 1.19 0 0 0 .56.532c.252.121.56.182.924.182zm7.21 1.204c-.392 0-.751-.061-1.078-.182a1.58 1.58 0 0 1-.756-.588c-.187-.271-.28-.63-.28-1.078a3.89 3.89 0 0 1 .028-.462l.098-.532.826-4.69h1.47l-.812 4.62-.056.35a1.62 1.62 0 0 0-.028.294c0 .252.047.453.14.602.103.14.238.243.406.308.177.056.373.084.588.084a2.21 2.21 0 0 0 .77-.14 2.08 2.08 0 0 0 .686-.42c.215-.187.397-.415.546-.686a2.79 2.79 0 0 0 .322-.952l.714-4.06h1.47L419.127 253h-1.176l.042-1.05h-.098c-.205.252-.443.471-.714.658-.271.177-.56.313-.868.406-.299.103-.611.154-.938.154zm5.646-.168l1.302-7.364h1.148l-.042 1.176h.084c.121-.224.266-.434.434-.63a2.09 2.09 0 0 1 .602-.504c.233-.14.508-.21.826-.21a1.89 1.89 0 0 1 .42.042l.28.07-.224 1.372h-.504c-.299 0-.574.047-.826.14-.243.093-.458.233-.644.42-.178.187-.327.415-.448.686-.122.261-.21.565-.266.91l-.686 3.892h-1.456zm9.873.168c-.485 0-.91-.098-1.274-.294-.355-.205-.63-.504-.826-.896-.196-.401-.294-.901-.294-1.498l.028-.588.098-.658c.149-.877.383-1.591.7-2.142.317-.56.705-.971 1.162-1.232.467-.261.989-.392 1.568-.392.327 0 .621.042.882.126.271.075.509.191.714.35s.369.364.49.616h.098l.406-.924h1.204l-.322 1.778-.21 1.078-.196 1.078-.168.952-.112.714-.042.35c0 .121.037.215.112.28.075.056.173.084.294.084h.504l-.168.994c-.093.047-.224.093-.392.14-.159.056-.35.084-.574.084-.252 0-.462-.056-.63-.168a.87.87 0 0 1-.364-.462l-.084-.266c-.019-.103-.023-.21-.014-.322h-.098a2.98 2.98 0 0 1-1.106.924c-.42.196-.882.294-1.386.294zm.602-1.26a1.91 1.91 0 0 0 .714-.14 2.12 2.12 0 0 0 .644-.448c.196-.205.369-.462.518-.77.149-.317.266-.695.35-1.134l.056-.462.042-.35.014-.28c0-.345-.051-.635-.154-.868-.103-.243-.261-.425-.476-.546s-.49-.182-.826-.182c-.401 0-.751.084-1.05.252-.289.168-.532.434-.728.798-.187.364-.336.84-.448 1.428l-.084.504-.042.378-.014.308c0 .513.121.896.364 1.148.243.243.616.364 1.12.364zm7.353 1.26c-.392 0-.751-.061-1.078-.182a1.58 1.58 0 0 1-.756-.588c-.186-.271-.28-.63-.28-1.078 0-.149.01-.303.028-.462l.098-.532.826-4.69h1.47l-.812 4.62-.056.35c-.018.103-.028.201-.028.294 0 .252.047.453.14.602.103.14.238.243.406.308a1.95 1.95 0 0 0 .588.084c.262 0 .518-.047.77-.14a2.08 2.08 0 0 0 .686-.42c.215-.187.397-.415.546-.686a2.79 2.79 0 0 0 .322-.952l.714-4.06h1.47L442.601 253h-1.176l.042-1.05h-.098c-.205.252-.443.471-.714.658-.27.177-.56.313-.868.406a2.85 2.85 0 0 1-.938.154zm8.292 0c-.513 0-.956-.107-1.33-.322a2.13 2.13 0 0 1-.84-.924c-.196-.401-.294-.882-.294-1.442l.014-.616c.019-.215.052-.443.098-.686.112-.644.276-1.195.49-1.652.215-.467.467-.849.756-1.148.299-.308.626-.537.98-.686s.738-.224 1.148-.224a3.46 3.46 0 0 1 .924.112 2.03 2.03 0 0 1 .728.35c.215.149.383.35.504.602h.084l.644-3.654h1.456L450.711 253h-1.162l.028-1.008h-.098c-.298.392-.648.686-1.05.882s-.83.294-1.288.294zm.49-1.26c.42 0 .78-.093 1.078-.28a2.21 2.21 0 0 0 .756-.84c.196-.364.336-.812.42-1.344.038-.177.061-.331.07-.462l.042-.35.014-.28c0-.392-.06-.705-.182-.938a1.01 1.01 0 0 0-.504-.518c-.214-.112-.466-.168-.756-.168-.429 0-.793.084-1.092.252-.289.168-.532.429-.728.784-.186.355-.331.807-.434 1.358l-.084.546-.042.392-.014.322c0 .523.122.91.364 1.162.243.243.607.364 1.092.364zm6.47-7.546l.266-1.484h1.456l-.266 1.484h-1.456zM452.603 253l1.302-7.364h1.456L454.059 253h-1.456zm6.64.168c-.691 0-1.27-.098-1.736-.294-.467-.205-.817-.513-1.05-.924-.224-.42-.336-.943-.336-1.568a7.22 7.22 0 0 1 .042-.77l.112-.742c.13-.653.345-1.232.644-1.736.308-.513.714-.919 1.218-1.218.513-.299 1.157-.448 1.932-.448.644 0 1.18.103 1.61.308a2.01 2.01 0 0 1 .966.896c.214.392.322.882.322 1.47a5.44 5.44 0 0 1-.056.728c-.028.271-.08.541-.154.812h-5.096l-.042.364c-.01.103-.014.21-.014.322 0 .364.056.667.168.91.121.243.303.42.546.532s.55.168.924.168c.233 0 .452-.028.658-.084a1.73 1.73 0 0 0 .56-.266c.168-.121.312-.275.434-.462.13-.196.224-.434.28-.714h1.428a3.62 3.62 0 0 1-.434 1.218 2.81 2.81 0 0 1-.742.84c-.29.215-.621.378-.994.49a4.03 4.03 0 0 1-1.19.168zm-1.386-4.55h3.584l.042-.308.014-.28c0-.317-.056-.579-.168-.784-.103-.205-.262-.355-.476-.448-.215-.103-.472-.154-.77-.154-.383 0-.724.075-1.022.224-.29.149-.532.373-.728.672-.196.289-.355.649-.476 1.078zM463.69 253l1.288-7.364h1.176l-.042 1.05h.098c.215-.252.458-.467.728-.644.271-.187.56-.327.868-.42a2.94 2.94 0 0 1 .938-.154c.392 0 .742.061 1.05.182a1.57 1.57 0 0 1 .756.588c.187.271.28.63.28 1.078 0 .149-.009.308-.028.476l-.084.518-.826 4.69h-1.456l.812-4.606.042-.35a1.85 1.85 0 0 0 .028-.308c0-.252-.046-.448-.14-.588-.093-.149-.224-.252-.392-.308-.168-.065-.364-.098-.588-.098-.261 0-.522.051-.784.154-.252.093-.485.233-.7.42-.205.187-.387.42-.546.7a3.02 3.02 0 0 0-.308.966l-.714 4.018h-1.456zm11.232.168c-.672 0-1.232-.098-1.68-.294s-.784-.499-1.008-.91c-.224-.42-.336-.947-.336-1.582 0-.261.014-.523.042-.784a5.38 5.38 0 0 1 .14-.77c.103-.495.252-.943.448-1.344.196-.411.443-.765.742-1.064a2.94 2.94 0 0 1 1.064-.7c.411-.168.882-.252 1.414-.252.625 0 1.143.089 1.554.266.42.177.737.429.952.756s.322.728.322 1.204l-.014.336c-.009.112-.028.229-.056.35h-1.456l.028-.238c.009-.084.014-.168.014-.252a1.46 1.46 0 0 0-.14-.658c-.084-.187-.224-.327-.42-.42-.196-.103-.448-.154-.756-.154-.401 0-.751.098-1.05.294-.299.187-.546.467-.742.84-.196.364-.345.812-.448 1.344l-.084.49-.042.378-.014.308c0 .383.056.695.168.938s.28.425.504.546c.224.112.499.168.826.168.373 0 .686-.07.938-.21a1.53 1.53 0 0 0 .616-.602 2.69 2.69 0 0 0 .336-.896h1.4c-.093.588-.275 1.101-.546 1.54s-.63.779-1.078 1.022c-.448.233-.994.35-1.638.35zm7.549 0c-.691 0-1.269-.098-1.736-.294-.467-.205-.817-.513-1.05-.924-.224-.42-.336-.943-.336-1.568a7.22 7.22 0 0 1 .042-.77l.112-.742c.131-.653.345-1.232.644-1.736.308-.513.714-.919 1.218-1.218.513-.299 1.157-.448 1.932-.448.644 0 1.181.103 1.61.308a2.01 2.01 0 0 1 .966.896c.215.392.322.882.322 1.47a5.44 5.44 0 0 1-.056.728 4.94 4.94 0 0 1-.154.812h-5.096l-.042.364-.014.322c0 .364.056.667.168.91.121.243.303.42.546.532s.551.168.924.168a2.49 2.49 0 0 0 .658-.084 1.73 1.73 0 0 0 .56-.266 1.7 1.7 0 0 0 .434-.462c.131-.196.224-.434.28-.714h1.428a3.62 3.62 0 0 1-.434 1.218c-.196.336-.443.616-.742.84-.289.215-.621.378-.994.49a4.03 4.03 0 0 1-1.19.168zm-1.386-4.55h3.584l.042-.308.014-.28c0-.317-.056-.579-.168-.784a.93.93 0 0 0-.476-.448c-.215-.103-.471-.154-.77-.154-.383 0-.723.075-1.022.224a1.92 1.92 0 0 0-.728.672c-.196.289-.355.649-.476 1.078z"/><path d="M232.248 20l.7-3.948-2.758-5.656h1.61l2.086 4.27h.084l3.542-4.27h1.722l-4.732 5.656-.686 3.948h-1.568zm8.237.168c-.672 0-1.237-.098-1.694-.294a2.18 2.18 0 0 1-1.036-.924c-.233-.411-.35-.933-.35-1.568a5.81 5.81 0 0 1 .028-.56l.084-.616c.149-.859.401-1.563.756-2.114s.807-.957 1.358-1.218c.551-.271 1.199-.406 1.946-.406.681 0 1.251.103 1.708.308.457.196.798.499 1.022.91.233.411.35.938.35 1.582a5.81 5.81 0 0 1-.028.56c-.009.187-.037.387-.084.602-.149.859-.397 1.563-.742 2.114a3.27 3.27 0 0 1-1.344 1.232c-.541.261-1.199.392-1.974.392zm.084-1.204c.457 0 .849-.089 1.176-.266.327-.187.593-.467.798-.84.215-.373.369-.845.462-1.414.047-.187.075-.345.084-.476a2.75 2.75 0 0 0 .028-.364l.014-.28c0-.373-.061-.681-.182-.924a1.12 1.12 0 0 0-.532-.546c-.243-.121-.551-.182-.924-.182-.457 0-.849.093-1.176.28-.317.187-.583.467-.798.84-.205.364-.364.831-.476 1.4l-.07.49-.042.364-.014.28c0 .373.056.681.168.924a1.19 1.19 0 0 0 .56.532c.252.121.56.182.924.182zm7.21 1.204c-.392 0-.751-.061-1.078-.182-.317-.121-.569-.317-.756-.588s-.28-.63-.28-1.078c0-.149.009-.303.028-.462l.098-.532.826-4.69h1.47l-.812 4.62-.056.35c-.019.103-.028.201-.028.294 0 .252.047.453.14.602.103.14.238.243.406.308.177.056.373.084.588.084.261 0 .518-.047.77-.14a2.09 2.09 0 0 0 .686-.42c.215-.187.397-.415.546-.686a2.79 2.79 0 0 0 .322-.952l.714-4.06h1.47L251.531 20h-1.176l.042-1.05h-.098c-.205.252-.443.471-.714.658-.271.177-.56.313-.868.406-.299.103-.611.154-.938.154zm5.646-.168l1.302-7.364h1.148l-.042 1.176h.084c.121-.224.266-.434.434-.63.168-.205.369-.373.602-.504.233-.14.509-.21.826-.21.159 0 .299.014.42.042l.28.07-.224 1.372h-.504a2.36 2.36 0 0 0-.826.14 1.83 1.83 0 0 0-.644.42c-.177.187-.327.415-.448.686-.121.261-.21.565-.266.91L254.881 20h-1.456zm11.917.168c-1.288 0-2.282-.303-2.982-.91-.69-.607-1.036-1.545-1.036-2.814l.028-.784.098-.728c.178-.971.5-1.806.966-2.506a4.75 4.75 0 0 1 1.82-1.624c.747-.383 1.606-.574 2.576-.574.756 0 1.419.107 1.988.322.57.205 1.013.523 1.33.952.327.429.49.971.49 1.624l-.014.378a2.78 2.78 0 0 1-.056.392h-1.61a.97.97 0 0 0 .042-.28 2.49 2.49 0 0 0 .014-.266c0-.401-.093-.733-.28-.994-.177-.271-.434-.467-.77-.588-.326-.131-.718-.196-1.176-.196-.513 0-.975.079-1.386.238a3.18 3.18 0 0 0-1.078.686c-.308.289-.564.644-.77 1.064-.196.42-.34.887-.434 1.4l-.084.434-.056.364-.028.322v.308c0 .56.094 1.022.28 1.386a1.8 1.8 0 0 0 .826.798c.364.168.808.252 1.33.252.57 0 1.074-.084 1.512-.252.439-.177.803-.434 1.092-.77.29-.345.481-.775.574-1.288h1.54c-.13.831-.424 1.517-.882 2.058-.448.541-1.008.943-1.68 1.204-.662.261-1.39.392-2.184.392zm8.899 0c-.672 0-1.237-.098-1.694-.294a2.18 2.18 0 0 1-1.036-.924c-.233-.411-.35-.933-.35-1.568a5.81 5.81 0 0 1 .028-.56l.084-.616c.149-.859.401-1.563.756-2.114s.807-.957 1.358-1.218c.551-.271 1.199-.406 1.946-.406.681 0 1.251.103 1.708.308.457.196.798.499 1.022.91.233.411.35.938.35 1.582a5.81 5.81 0 0 1-.028.56c-.009.187-.037.387-.084.602-.149.859-.397 1.563-.742 2.114a3.27 3.27 0 0 1-1.344 1.232c-.541.261-1.199.392-1.974.392zm.084-1.204c.457 0 .849-.089 1.176-.266.327-.187.593-.467.798-.84.215-.373.369-.845.462-1.414.047-.187.075-.345.084-.476a2.75 2.75 0 0 0 .028-.364l.014-.28c0-.373-.061-.681-.182-.924a1.12 1.12 0 0 0-.532-.546c-.243-.121-.551-.182-.924-.182-.457 0-.849.093-1.176.28-.317.187-.583.467-.798.84-.205.364-.364.831-.476 1.4l-.07.49-.042.364-.014.28c0 .373.056.681.168.924a1.19 1.19 0 0 0 .56.532c.252.121.56.182.924.182zM279.169 20l1.288-7.364h1.176l-.042 1.05h.098c.215-.261.443-.481.686-.658.252-.177.518-.313.798-.406a2.54 2.54 0 0 1 .882-.154c.457 0 .845.098 1.162.294.327.187.546.495.658.924h.098c.224-.261.462-.481.714-.658s.523-.313.812-.406a2.7 2.7 0 0 1 .91-.154c.569 0 1.031.14 1.386.42.364.28.546.747.546 1.4 0 .14-.009.289-.028.448l-.07.476-.868 4.788h-1.442l.826-4.662.042-.322c.019-.103.028-.201.028-.294 0-.252-.047-.448-.14-.588a.67.67 0 0 0-.364-.294c-.159-.065-.341-.098-.546-.098-.308 0-.607.089-.896.266-.28.177-.523.429-.728.756-.205.317-.35.7-.434 1.148L285.007 20h-1.456l.826-4.662.042-.336c.019-.103.028-.196.028-.28 0-.252-.047-.448-.14-.588a.67.67 0 0 0-.364-.294c-.159-.065-.341-.098-.546-.098-.308 0-.607.089-.896.266-.28.177-.523.429-.728.756-.205.317-.35.7-.434 1.148L280.625 20h-1.456zm11.611 2.422l1.722-9.786h1.162l-.028 1.008h.112c.299-.392.649-.686 1.05-.882s.826-.294 1.274-.294c.523 0 .966.103 1.33.308.373.196.658.495.854.896s.294.896.294 1.484l-.028.616a4.64 4.64 0 0 1-.084.686c-.149.849-.387 1.549-.714 2.1-.327.541-.719.947-1.176 1.218a2.94 2.94 0 0 1-1.484.392 3.64 3.64 0 0 1-.938-.112 2.03 2.03 0 0 1-.728-.35 1.72 1.72 0 0 1-.49-.602h-.098l-.574 3.318h-1.456zm3.878-3.514c.42 0 .779-.084 1.078-.252s.541-.429.728-.784c.196-.364.341-.817.434-1.358l.098-.546.042-.392.014-.322c0-.355-.056-.644-.168-.868a1.04 1.04 0 0 0-.49-.49c-.205-.112-.471-.168-.798-.168-.411 0-.77.098-1.078.294-.308.187-.56.462-.756.826s-.341.812-.434 1.344l-.084.462-.042.35v.28c0 .392.061.709.182.952.121.233.289.406.504.518a1.77 1.77 0 0 0 .77.154zm7.099 1.26c-.485 0-.91-.098-1.274-.294-.354-.205-.63-.504-.826-.896-.196-.401-.294-.901-.294-1.498l.028-.588.098-.658c.15-.877.383-1.591.7-2.142.318-.56.705-.971 1.162-1.232.467-.261.99-.392 1.568-.392.327 0 .621.042.882.126.271.075.509.191.714.35a1.68 1.68 0 0 1 .49.616h.098l.406-.924h1.204l-.322 1.778-.21 1.078-.196 1.078-.168.952-.112.714-.042.35c0 .121.038.215.112.28.075.056.173.084.294.084h.504l-.168.994c-.093.047-.224.093-.392.14a1.73 1.73 0 0 1-.574.084c-.252 0-.462-.056-.63-.168a.87.87 0 0 1-.364-.462l-.084-.266a1.27 1.27 0 0 1-.014-.322h-.098c-.308.411-.676.719-1.106.924-.42.196-.882.294-1.386.294zm.602-1.26c.243 0 .481-.047.714-.14.234-.103.448-.252.644-.448.196-.205.369-.462.518-.77a4.75 4.75 0 0 0 .35-1.134l.056-.462.042-.35.014-.28c0-.345-.051-.635-.154-.868a1.09 1.09 0 0 0-.476-.546c-.214-.121-.49-.182-.826-.182-.401 0-.751.084-1.05.252-.289.168-.532.434-.728.798-.186.364-.336.84-.448 1.428l-.084.504-.042.378-.014.308c0 .513.122.896.364 1.148.243.243.616.364 1.12.364zM307.347 20l1.288-7.364h1.176l-.042 1.05h.098a3.38 3.38 0 0 1 .728-.644 3.1 3.1 0 0 1 .868-.42c.308-.103.62-.154.938-.154.392 0 .742.061 1.05.182.317.121.569.317.756.588s.28.63.28 1.078a4.49 4.49 0 0 1-.028.476l-.084.518-.826 4.69h-1.456l.812-4.606.042-.35c.018-.112.028-.215.028-.308 0-.252-.047-.448-.14-.588a.72.72 0 0 0-.392-.308c-.168-.065-.364-.098-.588-.098-.262 0-.523.051-.784.154-.252.093-.486.233-.7.42-.206.187-.388.42-.546.7-.15.28-.252.602-.308.966L308.803 20h-1.456zm8.459 2.548c-.308 0-.555-.023-.742-.07l-.35-.07.168-1.064h.728c.224 0 .439-.042.644-.126.215-.075.42-.215.616-.42.196-.196.378-.471.546-.826l-1.54-7.336h1.456l.728 3.542.14.728.126.812.098.714h.07l.21-.504.252-.574.266-.56.224-.476 1.834-3.682h1.526l-3.682 7.084a11.08 11.08 0 0 1-.644 1.106c-.224.345-.467.644-.728.896a2.85 2.85 0 0 1-.868.602c-.317.149-.677.224-1.078.224zM325.672 20l1.68-9.604h1.512l3.192 5.964.168.322.196.392.168.364.084-.014.07-.518.07-.504 1.05-6.006h1.498L333.68 20h-1.456l-3.108-5.824-.322-.616-.336-.658h-.07l-.084.588-.098.588L327.17 20h-1.498zm12.507.168c-.485 0-.91-.098-1.274-.294-.354-.205-.63-.504-.826-.896-.196-.401-.294-.901-.294-1.498l.028-.588.098-.658c.15-.877.383-1.591.7-2.142.318-.56.705-.971 1.162-1.232.467-.261.99-.392 1.568-.392.327 0 .621.042.882.126.271.075.509.191.714.35a1.68 1.68 0 0 1 .49.616h.098l.406-.924h1.204l-.322 1.778-.21 1.078-.196 1.078-.168.952-.112.714-.042.35c0 .121.038.215.112.28.075.056.173.084.294.084h.504l-.168.994c-.093.047-.224.093-.392.14a1.73 1.73 0 0 1-.574.084c-.252 0-.462-.056-.63-.168a.87.87 0 0 1-.364-.462l-.084-.266a1.27 1.27 0 0 1-.014-.322h-.098c-.308.411-.676.719-1.106.924-.42.196-.882.294-1.386.294zm.602-1.26c.243 0 .481-.047.714-.14.234-.103.448-.252.644-.448.196-.205.369-.462.518-.77a4.75 4.75 0 0 0 .35-1.134l.056-.462.042-.35.014-.28c0-.345-.051-.635-.154-.868a1.09 1.09 0 0 0-.476-.546c-.214-.121-.49-.182-.826-.182-.401 0-.751.084-1.05.252-.289.168-.532.434-.728.798-.186.364-.336.84-.448 1.428l-.084.504-.042.378-.014.308c0 .513.122.896.364 1.148.243.243.616.364 1.12.364zM343.769 20l1.288-7.364h1.176l-.042 1.05h.098c.214-.261.443-.481.686-.658.252-.177.518-.313.798-.406a2.54 2.54 0 0 1 .882-.154c.457 0 .844.098 1.162.294.326.187.546.495.658.924h.098c.224-.261.462-.481.714-.658a3 3 0 0 1 .812-.406c.289-.103.592-.154.91-.154.569 0 1.031.14 1.386.42.364.28.546.747.546 1.4 0 .14-.01.289-.028.448l-.07.476-.868 4.788h-1.442l.826-4.662.042-.322a1.71 1.71 0 0 0 .028-.294c0-.252-.047-.448-.14-.588-.084-.14-.206-.238-.364-.294-.159-.065-.341-.098-.546-.098-.308 0-.607.089-.896.266-.28.177-.523.429-.728.756-.206.317-.35.7-.434 1.148L349.607 20h-1.456l.826-4.662.042-.336c.018-.103.028-.196.028-.28 0-.252-.047-.448-.14-.588-.084-.14-.206-.238-.364-.294-.159-.065-.341-.098-.546-.098-.308 0-.607.089-.896.266-.28.177-.523.429-.728.756-.206.317-.35.7-.434 1.148L345.225 20h-1.456zm15.349.168c-.691 0-1.27-.098-1.736-.294-.467-.205-.817-.513-1.05-.924-.224-.42-.336-.943-.336-1.568 0-.252.014-.509.042-.77l.112-.742c.13-.653.345-1.232.644-1.736a3.46 3.46 0 0 1 1.218-1.218c.513-.299 1.157-.448 1.932-.448.644 0 1.18.103 1.61.308a2.01 2.01 0 0 1 .966.896c.214.392.322.882.322 1.47a5.44 5.44 0 0 1-.056.728c-.028.271-.08.541-.154.812h-5.096l-.042.364a3.33 3.33 0 0 0-.014.322c0 .364.056.667.168.91.121.243.303.42.546.532s.55.168.924.168c.233 0 .452-.028.658-.084s.392-.145.56-.266.312-.275.434-.462c.13-.196.224-.434.28-.714h1.428c-.084.467-.229.873-.434 1.218a2.81 2.81 0 0 1-.742.84 3.2 3.2 0 0 1-.994.49 4.03 4.03 0 0 1-1.19.168zm-1.386-4.55h3.584l.042-.308.014-.28c0-.317-.056-.579-.168-.784-.103-.205-.262-.355-.476-.448-.215-.103-.472-.154-.77-.154-.383 0-.724.075-1.022.224-.29.149-.532.373-.728.672-.196.289-.355.649-.476 1.078z"/><path d="M71.248 231l.7-3.948-2.758-5.656h1.61l2.086 4.27h.084l3.542-4.27h1.722l-4.732 5.656-.686 3.948h-1.568zm8.237.168c-.672 0-1.237-.098-1.694-.294-.457-.205-.803-.513-1.036-.924s-.35-.933-.35-1.568c0-.177.009-.364.028-.56l.084-.616c.149-.859.401-1.563.756-2.114s.807-.957 1.358-1.218c.551-.271 1.199-.406 1.946-.406.681 0 1.251.103 1.708.308.457.196.798.499 1.022.91.233.411.35.938.35 1.582a5.91 5.91 0 0 1-.028.56c-.009.187-.037.387-.084.602-.149.859-.397 1.563-.742 2.114s-.793.961-1.344 1.232c-.541.261-1.199.392-1.974.392zm.084-1.204c.457 0 .849-.089 1.176-.266.327-.187.593-.467.798-.84.215-.373.369-.845.462-1.414.047-.187.075-.345.084-.476.019-.14.028-.261.028-.364l.014-.28c0-.373-.061-.681-.182-.924-.112-.243-.289-.425-.532-.546s-.551-.182-.924-.182c-.457 0-.849.093-1.176.28-.317.187-.583.467-.798.84-.205.364-.364.831-.476 1.4l-.07.49-.042.364-.014.28c0 .373.056.681.168.924.121.233.308.411.56.532s.56.182.924.182zm7.21 1.204c-.392 0-.751-.061-1.078-.182-.317-.121-.569-.317-.756-.588s-.28-.63-.28-1.078a3.98 3.98 0 0 1 .028-.462l.098-.532.826-4.69h1.47l-.812 4.62-.056.35c-.019.103-.028.201-.028.294 0 .252.047.453.14.602a.89.89 0 0 0 .406.308c.177.056.373.084.588.084a2.21 2.21 0 0 0 .77-.14 2.08 2.08 0 0 0 .686-.42c.215-.187.397-.415.546-.686.159-.28.266-.597.322-.952l.714-4.06h1.47L90.531 231h-1.176l.042-1.05h-.098a3.43 3.43 0 0 1-.714.658c-.271.177-.56.313-.868.406-.299.103-.611.154-.938.154zm5.646-.168l1.302-7.364h1.148l-.042 1.176h.084a3.6 3.6 0 0 1 .434-.63 2.1 2.1 0 0 1 .602-.504c.233-.14.509-.21.826-.21a1.88 1.88 0 0 1 .42.042l.28.07-.224 1.372h-.504a2.37 2.37 0 0 0-.826.14 1.82 1.82 0 0 0-.644.42c-.177.187-.327.415-.448.686-.121.261-.21.565-.266.91L93.881 231h-1.456zm11.917.168c-1.288 0-2.282-.303-2.982-.91-.69-.607-1.036-1.545-1.036-2.814l.028-.784.098-.728c.178-.971.5-1.806.966-2.506a4.75 4.75 0 0 1 1.82-1.624c.747-.383 1.606-.574 2.576-.574.756 0 1.419.107 1.988.322.57.205 1.013.523 1.33.952.327.429.49.971.49 1.624l-.014.378a2.78 2.78 0 0 1-.056.392h-1.61a.97.97 0 0 0 .042-.28c.01-.093.014-.182.014-.266 0-.401-.093-.733-.28-.994a1.49 1.49 0 0 0-.77-.588c-.326-.131-.718-.196-1.176-.196-.513 0-.975.079-1.386.238a3.18 3.18 0 0 0-1.078.686c-.308.289-.564.644-.77 1.064a5.75 5.75 0 0 0-.434 1.4l-.084.434-.056.364-.028.322v.308c0 .56.094 1.022.28 1.386a1.8 1.8 0 0 0 .826.798c.364.168.808.252 1.33.252.57 0 1.074-.084 1.512-.252a2.79 2.79 0 0 0 1.092-.77c.29-.345.481-.775.574-1.288h1.54c-.13.831-.424 1.517-.882 2.058-.448.541-1.008.943-1.68 1.204-.662.261-1.39.392-2.184.392zm8.899 0c-.672 0-1.237-.098-1.694-.294-.457-.205-.803-.513-1.036-.924s-.35-.933-.35-1.568a5.81 5.81 0 0 1 .028-.56l.084-.616c.149-.859.401-1.563.756-2.114s.807-.957 1.358-1.218c.551-.271 1.199-.406 1.946-.406.681 0 1.251.103 1.708.308.457.196.798.499 1.022.91.233.411.35.938.35 1.582a5.81 5.81 0 0 1-.028.56c-.009.187-.037.387-.084.602-.149.859-.397 1.563-.742 2.114a3.27 3.27 0 0 1-1.344 1.232c-.541.261-1.199.392-1.974.392zm.084-1.204c.457 0 .849-.089 1.176-.266.327-.187.593-.467.798-.84.215-.373.369-.845.462-1.414.047-.187.075-.345.084-.476.019-.14.028-.261.028-.364l.014-.28c0-.373-.061-.681-.182-.924-.112-.243-.289-.425-.532-.546s-.551-.182-.924-.182c-.457 0-.849.093-1.176.28-.317.187-.583.467-.798.84-.205.364-.364.831-.476 1.4l-.07.49-.042.364-.014.28c0 .373.056.681.168.924a1.19 1.19 0 0 0 .56.532c.252.121.56.182.924.182zm4.844 1.036l1.288-7.364h1.176l-.042 1.05h.098c.215-.261.443-.481.686-.658.252-.177.518-.313.798-.406.28-.103.574-.154.882-.154.457 0 .845.098 1.162.294.327.187.546.495.658.924h.098c.224-.261.462-.481.714-.658s.523-.313.812-.406c.289-.103.593-.154.91-.154.569 0 1.031.14 1.386.42.364.28.546.747.546 1.4 0 .14-.009.289-.028.448l-.07.476-.868 4.788h-1.442l.826-4.662.042-.322a1.62 1.62 0 0 0 .028-.294c0-.252-.047-.448-.14-.588a.67.67 0 0 0-.364-.294c-.159-.065-.341-.098-.546-.098-.308 0-.607.089-.896.266-.28.177-.523.429-.728.756a3.17 3.17 0 0 0-.434 1.148l-.714 4.088h-1.456l.826-4.662.042-.336a1.55 1.55 0 0 0 .028-.28c0-.252-.047-.448-.14-.588a.67.67 0 0 0-.364-.294c-.159-.065-.341-.098-.546-.098-.308 0-.607.089-.896.266-.28.177-.523.429-.728.756a3.17 3.17 0 0 0-.434 1.148l-.714 4.088h-1.456zm11.611 2.422l1.722-9.786h1.162l-.028 1.008h.112c.299-.392.649-.686 1.05-.882s.826-.294 1.274-.294c.523 0 .966.103 1.33.308.373.196.658.495.854.896s.294.896.294 1.484l-.028.616a4.64 4.64 0 0 1-.084.686c-.149.849-.387 1.549-.714 2.1-.327.541-.719.947-1.176 1.218-.457.261-.952.392-1.484.392-.345 0-.658-.037-.938-.112a2.03 2.03 0 0 1-.728-.35 1.72 1.72 0 0 1-.49-.602h-.098l-.574 3.318h-1.456zm3.878-3.514c.42 0 .779-.084 1.078-.252s.541-.429.728-.784c.196-.364.341-.817.434-1.358l.098-.546.042-.392.014-.322c0-.355-.056-.644-.168-.868a1.04 1.04 0 0 0-.49-.49c-.205-.112-.471-.168-.798-.168-.411 0-.77.098-1.078.294-.308.187-.56.462-.756.826s-.341.812-.434 1.344l-.084.462-.042.35v.28c0 .392.061.709.182.952.121.233.289.406.504.518.215.103.471.154.77.154zm7.099 1.26c-.485 0-.91-.098-1.274-.294-.354-.205-.63-.504-.826-.896-.196-.401-.294-.901-.294-1.498l.028-.588.098-.658c.15-.877.383-1.591.7-2.142.318-.56.705-.971 1.162-1.232a3.16 3.16 0 0 1 1.568-.392c.327 0 .621.042.882.126.271.075.509.191.714.35s.369.364.49.616h.098l.406-.924h1.204l-.322 1.778-.21 1.078-.196 1.078-.168.952-.112.714-.042.35c0 .121.038.215.112.28.075.056.173.084.294.084h.504l-.168.994c-.093.047-.224.093-.392.14a1.73 1.73 0 0 1-.574.084c-.252 0-.462-.056-.63-.168a.87.87 0 0 1-.364-.462l-.084-.266a1.27 1.27 0 0 1-.014-.322h-.098c-.308.411-.676.719-1.106.924-.42.196-.882.294-1.386.294zm.602-1.26a1.91 1.91 0 0 0 .714-.14 2.11 2.11 0 0 0 .644-.448c.196-.205.369-.462.518-.77.15-.317.266-.695.35-1.134l.056-.462.042-.35.014-.28c0-.345-.051-.635-.154-.868-.102-.243-.261-.425-.476-.546s-.49-.182-.826-.182c-.401 0-.751.084-1.05.252-.289.168-.532.434-.728.798-.186.364-.336.84-.448 1.428l-.084.504-.042.378-.014.308c0 .513.122.896.364 1.148.243.243.616.364 1.12.364zm4.988 1.092l1.288-7.364h1.176l-.042 1.05h.098a3.37 3.37 0 0 1 .728-.644c.27-.187.56-.327.868-.42.308-.103.62-.154.938-.154.392 0 .742.061 1.05.182a1.58 1.58 0 0 1 .756.588c.186.271.28.63.28 1.078 0 .149-.01.308-.028.476l-.084.518-.826 4.69h-1.456l.812-4.606.042-.35c.018-.112.028-.215.028-.308 0-.252-.047-.448-.14-.588a.72.72 0 0 0-.392-.308c-.168-.065-.364-.098-.588-.098a2.12 2.12 0 0 0-.784.154c-.252.093-.486.233-.7.42-.206.187-.388.42-.546.7-.15.28-.252.602-.308.966l-.714 4.018h-1.456zm8.459 2.548c-.308 0-.555-.023-.742-.07l-.35-.07.168-1.064h.728c.224 0 .439-.042.644-.126.215-.075.42-.215.616-.42.196-.196.378-.471.546-.826l-1.54-7.336h1.456l.728 3.542.14.728.126.812.098.714h.07l.21-.504.252-.574.266-.56.224-.476 1.834-3.682h1.526l-3.682 7.084c-.205.401-.42.77-.644 1.106-.224.345-.467.644-.728.896-.261.261-.551.462-.868.602-.317.149-.677.224-1.078.224zm9.866-2.548l1.68-9.604h1.554l-1.442 8.246h4.802l-.238 1.358h-6.356zm10.749.168c-.672 0-1.237-.098-1.694-.294-.458-.205-.803-.513-1.036-.924s-.35-.933-.35-1.568a5.81 5.81 0 0 1 .028-.56l.084-.616c.149-.859.401-1.563.756-2.114s.807-.957 1.358-1.218c.55-.271 1.199-.406 1.946-.406.681 0 1.25.103 1.708.308.457.196.798.499 1.022.91.233.411.35.938.35 1.582 0 .177-.01.364-.028.56-.01.187-.038.387-.084.602-.15.859-.397 1.563-.742 2.114s-.794.961-1.344 1.232c-.542.261-1.2.392-1.974.392zm.084-1.204c.457 0 .849-.089 1.176-.266.326-.187.592-.467.798-.84.214-.373.368-.845.462-1.414.046-.187.074-.345.084-.476.018-.14.028-.261.028-.364l.014-.28c0-.373-.061-.681-.182-.924a1.12 1.12 0 0 0-.532-.546c-.243-.121-.551-.182-.924-.182-.458 0-.85.093-1.176.28-.318.187-.584.467-.798.84-.206.364-.364.831-.476 1.4l-.07.49-.042.364c-.01.093-.014.187-.014.28 0 .373.056.681.168.924a1.19 1.19 0 0 0 .56.532c.252.121.56.182.924.182zm7.28 3.584c-.504 0-.957-.065-1.358-.196-.392-.131-.7-.322-.924-.574a1.29 1.29 0 0 1-.336-.91v-.224c.009-.075.028-.173.056-.294h1.414c-.01.047-.014.084-.014.112v.084c0 .196.056.35.168.462.112.121.266.205.462.252.205.056.424.084.658.084.438 0 .812-.079 1.12-.238a1.73 1.73 0 0 0 .756-.686c.196-.308.336-.691.42-1.148l.042-.266.028-.224h-.084c-.187.243-.402.443-.644.602-.234.159-.49.275-.77.35a3.19 3.19 0 0 1-.854.112c-.495 0-.924-.093-1.288-.28-.355-.196-.63-.49-.826-.882s-.294-.891-.294-1.498l.014-.518.084-.602c.214-1.251.62-2.161 1.218-2.73.597-.579 1.334-.868 2.212-.868.513 0 .956.098 1.33.294a1.87 1.87 0 0 1 .854.882h.098l.308-1.008h1.176l-1.134 6.524c-.15.812-.383 1.465-.7 1.96a2.77 2.77 0 0 1-1.26 1.078c-.523.233-1.167.35-1.932.35zm.728-3.962a1.99 1.99 0 0 0 .742-.14c.242-.093.462-.233.658-.42a2.45 2.45 0 0 0 .504-.714c.14-.299.242-.653.308-1.064l.07-.42a2.24 2.24 0 0 0 .028-.322l.014-.266c0-.336-.056-.616-.168-.84-.103-.224-.262-.392-.476-.504s-.495-.168-.84-.168c-.374 0-.714.079-1.022.238-.299.149-.551.392-.756.728-.196.336-.341.784-.434 1.344l-.07.49-.042.336c-.01.093-.014.182-.014.266 0 .327.051.597.154.812.112.215.28.378.504.49.224.103.504.154.84.154zm8.095 1.582c-.672 0-1.237-.098-1.694-.294-.457-.205-.803-.513-1.036-.924s-.35-.933-.35-1.568a5.81 5.81 0 0 1 .028-.56l.084-.616c.149-.859.401-1.563.756-2.114s.807-.957 1.358-1.218c.551-.271 1.199-.406 1.946-.406.681 0 1.251.103 1.708.308.457.196.798.499 1.022.91.233.411.35.938.35 1.582a5.81 5.81 0 0 1-.028.56c-.009.187-.037.387-.084.602-.149.859-.397 1.563-.742 2.114a3.27 3.27 0 0 1-1.344 1.232c-.541.261-1.199.392-1.974.392zm.084-1.204c.457 0 .849-.089 1.176-.266.327-.187.593-.467.798-.84.215-.373.369-.845.462-1.414.047-.187.075-.345.084-.476.019-.14.028-.261.028-.364l.014-.28c0-.373-.061-.681-.182-.924-.112-.243-.289-.425-.532-.546s-.551-.182-.924-.182c-.457 0-.849.093-1.176.28-.317.187-.583.467-.798.84-.205.364-.364.831-.476 1.4l-.07.49-.042.364-.014.28c0 .373.056.681.168.924a1.19 1.19 0 0 0 .56.532c.252.121.56.182.924.182z"/></g><g filter="url(#A)"><path d="M179.7 72.386c-2.77-5.354-12.365-9.164-12.365-9.164 2.658.49 5.375.509 7.983.055s5.048-1.37 7.172-2.691l-2.79 11.8z" class="B"/><path d="M201.046 66.232c-5.512 1.701-11.577 1.928-17.427.653-.026.005-.053.004-.079-.003s-.05-.018-.07-.035-.035-.036-.044-.058-.012-.045-.008-.068.015-.044.031-.061.037-.031.061-.04a.18.18 0 0 1 .078-.009c.026.003.052.011.074.024 5.809.789 11.679.548 17.246-.708.197-.035.369.228.138.304z" class="B"/><path d="M207.184 63.939c-.175.062-.127-.209-.127-.209 5.691-2.892 10.87-6.441 15.405-10.554.046-.028.102-.043.16-.04a.31.31 0 0 1 .162.053c.047.032.081.076.098.124s.014.1-.006.146c-4.146 4.541-9.519 8.129-15.692 10.48z" class="B"/><path d="M227.932 48.321c-.235.098-.211-.037-.192-.15 4.425-5.306 7.713-11.278 9.721-17.655.117-.352.657-.163.61.107-1.63 6.594-5.108 12.665-10.139 17.698z" class="B"/><path d="M223.355 53.1522C223.301 52.9902 223.193 52.8618 223.066 52.7752C222.939 52.6888 222.791 52.6417 222.641 52.6361C222.492 52.6304 222.336 52.666 222.199 52.7505L222.16 52.7747L222.126 52.8058C217.626 56.8881 212.483 60.4118 206.831 63.2843L206.608 63.3974L206.565 63.6433L207.057 63.7301C206.565 63.6433 206.565 63.6434 206.565 63.6436L206.565 63.6438L206.564 63.6445L206.564 63.6458L206.564 63.6487L206.563 63.656L206.56 63.676C206.558 63.6913 206.555 63.7118 206.554 63.7358C206.551 63.7786 206.548 63.8544 206.562 63.9393C206.573 64.0076 206.611 64.1844 206.772 64.3176C206.972 64.4833 207.205 64.4621 207.352 64.4097L207.352 64.4098L207.362 64.406C213.603 62.0294 219.042 58.3988 223.245 53.7958L223.3 53.736L223.333 53.662C223.406 53.4982 223.411 53.3168 223.355 53.1522ZM223.355 53.1522L222.882 53.3127M223.355 53.1522C223.355 53.1522 223.355 53.1522 223.355 53.1521L222.882 53.3127M222.882 53.3127C222.898 53.3615 222.896 53.4127 222.876 53.4587L207.097 63.7098L207.006 63.4715C207.843 63.1528 208.664 62.8113 209.47 62.4475C214.206 59.8167 218.555 56.7157 222.433 53.2019C222.442 53.1925 222.45 53.183 222.459 53.1735C222.459 53.1733 222.459 53.1731 222.46 53.173C222.475 53.1558 222.491 53.1387 222.507 53.1215L222.533 53.1455C222.561 53.1379 222.592 53.1345 222.622 53.1357C222.681 53.1379 222.737 53.1564 222.784 53.1883C222.831 53.2203 222.865 53.264 222.882 53.3127ZM179.256 72.6162L179.876 73.8148L180.186 72.5015L182.977 60.7015L183.256 59.521L182.226 60.162C180.16 61.4479 177.779 62.3422 175.232 62.7853C172.684 63.2284 170.027 63.2104 167.426 62.7309L167.151 63.6866L167.15 63.6873L167.15 63.6873L167.151 63.6873L167.151 63.6877L167.156 63.6895L167.175 63.6973C167.192 63.7042 167.219 63.7149 167.253 63.729C167.322 63.7574 167.424 63.8001 167.556 63.8564C167.819 63.9692 168.2 64.1367 168.666 64.3545C169.598 64.7905 170.869 65.4266 172.224 66.2273C174.961 67.8439 177.941 70.0745 179.256 72.6162ZM201.193 66.7099L201.193 66.71L201.2 66.7075C201.356 66.6567 201.534 66.5418 201.616 66.3276C201.696 66.1209 201.646 65.9267 201.576 65.7991C201.448 65.5632 201.156 65.3767 200.82 65.4363L200.809 65.4383L200.798 65.4408C195.312 66.6783 189.526 66.9202 183.796 66.15C183.745 66.132 183.692 66.1202 183.639 66.1147C183.543 66.1048 183.442 66.115 183.346 66.1485C183.249 66.1821 183.156 66.2396 183.079 66.3234C183.002 66.4079 182.947 66.5147 182.926 66.6346C182.905 66.7545 182.92 66.8738 182.964 66.9795C183.007 67.0845 183.075 67.1705 183.154 67.235C183.233 67.2994 183.324 67.3433 183.418 67.3669C183.47 67.3801 183.524 67.3871 183.578 67.3877C189.489 68.6649 195.616 68.4311 201.193 66.7099ZM183.667 66.6063L183.648 66.6289L183.667 66.6063ZM228.125 48.7821L228.216 48.744L228.286 48.674C233.378 43.5801 236.903 37.4294 238.556 30.7423L238.56 30.7258L238.563 30.7091C238.608 30.4551 238.506 30.242 238.382 30.1052C238.262 29.9733 238.105 29.8901 237.952 29.8508C237.799 29.8114 237.608 29.8056 237.42 29.8835C237.218 29.9676 237.061 30.1341 236.987 30.3576L236.987 30.3576L236.985 30.3647C234.996 36.6779 231.74 42.5927 227.356 47.8501L227.271 47.9523L227.248 48.0835L227.247 48.0884C227.243 48.113 227.232 48.1706 227.229 48.2302C227.227 48.2822 227.222 48.4299 227.31 48.578C227.425 48.7746 227.622 48.8505 227.789 48.8542C227.924 48.8571 228.043 48.8159 228.125 48.7821Z" stroke="url(#E)"/></g><g filter="url(#B)"><path d="M48.362 145.513c5.888-1.289 12.052-9.571 12.052-9.571-1.161 2.441-1.883 5.061-2.12 7.696s.016 5.231.743 7.625l-10.676-5.75z" class="B"/><path d="M48.781 167.725c-.217-5.765 1.134-11.681 3.88-17.002.002-.026.01-.052.023-.075s.031-.044.052-.059.044-.024.068-.028a.12.12 0 0 1 .067.011c.021.009.038.025.051.045a.15.15 0 0 1 .022.069c.002.026-.002.052-.012.077s-.024.048-.043.067c-2.265 5.406-3.552 11.139-3.78 16.841-.017.199-.316.297-.329.054z" class="B"/><path d="M49.408 174.248c-.015-.185.234-.069.234-.069 1.32 6.245 3.408 12.167 6.207 17.611.016.052.015.11-.003.166a.31.31 0 0 1-.093.143c-.043.037-.094.059-.145.062s-.1-.012-.139-.044c-3.313-5.18-5.389-11.298-6.062-17.869z" class="B"/><path d="M59.124 198.331c-.034-.253.091-.195.195-.146 3.98 5.647 8.897 10.368 14.538 13.959.31.204-.012.677-.261.561-5.948-3.281-10.912-8.212-14.471-14.374z" class="B"/><path d="M55.6414 192.66C55.8121 192.649 55.964 192.578 56.0804 192.478C56.1967 192.378 56.2806 192.247 56.3247 192.104C56.3689 191.961 56.3748 191.801 56.3287 191.647L56.3154 191.603L56.2943 191.562C53.5157 186.159 51.443 180.279 50.1314 174.076L50.0798 173.831L49.8535 173.726L49.6422 174.179C49.8535 173.726 49.8534 173.726 49.8533 173.726L49.853 173.726L49.8525 173.725L49.8513 173.725L49.8485 173.724L49.8418 173.721L49.8232 173.713C49.8089 173.707 49.7898 173.699 49.7671 173.691C49.7264 173.677 49.654 173.655 49.5684 173.647C49.4994 173.64 49.3189 173.63 49.1486 173.751C48.9367 173.902 48.8969 174.132 48.9095 174.288L48.9093 174.288L48.9104 174.299C49.5909 180.942 51.6898 187.136 55.0482 192.387L55.0919 192.455L55.1548 192.506C55.2942 192.619 55.4679 192.671 55.6414 192.66ZM55.6414 192.66L55.6088 192.161M55.6414 192.66C55.6414 192.66 55.6414 192.66 55.6414 192.66L55.6088 192.161M55.6088 192.161C55.5574 192.164 55.5085 192.149 55.4695 192.117L49.6515 174.223L49.9052 174.197C49.9965 175.088 50.1137 175.97 50.2566 176.842C51.5719 182.098 53.4417 187.101 55.832 191.756C55.839 191.767 55.8459 191.778 55.8528 191.789C55.8529 191.789 55.853 191.789 55.8532 191.789C55.8656 191.809 55.8781 191.828 55.8907 191.848L55.8606 191.867C55.8606 191.897 55.8561 191.927 55.847 191.956C55.8298 192.012 55.7973 192.062 55.7543 192.099C55.7113 192.136 55.6602 192.158 55.6088 192.161ZM48.2545 145.025L46.9362 145.314L48.1244 145.954L58.8001 151.703L59.8681 152.278L59.5155 151.118C58.8082 148.789 58.5605 146.258 58.7918 143.683C59.0231 141.108 59.7284 138.545 60.8648 136.157L60.0128 135.644L60.0122 135.643L60.0122 135.643L60.0121 135.643L60.0115 135.644L60.0086 135.648L59.9961 135.665C59.9849 135.68 59.9679 135.702 59.9453 135.732C59.9 135.791 59.8324 135.879 59.7439 135.991C59.5668 136.216 59.3065 136.541 58.9755 136.934C58.3131 137.722 57.3696 138.785 56.2455 139.887C53.9758 142.112 51.0499 144.413 48.2545 145.025ZM48.2817 167.744L48.2816 167.744L48.282 167.751C48.2908 167.915 48.3559 168.116 48.5415 168.251C48.7205 168.382 48.9209 168.384 49.0622 168.35C49.3234 168.286 49.5791 168.053 49.6083 167.713L49.6093 167.702L49.6098 167.69C49.8342 162.072 51.0982 156.42 53.3251 151.085C53.3557 151.04 53.3808 150.992 53.4 150.942C53.4344 150.851 53.4506 150.752 53.4432 150.65C53.4357 150.548 53.4044 150.443 53.3432 150.347C53.2815 150.251 53.1927 150.17 53.0823 150.118C52.972 150.067 52.8528 150.051 52.7394 150.066C52.6268 150.08 52.526 150.124 52.4433 150.184C52.3606 150.243 52.2947 150.32 52.2476 150.404C52.2214 150.451 52.2006 150.502 52.1859 150.554C49.4224 155.933 48.0625 161.912 48.2817 167.744ZM52.918 150.841L52.9009 150.818L52.918 150.841ZM58.6282 198.398L58.6413 198.496L58.6909 198.582C62.2933 204.818 67.322 209.815 73.3535 213.143L73.3683 213.151L73.3837 213.158C73.6174 213.267 73.8496 213.224 74.014 213.139C74.1725 213.057 74.2933 212.928 74.3708 212.79C74.4485 212.652 74.5037 212.469 74.4769 212.268C74.4479 212.051 74.3279 211.856 74.1312 211.727L74.1312 211.727L74.1249 211.723C68.5414 208.168 63.6709 203.492 59.7273 197.897L59.6506 197.788L59.5299 197.732L59.5254 197.73C59.5028 197.719 59.4498 197.694 59.393 197.676C59.3435 197.66 59.2019 197.617 59.0363 197.663C58.8165 197.724 58.6921 197.895 58.6454 198.055C58.6077 198.184 58.6166 198.31 58.6282 198.398Z" stroke="url(#F)"/></g><g filter="url(#C)"><path d="M344.158 160.818c-5.331 2.78-15.373.39-15.373.39a22.81 22.81 0 0 1 6.573 4.528c1.877 1.864 3.354 4.01 4.338 6.304l4.462-11.222z" class="B"/><path d="M358.131 178.066c-3.544-4.545-8.384-8.204-13.908-10.516-.018-.018-.041-.033-.066-.043s-.051-.013-.077-.011-.049.009-.069.022-.036.03-.046.051-.013.043-.009.067.012.047.027.067.035.039.059.052.049.021.075.023c5.211 2.684 9.884 6.244 13.727 10.457.142.141.434.025.287-.169z" class="B"/><path d="M361.85 183.453c-.108-.151-.224.097-.224.097 3.01 5.619 5.225 11.48 6.588 17.433.022.049.06.093.109.125s.106.049.163.05a.26.26 0 0 0 .151-.046c.041-.03.069-.073.078-.122-.801-6.079-3.151-12.083-6.865-17.537z" class="B"/><path d="M369.92 208.077c-.137-.215-.195-.091-.243.012.591 6.862-.13 13.616-2.131 19.968-.105.354.445.51.561.262 2.435-6.312 3.058-13.256 1.813-20.242z" class="B"/><path d="M343.927 160.375L345.12 159.753L344.623 161.003L340.161 172.225L339.714 173.35L339.237 172.238C338.279 170.005 336.84 167.912 335.006 166.091C333.171 164.27 330.983 162.762 328.577 161.663L328.9 160.723L328.9 160.722L328.9 160.722L328.901 160.722L328.902 160.722L328.906 160.723L328.926 160.728C328.945 160.732 328.972 160.739 329.008 160.747C329.081 160.763 329.189 160.787 329.329 160.816C329.61 160.875 330.017 160.957 330.524 161.046C331.537 161.224 332.943 161.434 334.511 161.557C337.678 161.806 341.396 161.694 343.927 160.375ZM358.525 177.758L358.525 177.758L358.53 177.765C358.628 177.895 358.709 178.091 358.653 178.314C358.6 178.53 358.447 178.661 358.317 178.725C358.076 178.844 357.731 178.828 357.491 178.588L357.483 178.58L357.475 178.572C353.687 174.42 349.084 170.907 343.948 168.253C343.895 168.238 343.845 168.218 343.798 168.192L343.927 167.961L343.798 168.192C343.714 168.145 343.638 168.079 343.578 167.997C343.518 167.914 343.475 167.813 343.46 167.701C343.445 167.587 343.461 167.468 343.512 167.357C343.564 167.247 343.645 167.158 343.742 167.096C343.838 167.035 343.943 167.004 344.044 166.997L344.08 167.496L344.044 166.997C344.146 166.99 344.245 167.006 344.335 167.04L344.241 167.286L344.335 167.04C344.386 167.059 344.434 167.084 344.479 167.115C350.053 169.46 354.94 173.16 358.525 177.758ZM362.257 183.163L362.257 183.163L362.263 183.172C366.018 188.685 368.399 194.762 369.211 200.924L369.222 201.005L369.206 201.085C369.172 201.261 369.072 201.413 368.932 201.516C368.794 201.617 368.632 201.66 368.479 201.657C368.326 201.655 368.177 201.609 368.052 201.528C367.927 201.447 367.819 201.329 367.755 201.182L367.737 201.139L367.727 201.094C366.374 195.187 364.175 189.367 361.185 183.786L361.067 183.566L361.173 183.339L361.626 183.55C361.173 183.339 361.173 183.339 361.173 183.339L361.173 183.339L361.174 183.338L361.174 183.337L361.175 183.334L361.179 183.327L361.188 183.309C361.195 183.296 361.205 183.278 361.217 183.257C361.239 183.22 361.28 183.156 361.341 183.095C361.389 183.045 361.522 182.923 361.73 182.906C361.988 182.886 362.166 183.036 362.257 183.163ZM370.342 207.808L370.395 207.892L370.413 207.989C371.672 215.061 371.043 222.097 368.573 228.499L368.567 228.514L368.56 228.53C368.451 228.764 368.245 228.88 368.064 228.92C367.891 228.959 367.715 228.937 367.568 228.882C367.42 228.826 367.26 228.722 367.151 228.551C367.034 228.367 367 228.14 367.067 227.914L367.067 227.914L367.069 227.907C369.05 221.62 369.765 214.931 369.179 208.132L369.168 207.999L369.224 207.878C369.233 207.859 369.259 207.802 369.293 207.747C369.321 207.703 369.402 207.58 369.559 207.508C369.766 207.414 369.971 207.465 370.109 207.558C370.221 207.632 370.295 207.734 370.342 207.808Z" stroke="url(#G)"/></g><path fill="#e4e7ec" d="M52 197h452v1H52z"/><g fill="#101928"><path d="M144 121.98h14v-14h-14v14zM92.84 121v-8.64h.882v3.894h4.776v-3.894h.876V121h-.876v-3.9h-4.776v3.9h-.882zm8.335-7.71v-.99h.882v.99h-.882zm0 7.71v-6.48h.882V121h-.882zm8.611 0a4.32 4.32 0 0 1-1.08.09c-.352-.016-.668-.092-.948-.228a1.35 1.35 0 0 1-.63-.636 1.87 1.87 0 0 1-.192-.726l-.012-.846v-5.934h.876v5.898l.006.684c.008.18.05.34.126.48.144.268.372.428.684.48s.706.04 1.17-.036V121zm-4.248-5.724v-.756h4.248v.756h-4.248zM115.743 121v-3.306a4.48 4.48 0 0 0-.102-.99c-.068-.304-.178-.568-.33-.792a1.51 1.51 0 0 0-.582-.528c-.236-.124-.524-.186-.864-.186-.312 0-.588.054-.828.162a1.63 1.63 0 0 0-.6.468c-.16.2-.282.444-.366.732s-.126.616-.126.984l-.624-.138c0-.664.116-1.222.348-1.674s.552-.794.96-1.026a2.79 2.79 0 0 1 1.404-.348c.388 0 .726.06 1.014.18s.538.282.738.486a2.47 2.47 0 0 1 .492.702c.124.26.214.538.27.834a4.64 4.64 0 0 1 .084.876V121h-.888zm-4.686 0v-8.64h.798v4.878h.09V121h-.888zm9.873.18c-.632 0-1.18-.14-1.644-.42a2.85 2.85 0 0 1-1.074-1.182c-.256-.508-.384-1.104-.384-1.788 0-.708.126-1.32.378-1.836s.606-.914 1.062-1.194 1.002-.42 1.626-.42c.64 0 1.186.148 1.638.444s.794.712 1.026 1.26.338 1.202.318 1.962h-.9v-.312c-.016-.84-.198-1.474-.546-1.902s-.848-.642-1.512-.642c-.696 0-1.23.226-1.602.678s-.552 1.096-.552 1.932c0 .816.184 1.45.552 1.902s.898.672 1.578.672c.464 0 .868-.106 1.212-.318s.622-.526.822-.93l.822.318c-.256.564-.634 1.002-1.134 1.314a3.13 3.13 0 0 1-1.686.462zm-2.478-3.174v-.738h4.95v.738h-4.95zm6.755 2.994v-6.48h.792v1.56l-.156-.204c.072-.192.166-.368.282-.528a1.83 1.83 0 0 1 .378-.402 1.71 1.71 0 0 1 .588-.336 2.38 2.38 0 0 1 .678-.138c.228-.016.436 0 .624.048v.828a2.14 2.14 0 0 0-.774-.042c-.28.032-.538.144-.774.336a1.61 1.61 0 0 0-.486.606c-.108.232-.18.48-.216.744a5.64 5.64 0 0 0-.054.774V121h-.882zm6.949.18c-.632 0-1.18-.14-1.644-.42a2.85 2.85 0 0 1-1.074-1.182c-.256-.508-.384-1.104-.384-1.788 0-.708.126-1.32.378-1.836s.606-.914 1.062-1.194 1.002-.42 1.626-.42c.64 0 1.186.148 1.638.444s.794.712 1.026 1.26.338 1.202.318 1.962h-.9v-.312c-.016-.84-.198-1.474-.546-1.902s-.848-.642-1.512-.642c-.696 0-1.23.226-1.602.678s-.552 1.096-.552 1.932c0 .816.184 1.45.552 1.902s.898.672 1.578.672c.464 0 .868-.106 1.212-.318s.622-.526.822-.93l.822.318c-.256.564-.634 1.002-1.134 1.314a3.13 3.13 0 0 1-1.686.462zm-2.478-3.174v-.738h4.95v.738h-4.95zm7.356 2.994v-.99h.882v.99h-.882zm0-2.16v-6.48h.882v6.48h-.882z"/><path d="M92.96 147v-8.64h.882V147h-.882zm2.681-6.12l.054-.438c.16.012.276-.02.348-.096s.116-.178.132-.306a2.33 2.33 0 0 0 .012-.414h-.546v-1.266h1.026v1.506c0 .368-.094.644-.282.828s-.432.246-.744.186zm10.388 6.12l.006-4.254c0-.5-.14-.892-.42-1.176s-.628-.432-1.056-.432c-.244 0-.482.056-.714.168s-.424.292-.576.54-.222.572-.222.972l-.522-.15c-.012-.464.078-.87.27-1.218s.464-.618.804-.81a2.31 2.31 0 0 1 1.164-.294c.652 0 1.174.202 1.566.606s.588.942.588 1.626l-.006 4.422h-.882zm-7.734 0v-6.48h.792v1.596h.096V147h-.888zm3.876 0l.006-4.194c0-.516-.138-.922-.414-1.218s-.632-.45-1.08-.45-.81.154-1.086.462-.414.71-.414 1.218l-.528-.288c0-.416.098-.788.294-1.116a2.09 2.09 0 0 1 .804-.78c.34-.192.726-.288 1.158-.288a2.24 2.24 0 0 1 1.098.264 1.88 1.88 0 0 1 .762.768c.184.336.276.744.276 1.224l-.006 4.398h-.87zm10.558.18c-.488 0-.898-.088-1.23-.264a1.79 1.79 0 0 1-.738-.702c-.164-.292-.246-.61-.246-.954 0-.352.07-.652.21-.9s.338-.458.582-.618.534-.282.858-.366l1.086-.21 1.17-.162 1.008-.138-.312.192c.012-.64-.112-1.114-.372-1.422s-.712-.462-1.356-.462c-.444 0-.82.1-1.128.3s-.518.516-.642.948l-.858-.252c.148-.58.446-1.03.894-1.35s1.03-.48 1.746-.48c.592 0 1.094.112 1.506.336s.71.54.882.96c.08.188.132.398.156.63s.036.468.036.708V147h-.786v-1.626l.228.096c-.22.556-.562.98-1.026 1.272s-1.02.438-1.668.438zm.102-.762c.412 0 .772-.074 1.08-.222s.556-.35.744-.606a2.08 2.08 0 0 0 .366-.876 3.28 3.28 0 0 0 .078-.684l.006-.564.336.174-.978.12-1.032.138-.912.186c-.184.052-.362.126-.534.222s-.314.216-.426.372-.162.35-.162.582c0 .188.046.37.138.546s.248.322.456.438.492.174.84.174zm9.392.582v-3.306a4.48 4.48 0 0 0-.102-.99c-.068-.304-.178-.568-.33-.792a1.51 1.51 0 0 0-.582-.528c-.236-.124-.524-.186-.864-.186-.312 0-.588.054-.828.162a1.63 1.63 0 0 0-.6.468c-.16.2-.282.444-.366.732s-.126.616-.126.984l-.624-.138c0-.664.116-1.222.348-1.674s.552-.794.96-1.026a2.79 2.79 0 0 1 1.404-.348c.388 0 .726.06 1.014.18s.538.282.738.486a2.47 2.47 0 0 1 .492.702c.124.26.214.538.27.834a4.64 4.64 0 0 1 .084.876V147h-.888zm-4.686 0v-6.48h.798v1.596h.09V147h-.888zm8.933 0l2.976-8.64h1.17l2.976 8.64h-.918l-2.826-8.148h.348L127.388 147h-.918zm1.326-2.094v-.828h4.464v.828h-4.464zm7 2.094v-8.64h.882V147h-.882zm6.937.18c-.488 0-.898-.088-1.23-.264a1.79 1.79 0 0 1-.738-.702c-.164-.292-.246-.61-.246-.954 0-.352.07-.652.21-.9s.338-.458.582-.618.534-.282.858-.366l1.086-.21 1.17-.162 1.008-.138-.312.192c.012-.64-.112-1.114-.372-1.422s-.712-.462-1.356-.462c-.444 0-.82.1-1.128.3s-.518.516-.642.948l-.858-.252c.148-.58.446-1.03.894-1.35s1.03-.48 1.746-.48c.592 0 1.094.112 1.506.336s.71.54.882.96c.08.188.132.398.156.63s.036.468.036.708V147h-.786v-1.626l.228.096c-.22.556-.562.98-1.026 1.272s-1.02.438-1.668.438zm.102-.762c.412 0 .772-.074 1.08-.222s.556-.35.744-.606a2.08 2.08 0 0 0 .366-.876 3.28 3.28 0 0 0 .078-.684l.006-.564.336.174-.978.12-1.032.138-.912.186c-.184.052-.362.126-.534.222s-.314.216-.426.372-.162.35-.162.582c0 .188.046.37.138.546s.248.322.456.438.492.174.84.174zm7.13.756c-.76 0-1.386-.164-1.878-.492a2.05 2.05 0 0 1-.9-1.368l.9-.15c.096.368.314.662.654.882s.768.324 1.272.324c.492 0 .88-.102 1.164-.306s.426-.49.426-.846c0-.2-.046-.362-.138-.486s-.27-.246-.546-.354-.688-.236-1.236-.384c-.588-.16-1.048-.32-1.38-.48s-.568-.344-.708-.552-.21-.47-.21-.774a1.56 1.56 0 0 1 .312-.966c.208-.28.496-.496.864-.648s.796-.234 1.284-.234.924.08 1.308.24.7.376.936.66a1.85 1.85 0 0 1 .42.99l-.9.162c-.06-.38-.25-.68-.57-.9s-.718-.34-1.206-.348c-.46-.012-.834.076-1.122.264s-.432.43-.432.738a.67.67 0 0 0 .156.444c.104.12.292.234.564.342a10.34 10.34 0 0 0 1.176.354c.596.152 1.064.312 1.404.48s.582.366.726.594.216.51.216.846c0 .612-.228 1.094-.684 1.446s-1.076.522-1.872.522zm6.305 0c-.76 0-1.386-.164-1.878-.492a2.05 2.05 0 0 1-.9-1.368l.9-.15c.096.368.314.662.654.882s.768.324 1.272.324c.492 0 .88-.102 1.164-.306s.426-.49.426-.846c0-.2-.046-.362-.138-.486s-.27-.246-.546-.354-.688-.236-1.236-.384c-.588-.16-1.048-.32-1.38-.48s-.568-.344-.708-.552-.21-.47-.21-.774a1.56 1.56 0 0 1 .312-.966c.208-.28.496-.496.864-.648s.796-.234 1.284-.234.924.08 1.308.24.7.376.936.66a1.85 1.85 0 0 1 .42.99l-.9.162c-.06-.38-.25-.68-.57-.9s-.718-.34-1.206-.348c-.46-.012-.834.076-1.122.264s-.432.43-.432.738a.67.67 0 0 0 .156.444c.104.12.292.234.564.342a10.34 10.34 0 0 0 1.176.354c.596.152 1.064.312 1.404.48s.582.366.726.594.216.51.216.846c0 .612-.228 1.094-.684 1.446s-1.076.522-1.872.522zm4.006-7.884v-.99h.882v.99h-.882zm0 7.71v-6.48h.882V147h-.882zm5.099.174c-.76 0-1.386-.164-1.878-.492a2.05 2.05 0 0 1-.9-1.368l.9-.15c.096.368.314.662.654.882s.768.324 1.272.324c.492 0 .88-.102 1.164-.306s.426-.49.426-.846c0-.2-.046-.362-.138-.486s-.27-.246-.546-.354-.688-.236-1.236-.384c-.588-.16-1.048-.32-1.38-.48s-.568-.344-.708-.552-.21-.47-.21-.774a1.56 1.56 0 0 1 .312-.966c.208-.28.496-.496.864-.648s.796-.234 1.284-.234.924.08 1.308.24.7.376.936.66a1.85 1.85 0 0 1 .42.99l-.9.162c-.06-.38-.25-.68-.57-.9s-.718-.34-1.206-.348c-.46-.012-.834.076-1.122.264s-.432.43-.432.738a.67.67 0 0 0 .156.444c.104.12.292.234.564.342a10.34 10.34 0 0 0 1.176.354c.596.152 1.064.312 1.404.48s.582.366.726.594.216.51.216.846c0 .612-.228 1.094-.684 1.446s-1.076.522-1.872.522zm7.415-.174a4.32 4.32 0 0 1-1.08.09c-.352-.016-.668-.092-.948-.228s-.486-.348-.63-.636a1.87 1.87 0 0 1-.192-.726l-.012-.846v-5.934h.876v5.898l.006.684c.008.18.05.34.126.48.144.268.372.428.684.48s.706.04 1.17-.036V147zm-4.248-5.724v-.756h4.248v.756h-4.248zm7.379 5.904c-.488 0-.898-.088-1.23-.264a1.79 1.79 0 0 1-.738-.702c-.164-.292-.246-.61-.246-.954 0-.352.07-.652.21-.9s.338-.458.582-.618.534-.282.858-.366l1.086-.21 1.17-.162 1.008-.138-.312.192c.012-.64-.112-1.114-.372-1.422s-.712-.462-1.356-.462c-.444 0-.82.1-1.128.3s-.518.516-.642.948l-.858-.252c.148-.58.446-1.03.894-1.35s1.03-.48 1.746-.48c.592 0 1.094.112 1.506.336s.71.54.882.96c.08.188.132.398.156.63s.036.468.036.708V147h-.786v-1.626l.228.096c-.22.556-.562.98-1.026 1.272s-1.02.438-1.668.438zm.102-.762c.412 0 .772-.074 1.08-.222s.556-.35.744-.606a2.08 2.08 0 0 0 .366-.876 3.28 3.28 0 0 0 .078-.684l.006-.564.336.174-.978.12-1.032.138-.912.186c-.184.052-.362.126-.534.222s-.314.216-.426.372-.162.35-.162.582c0 .188.046.37.138.546s.248.322.456.438.492.174.84.174zm9.392.582v-3.306a4.48 4.48 0 0 0-.102-.99c-.068-.304-.178-.568-.33-.792a1.51 1.51 0 0 0-.582-.528c-.236-.124-.524-.186-.864-.186-.312 0-.588.054-.828.162a1.63 1.63 0 0 0-.6.468c-.16.2-.282.444-.366.732s-.126.616-.126.984l-.624-.138c0-.664.116-1.222.348-1.674s.552-.794.96-1.026a2.79 2.79 0 0 1 1.404-.348c.388 0 .726.06 1.014.18s.538.282.738.486a2.47 2.47 0 0 1 .492.702c.124.26.214.538.27.834a4.64 4.64 0 0 1 .084.876V147h-.888zm-4.686 0v-6.48h.798v1.596h.09V147h-.888zm10.659 0a4.32 4.32 0 0 1-1.08.09c-.352-.016-.668-.092-.948-.228s-.486-.348-.63-.636a1.87 1.87 0 0 1-.192-.726l-.012-.846v-5.934h.876v5.898l.006.684c.008.18.05.34.126.48.144.268.372.428.684.48s.706.04 1.17-.036V147zm-4.248-5.724v-.756h4.248v.756h-4.248zM197.595 147a4.32 4.32 0 0 1-1.08.09c-.352-.016-.668-.092-.948-.228s-.486-.348-.63-.636a1.87 1.87 0 0 1-.192-.726l-.012-.846v-5.934h.876v5.898l.006.684c.008.18.05.34.126.48.144.268.372.428.684.48s.706.04 1.17-.036V147zm-4.248-5.724v-.756h4.248v.756h-4.248zm5.524 5.724v-6.48h.792v1.56l-.156-.204c.072-.192.166-.368.282-.528a1.83 1.83 0 0 1 .378-.402 1.71 1.71 0 0 1 .588-.336 2.38 2.38 0 0 1 .678-.138 1.96 1.96 0 0 1 .624.048v.828a2.14 2.14 0 0 0-.774-.042c-.28.032-.538.144-.774.336a1.61 1.61 0 0 0-.486.606c-.108.232-.18.48-.216.744a5.64 5.64 0 0 0-.054.774V147h-.882zm5.932.18c-.488 0-.898-.088-1.23-.264a1.79 1.79 0 0 1-.738-.702c-.164-.292-.246-.61-.246-.954 0-.352.07-.652.21-.9s.338-.458.582-.618.534-.282.858-.366l1.086-.21 1.17-.162 1.008-.138-.312.192c.012-.64-.112-1.114-.372-1.422s-.712-.462-1.356-.462c-.444 0-.82.1-1.128.3s-.518.516-.642.948l-.858-.252c.148-.58.446-1.03.894-1.35s1.03-.48 1.746-.48c.592 0 1.094.112 1.506.336s.71.54.882.96c.08.188.132.398.156.63s.036.468.036.708V147h-.786v-1.626l.228.096c-.22.556-.562.98-1.026 1.272s-1.02.438-1.668.438zm.102-.762c.412 0 .772-.074 1.08-.222s.556-.35.744-.606a2.08 2.08 0 0 0 .366-.876 3.28 3.28 0 0 0 .078-.684l.006-.564.336.174-.978.12-1.032.138-.912.186c-.184.052-.362.126-.534.222s-.314.216-.426.372-.162.35-.162.582c0 .188.046.37.138.546s.248.322.456.438.492.174.84.174zm4.832-7.128v-.99h.882v.99h-.882zm0 7.71v-6.48h.882V147h-.882zm7.361 0v-3.306a4.48 4.48 0 0 0-.102-.99c-.068-.304-.178-.568-.33-.792a1.51 1.51 0 0 0-.582-.528c-.236-.124-.524-.186-.864-.186-.312 0-.588.054-.828.162a1.63 1.63 0 0 0-.6.468c-.16.2-.282.444-.366.732s-.126.616-.126.984l-.624-.138c0-.664.116-1.222.348-1.674s.552-.794.96-1.026a2.79 2.79 0 0 1 1.404-.348c.388 0 .726.06 1.014.18s.538.282.738.486a2.47 2.47 0 0 1 .492.702c.124.26.214.538.27.834a4.64 4.64 0 0 1 .084.876V147h-.888zm-4.686 0v-6.48h.798v1.596h.09V147h-.888zm9.838.18c-.632 0-1.18-.14-1.644-.42a2.85 2.85 0 0 1-1.074-1.182c-.256-.508-.384-1.104-.384-1.788 0-.708.126-1.32.378-1.836s.606-.914 1.062-1.194 1.002-.42 1.626-.42c.64 0 1.186.148 1.638.444s.794.712 1.026 1.26.338 1.202.318 1.962h-.9v-.312c-.016-.84-.198-1.474-.546-1.902s-.848-.642-1.512-.642c-.696 0-1.23.226-1.602.678s-.552 1.096-.552 1.932c0 .816.184 1.45.552 1.902s.898.672 1.578.672c.464 0 .868-.106 1.212-.318s.622-.526.822-.93l.822.318c-.256.564-.634 1.002-1.134 1.314a3.13 3.13 0 0 1-1.686.462zm-2.478-3.174v-.738h4.95v.738h-4.95zm9.27 3.174c-.604 0-1.12-.15-1.548-.45s-.756-.714-.984-1.23-.342-1.098-.342-1.746.112-1.224.336-1.74.554-.924.978-1.224.932-.45 1.524-.45c.608 0 1.12.148 1.536.444s.73.702.942 1.218.324 1.096.324 1.752c0 .644-.106 1.226-.318 1.746s-.524.926-.936 1.23-.916.45-1.512.45zm.09-.822c.46 0 .84-.112 1.14-.336s.524-.532.672-.924.222-.844.222-1.344c0-.508-.074-.956-.222-1.344s-.372-.698-.672-.918-.67-.33-1.122-.33c-.464 0-.848.114-1.152.342s-.53.538-.678.93-.216.832-.216 1.32.074.936.222 1.332a2.08 2.08 0 0 0 .678.93c.3.228.676.342 1.128.342zm2.034.642v-4.878h-.096v-3.762h.888V147h-.792zm8.405 0a4.32 4.32 0 0 1-1.08.09c-.352-.016-.668-.092-.948-.228s-.486-.348-.63-.636a1.87 1.87 0 0 1-.192-.726l-.012-.846v-5.934h.876v5.898l.006.684c.008.18.05.34.126.48.144.268.372.428.684.48s.706.04 1.17-.036V147zm-4.248-5.724v-.756h4.248v.756h-4.248zm7.996 5.904c-.644 0-1.194-.146-1.65-.438a2.85 2.85 0 0 1-1.05-1.212c-.244-.516-.366-1.108-.366-1.776 0-.68.124-1.276.372-1.788s.6-.91 1.056-1.194 1.006-.432 1.638-.432c.648 0 1.2.146 1.656.438s.81.69 1.05 1.206.366 1.102.366 1.77c0 .68-.122 1.278-.366 1.794s-.596.912-1.056 1.2-1.01.432-1.65.432zm0-.846c.72 0 1.256-.238 1.608-.714s.528-1.102.528-1.866c0-.784-.178-1.408-.534-1.872s-.886-.696-1.602-.696c-.484 0-.884.11-1.2.33s-.546.518-.702.906-.228.828-.228 1.332c0 .78.18 1.406.54 1.878s.89.702 1.59.702zm11.478.666v-3.306a4.48 4.48 0 0 0-.102-.99c-.068-.304-.178-.568-.33-.792a1.51 1.51 0 0 0-.582-.528c-.236-.124-.524-.186-.864-.186-.312 0-.588.054-.828.162a1.63 1.63 0 0 0-.6.468c-.16.2-.282.444-.366.732s-.126.616-.126.984l-.624-.138c0-.664.116-1.222.348-1.674s.552-.794.96-1.026a2.79 2.79 0 0 1 1.404-.348c.388 0 .726.06 1.014.18s.538.282.738.486a2.47 2.47 0 0 1 .492.702c.124.26.214.538.27.834a4.64 4.64 0 0 1 .084.876V147h-.888zm-4.686 0v-8.64h.798v4.878h.09V147h-.888zm9.873.18c-.632 0-1.18-.14-1.644-.42a2.85 2.85 0 0 1-1.074-1.182c-.256-.508-.384-1.104-.384-1.788 0-.708.126-1.32.378-1.836s.606-.914 1.062-1.194 1.002-.42 1.626-.42c.64 0 1.186.148 1.638.444s.794.712 1.026 1.26.338 1.202.318 1.962h-.9v-.312c-.016-.84-.198-1.474-.546-1.902s-.848-.642-1.512-.642c-.696 0-1.23.226-1.602.678s-.552 1.096-.552 1.932c0 .816.184 1.45.552 1.902s.898.672 1.578.672c.464 0 .868-.106 1.212-.318s.622-.526.822-.93l.822.318c-.256.564-.634 1.002-1.134 1.314a3.13 3.13 0 0 1-1.686.462zm-2.478-3.174v-.738h4.95v.738h-4.95zm6.876 2.994v-8.82h.882V147h-.882zm5.591.18c-.596 0-1.1-.15-1.512-.45s-.724-.714-.936-1.23-.318-1.102-.318-1.746c0-.656.106-1.24.318-1.752s.532-.922.948-1.218.928-.444 1.536-.444c.592 0 1.1.15 1.524.45s.748.708.972 1.224.342 1.096.342 1.74-.114 1.23-.342 1.746-.556.926-.984 1.23-.944.45-1.548.45zm-2.916 2.7v-9.36h.792v4.878h.096v4.482h-.888zm2.826-3.522c.452 0 .828-.114 1.128-.342a2.04 2.04 0 0 0 .672-.93c.152-.396.228-.84.228-1.332s-.074-.928-.222-1.32-.374-.702-.678-.93-.682-.342-1.146-.342c-.452 0-.828.11-1.128.33s-.518.526-.666.918-.222.836-.222 1.344c0 .5.074.948.222 1.344s.372.7.672.924.68.336 1.14.336zm7.608 3.522l1.254-3.402.018 1.008-2.838-6.966h.936l2.328 5.826h-.384l2.148-5.826h.9l-3.48 9.36h-.882zm7.875-2.7c-.644 0-1.194-.146-1.65-.438a2.85 2.85 0 0 1-1.05-1.212c-.244-.516-.366-1.108-.366-1.776 0-.68.124-1.276.372-1.788s.6-.91 1.056-1.194 1.006-.432 1.638-.432c.648 0 1.2.146 1.656.438s.81.69 1.05 1.206.366 1.102.366 1.77c0 .68-.122 1.278-.366 1.794s-.596.912-1.056 1.2-1.01.432-1.65.432zm0-.846c.72 0 1.256-.238 1.608-.714s.528-1.102.528-1.866c0-.784-.178-1.408-.534-1.872s-.886-.696-1.602-.696c-.484 0-.884.11-1.2.33s-.546.518-.702.906-.228.828-.228 1.332c0 .78.18 1.406.54 1.878s.89.702 1.59.702zm6.874.828c-.388 0-.728-.06-1.02-.18s-.534-.282-.738-.486-.362-.436-.486-.696-.214-.542-.27-.834-.084-.59-.084-.882v-3.564h.888v3.306c0 .356.034.686.102.99s.176.57.324.798.346.398.582.522.53.186.87.186c.312 0 .586-.054.822-.162s.44-.262.6-.462.288-.45.372-.738.126-.62.126-.984l.624.138c0 .664-.116 1.222-.348 1.674s-.552.794-.96 1.026a2.79 2.79 0 0 1-1.404.348zm2.178-.162v-1.596h-.09v-4.884h.882V147h-.792zm6.251 0l-1.98-6.486.882.006 1.536 5.034 1.542-5.034h.804l1.542 5.034 1.548-5.034h.876l-1.98 6.48h-.768l-1.62-5.16-1.614 5.16h-.768zm7.951-7.71v-.99h.882v.99h-.882zm0 7.71v-6.48h.882V147h-.882zm6.209 0a4.32 4.32 0 0 1-1.08.09c-.352-.016-.668-.092-.948-.228s-.486-.348-.63-.636a1.87 1.87 0 0 1-.192-.726l-.012-.846v-5.934h.876v5.898l.006.684c.008.18.05.34.126.48.144.268.372.428.684.48s.706.04 1.17-.036V147zm-4.248-5.724v-.756h4.248v.756h-4.248zM320.786 147v-3.306a4.48 4.48 0 0 0-.102-.99c-.068-.304-.178-.568-.33-.792a1.51 1.51 0 0 0-.582-.528c-.236-.124-.524-.186-.864-.186-.312 0-.588.054-.828.162a1.63 1.63 0 0 0-.6.468c-.16.2-.282.444-.366.732s-.126.616-.126.984l-.624-.138c0-.664.116-1.222.348-1.674s.552-.794.96-1.026a2.79 2.79 0 0 1 1.404-.348c.388 0 .726.06 1.014.18s.538.282.738.486a2.47 2.47 0 0 1 .492.702c.124.26.214.538.27.834a4.64 4.64 0 0 1 .084.876V147h-.888zm-4.686 0v-8.64h.798v4.878h.09V147h-.888zm11.387.18c-.488 0-.898-.088-1.23-.264a1.79 1.79 0 0 1-.738-.702c-.164-.292-.246-.61-.246-.954 0-.352.07-.652.21-.9s.338-.458.582-.618.534-.282.858-.366l1.086-.21 1.17-.162 1.008-.138-.312.192c.012-.64-.112-1.114-.372-1.422s-.712-.462-1.356-.462c-.444 0-.82.1-1.128.3s-.518.516-.642.948l-.858-.252c.148-.58.446-1.03.894-1.35s1.03-.48 1.746-.48c.592 0 1.094.112 1.506.336s.71.54.882.96c.08.188.132.398.156.63s.036.468.036.708V147h-.786v-1.626l.228.096c-.22.556-.562.98-1.026 1.272s-1.02.438-1.668.438zm.102-.762c.412 0 .772-.074 1.08-.222s.556-.35.744-.606a2.08 2.08 0 0 0 .366-.876 3.28 3.28 0 0 0 .078-.684l.006-.564.336.174-.978.12-1.032.138-.912.186c-.184.052-.362.126-.534.222s-.314.216-.426.372-.162.35-.162.582c0 .188.046.37.138.546s.248.322.456.438.492.174.84.174zm9.392.582v-3.306a4.48 4.48 0 0 0-.102-.99c-.068-.304-.178-.568-.33-.792a1.51 1.51 0 0 0-.582-.528c-.236-.124-.524-.186-.864-.186-.312 0-.588.054-.828.162a1.63 1.63 0 0 0-.6.468c-.16.2-.282.444-.366.732s-.126.616-.126.984l-.624-.138c0-.664.116-1.222.348-1.674s.552-.794.96-1.026a2.79 2.79 0 0 1 1.404-.348c.388 0 .726.06 1.014.18s.538.282.738.486a2.47 2.47 0 0 1 .492.702c.124.26.214.538.27.834a4.64 4.64 0 0 1 .084.876V147h-.888zm-4.686 0v-6.48h.798v1.596h.09V147h-.888zm7.821 2.88l1.254-3.402.018 1.008-2.838-6.966h.936l2.328 5.826h-.384l2.148-5.826h.9l-3.48 9.36h-.882zm10.806-2.7c-.604 0-1.148-.1-1.632-.3a3.16 3.16 0 0 1-1.194-.864c-.312-.372-.516-.814-.612-1.326l.9-.15a2.22 2.22 0 0 0 .912 1.32c.464.316 1.018.474 1.662.474.424 0 .804-.066 1.14-.198s.6-.328.792-.576.288-.542.288-.882c0-.224-.04-.414-.12-.57a1.15 1.15 0 0 0-.318-.396 1.96 1.96 0 0 0-.432-.258 3.41 3.41 0 0 0-.456-.174l-2.19-.654c-.264-.076-.508-.172-.732-.288s-.42-.262-.588-.426-.292-.364-.384-.588-.138-.48-.138-.768c0-.488.128-.91.384-1.266s.606-.63 1.05-.822.95-.286 1.518-.282c.576 0 1.09.102 1.542.306a2.91 2.91 0 0 1 1.128.876c.296.376.492.822.588 1.338l-.924.168c-.06-.376-.198-.702-.414-.978s-.492-.488-.828-.636-.698-.23-1.098-.234c-.388 0-.734.066-1.038.198s-.538.304-.714.528a1.21 1.21 0 0 0-.264.768c0 .292.08.526.24.702a1.73 1.73 0 0 0 .6.414 6.35 6.35 0 0 0 .696.246l1.692.498c.176.048.382.118.618.21a2.72 2.72 0 0 1 .696.384c.228.164.416.38.564.648s.222.608.222 1.02c0 .4-.08.758-.24 1.074a2.21 2.21 0 0 1-.666.798c-.284.216-.618.38-1.002.492s-.796.174-1.248.174zm6.873-.018c-.388 0-.728-.06-1.02-.18s-.534-.282-.738-.486-.362-.436-.486-.696-.214-.542-.27-.834-.084-.59-.084-.882v-3.564h.888v3.306c0 .356.034.686.102.99s.176.57.324.798.346.398.582.522.53.186.87.186c.312 0 .586-.054.822-.162s.44-.262.6-.462.288-.45.372-.738.126-.62.126-.984l.624.138c0 .664-.116 1.222-.348 1.674s-.552.794-.96 1.026a2.79 2.79 0 0 1-1.404.348zm2.178-.162v-1.596h-.09v-4.884h.882V147h-.792zm5.379.18c-.596 0-1.1-.15-1.512-.45s-.724-.714-.936-1.23-.318-1.102-.318-1.746c0-.656.106-1.24.318-1.752s.532-.922.948-1.218.928-.444 1.536-.444c.592 0 1.1.15 1.524.45s.748.708.972 1.224.342 1.096.342 1.74-.114 1.23-.342 1.746-.556.926-.984 1.23-.944.45-1.548.45zm-2.916 2.7v-9.36h.792v4.878h.096v4.482h-.888zm2.826-3.522c.452 0 .828-.114 1.128-.342a2.04 2.04 0 0 0 .672-.93c.152-.396.228-.84.228-1.332s-.074-.928-.222-1.32-.374-.702-.678-.93-.682-.342-1.146-.342c-.452 0-.828.11-1.128.33s-.518.526-.666.918-.222.836-.222 1.344c0 .5.074.948.222 1.344s.372.7.672.924.68.336 1.14.336zm7.191.822c-.596 0-1.1-.15-1.512-.45s-.724-.714-.936-1.23-.318-1.102-.318-1.746c0-.656.106-1.24.318-1.752s.532-.922.948-1.218.928-.444 1.536-.444c.592 0 1.1.15 1.524.45s.748.708.972 1.224.342 1.096.342 1.74-.114 1.23-.342 1.746-.556.926-.984 1.23-.944.45-1.548.45zm-2.916 2.7v-9.36h.792v4.878h.096v4.482h-.888zm2.826-3.522c.452 0 .828-.114 1.128-.342a2.04 2.04 0 0 0 .672-.93c.152-.396.228-.84.228-1.332s-.074-.928-.222-1.32-.374-.702-.678-.93-.682-.342-1.146-.342c-.452 0-.828.11-1.128.33s-.518.526-.666.918-.222.836-.222 1.344c0 .5.074.948.222 1.344s.372.7.672.924.68.336 1.14.336zm6.988.822c-.644 0-1.194-.146-1.65-.438a2.85 2.85 0 0 1-1.05-1.212c-.244-.516-.366-1.108-.366-1.776 0-.68.124-1.276.372-1.788s.6-.91 1.056-1.194 1.006-.432 1.638-.432c.648 0 1.2.146 1.656.438s.81.69 1.05 1.206.366 1.102.366 1.77c0 .68-.122 1.278-.366 1.794s-.596.912-1.056 1.2-1.01.432-1.65.432zm0-.846c.72 0 1.256-.238 1.608-.714s.528-1.102.528-1.866c0-.784-.178-1.408-.534-1.872s-.886-.696-1.602-.696c-.484 0-.884.11-1.2.33s-.546.518-.702.906-.228.828-.228 1.332c0 .78.18 1.406.54 1.878s.89.702 1.59.702zm4.395.666v-6.48h.792v1.56l-.156-.204c.072-.192.166-.368.282-.528a1.83 1.83 0 0 1 .378-.402 1.71 1.71 0 0 1 .588-.336 2.38 2.38 0 0 1 .678-.138 1.96 1.96 0 0 1 .624.048v.828a2.14 2.14 0 0 0-.774-.042c-.28.032-.538.144-.774.336a1.61 1.61 0 0 0-.486.606c-.108.232-.18.48-.216.744a5.64 5.64 0 0 0-.054.774V147h-.882zm7.852 0a4.32 4.32 0 0 1-1.08.09c-.352-.016-.668-.092-.948-.228s-.486-.348-.63-.636a1.87 1.87 0 0 1-.192-.726l-.012-.846v-5.934h.876v5.898l.006.684c.008.18.05.34.126.48.144.268.372.428.684.48s.706.04 1.17-.036V147zm-4.248-5.724v-.756h4.248v.756h-4.248zm7.928 5.724v-6.48h.792v1.56l-.156-.204c.072-.192.166-.368.282-.528a1.83 1.83 0 0 1 .378-.402 1.71 1.71 0 0 1 .588-.336 2.38 2.38 0 0 1 .678-.138 1.96 1.96 0 0 1 .624.048v.828a2.14 2.14 0 0 0-.774-.042c-.28.032-.538.144-.774.336a1.61 1.61 0 0 0-.486.606c-.108.232-.18.48-.216.744a5.64 5.64 0 0 0-.054.774V147h-.882zm6.949.18c-.632 0-1.18-.14-1.644-.42a2.85 2.85 0 0 1-1.074-1.182c-.256-.508-.384-1.104-.384-1.788 0-.708.126-1.32.378-1.836s.606-.914 1.062-1.194 1.002-.42 1.626-.42c.64 0 1.186.148 1.638.444s.794.712 1.026 1.26.338 1.202.318 1.962h-.9v-.312c-.016-.84-.198-1.474-.546-1.902s-.848-.642-1.512-.642c-.696 0-1.23.226-1.602.678s-.552 1.096-.552 1.932c0 .816.184 1.45.552 1.902s.898.672 1.578.672c.464 0 .868-.106 1.212-.318s.622-.526.822-.93l.822.318c-.256.564-.634 1.002-1.134 1.314a3.13 3.13 0 0 1-1.686.462zm-2.478-3.174v-.738h4.95v.738h-4.95zm6.875 2.994v-8.82h.882V147h-.882zm4.535.18c-.488 0-.898-.088-1.23-.264a1.79 1.79 0 0 1-.738-.702c-.164-.292-.246-.61-.246-.954 0-.352.07-.652.21-.9s.338-.458.582-.618.534-.282.858-.366l1.086-.21 1.17-.162 1.008-.138-.312.192c.012-.64-.112-1.114-.372-1.422s-.712-.462-1.356-.462c-.444 0-.82.1-1.128.3s-.518.516-.642.948l-.858-.252c.148-.58.446-1.03.894-1.35s1.03-.48 1.746-.48c.592 0 1.094.112 1.506.336s.71.54.882.96c.08.188.132.398.156.63s.036.468.036.708V147h-.786v-1.626l.228.096c-.22.556-.562.98-1.026 1.272s-1.02.438-1.668.438zm.102-.762c.412 0 .772-.074 1.08-.222s.556-.35.744-.606a2.08 2.08 0 0 0 .366-.876 3.28 3.28 0 0 0 .078-.684l.006-.564.336.174-.978.12-1.032.138-.912.186c-.184.052-.362.126-.534.222s-.314.216-.426.372-.162.35-.162.582c0 .188.046.37.138.546s.248.322.456.438.492.174.84.174zm8.24.582a4.32 4.32 0 0 1-1.08.09c-.352-.016-.668-.092-.948-.228s-.486-.348-.63-.636a1.87 1.87 0 0 1-.192-.726l-.012-.846v-5.934h.876v5.898l.006.684c.008.18.05.34.126.48.144.268.372.428.684.48s.706.04 1.17-.036V147zm-4.248-5.724v-.756h4.248v.756h-4.248zm8.032 5.904c-.632 0-1.18-.14-1.644-.42a2.85 2.85 0 0 1-1.074-1.182c-.256-.508-.384-1.104-.384-1.788 0-.708.126-1.32.378-1.836s.606-.914 1.062-1.194 1.002-.42 1.626-.42c.64 0 1.186.148 1.638.444s.794.712 1.026 1.26.338 1.202.318 1.962h-.9v-.312c-.016-.84-.198-1.474-.546-1.902s-.848-.642-1.512-.642c-.696 0-1.23.226-1.602.678s-.552 1.096-.552 1.932c0 .816.184 1.45.552 1.902s.898.672 1.578.672c.464 0 .868-.106 1.212-.318s.622-.526.822-.93l.822.318c-.256.564-.634 1.002-1.134 1.314a3.13 3.13 0 0 1-1.686.462zm-2.478-3.174v-.738h4.95v.738h-4.95zm9.27 3.174c-.604 0-1.12-.15-1.548-.45s-.756-.714-.984-1.23-.342-1.098-.342-1.746.112-1.224.336-1.74.554-.924.978-1.224.932-.45 1.524-.45c.608 0 1.12.148 1.536.444s.73.702.942 1.218.324 1.096.324 1.752c0 .644-.106 1.226-.318 1.746s-.524.926-.936 1.23-.916.45-1.512.45zm.09-.822c.46 0 .84-.112 1.14-.336s.524-.532.672-.924.222-.844.222-1.344c0-.508-.074-.956-.222-1.344s-.372-.698-.672-.918-.67-.33-1.122-.33c-.464 0-.848.114-1.152.342s-.53.538-.678.93-.216.832-.216 1.32.074.936.222 1.332a2.08 2.08 0 0 0 .678.93c.3.228.676.342 1.128.342zm2.034.642v-4.878h-.096v-3.762h.888V147h-.792zm7.4-7.71v-.99h.882v.99h-.882zm0 7.71v-6.48h.882V147h-.882zm5.098.174c-.76 0-1.386-.164-1.878-.492a2.05 2.05 0 0 1-.9-1.368l.9-.15c.096.368.314.662.654.882s.768.324 1.272.324c.492 0 .88-.102 1.164-.306s.426-.49.426-.846c0-.2-.046-.362-.138-.486s-.27-.246-.546-.354-.688-.236-1.236-.384c-.588-.16-1.048-.32-1.38-.48s-.568-.344-.708-.552-.21-.47-.21-.774a1.56 1.56 0 0 1 .312-.966c.208-.28.496-.496.864-.648s.796-.234 1.284-.234.924.08 1.308.24.7.376.936.66a1.85 1.85 0 0 1 .42.99l-.9.162c-.06-.38-.25-.68-.57-.9s-.718-.34-1.206-.348c-.46-.012-.834.076-1.122.264s-.432.43-.432.738a.67.67 0 0 0 .156.444c.104.12.292.234.564.342a10.34 10.34 0 0 0 1.176.354c.596.152 1.064.312 1.404.48s.582.366.726.594.216.51.216.846c0 .612-.228 1.094-.684 1.446s-1.076.522-1.872.522zm6.305 0c-.76 0-1.386-.164-1.878-.492a2.05 2.05 0 0 1-.9-1.368l.9-.15c.096.368.314.662.654.882s.768.324 1.272.324c.492 0 .88-.102 1.164-.306s.426-.49.426-.846c0-.2-.046-.362-.138-.486s-.27-.246-.546-.354-.688-.236-1.236-.384c-.588-.16-1.048-.32-1.38-.48s-.568-.344-.708-.552-.21-.47-.21-.774a1.56 1.56 0 0 1 .312-.966c.208-.28.496-.496.864-.648s.796-.234 1.284-.234.924.08 1.308.24.7.376.936.66a1.85 1.85 0 0 1 .42.99l-.9.162c-.06-.38-.25-.68-.57-.9s-.718-.34-1.206-.348c-.46-.012-.834.076-1.122.264s-.432.43-.432.738a.67.67 0 0 0 .156.444c.104.12.292.234.564.342a10.34 10.34 0 0 0 1.176.354c.596.152 1.064.312 1.404.48s.582.366.726.594.216.51.216.846c0 .612-.228 1.094-.684 1.446s-1.076.522-1.872.522zm6.365-.012c-.388 0-.728-.06-1.02-.18s-.534-.282-.738-.486-.362-.436-.486-.696-.214-.542-.27-.834-.084-.59-.084-.882v-3.564h.888v3.306c0 .356.034.686.102.99s.176.57.324.798.346.398.582.522.53.186.87.186c.312 0 .586-.054.822-.162s.44-.262.6-.462.288-.45.372-.738.126-.62.126-.984l.624.138c0 .664-.116 1.222-.348 1.674s-.552.794-.96 1.026a2.79 2.79 0 0 1-1.404.348zm2.178-.162v-1.596h-.09v-4.884h.882V147h-.792zm5.211.18c-.632 0-1.18-.14-1.644-.42a2.85 2.85 0 0 1-1.074-1.182c-.256-.508-.384-1.104-.384-1.788 0-.708.126-1.32.378-1.836s.606-.914 1.062-1.194 1.002-.42 1.626-.42c.64 0 1.186.148 1.638.444s.794.712 1.026 1.26.338 1.202.318 1.962h-.9v-.312c-.016-.84-.198-1.474-.546-1.902s-.848-.642-1.512-.642c-.696 0-1.23.226-1.602.678s-.552 1.096-.552 1.932c0 .816.184 1.45.552 1.902s.898.672 1.578.672c.464 0 .868-.106 1.212-.318s.622-.526.822-.93l.822.318c-.256.564-.634 1.002-1.134 1.314a3.13 3.13 0 0 1-1.686.462zm-2.478-3.174v-.738h4.95v.738h-4.95zm9.173 3.168c-.76 0-1.386-.164-1.878-.492a2.05 2.05 0 0 1-.9-1.368l.9-.15c.096.368.314.662.654.882s.768.324 1.272.324c.492 0 .88-.102 1.164-.306s.426-.49.426-.846c0-.2-.046-.362-.138-.486s-.27-.246-.546-.354-.688-.236-1.236-.384c-.588-.16-1.048-.32-1.38-.48s-.568-.344-.708-.552-.21-.47-.21-.774a1.56 1.56 0 0 1 .312-.966c.208-.28.496-.496.864-.648s.796-.234 1.284-.234.924.08 1.308.24.7.376.936.66a1.85 1.85 0 0 1 .42.99l-.9.162c-.06-.38-.25-.68-.57-.9s-.718-.34-1.206-.348c-.46-.012-.834.076-1.122.264s-.432.43-.432.738a.67.67 0 0 0 .156.444c.104.12.292.234.564.342a10.34 10.34 0 0 0 1.176.354c.596.152 1.064.312 1.404.48s.582.366.726.594.216.51.216.846c0 .612-.228 1.094-.684 1.446s-1.076.522-1.872.522zm4.055-.174v-1.026h1.026V147h-1.026z"/><path d="M92.24 173l2.976-8.64h1.17l2.976 8.64h-.918l-2.826-8.148h.348L93.158 173h-.918zm1.326-2.094v-.828h4.464v.828h-4.464zm9.297 2.268c-.76 0-1.386-.164-1.878-.492a2.05 2.05 0 0 1-.9-1.368l.9-.15c.096.368.314.662.654.882s.768.324 1.272.324c.492 0 .88-.102 1.164-.306s.426-.49.426-.846c0-.2-.046-.362-.138-.486s-.27-.246-.546-.354-.688-.236-1.236-.384c-.588-.16-1.048-.32-1.38-.48s-.568-.344-.708-.552-.21-.47-.21-.774a1.56 1.56 0 0 1 .312-.966c.208-.28.496-.496.864-.648s.796-.234 1.284-.234.924.08 1.308.24.7.376.936.66a1.85 1.85 0 0 1 .42.99l-.9.162c-.06-.38-.25-.68-.57-.9s-.718-.34-1.206-.348c-.46-.012-.834.076-1.122.264s-.432.43-.432.738a.67.67 0 0 0 .156.444c.104.12.292.234.564.342a10.34 10.34 0 0 0 1.176.354c.596.152 1.064.312 1.404.48s.582.366.726.594.216.51.216.846c0 .612-.228 1.094-.684 1.446s-1.076.522-1.872.522zm3.881-.174l.006-8.64h.888v5.28l2.892-3.12h1.176l-3.036 3.24 3.432 3.24h-1.284l-3.18-3.12V173h-.894zm16.09 0l.006-4.254c0-.5-.14-.892-.42-1.176s-.628-.432-1.056-.432c-.244 0-.482.056-.714.168s-.424.292-.576.54-.222.572-.222.972l-.522-.15c-.012-.464.078-.87.27-1.218s.464-.618.804-.81a2.31 2.31 0 0 1 1.164-.294c.652 0 1.174.202 1.566.606s.588.942.588 1.626l-.006 4.422h-.882zm-7.734 0v-6.48h.792v1.596h.096V173h-.888zm3.876 0l.006-4.194c0-.516-.138-.922-.414-1.218s-.632-.45-1.08-.45-.81.154-1.086.462-.414.71-.414 1.218l-.528-.288c0-.416.098-.788.294-1.116a2.09 2.09 0 0 1 .804-.78c.34-.192.726-.288 1.158-.288a2.24 2.24 0 0 1 1.098.264 1.88 1.88 0 0 1 .762.768c.184.336.276.744.276 1.224l-.006 4.398h-.87zm9.008.18c-.632 0-1.18-.14-1.644-.42a2.85 2.85 0 0 1-1.074-1.182c-.256-.508-.384-1.104-.384-1.788 0-.708.126-1.32.378-1.836s.606-.914 1.062-1.194 1.002-.42 1.626-.42c.64 0 1.186.148 1.638.444s.794.712 1.026 1.26.338 1.202.318 1.962h-.9v-.312c-.016-.84-.198-1.474-.546-1.902s-.848-.642-1.512-.642c-.696 0-1.23.226-1.602.678s-.552 1.096-.552 1.932c0 .816.184 1.45.552 1.902s.898.672 1.578.672c.464 0 .868-.106 1.212-.318s.622-.526.822-.93l.822.318c-.256.564-.634 1.002-1.134 1.314a3.13 3.13 0 0 1-1.686.462zm-2.478-3.174v-.738h4.95v.738h-4.95zm11.012 3.174c-.488 0-.898-.088-1.23-.264a1.79 1.79 0 0 1-.738-.702c-.164-.292-.246-.61-.246-.954 0-.352.07-.652.21-.9s.338-.458.582-.618.534-.282.858-.366l1.086-.21 1.17-.162 1.008-.138-.312.192c.012-.64-.112-1.114-.372-1.422s-.712-.462-1.356-.462c-.444 0-.82.1-1.128.3s-.518.516-.642.948l-.858-.252c.148-.58.446-1.03.894-1.35s1.03-.48 1.746-.48c.592 0 1.094.112 1.506.336s.71.54.882.96c.08.188.132.398.156.63s.036.468.036.708V173h-.786v-1.626l.228.096c-.22.556-.562.98-1.026 1.272s-1.02.438-1.668.438zm.102-.762c.412 0 .772-.074 1.08-.222s.556-.35.744-.606a2.08 2.08 0 0 0 .366-.876 3.28 3.28 0 0 0 .078-.684l.006-.564.336.174-.978.12-1.032.138-.912.186c-.184.052-.362.126-.534.222s-.314.216-.426.372-.162.35-.162.582c0 .188.046.37.138.546s.248.322.456.438.492.174.84.174zm9.392.582v-3.306a4.48 4.48 0 0 0-.102-.99c-.068-.304-.178-.568-.33-.792a1.51 1.51 0 0 0-.582-.528c-.236-.124-.524-.186-.864-.186-.312 0-.588.054-.828.162a1.63 1.63 0 0 0-.6.468c-.16.2-.282.444-.366.732s-.126.616-.126.984l-.624-.138c0-.664.116-1.222.348-1.674s.552-.794.96-1.026a2.79 2.79 0 0 1 1.404-.348c.388 0 .726.06 1.014.18s.538.282.738.486a2.47 2.47 0 0 1 .492.702c.124.26.214.538.27.834a4.64 4.64 0 0 1 .084.876V173h-.888zm-4.686 0v-6.48h.798v1.596h.09V173h-.888zm7.821 2.88l1.254-3.402.018 1.008-2.838-6.966h.936l2.328 5.826h-.384l2.148-5.826h.9l-3.48 9.36h-.882zm9.412-2.88a4.32 4.32 0 0 1-1.08.09c-.352-.016-.668-.092-.948-.228s-.486-.348-.63-.636a1.87 1.87 0 0 1-.192-.726l-.012-.846v-5.934h.876v5.898l.006.684c.008.18.05.34.126.48.144.268.372.428.684.48s.706.04 1.17-.036V173zm-4.248-5.724v-.756h4.248v.756h-4.248zM164.516 173v-3.306a4.48 4.48 0 0 0-.102-.99c-.068-.304-.178-.568-.33-.792a1.51 1.51 0 0 0-.582-.528c-.236-.124-.524-.186-.864-.186-.312 0-.588.054-.828.162a1.63 1.63 0 0 0-.6.468c-.16.2-.282.444-.366.732s-.126.616-.126.984l-.624-.138c0-.664.116-1.222.348-1.674s.552-.794.96-1.026a2.79 2.79 0 0 1 1.404-.348c.388 0 .726.06 1.014.18s.538.282.738.486a2.47 2.47 0 0 1 .492.702c.124.26.214.538.27.834a4.64 4.64 0 0 1 .084.876V173h-.888zm-4.686 0v-8.64h.798v4.878h.09V173h-.888zm7.251-7.71v-.99h.882v.99h-.882zm0 7.71v-6.48h.882V173h-.882zm7.361 0v-3.306a4.48 4.48 0 0 0-.102-.99c-.068-.304-.178-.568-.33-.792a1.51 1.51 0 0 0-.582-.528c-.236-.124-.524-.186-.864-.186-.312 0-.588.054-.828.162a1.63 1.63 0 0 0-.6.468c-.16.2-.282.444-.366.732s-.126.616-.126.984l-.624-.138c0-.664.116-1.222.348-1.674s.552-.794.96-1.026a2.79 2.79 0 0 1 1.404-.348c.388 0 .726.06 1.014.18s.538.282.738.486a2.47 2.47 0 0 1 .492.702c.124.26.214.538.27.834a4.64 4.64 0 0 1 .084.876V173h-.888zm-4.686 0v-6.48h.798v1.596h.09V173h-.888zm9.705 3.06a3.32 3.32 0 0 1-.984-.15c-.32-.096-.616-.25-.888-.462a2.55 2.55 0 0 1-.684-.816l.798-.444c.18.36.432.618.756.774s.662.24 1.002.24c.468 0 .846-.088 1.134-.264a1.48 1.48 0 0 0 .636-.768c.132-.34.196-.764.192-1.272v-1.728h.102v-4.65h.786v6.39l-.018.528c-.008.172-.026.34-.054.504-.076.484-.234.882-.474 1.194a2.11 2.11 0 0 1-.936.696c-.384.152-.84.228-1.368.228zm-.06-2.88c-.604 0-1.12-.15-1.548-.45s-.756-.714-.984-1.23-.342-1.098-.342-1.746.112-1.224.336-1.74.554-.924.978-1.224.932-.45 1.524-.45c.608 0 1.12.148 1.536.444s.73.702.942 1.218.324 1.096.324 1.752c0 .644-.106 1.226-.318 1.746s-.524.926-.936 1.23-.916.45-1.512.45zm.09-.822c.46 0 .84-.112 1.14-.336s.524-.532.672-.924.222-.844.222-1.344c0-.508-.074-.956-.222-1.344s-.372-.698-.672-.918-.67-.33-1.122-.33c-.464 0-.848.114-1.152.342s-.53.538-.678.93-.216.832-.216 1.32.074.936.222 1.332a2.08 2.08 0 0 0 .678.93c.3.228.676.342 1.128.342zm8.754.822c-.488 0-.898-.088-1.23-.264a1.79 1.79 0 0 1-.738-.702c-.164-.292-.246-.61-.246-.954 0-.352.07-.652.21-.9s.338-.458.582-.618.534-.282.858-.366l1.086-.21 1.17-.162 1.008-.138-.312.192c.012-.64-.112-1.114-.372-1.422s-.712-.462-1.356-.462c-.444 0-.82.1-1.128.3s-.518.516-.642.948l-.858-.252c.148-.58.446-1.03.894-1.35s1.03-.48 1.746-.48c.592 0 1.094.112 1.506.336s.71.54.882.96c.08.188.132.398.156.63s.036.468.036.708V173h-.786v-1.626l.228.096c-.22.556-.562.98-1.026 1.272s-1.02.438-1.668.438zm.102-.762c.412 0 .772-.074 1.08-.222s.556-.35.744-.606a2.08 2.08 0 0 0 .366-.876 3.28 3.28 0 0 0 .078-.684l.006-.564.336.174-.978.12-1.032.138-.912.186c-.184.052-.362.126-.534.222s-.314.216-.426.372-.162.35-.162.582c0 .188.046.37.138.546s.248.322.456.438.492.174.84.174zm7.622.762c-.596 0-1.1-.15-1.512-.45s-.724-.714-.936-1.23-.318-1.102-.318-1.746c0-.656.106-1.24.318-1.752s.532-.922.948-1.218.928-.444 1.536-.444c.592 0 1.1.15 1.524.45s.748.708.972 1.224.342 1.096.342 1.74-.114 1.23-.342 1.746-.556.926-.984 1.23-.944.45-1.548.45zm-2.916-.18v-8.64h.888v3.762h-.096V173h-.792zm2.826-.642c.452 0 .828-.114 1.128-.342a2.04 2.04 0 0 0 .672-.93c.152-.396.228-.84.228-1.332s-.074-.928-.222-1.32-.374-.702-.678-.93-.682-.342-1.146-.342c-.452 0-.828.11-1.128.33s-.518.526-.666.918-.222.836-.222 1.344c0 .5.074.948.222 1.344s.372.7.672.924.68.336 1.14.336zm6.987.822c-.644 0-1.194-.146-1.65-.438a2.85 2.85 0 0 1-1.05-1.212c-.244-.516-.366-1.108-.366-1.776 0-.68.124-1.276.372-1.788s.6-.91 1.056-1.194 1.006-.432 1.638-.432c.648 0 1.2.146 1.656.438s.81.69 1.05 1.206.366 1.102.366 1.77c0 .68-.122 1.278-.366 1.794s-.596.912-1.056 1.2-1.01.432-1.65.432zm0-.846c.72 0 1.256-.238 1.608-.714s.528-1.102.528-1.866c0-.784-.178-1.408-.534-1.872s-.886-.696-1.602-.696c-.484 0-.884.11-1.2.33s-.546.518-.702.906-.228.828-.228 1.332c0 .78.18 1.406.54 1.878s.89.702 1.59.702zm6.874.828c-.388 0-.728-.06-1.02-.18s-.534-.282-.738-.486-.362-.436-.486-.696-.214-.542-.27-.834-.084-.59-.084-.882v-3.564h.888v3.306c0 .356.034.686.102.99s.176.57.324.798.346.398.582.522.53.186.87.186c.312 0 .586-.054.822-.162s.44-.262.6-.462.288-.45.372-.738.126-.62.126-.984l.624.138c0 .664-.116 1.222-.348 1.674s-.552.794-.96 1.026a2.79 2.79 0 0 1-1.404.348zm2.178-.162v-1.596h-.09v-4.884h.882V173h-.792zm5.997 0a4.32 4.32 0 0 1-1.08.09c-.352-.016-.668-.092-.948-.228s-.486-.348-.63-.636a1.87 1.87 0 0 1-.192-.726l-.012-.846v-5.934h.876v5.898l.006.684c.008.18.05.34.126.48.144.268.372.428.684.48s.706.04 1.17-.036V173zm-4.248-5.724v-.756h4.248v.756h-4.248zm7.927 5.724v-8.64h3.336c.484 0 .906.1 1.266.3s.64.47.84.81a2.14 2.14 0 0 1 .3 1.116c0 .464-.124.878-.372 1.242s-.58.61-.996.75l-.012-.294c.56.16 1 .44 1.32.84s.48.884.48 1.452c0 .5-.106.932-.318 1.296s-.51.638-.894.834-.83.294-1.338.294h-3.612zm.888-.846h2.508c.352 0 .668-.062.948-.186s.5-.308.66-.54.246-.512.246-.84c0-.32-.074-.608-.222-.864s-.35-.46-.606-.612-.54-.234-.864-.234h-2.67v3.276zm0-4.11h2.442c.276 0 .528-.062.756-.186a1.44 1.44 0 0 0 .54-.522 1.42 1.42 0 0 0 .204-.762c0-.408-.142-.74-.426-.996s-.638-.384-1.074-.384h-2.442v2.85zm9.177 5.136c-.644 0-1.194-.146-1.65-.438a2.85 2.85 0 0 1-1.05-1.212c-.244-.516-.366-1.108-.366-1.776 0-.68.124-1.276.372-1.788s.6-.91 1.056-1.194 1.006-.432 1.638-.432c.648 0 1.2.146 1.656.438s.81.69 1.05 1.206.366 1.102.366 1.77c0 .68-.122 1.278-.366 1.794s-.596.912-1.056 1.2-1.01.432-1.65.432zm0-.846c.72 0 1.256-.238 1.608-.714s.528-1.102.528-1.866c0-.784-.178-1.408-.534-1.872s-.886-.696-1.602-.696c-.484 0-.884.11-1.2.33s-.546.518-.702.906-.228.828-.228 1.332c0 .78.18 1.406.54 1.878s.89.702 1.59.702zm7.924.666a4.32 4.32 0 0 1-1.08.09c-.352-.016-.668-.092-.948-.228s-.486-.348-.63-.636a1.87 1.87 0 0 1-.192-.726l-.012-.846v-5.934h.876v5.898l.006.684c.008.18.05.34.126.48.144.268.372.428.684.48s.706.04 1.17-.036V173zm-4.248-5.724v-.756h4.248v.756h-4.248zm8.369-3.09c.544 0 1.036.132 1.476.396a2.88 2.88 0 0 1 1.056 1.068c.26.448.39.952.39 1.512v3c0 .576-.13 1.092-.39 1.548s-.616.816-1.068 1.08-.958.39-1.53.39c-.492 0-.948-.108-1.368-.324a2.92 2.92 0 0 1-1.032-.906l.672-.558c.184.284.428.512.732.684a2.01 2.01 0 0 0 .996.258c.408 0 .768-.096 1.08-.288s.564-.452.744-.768.276-.666.276-1.038v-1.884l.216.252a2.88 2.88 0 0 1-.99.96 2.57 2.57 0 0 1-1.344.366c-.532 0-1.014-.128-1.446-.384s-.768-.6-1.02-1.032-.372-.914-.372-1.446a2.75 2.75 0 0 1 .396-1.452 2.92 2.92 0 0 1 1.062-1.044c.444-.26.932-.39 1.464-.39zm0 .852c-.376 0-.718.092-1.026.276s-.554.424-.738.732-.27.65-.27 1.026.09.718.27 1.026.424.554.732.738.65.27 1.026.27.718-.09 1.026-.27a2.04 2.04 0 0 0 .738-.738c.184-.308.276-.65.276-1.026a1.95 1.95 0 0 0-.276-1.02c-.18-.308-.424-.554-.732-.738s-.65-.276-1.026-.276zm4.519 7.962v-1.026h1.026V173h-1.026z"/></g><rect x="52" y="103" width="24" height="24" rx="4" fill="#5755ff"/><path d="M64.716 114.276v.002l6.2.001a.28.28 0 0 0 .28-.28v-2.68a.28.28 0 0 0-.28-.28h-2.68a.28.28 0 0 1-.28-.28v-2.682a.28.28 0 0 0-.28-.28h-2.68a.28.28 0 0 0-.28.28v6.199zm-1.439 1.441h-6.2a.28.28 0 0 0-.28.28v2.679a.28.28 0 0 0 .28.28h2.68a.28.28 0 0 1 .28.28v2.68a.28.28 0 0 0 .28.28h2.68a.28.28 0 0 0 .28-.28v-6.199zm7.919.28a.28.28 0 0 0-.28-.28h-2.68a.28.28 0 0 0-.28.28v2.679a.28.28 0 0 0 .28.28h2.68a.28.28 0 0 0 .28-.28v-2.679zm-3.52 6.199a.28.28 0 0 0 .28-.28v-2.679a.28.28 0 0 0-.28-.28h-2.68a.28.28 0 0 0-.28.28v2.679a.28.28 0 0 0 .28.28h2.68z" class="B"/><path d="M40.98 68V57.92h3.962c.639 0 1.176.131 1.61.392s.761.6.98 1.015.329.845.329 1.302c0 .555-.138 1.031-.413 1.428s-.637.667-1.099.812l-.014-.343c.644.159 1.139.469 1.484.931s.518.992.518 1.603c0 .593-.119 1.108-.357 1.547s-.576.782-1.029 1.029-.992.364-1.631.364h-4.34zm1.484-1.393h2.632c.331 0 .628-.063.889-.189s.474-.306.623-.539.231-.52.231-.847c0-.303-.068-.576-.203-.819s-.322-.441-.574-.581-.539-.217-.875-.217h-2.723v3.192zm0-4.571h2.457c.271 0 .513-.054.728-.161s.392-.271.518-.476.196-.462.196-.756c0-.392-.131-.714-.392-.966s-.611-.378-1.05-.378h-2.457v2.737zm10.549 6.174c-.756 0-1.412-.17-1.967-.511s-.985-.81-1.288-1.407-.448-1.295-.448-2.079.154-1.482.462-2.079.74-1.069 1.295-1.4 1.204-.504 1.946-.504c.756 0 1.412.17 1.967.511s.985.81 1.288 1.407.455 1.286.455 2.065c0 .789-.154 1.484-.462 2.086s-.733 1.066-1.288 1.407-1.209.504-1.96.504zm0-1.379c.723 0 1.262-.243 1.617-.728s.539-1.12.539-1.89c0-.789-.182-1.419-.546-1.89s-.896-.714-1.61-.714c-.49 0-.894.112-1.211.336s-.553.525-.707.917-.231.838-.231 1.351c0 .793.182 1.428.546 1.904s.898.714 1.603.714zM62.587 68c-.476.093-.943.133-1.4.119s-.866-.103-1.225-.266a1.67 1.67 0 0 1-.812-.77 2.25 2.25 0 0 1-.266-.952l-.014-1.106V58.34h1.47v6.615l.007.791c.009.224.058.413.147.567.168.289.434.455.798.497s.8.021 1.295-.049V68zm-5.166-6.384V60.44h5.166v1.176h-5.166zm10.036-3.899c.649 0 1.234.156 1.757.469s.938.733 1.246 1.274.462 1.16.462 1.855v3.206c0 .737-.154 1.384-.462 1.939a3.25 3.25 0 0 1-1.274 1.288c-.541.308-1.167.462-1.876.462a3.75 3.75 0 0 1-1.498-.301 3.36 3.36 0 0 1-1.218-.896l1.078-1.001c.191.247.432.446.721.595s.595.224.917.224c.415 0 .782-.1 1.099-.301s.572-.462.749-.784.266-.667.266-1.036v-1.848l.294.322c-.289.378-.649.677-1.078.896a2.99 2.99 0 0 1-1.379.329c-.63 0-1.19-.145-1.68-.434s-.877-.684-1.162-1.183-.427-1.064-.427-1.694a3.16 3.16 0 0 1 .476-1.708 3.58 3.58 0 0 1 1.26-1.218c.523-.303 1.099-.455 1.729-.455zm0 1.414c-.364 0-.698.089-1.001.266s-.537.408-.714.707a1.91 1.91 0 0 0-.266.994c0 .364.089.698.266 1.001a2.01 2.01 0 0 0 .714.714 1.91 1.91 0 0 0 .994.266 1.91 1.91 0 0 0 .994-.266c.299-.177.537-.415.714-.714s.266-.637.266-1.001-.089-.688-.266-.987-.408-.537-.707-.714a1.91 1.91 0 0 0-.994-.266zM74.979 68l3.276-10.08h2.107L83.638 68h-1.519l-3.017-9.198h.378L76.498 68h-1.519zm1.701-2.275v-1.372h5.264v1.372H76.68zM85.034 68V57.92h1.463V68h-1.463zm5.668 0l3.276-10.08h2.107L99.361 68h-1.519l-3.017-9.198h.378L92.221 68h-1.519zm1.701-2.275v-1.372h5.264v1.372h-5.264zm11.105 2.478c-.92 0-1.669-.203-2.247-.609s-.934-.978-1.064-1.715l1.498-.231c.093.392.308.702.644.931s.763.336 1.267.336c.457 0 .814-.093 1.071-.28s.392-.443.392-.77c0-.191-.047-.345-.14-.462s-.278-.236-.567-.343-.731-.24-1.323-.399c-.649-.168-1.165-.348-1.547-.539s-.649-.422-.812-.679-.238-.576-.238-.945c0-.457.121-.856.364-1.197s.583-.604 1.022-.791.961-.28 1.554-.28c.578 0 1.094.091 1.547.273s.819.441 1.099.777a2.19 2.19 0 0 1 .504 1.169l-1.498.273c-.052-.364-.222-.651-.511-.861s-.665-.324-1.127-.343c-.444-.019-.803.056-1.078.224s-.413.39-.413.679c0 .168.051.31.154.427s.312.229.616.336.751.236 1.344.385c.634.163 1.138.345 1.512.546s.639.432.798.707.245.6.245.987c0 .747-.273 1.332-.819 1.757s-1.291.637-2.247.637zm7.506 0c-.92 0-1.669-.203-2.247-.609s-.934-.978-1.064-1.715l1.498-.231c.093.392.308.702.644.931s.763.336 1.267.336c.457 0 .814-.093 1.071-.28s.392-.443.392-.77c0-.191-.047-.345-.14-.462s-.278-.236-.567-.343-.731-.24-1.323-.399c-.649-.168-1.165-.348-1.547-.539s-.649-.422-.812-.679-.238-.576-.238-.945c0-.457.121-.856.364-1.197s.583-.604 1.022-.791.961-.28 1.554-.28c.578 0 1.094.091 1.547.273s.819.441 1.099.777a2.19 2.19 0 0 1 .504 1.169l-1.498.273c-.052-.364-.222-.651-.511-.861s-.665-.324-1.127-.343c-.444-.019-.803.056-1.078.224s-.413.39-.413.679c0 .168.051.31.154.427s.312.229.616.336.751.236 1.344.385c.634.163 1.138.345 1.512.546s.639.432.798.707.245.6.245.987c0 .747-.273 1.332-.819 1.757s-1.291.637-2.247.637zm4.754-9.002V57.78h1.463v1.421h-1.463zm0 8.799v-7.56h1.463V68h-1.463zm6.457.203c-.92 0-1.669-.203-2.247-.609s-.934-.978-1.064-1.715l1.498-.231c.093.392.308.702.644.931s.763.336 1.267.336c.457 0 .814-.093 1.071-.28s.392-.443.392-.77c0-.191-.047-.345-.14-.462s-.278-.236-.567-.343-.731-.24-1.323-.399c-.649-.168-1.165-.348-1.547-.539s-.649-.422-.812-.679-.238-.576-.238-.945c0-.457.121-.856.364-1.197s.583-.604 1.022-.791.961-.28 1.554-.28c.578 0 1.094.091 1.547.273s.819.441 1.099.777a2.19 2.19 0 0 1 .504 1.169l-1.498.273c-.052-.364-.222-.651-.511-.861s-.665-.324-1.127-.343c-.444-.019-.803.056-1.078.224s-.413.39-.413.679c0 .168.051.31.154.427s.312.229.616.336.751.236 1.344.385c.634.163 1.138.345 1.512.546s.639.432.798.707.245.6.245.987c0 .747-.273 1.332-.819 1.757s-1.291.637-2.247.637zm8.94-.203c-.476.093-.942.133-1.4.119s-.865-.103-1.225-.266a1.67 1.67 0 0 1-.812-.77c-.163-.313-.252-.63-.266-.952l-.014-1.106V58.34h1.47v6.615l.007.791c.01.224.059.413.147.567.168.289.434.455.798.497s.801.021 1.295-.049V68zm-5.166-6.384V60.44h5.166v1.176h-5.166zm8.895 6.594c-.56 0-1.029-.103-1.407-.308s-.665-.485-.861-.826-.287-.723-.287-1.134a2.36 2.36 0 0 1 .203-1.008 1.95 1.95 0 0 1 .602-.735c.266-.205.593-.371.98-.497a10.79 10.79 0 0 1 1.141-.259l1.337-.21 1.4-.196-.532.294c.01-.593-.116-1.031-.378-1.316-.256-.289-.7-.434-1.33-.434a2.19 2.19 0 0 0-1.092.28c-.331.182-.562.485-.693.91l-1.365-.42c.187-.649.542-1.164 1.064-1.547.528-.383 1.228-.574 2.1-.574.677 0 1.265.117 1.764.35.504.229.873.593 1.106 1.092a2.28 2.28 0 0 1 .224.784 8.81 8.81 0 0 1 .042.889V68h-1.295v-1.729l.252.224c-.312.579-.711 1.01-1.197 1.295-.48.28-1.073.42-1.778.42zm.259-1.197c.416 0 .773-.072 1.071-.217s.539-.338.721-.567.301-.467.357-.714c.08-.224.124-.476.133-.756l.021-.672.476.175-1.26.189-1.029.168c-.303.051-.574.114-.812.189-.2.07-.38.154-.539.252s-.277.217-.371.357c-.088.14-.133.31-.133.511s.049.378.147.546.248.294.448.392.458.147.77.147zm10.883.987v-3.717c0-.294-.026-.595-.077-.903s-.14-.602-.28-.868a1.64 1.64 0 0 0-.581-.644c-.247-.163-.572-.245-.973-.245a2.07 2.07 0 0 0-.742.133c-.233.084-.439.222-.616.413s-.31.443-.413.756-.147.693-.147 1.141l-.91-.343c0-.686.128-1.29.385-1.813s.625-.938 1.106-1.232 1.062-.441 1.743-.441c.523 0 .961.084 1.316.252s.642.39.861.665.394.567.511.889.196.637.238.945a6.1 6.1 0 0 1 .063.812V68h-1.484zm-5.313 0v-7.56h1.309v2.184h.175V68h-1.484zm12.946 0c-.476.093-.942.133-1.4.119s-.865-.103-1.225-.266a1.67 1.67 0 0 1-.812-.77c-.163-.313-.252-.63-.266-.952l-.014-1.106V58.34h1.47v6.615l.007.791c.01.224.059.413.147.567.168.289.434.455.798.497s.801.021 1.295-.049V68zm-5.166-6.384V60.44h5.166v1.176h-5.166z" fill="#101928"/><defs><filter id="A" x="121.966" y=".323" width="162.108" height="135.92" filterUnits="userSpaceOnUse" class="C"><feFlood result="A" class="D"/><feColorMatrix in="SourceAlpha" values="0 0 0 0 0 0 0 0 0 0 0 0 0 0 0 0 0 0 127 0" result="B"/><feMorphology radius="3" in="SourceAlpha"/><feOffset dy="16"/><feGaussianBlur stdDeviation="24"/><feComposite in2="B" operator="out"/><feColorMatrix values="0 0 0 0 0.341176 0 0 0 0 0.333333 0 0 0 0 1 0 0 0 0.08 0"/><feBlend in2="A"/><feBlend in="SourceGraphic"/></filter><filter id="B" x=".511" y="106.345" width="119.473" height="168.378" filterUnits="userSpaceOnUse" class="C"><feFlood result="A" class="D"/><feColorMatrix in="SourceAlpha" values="0 0 0 0 0 0 0 0 0 0 0 0 0 0 0 0 0 0 127 0" result="B"/><feMorphology radius="3" in="SourceAlpha"/><feOffset dy="16"/><feGaussianBlur stdDeviation="24"/><feComposite in2="B" operator="out"/><feColorMatrix values="0 0 0 0 0.341176 0 0 0 0 0.333333 0 0 0 0 1 0 0 0 0.08 0"/><feBlend in2="A"/><feBlend in="SourceGraphic"/></filter><filter id="C" x="283.369" y="129.688" width="133.175" height="160.752" filterUnits="userSpaceOnUse" class="C"><feFlood result="A" class="D"/><feColorMatrix in="SourceAlpha" values="0 0 0 0 0 0 0 0 0 0 0 0 0 0 0 0 0 0 127 0" result="B"/><feMorphology radius="3" in="SourceAlpha"/><feOffset dy="16"/><feGaussianBlur stdDeviation="24"/><feComposite in2="B" operator="out"/><feColorMatrix values="0 0 0 0 0.341176 0 0 0 0 0.333333 0 0 0 0 1 0 0 0 0.08 0"/><feBlend in2="A"/><feBlend in="SourceGraphic"/></filter><linearGradient id="D" x1="278" y1="39" x2="278" y2="371" href="#H"><stop stop-color="#e4e7ec"/><stop offset="1" stop-color="#fff"/></linearGradient><linearGradient id="E" x1="170.613" y1="44.634" x2="233.64" y2="55.748" href="#H"><stop stop-color="#101928"/><stop offset="1" stop-color="#fff"/></linearGradient><linearGradient id="F" x1="77.52" y1="143.919" x2="50.472" y2="201.922" href="#H"><stop stop-color="#101928"/><stop offset="1" stop-color="#fff"/></linearGradient><linearGradient id="G" x1="320.84" y1="178.246" x2="378.844" y2="205.293" href="#H"><stop stop-color="#101928"/><stop offset="1" stop-color="#fff"/></linearGradient><linearGradient id="H" gradientUnits="userSpaceOnUse"/></defs></svg>