<svg xmlns="http://www.w3.org/2000/svg" width="142" height="50" fill="none" xmlns:v="https://vecta.io/nano"><g fill="#fff"><rect x=".5" y=".5" width="141" height="49" rx="6.5" stroke="url(#A)"/><rect x="13" y="5" width="40" height="40" rx="8"/></g><path d="M41.656 16.874c2.811 4.262 4.199 9.069 3.68 14.603-.002.023-.014.045-.033.059-2.129 1.612-4.191 2.59-6.224 3.239-.016.005-.033.005-.048-.001a.08.08 0 0 1-.039-.03c-.47-.674-.897-1.385-1.27-2.131-.022-.044-.002-.097.042-.114a12.55 12.55 0 0 0 1.943-.953c.049-.029.052-.102.007-.136-.132-.101-.262-.207-.387-.312-.023-.02-.055-.023-.081-.01-4.025 1.917-8.435 1.917-12.508 0-.026-.012-.058-.008-.081.011a10.69 10.69 0 0 1-.386.311c-.045.035-.041.107.008.136.62.367 1.265.689 1.942.954.044.017.065.069.043.113-.366.747-.793 1.458-1.271 2.132-.021.027-.055.04-.087.029a20.4 20.4 0 0 1-6.215-3.239c-.018-.014-.03-.037-.032-.06-.434-4.787.45-9.634 3.677-14.603.008-.013.02-.023.033-.029a20.03 20.03 0 0 1 5.066-1.62c.032-.005.065.01.081.04a13.78 13.78 0 0 1 .641 1.335c1.874-.295 3.777-.295 5.69 0a14.98 14.98 0 0 1 .631-1.335c.008-.015.02-.026.035-.034s.031-.009.047-.006c1.779.317 3.479.869 5.066 1.62.014.006.026.016.032.03zm-10.548 9.101c.02-1.415-.981-2.586-2.237-2.586-1.246 0-2.237 1.161-2.237 2.586s1.011 2.586 2.237 2.586c1.246 0 2.237-1.161 2.237-2.586zm8.27 0c.02-1.415-.981-2.586-2.236-2.586-1.246 0-2.237 1.161-2.237 2.586s1.011 2.586 2.237 2.586c1.256 0 2.236-1.161 2.236-2.586z" fill="#5865f2"/><path d="M57.98 30V19.92h3.108l.539.007a6.1 6.1 0 0 1 .735.056c.779.103 1.43.387 1.953.854s.924 1.05 1.19 1.764.399 1.5.399 2.359-.133 1.645-.399 2.359-.663 1.304-1.19 1.771-1.174.744-1.953.847l-.742.056-.532.007H57.98zm1.281-1.19h1.827l.595-.014.574-.063c.551-.103.996-.334 1.337-.693s.59-.807.749-1.344.238-1.115.238-1.736c0-.635-.082-1.22-.245-1.757s-.408-.982-.749-1.337-.784-.581-1.33-.679c-.163-.033-.357-.054-.581-.063l-.588-.014h-1.827v7.7zm8.388-7.707v-1.288h1.246v1.288h-1.246zm0 8.897v-7.56h1.246V30h-1.246zm6.202.203c-.901 0-1.64-.196-2.219-.588a2.48 2.48 0 0 1-1.057-1.659l1.274-.203c.103.411.338.737.707.98s.826.357 1.372.357c.518 0 .924-.107 1.218-.322s.441-.506.441-.875c0-.215-.049-.387-.147-.518s-.301-.261-.609-.378-.763-.257-1.379-.42c-.667-.177-1.192-.362-1.575-.553s-.656-.413-.819-.665-.245-.558-.245-.917c0-.443.121-.831.364-1.162s.581-.595 1.015-.777.947-.273 1.526-.273 1.087.091 1.54.273.817.441 1.092.777a2.14 2.14 0 0 1 .497 1.162l-1.274.231c-.061-.406-.257-.726-.588-.959s-.749-.357-1.267-.371c-.49-.019-.889.068-1.197.259s-.455.45-.455.777c0 .182.056.338.168.469s.329.254.637.371.765.25 1.358.399c.667.168 1.192.352 1.575.553s.663.429.826.7.245.595.245.987c0 .728-.268 1.302-.805 1.722s-1.276.623-2.219.623zm7.753.007c-.765 0-1.416-.17-1.953-.511s-.938-.819-1.218-1.421-.425-1.288-.434-2.058c.009-.789.156-1.482.441-2.079s.702-1.071 1.239-1.407 1.183-.504 1.939-.504c.798 0 1.484.196 2.058.588a2.83 2.83 0 0 1 1.162 1.61l-1.232.371c-.159-.439-.418-.779-.777-1.022s-.763-.364-1.225-.364c-.518 0-.945.121-1.281.364s-.586.569-.749.994-.247.903-.252 1.449c.009.84.203 1.519.581 2.037s.95.77 1.701.77c.495 0 .905-.112 1.232-.336s.574-.558.742-.987l1.26.329c-.261.705-.67 1.244-1.225 1.617s-1.225.56-2.009.56zm7.677 0c-.751 0-1.4-.17-1.946-.511s-.959-.812-1.253-1.414-.441-1.293-.441-2.072c0-.793.149-1.489.448-2.086s.721-1.062 1.267-1.393 1.188-.504 1.925-.504c.756 0 1.407.17 1.953.511s.964.805 1.253 1.407.441 1.286.441 2.065c0 .789-.147 1.484-.441 2.086a3.38 3.38 0 0 1-1.26 1.407c-.546.336-1.195.504-1.946.504zm0-1.183c.784 0 1.367-.261 1.75-.784s.574-1.199.574-2.03c0-.854-.194-1.533-.581-2.037s-.968-.763-1.743-.763c-.527 0-.961.119-1.302.357s-.595.567-.763.987-.252.905-.252 1.456c0 .849.196 1.531.588 2.044s.968.77 1.729.77zM94.47 30v-7.56h1.113v1.827l-.182-.238c.089-.233.203-.448.343-.644s.306-.357.483-.483a2.14 2.14 0 0 1 .665-.364 2.82 2.82 0 0 1 .756-.147c.257-.019.497-.002.721.049v1.169a2.36 2.36 0 0 0-.861-.056 1.75 1.75 0 0 0-.868.343 1.87 1.87 0 0 0-.567.63 2.74 2.74 0 0 0-.273.805c-.051.285-.077.576-.077.875V30H94.47zm8.054.21c-.704 0-1.309-.175-1.813-.525s-.894-.833-1.169-1.435-.406-1.281-.406-2.037.135-1.435.406-2.037.665-1.076 1.169-1.421 1.106-.525 1.806-.525c.714 0 1.314.173 1.799.518s.852.819 1.099 1.421.378 1.283.378 2.044c0 .751-.126 1.43-.378 2.037s-.613 1.08-1.099 1.435-1.082.525-1.792.525zm.154-1.141c.509 0 .927-.121 1.253-.364s.567-.586.721-1.015c.159-.434.238-.926.238-1.477 0-.56-.079-1.052-.238-1.477-.154-.429-.392-.763-.714-1.001s-.73-.364-1.225-.364c-.513 0-.938.126-1.274.378-.331.252-.578.593-.742 1.022-.158.429-.238.91-.238 1.442s.082 1.022.245 1.456.409.77.735 1.022c.332.252.745.378 1.239.378zm2.212.931v-5.565h-.14V19.92h1.253V30h-1.113z" fill="#475367"/><defs><linearGradient id="A" x1="71" y1="1" x2="71" y2="49" gradientUnits="userSpaceOnUse"><stop stop-color="#e4e7ec"/><stop offset="1" stop-color="#fff"/></linearGradient></defs></svg>