<svg width="40" height="40" viewBox="0 0 40 40" fill="none" xmlns="http://www.w3.org/2000/svg">
<rect width="40" height="40" rx="8" fill="white"/>
<path d="M28.6563 11.8743C31.4672 16.1359 32.8554 20.943 32.3364 26.477C32.3342 26.5004 32.3224 26.5219 32.3038 26.536C30.1751 28.1478 28.1128 29.126 26.0794 29.7746C26.0635 29.7796 26.0466 29.7793 26.0309 29.7739C26.0152 29.7684 26.0016 29.758 25.9919 29.7442C25.5222 29.0701 25.0953 28.3595 24.7214 27.6133C24.6999 27.5694 24.7195 27.5164 24.7637 27.4991C25.4416 27.2357 26.0862 26.9201 26.7063 26.5463C26.7551 26.5168 26.7582 26.4446 26.7131 26.41C26.5815 26.3092 26.4511 26.2034 26.3264 26.0975C26.3031 26.0779 26.2716 26.0741 26.2452 26.0872C22.2197 28.0041 17.81 28.0041 13.737 26.0872C13.7105 26.075 13.6791 26.0792 13.6564 26.0985C13.532 26.2043 13.4013 26.3092 13.2709 26.41C13.2258 26.4446 13.2296 26.5168 13.2787 26.5463C13.8988 26.913 14.5434 27.2357 15.2204 27.5004C15.2642 27.5177 15.2851 27.5694 15.2633 27.6133C14.8974 28.3605 14.4706 29.0711 13.9921 29.7451C13.9713 29.7724 13.937 29.7849 13.9047 29.7746C11.8809 29.126 9.81855 28.1478 7.68993 26.536C7.67219 26.5219 7.65944 26.4995 7.65757 26.476C7.22388 21.6892 8.10775 16.8424 11.3343 11.8733C11.3421 11.8602 11.3539 11.8499 11.3676 11.8438C12.9552 11.0924 14.656 10.5397 16.4337 10.224C16.466 10.2189 16.4984 10.2343 16.5152 10.2638C16.7348 10.6648 16.9859 11.1791 17.1558 11.5993C19.0296 11.3042 20.9327 11.3042 22.8457 11.5993C23.0155 11.1881 23.2579 10.6648 23.4766 10.2638C23.4844 10.2491 23.4965 10.2374 23.5111 10.2303C23.5258 10.2231 23.5422 10.2209 23.5581 10.224C25.3367 10.5407 27.0376 11.0934 28.6239 11.8438C28.6379 11.8499 28.6494 11.8602 28.6563 11.8743ZM18.1084 20.9757C18.128 19.5606 17.1275 18.3896 15.8715 18.3896C14.6258 18.3896 13.6349 19.5503 13.6349 20.9757C13.6349 22.4008 14.6454 23.5615 15.8715 23.5615C17.1175 23.5615 18.1084 22.4008 18.1084 20.9757ZM26.3783 20.9757C26.3979 19.5606 25.3974 18.3896 24.1418 18.3896C22.8958 18.3896 21.9049 19.5503 21.9049 20.9757C21.9049 22.4008 22.9154 23.5615 24.1418 23.5615C25.3974 23.5615 26.3783 22.4008 26.3783 20.9757Z" fill="#5865F2"/>
</svg>
