<svg xmlns="http://www.w3.org/2000/svg" width="228" height="164" fill="none" xmlns:v="https://vecta.io/nano"><g filter="url(#B)"><rect x="12" y="2" width="204" height="140" rx="6" fill="#fff"/></g><path d="M30.212 73.18c-.66 0-1.244-.136-1.752-.408a2.99 2.99 0 0 1-1.188-1.152c-.288-.496-.432-1.076-.432-1.74v-5.514l.888-.006v5.406c0 .448.076.836.228 1.164s.35.592.594.804a2.53 2.53 0 0 0 .81.462c.292.1.576.15.852.15a2.64 2.64 0 0 0 .858-.15 2.46 2.46 0 0 0 .804-.462c.244-.212.442-.48.594-.804s.228-.716.228-1.164V64.36h.888v5.52c0 .664-.144 1.244-.432 1.74s-.686.876-1.194 1.152-1.086.408-1.746.408zm7.964 0c-.596 0-1.1-.15-1.512-.45s-.724-.714-.936-1.23-.318-1.102-.318-1.746c0-.656.106-1.24.318-1.752s.532-.922.948-1.218.928-.444 1.536-.444c.592 0 1.1.15 1.524.45s.748.708.972 1.224.342 1.096.342 1.74-.114 1.23-.342 1.746-.556.926-.984 1.23-.944.45-1.548.45zm-2.916 2.7v-9.36h.792v4.878h.096v4.482h-.888zm2.826-3.522c.452 0 .828-.114 1.128-.342a2.04 2.04 0 0 0 .672-.93c.152-.396.228-.84.228-1.332s-.074-.928-.222-1.32-.374-.702-.678-.93-.682-.342-1.146-.342c-.452 0-.828.11-1.128.33s-.518.526-.666.918-.222.836-.222 1.344c0 .5.074.948.222 1.344s.372.7.672.924.68.336 1.14.336zm4.401.642v-8.82h.882V73h-.882zm5.387.18c-.644 0-1.194-.146-1.65-.438a2.85 2.85 0 0 1-1.05-1.212c-.244-.516-.366-1.108-.366-1.776 0-.68.124-1.276.372-1.788s.6-.91 1.056-1.194 1.006-.432 1.638-.432c.648 0 1.2.146 1.656.438s.81.69 1.05 1.206.366 1.102.366 1.77c0 .68-.122 1.278-.366 1.794s-.596.912-1.056 1.2-1.01.432-1.65.432zm0-.846c.72 0 1.256-.238 1.608-.714s.528-1.102.528-1.866c0-.784-.178-1.408-.534-1.872s-.886-.696-1.602-.696c-.484 0-.884.11-1.2.33s-.546.518-.702.906-.228.828-.228 1.332c0 .78.18 1.406.54 1.878s.89.702 1.59.702zm6.25.846c-.488 0-.898-.088-1.23-.264a1.79 1.79 0 0 1-.738-.702c-.164-.292-.246-.61-.246-.954 0-.352.07-.652.21-.9s.338-.458.582-.618.534-.282.858-.366l1.086-.21 1.17-.162 1.008-.138-.312.192c.012-.64-.112-1.114-.372-1.422s-.712-.462-1.356-.462c-.444 0-.82.1-1.128.3s-.518.516-.642.948l-.858-.252c.148-.58.446-1.03.894-1.35s1.03-.48 1.746-.48c.592 0 1.094.112 1.506.336s.71.54.882.96c.08.188.132.398.156.63s.036.468.036.708V73h-.786v-1.626l.228.096c-.22.556-.562.98-1.026 1.272s-1.02.438-1.668.438zm.102-.762c.412 0 .772-.074 1.08-.222s.556-.35.744-.606a2.08 2.08 0 0 0 .366-.876 3.28 3.28 0 0 0 .078-.684l.006-.564.336.174-.978.12-1.032.138-.912.186c-.184.052-.362.126-.534.222s-.314.216-.426.372-.162.35-.162.582c0 .188.046.37.138.546s.248.322.456.438.492.174.84.174zm7.226.762c-.604 0-1.12-.15-1.548-.45s-.756-.714-.984-1.23-.342-1.098-.342-1.746.112-1.224.336-1.74.554-.924.978-1.224.932-.45 1.524-.45c.608 0 1.12.148 1.536.444s.73.702.942 1.218.324 1.096.324 1.752c0 .644-.106 1.226-.318 1.746s-.524.926-.936 1.23-.916.45-1.512.45zm.09-.822c.46 0 .84-.112 1.14-.336s.524-.532.672-.924.222-.844.222-1.344c0-.508-.074-.956-.222-1.344s-.372-.698-.672-.918-.67-.33-1.122-.33c-.464 0-.848.114-1.152.342s-.53.538-.678.93-.216.832-.216 1.32.074.936.222 1.332a2.08 2.08 0 0 0 .678.93c.3.228.676.342 1.128.342zm2.034.642v-4.878h-.096V64.36h.888V73h-.792zm6.732.18c-.488 0-.898-.088-1.23-.264a1.79 1.79 0 0 1-.738-.702c-.164-.292-.246-.61-.246-.954 0-.352.07-.652.21-.9s.338-.458.582-.618.534-.282.858-.366l1.086-.21 1.17-.162 1.008-.138-.312.192c.012-.64-.112-1.114-.372-1.422s-.712-.462-1.356-.462c-.444 0-.82.1-1.128.3s-.518.516-.642.948l-.858-.252c.148-.58.446-1.03.894-1.35s1.03-.48 1.746-.48c.592 0 1.094.112 1.506.336s.71.54.882.96c.08.188.132.398.156.63s.036.468.036.708V73h-.786v-1.626l.228.096c-.22.556-.562.98-1.026 1.272s-1.02.438-1.668.438zm.102-.762c.412 0 .772-.074 1.08-.222s.556-.35.744-.606a2.08 2.08 0 0 0 .366-.876 3.28 3.28 0 0 0 .078-.684l.006-.564.336.174-.978.12-1.032.138-.912.186c-.184.052-.362.126-.534.222s-.314.216-.426.372-.162.35-.162.582c0 .188.046.37.138.546s.248.322.456.438.492.174.84.174zm7.114.582v-8.64h3.336l.282.012a2.23 2.23 0 0 1 .324.036 2.37 2.37 0 0 1 1.146.474 2.29 2.29 0 0 1 .714.924 3.03 3.03 0 0 1 .246 1.236c0 .448-.082.858-.246 1.23a2.39 2.39 0 0 1-.72.93c-.312.244-.692.4-1.14.468l-.324.036-.282.012h-2.454V73h-.882zm.882-4.122h2.43l.252-.012c.096-.008.19-.022.282-.042.296-.064.538-.186.726-.366a1.66 1.66 0 0 0 .426-.642c.096-.248.144-.506.144-.774s-.048-.526-.144-.774a1.65 1.65 0 0 0-.426-.648c-.188-.18-.43-.302-.726-.366a1.65 1.65 0 0 0-.282-.036l-.252-.012h-2.43v3.672zM84.766 73v-8.64h2.622l.468.006c.224.004.438.02.642.048.656.092 1.204.336 1.644.732s.77.9.99 1.512.33 1.286.33 2.022-.11 1.41-.33 2.022-.55 1.116-.99 1.512-.988.64-1.644.732l-.642.048-.468.006h-2.622zm.912-.846h1.71l.528-.012c.192-.012.356-.032.492-.06.504-.088.91-.292 1.218-.612s.54-.72.684-1.2.216-1.014.216-1.59a5.58 5.58 0 0 0-.216-1.596c-.144-.484-.372-.884-.684-1.2s-.718-.518-1.218-.606c-.136-.028-.302-.046-.498-.054l-.522-.018h-1.71v6.948zm7.15.846v-8.64h4.962v.882h-4.08v3h3.36v.876h-3.36V73h-.882zm11.156.18c-.644 0-1.194-.146-1.65-.438a2.85 2.85 0 0 1-1.05-1.212c-.244-.516-.366-1.108-.366-1.776 0-.68.124-1.276.372-1.788s.6-.91 1.056-1.194 1.006-.432 1.638-.432c.648 0 1.2.146 1.656.438s.81.69 1.05 1.206.366 1.102.366 1.77c0 .68-.122 1.278-.366 1.794s-.596.912-1.056 1.2-1.01.432-1.65.432zm0-.846c.72 0 1.256-.238 1.608-.714s.528-1.102.528-1.866c0-.784-.178-1.408-.534-1.872s-.886-.696-1.602-.696c-.484 0-.884.11-1.2.33s-.546.518-.702.906-.228.828-.228 1.332c0 .78.18 1.406.54 1.878s.89.702 1.59.702zm4.395.666v-6.48h.792v1.56l-.156-.204c.072-.192.166-.368.282-.528a1.83 1.83 0 0 1 .378-.402 1.71 1.71 0 0 1 .588-.336 2.38 2.38 0 0 1 .678-.138 1.96 1.96 0 0 1 .624.048v.828a2.14 2.14 0 0 0-.774-.042c-.28.032-.538.144-.774.336a1.61 1.61 0 0 0-.486.606c-.108.232-.18.48-.216.744a5.64 5.64 0 0 0-.054.774V73h-.882zm10.225.18c-.86 0-1.586-.19-2.178-.57s-1.04-.914-1.344-1.59-.456-1.456-.456-2.34.152-1.664.456-2.34.752-1.204 1.344-1.584 1.318-.576 2.178-.576c1.004 0 1.824.258 2.46.774s1.072 1.2 1.308 2.064l-.9.234c-.184-.684-.514-1.226-.99-1.626s-1.102-.6-1.878-.6c-.676 0-1.238.154-1.686.462s-.786.738-1.014 1.29-.34 1.182-.348 1.902.106 1.354.33 1.902.568.978 1.02 1.29 1.022.462 1.698.462c.776 0 1.402-.2 1.878-.6s.806-.946.99-1.626l.9.234c-.236.864-.672 1.554-1.308 2.07s-1.456.768-2.46.768zm8.455 0c-.604 0-1.148-.1-1.632-.3a3.16 3.16 0 0 1-1.194-.864c-.312-.372-.516-.814-.612-1.326l.9-.15a2.22 2.22 0 0 0 .912 1.32c.464.316 1.018.474 1.662.474.424 0 .804-.066 1.14-.198s.6-.328.792-.576.288-.542.288-.882c0-.224-.04-.414-.12-.57a1.15 1.15 0 0 0-.318-.396 1.96 1.96 0 0 0-.432-.258 3.41 3.41 0 0 0-.456-.174l-2.19-.654c-.264-.076-.508-.172-.732-.288s-.42-.262-.588-.426-.292-.364-.384-.588-.138-.48-.138-.768c0-.488.128-.91.384-1.266s.606-.63 1.05-.822.95-.286 1.518-.282c.576 0 1.09.102 1.542.306a2.91 2.91 0 0 1 1.128.876c.296.376.492.822.588 1.338l-.924.168c-.06-.376-.198-.702-.414-.978s-.492-.488-.828-.636-.698-.23-1.098-.234c-.388 0-.734.066-1.038.198s-.538.304-.714.528a1.21 1.21 0 0 0-.264.768c0 .292.08.526.24.702a1.73 1.73 0 0 0 .6.414 6.35 6.35 0 0 0 .696.246l1.692.498c.176.048.382.118.618.21a2.72 2.72 0 0 1 .696.384c.228.164.416.38.564.648s.222.608.222 1.02c0 .4-.08.758-.24 1.074a2.21 2.21 0 0 1-.666.798c-.284.216-.618.38-1.002.492s-.796.174-1.248.174zm6.356-.18l-2.976-8.64h.918l2.634 7.638 2.652-7.638h.918L134.585 73h-1.17zm10.154.18c-.644 0-1.194-.146-1.65-.438a2.85 2.85 0 0 1-1.05-1.212c-.244-.516-.366-1.108-.366-1.776 0-.68.124-1.276.372-1.788s.6-.91 1.056-1.194 1.006-.432 1.638-.432c.648 0 1.2.146 1.656.438s.81.69 1.05 1.206.366 1.102.366 1.77c0 .68-.122 1.278-.366 1.794s-.596.912-1.056 1.2-1.01.432-1.65.432zm0-.846c.72 0 1.256-.238 1.608-.714s.528-1.102.528-1.866c0-.784-.178-1.408-.534-1.872s-.886-.696-1.602-.696c-.484 0-.884.11-1.2.33s-.546.518-.702.906-.228.828-.228 1.332c0 .78.18 1.406.54 1.878s.89.702 1.59.702zm5.038.666v-6.96l.024-.498a2 2 0 0 1 .114-.468c.056-.152.144-.292.264-.42.132-.144.276-.248.432-.312a1.72 1.72 0 0 1 .486-.132c.172-.02.34-.03.504-.03h.828v.744h-.768c-.336 0-.588.082-.756.246s-.246.422-.246.774V73h-.882zm-1.122-5.724v-.756h3.774v.756h-3.774zm8.06 8.604l1.254-3.402.018 1.008-2.838-6.966h.936l2.328 5.826h-.384l2.148-5.826h.9l-3.48 9.36h-.882zm7.876-2.7c-.644 0-1.194-.146-1.65-.438a2.85 2.85 0 0 1-1.05-1.212c-.244-.516-.366-1.108-.366-1.776 0-.68.124-1.276.372-1.788s.6-.91 1.056-1.194 1.006-.432 1.638-.432c.648 0 1.2.146 1.656.438s.81.69 1.05 1.206.366 1.102.366 1.77c0 .68-.122 1.278-.366 1.794s-.596.912-1.056 1.2-1.01.432-1.65.432zm0-.846c.72 0 1.256-.238 1.608-.714s.528-1.102.528-1.866c0-.784-.178-1.408-.534-1.872s-.886-.696-1.602-.696c-.484 0-.884.11-1.2.33s-.546.518-.702.906-.228.828-.228 1.332c0 .78.18 1.406.54 1.878s.89.702 1.59.702zm6.874.828c-.388 0-.728-.06-1.02-.18s-.534-.282-.738-.486-.362-.436-.486-.696-.214-.542-.27-.834-.084-.59-.084-.882V66.52h.888v3.306c0 .356.034.686.102.99s.176.57.324.798.346.398.582.522.53.186.87.186c.312 0 .586-.054.822-.162s.44-.262.6-.462.288-.45.372-.738.126-.62.126-.984l.624.138c0 .664-.116 1.222-.348 1.674s-.552.794-.96 1.026a2.79 2.79 0 0 1-1.404.348zm2.178-.162v-1.596h-.09V66.52h.882V73h-.792zm2.469 0v-6.48h.792v1.56l-.156-.204c.072-.192.166-.368.282-.528a1.83 1.83 0 0 1 .378-.402 1.71 1.71 0 0 1 .588-.336 2.38 2.38 0 0 1 .678-.138 1.96 1.96 0 0 1 .624.048v.828a2.14 2.14 0 0 0-.774-.042c-.28.032-.538.144-.774.336a1.61 1.61 0 0 0-.486.606c-.108.232-.18.48-.216.744a5.64 5.64 0 0 0-.054.774V73h-.882zM29.528 93.18c-.652 0-1.204-.146-1.656-.438a2.79 2.79 0 0 1-1.032-1.206c-.232-.516-.352-1.108-.36-1.776.008-.68.132-1.276.372-1.788s.586-.916 1.038-1.2 1-.432 1.644-.432c.656 0 1.226.16 1.71.48a2.42 2.42 0 0 1 1.002 1.314l-.864.276c-.152-.388-.394-.688-.726-.9s-.704-.324-1.128-.324c-.476 0-.87.11-1.182.33a1.92 1.92 0 0 0-.696.906c-.152.388-.23.834-.234 1.338.008.776.188 1.4.54 1.872s.876.702 1.572.702c.44 0 .814-.1 1.122-.3s.548-.5.708-.888l.888.264c-.24.576-.592 1.016-1.056 1.32s-1.018.45-1.662.45zm6.487 0c-.644 0-1.194-.146-1.65-.438a2.85 2.85 0 0 1-1.05-1.212c-.244-.516-.366-1.108-.366-1.776 0-.68.124-1.276.372-1.788s.6-.91 1.056-1.194 1.006-.432 1.638-.432c.648 0 1.2.146 1.656.438s.81.69 1.05 1.206.366 1.102.366 1.77c0 .68-.122 1.278-.366 1.794s-.596.912-1.056 1.2-1.01.432-1.65.432zm0-.846c.72 0 1.256-.238 1.608-.714s.528-1.102.528-1.866c0-.784-.178-1.408-.534-1.872s-.886-.696-1.602-.696c-.484 0-.884.11-1.2.33s-.546.518-.702.906-.228.828-.228 1.332c0 .78.18 1.406.54 1.878s.89.702 1.59.702zM45.09 93v-3.306a4.48 4.48 0 0 0-.102-.99c-.068-.304-.178-.568-.33-.792a1.51 1.51 0 0 0-.582-.528c-.236-.124-.524-.186-.864-.186-.312 0-.588.054-.828.162a1.63 1.63 0 0 0-.6.468c-.16.2-.282.444-.366.732s-.126.616-.126.984l-.624-.138c0-.664.116-1.222.348-1.674s.552-.794.96-1.026a2.79 2.79 0 0 1 1.404-.348c.388 0 .726.06 1.014.18s.538.282.738.486a2.47 2.47 0 0 1 .492.702c.124.26.214.538.27.834a4.64 4.64 0 0 1 .084.876V93h-.888zm-4.686 0v-6.48h.798v1.596h.09V93h-.888zm10.659 0a4.32 4.32 0 0 1-1.08.09c-.352-.016-.668-.092-.948-.228s-.486-.348-.63-.636a1.87 1.87 0 0 1-.192-.726l-.012-.846V84.72h.876v5.898l.006.684c.008.18.05.34.126.48.144.268.372.428.684.48s.706.04 1.17-.036V93zm-4.248-5.724v-.756h4.248v.756h-4.248zm8.032 5.904c-.632 0-1.18-.14-1.644-.42a2.85 2.85 0 0 1-1.074-1.182c-.256-.508-.384-1.104-.384-1.788 0-.708.126-1.32.378-1.836s.606-.914 1.062-1.194 1.002-.42 1.626-.42c.64 0 1.186.148 1.638.444s.794.712 1.026 1.26.338 1.202.318 1.962h-.9v-.312c-.016-.84-.198-1.474-.546-1.902s-.848-.642-1.512-.642c-.696 0-1.23.226-1.602.678s-.552 1.096-.552 1.932c0 .816.184 1.45.552 1.902s.898.672 1.578.672c.464 0 .868-.106 1.212-.318s.622-.526.822-.93l.822.318c-.256.564-.634 1.002-1.134 1.314a3.13 3.13 0 0 1-1.686.462zm-2.478-3.174v-.738h4.95v.738h-4.95zM63.629 93v-3.306a4.48 4.48 0 0 0-.102-.99c-.068-.304-.178-.568-.33-.792a1.51 1.51 0 0 0-.582-.528c-.236-.124-.524-.186-.864-.186-.312 0-.588.054-.828.162a1.63 1.63 0 0 0-.6.468c-.16.2-.282.444-.366.732s-.126.616-.126.984l-.624-.138c0-.664.116-1.222.348-1.674s.552-.794.96-1.026a2.79 2.79 0 0 1 1.404-.348c.388 0 .726.06 1.014.18s.538.282.738.486a2.47 2.47 0 0 1 .492.702c.124.26.214.538.27.834a4.64 4.64 0 0 1 .084.876V93h-.888zm-4.686 0v-6.48h.798v1.596h.09V93h-.888zm10.659 0a4.32 4.32 0 0 1-1.08.09c-.352-.016-.668-.092-.948-.228s-.486-.348-.63-.636a1.87 1.87 0 0 1-.192-.726l-.012-.846V84.72h.876v5.898l.006.684c.008.18.05.34.126.48.144.268.372.428.684.48s.706.04 1.17-.036V93zm-4.248-5.724v-.756h4.248v.756h-4.248zM71.047 93v-1.026h1.026V93h-1.026z" fill="#667185"/><path d="M66.98 35V24.92h5.971v1.463h-4.508v2.842h3.668v1.47h-3.668V35H66.98zm7.372-8.799V24.78h1.463v1.421h-1.463zm0 8.799v-7.56h1.463V35h-1.463zm3.705 0V24.71h1.463V35h-1.463zm6.918.21c-.751 0-1.412-.163-1.981-.49s-1.006-.791-1.323-1.379-.469-1.279-.469-2.058c0-.826.154-1.542.462-2.149a3.42 3.42 0 0 1 1.302-1.407c.555-.331 1.202-.497 1.939-.497.77 0 1.426.18 1.967.539s.945.861 1.211 1.519.378 1.44.322 2.345h-1.463v-.532c-.009-.877-.177-1.526-.504-1.946s-.814-.63-1.477-.63c-.733 0-1.283.231-1.652.693s-.553 1.129-.553 2.002c0 .831.184 1.475.553 1.932s.901.679 1.596.679c.457 0 .852-.103 1.183-.308s.597-.509.784-.896l1.435.455c-.294.677-.74 1.202-1.337 1.575s-1.262.553-1.995.553zm-2.695-3.577v-1.141h5.397v1.141h-5.397zM92.919 35V24.92h1.463V35h-1.463zm12.623 0l.007-4.711c0-.546-.14-.971-.42-1.274s-.649-.462-1.106-.462c-.28 0-.537.065-.77.196s-.415.317-.56.574-.21.569-.21.952l-.707-.357c-.009-.532.103-.999.336-1.4a2.47 2.47 0 0 1 .966-.931c.406-.224.861-.336 1.365-.336.817 0 1.449.245 1.897.735s.672 1.141.672 1.953L107.005 35h-1.463zm-9.065 0v-7.56h1.302v2.184h.168V35h-1.47zm4.536 0l.007-4.683c0-.551-.14-.982-.42-1.295-.275-.313-.646-.469-1.113-.469s-.835.159-1.12.476-.42.733-.42 1.246l-.7-.448c0-.495.119-.936.357-1.323a2.57 2.57 0 0 1 .966-.917c.406-.224.866-.336 1.379-.336.537 0 .994.114 1.372.343s.665.539.861.945.301.877.301 1.414L102.476 35h-1.463zm11.366.21c-.724 0-1.33-.175-1.82-.525s-.861-.833-1.113-1.435-.378-1.281-.378-2.037.123-1.435.371-2.037.62-1.076 1.106-1.421 1.092-.525 1.806-.525 1.32.175 1.834.525.917.819 1.197 1.421.42 1.276.42 2.037-.14 1.437-.42 2.044-.67 1.078-1.183 1.428-1.116.525-1.82.525zm-3.556 3.15V27.44h1.302v5.439h.168v5.481h-1.47zm3.353-4.473c.466 0 .851-.119 1.155-.357s.536-.558.686-.959.231-.859.231-1.358-.077-.943-.231-1.344-.381-.721-.693-.959-.712-.357-1.197-.357c-.458 0-.836.112-1.134.336s-.514.537-.658.938-.21.863-.21 1.386.07.985.21 1.386.361.716.665.945.695.343 1.176.343zm8.454 1.323c-.756 0-1.411-.17-1.967-.511a3.45 3.45 0 0 1-1.288-1.407c-.298-.602-.448-1.295-.448-2.079s.154-1.482.462-2.079.74-1.069 1.295-1.4 1.204-.504 1.946-.504c.756 0 1.412.17 1.967.511s.985.81 1.288 1.407.455 1.286.455 2.065c0 .789-.154 1.484-.462 2.086-.303.597-.732 1.066-1.288 1.407s-1.208.504-1.96.504zm0-1.379c.724 0 1.263-.243 1.617-.728.36-.49.539-1.12.539-1.89 0-.789-.182-1.419-.546-1.89-.359-.476-.896-.714-1.61-.714-.49 0-.893.112-1.211.336s-.553.525-.707.917-.231.838-.231 1.351c0 .793.182 1.428.546 1.904s.899.714 1.603.714zM125.878 35v-7.56h1.302v1.834l-.182-.238c.094-.243.215-.464.364-.665a2.05 2.05 0 0 1 .518-.504c.192-.14.404-.247.637-.322s.481-.126.728-.14.486-.007.714.035v1.372a2.37 2.37 0 0 0-.826-.056 1.81 1.81 0 0 0-.826.287c-.238.154-.427.341-.567.56-.135.219-.233.464-.294.735a3.84 3.84 0 0 0-.091.847V35h-1.477zm9.741 0c-.476.093-.943.133-1.4.119s-.866-.103-1.225-.266-.63-.42-.812-.77c-.164-.313-.252-.63-.266-.952l-.014-1.106V25.34h1.47v6.615l.007.791c.009.224.058.413.147.567.168.289.434.455.798.497s.8.021 1.295-.049V35zm-5.166-6.384V27.44h5.166v1.176h-5.166z" fill="#475367"/><path d="M24 20a6 6 0 0 1 6-6h20a6 6 0 0 1 6 6v20a6 6 0 0 1-6 6H30a6 6 0 0 1-6-6V20z" fill="#f7e6ff"/><mask id="A" maskUnits="userSpaceOnUse" x="28" y="18" width="24" height="24" mask-type="alpha"><path fill="#d9d9d9" d="M28 18h24v24H28z"/></mask><g mask="url(#A)"><path d="M42.402 38.701V37.14a.83.83 0 0 1 .075-.352.99.99 0 0 1 .2-.288l4.975-4.95a1.1 1.1 0 0 1 .403-.268 1.26 1.26 0 0 1 .441-.082c.159 0 .312.029.458.087a1.21 1.21 0 0 1 .398.263l1.1 1.125c.11.121.196.255.257.403s.093.295.093.441a1.32 1.32 0 0 1-.082.448c-.055.153-.144.288-.268.408l-4.95 4.95a.99.99 0 0 1-.288.2.83.83 0 0 1-.352.075h-1.561a.87.87 0 0 1-.9-.9zm1.2-.3h1.125l2.875-2.875-1.1-1.125-2.9 2.875v1.125zm-9 1.2a1.73 1.73 0 0 1-1.271-.529 1.73 1.73 0 0 1-.529-1.271v-15.6a1.73 1.73 0 0 1 .529-1.271c.352-.352.776-.529 1.271-.529h7.05a1.86 1.86 0 0 1 .678.125 1.73 1.73 0 0 1 .597.4l3.75 3.75a1.73 1.73 0 0 1 .4.597 1.86 1.86 0 0 1 .125.678v3.4c0 .255-.086.469-.257.641s-.384.259-.638.259a.88.88 0 0 1-.643-.259c-.175-.172-.263-.386-.263-.641v-2.95h-3.3a.87.87 0 0 1-.9-.9v-3.3h-6.6v15.6h5.1c.255 0 .469.086.641.257s.259.384.259.638a.88.88 0 0 1-.259.643c-.172.175-.386.263-.641.263h-5.1zm12.45-4.65l-.55-.55 1.1 1.125-.55-.575z" fill="#df99ff"/></g><defs><filter id="B" x="0" y="0" width="228" height="164" filterUnits="userSpaceOnUse" color-interpolation-filters="sRGB"><feFlood flood-opacity="0" result="A"/><feColorMatrix in="SourceAlpha" values="0 0 0 0 0 0 0 0 0 0 0 0 0 0 0 0 0 0 127 0"/><feMorphology radius="2" in="SourceAlpha" result="C"/><feOffset dy="4"/><feGaussianBlur stdDeviation="3"/><feColorMatrix values="0 0 0 0 0.341176 0 0 0 0 0.333333 0 0 0 0 1 0 0 0 0.05 0"/><feBlend in2="A" result="C"/><feColorMatrix in="SourceAlpha" values="0 0 0 0 0 0 0 0 0 0 0 0 0 0 0 0 0 0 127 0"/><feMorphology radius="3" in="SourceAlpha"/><feOffset dy="10"/><feGaussianBlur stdDeviation="7.5"/><feColorMatrix values="0 0 0 0 0.341176 0 0 0 0 0.333333 0 0 0 0 1 0 0 0 0.1 0"/><feBlend in2="C"/><feBlend in="SourceGraphic"/></filter></defs></svg>