<svg width="228" height="164" viewBox="0 0 228 164" fill="none" xmlns="http://www.w3.org/2000/svg">
<g filter="url(#filter0_dd_1748_2021)">
<rect x="12" y="2" width="204" height="140" rx="6" fill="white"/>
</g>
<path d="M30.212 73.18C29.552 73.18 28.968 73.044 28.46 72.772C27.956 72.5 27.56 72.116 27.272 71.62C26.984 71.124 26.84 70.544 26.84 69.88V64.366L27.728 64.36V69.766C27.728 70.214 27.804 70.602 27.956 70.93C28.108 71.254 28.306 71.522 28.55 71.734C28.798 71.942 29.068 72.096 29.36 72.196C29.652 72.296 29.936 72.346 30.212 72.346C30.492 72.346 30.778 72.296 31.07 72.196C31.362 72.096 31.63 71.942 31.874 71.734C32.118 71.522 32.316 71.254 32.468 70.93C32.62 70.602 32.696 70.214 32.696 69.766V64.36H33.584V69.88C33.584 70.544 33.44 71.124 33.152 71.62C32.864 72.112 32.466 72.496 31.958 72.772C31.454 73.044 30.872 73.18 30.212 73.18ZM38.1758 73.18C37.5798 73.18 37.0758 73.03 36.6638 72.73C36.2518 72.426 35.9398 72.016 35.7278 71.5C35.5158 70.98 35.4098 70.398 35.4098 69.754C35.4098 69.098 35.5158 68.514 35.7278 68.002C35.9438 67.486 36.2598 67.08 36.6758 66.784C37.0918 66.488 37.6038 66.34 38.2118 66.34C38.8038 66.34 39.3118 66.49 39.7358 66.79C40.1598 67.09 40.4838 67.498 40.7078 68.014C40.9358 68.53 41.0498 69.11 41.0498 69.754C41.0498 70.402 40.9358 70.984 40.7078 71.5C40.4798 72.016 40.1518 72.426 39.7238 72.73C39.2958 73.03 38.7798 73.18 38.1758 73.18ZM35.2598 75.88V66.52H36.0518V71.398H36.1478V75.88H35.2598ZM38.0858 72.358C38.5378 72.358 38.9138 72.244 39.2138 72.016C39.5138 71.788 39.7378 71.478 39.8858 71.086C40.0378 70.69 40.1138 70.246 40.1138 69.754C40.1138 69.266 40.0398 68.826 39.8918 68.434C39.7438 68.042 39.5178 67.732 39.2138 67.504C38.9138 67.276 38.5318 67.162 38.0678 67.162C37.6158 67.162 37.2398 67.272 36.9398 67.492C36.6438 67.712 36.4218 68.018 36.2738 68.41C36.1258 68.798 36.0518 69.246 36.0518 69.754C36.0518 70.254 36.1258 70.702 36.2738 71.098C36.4218 71.49 36.6458 71.798 36.9458 72.022C37.2458 72.246 37.6258 72.358 38.0858 72.358ZM42.4873 73V64.18H43.3693V73H42.4873ZM47.8741 73.18C47.2301 73.18 46.6801 73.034 46.2241 72.742C45.7681 72.45 45.4181 72.046 45.1741 71.53C44.9301 71.014 44.8081 70.422 44.8081 69.754C44.8081 69.074 44.9321 68.478 45.1801 67.966C45.4281 67.454 45.7801 67.056 46.2361 66.772C46.6961 66.484 47.2421 66.34 47.8741 66.34C48.5221 66.34 49.0741 66.486 49.5301 66.778C49.9901 67.066 50.3401 67.468 50.5801 67.984C50.8241 68.496 50.9461 69.086 50.9461 69.754C50.9461 70.434 50.8241 71.032 50.5801 71.548C50.3361 72.06 49.9841 72.46 49.5241 72.748C49.0641 73.036 48.5141 73.18 47.8741 73.18ZM47.8741 72.334C48.5941 72.334 49.1301 72.096 49.4821 71.62C49.8341 71.14 50.0101 70.518 50.0101 69.754C50.0101 68.97 49.8321 68.346 49.4761 67.882C49.1241 67.418 48.5901 67.186 47.8741 67.186C47.3901 67.186 46.9901 67.296 46.6741 67.516C46.3621 67.732 46.1281 68.034 45.9721 68.422C45.8201 68.806 45.7441 69.25 45.7441 69.754C45.7441 70.534 45.9241 71.16 46.2841 71.632C46.6441 72.1 47.1741 72.334 47.8741 72.334ZM54.1237 73.18C53.6357 73.18 53.2257 73.092 52.8937 72.916C52.5657 72.74 52.3197 72.506 52.1557 72.214C51.9917 71.922 51.9097 71.604 51.9097 71.26C51.9097 70.908 51.9797 70.608 52.1197 70.36C52.2637 70.108 52.4577 69.902 52.7017 69.742C52.9497 69.582 53.2357 69.46 53.5597 69.376C53.8877 69.296 54.2497 69.226 54.6457 69.166C55.0457 69.102 55.4357 69.048 55.8157 69.004C56.1997 68.956 56.5357 68.91 56.8237 68.866L56.5117 69.058C56.5237 68.418 56.3997 67.944 56.1397 67.636C55.8797 67.328 55.4277 67.174 54.7837 67.174C54.3397 67.174 53.9637 67.274 53.6557 67.474C53.3517 67.674 53.1377 67.99 53.0137 68.422L52.1557 68.17C52.3037 67.59 52.6017 67.14 53.0497 66.82C53.4977 66.5 54.0797 66.34 54.7957 66.34C55.3877 66.34 55.8897 66.452 56.3017 66.676C56.7177 66.896 57.0117 67.216 57.1837 67.636C57.2637 67.824 57.3157 68.034 57.3397 68.266C57.3637 68.498 57.3757 68.734 57.3757 68.974V73H56.5897V71.374L56.8177 71.47C56.5977 72.026 56.2557 72.45 55.7917 72.742C55.3277 73.034 54.7717 73.18 54.1237 73.18ZM54.2257 72.418C54.6377 72.418 54.9977 72.344 55.3057 72.196C55.6137 72.048 55.8617 71.846 56.0497 71.59C56.2377 71.33 56.3597 71.038 56.4157 70.714C56.4637 70.506 56.4897 70.278 56.4937 70.03C56.4977 69.778 56.4997 69.59 56.4997 69.466L56.8357 69.64C56.5357 69.68 56.2097 69.72 55.8577 69.76C55.5097 69.8 55.1657 69.846 54.8257 69.898C54.4897 69.95 54.1857 70.012 53.9137 70.084C53.7297 70.136 53.5517 70.21 53.3797 70.306C53.2077 70.398 53.0657 70.522 52.9537 70.678C52.8457 70.834 52.7917 71.028 52.7917 71.26C52.7917 71.448 52.8377 71.63 52.9297 71.806C53.0257 71.982 53.1777 72.128 53.3857 72.244C53.5977 72.36 53.8777 72.418 54.2257 72.418ZM61.4517 73.18C60.8477 73.18 60.3317 73.03 59.9037 72.73C59.4757 72.426 59.1477 72.016 58.9197 71.5C58.6917 70.984 58.5777 70.402 58.5777 69.754C58.5777 69.11 58.6897 68.53 58.9137 68.014C59.1417 67.498 59.4677 67.09 59.8917 66.79C60.3157 66.49 60.8237 66.34 61.4157 66.34C62.0237 66.34 62.5357 66.488 62.9517 66.784C63.3677 67.08 63.6817 67.486 63.8937 68.002C64.1097 68.514 64.2177 69.098 64.2177 69.754C64.2177 70.398 64.1117 70.98 63.8997 71.5C63.6877 72.016 63.3757 72.426 62.9637 72.73C62.5517 73.03 62.0477 73.18 61.4517 73.18ZM61.5417 72.358C62.0017 72.358 62.3817 72.246 62.6817 72.022C62.9817 71.798 63.2057 71.49 63.3537 71.098C63.5017 70.702 63.5757 70.254 63.5757 69.754C63.5757 69.246 63.5017 68.798 63.3537 68.41C63.2057 68.018 62.9817 67.712 62.6817 67.492C62.3857 67.272 62.0117 67.162 61.5597 67.162C61.0957 67.162 60.7117 67.276 60.4077 67.504C60.1037 67.732 59.8777 68.042 59.7297 68.434C59.5857 68.826 59.5137 69.266 59.5137 69.754C59.5137 70.246 59.5877 70.69 59.7357 71.086C59.8877 71.478 60.1137 71.788 60.4137 72.016C60.7137 72.244 61.0897 72.358 61.5417 72.358ZM63.5757 73V68.122H63.4797V64.36H64.3677V73H63.5757ZM70.3073 73.18C69.8193 73.18 69.4093 73.092 69.0773 72.916C68.7493 72.74 68.5033 72.506 68.3393 72.214C68.1753 71.922 68.0933 71.604 68.0933 71.26C68.0933 70.908 68.1633 70.608 68.3033 70.36C68.4473 70.108 68.6413 69.902 68.8853 69.742C69.1333 69.582 69.4193 69.46 69.7433 69.376C70.0713 69.296 70.4333 69.226 70.8293 69.166C71.2293 69.102 71.6193 69.048 71.9993 69.004C72.3833 68.956 72.7193 68.91 73.0073 68.866L72.6953 69.058C72.7073 68.418 72.5833 67.944 72.3233 67.636C72.0633 67.328 71.6113 67.174 70.9673 67.174C70.5233 67.174 70.1473 67.274 69.8393 67.474C69.5353 67.674 69.3213 67.99 69.1973 68.422L68.3393 68.17C68.4873 67.59 68.7853 67.14 69.2333 66.82C69.6813 66.5 70.2633 66.34 70.9793 66.34C71.5713 66.34 72.0733 66.452 72.4853 66.676C72.9013 66.896 73.1953 67.216 73.3673 67.636C73.4473 67.824 73.4993 68.034 73.5233 68.266C73.5473 68.498 73.5593 68.734 73.5593 68.974V73H72.7733V71.374L73.0013 71.47C72.7813 72.026 72.4393 72.45 71.9753 72.742C71.5113 73.034 70.9553 73.18 70.3073 73.18ZM70.4093 72.418C70.8213 72.418 71.1813 72.344 71.4893 72.196C71.7973 72.048 72.0453 71.846 72.2333 71.59C72.4213 71.33 72.5433 71.038 72.5993 70.714C72.6473 70.506 72.6733 70.278 72.6773 70.03C72.6813 69.778 72.6833 69.59 72.6833 69.466L73.0193 69.64C72.7193 69.68 72.3933 69.72 72.0413 69.76C71.6933 69.8 71.3493 69.846 71.0093 69.898C70.6733 69.95 70.3693 70.012 70.0973 70.084C69.9133 70.136 69.7353 70.21 69.5633 70.306C69.3913 70.398 69.2493 70.522 69.1373 70.678C69.0293 70.834 68.9753 71.028 68.9753 71.26C68.9753 71.448 69.0213 71.63 69.1133 71.806C69.2093 71.982 69.3613 72.128 69.5693 72.244C69.7813 72.36 70.0613 72.418 70.4093 72.418ZM77.5236 73V64.36H80.8596C80.9436 64.36 81.0376 64.364 81.1416 64.372C81.2496 64.376 81.3576 64.388 81.4656 64.408C81.9176 64.476 82.2996 64.634 82.6116 64.882C82.9276 65.126 83.1656 65.434 83.3256 65.806C83.4896 66.178 83.5716 66.59 83.5716 67.042C83.5716 67.49 83.4896 67.9 83.3256 68.272C83.1616 68.644 82.9216 68.954 82.6056 69.202C82.2936 69.446 81.9136 69.602 81.4656 69.67C81.3576 69.686 81.2496 69.698 81.1416 69.706C81.0376 69.714 80.9436 69.718 80.8596 69.718H78.4056V73H77.5236ZM78.4056 68.878H80.8356C80.9076 68.878 80.9916 68.874 81.0876 68.866C81.1836 68.858 81.2776 68.844 81.3696 68.824C81.6656 68.76 81.9076 68.638 82.0956 68.458C82.2876 68.278 82.4296 68.064 82.5216 67.816C82.6176 67.568 82.6656 67.31 82.6656 67.042C82.6656 66.774 82.6176 66.516 82.5216 66.268C82.4296 66.016 82.2876 65.8 82.0956 65.62C81.9076 65.44 81.6656 65.318 81.3696 65.254C81.2776 65.234 81.1836 65.222 81.0876 65.218C80.9916 65.21 80.9076 65.206 80.8356 65.206H78.4056V68.878ZM84.7658 73V64.36H87.3878C87.4798 64.36 87.6358 64.362 87.8558 64.366C88.0798 64.37 88.2938 64.386 88.4978 64.414C89.1538 64.506 89.7018 64.75 90.1418 65.146C90.5818 65.542 90.9118 66.046 91.1318 66.658C91.3518 67.27 91.4618 67.944 91.4618 68.68C91.4618 69.416 91.3518 70.09 91.1318 70.702C90.9118 71.314 90.5818 71.818 90.1418 72.214C89.7018 72.61 89.1538 72.854 88.4978 72.946C88.2978 72.97 88.0838 72.986 87.8558 72.994C87.6278 72.998 87.4718 73 87.3878 73H84.7658ZM85.6778 72.154H87.3878C87.5518 72.154 87.7278 72.15 87.9158 72.142C88.1078 72.13 88.2718 72.11 88.4078 72.082C88.9118 71.994 89.3178 71.79 89.6258 71.47C89.9378 71.15 90.1658 70.75 90.3098 70.27C90.4538 69.786 90.5258 69.256 90.5258 68.68C90.5258 68.1 90.4538 67.568 90.3098 67.084C90.1658 66.6 89.9378 66.2 89.6258 65.884C89.3138 65.568 88.9078 65.366 88.4078 65.278C88.2718 65.25 88.1058 65.232 87.9098 65.224C87.7178 65.212 87.5438 65.206 87.3878 65.206H85.6778V72.154ZM92.8283 73V64.36H97.7903V65.242H93.7103V68.242H97.0703V69.118H93.7103V73H92.8283ZM103.984 73.18C103.34 73.18 102.79 73.034 102.334 72.742C101.878 72.45 101.528 72.046 101.284 71.53C101.04 71.014 100.918 70.422 100.918 69.754C100.918 69.074 101.042 68.478 101.29 67.966C101.538 67.454 101.89 67.056 102.346 66.772C102.806 66.484 103.352 66.34 103.984 66.34C104.632 66.34 105.184 66.486 105.64 66.778C106.1 67.066 106.45 67.468 106.69 67.984C106.934 68.496 107.056 69.086 107.056 69.754C107.056 70.434 106.934 71.032 106.69 71.548C106.446 72.06 106.094 72.46 105.634 72.748C105.174 73.036 104.624 73.18 103.984 73.18ZM103.984 72.334C104.704 72.334 105.24 72.096 105.592 71.62C105.944 71.14 106.12 70.518 106.12 69.754C106.12 68.97 105.942 68.346 105.586 67.882C105.234 67.418 104.7 67.186 103.984 67.186C103.5 67.186 103.1 67.296 102.784 67.516C102.472 67.732 102.238 68.034 102.082 68.422C101.93 68.806 101.854 69.25 101.854 69.754C101.854 70.534 102.034 71.16 102.394 71.632C102.754 72.1 103.284 72.334 103.984 72.334ZM108.379 73V66.52H109.171V68.08L109.015 67.876C109.087 67.684 109.181 67.508 109.297 67.348C109.413 67.184 109.539 67.05 109.675 66.946C109.843 66.798 110.039 66.686 110.263 66.61C110.487 66.53 110.713 66.484 110.941 66.472C111.169 66.456 111.377 66.472 111.565 66.52V67.348C111.329 67.288 111.071 67.274 110.791 67.306C110.511 67.338 110.253 67.45 110.017 67.642C109.801 67.81 109.639 68.012 109.531 68.248C109.423 68.48 109.351 68.728 109.315 68.992C109.279 69.252 109.261 69.51 109.261 69.766V73H108.379ZM118.604 73.18C117.744 73.18 117.018 72.99 116.426 72.61C115.834 72.226 115.386 71.696 115.082 71.02C114.778 70.344 114.626 69.564 114.626 68.68C114.626 67.796 114.778 67.016 115.082 66.34C115.386 65.664 115.834 65.136 116.426 64.756C117.018 64.372 117.744 64.18 118.604 64.18C119.608 64.18 120.428 64.438 121.064 64.954C121.7 65.466 122.136 66.154 122.372 67.018L121.472 67.252C121.288 66.568 120.958 66.026 120.482 65.626C120.006 65.226 119.38 65.026 118.604 65.026C117.928 65.026 117.366 65.18 116.918 65.488C116.47 65.796 116.132 66.226 115.904 66.778C115.68 67.326 115.564 67.96 115.556 68.68C115.552 69.4 115.662 70.034 115.886 70.582C116.114 71.13 116.454 71.56 116.906 71.872C117.362 72.18 117.928 72.334 118.604 72.334C119.38 72.334 120.006 72.134 120.482 71.734C120.958 71.33 121.288 70.788 121.472 70.108L122.372 70.342C122.136 71.206 121.7 71.896 121.064 72.412C120.428 72.924 119.608 73.18 118.604 73.18ZM127.059 73.18C126.455 73.18 125.911 73.08 125.427 72.88C124.947 72.676 124.549 72.388 124.233 72.016C123.921 71.644 123.717 71.202 123.621 70.69L124.521 70.54C124.665 71.1 124.969 71.54 125.433 71.86C125.897 72.176 126.451 72.334 127.095 72.334C127.519 72.334 127.899 72.268 128.235 72.136C128.571 72 128.835 71.808 129.027 71.56C129.219 71.312 129.315 71.018 129.315 70.678C129.315 70.454 129.275 70.264 129.195 70.108C129.115 69.948 129.009 69.816 128.877 69.712C128.745 69.608 128.601 69.522 128.445 69.454C128.289 69.382 128.137 69.324 127.989 69.28L125.799 68.626C125.535 68.55 125.291 68.454 125.067 68.338C124.843 68.218 124.647 68.076 124.479 67.912C124.315 67.744 124.187 67.548 124.095 67.324C124.003 67.1 123.957 66.844 123.957 66.556C123.957 66.068 124.085 65.646 124.341 65.29C124.597 64.934 124.947 64.66 125.391 64.468C125.835 64.276 126.341 64.182 126.909 64.186C127.485 64.186 127.999 64.288 128.451 64.492C128.907 64.696 129.283 64.988 129.579 65.368C129.875 65.744 130.071 66.19 130.167 66.706L129.243 66.874C129.183 66.498 129.045 66.172 128.829 65.896C128.613 65.62 128.337 65.408 128.001 65.26C127.669 65.108 127.303 65.03 126.903 65.026C126.515 65.026 126.169 65.092 125.865 65.224C125.565 65.352 125.327 65.528 125.151 65.752C124.975 65.976 124.887 66.232 124.887 66.52C124.887 66.812 124.967 67.046 125.127 67.222C125.291 67.398 125.491 67.536 125.727 67.636C125.967 67.736 126.199 67.818 126.423 67.882L128.115 68.38C128.291 68.428 128.497 68.498 128.733 68.59C128.973 68.678 129.205 68.806 129.429 68.974C129.657 69.138 129.845 69.354 129.993 69.622C130.141 69.89 130.215 70.23 130.215 70.642C130.215 71.042 130.135 71.4 129.975 71.716C129.819 72.032 129.597 72.298 129.309 72.514C129.025 72.73 128.691 72.894 128.307 73.006C127.927 73.122 127.511 73.18 127.059 73.18ZM133.415 73L130.439 64.36H131.357L133.991 71.998L136.643 64.36H137.561L134.585 73H133.415ZM143.569 73.18C142.925 73.18 142.375 73.034 141.919 72.742C141.463 72.45 141.113 72.046 140.869 71.53C140.625 71.014 140.503 70.422 140.503 69.754C140.503 69.074 140.627 68.478 140.875 67.966C141.123 67.454 141.475 67.056 141.931 66.772C142.391 66.484 142.937 66.34 143.569 66.34C144.217 66.34 144.769 66.486 145.225 66.778C145.685 67.066 146.035 67.468 146.275 67.984C146.519 68.496 146.641 69.086 146.641 69.754C146.641 70.434 146.519 71.032 146.275 71.548C146.031 72.06 145.679 72.46 145.219 72.748C144.759 73.036 144.209 73.18 143.569 73.18ZM143.569 72.334C144.289 72.334 144.825 72.096 145.177 71.62C145.529 71.14 145.705 70.518 145.705 69.754C145.705 68.97 145.527 68.346 145.171 67.882C144.819 67.418 144.285 67.186 143.569 67.186C143.085 67.186 142.685 67.296 142.369 67.516C142.057 67.732 141.823 68.034 141.667 68.422C141.515 68.806 141.439 69.25 141.439 69.754C141.439 70.534 141.619 71.16 141.979 71.632C142.339 72.1 142.869 72.334 143.569 72.334ZM148.607 73V66.04C148.607 65.872 148.615 65.706 148.631 65.542C148.651 65.378 148.689 65.222 148.745 65.074C148.801 64.922 148.889 64.782 149.009 64.654C149.141 64.51 149.285 64.406 149.441 64.342C149.597 64.274 149.759 64.23 149.927 64.21C150.099 64.19 150.267 64.18 150.431 64.18H151.259V64.924H150.491C150.155 64.924 149.903 65.006 149.735 65.17C149.571 65.334 149.489 65.592 149.489 65.944V73H148.607ZM147.485 67.276V66.52H151.259V67.276H147.485ZM155.545 75.88L156.799 72.478L156.817 73.486L153.979 66.52H154.915L157.243 72.346H156.859L159.007 66.52H159.907L156.427 75.88H155.545ZM163.421 73.18C162.777 73.18 162.227 73.034 161.771 72.742C161.315 72.45 160.965 72.046 160.721 71.53C160.477 71.014 160.355 70.422 160.355 69.754C160.355 69.074 160.479 68.478 160.727 67.966C160.975 67.454 161.327 67.056 161.783 66.772C162.243 66.484 162.789 66.34 163.421 66.34C164.069 66.34 164.621 66.486 165.077 66.778C165.537 67.066 165.887 67.468 166.127 67.984C166.371 68.496 166.493 69.086 166.493 69.754C166.493 70.434 166.371 71.032 166.127 71.548C165.883 72.06 165.531 72.46 165.071 72.748C164.611 73.036 164.061 73.18 163.421 73.18ZM163.421 72.334C164.141 72.334 164.677 72.096 165.029 71.62C165.381 71.14 165.557 70.518 165.557 69.754C165.557 68.97 165.379 68.346 165.023 67.882C164.671 67.418 164.137 67.186 163.421 67.186C162.937 67.186 162.537 67.296 162.221 67.516C161.909 67.732 161.675 68.034 161.519 68.422C161.367 68.806 161.291 69.25 161.291 69.754C161.291 70.534 161.471 71.16 161.831 71.632C162.191 72.1 162.721 72.334 163.421 72.334ZM170.295 73.162C169.907 73.162 169.567 73.102 169.275 72.982C168.987 72.862 168.741 72.7 168.537 72.496C168.337 72.292 168.175 72.06 168.051 71.8C167.927 71.536 167.837 71.258 167.781 70.966C167.725 70.67 167.697 70.376 167.697 70.084V66.52H168.585V69.826C168.585 70.182 168.619 70.512 168.687 70.816C168.755 71.12 168.863 71.386 169.011 71.614C169.163 71.838 169.357 72.012 169.593 72.136C169.833 72.26 170.123 72.322 170.463 72.322C170.775 72.322 171.049 72.268 171.285 72.16C171.525 72.052 171.725 71.898 171.885 71.698C172.049 71.494 172.173 71.248 172.257 70.96C172.341 70.668 172.383 70.34 172.383 69.976L173.007 70.114C173.007 70.778 172.891 71.336 172.659 71.788C172.427 72.24 172.107 72.582 171.699 72.814C171.291 73.046 170.823 73.162 170.295 73.162ZM172.473 73V71.404H172.383V66.52H173.265V73H172.473ZM174.942 73V66.52H175.734V68.08L175.578 67.876C175.65 67.684 175.744 67.508 175.86 67.348C175.976 67.184 176.102 67.05 176.238 66.946C176.406 66.798 176.602 66.686 176.826 66.61C177.05 66.53 177.276 66.484 177.504 66.472C177.732 66.456 177.94 66.472 178.128 66.52V67.348C177.892 67.288 177.634 67.274 177.354 67.306C177.074 67.338 176.816 67.45 176.58 67.642C176.364 67.81 176.202 68.012 176.094 68.248C175.986 68.48 175.914 68.728 175.878 68.992C175.842 69.252 175.824 69.51 175.824 69.766V73H174.942ZM29.528 93.18C28.876 93.18 28.324 93.034 27.872 92.742C27.42 92.45 27.076 92.048 26.84 91.536C26.608 91.02 26.488 90.428 26.48 89.76C26.488 89.08 26.612 88.484 26.852 87.972C27.092 87.456 27.438 87.056 27.89 86.772C28.342 86.484 28.89 86.34 29.534 86.34C30.19 86.34 30.76 86.5 31.244 86.82C31.732 87.14 32.066 87.578 32.246 88.134L31.382 88.41C31.23 88.022 30.988 87.722 30.656 87.51C30.328 87.294 29.952 87.186 29.528 87.186C29.052 87.186 28.658 87.296 28.346 87.516C28.034 87.732 27.802 88.034 27.65 88.422C27.498 88.81 27.42 89.256 27.416 89.76C27.424 90.536 27.604 91.16 27.956 91.632C28.308 92.1 28.832 92.334 29.528 92.334C29.968 92.334 30.342 92.234 30.65 92.034C30.962 91.83 31.198 91.534 31.358 91.146L32.246 91.41C32.006 91.986 31.654 92.426 31.19 92.73C30.726 93.03 30.172 93.18 29.528 93.18ZM36.0148 93.18C35.3708 93.18 34.8208 93.034 34.3648 92.742C33.9088 92.45 33.5588 92.046 33.3148 91.53C33.0708 91.014 32.9488 90.422 32.9488 89.754C32.9488 89.074 33.0728 88.478 33.3208 87.966C33.5688 87.454 33.9208 87.056 34.3768 86.772C34.8368 86.484 35.3828 86.34 36.0148 86.34C36.6628 86.34 37.2148 86.486 37.6708 86.778C38.1308 87.066 38.4808 87.468 38.7208 87.984C38.9648 88.496 39.0868 89.086 39.0868 89.754C39.0868 90.434 38.9648 91.032 38.7208 91.548C38.4768 92.06 38.1248 92.46 37.6648 92.748C37.2048 93.036 36.6548 93.18 36.0148 93.18ZM36.0148 92.334C36.7348 92.334 37.2708 92.096 37.6228 91.62C37.9748 91.14 38.1508 90.518 38.1508 89.754C38.1508 88.97 37.9728 88.346 37.6168 87.882C37.2648 87.418 36.7308 87.186 36.0148 87.186C35.5308 87.186 35.1308 87.296 34.8148 87.516C34.5028 87.732 34.2688 88.034 34.1128 88.422C33.9608 88.806 33.8848 89.25 33.8848 89.754C33.8848 90.534 34.0648 91.16 34.4248 91.632C34.7848 92.1 35.3148 92.334 36.0148 92.334ZM45.0903 93V89.694C45.0903 89.334 45.0563 89.004 44.9883 88.704C44.9203 88.4 44.8103 88.136 44.6583 87.912C44.5103 87.684 44.3163 87.508 44.0763 87.384C43.8403 87.26 43.5523 87.198 43.2123 87.198C42.9003 87.198 42.6243 87.252 42.3843 87.36C42.1483 87.468 41.9483 87.624 41.7843 87.828C41.6243 88.028 41.5023 88.272 41.4183 88.56C41.3343 88.848 41.2923 89.176 41.2923 89.544L40.6683 89.406C40.6683 88.742 40.7843 88.184 41.0163 87.732C41.2483 87.28 41.5683 86.938 41.9763 86.706C42.3843 86.474 42.8523 86.358 43.3803 86.358C43.7683 86.358 44.1063 86.418 44.3943 86.538C44.6863 86.658 44.9323 86.82 45.1323 87.024C45.3363 87.228 45.5003 87.462 45.6243 87.726C45.7483 87.986 45.8383 88.264 45.8943 88.56C45.9503 88.852 45.9783 89.144 45.9783 89.436V93H45.0903ZM40.4043 93V86.52H41.2023V88.116H41.2923V93H40.4043ZM51.0633 93C50.6993 93.076 50.3393 93.106 49.9833 93.09C49.6313 93.074 49.3153 92.998 49.0353 92.862C48.7593 92.726 48.5493 92.514 48.4053 92.226C48.2893 91.986 48.2253 91.744 48.2133 91.5C48.2053 91.252 48.2013 90.97 48.2013 90.654V84.72H49.0773V90.618C49.0773 90.89 49.0793 91.118 49.0833 91.302C49.0913 91.482 49.1333 91.642 49.2093 91.782C49.3533 92.05 49.5813 92.21 49.8933 92.262C50.2093 92.314 50.5993 92.302 51.0633 92.226V93ZM46.8153 87.276V86.52H51.0633V87.276H46.8153ZM54.8476 93.18C54.2156 93.18 53.6676 93.04 53.2036 92.76C52.7436 92.48 52.3856 92.086 52.1296 91.578C51.8736 91.07 51.7456 90.474 51.7456 89.79C51.7456 89.082 51.8716 88.47 52.1236 87.954C52.3756 87.438 52.7296 87.04 53.1856 86.76C53.6456 86.48 54.1876 86.34 54.8116 86.34C55.4516 86.34 55.9976 86.488 56.4496 86.784C56.9016 87.076 57.2436 87.496 57.4756 88.044C57.7076 88.592 57.8136 89.246 57.7936 90.006H56.8936V89.694C56.8776 88.854 56.6956 88.22 56.3476 87.792C56.0036 87.364 55.4996 87.15 54.8356 87.15C54.1396 87.15 53.6056 87.376 53.2336 87.828C52.8656 88.28 52.6816 88.924 52.6816 89.76C52.6816 90.576 52.8656 91.21 53.2336 91.662C53.6056 92.11 54.1316 92.334 54.8116 92.334C55.2756 92.334 55.6796 92.228 56.0236 92.016C56.3716 91.8 56.6456 91.49 56.8456 91.086L57.6676 91.404C57.4116 91.968 57.0336 92.406 56.5336 92.718C56.0376 93.026 55.4756 93.18 54.8476 93.18ZM52.3696 90.006V89.268H57.3196V90.006H52.3696ZM63.6294 93V89.694C63.6294 89.334 63.5954 89.004 63.5274 88.704C63.4594 88.4 63.3494 88.136 63.1974 87.912C63.0494 87.684 62.8554 87.508 62.6154 87.384C62.3794 87.26 62.0914 87.198 61.7514 87.198C61.4394 87.198 61.1634 87.252 60.9234 87.36C60.6874 87.468 60.4874 87.624 60.3234 87.828C60.1634 88.028 60.0414 88.272 59.9574 88.56C59.8734 88.848 59.8314 89.176 59.8314 89.544L59.2074 89.406C59.2074 88.742 59.3234 88.184 59.5554 87.732C59.7874 87.28 60.1074 86.938 60.5154 86.706C60.9234 86.474 61.3914 86.358 61.9194 86.358C62.3074 86.358 62.6454 86.418 62.9334 86.538C63.2254 86.658 63.4714 86.82 63.6714 87.024C63.8754 87.228 64.0394 87.462 64.1634 87.726C64.2874 87.986 64.3774 88.264 64.4334 88.56C64.4894 88.852 64.5174 89.144 64.5174 89.436V93H63.6294ZM58.9434 93V86.52H59.7414V88.116H59.8314V93H58.9434ZM69.6024 93C69.2384 93.076 68.8784 93.106 68.5224 93.09C68.1704 93.074 67.8544 92.998 67.5744 92.862C67.2984 92.726 67.0884 92.514 66.9444 92.226C66.8284 91.986 66.7644 91.744 66.7524 91.5C66.7444 91.252 66.7404 90.97 66.7404 90.654V84.72H67.6164V90.618C67.6164 90.89 67.6184 91.118 67.6224 91.302C67.6304 91.482 67.6724 91.642 67.7484 91.782C67.8924 92.05 68.1204 92.21 68.4324 92.262C68.7484 92.314 69.1384 92.302 69.6024 92.226V93ZM65.3544 87.276V86.52H69.6024V87.276H65.3544ZM71.0471 93V91.974H72.0731V93H71.0471Z" fill="#667185"/>
<path d="M66.98 35V24.92H72.951V26.383H68.443V29.225H72.111V30.695H68.443V35H66.98ZM74.3524 26.201V24.78H75.8154V26.201H74.3524ZM74.3524 35V27.44H75.8154V35H74.3524ZM78.0575 35V24.71H79.5205V35H78.0575ZM84.9756 35.21C84.2242 35.21 83.5639 35.0467 82.9946 34.72C82.4299 34.3887 81.9889 33.929 81.6716 33.341C81.3589 32.7483 81.2026 32.0623 81.2026 31.283C81.2026 30.457 81.3566 29.7407 81.6646 29.134C81.9772 28.5273 82.4112 28.0583 82.9666 27.727C83.5219 27.3957 84.1682 27.23 84.9056 27.23C85.6756 27.23 86.3312 27.4097 86.8726 27.769C87.4139 28.1237 87.8176 28.63 88.0836 29.288C88.3542 29.946 88.4616 30.7277 88.4056 31.633H86.9426V31.101C86.9332 30.2237 86.7652 29.575 86.4386 29.155C86.1166 28.735 85.6242 28.525 84.9616 28.525C84.2289 28.525 83.6782 28.756 83.3096 29.218C82.9409 29.68 82.7566 30.3473 82.7566 31.22C82.7566 32.0507 82.9409 32.6947 83.3096 33.152C83.6782 33.6047 84.2102 33.831 84.9056 33.831C85.3629 33.831 85.7572 33.7283 86.0886 33.523C86.4246 33.313 86.6859 33.0143 86.8726 32.627L88.3076 33.082C88.0136 33.7587 87.5679 34.2837 86.9706 34.657C86.3732 35.0257 85.7082 35.21 84.9756 35.21ZM82.2806 31.633V30.492H87.6776V31.633H82.2806ZM92.9188 35V24.92H94.3818V35H92.9188ZM105.542 35L105.549 30.289C105.549 29.743 105.409 29.3183 105.129 29.015C104.849 28.707 104.48 28.553 104.023 28.553C103.743 28.553 103.486 28.6183 103.253 28.749C103.024 28.875 102.838 29.0663 102.693 29.323C102.553 29.575 102.483 29.8923 102.483 30.275L101.776 29.918C101.767 29.386 101.879 28.9193 102.112 28.518C102.35 28.1167 102.672 27.8063 103.078 27.587C103.484 27.363 103.939 27.251 104.443 27.251C105.26 27.251 105.892 27.496 106.34 27.986C106.788 28.476 107.012 29.127 107.012 29.939L107.005 35H105.542ZM96.4769 35V27.44H97.7789V29.624H97.9469V35H96.4769ZM101.013 35L101.02 30.317C101.02 29.7663 100.88 29.3347 100.6 29.022C100.325 28.7093 99.9536 28.553 99.4869 28.553C99.0249 28.553 98.6516 28.7117 98.3669 29.029C98.0869 29.3463 97.9469 29.7617 97.9469 30.275L97.2469 29.827C97.2469 29.3323 97.3659 28.8913 97.6039 28.504C97.8419 28.1167 98.1639 27.811 98.5699 27.587C98.9759 27.363 99.4356 27.251 99.9489 27.251C100.486 27.251 100.943 27.3653 101.321 27.594C101.699 27.818 101.986 28.133 102.182 28.539C102.383 28.945 102.483 29.4163 102.483 29.953L102.476 35H101.013ZM112.379 35.21C111.655 35.21 111.049 35.035 110.559 34.685C110.069 34.3303 109.698 33.852 109.446 33.25C109.194 32.648 109.068 31.969 109.068 31.213C109.068 30.457 109.191 29.778 109.439 29.176C109.691 28.574 110.059 28.1003 110.545 27.755C111.035 27.405 111.637 27.23 112.351 27.23C113.06 27.23 113.671 27.405 114.185 27.755C114.703 28.1003 115.102 28.574 115.382 29.176C115.662 29.7733 115.802 30.4523 115.802 31.213C115.802 31.969 115.662 32.6503 115.382 33.257C115.106 33.859 114.712 34.335 114.199 34.685C113.69 35.035 113.083 35.21 112.379 35.21ZM108.823 38.36V27.44H110.125V32.879H110.293V38.36H108.823ZM112.176 33.887C112.642 33.887 113.027 33.768 113.331 33.53C113.639 33.292 113.867 32.9723 114.017 32.571C114.171 32.165 114.248 31.7123 114.248 31.213C114.248 30.7183 114.171 30.2703 114.017 29.869C113.867 29.4677 113.636 29.148 113.324 28.91C113.011 28.672 112.612 28.553 112.127 28.553C111.669 28.553 111.291 28.665 110.993 28.889C110.699 29.113 110.479 29.4257 110.335 29.827C110.195 30.2283 110.125 30.6903 110.125 31.213C110.125 31.7357 110.195 32.1977 110.335 32.599C110.475 33.0003 110.696 33.3153 111 33.544C111.303 33.7727 111.695 33.887 112.176 33.887ZM120.63 35.21C119.874 35.21 119.219 35.0397 118.663 34.699C118.108 34.3583 117.679 33.8893 117.375 33.292C117.077 32.69 116.927 31.997 116.927 31.213C116.927 30.4243 117.081 29.7313 117.389 29.134C117.697 28.532 118.129 28.0653 118.684 27.734C119.24 27.398 119.888 27.23 120.63 27.23C121.386 27.23 122.042 27.4003 122.597 27.741C123.153 28.0817 123.582 28.5507 123.885 29.148C124.189 29.7453 124.34 30.4337 124.34 31.213C124.34 32.0017 124.186 32.697 123.878 33.299C123.575 33.8963 123.146 34.3653 122.59 34.706C122.035 35.042 121.382 35.21 120.63 35.21ZM120.63 33.831C121.354 33.831 121.893 33.5883 122.247 33.103C122.607 32.613 122.786 31.983 122.786 31.213C122.786 30.4243 122.604 29.7943 122.24 29.323C121.881 28.847 121.344 28.609 120.63 28.609C120.14 28.609 119.737 28.721 119.419 28.945C119.102 29.1643 118.866 29.47 118.712 29.862C118.558 30.2493 118.481 30.6997 118.481 31.213C118.481 32.0063 118.663 32.641 119.027 33.117C119.391 33.593 119.926 33.831 120.63 33.831ZM125.878 35V27.44H127.18V29.274L126.998 29.036C127.092 28.7933 127.213 28.5717 127.362 28.371C127.512 28.1657 127.684 27.9977 127.88 27.867C128.072 27.727 128.284 27.6197 128.517 27.545C128.755 27.4657 128.998 27.419 129.245 27.405C129.493 27.3863 129.731 27.398 129.959 27.44V28.812C129.712 28.7467 129.437 28.728 129.133 28.756C128.835 28.784 128.559 28.8797 128.307 29.043C128.069 29.197 127.88 29.3837 127.74 29.603C127.605 29.8223 127.507 30.0673 127.446 30.338C127.386 30.604 127.355 30.8863 127.355 31.185V35H125.878ZM135.619 35C135.143 35.0933 134.676 35.133 134.219 35.119C133.761 35.105 133.353 35.0163 132.994 34.853C132.634 34.6897 132.364 34.433 132.182 34.083C132.018 33.7703 131.93 33.453 131.916 33.131C131.906 32.8043 131.902 32.4357 131.902 32.025V25.34H133.372V31.955C133.372 32.2583 133.374 32.522 133.379 32.746C133.388 32.97 133.437 33.159 133.526 33.313C133.694 33.6023 133.96 33.768 134.324 33.81C134.692 33.8473 135.124 33.831 135.619 33.761V35ZM130.453 28.616V27.44H135.619V28.616H130.453Z" fill="#475367"/>
<path d="M24 20C24 16.6863 26.6863 14 30 14H50C53.3137 14 56 16.6863 56 20V40C56 43.3137 53.3137 46 50 46H30C26.6863 46 24 43.3137 24 40V20Z" fill="#F7E6FF"/>
<mask id="mask0_1748_2021" style="mask-type:alpha" maskUnits="userSpaceOnUse" x="28" y="18" width="24" height="24">
<rect x="28" y="18" width="24" height="24" fill="#D9D9D9"/>
</mask>
<g mask="url(#mask0_1748_2021)">
<path d="M42.4021 38.7011V37.1404C42.4021 37.0142 42.4271 36.897 42.4771 36.7886C42.5271 36.6803 42.5937 36.5845 42.6771 36.5011L47.6521 31.5511C47.7731 31.4276 47.9075 31.3384 48.0553 31.2834C48.2032 31.2285 48.3501 31.2011 48.4961 31.2011C48.6552 31.2011 48.8078 31.2303 48.9538 31.2886C49.0998 31.347 49.2326 31.4345 49.3521 31.5511L50.4521 32.6761C50.5619 32.7971 50.6477 32.9315 50.7093 33.0794C50.7712 33.2272 50.8021 33.3741 50.8021 33.5201C50.8021 33.6661 50.7747 33.8155 50.7198 33.9681C50.6648 34.1206 50.5756 34.2566 50.4521 34.3761L45.5021 39.3261C45.4187 39.4095 45.3229 39.4761 45.2146 39.5261C45.1062 39.5761 44.989 39.6011 44.8628 39.6011H43.3021C43.0471 39.6011 42.8333 39.5149 42.6608 39.3424C42.4883 39.1699 42.4021 38.9561 42.4021 38.7011ZM43.6021 38.4011H44.7271L47.6021 35.5261L46.5021 34.4011L43.6021 37.2761V38.4011ZM34.6021 39.6011C34.1071 39.6011 33.6833 39.4249 33.3308 39.0724C32.9783 38.7199 32.8021 38.2961 32.8021 37.8011V22.2011C32.8021 21.7061 32.9783 21.2824 33.3308 20.9299C33.6833 20.5774 34.1071 20.4011 34.6021 20.4011H41.6521C41.8891 20.4011 42.115 20.4428 42.3298 20.5261C42.5447 20.6095 42.7437 20.7428 42.9271 20.9261L46.6771 24.6761C46.8604 24.8595 46.9937 25.0585 47.0771 25.2734C47.1604 25.4882 47.2021 25.7141 47.2021 25.9511V29.3511C47.2021 29.6061 47.1163 29.8199 46.9448 29.9924C46.7733 30.1649 46.5608 30.2511 46.3073 30.2511C46.0538 30.2511 45.8396 30.1649 45.6646 29.9924C45.4896 29.8199 45.4021 29.6061 45.4021 29.3511V26.4011H42.1021C41.8471 26.4011 41.6333 26.3149 41.4608 26.1424C41.2883 25.9699 41.2021 25.7561 41.2021 25.5011V22.2011H34.6021V37.8011H39.7021C39.9571 37.8011 40.1708 37.8869 40.3433 38.0584C40.5158 38.2299 40.6021 38.4424 40.6021 38.6959C40.6021 38.9494 40.5158 39.1636 40.3433 39.3386C40.1708 39.5136 39.9571 39.6011 39.7021 39.6011H34.6021ZM47.0521 34.9511L46.5021 34.4011L47.6021 35.5261L47.0521 34.9511Z" fill="#DF99FF"/>
</g>
<defs>
<filter id="filter0_dd_1748_2021" x="0" y="0" width="228" height="164" filterUnits="userSpaceOnUse" color-interpolation-filters="sRGB">
<feFlood flood-opacity="0" result="BackgroundImageFix"/>
<feColorMatrix in="SourceAlpha" type="matrix" values="0 0 0 0 0 0 0 0 0 0 0 0 0 0 0 0 0 0 127 0" result="hardAlpha"/>
<feMorphology radius="2" operator="erode" in="SourceAlpha" result="effect1_dropShadow_1748_2021"/>
<feOffset dy="4"/>
<feGaussianBlur stdDeviation="3"/>
<feColorMatrix type="matrix" values="0 0 0 0 0.341176 0 0 0 0 0.333333 0 0 0 0 1 0 0 0 0.05 0"/>
<feBlend mode="normal" in2="BackgroundImageFix" result="effect1_dropShadow_1748_2021"/>
<feColorMatrix in="SourceAlpha" type="matrix" values="0 0 0 0 0 0 0 0 0 0 0 0 0 0 0 0 0 0 127 0" result="hardAlpha"/>
<feMorphology radius="3" operator="erode" in="SourceAlpha" result="effect2_dropShadow_1748_2021"/>
<feOffset dy="10"/>
<feGaussianBlur stdDeviation="7.5"/>
<feColorMatrix type="matrix" values="0 0 0 0 0.341176 0 0 0 0 0.333333 0 0 0 0 1 0 0 0 0.1 0"/>
<feBlend mode="normal" in2="effect1_dropShadow_1748_2021" result="effect2_dropShadow_1748_2021"/>
<feBlend mode="normal" in="SourceGraphic" in2="effect2_dropShadow_1748_2021" result="shape"/>
</filter>
</defs>
</svg>
