<svg xmlns="http://www.w3.org/2000/svg" width="142" height="50" fill="none" xmlns:v="https://vecta.io/nano"><g fill="#fff"><rect x=".5" y=".5" width="141" height="49" rx="6.5" stroke="url(#A)"/><rect x="13" y="5" width="40" height="40" rx="8"/></g><path d="M32.956 12.559h9.348c.413-.004.823.075 1.206.232a3.11 3.11 0 0 1 1.022.68c.292.292.523.64.68 1.022s.235.792.232 1.206v9.347c-.001 3.289-1.308 6.443-3.633 8.769s-5.48 3.633-8.769 3.633h-.071c-1.63.002-3.244-.317-4.75-.94s-2.875-1.535-4.029-2.687-2.068-2.519-2.692-4.025-.945-3.119-.945-4.749c0-6.873 5.543-12.416 12.402-12.486l-.001-.002z" fill="#25c16f"/><path d="M32.957 18.102a5.7 5.7 0 0 0-5.699 5.699v3.875a1.94 1.94 0 0 0 1.895 1.895h1.612v-4.447h-2.177v-1.244c.133-2.344 2.072-4.176 4.419-4.176s4.294 1.84 4.419 4.176v1.244h-2.206v4.447h1.457v.071a1.78 1.78 0 0 1-1.753 1.753h-1.74c-.141 0-.297.07-.297.212.008.153.136.29.297.297h1.753a2.28 2.28 0 0 0 1.596-.667c.423-.424.663-.997.667-1.596V29.5c.416-.095.787-.329 1.052-.663s.408-.749.405-1.175v-3.79c.079-3.211-2.466-5.77-5.7-5.77z" fill="#fff"/><path d="M57.98 30V19.92h5.88v1.246h-4.634v3.171h3.794v1.246h-3.794V30H57.98zm7.137 0v-7.56h1.113v1.827l-.182-.238c.089-.233.203-.448.343-.644s.306-.357.483-.483a2.14 2.14 0 0 1 .665-.364 2.82 2.82 0 0 1 .756-.147c.257-.019.497-.002.721.049v1.169a2.36 2.36 0 0 0-.861-.056 1.75 1.75 0 0 0-.868.343 1.87 1.87 0 0 0-.567.63 2.74 2.74 0 0 0-.273.805c-.051.285-.077.576-.077.875V30h-1.253zm8.362.21c-.742 0-1.391-.163-1.946-.49a3.43 3.43 0 0 1-1.288-1.379c-.308-.593-.462-1.283-.462-2.072 0-.826.152-1.54.455-2.142s.726-1.073 1.267-1.4 1.185-.497 1.918-.497c.761 0 1.407.175 1.939.525s.938.849 1.204 1.498.387 1.421.35 2.317h-1.26v-.448c-.014-.929-.203-1.622-.567-2.079s-.905-.693-1.624-.693c-.77 0-1.356.247-1.757.742s-.602 1.204-.602 2.128c0 .891.201 1.582.602 2.072s.973.735 1.715.735c.499 0 .933-.114 1.302-.343s.658-.558.868-.987l1.197.413a3.39 3.39 0 0 1-1.33 1.554c-.588.364-1.248.546-1.981.546zm-2.793-3.64v-1.001h5.586v1.001h-5.586zm10.644 3.633c-.901 0-1.64-.196-2.219-.588a2.48 2.48 0 0 1-1.057-1.659l1.274-.203c.103.411.338.737.707.98s.826.357 1.372.357c.518 0 .924-.107 1.218-.322s.441-.506.441-.875c0-.215-.049-.387-.147-.518s-.301-.261-.609-.378-.763-.257-1.379-.42c-.667-.177-1.192-.362-1.575-.553s-.656-.413-.819-.665-.245-.558-.245-.917c0-.443.121-.831.364-1.162s.581-.595 1.015-.777.947-.273 1.526-.273 1.087.091 1.54.273.817.441 1.092.777a2.14 2.14 0 0 1 .497 1.162l-1.274.231c-.061-.406-.257-.726-.588-.959s-.749-.357-1.267-.371c-.49-.019-.889.068-1.197.259s-.455.45-.455.777c0 .182.056.338.168.469s.329.254.637.371.765.25 1.358.399c.667.168 1.192.352 1.575.553s.663.429.826.7.245.595.245.987c0 .728-.268 1.302-.805 1.722s-1.276.623-2.219.623zM91.281 30v-3.787c0-.359-.033-.705-.098-1.036a2.6 2.6 0 0 0-.329-.889 1.7 1.7 0 0 0-.63-.63c-.261-.154-.593-.231-.994-.231-.313 0-.597.054-.854.161a1.67 1.67 0 0 0-.651.476c-.182.215-.324.485-.427.812s-.147.702-.147 1.141l-.819-.252c0-.733.131-1.36.392-1.883a2.86 2.86 0 0 1 1.113-1.211c.481-.285 1.045-.427 1.694-.427.49 0 .908.077 1.253.231s.632.359.861.616a2.91 2.91 0 0 1 .539.854c.131.313.222.632.273.959a5.36 5.36 0 0 1 .084.917V30h-1.26zm-5.39 0V19.92h1.12v5.565h.14V30h-1.26zm11.655.21c-.765 0-1.416-.17-1.953-.511s-.938-.819-1.218-1.421-.425-1.288-.434-2.058c.009-.789.156-1.482.441-2.079s.702-1.071 1.239-1.407 1.183-.504 1.939-.504c.798 0 1.484.196 2.058.588.579.392.966.929 1.162 1.61l-1.232.371c-.159-.439-.418-.779-.777-1.022s-.763-.364-1.225-.364c-.518 0-.945.121-1.281.364s-.586.569-.749.994-.247.903-.252 1.449c.009.84.203 1.519.581 2.037s.95.77 1.701.77c.495 0 .905-.112 1.232-.336s.574-.558.742-.987l1.26.329c-.261.705-.67 1.244-1.225 1.617s-1.225.56-2.009.56zm10.046-.21v-3.787a5.37 5.37 0 0 0-.098-1.036 2.62 2.62 0 0 0-.329-.889 1.7 1.7 0 0 0-.63-.63c-.262-.154-.593-.231-.994-.231a2.19 2.19 0 0 0-.854.161 1.67 1.67 0 0 0-.651.476 2.3 2.3 0 0 0-.427.812c-.098.322-.147.702-.147 1.141l-.819-.252c0-.733.13-1.36.392-1.883a2.86 2.86 0 0 1 1.113-1.211c.48-.285 1.045-.427 1.694-.427.49 0 .907.077 1.253.231a2.5 2.5 0 0 1 .861.616 2.93 2.93 0 0 1 .539.854c.13.313.221.632.273.959a5.36 5.36 0 0 1 .084.917V30h-1.26zm-5.39 0V19.92h1.12v5.565h.14V30h-1.26zm10.618.21c-.564 0-1.038-.103-1.421-.308s-.665-.485-.861-.826a2.25 2.25 0 0 1-.287-1.12c0-.397.075-.74.224-1.029.154-.294.369-.537.644-.728s.605-.35.987-.462a11.34 11.34 0 0 1 1.204-.252l1.358-.203 1.281-.175-.448.259c.014-.672-.121-1.169-.406-1.491s-.765-.483-1.456-.483c-.457 0-.858.105-1.204.315-.34.205-.581.541-.721 1.008l-1.183-.357c.182-.663.535-1.183 1.057-1.561s1.211-.567 2.065-.567c.686 0 1.274.124 1.764.371a2.15 2.15 0 0 1 1.064 1.106c.108.233.175.488.203.763s.042.555.042.854V30h-1.106v-1.813l.259.168c-.284.611-.683 1.073-1.197 1.386-.508.313-1.129.469-1.862.469zm.189-1.043c.448 0 .836-.079 1.162-.238.332-.163.598-.376.798-.637s.332-.555.392-.868c.07-.233.108-.492.112-.777l.014-.665.434.189-1.197.161-1.113.168c-.35.056-.665.124-.945.203-.205.065-.399.149-.581.252-.177.103-.322.236-.434.399-.107.159-.161.357-.161.595a1.21 1.21 0 0 0 .154.588c.108.187.271.338.49.455.224.117.516.175.875.175zm9.758.833c-.448.089-.891.124-1.33.105-.434-.014-.821-.1-1.162-.259s-.599-.415-.777-.756c-.149-.299-.231-.6-.245-.903l-.014-1.043V20.34h1.246v6.748l.007.791c.01.219.059.408.147.567.168.299.434.474.798.525s.812.037 1.33-.042V30zm-5.061-6.531V22.44h5.061v1.029h-5.061z" fill="#475367"/><defs><linearGradient id="A" x1="71" y1="1" x2="71" y2="49" gradientUnits="userSpaceOnUse"><stop stop-color="#e4e7ec"/><stop offset="1" stop-color="#fff"/></linearGradient></defs></svg>