<svg xmlns="http://www.w3.org/2000/svg" width="40" height="40" fill="none" xmlns:v="https://vecta.io/nano"><rect width="40" height="40" rx="4" fill="#def6e9"/><path d="M19.958 7.556h9.348c.413-.004.823.075 1.206.232s.73.388 1.022.68.523.64.68 1.022a3.11 3.11 0 0 1 .232 1.206v9.347c-.001 3.289-1.308 6.443-3.633 8.769s-5.48 3.633-8.769 3.633h-.071c-1.63.002-3.244-.317-4.75-.94s-2.875-1.535-4.028-2.687-2.068-2.519-2.692-4.025-.945-3.119-.945-4.749c0-6.873 5.543-12.416 12.402-12.486l-.001-.002z" fill="#25c16f"/><path d="M19.958 13.099a5.7 5.7 0 0 0-5.699 5.699v3.875a1.94 1.94 0 0 0 1.895 1.895h1.612v-4.447h-2.177v-1.244c.133-2.344 2.072-4.176 4.419-4.176s4.294 1.84 4.419 4.176v1.244h-2.206v4.447h1.457v.071a1.78 1.78 0 0 1-1.753 1.753h-1.74c-.141 0-.297.07-.297.212.008.153.136.29.297.297h1.753c.599-.004 1.172-.243 1.596-.667s.663-.997.667-1.596v-.141c.416-.095.787-.329 1.052-.663s.408-.749.405-1.175v-3.79c.079-3.211-2.466-5.77-5.7-5.77z" fill="#fff"/></svg>