<svg width="26" height="26" viewBox="0 0 26 26" fill="none" xmlns="http://www.w3.org/2000/svg">
<path d="M12.9561 0.55871H22.3038C22.7171 0.555132 23.127 0.633895 23.5095 0.790405C23.8921 0.946916 24.2396 1.17804 24.5319 1.47029C24.8241 1.76254 25.0552 2.11007 25.2118 2.49259C25.3683 2.87512 25.447 3.28498 25.4435 3.69827V13.0456C25.4426 16.3346 24.1357 19.4885 21.81 21.8142C19.4843 24.1398 16.3303 25.4467 13.0412 25.4475H12.9707C11.3409 25.4493 9.72679 25.13 8.22049 24.5077C6.71419 23.8855 5.34526 22.9725 4.19194 21.8211C3.03869 20.6695 2.12384 19.3018 1.49972 17.7962C0.875605 16.2907 0.554469 14.6769 0.554688 13.0472C0.554688 6.17465 6.09796 0.631545 12.9569 0.56101L12.9561 0.55871Z" fill="#25C16F"/>
<path d="M12.9567 6.10156C11.4453 6.10156 9.99574 6.70196 8.92699 7.77068C7.85823 8.8394 7.25781 10.2889 7.25781 11.8003V15.6751C7.26913 16.1742 7.47244 16.6497 7.82546 17.0027C8.17847 17.3557 8.654 17.559 9.15311 17.5703H10.7655V13.1236H8.58805V11.8793C8.72069 9.53553 10.6597 7.70316 13.0073 7.70316C15.355 7.70316 17.3009 9.54319 17.4266 11.8793V13.1236H15.2208V17.5703H16.6776V17.6409C16.6702 18.1036 16.4832 18.5454 16.1559 18.8726C15.8286 19.1999 15.3869 19.387 14.9241 19.3943H13.1837C13.0426 19.3943 12.887 19.4648 12.887 19.6066C12.8946 19.76 13.0227 19.8965 13.1837 19.9034H14.9371C15.536 19.8995 16.1093 19.6599 16.5328 19.2365C16.9563 18.813 17.1959 18.2397 17.1997 17.6409V17.4998C17.6155 17.4049 17.9865 17.171 18.2513 16.8367C18.5162 16.5024 18.6591 16.0878 18.6564 15.6613V11.8716C18.7354 8.66074 16.1899 6.10156 12.9567 6.10156Z" fill="white"/>
</svg>
