<svg xmlns="http://www.w3.org/2000/svg" width="763" height="135" fill="none" xmlns:v="https://vecta.io/nano"><path d="M224 32h539v94a6 6 0 0 1-6 6H224V32z" fill="#fff"/><path d="M246.487 50.939c.091-.046.176-.068.253-.068.151 0 .276.098.376.294.055.109.082.205.082.287 0 .15-.093.271-.28.362l-4.594 2.201 4.594 2.201c.187.091.28.212.28.362 0 .082-.027.178-.082.287-.1.196-.225.294-.376.294-.077 0-.162-.023-.253-.068l-5.311-2.605c-.114-.055-.196-.118-.246-.191s-.076-.166-.076-.28.026-.207.076-.28.132-.137.246-.191l5.311-2.605zm8.258.595c.187 0 .319.034.397.102s.116.182.116.342v1.299c0 .159-.039.273-.116.342s-.21.102-.397.102c-.155 0-.264-.059-.328-.178a1.63 1.63 0 0 0-.855-.786c-.373-.155-.847-.232-1.421-.232-.442 0-.789.08-1.039.239a.73.73 0 0 0-.37.656.48.48 0 0 0 .137.355c.096.091.235.166.417.226.151.05.324.089.52.116l.772.089 1.067.144c.273.041.53.105.772.191.365.132.647.324.848.574s.307.581.307.991-.105.77-.314 1.08-.508.542-.909.711-.873.253-1.429.253c-.492 0-.925-.068-1.299-.205a2.65 2.65 0 0 1-.977-.622v.383c0 .16-.039.273-.117.342s-.209.102-.396.102-.319-.034-.397-.102-.116-.182-.116-.342v-1.641c0-.159.039-.273.116-.342s.21-.102.397-.102c.096 0 .171.023.225.068s.103.112.144.212c.164.438.438.756.82.957s.894.301 1.532.301c.528 0 .934-.096 1.216-.287s.424-.447.424-.766a.52.52 0 0 0-.15-.383c-.1-.1-.244-.182-.431-.246-.159-.05-.344-.091-.554-.123l-.786-.102-1.073-.144c-.287-.05-.551-.123-.793-.219-.333-.132-.592-.314-.779-.547s-.274-.545-.274-.923c0-.396.103-.736.308-1.018s.497-.504.861-.649.786-.219 1.251-.219c.442 0 .846.066 1.21.198s.686.317.95.554v-.308c0-.16.039-.273.117-.342s.209-.102.396-.102zm8.702 0c.187 0 .319.034.397.102s.116.182.116.342v1.983c0 .16-.039.273-.116.342s-.21.102-.397.102-.319-.034-.396-.102-.116-.182-.116-.342a1.28 1.28 0 0 0-.219-.738c-.146-.214-.365-.381-.656-.499s-.634-.178-1.039-.178c-.438 0-.83.098-1.176.294a2.1 2.1 0 0 0-.814.82c-.196.351-.294.745-.294 1.183s.091.839.274 1.189.446.618.779.814a2.27 2.27 0 0 0 1.162.294 3.91 3.91 0 0 0 1.217-.191 3.72 3.72 0 0 0 1.08-.567c.096-.073.185-.109.267-.109.132 0 .255.093.369.28.068.114.102.223.102.328 0 .16-.073.292-.218.396a4.25 4.25 0 0 1-1.292.643c-.497.155-1.005.232-1.525.232-.652 0-1.228-.144-1.729-.431s-.882-.681-1.156-1.183-.41-1.066-.41-1.695.139-1.194.417-1.695.666-.896 1.162-1.183c.502-.287 1.074-.431 1.716-.431.406 0 .777.075 1.114.226.342.146.632.355.869.629v-.41c0-.16.038-.273.116-.342s.209-.102.396-.102zm8.026 0c.355 0 .688.091.998.273.182.109.273.251.273.424 0 .082-.02.178-.061.287-.096.26-.228.39-.397.39-.068 0-.132-.018-.191-.055a1.47 1.47 0 0 0-.718-.184c-.41 0-.823.144-1.237.431a3.34 3.34 0 0 0-1.026 1.135c-.264.474-.396.977-.396 1.511v1.326h2.303c.155 0 .265.036.329.109s.102.187.102.356-.034.289-.102.362-.174.102-.329.102h-4.402c-.155 0-.266-.034-.335-.102-.064-.073-.096-.194-.096-.362s.032-.287.096-.356c.069-.073.18-.109.335-.109h1.073v-4.457h-.868c-.155 0-.266-.034-.335-.103-.064-.073-.095-.194-.095-.362s.031-.287.095-.355c.069-.073.18-.109.335-.109h1.395c.155 0 .264.037.328.109s.102.187.102.355v1.381c.219-.401.483-.752.793-1.053s.641-.533.992-.697.697-.246 1.039-.246zm6.548.15c.155 0 .265.037.329.109s.102.187.102.355v4.922h2.194c.155 0 .265.036.329.109s.102.187.102.356-.034.289-.102.362-.174.102-.329.102h-5.359c-.155 0-.266-.034-.335-.102s-.096-.194-.096-.362.032-.287.096-.356.18-.109.335-.109h2.14v-4.457h-1.73c-.155 0-.266-.034-.335-.103-.063-.073-.095-.194-.095-.362s.032-.287.095-.355c.069-.073.18-.109.335-.109h2.324zm-.218-3.001c.25 0 .421.034.512.103s.137.178.137.342v.889c0 .164-.045.28-.137.349s-.262.096-.512.096-.422-.032-.513-.096-.137-.185-.137-.349v-.889c0-.164.046-.278.137-.342s.262-.103.513-.103zm8.743 2.851a2.88 2.88 0 0 1 1.517.403c.447.264.798.647 1.053 1.148s.383 1.082.383 1.757-.128 1.262-.383 1.764-.606.88-1.053 1.148-.952.396-1.517.396c-.857 0-1.579-.376-2.167-1.128v2.7h1.176c.155 0 .264.034.328.102s.102.194.102.362-.034.287-.102.355-.173.109-.328.109h-2.899c-.155 0-.266-.036-.335-.109s-.095-.187-.095-.355.031-.289.095-.362.18-.102.335-.102h.698v-7.109h-.561c-.155 0-.267-.034-.335-.103s-.096-.194-.096-.362.032-.287.096-.355.18-.109.335-.109h1.087c.155 0 .264.037.328.109s.103.187.103.355v.547c.287-.374.619-.661.998-.861s.79-.301 1.237-.301zm-.068 1.012a2.15 2.15 0 0 0-1.087.273c-.315.182-.563.447-.745.793s-.267.757-.267 1.23.089.884.267 1.23.43.611.745.793a2.15 2.15 0 0 0 1.087.273c.405 0 .754-.096 1.045-.287s.513-.467.664-.813.232-.745.232-1.196-.078-.85-.232-1.196-.372-.615-.664-.807-.64-.294-1.045-.294zm7.02-2.809c.187 0 .319.034.397.102s.116.182.116.342v2.051h2.809c.155 0 .265.036.328.109.069.068.103.187.103.356s-.034.289-.103.362c-.063.068-.173.103-.328.103h-2.809v2.488c0 .52.089.9.266 1.142.183.242.497.362.944.362.305 0 .626-.061.964-.184a4.79 4.79 0 0 0 .977-.492c.064-.046.135-.068.212-.068.155 0 .287.105.397.314.059.119.088.221.088.308 0 .146-.075.264-.225.355-.356.223-.752.408-1.19.554a3.99 3.99 0 0 1-1.223.212c-.775 0-1.342-.2-1.702-.602s-.534-1.009-.534-1.812V53.16h-1.387c-.155 0-.267-.034-.335-.103s-.096-.194-.096-.362.032-.287.096-.356.18-.109.335-.109h1.387V50.18c0-.159.039-.273.117-.342s.209-.102.396-.102zm12.482 3.808a.62.62 0 0 1 .247.191c.05.073.075.166.075.28s-.025.207-.075.28a.62.62 0 0 1-.247.191l-5.311 2.605c-.091.046-.176.068-.253.068-.15 0-.276-.098-.376-.294-.055-.109-.082-.205-.082-.287 0-.15.093-.271.28-.362l4.594-2.201-4.594-2.201c-.187-.091-.28-.212-.28-.362 0-.082.027-.178.082-.287.1-.196.226-.294.376-.294.077 0 .162.023.253.068l5.311 2.605z" fill="#1a926e"/><path d="M347.536 74.19c.155 0 .264.036.328.109.069.068.103.187.103.356s-.034.289-.103.362c-.064.068-.173.103-.328.103h-5.209c-.155 0-.266-.034-.335-.103s-.096-.194-.096-.362.032-.287.096-.356.18-.109.335-.109h5.209zm0 2.734c.155 0 .264.037.328.109.069.068.103.187.103.356s-.034.289-.103.362c-.064.068-.173.102-.328.102h-5.209c-.155 0-.266-.034-.335-.102s-.096-.194-.096-.362.032-.287.096-.356.18-.109.335-.109h5.209zm-67.546 37.547c.183 0 .333.034.451.102s.178.155.178.26c0 .036-.007.075-.02.116l-4.594 11.232c-.032.073-.089.132-.171.177s-.169.069-.273.069a.89.89 0 0 1-.452-.103c-.118-.068-.177-.155-.177-.26a.36.36 0 0 1 .02-.116l4.594-11.231c.032-.073.086-.132.164-.178a.56.56 0 0 1 .28-.068zm8.395 0c.182 0 .332.034.451.102s.178.155.178.26a.36.36 0 0 1-.021.116l-4.594 11.232c-.031.073-.088.132-.17.177a.53.53 0 0 1-.274.069c-.182 0-.333-.034-.451-.103s-.178-.155-.178-.26a.36.36 0 0 1 .021-.116l4.593-11.231a.39.39 0 0 1 .164-.178c.083-.046.176-.068.281-.068zm48.152 5.263c-.328 0-.565-.032-.711-.095-.141-.069-.212-.18-.212-.335v-1.258c0-.155.071-.264.212-.328.146-.069.383-.103.711-.103s.563.034.704.103c.146.064.219.173.219.328v1.258c0 .155-.073.266-.219.335-.141.063-.376.095-.704.095zm0 4.334c-.328 0-.565-.032-.711-.095-.141-.069-.212-.18-.212-.335v-1.258c0-.155.071-.264.212-.328.146-.069.383-.103.711-.103s.563.034.704.103c.146.064.219.173.219.328v1.258c0 .155-.073.266-.219.335-.141.063-.376.095-.704.095z" fill="#fff"/><path d="M261.191 71.886c.534 0 .987.091 1.361.273a1.88 1.88 0 0 1 .841.772c.191.328.287.713.287 1.155a1.77 1.77 0 0 1-.24.923c-.155.264-.378.481-.669.649.483.155.852.406 1.107.752s.39.766.39 1.271c0 .479-.103.891-.308 1.237s-.504.613-.896.8-.865.28-1.421.28h-3.876c-.155 0-.267-.034-.335-.103s-.096-.194-.096-.362.032-.287.096-.356.18-.109.335-.109h.834v-6.255h-.834c-.155 0-.267-.034-.335-.102s-.096-.194-.096-.362.032-.287.096-.356.18-.109.335-.109h3.424zm-1.565 3.459h1.415c.524 0 .921-.109 1.189-.328s.404-.529.404-.93c0-.419-.132-.736-.397-.95s-.663-.321-1.196-.321h-1.415v2.529zm0 3.726h1.812c.56 0 .991-.121 1.291-.362.306-.242.459-.583.459-1.025 0-.939-.572-1.408-1.716-1.408h-1.846v2.796zm9.755-7.335c.711 0 1.337.175 1.88.526s.968.845 1.264 1.483c.301.634.452 1.367.452 2.201s-.151 1.57-.452 2.208c-.296.633-.717 1.126-1.264 1.477s-1.169.52-1.88.52-1.34-.173-1.887-.52-.964-.843-1.265-1.477-.444-1.374-.444-2.208.148-1.568.444-2.201.723-1.132 1.265-1.483 1.176-.526 1.887-.526zm0 1.012c-.501 0-.943.13-1.326.39s-.673.631-.882 1.114-.308 1.048-.308 1.695.103 1.212.308 1.695.503.848.882 1.107.825.39 1.326.39.941-.13 1.319-.39c.383-.26.677-.629.882-1.107s.314-1.048.314-1.695-.104-1.212-.314-1.695-.499-.855-.882-1.114c-.378-.26-.818-.39-1.319-.39zm11.327-.861c.155 0 .264.037.328.109s.103.187.103.356v2.577c0 .159-.039.273-.117.342s-.209.103-.396.103-.319-.034-.397-.103-.116-.182-.116-.342v-2.112h-1.825v6.255h1.613c.155 0 .265.037.328.109.069.068.103.187.103.356s-.034.289-.103.362c-.063.068-.173.103-.328.103h-4.252c-.155 0-.266-.034-.335-.103-.063-.073-.095-.194-.095-.362s.032-.287.095-.356c.069-.073.18-.109.335-.109h1.614v-6.255h-1.825v2.112c0 .159-.039.273-.117.342s-.209.103-.396.103-.319-.034-.397-.103-.116-.182-.116-.342v-2.577c0-.169.032-.287.096-.356s.18-.109.335-.109h5.865zm5.38-.15c.497 0 .952.114 1.367.342s.757.558 1.012.991c.351.602.526 1.374.526 2.317 0 .788-.168 1.534-.506 2.235-.332.702-.866 1.287-1.599 1.757s-1.659.722-2.789.773c-.123.004-.221-.037-.294-.123s-.103-.246-.103-.478c0-.141.021-.242.062-.301s.109-.098.191-.103c1.212-.064 2.144-.376 2.796-.936s1.041-1.331 1.169-2.297c-.237.31-.529.549-.875.718s-.716.253-1.107.253a2.87 2.87 0 0 1-1.361-.321c-.401-.214-.718-.517-.95-.909s-.342-.843-.342-1.353c0-.492.116-.932.349-1.319s.56-.697.984-.916c.429-.219.918-.328 1.47-.328zm0 1.012c-.346 0-.65.064-.909.191a1.4 1.4 0 0 0-.602.547c-.141.232-.212.504-.212.813s.069.59.205.827a1.46 1.46 0 0 0 .595.554c.26.128.567.191.923.191.333 0 .631-.061.895-.185s.47-.301.616-.519a1.34 1.34 0 0 0 .225-.766c0-.319-.073-.604-.219-.855s-.344-.447-.608-.588-.563-.212-.909-.212zm12.708 8.976c.055 0 .093.03.116.089s.041.185.041.376-.014.317-.041.376-.061.089-.116.089h-8.463c-.055 0-.093-.03-.116-.089s-.041-.185-.041-.376.013-.317.041-.376.061-.089.116-.089h8.463zm4.163-9.837c.715 0 1.344.164 1.887.492s.961.793 1.258 1.408.451 1.331.451 2.16-.151 1.55-.451 2.16-.716 1.08-1.258 1.408-1.172.485-1.887.485h-3.22c-.155 0-.266-.034-.335-.103s-.095-.194-.095-.362.031-.287.095-.356.18-.109.335-.109h.766v-6.255h-.766c-.155 0-.266-.034-.335-.102s-.095-.194-.095-.362.031-.287.095-.356.18-.109.335-.109h3.22zm-1.429 7.185h1.272c.542 0 1.014-.118 1.415-.356s.711-.595.929-1.059.329-1.039.329-1.709-.11-1.237-.329-1.702a2.37 2.37 0 0 0-.929-1.066c-.401-.242-.873-.362-1.415-.362h-1.272v6.255zm10.001-7.185c.183 0 .328.037.438.109s.198.18.253.335l2.413 6.74h.417c.155 0 .264.037.328.109s.102.187.102.356-.034.289-.102.362-.173.103-.328.103h-2.42c-.155 0-.267-.034-.335-.103s-.096-.194-.096-.362.032-.287.096-.356.18-.109.335-.109h.923l-.561-1.627h-3.315l-.568 1.627h.827c.155 0 .265.037.329.109s.102.187.102.356-.034.289-.102.362-.174.103-.329.103h-2.283c-.155 0-.266-.034-.335-.103-.063-.073-.095-.194-.095-.362s.032-.287.095-.356c.069-.073.18-.109.335-.109h.383l2.263-6.255h-1.279c-.154 0-.266-.034-.334-.102s-.096-.194-.096-.362.032-.287.096-.356.18-.109.334-.109h2.509zm-.253.93L310 76.514h2.68l-1.272-3.698h-.13zm11.403-.93c.155 0 .264.037.328.109s.102.187.102.356v2.577c0 .159-.038.273-.116.342s-.21.103-.396.103-.319-.034-.397-.103-.116-.182-.116-.342v-2.112h-1.825v6.255h1.613c.155 0 .264.037.328.109s.103.187.103.356-.034.289-.103.362-.173.103-.328.103h-4.252c-.155 0-.267-.034-.335-.103s-.096-.194-.096-.362.032-.287.096-.356.18-.109.335-.109h1.613v-6.255h-1.825v2.112c0 .159-.039.273-.116.342s-.21.103-.397.103-.319-.034-.396-.103-.116-.182-.116-.342v-2.577c0-.169.032-.287.095-.356.069-.073.18-.109.335-.109h5.866zm5.639 0c.183 0 .328.037.438.109s.198.18.253.335l2.413 6.74h.417c.155 0 .264.037.328.109s.102.187.102.356-.034.289-.102.362-.173.103-.328.103h-2.42c-.155 0-.267-.034-.335-.103s-.096-.194-.096-.362.032-.287.096-.356.18-.109.335-.109h.923l-.561-1.627h-3.315l-.568 1.627h.828c.154 0 .264.037.328.109s.102.187.102.356-.034.289-.102.362-.174.103-.328.103h-2.284c-.155 0-.266-.034-.335-.103-.063-.073-.095-.194-.095-.362s.032-.287.095-.356c.069-.073.18-.109.335-.109h.383l2.263-6.255h-1.278c-.155 0-.267-.034-.335-.102s-.096-.194-.096-.362.032-.287.096-.356.18-.109.335-.109h2.508zm-.253.93l-1.278 3.698h2.68l-1.272-3.698h-.13z" fill="#318dd8"/><path d="M363.86 70.621c.155 0 .265.039.328.116.069.073.103.198.103.376s-.034.305-.103.383c-.063.073-.173.109-.328.109-.483 0-.863.066-1.141.198a1.14 1.14 0 0 0-.581.622c-.11.278-.155.645-.137 1.101l.02.492c.023.547-.093 1-.348 1.36s-.666.652-1.244.889v.068c.574.169.989.417 1.244.745s.389.736.389 1.237l-.006.225-.055.827c-.005.059-.007.146-.007.26 0 .579.148 1 .444 1.265s.775.397 1.422.397c.155 0 .265.037.328.109.069.077.103.205.103.383s-.034.303-.103.376c-.063.077-.173.116-.328.116-.916 0-1.629-.205-2.139-.615s-.759-1.025-.759-1.846l.014-.362.075-.841.013-.273c0-.515-.152-.9-.458-1.155s-.786-.39-1.442-.39c-.155 0-.267-.036-.335-.109s-.096-.205-.096-.383.032-.303.096-.376.18-.116.335-.116c.634 0 1.101-.144 1.401-.431s.452-.695.452-1.224l-.007-.205-.034-.506-.014-.294c0-.843.251-1.474.752-1.894.506-.424 1.221-.636 2.146-.636z" fill="#ee46bc"/><path d="M275.554 93.031c.155 0 .264.037.328.109s.102.187.102.355v3.165c.588-.752 1.311-1.128 2.167-1.128.565 0 1.071.134 1.518.403s.797.647 1.053 1.148.382 1.082.382 1.757-.127 1.262-.382 1.763a2.8 2.8 0 0 1-1.053 1.149c-.447.264-.953.396-1.518.396-.446 0-.859-.1-1.237-.3s-.711-.488-.998-.862v.547c0 .169-.034.29-.103.362-.063.069-.173.103-.328.103h-1.087c-.155 0-.266-.034-.335-.103-.063-.072-.095-.193-.095-.362s.032-.287.095-.355c.069-.073.18-.11.335-.11h.561v-7.109h-.697c-.155 0-.267-.034-.335-.102s-.096-.194-.096-.362.032-.287.096-.355.18-.109.335-.109h1.292zm2.529 3.514a2.15 2.15 0 0 0-1.087.273 1.93 1.93 0 0 0-.745.793c-.178.346-.267.757-.267 1.231s.089.884.267 1.23.431.611.745.793c.319.183.681.274 1.087.274s.754-.096 1.046-.287a1.83 1.83 0 0 0 .663-.814c.155-.346.232-.745.232-1.196s-.077-.85-.232-1.196c-.15-.346-.371-.615-.663-.807s-.64-.294-1.046-.294zm8.087-1.012c.624 0 1.187.141 1.688.424s.894.677 1.176 1.183c.287.501.431 1.069.431 1.702s-.144 1.203-.431 1.709c-.282.501-.674.893-1.176 1.176s-1.064.423-1.688.423-1.187-.141-1.689-.423a3.09 3.09 0 0 1-1.182-1.176 3.44 3.44 0 0 1-.424-1.709c0-.634.141-1.201.424-1.702a3.07 3.07 0 0 1 1.182-1.183c.502-.282 1.065-.424 1.689-.424zm0 1.012c-.442 0-.832.098-1.169.294s-.59.463-.772.813-.274.743-.274 1.19.091.845.274 1.196a2.01 2.01 0 0 0 .772.814c.337.191.727.287 1.169.287s.829-.096 1.162-.287a2 2 0 0 0 .779-.814c.183-.351.274-.75.274-1.196s-.091-.843-.274-1.19-.442-.622-.779-.813-.72-.294-1.162-.294zm7.328-2.809c.187 0 .319.034.397.103s.116.182.116.342v2.051h2.809c.155 0 .265.036.328.109.069.068.103.187.103.356s-.034.289-.103.362c-.063.068-.173.103-.328.103h-2.809v2.488c0 .52.089.901.266 1.142.183.242.497.362.944.362.305 0 .626-.061.964-.184s.663-.287.977-.492c.064-.046.135-.069.212-.069.155 0 .287.105.397.315a.71.71 0 0 1 .088.307c0 .146-.075.265-.225.356-.356.223-.752.408-1.19.553a3.97 3.97 0 0 1-1.223.212c-.775 0-1.342-.2-1.702-.601-.356-.406-.534-1.01-.534-1.812V97.16h-1.387c-.155 0-.267-.034-.335-.103s-.096-.194-.096-.362.032-.287.096-.356.18-.109.335-.109h1.387V94.18c0-.159.039-.273.117-.342s.209-.103.396-.103zm9.379 0c.497 0 .952.114 1.367.342s.757.558 1.012.991c.351.602.526 1.374.526 2.317 0 .788-.168 1.534-.506 2.235-.332.702-.866 1.288-1.599 1.757s-1.659.722-2.789.772c-.123.005-.221-.036-.294-.123s-.103-.246-.103-.478c0-.141.021-.242.062-.301.045-.064.109-.098.191-.102 1.212-.064 2.144-.376 2.796-.937s1.041-1.331 1.169-2.297c-.237.31-.529.549-.875.718s-.716.253-1.107.253a2.87 2.87 0 0 1-1.361-.321c-.401-.214-.718-.517-.95-.909s-.342-.843-.342-1.353c0-.492.116-.932.349-1.319s.56-.697.984-.916a3.19 3.19 0 0 1 1.47-.328zm0 1.012a2.04 2.04 0 0 0-.909.191 1.4 1.4 0 0 0-.602.547c-.141.232-.212.504-.212.813s.069.59.205.827a1.46 1.46 0 0 0 .595.554c.26.128.567.191.923.191.333 0 .631-.061.895-.185s.47-.301.616-.519a1.34 1.34 0 0 0 .225-.766c0-.319-.073-.604-.218-.855a1.49 1.49 0 0 0-.609-.588c-.26-.141-.563-.212-.909-.212zm10.739-.861c.155 0 .265.037.328.109.069.068.103.187.103.356s-.034.289-.103.362c-.063.068-.173.102-.328.102h-1.75v6.255h1.887c.155 0 .264.037.328.11.068.068.103.187.103.355s-.035.29-.103.362-.173.103-.328.103h-4.799c-.155 0-.266-.034-.335-.103s-.096-.193-.096-.362.032-.287.096-.355c.069-.073.18-.11.335-.11h1.887v-6.255h-1.75c-.155 0-.267-.034-.335-.102s-.096-.194-.096-.362.032-.287.096-.356.18-.109.335-.109h4.525zm8.518-.855c.155 0 .264.037.328.109s.102.187.102.355v7.574h.561c.155 0 .264.037.328.11.068.068.103.187.103.355s-.035.29-.103.362-.173.103-.328.103h-1.087c-.155 0-.267-.034-.335-.103s-.096-.193-.096-.362v-.547c-.287.374-.619.661-.998.862s-.79.3-1.237.3c-.565 0-1.071-.132-1.518-.396-.446-.269-.797-.652-1.052-1.149s-.383-1.089-.383-1.763.128-1.26.383-1.757.606-.884 1.052-1.148.953-.403 1.518-.403c.857 0 1.579.376 2.167 1.128v-2.7h-1.107c-.155 0-.267-.034-.335-.102s-.096-.194-.096-.362.032-.287.096-.355.18-.109.335-.109h1.702zm-2.694 3.514c-.405 0-.754.098-1.045.294a1.83 1.83 0 0 0-.67.807c-.151.346-.226.745-.226 1.196s.075.85.226 1.196a1.88 1.88 0 0 0 .67.814c.291.191.64.287 1.045.287a2.11 2.11 0 0 0 1.081-.274 1.87 1.87 0 0 0 .745-.793c.182-.346.273-.756.273-1.23s-.091-.884-.273-1.231-.426-.611-.745-.793-.675-.273-1.081-.273zm8.703 1.189c-.329 0-.566-.032-.711-.096s-.212-.18-.212-.335v-1.258c0-.155.07-.264.212-.328s.382-.103.711-.103.562.034.704.103.218.173.218.328v1.258c0 .155-.072.267-.218.335s-.376.096-.704.096zm0 4.334c-.329 0-.566-.032-.711-.095-.142-.069-.212-.18-.212-.335v-1.258c0-.155.07-.264.212-.328s.382-.103.711-.103.562.034.704.103.218.173.218.328v1.258c0 .155-.072.266-.218.335-.142.063-.376.095-.704.095z" fill="#5bafc2"/><path d="M343.92 93.325c.214 0 .308.114.28.342l-.376 3.076c-.013.118-.061.21-.143.273s-.185.096-.322.096-.239-.032-.321-.096-.13-.155-.143-.273l-.376-3.076c-.028-.228.066-.342.28-.342h1.121zm3.144 0c.215 0 .308.114.281.342l-.376 3.076c-.014.118-.062.21-.144.273s-.184.096-.321.096-.239-.032-.321-.096-.13-.155-.144-.273l-.376-3.076c-.027-.228.066-.342.28-.342h1.121zm6.29 2.208c.856 0 1.499.191 1.927.574s.643.95.643 1.702v2.72c0 .36.15.54.451.54h.239c.155 0 .265.037.328.11.069.068.103.187.103.355s-.034.29-.103.362c-.063.069-.173.103-.328.103h-.437c-.296 0-.552-.073-.766-.219s-.346-.369-.41-.656c-.374.328-.779.581-1.217.759s-.893.266-1.381.266c-.46 0-.868-.077-1.223-.232a1.93 1.93 0 0 1-.827-.69c-.201-.301-.301-.659-.301-1.074 0-.72.257-1.251.772-1.593s1.181-.519 1.996-.519a6.21 6.21 0 0 1 2.078.349v-.581c0-.442-.125-.766-.376-.971-.246-.21-.644-.314-1.196-.314a4.24 4.24 0 0 0-1.066.144c-.369.096-.72.228-1.053.396-.077.041-.148.062-.212.062-.15 0-.276-.109-.376-.328-.05-.109-.075-.201-.075-.273 0-.159.084-.282.253-.369a5.31 5.31 0 0 1 1.23-.458c.442-.109.884-.164 1.327-.164zm-.527 3.473c-.524 0-.939.091-1.244.273s-.451.463-.451.855c0 .332.114.592.342.779s.556.274.97.274c.907 0 1.725-.376 2.454-1.128v-.745a5.89 5.89 0 0 0-.998-.226 7.04 7.04 0 0 0-1.073-.082zm6.672-5.975c.155 0 .264.037.328.109s.103.187.103.355v3.165c.588-.752 1.31-1.128 2.167-1.128a2.88 2.88 0 0 1 1.517.403c.447.264.798.647 1.053 1.148s.383 1.082.383 1.757-.128 1.262-.383 1.763-.606.88-1.053 1.149c-.446.264-.952.396-1.517.396a2.61 2.61 0 0 1-1.238-.3c-.378-.201-.711-.488-.998-.862v.547c0 .169-.034.29-.102.362s-.173.103-.328.103h-1.087c-.155 0-.267-.034-.335-.103s-.096-.193-.096-.362.032-.287.096-.355c.068-.073.18-.11.335-.11h.56v-7.109h-.697c-.155 0-.267-.034-.335-.102s-.096-.194-.096-.362.032-.287.096-.355.18-.109.335-.109h1.292zm2.529 3.514c-.405 0-.768.091-1.087.273-.314.182-.562.447-.745.793-.177.346-.266.757-.266 1.231s.089.884.266 1.23a1.93 1.93 0 0 0 .745.793c.319.183.682.274 1.087.274s.755-.096 1.046-.287a1.83 1.83 0 0 0 .663-.814c.155-.346.233-.745.233-1.196s-.078-.85-.233-1.196-.371-.615-.663-.807-.64-.294-1.046-.294zm8.005-2.809a2.79 2.79 0 0 1 1.367.342c.42.228.757.558 1.012.991.351.602.526 1.374.526 2.317a5.1 5.1 0 0 1-.505 2.235c-.333.702-.866 1.288-1.6 1.757s-1.659.722-2.789.772c-.123.005-.221-.036-.294-.123s-.103-.246-.103-.478c0-.141.021-.242.062-.301.046-.064.109-.098.191-.102 1.213-.064 2.145-.376 2.796-.937s1.042-1.331 1.169-2.297a2.42 2.42 0 0 1-.875.718c-.346.169-.715.253-1.107.253-.501 0-.955-.107-1.361-.321a2.4 2.4 0 0 1-.95-.909c-.228-.392-.342-.843-.342-1.353 0-.492.117-.932.349-1.319a2.4 2.4 0 0 1 .984-.916 3.19 3.19 0 0 1 1.47-.328zm0 1.012a2.04 2.04 0 0 0-.909.191c-.26.128-.46.31-.602.547s-.211.504-.211.813.068.59.205.827.339.421.594.554.568.191.923.191a2.1 2.1 0 0 0 .896-.185c.264-.128.469-.301.615-.519a1.34 1.34 0 0 0 .226-.766c0-.319-.073-.604-.219-.855a1.48 1.48 0 0 0-.609-.588c-.259-.141-.562-.212-.909-.212zm8.313-1.012c.524 0 .982.093 1.374.28s.695.444.909.786.321.734.321 1.189c0 .392-.091.731-.273 1.019a1.94 1.94 0 0 1-.773.677c.415.173.736.426.964.759s.349.731.349 1.196c0 .496-.112.934-.335 1.312s-.54.672-.964.882-.93.314-1.518.314c-.446 0-.897-.077-1.353-.232s-.864-.365-1.224-.629c-.136-.1-.205-.214-.205-.342 0-.091.039-.203.116-.335.119-.191.251-.287.397-.287.073 0 .15.03.232.089a4 4 0 0 0 .978.533 3.07 3.07 0 0 0 1.059.192c.565 0 .996-.132 1.292-.397s.445-.636.445-1.1-.151-.825-.451-1.066-.714-.369-1.251-.369h-.499c-.155 0-.267-.034-.335-.103s-.096-.194-.096-.362.032-.287.096-.356.18-.109.335-.109h.376c.519 0 .913-.109 1.182-.328s.403-.538.403-.957c0-.387-.134-.69-.403-.909s-.649-.335-1.141-.335c-.529 0-.978.089-1.347.267v.458c0 .16-.039.273-.116.342s-.21.102-.397.102-.319-.034-.396-.102-.117-.182-.117-.342v-.745c0-.1.014-.18.041-.239a.41.41 0 0 1 .144-.15 4.08 4.08 0 0 1 2.181-.602zm8.586 1.798c.856 0 1.499.191 1.927.574s.643.95.643 1.702v2.72c0 .36.15.54.451.54h.239c.155 0 .265.037.329.11.068.068.102.187.102.355s-.034.29-.102.362-.174.103-.329.103h-.437c-.296 0-.552-.073-.766-.219s-.346-.369-.41-.656c-.374.328-.779.581-1.217.759s-.893.266-1.381.266c-.46 0-.868-.077-1.223-.232a1.93 1.93 0 0 1-.827-.69c-.201-.301-.301-.659-.301-1.074 0-.72.257-1.251.772-1.593s1.181-.519 1.996-.519a6.22 6.22 0 0 1 2.079.349v-.581c0-.442-.126-.766-.376-.971s-.645-.314-1.197-.314a4.24 4.24 0 0 0-1.066.144c-.369.096-.72.228-1.053.396-.077.041-.148.062-.212.062-.15 0-.275-.109-.376-.328-.05-.109-.075-.201-.075-.273 0-.159.084-.282.253-.369a5.31 5.31 0 0 1 1.23-.458c.443-.109.885-.164 1.327-.164zm-.527 3.473c-.524 0-.939.091-1.244.273s-.451.463-.451.855c0 .332.114.592.342.779s.556.274.97.274c.907 0 1.725-.376 2.455-1.128v-.745c-.31-.1-.643-.175-.998-.226a7.06 7.06 0 0 0-1.074-.082zm6.672-5.975c.155 0 .264.037.328.109.069.068.103.187.103.355v3.165c.588-.752 1.31-1.128 2.167-1.128a2.88 2.88 0 0 1 1.517.403c.447.264.798.647 1.053 1.148s.383 1.082.383 1.757-.128 1.262-.383 1.763-.606.88-1.053 1.149c-.446.264-.952.396-1.517.396-.447 0-.859-.1-1.237-.3s-.711-.488-.999-.862v.547c0 .169-.034.29-.102.362s-.173.103-.328.103h-1.087c-.155 0-.267-.034-.335-.103s-.096-.193-.096-.362.032-.287.096-.355c.068-.073.18-.11.335-.11h.56v-7.109h-.697c-.155 0-.266-.034-.335-.102-.064-.073-.096-.194-.096-.362s.032-.287.096-.355c.069-.073.18-.109.335-.109h1.292zm2.529 3.514a2.15 2.15 0 0 0-1.086.273c-.315.182-.563.447-.746.793-.177.346-.266.757-.266 1.231s.089.884.266 1.23c.183.347.431.611.746.793s.681.274 1.086.274.755-.096 1.046-.287a1.83 1.83 0 0 0 .663-.814c.155-.346.233-.745.233-1.196s-.078-.85-.233-1.196c-.15-.346-.371-.615-.663-.807s-.64-.294-1.046-.294zm10.473-3.514c.155 0 .264.037.328.109.069.068.103.187.103.355v7.574h.56c.155 0 .265.037.328.11.069.068.103.187.103.355s-.034.29-.103.362c-.063.069-.173.103-.328.103h-1.087c-.155 0-.266-.034-.335-.103-.063-.072-.095-.193-.095-.362v-.547c-.287.374-.62.661-.998.862a2.61 2.61 0 0 1-1.238.3c-.565 0-1.071-.132-1.517-.396-.447-.269-.798-.652-1.053-1.149s-.383-1.089-.383-1.763.128-1.26.383-1.757.606-.884 1.053-1.148a2.88 2.88 0 0 1 1.517-.403c.857 0 1.579.376 2.167 1.128v-2.7h-1.107c-.155 0-.267-.034-.335-.102s-.096-.194-.096-.362.032-.287.096-.355.18-.109.335-.109h1.702zm-2.693 3.514c-.406 0-.754.098-1.046.294a1.83 1.83 0 0 0-.67.807c-.15.346-.226.745-.226 1.196s.076.85.226 1.196a1.88 1.88 0 0 0 .67.814c.292.191.64.287 1.046.287a2.11 2.11 0 0 0 1.08-.274 1.87 1.87 0 0 0 .745-.793c.182-.346.273-.756.273-1.23s-.091-.884-.273-1.231-.426-.611-.745-.793-.675-.273-1.08-.273zm8.702-2.809c.583 0 1.094.175 1.531.526s.782.839 1.019 1.477.362 1.369.362 2.208-.121 1.575-.362 2.208-.575 1.126-1.012 1.477-.95.519-1.538.519-1.101-.173-1.538-.519-.777-.843-1.019-1.477-.355-1.369-.355-2.208.118-1.575.355-2.208.581-1.13 1.019-1.477.955-.526 1.538-.526zm0 1.012c-.36 0-.679.128-.957.383s-.488.617-.643 1.101-.232 1.05-.232 1.716.077 1.24.232 1.723.369.843.643 1.094a1.39 1.39 0 0 0 .957.376c.36 0 .677-.126.95-.376s.495-.616.65-1.094.232-1.057.232-1.723-.078-1.237-.232-1.716-.372-.85-.65-1.101a1.35 1.35 0 0 0-.95-.383zm10.999 2.81c.155 0 .264.037.328.109s.103.187.103.356-.035.289-.103.362-.173.103-.328.103h-5.209c-.155 0-.267-.034-.335-.103s-.096-.194-.096-.362.032-.287.096-.356.18-.109.335-.109h5.209zm6.726-3.821c.397 0 .595.178.595.533v4.341h1.108c.155 0 .264.036.328.109s.102.187.102.355-.034.289-.102.362-.173.103-.328.103h-1.108v1.531h.903c.154 0 .264.037.328.11.068.068.102.187.102.355s-.034.29-.102.362-.174.103-.328.103h-2.94c-.155 0-.267-.034-.335-.103s-.096-.193-.096-.362.032-.287.096-.355c.068-.073.18-.11.335-.11h1.012v-1.531h-3.268c-.155 0-.266-.034-.335-.103-.064-.073-.095-.194-.095-.362 0-.15.022-.258.068-.321l3.309-4.601c.1-.141.207-.246.321-.314s.257-.103.43-.103zm-2.768 4.874h2.338l.055-3.391-2.393 3.391zm11.498-5.612c.611 0 1.217.116 1.818.349.219.082.328.232.328.451 0 .05-.006.109-.02.178-.064.26-.178.39-.342.39a.46.46 0 0 1-.164-.034c-.579-.223-1.119-.335-1.62-.335-.921 0-1.381.495-1.381 1.483v.752h2.365c.155 0 .265.036.328.109.069.068.103.187.103.356s-.034.289-.103.362c-.063.068-.173.103-.328.103h-2.365v3.91h2.365c.155 0 .265.037.328.11.069.068.103.187.103.355s-.034.29-.103.362c-.063.069-.173.103-.328.103h-4.744c-.155 0-.266-.034-.335-.103-.064-.072-.095-.193-.095-.362s.031-.287.095-.355c.069-.073.18-.11.335-.11h1.354v-3.91h-1.354c-.155 0-.266-.034-.335-.103-.064-.073-.095-.194-.095-.362s.031-.287.095-.356c.069-.073.18-.109.335-.109h1.354v-.841c0-.752.209-1.338.629-1.757s1.016-.636 1.777-.636zm7.123.738c.583 0 1.094.175 1.531.526s.782.839 1.019 1.477.362 1.369.362 2.208-.121 1.575-.362 2.208-.574 1.126-1.012 1.477-.95.519-1.538.519-1.101-.173-1.538-.519-.777-.843-1.019-1.477c-.237-.633-.355-1.369-.355-2.208s.118-1.575.355-2.208c.242-.638.581-1.13 1.019-1.477s.955-.526 1.538-.526zm0 1.012c-.36 0-.679.128-.957.383s-.488.617-.643 1.101-.232 1.05-.232 1.716.077 1.24.232 1.723.37.843.643 1.094a1.39 1.39 0 0 0 .957.376c.36 0 .677-.126.95-.376.278-.251.495-.616.65-1.094s.232-1.057.232-1.723-.077-1.237-.232-1.716-.372-.85-.65-1.101a1.35 1.35 0 0 0-.95-.383zm9.331-1.012c.397 0 .595.178.595.533v4.341h1.107c.155 0 .265.036.328.109.069.068.103.187.103.355s-.034.289-.103.362c-.063.068-.173.103-.328.103h-1.107v1.531h.902c.155 0 .264.037.328.11.069.068.103.187.103.355s-.034.29-.103.362-.173.103-.328.103h-2.939c-.155 0-.267-.034-.335-.103s-.096-.193-.096-.362.032-.287.096-.355c.068-.073.18-.11.335-.11h1.011v-1.531h-3.267c-.155 0-.267-.034-.335-.103s-.096-.194-.096-.362c0-.15.023-.258.069-.321l3.308-4.601c.1-.141.207-.246.321-.314s.258-.103.431-.103zm-2.768 4.874h2.337l.055-3.391-2.392 3.391zm12.831-1.053c.155 0 .264.037.328.109s.102.187.102.356-.034.289-.102.362-.173.103-.328.103h-5.209c-.155 0-.267-.034-.335-.103s-.096-.194-.096-.362.032-.287.096-.356.18-.109.335-.109h5.209zm6.726-3.821c.397 0 .595.178.595.533v4.341h1.107c.155 0 .265.036.328.109.069.068.103.187.103.355s-.034.289-.103.362c-.063.068-.173.103-.328.103h-1.107v1.531h.902c.155 0 .265.037.328.11.069.068.103.187.103.355s-.034.29-.103.362c-.063.069-.173.103-.328.103h-2.939c-.155 0-.267-.034-.335-.103s-.096-.193-.096-.362.032-.287.096-.355c.068-.073.18-.11.335-.11h1.011v-1.531h-3.267c-.155 0-.267-.034-.335-.103s-.096-.194-.096-.362c0-.15.023-.258.069-.321l3.308-4.601c.1-.141.208-.246.321-.314s.258-.103.431-.103zm-2.768 4.874h2.337l.055-3.391-2.392 3.391zm9.994-4.874c.528 0 .991.096 1.387.287s.711.46.93.82.328.788.328 1.285c0 .465-.116.893-.348 1.285s-.586.829-1.074 1.326l-2.297 2.331h2.967v-.861c0-.16.039-.273.116-.342s.21-.103.397-.103.319.034.396.103.117.182.117.342v1.326c0 .169-.035.29-.103.362s-.173.103-.328.103h-4.744c-.155 0-.267-.034-.335-.103s-.096-.193-.096-.362.034-.296.103-.369l3.008-3.049c.419-.428.713-.784.881-1.066a1.75 1.75 0 0 0 .26-.923c0-.424-.137-.759-.41-1.005s-.652-.376-1.148-.376c-.502 0-.973.128-1.415.383v.752c0 .16-.039.273-.117.342s-.209.103-.396.103-.319-.034-.397-.103-.116-.182-.116-.342v-1.005c0-.178.053-.303.157-.376a4.07 4.07 0 0 1 1.08-.561c.388-.137.787-.205 1.197-.205zm8.545 0c.496 0 .952.114 1.367.342s.756.558 1.012.991c.35.602.526 1.374.526 2.317a5.1 5.1 0 0 1-.506 2.235c-.333.702-.866 1.288-1.6 1.757s-1.658.722-2.789.772c-.123.005-.221-.036-.294-.123s-.102-.246-.102-.478c0-.141.02-.242.061-.301.046-.064.11-.098.192-.102 1.212-.064 2.144-.376 2.796-.937s1.041-1.331 1.169-2.297c-.237.31-.529.549-.875.718a2.5 2.5 0 0 1-1.108.253c-.501 0-.955-.107-1.36-.321s-.718-.517-.95-.909-.342-.843-.342-1.353c0-.492.116-.932.349-1.319s.56-.697.984-.916.918-.328 1.47-.328zm0 1.012c-.347 0-.65.064-.91.191s-.46.31-.601.547-.212.504-.212.813.068.59.205.827.34.421.595.554.567.191.923.191c.332 0 .631-.061.895-.185s.47-.301.615-.519c.151-.223.226-.478.226-.766 0-.319-.073-.604-.219-.855s-.344-.447-.608-.588-.563-.212-.909-.212zm10.329-.861c.155 0 .264.037.328.109s.102.187.102.356-.034.289-.102.362-.173.102-.328.102H494.7l-.089 2.194a2.96 2.96 0 0 1 1.47-.383c.547 0 1.021.116 1.422.349a2.3 2.3 0 0 1 .916.971c.214.41.321.882.321 1.415s-.118 1.012-.355 1.436-.574.75-1.012.991-.943.362-1.518.362c-.437 0-.877-.073-1.319-.218s-.843-.344-1.203-.595c-.141-.096-.212-.212-.212-.349 0-.1.037-.209.109-.328.119-.196.251-.294.397-.294.073 0 .15.03.232.089.297.21.618.376.964.499s.691.185 1.032.185c.37 0 .691-.073.964-.219a1.51 1.51 0 0 0 .622-.622c.146-.269.219-.581.219-.937 0-.337-.068-.636-.205-.895a1.44 1.44 0 0 0-.581-.608c-.251-.146-.545-.219-.882-.219a2.63 2.63 0 0 0-.834.123 2.61 2.61 0 0 0-.718.362c-.072.046-.186.068-.341.068-.192 0-.328-.034-.411-.103-.077-.068-.111-.182-.102-.342l.137-3.418c.009-.16.05-.273.123-.342s.203-.103.389-.103h3.651zm9.146 3.671c.155 0 .265.037.328.109.069.068.103.187.103.356s-.034.289-.103.362c-.063.068-.173.103-.328.103h-5.209c-.155 0-.266-.034-.335-.103s-.095-.194-.095-.362.031-.287.095-.356.18-.109.335-.109h5.209zm3.569-4.525c.155 0 .264.037.328.109s.102.187.102.355v3.165c.588-.752 1.31-1.128 2.167-1.128.565 0 1.071.134 1.518.403a2.75 2.75 0 0 1 1.053 1.148c.255.497.382 1.082.382 1.757s-.127 1.262-.382 1.763-.607.88-1.053 1.149c-.447.264-.953.396-1.518.396-.446 0-.859-.1-1.237-.3s-.711-.488-.998-.862v.547c0 .169-.034.29-.103.362-.063.069-.173.103-.328.103h-1.087c-.155 0-.266-.034-.335-.103-.063-.072-.095-.193-.095-.362s.032-.287.095-.355c.069-.073.18-.11.335-.11h.561v-7.109h-.697c-.155 0-.267-.034-.335-.102s-.096-.194-.096-.362.032-.287.096-.355.18-.109.335-.109h1.292zm2.529 3.514a2.15 2.15 0 0 0-1.087.273 1.93 1.93 0 0 0-.745.793c-.178.346-.267.757-.267 1.231s.089.884.267 1.23.431.611.745.793.681.274 1.087.274.754-.096 1.046-.287.512-.468.663-.814.232-.745.232-1.196-.077-.85-.232-1.196-.372-.615-.663-.807-.641-.294-1.046-.294zm7.923-2.809c.524 0 .982.093 1.374.28s.695.444.909.786.321.734.321 1.189c0 .392-.091.731-.273 1.019a1.94 1.94 0 0 1-.773.677c.415.173.736.426.964.759s.349.731.349 1.196c0 .496-.112.934-.335 1.312s-.54.672-.964.882-.93.314-1.518.314c-.446 0-.897-.077-1.353-.232s-.864-.365-1.224-.629c-.136-.1-.205-.214-.205-.342 0-.091.039-.203.116-.335.119-.191.251-.287.397-.287.073 0 .15.03.232.089a4 4 0 0 0 .978.533 3.07 3.07 0 0 0 1.059.192c.566 0 .996-.132 1.292-.397s.445-.636.445-1.1-.151-.825-.451-1.066-.714-.369-1.251-.369h-.499c-.155 0-.267-.034-.335-.103s-.096-.194-.096-.362.032-.287.096-.356.18-.109.335-.109h.376c.519 0 .913-.109 1.182-.328s.403-.538.403-.957c0-.387-.134-.69-.403-.909s-.649-.335-1.141-.335c-.529 0-.978.089-1.347.267v.458c0 .16-.039.273-.116.342s-.21.102-.397.102-.319-.034-.396-.102-.116-.182-.116-.342v-.745c0-.1.013-.18.041-.239a.4.4 0 0 1 .143-.15 4.08 4.08 0 0 1 2.181-.602zm8.586 1.798c.856 0 1.499.191 1.927.574s.643.95.643 1.702v2.72c0 .36.15.54.451.54h.239c.155 0 .265.037.329.11.068.068.102.187.102.355s-.034.29-.102.362-.174.103-.329.103h-.437c-.296 0-.552-.073-.766-.219s-.346-.369-.41-.656c-.374.328-.779.581-1.217.759s-.893.266-1.381.266c-.46 0-.868-.077-1.223-.232a1.93 1.93 0 0 1-.827-.69c-.201-.301-.301-.659-.301-1.074 0-.72.257-1.251.772-1.593s1.181-.519 1.996-.519a6.22 6.22 0 0 1 2.079.349v-.581c0-.442-.126-.766-.376-.971s-.645-.314-1.197-.314c-.341 0-.697.048-1.066.144s-.72.228-1.053.396c-.077.041-.148.062-.212.062-.15 0-.275-.109-.376-.328-.05-.109-.075-.201-.075-.273 0-.159.084-.282.253-.369a5.31 5.31 0 0 1 1.23-.458c.443-.109.885-.164 1.327-.164zm-.527 3.473c-.524 0-.938.091-1.244.273s-.451.463-.451.855c0 .332.114.592.342.779s.556.274.97.274c.907 0 1.725-.376 2.455-1.128v-.745c-.31-.1-.643-.175-.998-.226a7.06 7.06 0 0 0-1.074-.082zm6.672-5.975c.155 0 .265.037.328.109.069.068.103.187.103.355v3.165c.588-.752 1.31-1.128 2.167-1.128a2.88 2.88 0 0 1 1.517.403c.447.264.798.647 1.053 1.148s.383 1.082.383 1.757-.128 1.262-.383 1.763-.606.88-1.053 1.149c-.446.264-.952.396-1.517.396-.447 0-.859-.1-1.237-.3s-.711-.488-.999-.862v.547c0 .169-.034.29-.102.362s-.173.103-.328.103h-1.087c-.155 0-.267-.034-.335-.103s-.096-.193-.096-.362.032-.287.096-.355c.068-.073.18-.11.335-.11h.56v-7.109h-.697c-.155 0-.266-.034-.335-.102s-.095-.194-.095-.362.031-.287.095-.355.18-.109.335-.109h1.292zm2.529 3.514a2.15 2.15 0 0 0-1.086.273c-.315.182-.563.447-.746.793-.177.346-.266.757-.266 1.231s.089.884.266 1.23c.183.347.431.611.746.793s.681.274 1.086.274.755-.096 1.046-.287a1.83 1.83 0 0 0 .663-.814c.155-.346.233-.745.233-1.196s-.078-.85-.233-1.196-.371-.615-.663-.807-.64-.294-1.046-.294zm10.692 1.012c.155 0 .264.037.328.109s.103.187.103.356-.035.289-.103.362-.173.103-.328.103h-5.209c-.155 0-.267-.034-.335-.103s-.096-.194-.096-.362.032-.287.096-.356.18-.109.335-.109h5.209zm5.817-2.023c.857 0 1.5.191 1.928.574s.643.95.643 1.702v2.72c0 .36.15.54.451.54h.239c.155 0 .264.037.328.11.068.068.103.187.103.355s-.035.29-.103.362-.173.103-.328.103h-.437c-.297 0-.552-.073-.766-.219s-.346-.369-.41-.656a4.3 4.3 0 0 1-1.217.759c-.433.178-.893.266-1.381.266a3.04 3.04 0 0 1-1.224-.232c-.35-.16-.626-.39-.827-.69s-.3-.659-.3-1.074c0-.72.257-1.251.772-1.593s1.18-.519 1.996-.519c.725 0 1.417.116 2.078.349v-.581c0-.442-.125-.766-.376-.971s-.645-.314-1.196-.314a4.24 4.24 0 0 0-1.066.144 5.18 5.18 0 0 0-1.053.396.46.46 0 0 1-.212.062c-.151 0-.276-.109-.376-.328-.05-.109-.075-.201-.075-.273 0-.159.084-.282.253-.369.382-.2.793-.353 1.23-.458a5.5 5.5 0 0 1 1.326-.164zm-.526 3.473c-.524 0-.939.091-1.244.273s-.451.463-.451.855c0 .332.114.592.341.779.233.182.556.274.971.274.907 0 1.725-.376 2.454-1.128v-.745a5.91 5.91 0 0 0-.998-.226 7.04 7.04 0 0 0-1.073-.082zm10.746-5.12c.155 0 .264.037.328.109s.103.187.103.356-.035.289-.103.362-.173.102-.328.102h-3.186l-.088 2.194c.455-.255.945-.383 1.469-.383.547 0 1.021.116 1.422.349a2.29 2.29 0 0 1 .916.971c.214.41.321.882.321 1.415s-.118 1.012-.355 1.436-.574.75-1.012.991-.943.362-1.517.362c-.438 0-.878-.073-1.32-.218s-.843-.344-1.203-.595c-.141-.096-.212-.212-.212-.349 0-.1.037-.209.11-.328.118-.196.25-.294.396-.294.073 0 .151.03.233.089a3.93 3.93 0 0 0 .963.499c.347.123.691.185 1.033.185a2.02 2.02 0 0 0 .964-.219 1.52 1.52 0 0 0 .622-.622c.145-.269.218-.581.218-.937 0-.337-.068-.636-.205-.895a1.44 1.44 0 0 0-.581-.608c-.25-.146-.544-.219-.882-.219a2.64 2.64 0 0 0-.834.123 2.59 2.59 0 0 0-.717.362c-.073.046-.187.068-.342.068-.192 0-.328-.034-.41-.103s-.112-.182-.103-.342l.137-3.418c.009-.16.05-.273.123-.342s.203-.103.39-.103h3.65zm8.613-.15c.123-.005.219.036.287.123s.11.246.11.478c0 .141-.023.244-.069.308-.041.059-.102.091-.184.096-1.212.064-2.144.378-2.796.943s-1.041 1.324-1.169 2.29c.237-.31.529-.549.875-.718s.715-.253 1.107-.253c.502 0 .953.107 1.354.321a2.34 2.34 0 0 1 .95.909c.233.392.349.843.349 1.353 0 .492-.116.934-.349 1.326s-.563.691-.991.909-.912.328-1.463.328a2.84 2.84 0 0 1-1.374-.341 2.62 2.62 0 0 1-1.005-.992c-.351-.601-.526-1.374-.526-2.317a5.15 5.15 0 0 1 .499-2.235c.337-.702.87-1.285 1.599-1.75s1.666-.729 2.796-.779zm-1.989 4.279a2.03 2.03 0 0 0-.895.192 1.49 1.49 0 0 0-.623.519c-.145.219-.218.472-.218.759 0 .319.07.604.212.855s.348.446.608.588.57.212.916.212.649-.064.909-.192a1.41 1.41 0 0 0 .602-.54c.141-.237.212-.51.212-.82s-.071-.59-.212-.827a1.36 1.36 0 0 0-.595-.547c-.255-.132-.561-.198-.916-.198zm10.773-2.481c.187 0 .319.034.397.103s.116.182.116.342v1.982c0 .16-.039.273-.116.342s-.21.103-.397.103-.319-.034-.396-.103-.116-.182-.116-.342a1.28 1.28 0 0 0-.219-.738c-.146-.214-.365-.381-.656-.499s-.634-.178-1.039-.178c-.438 0-.83.098-1.176.294s-.618.469-.814.82-.294.745-.294 1.183.092.838.274 1.189a2.06 2.06 0 0 0 .779.814 2.27 2.27 0 0 0 1.162.294c.42 0 .825-.064 1.217-.192a3.69 3.69 0 0 0 1.08-.567c.096-.073.185-.109.267-.109.132 0 .255.093.369.28a.64.64 0 0 1 .102.328c0 .159-.072.292-.218.396-.365.274-.796.488-1.292.643a5.09 5.09 0 0 1-1.525.232c-.651 0-1.228-.143-1.729-.43a3 3 0 0 1-1.155-1.183c-.274-.501-.411-1.066-.411-1.695s.139-1.194.417-1.695a3.05 3.05 0 0 1 1.163-1.183c.501-.287 1.073-.431 1.715-.431a2.71 2.71 0 0 1 1.115.226 2.36 2.36 0 0 1 .868.629v-.41c0-.16.038-.273.116-.342s.21-.103.396-.103zm8.32-2.502c.155 0 .264.037.328.109s.102.187.102.355v7.574h.561c.155 0 .264.037.328.11.068.068.103.187.103.355s-.035.29-.103.362-.173.103-.328.103h-1.087c-.155 0-.267-.034-.335-.103s-.096-.193-.096-.362v-.547c-.287.374-.619.661-.998.862s-.79.3-1.237.3c-.565 0-1.071-.132-1.518-.396-.446-.269-.797-.652-1.052-1.149s-.383-1.089-.383-1.763.128-1.26.383-1.757.606-.884 1.052-1.148.953-.403 1.518-.403c.857 0 1.579.376 2.167 1.128v-2.7h-1.107c-.155 0-.267-.034-.335-.102s-.096-.194-.096-.362.032-.287.096-.355.18-.109.335-.109h1.702zm-2.694 3.514c-.405 0-.754.098-1.045.294a1.83 1.83 0 0 0-.67.807c-.151.346-.226.745-.226 1.196s.075.85.226 1.196a1.88 1.88 0 0 0 .67.814c.291.191.64.287 1.045.287a2.11 2.11 0 0 0 1.081-.274 1.87 1.87 0 0 0 .745-.793c.182-.346.273-.756.273-1.23s-.091-.884-.273-1.231-.426-.611-.745-.793-.675-.273-1.081-.273zm8.47-2.809c.529 0 .991.096 1.388.287s.711.46.93.82.328.788.328 1.285a2.48 2.48 0 0 1-.349 1.285c-.228.387-.586.829-1.073 1.326l-2.297 2.331h2.967v-.861c0-.16.038-.273.116-.342s.21-.103.396-.103.319.034.397.103.116.182.116.342v1.326c0 .169-.034.29-.102.362s-.174.103-.329.103h-4.744c-.155 0-.266-.034-.335-.103-.063-.072-.095-.193-.095-.362s.034-.296.102-.369l3.008-3.049c.419-.428.713-.784.882-1.066a1.76 1.76 0 0 0 .26-.923c0-.424-.137-.759-.411-1.005-.268-.251-.651-.376-1.148-.376s-.973.128-1.415.383v.752c0 .16-.039.273-.116.342s-.21.103-.397.103-.319-.034-.396-.103-.116-.182-.116-.342v-1.005c0-.178.052-.303.157-.376a4.04 4.04 0 0 1 1.08-.561c.387-.137.786-.205 1.196-.205zm11.013-.704c.155 0 .264.037.328.109s.103.187.103.355v7.574h.56c.155 0 .264.037.328.11.069.068.103.187.103.355s-.034.29-.103.362c-.064.069-.173.103-.328.103h-1.087c-.155 0-.266-.034-.335-.103-.064-.072-.096-.193-.096-.362v-.547c-.287.374-.619.661-.998.862s-.79.3-1.237.3c-.565 0-1.071-.132-1.517-.396-.447-.269-.798-.652-1.053-1.149s-.383-1.089-.383-1.763.128-1.26.383-1.757.606-.884 1.053-1.148a2.88 2.88 0 0 1 1.517-.403c.857 0 1.579.376 2.167 1.128v-2.7h-1.107c-.155 0-.267-.034-.335-.102s-.096-.194-.096-.362.032-.287.096-.355.18-.109.335-.109h1.702zm-2.694 3.514c-.405 0-.754.098-1.045.294a1.83 1.83 0 0 0-.67.807c-.151.346-.226.745-.226 1.196s.075.85.226 1.196a1.88 1.88 0 0 0 .67.814c.291.191.64.287 1.045.287a2.11 2.11 0 0 0 1.081-.274 1.87 1.87 0 0 0 .745-.793c.182-.346.273-.756.273-1.23s-.091-.884-.273-1.231-.426-.611-.745-.793-.675-.273-1.081-.273zm9.639-2.809c.397 0 .595.178.595.533v4.341h1.107c.155 0 .265.036.328.109.069.068.103.187.103.355s-.034.289-.103.362c-.063.068-.173.103-.328.103h-1.107v1.531h.902c.155 0 .265.037.328.11.069.068.103.187.103.355s-.034.29-.103.362c-.063.069-.173.103-.328.103h-2.939c-.155 0-.267-.034-.335-.103s-.096-.193-.096-.362.032-.287.096-.355c.068-.073.18-.11.335-.11h1.011v-1.531h-3.267c-.155 0-.267-.034-.335-.103s-.096-.194-.096-.362c0-.15.023-.258.069-.321l3.308-4.601c.1-.141.208-.246.321-.314s.258-.103.431-.103zm-2.768 4.874h2.337l.055-3.391-2.392 3.391zm10.144-4.874a2.79 2.79 0 0 1 1.367.342c.42.228.757.558 1.012.991.351.602.526 1.374.526 2.317a5.1 5.1 0 0 1-.505 2.235c-.333.702-.866 1.288-1.6 1.757-.729.465-1.659.722-2.789.772-.123.005-.221-.036-.294-.123s-.103-.246-.103-.478c0-.141.021-.242.062-.301.045-.064.109-.098.191-.102 1.213-.064 2.145-.376 2.796-.937s1.042-1.331 1.169-2.297a2.42 2.42 0 0 1-.875.718c-.346.169-.715.253-1.107.253a2.87 2.87 0 0 1-1.361-.321 2.4 2.4 0 0 1-.95-.909c-.228-.392-.342-.843-.342-1.353 0-.492.117-.932.349-1.319s.561-.697.984-.916a3.19 3.19 0 0 1 1.47-.328zm0 1.012a2.04 2.04 0 0 0-.909.191c-.26.128-.46.31-.602.547s-.212.504-.212.813.069.59.206.827.339.421.594.554.568.191.923.191a2.1 2.1 0 0 0 .896-.185c.264-.128.469-.301.615-.519a1.34 1.34 0 0 0 .225-.766c0-.319-.072-.604-.218-.855s-.344-.447-.609-.588c-.259-.141-.563-.212-.909-.212zm8.538.786c.661 0 1.224.134 1.689.403s.829.633 1.08 1.107.394 1.012.43 1.627c0 .155-.034.264-.102.328s-.173.096-.328.096h-4.949c.031.679.232 1.194.601 1.545s.9.519 1.579.519c.419 0 .834-.052 1.244-.157s.771-.253 1.08-.431c.078-.041.149-.061.212-.061.16 0 .29.121.39.362a.67.67 0 0 1 .062.26c0 .182-.101.323-.301.424-.351.177-.766.321-1.244.43s-.96.164-1.443.164c-.688 0-1.276-.132-1.763-.396s-.859-.645-1.115-1.142-.383-1.087-.383-1.77c0-.652.139-1.228.417-1.73s.664-.889 1.156-1.162 1.055-.417 1.688-.417zm0 .991c-.56 0-1.025.144-1.394.431s-.604.677-.718 1.183h4.177c-.096-.524-.317-.923-.663-1.196s-.809-.417-1.402-.417zm8.333-2.789c.584 0 1.094.175 1.531.526.443.346.782.839 1.019 1.477.242.633.362 1.369.362 2.208s-.12 1.575-.362 2.208c-.237.634-.574 1.126-1.012 1.477s-.95.519-1.538.519-1.1-.173-1.538-.519-.777-.843-1.018-1.477-.356-1.369-.356-2.208.119-1.575.356-2.208.581-1.13 1.018-1.477.955-.526 1.538-.526zm0 1.012c-.36 0-.679.128-.957.383s-.487.617-.642 1.101-.233 1.05-.233 1.716.078 1.24.233 1.723.369.843.642 1.094a1.39 1.39 0 0 0 .957.376c.36 0 .677-.126.95-.376s.495-.616.65-1.094.232-1.057.232-1.723-.077-1.237-.232-1.716-.372-.85-.65-1.101a1.35 1.35 0 0 0-.95-.383zm8.395-1.012c.583 0 1.094.175 1.531.526s.782.839 1.019 1.477.362 1.369.362 2.208-.121 1.575-.362 2.208-.575 1.126-1.012 1.477-.95.519-1.538.519-1.101-.173-1.538-.519-.777-.843-1.019-1.477c-.237-.633-.355-1.369-.355-2.208s.118-1.575.355-2.208c.242-.638.581-1.13 1.019-1.477a2.4 2.4 0 0 1 1.538-.526zm0 1.012c-.36 0-.679.128-.957.383s-.488.617-.643 1.101-.232 1.05-.232 1.716.077 1.24.232 1.723.369.843.643 1.094a1.39 1.39 0 0 0 .957.376c.36 0 .677-.126.95-.376s.494-.616.649-1.094.233-1.057.233-1.723-.078-1.237-.233-1.716-.371-.85-.649-1.101a1.35 1.35 0 0 0-.95-.383zm7.383-1.422c.214 0 .307.114.28.342l-.376 3.076c-.014.118-.062.21-.144.273s-.184.096-.321.096c-.132 0-.239-.032-.321-.096s-.13-.155-.144-.273l-.376-3.076c-.027-.228.066-.342.28-.342h1.122zm3.144 0c.214 0 .308.114.28.342l-.376 3.076c-.013.118-.061.21-.143.273s-.185.096-.321.096-.24-.032-.322-.096-.13-.155-.143-.273l-.376-3.076c-.028-.228.066-.342.28-.342h1.121zm6.945 6.665c.078 0 .137.023.178.069s.062.095.062.164c0 .063-.016.13-.048.198l-1.449 3.308c-.082.187-.278.281-.588.281-.328 0-.492-.114-.492-.342 0-.018.004-.055.013-.109l.643-3.295c.018-.087.057-.153.116-.199s.144-.075.239-.075h1.326z" fill="#c1c162"/><path d="M305.16 117.684c.155 0 .264.036.328.109.069.068.103.187.103.355v4.922h.56c.155 0 .265.037.328.11.069.068.103.187.103.355s-.034.29-.103.362c-.063.069-.173.103-.328.103h-1.087c-.154 0-.266-.034-.335-.103-.063-.068-.095-.186-.095-.355v-.827c-.301.465-.654.82-1.06 1.066a2.44 2.44 0 0 1-1.299.369c-.414 0-.774-.088-1.08-.266-.305-.183-.54-.442-.704-.78s-.246-.731-.246-1.182v-3.309h-.56c-.155 0-.267-.034-.335-.102s-.096-.194-.096-.363.032-.287.096-.355c.068-.073.18-.109.335-.109h1.155c.155 0 .264.036.328.109.068.068.103.187.103.355v3.671c0 .406.093.727.28.964s.462.356.827.356c.387 0 .747-.112 1.08-.335s.606-.531.807-.923.3-.83.3-1.313v-1.955h-.97c-.155 0-.267-.034-.335-.102s-.096-.194-.096-.363.032-.287.096-.355c.068-.073.18-.109.335-.109h1.565zm8.347-.151c.187 0 .319.034.396.103s.117.182.117.342v1.298c0 .16-.039.274-.117.342s-.209.103-.396.103c-.155 0-.264-.06-.328-.178-.196-.374-.481-.636-.855-.786-.373-.155-.847-.233-1.422-.233-.442 0-.788.08-1.039.24s-.369.373-.369.656a.48.48 0 0 0 .137.355c.096.092.235.167.417.226a2.9 2.9 0 0 0 .519.116l.773.089 1.066.144c.274.041.531.104.773.191.364.132.647.324.847.574s.308.581.308.991-.105.771-.314 1.081-.509.542-.91.71-.872.253-1.428.253c-.493 0-.925-.068-1.299-.205s-.7-.344-.978-.622v.383c0 .16-.038.273-.116.342s-.21.102-.396.102-.319-.034-.397-.102-.116-.182-.116-.342v-1.641c0-.159.039-.273.116-.341s.21-.103.397-.103c.095 0 .17.023.225.068s.103.112.144.212c.164.438.437.757.82.957s.893.301 1.531.301c.529 0 .935-.096 1.217-.287s.424-.447.424-.766c0-.155-.05-.282-.15-.382s-.244-.183-.431-.246a3.64 3.64 0 0 0-.554-.124l-.786-.102-1.073-.144c-.287-.05-.552-.123-.793-.218-.333-.133-.593-.315-.779-.547-.183-.237-.274-.545-.274-.923 0-.397.103-.736.308-1.019s.496-.503.861-.649.786-.219 1.251-.219c.442 0 .845.066 1.21.198a2.85 2.85 0 0 1 .95.554v-.307c0-.16.039-.274.116-.342s.21-.103.397-.103zm6.303 0c.66 0 1.223.135 1.688.404a2.69 2.69 0 0 1 1.08 1.107c.251.469.394 1.012.431 1.627 0 .155-.034.264-.103.328s-.173.096-.328.096h-4.949c.032.679.232 1.194.601 1.545s.901.519 1.58.519c.419 0 .834-.052 1.244-.157s.77-.253 1.08-.431c.077-.041.148-.061.212-.061.159 0 .289.121.389.362a.67.67 0 0 1 .062.26c0 .182-.1.323-.301.424-.351.177-.766.321-1.244.43a6.42 6.42 0 0 1-1.442.164c-.689 0-1.276-.132-1.764-.396s-.859-.645-1.114-1.142-.383-1.087-.383-1.77c0-.652.139-1.228.417-1.73s.663-.888 1.155-1.162 1.055-.417 1.689-.417zm0 .991c-.561 0-1.026.144-1.395.431s-.604.677-.718 1.183h4.177c-.096-.524-.317-.923-.663-1.197s-.809-.417-1.401-.417zm10.424-.991c.356 0 .689.091.998.274.183.109.274.25.274.423 0 .082-.021.178-.062.288-.095.259-.228.389-.396.389-.069 0-.132-.018-.192-.054a1.45 1.45 0 0 0-.717-.185c-.41 0-.823.144-1.238.431-.414.282-.756.66-1.025 1.134a3.06 3.06 0 0 0-.397 1.511v1.326h2.304c.155 0 .265.037.328.11.069.068.103.187.103.355s-.034.29-.103.362c-.063.069-.173.103-.328.103h-4.402c-.155 0-.267-.034-.335-.103s-.096-.193-.096-.362.032-.287.096-.355c.068-.073.18-.11.335-.11h1.073v-4.457h-.868c-.155 0-.267-.034-.335-.102s-.096-.194-.096-.363.032-.287.096-.355c.068-.073.18-.109.335-.109h1.394c.155 0 .265.036.329.109.068.068.102.187.102.355v1.381a4.36 4.36 0 0 1 .793-1.052c.31-.301.64-.534.991-.698s.698-.246 1.039-.246z" fill="#4295d9"/><path d="M224 6a6 6 0 0 1 6-6h533v32H224V6z" fill="#475367"/><path d="M242.484 22.174c-.632 0-1.164-.168-1.596-.504a2.58 2.58 0 0 1-.888-1.356l1.242-.294a1.21 1.21 0 0 0 .426.69 1.2 1.2 0 0 0 .774.282 1.38 1.38 0 0 0 .588-.144.93.93 0 0 0 .456-.468 1.35 1.35 0 0 0 .12-.492l.018-.654V13.36h1.272v5.874l-.006.684a2.54 2.54 0 0 1-.06.564c-.036.176-.108.358-.216.546-.228.396-.528.686-.9.87s-.782.276-1.23.276zm6.045.006c-.48 0-.882-.088-1.206-.264a1.88 1.88 0 0 1-.738-.708c-.164-.296-.246-.62-.246-.972 0-.328.058-.616.174-.864s.288-.458.516-.63a2.76 2.76 0 0 1 .84-.426 9.21 9.21 0 0 1 .978-.222l1.146-.18 1.2-.168-.456.252c.008-.508-.1-.884-.324-1.128s-.6-.372-1.14-.372c-.34 0-.652.08-.936.24s-.482.416-.594.78l-1.17-.36c.16-.556.464-.998.912-1.326s1.052-.492 1.8-.492c.58 0 1.084.1 1.512.3s.748.508.948.936c.104.212.168.436.192.672a7.55 7.55 0 0 1 .036.762V22h-1.11v-1.482l.216.192c-.268.496-.61.866-1.026 1.11s-.92.36-1.524.36zm.222-1.026c.356 0 .662-.062.918-.186s.462-.29.618-.486.258-.4.306-.612a2.15 2.15 0 0 0 .114-.648l.018-.576.408.15-1.08.162-.882.144a5.28 5.28 0 0 0-.696.162 2.35 2.35 0 0 0-.462.216 1.06 1.06 0 0 0-.318.306c-.076.12-.114.266-.114.438s.042.324.126.468.212.252.384.336.392.126.66.126zm6.298.846l-2.352-6.48h1.266l1.722 4.908 1.722-4.908h1.266L256.321 22h-1.272zm6.172.18c-.48 0-.882-.088-1.206-.264a1.88 1.88 0 0 1-.738-.708c-.164-.296-.246-.62-.246-.972 0-.328.058-.616.174-.864s.288-.458.516-.63a2.76 2.76 0 0 1 .84-.426 9.21 9.21 0 0 1 .978-.222l1.146-.18 1.2-.168-.456.252c.008-.508-.1-.884-.324-1.128s-.6-.372-1.14-.372c-.34 0-.652.08-.936.24s-.482.416-.594.78l-1.17-.36c.16-.556.464-.998.912-1.326s1.052-.492 1.8-.492c.58 0 1.084.1 1.512.3s.748.508.948.936c.104.212.168.436.192.672a7.55 7.55 0 0 1 .036.762V22h-1.11v-1.482l.216.192c-.268.496-.61.866-1.026 1.11s-.92.36-1.524.36zm.222-1.026c.356 0 .662-.062.918-.186s.462-.29.618-.486.258-.4.306-.612a2.15 2.15 0 0 0 .114-.648l.018-.576.408.15-1.08.162-.882.144a5.28 5.28 0 0 0-.696.162 2.35 2.35 0 0 0-.462.216 1.06 1.06 0 0 0-.318.306c-.076.12-.114.266-.114.438s.042.324.126.468.212.252.384.336.392.126.66.126zm7.258 1.02c-.788 0-1.43-.174-1.926-.522s-.8-.838-.912-1.47l1.284-.198a1.3 1.3 0 0 0 .552.798c.292.192.654.288 1.086.288.392 0 .698-.08.918-.24s.336-.38.336-.66c0-.164-.04-.296-.12-.396s-.238-.202-.486-.294a13.81 13.81 0 0 0-1.134-.342c-.556-.144-.998-.298-1.326-.462s-.556-.362-.696-.582-.204-.494-.204-.81c0-.392.104-.734.312-1.026a2.01 2.01 0 0 1 .876-.678c.38-.16.824-.24 1.332-.24.496 0 .938.078 1.326.234a2.33 2.33 0 0 1 .942.666 1.88 1.88 0 0 1 .432 1.002l-1.284.234c-.044-.312-.19-.558-.438-.738s-.57-.278-.966-.294c-.38-.016-.688.048-.924.192s-.354.334-.354.582c0 .144.044.266.132.366s.268.196.528.288.644.202 1.152.33c.544.14.976.296 1.296.468s.548.37.684.606.21.514.21.846c0 .64-.234 1.142-.702 1.506s-1.106.546-1.926.546zm6.727.006c-.664 0-1.228-.148-1.692-.444s-.82-.702-1.068-1.218-.368-1.102-.372-1.758c.004-.668.132-1.258.384-1.77a2.89 2.89 0 0 1 1.08-1.212c.468-.292 1.03-.438 1.686-.438.708 0 1.312.176 1.812.528s.836.834.996 1.446l-1.248.36a1.65 1.65 0 0 0-.612-.846c-.28-.204-.602-.306-.966-.306-.412 0-.75.098-1.014.294s-.46.456-.588.792-.194.72-.198 1.152c.004.668.156 1.208.456 1.62s.752.618 1.344.618c.404 0 .73-.092.978-.276s.444-.456.576-.804l1.272.3c-.212.632-.562 1.118-1.05 1.458s-1.08.504-1.776.504zm4.049-.18v-6.48h1.116v1.572l-.156-.204a2.38 2.38 0 0 1 .312-.57c.128-.176.276-.32.444-.432.164-.12.346-.212.546-.276s.412-.108.624-.12.416-.006.612.03v1.176c-.212-.056-.448-.072-.708-.048a1.55 1.55 0 0 0-.708.246 1.59 1.59 0 0 0-.486.48 2.04 2.04 0 0 0-.252.63 3.26 3.26 0 0 0-.078.726V22h-1.266zm4.76-7.542V13.24h1.254v1.218h-1.254zm0 7.542v-6.48h1.254V22h-1.254zm6.098.18c-.62 0-1.14-.15-1.56-.45s-.738-.714-.954-1.23-.324-1.098-.324-1.746.106-1.23.318-1.746.532-.922.948-1.218.936-.45 1.548-.45 1.132.15 1.572.45.786.702 1.026 1.218.36 1.094.36 1.746-.12 1.232-.36 1.752a2.91 2.91 0 0 1-1.014 1.224c-.436.3-.956.45-1.56.45zm-3.048 2.7v-9.36h1.116v4.662h.144v4.698h-1.26zm2.874-3.834c.4 0 .73-.102.99-.306s.46-.478.588-.822a3.26 3.26 0 0 0 .198-1.164c0-.424-.066-.808-.198-1.152a1.79 1.79 0 0 0-.594-.822c-.268-.204-.61-.306-1.026-.306-.392 0-.716.096-.972.288s-.44.46-.564.804-.18.74-.18 1.188.06.844.18 1.188.31.614.57.81.596.294 1.008.294zm8.141.954a5.37 5.37 0 0 1-1.2.102c-.392-.012-.742-.088-1.05-.228a1.43 1.43 0 0 1-.696-.66 1.93 1.93 0 0 1-.228-.816l-.012-.948v-5.73h1.26v5.67l.006.678a1.05 1.05 0 0 0 .126.486c.144.248.372.39.684.426s.686.018 1.11-.042V22zm-4.428-5.472V15.52h4.428v1.008h-4.428z" fill="#fff"/><path d="M4.774 93.168c-1.288 0-2.282-.303-2.982-.91-.691-.607-1.036-1.545-1.036-2.814l.028-.784.098-.728c.177-.971.499-1.806.966-2.506a4.75 4.75 0 0 1 1.82-1.624c.747-.383 1.605-.574 2.576-.574.756 0 1.419.107 1.988.322.569.205 1.013.523 1.33.952.327.429.49.971.49 1.624l-.014.378c-.009.131-.028.261-.056.392h-1.61a.97.97 0 0 0 .042-.28l.014-.266c0-.401-.093-.733-.28-.994-.177-.271-.434-.467-.77-.588-.327-.131-.719-.196-1.176-.196a3.82 3.82 0 0 0-1.386.238c-.411.159-.77.387-1.078.686-.308.289-.565.644-.77 1.064-.196.42-.341.887-.434 1.4l-.084.434-.056.364-.028.322v.308c0 .56.093 1.022.28 1.386a1.8 1.8 0 0 0 .826.798c.364.168.807.252 1.33.252.569 0 1.073-.084 1.512-.252.439-.177.803-.434 1.092-.77.289-.345.481-.775.574-1.288h1.54c-.131.831-.425 1.517-.882 2.058-.448.541-1.008.943-1.68 1.204-.663.261-1.391.392-2.184.392zm8.898 0c-.672 0-1.237-.098-1.694-.294a2.18 2.18 0 0 1-1.036-.924c-.233-.411-.35-.933-.35-1.568a5.94 5.94 0 0 1 .028-.56l.084-.616c.149-.859.401-1.563.756-2.114s.807-.957 1.358-1.218c.551-.271 1.199-.406 1.946-.406.681 0 1.251.103 1.708.308.457.196.798.499 1.022.91.233.411.35.938.35 1.582 0 .177-.009.364-.028.56-.009.187-.037.387-.084.602-.149.859-.397 1.563-.742 2.114s-.793.961-1.344 1.232c-.541.261-1.199.392-1.974.392zm.084-1.204c.457 0 .849-.089 1.176-.266.327-.187.593-.467.798-.84.215-.373.369-.845.462-1.414.047-.187.075-.345.084-.476a2.8 2.8 0 0 0 .028-.364l.014-.28c0-.373-.061-.681-.182-.924a1.12 1.12 0 0 0-.532-.546c-.243-.121-.551-.182-.924-.182-.457 0-.849.093-1.176.28-.317.187-.583.467-.798.84-.205.364-.364.831-.476 1.4l-.07.49-.042.364-.014.28c0 .373.056.681.168.924.121.233.308.411.56.532s.56.182.924.182zm4.41 3.458l1.722-9.786h1.162l-.028 1.008h.112a2.94 2.94 0 0 1 1.05-.882c.401-.196.826-.294 1.274-.294.523 0 .966.103 1.33.308a1.94 1.94 0 0 1 .854.896c.196.401.294.896.294 1.484l-.028.616c-.009.215-.037.443-.084.686-.149.849-.387 1.549-.714 2.1-.327.541-.719.947-1.176 1.218a2.94 2.94 0 0 1-1.484.392 3.64 3.64 0 0 1-.938-.112c-.28-.075-.523-.191-.728-.35s-.369-.359-.49-.602h-.098l-.574 3.318h-1.456zm3.878-3.514c.42 0 .779-.084 1.078-.252s.541-.429.728-.784c.196-.364.341-.817.434-1.358l.098-.546.042-.392.014-.322c0-.355-.056-.644-.168-.868a1.04 1.04 0 0 0-.49-.49c-.205-.112-.471-.168-.798-.168-.411 0-.77.098-1.078.294-.308.187-.56.462-.756.826s-.341.812-.434 1.344l-.084.462-.042.35v.28c0 .392.061.709.182.952.121.233.289.406.504.518a1.77 1.77 0 0 0 .77.154zm5.084 3.64c-.308 0-.555-.023-.742-.07l-.35-.07.168-1.064h.728c.224 0 .439-.042.644-.126.215-.075.42-.215.616-.42.196-.196.378-.471.546-.826l-1.54-7.336h1.456l.728 3.542.14.728.126.812.098.714h.07l.21-.504.252-.574.266-.56.224-.476 1.834-3.682h1.526l-3.682 7.084a11.14 11.14 0 0 1-.644 1.106c-.224.345-.467.644-.728.896a2.85 2.85 0 0 1-.868.602c-.317.149-.677.224-1.078.224zm11.56-2.38c-.364 0-.649-.061-.854-.182-.196-.121-.336-.275-.42-.462-.084-.196-.126-.415-.126-.658a1.49 1.49 0 0 1 .014-.21l.028-.224.798-4.592h-.924l.21-1.204h.952l.63-2.058h1.148l-.364 2.058h1.344l-.21 1.204h-1.33l-.756 4.284-.042.21-.014.182c0 .14.042.252.126.336.084.075.215.112.392.112h.728l-.182.98c-.093.037-.205.07-.336.098a2.85 2.85 0 0 1-.406.084 2.07 2.07 0 0 1-.406.042zM41.05 93l1.778-10.122h1.456l-.644 3.64h.098a3.25 3.25 0 0 1 .672-.56c.252-.159.518-.28.798-.364.289-.084.588-.126.896-.126.392 0 .742.061 1.05.182a1.58 1.58 0 0 1 .756.588c.187.271.28.63.28 1.078 0 .149-.009.308-.028.476l-.084.518-.826 4.69h-1.456l.812-4.606.042-.35c.019-.112.028-.215.028-.308 0-.252-.047-.448-.14-.588-.093-.149-.224-.252-.392-.308-.168-.065-.364-.098-.588-.098a2.13 2.13 0 0 0-.784.154c-.252.093-.485.233-.7.42a2.8 2.8 0 0 0-.546.7 3.01 3.01 0 0 0-.308.966L42.506 93H41.05zm9.523-8.638l.266-1.484h1.456l-.266 1.484h-1.456zM49.075 93l1.302-7.364h1.456L50.531 93h-1.456zm6.22.168c-.485 0-.915-.047-1.288-.14-.373-.084-.691-.205-.952-.364a1.76 1.76 0 0 1-.574-.602c-.121-.233-.182-.49-.182-.77 0-.112.009-.219.028-.322l.07-.266h1.428c-.019.056-.033.117-.042.182s-.014.117-.014.154c0 .233.065.425.196.574a1.25 1.25 0 0 0 .56.308c.243.056.513.084.812.084a3.6 3.6 0 0 0 .644-.056 2.44 2.44 0 0 0 .574-.196.99.99 0 0 0 .392-.336c.093-.14.14-.313.14-.518 0-.177-.056-.322-.168-.434-.103-.121-.243-.219-.42-.294-.177-.084-.383-.159-.616-.224l-.714-.21-.756-.252a3.76 3.76 0 0 1-.672-.336 1.68 1.68 0 0 1-.476-.518c-.121-.215-.182-.471-.182-.77 0-.392.079-.737.238-1.036.168-.299.397-.546.686-.742.289-.205.625-.359 1.008-.462a4.68 4.68 0 0 1 1.218-.154 5.17 5.17 0 0 1 1.12.112c.345.075.639.187.882.336.252.149.443.331.574.546.14.205.21.443.21.714 0 .131-.014.257-.042.378a.93.93 0 0 1-.056.224h-1.414c.009-.056.014-.107.014-.154a.65.65 0 0 0 .014-.126c0-.205-.056-.369-.168-.49-.103-.131-.252-.224-.448-.28-.196-.065-.434-.098-.714-.098-.252 0-.476.023-.672.07-.187.037-.35.098-.49.182a.93.93 0 0 0-.322.308.76.76 0 0 0-.112.406c0 .205.084.369.252.49.168.112.383.205.644.28l.854.266.798.266a3.62 3.62 0 0 1 .742.35c.224.131.401.308.532.532.131.215.196.485.196.812 0 .457-.089.849-.266 1.176-.168.327-.406.593-.714.798a3.21 3.21 0 0 1-1.064.448 5.18 5.18 0 0 1-1.288.154zm10.535 0c-.672 0-1.232-.098-1.68-.294s-.784-.499-1.008-.91c-.224-.42-.336-.947-.336-1.582 0-.261.014-.523.042-.784s.075-.518.14-.77a5.68 5.68 0 0 1 .448-1.344 3.81 3.81 0 0 1 .742-1.064c.299-.308.653-.541 1.064-.7.411-.168.882-.252 1.414-.252.625 0 1.143.089 1.554.266.42.177.737.429.952.756s.322.728.322 1.204l-.014.336a2.48 2.48 0 0 1-.056.35h-1.456l.028-.238A2.29 2.29 0 0 0 68 87.89c0-.252-.047-.471-.14-.658-.084-.187-.224-.327-.42-.42-.196-.103-.448-.154-.756-.154-.401 0-.751.098-1.05.294-.299.187-.546.467-.742.84-.196.364-.345.812-.448 1.344l-.084.49-.042.378-.014.308c0 .383.056.695.168.938a1.15 1.15 0 0 0 .504.546c.224.112.499.168.826.168.373 0 .686-.07.938-.21a1.53 1.53 0 0 0 .616-.602c.159-.261.271-.56.336-.896h1.4c-.093.588-.275 1.101-.546 1.54s-.63.779-1.078 1.022c-.448.233-.994.35-1.638.35zm7.479 0c-.672 0-1.237-.098-1.694-.294a2.18 2.18 0 0 1-1.036-.924c-.233-.411-.35-.933-.35-1.568 0-.177.009-.364.028-.56l.084-.616c.149-.859.401-1.563.756-2.114s.807-.957 1.358-1.218c.551-.271 1.199-.406 1.946-.406.681 0 1.251.103 1.708.308.457.196.798.499 1.022.91.233.411.35.938.35 1.582a5.94 5.94 0 0 1-.028.56c-.009.187-.037.387-.084.602-.149.859-.397 1.563-.742 2.114s-.793.961-1.344 1.232c-.541.261-1.199.392-1.974.392zm.084-1.204c.457 0 .849-.089 1.176-.266.327-.187.593-.467.798-.84.215-.373.369-.845.462-1.414.047-.187.075-.345.084-.476.019-.14.028-.261.028-.364l.014-.28c0-.373-.061-.681-.182-.924a1.12 1.12 0 0 0-.532-.546c-.243-.121-.551-.182-.924-.182-.457 0-.849.093-1.176.28-.317.187-.583.467-.798.84-.205.364-.364.831-.476 1.4l-.07.49-.042.364a2.79 2.79 0 0 0-.014.28c0 .373.056.681.168.924.121.233.308.411.56.532s.56.182.924.182zm7.49 1.204c-.513 0-.957-.107-1.33-.322-.364-.215-.644-.523-.84-.924s-.294-.882-.294-1.442l.014-.616c.019-.215.051-.443.098-.686.112-.644.275-1.195.49-1.652.215-.467.467-.849.756-1.148a2.97 2.97 0 0 1 .98-.686c.355-.149.737-.224 1.148-.224a3.48 3.48 0 0 1 .924.112c.28.075.523.191.728.35a1.52 1.52 0 0 1 .504.602h.084l.644-3.654h1.456L84.453 93h-1.162l.028-1.008h-.098a2.94 2.94 0 0 1-1.05.882c-.401.196-.831.294-1.288.294zm.49-1.26c.42 0 .779-.093 1.078-.28a2.21 2.21 0 0 0 .756-.84c.196-.364.336-.812.42-1.344.037-.177.061-.331.07-.462l.042-.35.014-.28c0-.392-.061-.705-.182-.938a1.01 1.01 0 0 0-.504-.518c-.215-.112-.467-.168-.756-.168-.429 0-.793.084-1.092.252-.289.168-.532.429-.728.784-.187.355-.331.807-.434 1.358l-.084.546-.042.392-.014.322c0 .523.121.91.364 1.162.243.243.607.364 1.092.364zm8.275 1.26c-.691 0-1.269-.098-1.736-.294-.467-.205-.817-.513-1.05-.924-.224-.42-.336-.943-.336-1.568 0-.252.014-.509.042-.77l.112-.742c.131-.653.345-1.232.644-1.736a3.46 3.46 0 0 1 1.218-1.218c.513-.299 1.157-.448 1.932-.448.644 0 1.181.103 1.61.308.429.196.751.495.966.896.215.392.322.882.322 1.47a5.39 5.39 0 0 1-.056.728 4.98 4.98 0 0 1-.154.812h-5.096l-.042.364-.014.322c0 .364.056.667.168.91a1.12 1.12 0 0 0 .546.532c.243.112.551.168.924.168.233 0 .453-.028.658-.084s.392-.145.56-.266.313-.275.434-.462c.131-.196.224-.434.28-.714h1.428c-.084.467-.229.873-.434 1.218a2.8 2.8 0 0 1-.742.84 3.19 3.19 0 0 1-.994.49 4.03 4.03 0 0 1-1.19.168zm-1.386-4.55h3.584l.042-.308.014-.28c0-.317-.056-.579-.168-.784a.93.93 0 0 0-.476-.448 1.77 1.77 0 0 0-.77-.154c-.383 0-.723.075-1.022.224a1.92 1.92 0 0 0-.728.672c-.196.289-.355.649-.476 1.078zm11.589 4.55c-.485 0-.915-.047-1.288-.14-.373-.084-.691-.205-.952-.364a1.76 1.76 0 0 1-.574-.602c-.121-.233-.182-.49-.182-.77 0-.112.009-.219.028-.322l.07-.266h1.428c-.019.056-.033.117-.042.182s-.014.117-.014.154a.84.84 0 0 0 .196.574 1.25 1.25 0 0 0 .56.308 3.62 3.62 0 0 0 .812.084c.224 0 .438-.019.644-.056a2.45 2.45 0 0 0 .574-.196c.168-.084.298-.196.392-.336s.14-.313.14-.518c0-.177-.056-.322-.168-.434a1.1 1.1 0 0 0-.42-.294c-.178-.084-.383-.159-.616-.224l-.714-.21-.756-.252c-.243-.093-.467-.205-.672-.336-.196-.14-.355-.313-.476-.518-.121-.215-.182-.471-.182-.77 0-.392.079-.737.238-1.036.168-.299.397-.546.686-.742.289-.205.625-.359 1.008-.462a4.68 4.68 0 0 1 1.218-.154c.41 0 .784.037 1.12.112.345.075.639.187.882.336.252.149.443.331.574.546.14.205.21.443.21.714 0 .131-.014.257-.042.378-.019.112-.038.187-.056.224h-1.414a.98.98 0 0 0 .014-.154c.009-.047.014-.089.014-.126 0-.205-.056-.369-.168-.49-.103-.131-.252-.224-.448-.28-.196-.065-.434-.098-.714-.098-.252 0-.476.023-.672.07-.187.037-.35.098-.49.182a.93.93 0 0 0-.322.308.76.76 0 0 0-.112.406c0 .205.084.369.252.49.168.112.383.205.644.28l.854.266.798.266c.27.093.518.21.742.35.224.131.401.308.532.532.13.215.196.485.196.812 0 .457-.089.849-.266 1.176-.168.327-.406.593-.714.798s-.663.355-1.064.448c-.402.103-.831.154-1.288.154zM104.31 93l1.288-7.364h1.176l-.042 1.05h.098a3.38 3.38 0 0 1 .728-.644 3.1 3.1 0 0 1 .868-.42c.308-.103.62-.154.938-.154.392 0 .742.061 1.05.182.317.121.569.317.756.588s.28.63.28 1.078a4.49 4.49 0 0 1-.028.476l-.084.518-.826 4.69h-1.456l.812-4.606.042-.35c.018-.112.028-.215.028-.308 0-.252-.047-.448-.14-.588a.72.72 0 0 0-.392-.308c-.168-.065-.364-.098-.588-.098-.262 0-.523.051-.784.154-.252.093-.486.233-.7.42-.206.187-.388.42-.546.7-.15.28-.252.602-.308.966L105.766 93h-1.456zm9.523-8.638l.266-1.484h1.456l-.266 1.484h-1.456zM112.335 93l1.302-7.364h1.456L113.791 93h-1.456zm2.902 2.422l1.722-9.786h1.162l-.028 1.008h.112c.299-.392.649-.686 1.05-.882s.826-.294 1.274-.294c.523 0 .966.103 1.33.308.373.196.658.495.854.896s.294.896.294 1.484l-.028.616a4.64 4.64 0 0 1-.084.686c-.149.849-.387 1.549-.714 2.1-.327.541-.719.947-1.176 1.218a2.94 2.94 0 0 1-1.484.392 3.64 3.64 0 0 1-.938-.112 2.03 2.03 0 0 1-.728-.35 1.72 1.72 0 0 1-.49-.602h-.098l-.574 3.318h-1.456zm3.878-3.514c.42 0 .779-.084 1.078-.252s.541-.429.728-.784c.196-.364.341-.817.434-1.358l.098-.546.042-.392.014-.322c0-.355-.056-.644-.168-.868a1.04 1.04 0 0 0-.49-.49c-.205-.112-.471-.168-.798-.168-.411 0-.77.098-1.078.294-.308.187-.56.462-.756.826s-.341.812-.434 1.344l-.084.462-.042.35v.28c0 .392.061.709.182.952.121.233.289.406.504.518a1.77 1.77 0 0 0 .77.154zm4.229 3.514l1.722-9.786h1.162l-.028 1.008h.112c.299-.392.649-.686 1.05-.882a2.87 2.87 0 0 1 1.274-.294c.523 0 .966.103 1.33.308.374.196.658.495.854.896s.294.896.294 1.484l-.028.616a4.64 4.64 0 0 1-.084.686c-.149.849-.387 1.549-.714 2.1-.326.541-.718.947-1.176 1.218a2.94 2.94 0 0 1-1.484.392 3.64 3.64 0 0 1-.938-.112c-.28-.075-.522-.191-.728-.35s-.368-.359-.49-.602h-.098l-.574 3.318h-1.456zm3.878-3.514c.42 0 .78-.084 1.078-.252s.542-.429.728-.784c.196-.364.341-.817.434-1.358l.098-.546.042-.392.014-.322c0-.355-.056-.644-.168-.868a1.04 1.04 0 0 0-.49-.49c-.205-.112-.471-.168-.798-.168-.41 0-.77.098-1.078.294-.308.187-.56.462-.756.826s-.34.812-.434 1.344l-.084.462-.042.35v.28c0 .392.061.709.182.952.122.233.29.406.504.518.215.103.472.154.77.154zm7.968 1.26c-.691 0-1.27-.098-1.736-.294-.467-.205-.817-.513-1.05-.924-.224-.42-.336-.943-.336-1.568 0-.252.014-.509.042-.77l.112-.742c.13-.653.345-1.232.644-1.736a3.46 3.46 0 0 1 1.218-1.218c.513-.299 1.157-.448 1.932-.448.644 0 1.18.103 1.61.308a2.01 2.01 0 0 1 .966.896c.214.392.322.882.322 1.47a5.44 5.44 0 0 1-.056.728c-.028.271-.08.541-.154.812h-5.096l-.042.364a3.33 3.33 0 0 0-.014.322c0 .364.056.667.168.91.121.243.303.42.546.532s.55.168.924.168c.233 0 .452-.028.658-.084s.392-.145.56-.266.312-.275.434-.462c.13-.196.224-.434.28-.714h1.428c-.084.467-.229.873-.434 1.218a2.81 2.81 0 0 1-.742.84 3.2 3.2 0 0 1-.994.49 4.03 4.03 0 0 1-1.19.168zm-1.386-4.55h3.584l.042-.308.014-.28c0-.317-.056-.579-.168-.784-.103-.205-.262-.355-.476-.448-.215-.103-.472-.154-.77-.154-.383 0-.724.075-1.022.224-.29.149-.532.373-.728.672-.196.289-.355.649-.476 1.078zm7.738 4.55c-.364 0-.649-.061-.854-.182-.196-.121-.336-.275-.42-.462-.084-.196-.126-.415-.126-.658 0-.075.004-.145.014-.21l.028-.224.798-4.592h-.924l.21-1.204h.952l.63-2.058h1.148l-.364 2.058h1.344l-.21 1.204h-1.33l-.756 4.284c-.01.037-.024.107-.042.21l-.014.182c0 .14.042.252.126.336.084.075.214.112.392.112h.728l-.182.98a2.14 2.14 0 0 1-.336.098c-.131.037-.266.065-.406.084-.14.028-.276.042-.406.042z" fill="#98a2b3"/><g filter="url(#A)"><path d="M204.295 47.229c1.29 5.888 9.572 12.052 9.572 12.052-2.441-1.161-5.061-1.883-7.697-2.119s-5.231.016-7.624.743l5.749-10.676z" fill="#fff"/><path d="M182.084 47.649c5.764-.217 11.681 1.133 17.002 3.88.026.002.052.01.075.023s.044.031.059.052.024.044.027.068 0 .047-.01.068-.025.038-.045.051a.15.15 0 0 1-.07.022c-.025.002-.052-.002-.077-.012s-.048-.024-.066-.043c-5.407-2.265-11.139-3.552-16.841-3.78-.2-.017-.298-.316-.054-.329z" fill="#fff"/><path d="M175.561 48.275c.185-.015.068.234.068.234-6.245 1.321-12.166 3.408-17.611 6.207-.052.016-.11.015-.165-.003a.31.31 0 0 1-.143-.093c-.037-.043-.059-.094-.062-.145s.012-.1.043-.139c5.181-3.313 11.299-5.389 17.87-6.062z" fill="#fff"/><path d="M151.477 57.991c.253-.034.195.091.147.195-5.647 3.98-10.369 8.897-13.96 14.538-.203.31-.677-.012-.56-.261 3.281-5.948 8.212-10.912 14.373-14.471z" fill="#fff"/><path d="M157.149 54.5085C157.16 54.6793 157.231 54.8311 157.331 54.9476C157.431 55.0639 157.562 55.1477 157.705 55.1919C157.848 55.2361 158.007 55.242 158.162 55.1958L158.206 55.1826L158.247 55.1615C163.65 52.3829 169.529 50.3102 175.733 48.9986L175.977 48.947L176.083 48.7207L175.629 48.5094C176.083 48.7207 176.083 48.7206 176.083 48.7205L176.083 48.7202L176.083 48.7196L176.084 48.7184L176.085 48.7157L176.088 48.7089L176.096 48.6904C176.102 48.6761 176.109 48.6569 176.117 48.6342C176.131 48.5936 176.154 48.5212 176.162 48.4355C176.169 48.3666 176.178 48.1861 176.057 48.0158C175.907 47.8039 175.676 47.7641 175.521 47.7766L175.521 47.7765L175.51 47.7776C168.867 48.458 162.673 50.557 157.422 53.9154L157.354 53.959L157.303 54.022C157.19 54.1614 157.137 54.3351 157.149 54.5085ZM157.149 54.5085L157.648 54.476M157.149 54.5085C157.149 54.5086 157.149 54.5086 157.149 54.5086L157.648 54.476M157.648 54.476C157.644 54.4246 157.66 54.3757 157.691 54.3366L175.586 48.5187L175.612 48.7724C174.721 48.8636 173.839 48.9809 172.967 49.1237C167.711 50.4391 162.707 52.3088 158.053 54.6992C158.042 54.7061 158.031 54.7131 158.02 54.72C158.02 54.7201 158.02 54.7202 158.019 54.7203C158 54.7328 157.98 54.7453 157.961 54.7578L157.941 54.7278C157.912 54.7278 157.882 54.7233 157.853 54.7142C157.797 54.697 157.747 54.6644 157.71 54.6215C157.673 54.5785 157.651 54.5274 157.648 54.476ZM204.784 47.1217L204.495 45.8034L203.855 46.9916L198.105 57.6672L197.53 58.7353L198.691 58.3827C201.02 57.6754 203.55 57.4276 206.126 57.659C208.701 57.8903 211.263 58.5955 213.652 59.7319L214.165 58.8799L214.165 58.8794L214.165 58.8793L214.165 58.8793L214.164 58.8787L214.16 58.8758L214.144 58.8633C214.129 58.8521 214.107 58.8351 214.077 58.8125C214.018 58.7672 213.93 58.6996 213.817 58.611C213.592 58.434 213.268 58.1737 212.874 57.8427C212.086 57.1803 211.023 56.2368 209.922 55.1126C207.697 52.843 205.396 49.9171 204.784 47.1217ZM182.065 47.1489L182.065 47.1488L182.057 47.1492C181.893 47.1579 181.692 47.2231 181.557 47.4086C181.427 47.5877 181.425 47.7881 181.459 47.9294C181.522 48.1906 181.756 48.4463 182.095 48.4755L182.107 48.4765L182.118 48.477C187.737 48.7014 193.389 49.9654 198.724 52.1923C198.769 52.2229 198.817 52.248 198.867 52.2672C198.957 52.3016 199.057 52.3178 199.159 52.3103C199.261 52.3029 199.366 52.2715 199.461 52.2104C199.558 52.1487 199.639 52.0599 199.69 51.9495C199.742 51.8391 199.758 51.72 199.743 51.6066C199.728 51.494 199.685 51.3932 199.625 51.3104C199.565 51.2278 199.489 51.1618 199.404 51.1148C199.357 51.0885 199.307 51.0678 199.255 51.0531C193.876 48.2896 187.897 46.9297 182.065 47.1489ZM198.967 51.7852L198.991 51.7681L198.967 51.7852ZM151.411 57.4954L151.313 57.5085L151.227 57.558C144.99 61.1605 139.993 66.1892 136.666 72.2207L136.658 72.2355L136.651 72.2509C136.542 72.4846 136.584 72.7168 136.669 72.8812C136.751 73.0397 136.881 73.1605 137.018 73.238C137.156 73.3157 137.34 73.3709 137.541 73.344C137.757 73.3151 137.953 73.1951 138.082 72.9983L138.082 72.9984L138.086 72.9921C141.641 67.4086 146.317 62.5381 151.912 58.5945L152.021 58.5178L152.077 58.3971L152.079 58.3926C152.09 58.3699 152.114 58.317 152.133 58.2602C152.149 58.2106 152.191 58.0691 152.145 57.9034C152.085 57.6837 151.914 57.5593 151.754 57.5126C151.624 57.4749 151.498 57.4838 151.411 57.4954Z" stroke="url(#B)"/></g><defs><filter id="A" x="91.085" y="15.378" width="168.379" height="119.473" filterUnits="userSpaceOnUse" color-interpolation-filters="sRGB"><feFlood flood-opacity="0" result="A"/><feColorMatrix in="SourceAlpha" values="0 0 0 0 0 0 0 0 0 0 0 0 0 0 0 0 0 0 127 0" result="B"/><feMorphology radius="3" in="SourceAlpha"/><feOffset dy="16"/><feGaussianBlur stdDeviation="24"/><feComposite in2="B" operator="out"/><feColorMatrix values="0 0 0 0 0.341176 0 0 0 0 0.333333 0 0 0 0 1 0 0 0 0.08 0"/><feBlend in2="A"/><feBlend in="SourceGraphic"/></filter><linearGradient id="B" x1="205.89" y1="76.387" x2="147.886" y2="49.339" gradientUnits="userSpaceOnUse"><stop stop-color="#101928"/><stop offset="1" stop-color="#fff"/></linearGradient></defs></svg>