<svg xmlns="http://www.w3.org/2000/svg" width="142" height="50" fill="none" xmlns:v="https://vecta.io/nano"><g fill="#fff"><rect x=".5" y=".5" width="141" height="49" rx="6.5" stroke="url(#A)"/><rect x="13" y="5" width="40" height="40" rx="8"/></g><path d="M42.125 26.243a.83.83 0 0 1-.83.83.83.83 0 0 1-.83-.83v-7.462a.83.83 0 0 1 .83-.83.83.83 0 0 1 .83.83v7.462zm-.29 5.193c-.128.11-3.202 2.689-8.836 2.689s-8.708-2.579-8.836-2.689a.83.83 0 0 1-.09-1.17.83.83 0 0 1 1.168-.092c.049.041 2.793 2.291 7.758 2.291 5.028 0 7.73-2.266 7.756-2.289a.83.83 0 0 1 1.17.09.83.83 0 0 1-.09 1.17zM23.873 18.781a.83.83 0 0 1 .83-.83.83.83 0 0 1 .83.83v7.462a.83.83 0 0 1-.83.83.83.83 0 0 1-.83-.83v-7.462zm4.148-1.659a.83.83 0 0 1 .83-.83.83.83 0 0 1 .83.83v11.084a.83.83 0 0 1-.83.83.83.83 0 0 1-.83-.83V17.122zm4.148-.42a.83.83 0 0 1 .83-.83.83.83 0 0 1 .83.83v12.03a.83.83 0 0 1-.83.83.83.83 0 0 1-.83-.83v-12.03zm4.148.42a.83.83 0 0 1 .83-.83.83.83 0 0 1 .83.83v11.084a.83.83 0 0 1-.83.83.83.83 0 0 1-.83-.83V17.122zm6.015-4.563H23.666a3.11 3.11 0 0 0-3.111 3.111v18.668a3.11 3.11 0 0 0 3.111 3.111h18.667a3.11 3.11 0 0 0 3.111-3.111V15.67a3.11 3.11 0 0 0-3.111-3.111z" fill="#1f8ded"/><path d="M58.12 30V19.92h1.246V30H58.12zm8.729 0v-3.787a5.34 5.34 0 0 0-.098-1.036c-.061-.331-.17-.628-.329-.889a1.7 1.7 0 0 0-.63-.63c-.261-.154-.593-.231-.994-.231-.313 0-.597.054-.854.161a1.67 1.67 0 0 0-.651.476 2.31 2.31 0 0 0-.427.812c-.098.322-.147.702-.147 1.141l-.819-.252c0-.733.131-1.36.392-1.883a2.86 2.86 0 0 1 1.113-1.211c.481-.285 1.045-.427 1.694-.427.49 0 .908.077 1.253.231s.632.359.861.616.408.537.539.854.222.632.273.959a5.36 5.36 0 0 1 .084.917V30h-1.26zm-5.39 0v-7.56h1.12v2.023h.14V30h-1.26zm12.691 0a5.6 5.6 0 0 1-1.33.105c-.434-.014-.821-.1-1.162-.259a1.67 1.67 0 0 1-.777-.756c-.149-.299-.231-.6-.245-.903l-.014-1.043V20.34h1.246v6.748l.007.791a1.26 1.26 0 0 0 .147.567c.168.299.434.474.798.525s.812.037 1.33-.042V30zm-5.061-6.531V22.44h5.061v1.029h-5.061zm9.557 6.741c-.742 0-1.391-.163-1.946-.49s-.98-.791-1.288-1.379-.462-1.283-.462-2.072c0-.826.152-1.54.455-2.142s.726-1.073 1.267-1.4 1.185-.497 1.918-.497c.761 0 1.407.175 1.939.525s.938.849 1.204 1.498.387 1.421.35 2.317h-1.26v-.448c-.014-.929-.203-1.622-.567-2.079s-.905-.693-1.624-.693c-.77 0-1.356.247-1.757.742s-.602 1.204-.602 2.128c0 .891.201 1.582.602 2.072s.973.735 1.715.735c.499 0 .933-.114 1.302-.343s.658-.558.868-.987l1.197.413a3.39 3.39 0 0 1-1.33 1.554c-.588.364-1.248.546-1.981.546zm-2.793-3.64v-1.001h5.586v1.001h-5.586zM83.642 30v-7.56h1.113v1.827l-.182-.238c.089-.233.203-.448.343-.644s.306-.357.483-.483a2.14 2.14 0 0 1 .665-.364c.247-.084.499-.133.756-.147s.497-.002.721.049v1.169a2.36 2.36 0 0 0-.861-.056 1.75 1.75 0 0 0-.868.343 1.87 1.87 0 0 0-.567.63 2.73 2.73 0 0 0-.273.805c-.051.285-.077.576-.077.875V30h-1.253zm8.271.21c-.765 0-1.416-.17-1.953-.511s-.938-.819-1.218-1.421-.425-1.288-.434-2.058c.009-.789.156-1.482.441-2.079a3.31 3.31 0 0 1 1.239-1.407c.537-.336 1.183-.504 1.939-.504.798 0 1.484.196 2.058.588a2.83 2.83 0 0 1 1.162 1.61l-1.232.371c-.159-.439-.418-.779-.777-1.022s-.763-.364-1.225-.364c-.518 0-.945.121-1.281.364s-.586.569-.749.994-.247.903-.252 1.449c.009.84.203 1.519.581 2.037s.95.77 1.701.77c.495 0 .905-.112 1.232-.336s.574-.558.742-.987l1.26.329c-.261.705-.67 1.244-1.225 1.617s-1.225.56-2.009.56zm7.678 0c-.751 0-1.4-.17-1.946-.511s-.959-.812-1.253-1.414-.441-1.293-.441-2.072c0-.793.149-1.489.448-2.086s.721-1.062 1.267-1.393 1.188-.504 1.925-.504c.756 0 1.407.17 1.953.511s.963.805 1.253 1.407.441 1.286.441 2.065c0 .789-.147 1.484-.441 2.086a3.38 3.38 0 0 1-1.26 1.407c-.546.336-1.195.504-1.946.504zm0-1.183c.784 0 1.367-.261 1.75-.784s.574-1.199.574-2.03c0-.854-.194-1.533-.581-2.037s-.969-.763-1.743-.763c-.527 0-.961.119-1.302.357s-.595.567-.763.987-.252.905-.252 1.456c0 .849.196 1.531.588 2.044s.968.77 1.729.77zm14.225.973l.007-4.837c0-.565-.152-1.006-.455-1.323s-.689-.483-1.169-.483a1.71 1.71 0 0 0-.798.196c-.252.126-.458.327-.616.602s-.238.618-.238 1.043l-.658-.266c-.01-.537.1-1.006.329-1.407s.55-.721.952-.945.854-.336 1.358-.336c.788 0 1.409.24 1.862.721s.679 1.118.679 1.925l-.007 5.11h-1.246zm-9.044 0v-7.56h1.113v2.023h.14V30h-1.253zm4.529 0l.007-4.788c0-.579-.15-1.031-.448-1.358s-.696-.497-1.19-.497-.887.168-1.19.504-.455.782-.455 1.337l-.658-.392c0-.49.116-.929.35-1.316a2.47 2.47 0 0 1 .952-.91 2.75 2.75 0 0 1 1.365-.336c.508 0 .952.107 1.33.322a2.18 2.18 0 0 1 .875.924c.205.397.308.87.308 1.421L110.54 30h-1.239z" fill="#475367"/><defs><linearGradient id="A" x1="71" y1="1" x2="71" y2="49" gradientUnits="userSpaceOnUse"><stop stop-color="#e4e7ec"/><stop offset="1" stop-color="#fff"/></linearGradient></defs></svg>