<svg width="26" height="26" viewBox="0 0 26 26" fill="none" xmlns="http://www.w3.org/2000/svg">
<path d="M22.1251 14.2434C22.1251 14.7016 21.7536 15.0731 21.2954 15.0731C20.8373 15.0731 20.4658 14.7016 20.4658 14.2434V6.78126C20.4658 6.32306 20.8373 5.95157 21.2954 5.95157C21.7536 5.95157 22.1251 6.32306 22.1251 6.78126V14.2434ZM21.8355 19.4367C21.7074 19.5465 18.634 22.1255 12.9992 22.1255C7.36435 22.1255 4.2911 19.5464 4.16292 19.4366C3.8151 19.1384 3.77484 18.6146 4.07299 18.2666C4.37049 17.9194 4.8928 17.8783 5.24087 18.175C5.28964 18.2158 8.03396 20.466 12.9992 20.4661C18.0268 20.4661 20.7287 18.1996 20.7555 18.1767C21.1026 17.8786 21.6273 17.9187 21.9253 18.2667C22.2236 18.6146 22.1833 19.1385 21.8355 19.4367ZM3.87319 6.78126C3.87319 6.32306 4.24466 5.95157 4.70282 5.95157C5.16106 5.95157 5.53245 6.32306 5.53245 6.78126V14.2434C5.53245 14.7015 5.16106 15.073 4.70282 15.073C4.24466 15.073 3.87319 14.7015 3.87319 14.2433V6.78126ZM8.02141 5.12189C8.02141 4.66369 8.39288 4.2922 8.85104 4.2922C9.3092 4.2922 9.68067 4.66369 9.68067 5.12189V16.2061C9.68067 16.6643 9.3092 17.0358 8.85104 17.0358C8.39288 17.0358 8.02141 16.6643 8.02141 16.2061V5.12189ZM12.1695 4.70206C12.1695 4.24366 12.541 3.87238 12.9992 3.87238C13.4573 3.87238 13.8288 4.24366 13.8288 4.70206V16.7325C13.8288 17.1907 13.4573 17.5622 12.9992 17.5622C12.541 17.5622 12.1695 17.1907 12.1695 16.7325V4.70206ZM16.3177 5.12189C16.3177 4.66369 16.6891 4.2922 17.1473 4.2922C17.6055 4.2922 17.9769 4.66369 17.9769 5.12189V16.2061C17.9769 16.6643 17.6055 17.0358 17.1473 17.0358C16.6891 17.0358 16.3177 16.6643 16.3177 16.2061V5.12189ZM22.3325 0.558607H3.66579C1.94763 0.558607 0.554688 1.95165 0.554688 3.66993L0.554769 22.3379C0.554769 24.0562 1.94763 25.4492 3.66579 25.4492H22.3325C24.0506 25.4492 25.4436 24.0562 25.4436 22.3379V3.66993C25.4436 1.95165 24.0506 0.558607 22.3325 0.558607Z" fill="#1F8DED"/>
</svg>
