<svg width="50" height="50" viewBox="0 0 50 50" fill="none" xmlns="http://www.w3.org/2000/svg">
<rect x="0.5" y="0.5" width="49" height="49" rx="6.5" fill="white" stroke="url(#paint0_linear_1748_879)"/>
<rect x="5" y="5" width="40" height="40" rx="8" fill="white"/>
<path d="M34.1273 26.2423C34.1273 26.7005 33.7559 27.072 33.2977 27.072C32.8395 27.072 32.4681 26.7005 32.4681 26.2423V18.7802C32.4681 18.322 32.8395 17.9505 33.2977 17.9505C33.7559 17.9505 34.1273 18.322 34.1273 18.7802V26.2423ZM33.8378 31.4356C33.7096 31.5454 30.6363 34.1244 25.0014 34.1244C19.3666 34.1244 16.2934 31.5453 16.1652 31.4355C15.8174 31.1373 15.7771 30.6135 16.0752 30.2655C16.3728 29.9183 16.8951 29.8772 17.2431 30.1739C17.2919 30.2147 20.0362 32.4649 25.0014 32.465C30.029 32.465 32.731 30.1985 32.7577 30.1756C33.1049 29.8775 33.6296 29.9176 33.9276 30.2656C34.2258 30.6135 34.1856 31.1374 33.8378 31.4356ZM15.8755 18.7802C15.8755 18.322 16.2469 17.9505 16.7051 17.9505C17.1633 17.9505 17.5347 18.322 17.5347 18.7802V26.2423C17.5347 26.7004 17.1633 27.0719 16.7051 27.0719C16.2469 27.0719 15.8755 26.7004 15.8755 26.2422V18.7802ZM20.0237 17.1208C20.0237 16.6626 20.3951 16.2911 20.8533 16.2911C21.3115 16.2911 21.6829 16.6626 21.6829 17.1208V28.205C21.6829 28.6632 21.3115 29.0347 20.8533 29.0347C20.3951 29.0347 20.0237 28.6632 20.0237 28.205V17.1208ZM24.1718 16.701C24.1718 16.2426 24.5433 15.8713 25.0014 15.8713C25.4596 15.8713 25.8311 16.2426 25.8311 16.701V28.7314C25.8311 29.1896 25.4596 29.5611 25.0014 29.5611C24.5433 29.5611 24.1718 29.1896 24.1718 28.7314V16.701ZM28.3199 17.1208C28.3199 16.6626 28.6914 16.2911 29.1496 16.2911C29.6077 16.2911 29.9792 16.6626 29.9792 17.1208V28.205C29.9792 28.6632 29.6077 29.0347 29.1496 29.0347C28.6914 29.0347 28.3199 28.6632 28.3199 28.205V17.1208ZM34.3347 12.5575H15.668C13.9499 12.5575 12.5569 13.9506 12.5569 15.6688L12.557 34.3368C12.557 36.0551 13.9499 37.4481 15.668 37.4481H34.3347C36.0529 37.4481 37.4458 36.0551 37.4458 34.3368V15.6688C37.4458 13.9506 36.0529 12.5575 34.3347 12.5575Z" fill="#1F8DED"/>
<defs>
<linearGradient id="paint0_linear_1748_879" x1="25" y1="1" x2="25" y2="49" gradientUnits="userSpaceOnUse">
<stop stop-color="#E4E7EC"/>
<stop offset="1" stop-color="white"/>
</linearGradient>
</defs>
</svg>
