<svg xmlns="http://www.w3.org/2000/svg" width="16" height="16" fill="none" xmlns:v="https://vecta.io/nano"><path d="M13.631 13.635h-2.369V9.922c0-.885-.018-2.025-1.235-2.025-1.235 0-1.424.964-1.424 1.96v3.778H6.234V6H8.51v1.04h.03c.319-.6 1.092-1.233 2.247-1.233 2.401 0 2.845 1.58 2.845 3.637v4.19l-.001.001zM3.558 4.955c-.365 0-.714-.145-.972-.403s-.403-.608-.403-.972c0-.272.081-.538.232-.764s.366-.402.618-.506.528-.131.795-.078.512.185.704.377.323.438.376.705.025.544-.079.795-.281.466-.507.617-.492.232-.765.231v-.002zm1.188 8.68H2.37V6h2.376v7.635zM14.816 0H1.182C.528 0 0 .516 0 1.153v13.694C0 15.485.528 16 1.18 16h13.635c.652 0 1.185-.515 1.185-1.153V1.153C16 .516 15.467 0 14.815 0h.002-.001z" fill="#272c30"/></svg>