<svg xmlns="http://www.w3.org/2000/svg" width="606" height="200" fill="none" xmlns:v="https://vecta.io/nano"><style><![CDATA[.B{fill:#0d162f}.C{fill:#fff}.D{stroke:#16134a}.E{stroke-opacity:.1}.F{stroke-width:.9}.G{fill-opacity:.3}.H{stroke:#0d162f}.I{stroke-width:.75}.J{stroke-linecap:round}.K{stroke-linejoin:round}.L{fill-opacity:.5}.M{stroke-opacity:.5}]]></style><g clip-path="url(#C)"><g clip-path="url(#D)"><g clip-path="url(#E)"><g clip-path="url(#F)"><g filter="url(#B)"><path d="M505.8 57H99.3a9 9 0 0 0-9 9v180.5a9 9 0 0 0 9 9h406.5a9 9 0 0 0 9-9V66a9 9 0 0 0-9-9z" fill-opacity=".8" class="C"/><path d="M505.8 56.55H99.3A9.45 9.45 0 0 0 89.85 66v180.5c0 5.219 4.231 9.45 9.45 9.45h406.5c5.219 0 9.45-4.231 9.45-9.45V66c0-5.219-4.231-9.45-9.45-9.45z" class="D E F"/><path d="M103.689 77c-.058-.179-.136-.34-.231-.482s-.207-.266-.339-.367-.277-.178-.442-.232a1.76 1.76 0 0 0-.543-.08 1.62 1.62 0 0 0-.882.25c-.264.167-.475.413-.631.738s-.234.723-.234 1.196.079.871.237 1.196.372.571.642.738.573.25.91.25c.313 0 .588-.067.826-.2s.426-.325.559-.57.203-.537.203-.871l.202.043h-1.64v-.586h2.077v.586c0 .449-.096.84-.288 1.172s-.452.59-.788.772-.717.272-1.151.272c-.482 0-.907-.114-1.273-.341s-.648-.55-.852-.969-.304-.916-.304-1.492a3.65 3.65 0 0 1 .173-1.164c.117-.346.282-.641.495-.884s.465-.43.756-.559.612-.194.962-.194c.287 0 .556.044.804.13a2.16 2.16 0 0 1 .669.365 2.07 2.07 0 0 1 .492.562c.132.217.222.457.272.722h-.682zm3.422 3.835c-.369 0-.693-.088-.972-.264a1.79 1.79 0 0 1-.65-.738c-.154-.316-.232-.685-.232-1.108s.078-.798.232-1.116.373-.565.65-.74.603-.264.972-.264.692.088.969.264a1.76 1.76 0 0 1 .65.74c.157.318.235.69.235 1.116s-.078.792-.235 1.108-.371.562-.65.738a1.77 1.77 0 0 1-.969.264zm0-.565c.281 0 .511-.072.692-.216s.316-.333.403-.567.13-.488.13-.762-.043-.528-.13-.764-.221-.427-.403-.573-.411-.218-.692-.218-.511.073-.692.218-.316.337-.403.573-.13.491-.13.764.043.527.13.762.221.423.403.567.411.216.692.216zm4.475.565c-.369 0-.693-.088-.972-.264a1.79 1.79 0 0 1-.65-.738c-.154-.316-.232-.685-.232-1.108s.078-.798.232-1.116.373-.565.65-.74.603-.264.972-.264.693.088.97.264.495.423.649.74.235.69.235 1.116-.078.792-.235 1.108-.371.562-.649.738-.601.264-.97.264zm0-.565c.281 0 .511-.072.693-.216s.315-.333.402-.567.13-.488.13-.762-.043-.528-.13-.764a1.29 1.29 0 0 0-.402-.573c-.182-.145-.412-.218-.693-.218s-.511.073-.692.218a1.29 1.29 0 0 0-.403.573c-.087.236-.13.491-.13.764s.043.527.13.762.222.423.403.567.412.216.692.216zm4.465 2.099c-.304 0-.565-.039-.783-.117s-.401-.177-.546-.304-.259-.257-.344-.4l.501-.352a3.69 3.69 0 0 0 .215.256c.087.098.206.182.357.253s.353.109.6.109c.33 0 .602-.08.817-.24s.322-.41.322-.751v-.831h-.053c-.046.075-.112.167-.197.277s-.204.205-.362.29-.368.125-.634.125a1.71 1.71 0 0 1-.89-.234c-.261-.156-.467-.383-.62-.682s-.227-.66-.227-1.087c0-.419.074-.784.222-1.095a1.7 1.7 0 0 1 .615-.724c.263-.172.566-.258.911-.258.266 0 .477.044.634.133s.278.186.362.298l.197.272h.064v-.65h.607v4.208c0 .352-.08.637-.24.858s-.371.384-.639.487a2.41 2.41 0 0 1-.889.157zm-.022-2.248a1.13 1.13 0 0 0 .639-.173c.174-.115.307-.281.397-.498s.136-.476.136-.778c0-.295-.044-.555-.133-.78s-.22-.402-.394-.53a1.06 1.06 0 0 0-.645-.192 1.07 1.07 0 0 0-.666.202 1.23 1.23 0 0 0-.396.543 2.1 2.1 0 0 0-.131.756c0 .284.044.535.133.754s.224.387.4.511.397.184.66.184zm3.569-4.826v5.454h-.628v-5.454h.628zm2.867 5.54c-.395 0-.735-.087-1.021-.261s-.503-.421-.657-.735-.229-.684-.229-1.103.076-.788.229-1.108.369-.572.644-.751.6-.272.97-.272c.213 0 .423.035.631.107s.397.186.567.346a1.66 1.66 0 0 1 .408.629c.101.261.151.582.151.964v.266h-3.153v-.543h2.514c0-.231-.046-.437-.138-.618s-.22-.324-.389-.429-.364-.157-.591-.157c-.251 0-.467.062-.65.186a1.22 1.22 0 0 0-.418.479c-.098.197-.147.408-.147.634v.362c0 .309.053.571.16.786a1.15 1.15 0 0 0 .45.487 1.32 1.32 0 0 0 .669.165c.165 0 .314-.023.447-.069a.96.96 0 0 0 .575-.57l.608.17a1.35 1.35 0 0 1-.323.543 1.57 1.57 0 0 1-.559.362c-.222.085-.471.128-.748.128zm5.963.011c-.259 0-.495-.049-.706-.147a1.21 1.21 0 0 1-.503-.429c-.125-.188-.187-.415-.187-.682 0-.234.046-.424.139-.57a.97.97 0 0 1 .37-.346 1.94 1.94 0 0 1 .511-.186l.568-.101.604-.072a.93.93 0 0 0 .341-.088c.073-.041.109-.112.109-.213v-.021c0-.263-.072-.467-.215-.613s-.358-.218-.648-.218c-.3 0-.535.066-.705.197s-.291.272-.36.421l-.597-.213c.107-.248.249-.442.427-.581a1.59 1.59 0 0 1 .585-.293 2.44 2.44 0 0 1 .629-.085 2.5 2.5 0 0 1 .453.048 1.45 1.45 0 0 1 .498.189c.161.096.295.241.402.434s.16.453.16.778v2.695h-.629v-.554h-.032a1.08 1.08 0 0 1-.213.285c-.099.101-.231.187-.397.258s-.366.107-.604.107zm.096-.565c.248 0 .458-.049.628-.146a1 1 0 0 0 .389-.378.96.96 0 0 0 .133-.487v-.575c-.026.032-.085.061-.176.088a2.94 2.94 0 0 1-.308.067l-.339.048-.263.032a2.39 2.39 0 0 0-.458.104c-.141.046-.254.116-.341.21s-.128.218-.128.378c0 .218.081.384.242.495s.37.165.621.165zm4.588.554c-.384 0-.714-.09-.991-.272a1.77 1.77 0 0 1-.639-.748c-.149-.318-.224-.681-.224-1.089 0-.416.077-.782.229-1.1s.37-.569.645-.748a1.73 1.73 0 0 1 .969-.272c.288 0 .547.053.778.16s.42.256.567.447.239.416.275.671h-.629a.97.97 0 0 0-.32-.495c-.163-.145-.383-.218-.66-.218-.245 0-.46.064-.645.192s-.325.305-.428.535a1.97 1.97 0 0 0-.152.807c0 .316.05.591.149.826a1.26 1.26 0 0 0 .426.546c.185.13.401.194.65.194.163 0 .312-.028.445-.085s.246-.138.338-.245a.94.94 0 0 0 .197-.383h.629c-.036.241-.124.459-.264.652s-.322.345-.551.458-.492.168-.794.168zm4.189 0c-.383 0-.713-.09-.99-.272s-.49-.431-.64-.748-.223-.681-.223-1.089c0-.416.076-.782.229-1.1s.369-.569.644-.748.6-.272.97-.272a1.83 1.83 0 0 1 .777.16c.231.107.42.256.568.447s.239.416.274.671h-.629c-.047-.186-.154-.352-.319-.495s-.384-.218-.661-.218c-.245 0-.459.064-.644.192a1.25 1.25 0 0 0-.429.535c-.101.229-.152.498-.152.807 0 .316.05.591.149.826a1.27 1.27 0 0 0 .427.546 1.1 1.1 0 0 0 .649.194 1.12 1.12 0 0 0 .445-.085c.133-.057.246-.138.338-.245a.93.93 0 0 0 .197-.383h.629a1.44 1.44 0 0 1-.264.652c-.138.192-.322.345-.551.458s-.492.168-.794.168zm4.19 0c-.369 0-.694-.088-.972-.264a1.79 1.79 0 0 1-.65-.738c-.155-.316-.232-.685-.232-1.108s.077-.798.232-1.116.373-.565.65-.74.603-.264.972-.264.692.088.969.264a1.76 1.76 0 0 1 .65.74c.156.318.235.69.235 1.116s-.079.792-.235 1.108-.371.562-.65.738a1.77 1.77 0 0 1-.969.264zm0-.565c.28 0 .511-.072.692-.216s.315-.333.402-.567.131-.488.131-.762-.044-.528-.131-.764a1.29 1.29 0 0 0-.402-.573c-.181-.145-.412-.218-.692-.218s-.512.073-.693.218a1.29 1.29 0 0 0-.402.573c-.087.236-.13.491-.13.764s.043.527.13.762.221.423.402.567.412.216.693.216zm5.391-1.193v-2.418h.629v4.091h-.629v-.692h-.042c-.096.208-.246.384-.448.53s-.458.216-.767.216c-.256 0-.483-.056-.682-.168s-.355-.284-.469-.511-.17-.518-.17-.866v-2.599h.629v2.557c0 .298.083.536.25.714a.85.85 0 0 0 .644.266c.157 0 .316-.04.477-.12s.3-.202.41-.368.168-.376.168-.631zm2.408-.788v2.461h-.628v-4.091h.607v.639h.053a1.17 1.17 0 0 1 .437-.501c.196-.128.448-.192.757-.192a1.49 1.49 0 0 1 .727.171c.207.112.369.282.484.511s.174.515.174.863v2.599h-.629v-2.557c0-.321-.083-.572-.25-.751s-.396-.272-.688-.272a1.1 1.1 0 0 0-.538.13c-.156.087-.279.214-.37.381s-.136.369-.136.607zm5.538-1.63v.533h-2.12v-.533h2.12zm-1.502-.98h.629v3.899c0 .178.025.311.077.4a.4.4 0 0 0 .202.176.82.82 0 0 0 .264.043c.069 0 .126-.003.17-.011l.107-.021.128.565c-.043.016-.102.032-.179.048s-.173.027-.29.027a1.26 1.26 0 0 1-.522-.115c-.169-.076-.309-.193-.421-.349s-.165-.353-.165-.591v-4.07z" class="B G"/><path d="M501.3 87.2H103.8a4.05 4.05 0 0 0-4.05 4.05V107a4.05 4.05 0 0 0 4.05 4.05h397.5a4.05 4.05 0 0 0 4.05-4.05V91.25a4.05 4.05 0 0 0-4.05-4.05z" class="D E F"/><path d="M241.55 91.25H105.8a2 2 0 0 0-2 2V105a2 2 0 0 0 2 2h135.75a2 2 0 0 0 2-2V93.25a2 2 0 0 0-2-2z" fill-opacity=".03" class="B"/><path d="M116.238 96.938v-.875h-6.125v.875" class="H I J K M"/><path d="M113.175 96.063v6.126m0 0h-.875m.875 0h.875" class="H I J K M"/><path d="M128.074 97.647c-.062-.194-.145-.368-.249-.521s-.225-.288-.368-.396a1.55 1.55 0 0 0-.489-.252c-.181-.057-.38-.086-.598-.086a1.81 1.81 0 0 0-.997.284c-.296.19-.53.468-.703.834s-.256.811-.256 1.339.087.979.259 1.346.409.644.71.834.642.284 1.026.284c.356 0 .665-.072.93-.217a1.52 1.52 0 0 0 .617-.614c.147-.266.22-.579.22-.939l.256.048h-1.873v-.815h2.573v.745c0 .55-.117 1.027-.352 1.432s-.554.714-.965.933-.878.33-1.406.33c-.593 0-1.113-.137-1.56-.41s-.793-.659-1.042-1.16-.374-1.099-.374-1.789c0-.522.073-.991.218-1.406a3.04 3.04 0 0 1 .61-1.058 2.66 2.66 0 0 1 .93-.668 2.91 2.91 0 0 1 1.173-.233 3.03 3.03 0 0 1 .988.157c.306.104.579.252.818.444s.44.42.597.684a2.49 2.49 0 0 1 .32.873h-1.013zm2.235 4.478v-4.909h.917v.799h.061c.102-.271.269-.481.501-.633s.511-.23.835-.23.603.077.824.23a1.35 1.35 0 0 1 .496.633h.051c.117-.262.303-.471.559-.626s.56-.236.914-.236c.445 0 .809.139 1.09.419s.425.7.425 1.262v3.292h-.956v-3.202c0-.332-.09-.573-.271-.722a.99.99 0 0 0-.649-.224c-.311 0-.553.096-.726.288s-.258.434-.258.732v3.129h-.953v-3.263c0-.266-.083-.481-.249-.642a.89.89 0 0 0-.649-.243.93.93 0 0 0-.502.144 1.05 1.05 0 0 0-.367.393 1.2 1.2 0 0 0-.138.585v3.027h-.955zm9.382.109a2 2 0 0 1-.843-.173c-.252-.117-.451-.286-.598-.508s-.217-.493-.217-.815c0-.277.053-.505.159-.684s.251-.321.432-.425.383-.183.607-.237a6.05 6.05 0 0 1 .684-.121l.716-.083c.183-.023.316-.061.399-.112s.125-.134.125-.249v-.022c0-.279-.079-.495-.236-.649s-.388-.23-.697-.23c-.322 0-.575.071-.761.214s-.31.297-.38.47l-.898-.205c.106-.298.262-.539.466-.722a1.9 1.9 0 0 1 .713-.403c.269-.085.551-.128.847-.128a2.98 2.98 0 0 1 .623.07c.222.045.429.128.62.249s.353.295.477.521.185.515.185.873v3.26h-.933v-.671h-.039c-.061.123-.154.245-.278.364s-.282.219-.476.297-.426.119-.697.119zm.208-.767c.264 0 .49-.053.678-.157a1.1 1.1 0 0 0 .431-.409c.1-.17.15-.353.15-.547v-.632c-.034.034-.1.066-.198.096a3.06 3.06 0 0 1-.329.074l-.361.054-.294.038a2.37 2.37 0 0 0-.508.118c-.152.055-.273.135-.365.24a.6.6 0 0 0-.134.409c0 .236.087.415.262.537s.397.179.668.179zm3.488.658v-4.909h.955v4.909h-.955zm.482-5.666c-.166 0-.309-.055-.428-.166a.54.54 0 0 1-.176-.403c0-.158.059-.292.176-.403a.6.6 0 0 1 .428-.169.59.59 0 0 1 .425.169c.12.111.179.245.179.403s-.059.29-.179.403-.258.166-.425.166zm2.715-.879v6.546h-.956V95.58h.956zm5.096 6.654c-.311 0-.593-.058-.844-.173s-.451-.286-.598-.508-.217-.493-.217-.815c0-.277.053-.505.16-.684s.25-.321.431-.425a2.26 2.26 0 0 1 .607-.237 6.05 6.05 0 0 1 .684-.121l.716-.083c.183-.023.317-.061.4-.112s.124-.134.124-.249v-.022c0-.279-.078-.495-.236-.649s-.388-.23-.697-.23c-.322 0-.575.071-.76.214s-.311.297-.381.47l-.898-.205c.107-.298.262-.539.467-.722a1.89 1.89 0 0 1 .712-.403c.269-.085.551-.128.847-.128.196 0 .404.023.624.07a1.83 1.83 0 0 1 .62.249 1.38 1.38 0 0 1 .476.521c.123.224.185.515.185.873v3.26h-.933v-.671h-.038a1.38 1.38 0 0 1-.278.364 1.46 1.46 0 0 1-.477.297c-.194.079-.426.119-.696.119zm.207-.767c.265 0 .49-.053.678-.157s.333-.241.431-.409.151-.353.151-.547v-.632c-.034.034-.101.066-.199.096s-.205.052-.329.074l-.361.054-.294.038c-.185.023-.355.063-.508.118a.86.86 0 0 0-.364.24c-.09.102-.135.238-.135.409 0 .236.088.415.262.537s.398.179.668.179zm5.556.757c-.475 0-.884-.107-1.227-.323s-.603-.516-.787-.898-.275-.818-.275-1.31c0-.499.094-.939.282-1.32s.451-.683.792-.898.743-.323 1.205-.323c.373 0 .706.069.997.208a1.79 1.79 0 0 1 .707.575c.181.247.288.536.323.866h-.931c-.051-.23-.168-.428-.351-.594s-.424-.249-.729-.249a1.19 1.19 0 0 0-.7.211c-.198.138-.352.337-.463.594s-.166.558-.166.908c0 .358.054.666.163.926s.262.462.46.604.436.215.706.215c.181 0 .345-.033.492-.1a1 1 0 0 0 .374-.29 1.08 1.08 0 0 0 .214-.454h.931c-.035.317-.138.601-.31.85a1.79 1.79 0 0 1-.694.588 2.25 2.25 0 0 1-1.013.214zm5.106 0c-.475 0-.884-.107-1.227-.323s-.603-.516-.786-.898-.275-.818-.275-1.31c0-.499.094-.939.281-1.32s.452-.683.793-.898.742-.323 1.205-.323c.373 0 .705.069.997.208s.527.328.706.575a1.74 1.74 0 0 1 .323.866h-.93a1.11 1.11 0 0 0-.352-.594c-.181-.166-.424-.249-.728-.249-.267 0-.5.07-.7.211a1.36 1.36 0 0 0-.464.594c-.11.256-.166.558-.166.908 0 .358.054.666.163.926s.262.462.46.604.436.215.707.215c.181 0 .345-.033.492-.1a1.01 1.01 0 0 0 .374-.29c.102-.126.173-.277.214-.454h.93a1.8 1.8 0 0 1-.31.85 1.79 1.79 0 0 1-.694.588c-.287.143-.625.214-1.013.214zm5.107 0c-.46 0-.862-.105-1.205-.316s-.61-.506-.799-.886-.285-.822-.285-1.329.095-.955.285-1.336.456-.678.799-.888.745-.316 1.205-.316.862.105 1.205.316a2.13 2.13 0 0 1 .799.888c.189.381.284.827.284 1.336s-.095.95-.284 1.329-.456.675-.799.886-.745.316-1.205.316zm.003-.802c.298 0 .545-.079.741-.237s.341-.367.435-.629.144-.551.144-.866a2.49 2.49 0 0 0-.144-.863c-.094-.264-.239-.476-.435-.636s-.443-.24-.741-.24-.55.08-.748.24a1.43 1.43 0 0 0-.438.636 2.54 2.54 0 0 0-.14.863 2.55 2.55 0 0 0 .14.866c.096.262.242.472.438.629s.448.237.748.237zm6.461-1.333v-2.873h.959v4.909h-.939v-.85h-.051c-.113.262-.295.48-.544.655s-.555.259-.923.259c-.316 0-.595-.069-.838-.208s-.43-.348-.569-.623-.204-.615-.204-1.02v-3.122h.955v3.007c0 .335.093.601.278.799s.427.298.723.298a1.16 1.16 0 0 0 .533-.135 1.12 1.12 0 0 0 .445-.405c.119-.182.178-.412.175-.691zm3.199-.879v2.915h-.956v-4.909h.918v.799h.06c.113-.26.29-.469.531-.626s.548-.236.917-.236c.335 0 .628.07.879.211s.446.345.585.62.208.615.208 1.019v3.123h-.956v-3.007c0-.356-.093-.634-.278-.834s-.44-.304-.764-.304c-.222 0-.419.048-.591.144a1.03 1.03 0 0 0-.406.422c-.098.183-.147.405-.147.665zm6.715-1.994v.767h-2.682v-.767h2.682zm-1.963-1.176h.956v4.644c0 .185.028.325.083.418s.127.155.214.189.187.048.291.048c.077 0 .144-.005.201-.016l.135-.026.172.79c-.055.021-.134.042-.236.064s-.23.036-.384.038a1.7 1.7 0 0 1-.703-.134 1.21 1.21 0 0 1-.527-.435c-.134-.196-.202-.442-.202-.738V96.04z" class="B L"/><path d="M192.404 97.216v.767h-2.774v-.767h2.774zm-2.014 4.909v-5.478c0-.307.067-.561.202-.764s.312-.357.533-.457.463-.153.723-.153a2.19 2.19 0 0 1 .492.048c.136.03.237.058.303.083l-.223.773-.173-.045a.98.98 0 0 0-.256-.029c-.232 0-.398.057-.498.173s-.147.281-.147.499v5.35h-.956zm3 0v-4.909h.923v.78h.051c.09-.264.248-.472.473-.623s.486-.23.774-.23l.211.006.195.016v.914a1.77 1.77 0 0 0-.205-.035c-.098-.015-.196-.022-.294-.022-.226 0-.427.048-.604.144s-.313.225-.415.393-.154.356-.154.569v2.998h-.955zm5.346.099c-.46 0-.862-.105-1.205-.316s-.609-.506-.799-.886-.285-.822-.285-1.329.095-.955.285-1.336a2.13 2.13 0 0 1 .799-.888c.343-.211.745-.316 1.205-.316s.862.105 1.205.316a2.13 2.13 0 0 1 .799.888c.189.381.284.827.284 1.336s-.095.95-.284 1.329-.456.675-.799.886-.745.316-1.205.316zm.003-.802c.298 0 .545-.079.741-.237s.341-.367.435-.629.144-.551.144-.866a2.49 2.49 0 0 0-.144-.863 1.4 1.4 0 0 0-.435-.636c-.196-.16-.443-.24-.741-.24s-.55.08-.748.24a1.43 1.43 0 0 0-.438.636c-.093.262-.14.55-.14.863s.047.604.14.866.242.472.438.629.448.237.748.237zm3.352.703v-4.909h.917v.799h.061c.102-.271.269-.481.502-.633s.51-.23.834-.23.603.077.824.23a1.35 1.35 0 0 1 .496.633h.051c.117-.262.303-.471.559-.626s.561-.236.914-.236c.446 0 .809.139 1.09.419s.425.7.425 1.262v3.292h-.955v-3.202c0-.332-.091-.573-.272-.722a.99.99 0 0 0-.649-.224c-.311 0-.553.096-.725.288s-.259.434-.259.732v3.129h-.953v-3.263c0-.266-.083-.481-.249-.642s-.382-.243-.649-.243a.93.93 0 0 0-.502.144 1.06 1.06 0 0 0-.367.393 1.2 1.2 0 0 0-.138.585v3.027h-.955zm11.4-6.546v6.546h-.988V95.58h.988zm6.721 0v6.546h-.907l-3.327-4.8h-.061v4.8h-.988V95.58h.914l3.331 4.807h.06V95.58h.978zm1.441 6.546V95.58h2.333c.509 0 .931.093 1.266.278s.584.439.751.761.249.68.249 1.08a2.3 2.3 0 0 1-.253 1.087c-.166.32-.417.573-.754.761s-.755.278-1.262.278h-1.605v-.837h1.515c.322 0 .583-.055.783-.166s.348-.266.441-.46.141-.414.141-.662-.047-.467-.141-.658a1 1 0 0 0-.444-.451c-.2-.109-.464-.163-.792-.163h-1.241v5.698h-.987zm9.966-6.546h.991v4.305c0 .458-.108.864-.323 1.217a2.25 2.25 0 0 1-.908.831c-.39.201-.847.301-1.371.301s-.978-.1-1.368-.301-.692-.479-.907-.831-.323-.759-.323-1.217V95.58h.987v4.225c0 .296.065.559.195.789s.319.411.56.543.526.195.856.195.619-.065.86-.195.428-.313.556-.543.195-.493.195-.789V95.58zm2.104.85v-.85h5.065v.85h-2.042v5.695h-.984V96.43h-2.039z" class="B G"/><path d="M99.961 128.5v-5.455h1.844c.426 0 .776.073 1.049.219s.476.342.607.594.197.539.197.86-.065.606-.197.855-.333.444-.604.586-.619.21-1.042.21h-1.491v-.596h1.47c.291 0 .526-.043.703-.128a.81.81 0 0 0 .389-.362c.082-.158.122-.347.122-.565s-.04-.409-.122-.573-.212-.289-.392-.378-.416-.136-.711-.136h-1.161v4.869h-.66zm2.568-2.45l1.342 2.45h-.767l-1.321-2.45h.746zm3.816 2.535c-.394 0-.734-.087-1.02-.261a1.76 1.76 0 0 1-.658-.735c-.153-.316-.229-.683-.229-1.102s.076-.789.229-1.108a1.81 1.81 0 0 1 .645-.752 1.73 1.73 0 0 1 .969-.271c.213 0 .424.035.631.106s.397.187.568.347.306.367.407.628.152.583.152.964v.267h-3.154v-.544h2.515c0-.231-.047-.437-.139-.618a1.03 1.03 0 0 0-.389-.428c-.167-.105-.364-.158-.591-.158-.25 0-.467.063-.65.187s-.32.282-.418.479-.146.409-.146.634v.362c0 .309.053.571.159.786s.259.376.45.487.415.166.669.166c.165 0 .314-.023.447-.07s.252-.119.349-.213.173-.215.227-.357l.607.171c-.064.206-.171.387-.322.543s-.338.275-.56.362-.471.128-.748.128zm5.441 1.449v-2.163h-.053a4.02 4.02 0 0 1-.197.283 1.17 1.17 0 0 1-.365.301c-.158.087-.368.13-.631.13-.341 0-.642-.086-.903-.258a1.75 1.75 0 0 1-.613-.735c-.147-.318-.221-.694-.221-1.127s.074-.802.221-1.118.353-.561.616-.733.566-.258.91-.258c.267 0 .477.044.632.133s.275.186.356.298l.195.272h.074v-.65h.608v5.625h-.629zm-1.161-2.013c.252 0 .465-.066.639-.197s.306-.317.397-.552.136-.509.136-.817-.045-.573-.133-.802a1.17 1.17 0 0 0-.395-.538c-.174-.13-.388-.195-.644-.195a1.06 1.06 0 0 0-.666.206 1.22 1.22 0 0 0-.397.551c-.087.231-.13.49-.13.778s.044.555.133.793a1.3 1.3 0 0 0 .399.565c.178.138.398.208.661.208zm5.518-1.194v-2.418h.629v4.091h-.629v-.692h-.042c-.096.207-.245.384-.448.53s-.458.215-.767.215c-.255 0-.483-.056-.681-.168s-.356-.284-.469-.511-.171-.517-.171-.865v-2.6h.629v2.557c0 .298.083.536.25.714s.384.266.645.266c.156 0 .315-.04.476-.12s.301-.202.411-.367.167-.376.167-.632zm3.495 1.758c-.394 0-.734-.087-1.02-.261a1.76 1.76 0 0 1-.658-.735c-.152-.316-.229-.683-.229-1.102s.077-.789.229-1.108.37-.572.645-.752a1.73 1.73 0 0 1 .969-.271 1.94 1.94 0 0 1 .632.106c.207.071.397.187.567.347s.306.367.407.628.152.583.152.964v.267h-3.153v-.544h2.514c0-.231-.046-.437-.138-.618s-.221-.324-.389-.428-.364-.158-.592-.158c-.25 0-.467.063-.649.187a1.22 1.22 0 0 0-.419.479 1.42 1.42 0 0 0-.146.634v.362c0 .309.053.571.16.786s.258.376.45.487a1.31 1.31 0 0 0 .668.166c.166 0 .315-.023.448-.07s.251-.119.349-.213.173-.215.226-.357l.607.171c-.064.206-.171.387-.322.543s-.337.275-.559.362a2.06 2.06 0 0 1-.749.128zm5.548-3.26l-.564.16a1.05 1.05 0 0 0-.158-.274c-.067-.091-.159-.165-.277-.224s-.267-.088-.45-.088c-.25 0-.459.058-.626.173a.51.51 0 0 0-.247.434.45.45 0 0 0 .17.371c.114.09.291.166.533.226l.607.149c.366.089.638.225.818.408s.269.414.269.7a1.04 1.04 0 0 1-.203.629c-.133.184-.319.33-.559.436s-.518.16-.836.16c-.418 0-.763-.09-1.036-.271s-.447-.446-.52-.794l.597-.149c.057.22.164.385.322.495s.369.165.626.165c.293 0 .526-.062.698-.186s.261-.277.261-.453c0-.142-.05-.261-.149-.357s-.252-.17-.458-.218l-.682-.16c-.375-.089-.65-.226-.826-.413s-.261-.423-.261-.706a1.01 1.01 0 0 1 .195-.612 1.31 1.31 0 0 1 .535-.418c.227-.102.485-.152.772-.152.405 0 .723.089.954.266s.398.412.495.703zm2.8-.916v.533h-2.12v-.533h2.12zm-1.502-.98h.628v3.899c0 .178.026.311.078.4s.12.145.202.175a.8.8 0 0 0 .264.043c.069 0 .126-.004.17-.011l.107-.021.128.565a1.32 1.32 0 0 1-.179.048c-.076.017-.173.026-.29.026-.178 0-.352-.038-.522-.114s-.309-.193-.421-.349-.165-.353-.165-.591v-4.07zm8.222-.384h.66v3.612c0 .373-.088.706-.264.999s-.42.521-.737.69-.691.25-1.119.25-.801-.084-1.118-.25a1.87 1.87 0 0 1-.741-.69c-.174-.293-.261-.626-.261-.999v-3.612h.661v3.559c0 .266.058.503.175.711s.284.368.501.487a1.64 1.64 0 0 0 .783.176c.304 0 .565-.059.783-.176s.385-.281.501-.487.176-.445.176-.711v-3.559zm1.979 5.455v-5.455h1.843c.426 0 .776.073 1.05.219a1.4 1.4 0 0 1 .607.594c.131.252.197.539.197.86a1.81 1.81 0 0 1-.197.855 1.39 1.39 0 0 1-.605.586c-.271.14-.619.21-1.041.21h-1.492v-.596h1.471c.291 0 .525-.043.703-.128a.81.81 0 0 0 .389-.362c.081-.158.122-.347.122-.565a1.28 1.28 0 0 0-.122-.573.84.84 0 0 0-.392-.378c-.179-.09-.416-.136-.711-.136h-1.161v4.869h-.661zm2.568-2.45l1.342 2.45h-.767l-1.321-2.45h.746zm2.23 2.45v-5.455h.66v4.869h2.536v.586h-3.196z" class="B G"/><path d="M501.3 134.95H103.8a4.05 4.05 0 0 0-4.05 4.05v15.75a4.05 4.05 0 0 0 4.05 4.05h397.5a4.05 4.05 0 0 0 4.05-4.05V139a4.05 4.05 0 0 0-4.05-4.05z" class="D E F"/><path d="M105.398 146.96v2.915h-.956v-6.545h.943v2.435h.061c.115-.264.291-.474.527-.63s.546-.233.927-.233c.337 0 .631.069.882.208s.45.345.588.62.211.613.211 1.022v3.123h-.955v-3.007c0-.361-.093-.64-.278-.838s-.444-.3-.774-.3c-.226 0-.428.048-.607.144s-.316.236-.419.421-.15.405-.15.665zm6.75-1.994v.767h-2.682v-.767h2.682zm-1.962-1.176h.955v4.644c0 .185.028.325.083.418s.127.155.214.189.187.048.291.048a1.19 1.19 0 0 0 .202-.016l.134-.026.173.79a1.79 1.79 0 0 1-.237.064c-.102.023-.23.036-.383.038-.252.004-.486-.041-.704-.134a1.21 1.21 0 0 1-.527-.435c-.134-.196-.201-.442-.201-.738v-4.842zm5.311 1.176v.767h-2.682v-.767h2.682zm-1.963-1.176h.956v4.644c0 .185.028.325.083.418s.127.155.214.189.187.048.291.048a1.17 1.17 0 0 0 .201-.016l.135-.026.172.79c-.055.021-.134.042-.236.064s-.23.036-.384.038a1.7 1.7 0 0 1-.703-.134 1.21 1.21 0 0 1-.527-.435c-.135-.196-.202-.442-.202-.738v-4.842zm3.02 7.926v-6.75h.933v.796h.08c.055-.103.135-.221.24-.355s.249-.251.434-.352.431-.153.735-.153c.397 0 .75.1 1.061.3a2.02 2.02 0 0 1 .732.867c.179.377.269.831.269 1.361s-.089.985-.265 1.365-.42.668-.729.872-.662.304-1.058.304c-.298 0-.542-.05-.732-.15s-.334-.218-.441-.352a2.52 2.52 0 0 1-.246-.358h-.058v2.605h-.955zm.936-4.296c0 .346.05.648.15.908s.245.464.435.611a1.12 1.12 0 0 0 .697.217c.285 0 .524-.076.716-.227a1.41 1.41 0 0 0 .434-.623c.101-.262.151-.557.151-.886 0-.323-.049-.614-.147-.872s-.241-.461-.435-.61-.432-.224-.719-.224a1.14 1.14 0 0 0-.703.214c-.19.143-.334.342-.432.598s-.147.554-.147.894zm8.297-1.256l-.866.154a1.03 1.03 0 0 0-.173-.317.85.85 0 0 0-.313-.246c-.132-.064-.297-.096-.495-.096-.271 0-.497.061-.678.183s-.271.273-.271.463c0 .164.06.296.182.396s.317.183.588.246l.78.179c.451.105.788.266 1.01.483s.332.5.332.847c0 .294-.085.556-.256.786s-.403.407-.706.537-.649.195-1.045.195c-.55 0-.998-.117-1.346-.351a1.49 1.49 0 0 1-.639-1.007l.924-.141c.057.241.176.423.355.547s.412.182.699.182c.314 0 .564-.065.752-.195s.281-.293.281-.483a.5.5 0 0 0-.173-.386c-.113-.105-.286-.184-.521-.237l-.831-.182c-.458-.105-.797-.271-1.016-.499s-.326-.516-.326-.866c0-.29.081-.543.243-.76s.386-.387.671-.509.612-.185.981-.185c.531 0 .948.115 1.253.345s.506.534.604.917zm1.776 3.772c-.174 0-.325-.062-.45-.186s-.189-.277-.189-.453.063-.324.189-.448a.61.61 0 0 1 .45-.188c.175 0 .325.062.451.188s.188.273.188.448c0 .117-.029.224-.089.322a.66.66 0 0 1-.23.23c-.096.058-.203.087-.32.087zm0-3.573c-.174 0-.325-.063-.45-.189s-.189-.276-.189-.451.063-.323.189-.447.276-.189.45-.189.325.063.451.189.188.273.188.447c0 .118-.029.225-.089.323a.66.66 0 0 1-.23.23c-.096.058-.203.087-.32.087zm4.412-3.34l-2.109 7.836h-.853l2.109-7.836h.853zm3.305 0l-2.109 7.836h-.854l2.11-7.836h.853zm2.87 8.795c-.39 0-.725-.051-1.007-.153s-.507-.238-.684-.406a1.71 1.71 0 0 1-.396-.553l.821-.339c.058.094.135.193.231.297a1.18 1.18 0 0 0 .396.272c.168.075.384.112.649.112.362 0 .661-.088.898-.265s.354-.454.354-.838v-.965h-.06a2.13 2.13 0 0 1-.25.348 1.34 1.34 0 0 1-.441.333c-.187.094-.431.14-.731.14-.388 0-.738-.09-1.049-.271s-.554-.453-.735-.809-.268-.798-.268-1.32.088-.969.265-1.342.424-.658.735-.857.664-.3 1.058-.3c.305 0 .551.051.738.153s.334.218.438.352.189.252.246.355h.07v-.796h.937v5.018c0 .422-.098.768-.294 1.038s-.461.471-.796.601-.707.195-1.125.195zm-.01-2.809c.275 0 .508-.064.697-.192s.337-.315.435-.556a2.29 2.29 0 0 0 .15-.873c0-.33-.049-.621-.147-.872s-.242-.447-.431-.588-.424-.214-.704-.214c-.287 0-.527.074-.719.224s-.336.347-.434.6-.144.537-.144.85c0 .322.049.605.147.847a1.25 1.25 0 0 0 .435.569c.193.137.432.205.715.205zm3.507.866v-4.909h.917v.799h.06a1.27 1.27 0 0 1 .502-.633c.233-.153.511-.23.834-.23.329 0 .603.077.825.23s.389.364.495.633h.052a1.38 1.38 0 0 1 .559-.627c.256-.157.56-.236.914-.236.445 0 .808.14 1.09.419s.425.7.425 1.262v3.292h-.956v-3.202c0-.333-.09-.574-.271-.723a.99.99 0 0 0-.649-.223c-.311 0-.553.095-.726.287s-.259.434-.259.732v3.129h-.952v-3.263c0-.266-.083-.481-.249-.643s-.383-.242-.649-.242c-.181 0-.349.048-.502.143s-.274.225-.367.393-.138.364-.138.585v3.027h-.955zm9.382.109a2.01 2.01 0 0 1-.844-.173c-.251-.117-.45-.286-.597-.508s-.218-.493-.218-.815c0-.277.054-.505.16-.684a1.18 1.18 0 0 1 .432-.425c.181-.104.383-.183.607-.237a6.19 6.19 0 0 1 .684-.121l.716-.083c.183-.024.316-.061.399-.112s.125-.134.125-.249v-.023c0-.279-.079-.495-.237-.648s-.387-.231-.696-.231c-.322 0-.576.072-.761.215s-.31.297-.38.469l-.898-.204c.106-.298.262-.539.466-.722a1.89 1.89 0 0 1 .713-.403c.269-.085.551-.128.847-.128.196 0 .404.023.623.07a1.82 1.82 0 0 1 .62.25 1.37 1.37 0 0 1 .476.521c.124.223.186.514.186.872v3.26h-.933v-.671h-.039c-.062.123-.154.245-.278.364a1.46 1.46 0 0 1-.476.297c-.194.079-.426.119-.697.119zm.208-.767c.264 0 .49-.053.678-.157a1.1 1.1 0 0 0 .431-.409c.1-.171.15-.353.15-.547v-.632c-.034.034-.1.066-.198.095s-.206.053-.329.074l-.361.054-.294.039a2.35 2.35 0 0 0-.508.118c-.152.055-.273.135-.365.24a.6.6 0 0 0-.134.409c0 .236.087.415.262.537s.397.179.668.179zm3.488.658v-4.909h.955v4.909h-.955zm.482-5.667c-.166 0-.309-.055-.428-.166a.54.54 0 0 1-.176-.402c0-.158.059-.292.176-.403a.6.6 0 0 1 .428-.17.59.59 0 0 1 .425.17c.12.111.179.245.179.403s-.059.289-.179.402-.259.166-.425.166zm2.714-.878v6.545h-.955v-6.545h.955zm1.916 6.606a.62.62 0 0 1-.451-.186c-.126-.125-.189-.277-.189-.453s.063-.324.189-.448.276-.188.451-.188a.61.61 0 0 1 .45.188c.126.124.189.273.189.448 0 .117-.03.224-.09.322a.65.65 0 0 1-.23.23c-.096.058-.202.087-.319.087zm3.977 1.882c-.39 0-.725-.051-1.007-.153s-.507-.238-.684-.406a1.71 1.71 0 0 1-.396-.553l.821-.339c.058.094.135.193.231.297a1.18 1.18 0 0 0 .396.272c.168.075.384.112.649.112.362 0 .661-.088.898-.265s.355-.454.355-.838v-.965h-.061a2.18 2.18 0 0 1-.249.348c-.107.128-.254.239-.442.333s-.431.14-.731.14c-.388 0-.738-.09-1.049-.271s-.554-.453-.735-.809-.268-.798-.268-1.32.088-.969.265-1.342.424-.658.735-.857.664-.3 1.058-.3c.305 0 .551.051.738.153s.334.218.438.352.189.252.246.355h.071v-.796h.936v5.018c0 .422-.098.768-.294 1.038s-.461.471-.796.601-.707.195-1.125.195zm-.009-2.809c.274 0 .507-.064.696-.192s.337-.315.435-.556a2.29 2.29 0 0 0 .15-.873c0-.33-.049-.621-.147-.872s-.242-.447-.431-.588-.424-.214-.703-.214c-.288 0-.528.074-.72.224s-.336.347-.434.6-.144.537-.144.85c0 .322.049.605.147.847a1.25 1.25 0 0 0 .435.569c.194.137.432.205.716.205zm5.573.965c-.46 0-.861-.105-1.205-.316s-.609-.506-.799-.886-.284-.822-.284-1.329.095-.955.284-1.336a2.13 2.13 0 0 1 .799-.889c.344-.211.745-.316 1.205-.316s.862.105 1.205.316.61.507.799.889.285.827.285 1.336-.095.95-.285 1.329-.456.675-.799.886-.744.316-1.205.316zm.004-.802c.298 0 .545-.079.741-.237s.341-.367.435-.629.144-.551.144-.866a2.49 2.49 0 0 0-.144-.863 1.4 1.4 0 0 0-.435-.636c-.196-.16-.443-.24-.741-.24s-.55.08-.748.24a1.42 1.42 0 0 0-.438.636c-.094.262-.141.549-.141.863a2.55 2.55 0 0 0 .141.866c.096.262.242.472.438.629s.447.237.748.237zm5.419.802c-.46 0-.862-.105-1.205-.316s-.609-.506-.799-.886-.284-.822-.284-1.329.095-.955.284-1.336a2.13 2.13 0 0 1 .799-.889c.343-.211.745-.316 1.205-.316s.862.105 1.205.316.61.507.799.889.285.827.285 1.336-.095.95-.285 1.329-.456.675-.799.886-.745.316-1.205.316zm.003-.802c.299 0 .546-.079.742-.237s.341-.367.435-.629.143-.551.143-.866-.048-.601-.143-.863a1.4 1.4 0 0 0-.435-.636c-.196-.16-.443-.24-.742-.24a1.15 1.15 0 0 0-.747.24 1.42 1.42 0 0 0-.438.636c-.094.262-.141.549-.141.863a2.55 2.55 0 0 0 .141.866c.096.262.242.472.438.629s.447.237.747.237zm5.411 2.646c-.39 0-.726-.051-1.007-.153s-.507-.238-.684-.406-.309-.353-.396-.553l.821-.339a1.9 1.9 0 0 0 .23.297 1.18 1.18 0 0 0 .396.272c.169.075.385.112.649.112.362 0 .662-.088.898-.265s.355-.454.355-.838v-.965h-.061a2.06 2.06 0 0 1-.249.348 1.36 1.36 0 0 1-.441.333c-.188.094-.432.14-.732.14-.388 0-.737-.09-1.048-.271s-.554-.453-.735-.809-.269-.798-.269-1.32.089-.969.265-1.342.424-.658.735-.857.664-.3 1.058-.3c.305 0 .551.051.739.153s.333.218.438.352.188.252.246.355h.07v-.796h.936v5.018c0 .422-.098.768-.294 1.038s-.461.471-.795.601-.708.195-1.125.195zm-.01-2.809c.275 0 .507-.064.697-.192s.336-.315.434-.556.151-.534.151-.873c0-.33-.049-.621-.147-.872s-.242-.447-.432-.588-.424-.214-.703-.214a1.13 1.13 0 0 0-.719.224c-.192.147-.337.347-.435.6s-.144.537-.144.85c0 .322.049.605.147.847a1.25 1.25 0 0 0 .435.569 1.21 1.21 0 0 0 .716.205zm4.462-5.679v6.545h-.956v-6.545h.956zm3.401 6.644c-.484 0-.9-.103-1.25-.31s-.615-.502-.805-.879-.281-.823-.281-1.333c0-.502.093-.946.281-1.329a2.18 2.18 0 0 1 .793-.898c.34-.215.739-.323 1.195-.323a2.42 2.42 0 0 1 .805.137 1.96 1.96 0 0 1 .7.432c.207.196.37.451.489.764s.179.689.179 1.134v.339h-3.902v-.716h2.966c0-.251-.051-.474-.154-.668a1.16 1.16 0 0 0-.431-.463c-.183-.113-.399-.17-.646-.17a1.24 1.24 0 0 0-.703.199 1.33 1.33 0 0 0-.46.511 1.47 1.47 0 0 0-.16.681v.559c0 .328.058.607.173.837a1.25 1.25 0 0 0 .489.528c.208.119.452.179.732.179a1.52 1.52 0 0 0 .495-.077c.149-.053.278-.132.387-.237s.191-.233.249-.386l.904.163c-.072.266-.202.499-.39.7s-.418.352-.699.463-.598.163-.956.163zm4.595.01a2.01 2.01 0 0 1-.844-.173c-.251-.117-.45-.286-.597-.508s-.218-.493-.218-.815c0-.277.054-.505.16-.684s.25-.321.432-.425.383-.183.607-.237.451-.093.684-.121l.716-.083c.183-.024.316-.061.399-.112s.125-.134.125-.249v-.023c0-.279-.079-.495-.237-.648s-.387-.231-.696-.231c-.322 0-.576.072-.761.215s-.31.297-.38.469l-.899-.204c.107-.298.263-.539.467-.722s.444-.32.713-.403a2.79 2.79 0 0 1 .847-.128c.196 0 .404.023.623.07a1.82 1.82 0 0 1 .62.25 1.37 1.37 0 0 1 .476.521c.124.223.186.514.186.872v3.26h-.934v-.671h-.038c-.062.123-.154.245-.278.364a1.47 1.47 0 0 1-.476.297c-.194.079-.426.119-.697.119zm.208-.767c.264 0 .49-.053.677-.157s.334-.241.432-.409.15-.353.15-.547v-.632c-.034.034-.1.066-.198.095s-.206.053-.329.074l-.362.054-.294.039a2.38 2.38 0 0 0-.508.118c-.151.055-.272.135-.364.24s-.134.238-.134.409c0 .236.087.415.262.537s.397.179.668.179zm3.487 2.499v-6.75h.934v.796h.08c.055-.103.135-.221.239-.355s.25-.251.435-.352.43-.153.735-.153a1.92 1.92 0 0 1 1.061.3 2.02 2.02 0 0 1 .732.867c.179.377.268.831.268 1.361s-.088.985-.265 1.365-.42.668-.729.872-.661.304-1.057.304c-.299 0-.543-.05-.732-.15s-.335-.218-.441-.352a2.52 2.52 0 0 1-.246-.358h-.058v2.605h-.956zm.937-4.296c0 .346.05.648.15.908s.245.464.435.611.422.217.696.217c.286 0 .525-.076.716-.227s.337-.361.435-.623.15-.557.15-.886c0-.323-.049-.614-.147-.872s-.241-.461-.434-.61-.432-.224-.72-.224c-.277 0-.511.071-.703.214s-.333.342-.431.598-.147.554-.147.894zm4.618 2.455v-4.909h.956v4.909h-.956zm.483-5.667a.61.61 0 0 1-.429-.166.54.54 0 0 1-.175-.402c0-.158.058-.292.175-.403s.263-.17.429-.17a.59.59 0 0 1 .425.17.53.53 0 0 1 .179.403c0 .155-.06.289-.179.402s-.259.166-.425.166zm5.437 1.956l-.866.154a1.03 1.03 0 0 0-.173-.317.85.85 0 0 0-.313-.246c-.132-.064-.297-.096-.495-.096-.271 0-.497.061-.678.183s-.272.273-.272.463c0 .164.061.296.183.396s.317.183.588.246l.779.179c.452.105.789.266 1.01.483s.333.5.333.847c0 .294-.085.556-.256.786s-.404.407-.706.537-.649.195-1.045.195c-.55 0-.999-.117-1.346-.351a1.49 1.49 0 0 1-.639-1.007l.924-.141c.057.241.175.423.354.547s.413.182.7.182c.314 0 .564-.065.751-.195s.282-.293.282-.483a.5.5 0 0 0-.173-.386c-.113-.105-.287-.184-.521-.237l-.831-.182c-.458-.105-.797-.271-1.016-.499a1.2 1.2 0 0 1-.326-.866c0-.29.081-.543.243-.76s.385-.387.671-.509.612-.185.981-.185c.531 0 .948.115 1.253.345s.506.534.604.917zm1.776 3.772a.62.62 0 0 1-.639-.639.61.61 0 0 1 .188-.448c.126-.126.276-.188.451-.188s.325.062.451.188a.61.61 0 0 1 .188.448c0 .117-.029.224-.089.322a.66.66 0 0 1-.23.23c-.096.058-.203.087-.32.087zm3.987.038c-.475 0-.884-.108-1.227-.323s-.603-.516-.786-.898-.275-.818-.275-1.31c0-.499.094-.939.281-1.32s.452-.683.793-.898a2.21 2.21 0 0 1 1.205-.323c.372 0 .705.069.997.208s.527.328.706.575.289.536.323.866h-.93c-.051-.23-.169-.428-.352-.594s-.424-.25-.728-.25a1.19 1.19 0 0 0-.7.211c-.199.139-.353.337-.464.595s-.166.558-.166.907c0 .358.054.667.163.927s.262.462.46.604.436.214.707.214c.181 0 .345-.033.492-.099a1.01 1.01 0 0 0 .374-.29c.102-.126.173-.277.214-.454h.93c-.034.317-.138.601-.31.85a1.79 1.79 0 0 1-.694.588c-.287.143-.625.214-1.013.214zm5.107 0c-.461 0-.862-.105-1.205-.316s-.61-.506-.799-.886-.285-.822-.285-1.329.095-.955.285-1.336.456-.678.799-.889.744-.316 1.205-.316.861.105 1.205.316a2.13 2.13 0 0 1 .799.889c.189.381.284.827.284 1.336s-.095.95-.284 1.329-.456.675-.799.886-.745.316-1.205.316zm.003-.802c.298 0 .545-.079.741-.237s.341-.367.435-.629.144-.551.144-.866a2.49 2.49 0 0 0-.144-.863 1.4 1.4 0 0 0-.435-.636c-.196-.16-.443-.24-.741-.24s-.55.08-.748.24a1.42 1.42 0 0 0-.438.636c-.094.262-.141.549-.141.863a2.55 2.55 0 0 0 .141.866c.096.262.242.472.438.629s.447.237.748.237zm3.352.703v-4.909h.917v.799h.061c.102-.271.269-.482.501-.633s.511-.23.835-.23.603.077.824.23.389.364.496.633h.051a1.38 1.38 0 0 1 .559-.627c.256-.157.56-.236.914-.236.445 0 .809.14 1.09.419s.425.7.425 1.262v3.292h-.956v-3.202c0-.333-.09-.574-.271-.723a.99.99 0 0 0-.649-.223c-.311 0-.553.095-.726.287s-.259.434-.259.732v3.129h-.952v-3.263c0-.266-.083-.481-.249-.643s-.383-.242-.649-.242a.94.94 0 0 0-.502.143c-.151.094-.274.225-.367.393s-.138.364-.138.585v3.027h-.955zm10.447-6.852l-2.11 7.836h-.853l2.109-7.836h.854zm2.87 8.795c-.39 0-.726-.051-1.007-.153s-.507-.238-.684-.406-.309-.353-.396-.553l.821-.339c.058.094.134.193.23.297a1.18 1.18 0 0 0 .396.272c.169.075.385.112.649.112.362 0 .662-.088.898-.265s.355-.454.355-.838v-.965h-.061a2.06 2.06 0 0 1-.249.348 1.34 1.34 0 0 1-.441.333c-.187.094-.431.14-.732.14-.388 0-.737-.09-1.048-.271s-.554-.453-.735-.809-.269-.798-.269-1.32.089-.969.266-1.342.424-.658.735-.857.663-.3 1.058-.3c.304 0 .55.051.738.153s.333.218.438.352.188.252.246.355h.07v-.796h.937v5.018c0 .422-.099.768-.295 1.038s-.461.471-.795.601-.708.195-1.125.195zm-.01-2.809c.275 0 .507-.064.697-.192a1.19 1.19 0 0 0 .434-.556 2.27 2.27 0 0 0 .151-.873c0-.33-.049-.621-.147-.872s-.242-.447-.432-.588-.424-.214-.703-.214a1.13 1.13 0 0 0-.719.224c-.192.147-.337.347-.435.6s-.144.537-.144.85c0 .322.049.605.148.847s.242.433.434.569a1.21 1.21 0 0 0 .716.205zm3.506.866v-4.909h.917v.799h.061c.102-.271.27-.482.502-.633a1.48 1.48 0 0 1 .834-.23c.328 0 .603.077.825.23s.388.364.495.633h.051c.117-.262.304-.471.559-.627s.561-.236.914-.236c.446 0 .809.14 1.09.419s.425.7.425 1.262v3.292h-.955v-3.202c0-.333-.091-.574-.272-.723s-.397-.223-.649-.223c-.311 0-.553.095-.725.287s-.259.434-.259.732v3.129h-.952v-3.263c0-.266-.084-.481-.25-.643s-.382-.242-.649-.242a.93.93 0 0 0-.501.143c-.152.094-.274.225-.368.393s-.137.364-.137.585v3.027h-.956zm9.383.109a2.01 2.01 0 0 1-.844-.173 1.42 1.42 0 0 1-.598-.508c-.144-.222-.217-.493-.217-.815 0-.277.053-.505.16-.684a1.17 1.17 0 0 1 .431-.425c.181-.104.384-.183.608-.237s.451-.093.684-.121l.715-.083c.184-.024.317-.061.4-.112s.125-.134.125-.249v-.023c0-.279-.079-.495-.237-.648s-.388-.231-.697-.231c-.321 0-.575.072-.76.215s-.31.297-.381.469l-.898-.204c.107-.298.262-.539.467-.722s.444-.32.713-.403.55-.128.847-.128a2.98 2.98 0 0 1 .623.07c.221.045.428.128.62.25s.352.295.476.521.185.514.185.872v3.26h-.933v-.671h-.038a1.38 1.38 0 0 1-.278.364 1.48 1.48 0 0 1-.476.297c-.194.079-.427.119-.697.119zm.208-.767c.264 0 .49-.053.677-.157s.334-.241.432-.409.15-.353.15-.547v-.632c-.034.034-.1.066-.198.095s-.206.053-.33.074l-.361.054-.294.039a2.38 2.38 0 0 0-.508.118.86.86 0 0 0-.364.24c-.09.102-.134.238-.134.409 0 .236.087.415.262.537s.397.179.668.179zm3.487.658v-4.909h.956v4.909h-.956zm.483-5.667c-.166 0-.309-.055-.428-.166s-.176-.247-.176-.402a.53.53 0 0 1 .176-.403.6.6 0 0 1 .428-.17.59.59 0 0 1 .425.17.53.53 0 0 1 .179.403c0 .155-.06.289-.179.402s-.259.166-.425.166zm2.714-.878v6.545h-.956v-6.545h.956zm3.779-.307l-2.11 7.836h-.853l2.109-7.836h.854zm5.011 1.943l-1.78 4.909h-1.023l-1.783-4.909h1.026l1.243 3.778h.051l1.24-3.778h1.026zm3.369-1.636v6.545h-.991v-5.555h-.039l-1.566 1.023v-.946l1.634-1.067h.962zm4.276-.307l-2.11 7.836h-.853l2.109-7.836h.854zm3.921 4.816v-2.873h.959v4.909h-.939v-.85h-.052c-.113.262-.294.48-.543.655s-.555.259-.924.259c-.315 0-.594-.069-.837-.208s-.43-.348-.569-.623-.204-.615-.204-1.02v-3.122h.955v3.007c0 .335.093.601.278.799s.426.298.723.298c.179 0 .356-.045.533-.135a1.12 1.12 0 0 0 .445-.406c.119-.181.177-.411.175-.69zm5.922-1.675l-.866.154a1.05 1.05 0 0 0-.173-.317.86.86 0 0 0-.313-.246c-.132-.064-.297-.096-.496-.096-.27 0-.496.061-.677.183s-.272.273-.272.463a.49.49 0 0 0 .182.396c.122.1.318.183.588.246l.78.179c.452.105.789.266 1.01.483s.333.5.333.847a1.29 1.29 0 0 1-.256.786c-.168.228-.404.407-.706.537s-.649.195-1.045.195c-.55 0-.999-.117-1.346-.351a1.49 1.49 0 0 1-.639-1.007l.923-.141c.058.241.176.423.355.547s.413.182.7.182c.313 0 .564-.065.751-.195s.281-.293.281-.483a.5.5 0 0 0-.172-.386c-.113-.105-.287-.184-.521-.237l-.831-.182c-.458-.105-.797-.271-1.016-.499a1.2 1.2 0 0 1-.326-.866c0-.29.081-.543.243-.76s.385-.387.671-.509.612-.185.981-.185c.53 0 .948.115 1.253.345a1.61 1.61 0 0 1 .604.917zm3.262 3.81c-.484 0-.9-.103-1.25-.31s-.615-.502-.805-.879-.281-.823-.281-1.333c0-.502.094-.946.281-1.329a2.18 2.18 0 0 1 .793-.898c.341-.215.739-.323 1.195-.323a2.42 2.42 0 0 1 .805.137 1.95 1.95 0 0 1 .7.432c.207.196.37.451.489.764s.179.689.179 1.134v.339h-3.902v-.716h2.966c0-.251-.051-.474-.154-.668a1.16 1.16 0 0 0-.431-.463c-.183-.113-.398-.17-.646-.17-.268 0-.502.066-.703.199a1.33 1.33 0 0 0-.46.511 1.47 1.47 0 0 0-.16.681v.559c0 .328.058.607.173.837a1.25 1.25 0 0 0 .489.528c.209.119.453.179.732.179a1.52 1.52 0 0 0 .495-.077c.149-.053.278-.132.387-.237s.192-.233.249-.386l.905.163c-.073.266-.203.499-.39.7a1.9 1.9 0 0 1-.7.463c-.279.109-.598.163-.956.163zm3.167-.099v-4.909h.923v.78h.051c.09-.264.248-.472.473-.623a1.35 1.35 0 0 1 .774-.231l.211.007.195.016v.914c-.039-.011-.107-.023-.205-.035a1.94 1.94 0 0 0-.294-.023c-.226 0-.427.048-.604.144s-.313.225-.415.393-.154.356-.154.569v2.998h-.955zm7.132-3.711l-.866.154c-.036-.111-.094-.216-.172-.317s-.182-.182-.314-.246-.297-.096-.495-.096c-.271 0-.496.061-.678.183s-.271.273-.271.463c0 .164.06.296.182.396s.317.183.588.246l.78.179c.452.105.788.266 1.01.483s.332.5.332.847c0 .294-.085.556-.256.786s-.403.407-.706.537-.649.195-1.045.195c-.55 0-.998-.117-1.345-.351s-.561-.573-.64-1.007l.924-.141c.058.241.176.423.355.547s.412.182.7.182c.313 0 .563-.065.751-.195s.281-.293.281-.483a.5.5 0 0 0-.173-.386c-.113-.105-.286-.184-.521-.237l-.831-.182c-.458-.105-.796-.271-1.016-.499s-.326-.516-.326-.866c0-.29.081-.543.243-.76s.386-.387.671-.509.613-.185.981-.185c.531 0 .949.115 1.253.345s.506.534.604.917zm3.64-3.141l-2.11 7.836h-.853l2.109-7.836h.854zm.812 6.852v-4.909h.917v.799h.061c.102-.271.269-.482.501-.633s.511-.23.834-.23c.329 0 .603.077.825.23s.389.364.495.633h.052a1.38 1.38 0 0 1 .559-.627c.256-.157.56-.236.914-.236.445 0 .809.14 1.09.419s.425.7.425 1.262v3.292h-.956v-3.202c0-.333-.09-.574-.271-.723a.99.99 0 0 0-.649-.223c-.311 0-.553.095-.726.287s-.259.434-.259.732v3.129h-.952v-3.263c0-.266-.083-.481-.249-.643s-.383-.242-.649-.242a.94.94 0 0 0-.502.143c-.151.094-.274.225-.367.393s-.138.364-.138.585v3.027h-.955zm10.069.099c-.483 0-.9-.103-1.249-.31s-.616-.502-.806-.879-.281-.823-.281-1.333c0-.502.094-.946.281-1.329a2.18 2.18 0 0 1 .793-.898c.341-.215.739-.323 1.195-.323.277 0 .546.046.806.137a1.96 1.96 0 0 1 .7.432c.206.196.369.451.489.764s.179.689.179 1.134v.339h-3.903v-.716h2.966c0-.251-.051-.474-.153-.668a1.16 1.16 0 0 0-.432-.463c-.183-.113-.398-.17-.645-.17-.269 0-.503.066-.703.199s-.352.3-.461.511-.159.436-.159.681v.559c0 .328.057.607.172.837a1.25 1.25 0 0 0 .489.528c.209.119.453.179.732.179a1.52 1.52 0 0 0 .495-.077c.15-.053.278-.132.387-.237s.192-.233.249-.386l.905.163c-.073.266-.203.499-.39.7s-.419.352-.7.463-.598.163-.956.163zm5.66-6.951l-2.11 7.836h-.853l2.109-7.836h.854zm3.103 1.943v.767h-2.681v-.767h2.681zm-1.962-1.176h.955v4.644c0 .185.028.325.083.418s.127.155.215.189.186.048.29.048a1.19 1.19 0 0 0 .202-.016l.134-.026.173.79a1.79 1.79 0 0 1-.237.064c-.102.023-.23.036-.383.038-.252.004-.486-.041-.704-.134a1.21 1.21 0 0 1-.527-.435c-.134-.196-.201-.442-.201-.738v-4.842zm4.08 3.17v2.915h-.955v-6.545h.942v2.435h.061c.115-.264.291-.474.528-.63s.545-.233.926-.233c.337 0 .631.069.883.208s.449.345.588.62.211.613.211 1.022v3.123h-.956v-3.007c0-.361-.093-.64-.278-.838s-.443-.3-.774-.3c-.225 0-.428.048-.607.144s-.316.236-.419.421-.15.405-.15.665zm4.459 2.915v-4.909h.923v.78h.052c.089-.264.247-.472.473-.623s.485-.231.773-.231l.211.007.195.016v.914c-.039-.011-.107-.023-.205-.035a1.94 1.94 0 0 0-.294-.023c-.226 0-.427.048-.604.144s-.313.225-.415.393-.154.356-.154.569v2.998h-.955zm5.394.099c-.484 0-.9-.103-1.25-.31a2.1 2.1 0 0 1-.805-.879c-.188-.379-.281-.823-.281-1.333 0-.502.093-.946.281-1.329a2.18 2.18 0 0 1 .792-.898c.341-.215.74-.323 1.196-.323a2.42 2.42 0 0 1 .805.137 1.96 1.96 0 0 1 .7.432c.207.196.37.451.489.764s.179.689.179 1.134v.339h-3.902v-.716h2.966c0-.251-.052-.474-.154-.668a1.16 1.16 0 0 0-.431-.463 1.21 1.21 0 0 0-.646-.17 1.24 1.24 0 0 0-.703.199c-.198.13-.352.3-.46.511a1.47 1.47 0 0 0-.16.681v.559c0 .328.057.607.173.837a1.25 1.25 0 0 0 .489.528c.208.119.452.179.731.179.182 0 .347-.026.496-.077a1.05 1.05 0 0 0 .386-.237c.109-.104.192-.233.25-.386l.904.163c-.072.266-.202.499-.39.7s-.418.352-.7.463-.597.163-.955.163zm4.595.01a2.01 2.01 0 0 1-.844-.173c-.251-.117-.45-.286-.598-.508s-.217-.493-.217-.815c0-.277.053-.505.16-.684a1.17 1.17 0 0 1 .431-.425c.182-.104.384-.183.608-.237s.451-.093.684-.121l.716-.083c.183-.024.316-.061.399-.112s.125-.134.125-.249v-.023c0-.279-.079-.495-.237-.648s-.388-.231-.697-.231c-.321 0-.575.072-.76.215s-.31.297-.381.469l-.898-.204c.107-.298.262-.539.467-.722s.444-.32.713-.403.55-.128.847-.128a2.98 2.98 0 0 1 .623.07c.221.045.428.128.62.25a1.37 1.37 0 0 1 .476.521c.124.223.185.514.185.872v3.26h-.933v-.671h-.038a1.38 1.38 0 0 1-.278.364 1.47 1.47 0 0 1-.476.297c-.194.079-.427.119-.697.119zm.208-.767c.264 0 .49-.053.677-.157s.334-.241.432-.409.15-.353.15-.547v-.632c-.034.034-.1.066-.198.095s-.206.053-.329.074l-.362.054-.294.039a2.38 2.38 0 0 0-.508.118.86.86 0 0 0-.364.24c-.09.102-.134.238-.134.409 0 .236.087.415.262.537s.397.179.668.179zm5.325.754c-.396 0-.75-.101-1.061-.304s-.552-.495-.729-.872-.262-.834-.262-1.365.089-.984.265-1.361.424-.666.736-.867a1.91 1.91 0 0 1 1.057-.3c.305 0 .55.051.735.153s.333.218.435.352.186.252.243.355h.058v-2.432h.955v6.545h-.933v-.764h-.08a2.49 2.49 0 0 1-.249.358c-.107.134-.254.252-.441.352s-.431.15-.729.15zm.211-.815a1.12 1.12 0 0 0 .697-.217 1.35 1.35 0 0 0 .434-.611c.1-.26.151-.562.151-.908 0-.34-.049-.639-.147-.894s-.242-.455-.432-.598-.424-.214-.703-.214a1.13 1.13 0 0 0-.719.224c-.192.149-.337.352-.435.61s-.144.549-.144.872c0 .329.049.624.147.886s.243.47.435.623.433.227.716.227zm7.264-2.992l-.866.154a1.05 1.05 0 0 0-.173-.317.86.86 0 0 0-.313-.246c-.132-.064-.297-.096-.496-.096-.27 0-.496.061-.677.183s-.272.273-.272.463a.49.49 0 0 0 .182.396c.122.1.318.183.588.246l.78.179c.452.105.789.266 1.01.483s.333.5.333.847a1.29 1.29 0 0 1-.256.786c-.168.228-.404.407-.706.537s-.649.195-1.046.195c-.549 0-.998-.117-1.345-.351a1.49 1.49 0 0 1-.639-1.007l.923-.141c.058.241.176.423.355.547s.412.182.7.182c.313 0 .564-.065.751-.195s.281-.293.281-.483a.5.5 0 0 0-.172-.386c-.113-.105-.287-.184-.521-.237l-.831-.182c-.458-.105-.797-.271-1.016-.499a1.2 1.2 0 0 1-.326-.866 1.24 1.24 0 0 1 .242-.76 1.59 1.59 0 0 1 .672-.509c.285-.123.612-.185.981-.185.53 0 .948.115 1.253.345a1.61 1.61 0 0 1 .604.917zm3.639-3.141l-2.109 7.836h-.854l2.11-7.836h.853z" class="B L"/><path d="M471.55 139H355.8a2 2 0 0 0-2 2v11.75a2 2 0 0 0 2 2h115.75a2 2 0 0 0 2-2V141a2 2 0 0 0-2-2z" fill-opacity=".05" class="B"/><path d="M366.238 144.688v-.876h-6.126v.876" class="H I J K M"/><path d="M363.175 143.812v6.126m0 0h-.875m.875 0h.875" class="H I J K M"/><path d="M373.321 144.18v-.85h5.066v.85h-2.042v5.695h-.985v-5.695h-2.039zm7.064 2.78v2.915h-.955v-6.545h.943v2.435h.06c.115-.264.291-.474.528-.63s.545-.233.926-.233c.337 0 .631.069.883.208s.449.345.588.62.211.613.211 1.022v3.123h-.956v-3.007c0-.361-.093-.64-.278-.838s-.443-.3-.774-.3c-.225 0-.428.048-.607.144s-.316.236-.418.421-.151.405-.151.665zm4.459 2.915v-4.909h.923v.78h.052c.089-.264.247-.472.473-.623s.485-.231.773-.231l.211.007.195.016v.914a1.51 1.51 0 0 0-.205-.035 1.94 1.94 0 0 0-.294-.023c-.226 0-.427.048-.604.144s-.313.225-.415.393-.154.356-.154.569v2.998h-.955zm5.394.099c-.484 0-.9-.103-1.25-.31a2.1 2.1 0 0 1-.805-.879c-.188-.379-.281-.823-.281-1.333 0-.502.093-.946.281-1.329a2.18 2.18 0 0 1 .792-.898c.341-.215.74-.323 1.196-.323a2.42 2.42 0 0 1 .805.137 1.96 1.96 0 0 1 .7.432c.207.196.37.451.489.764s.179.689.179 1.134v.339h-3.902v-.716h2.966c0-.251-.052-.474-.154-.668a1.16 1.16 0 0 0-.431-.463 1.21 1.21 0 0 0-.646-.17 1.24 1.24 0 0 0-.703.199c-.198.13-.352.3-.46.511a1.47 1.47 0 0 0-.16.681v.559c0 .328.058.607.173.837a1.25 1.25 0 0 0 .489.528c.208.119.452.179.731.179.182 0 .347-.026.496-.077s.278-.132.387-.237.191-.233.249-.386l.904.163c-.072.266-.202.499-.39.7s-.418.352-.7.463-.597.163-.955.163zm4.595.01a2.01 2.01 0 0 1-.844-.173c-.251-.117-.45-.286-.597-.508s-.218-.493-.218-.815c0-.277.053-.505.16-.684a1.18 1.18 0 0 1 .431-.425c.182-.104.384-.183.608-.237s.451-.093.684-.121l.716-.083c.183-.024.316-.061.399-.112s.125-.134.125-.249v-.023c0-.279-.079-.495-.237-.648s-.388-.231-.697-.231c-.321 0-.575.072-.76.215s-.31.297-.381.469l-.898-.204c.107-.298.262-.539.467-.722s.444-.32.713-.403a2.79 2.79 0 0 1 .847-.128 2.98 2.98 0 0 1 .623.07 1.82 1.82 0 0 1 .62.25 1.37 1.37 0 0 1 .476.521c.124.223.186.514.186.872v3.26h-.934v-.671h-.038a1.38 1.38 0 0 1-.278.364 1.47 1.47 0 0 1-.476.297c-.194.079-.426.119-.697.119zm.208-.767c.264 0 .49-.053.677-.157s.334-.241.432-.409.15-.353.15-.547v-.632c-.034.034-.1.066-.198.095s-.206.053-.329.074l-.362.054-.294.039a2.38 2.38 0 0 0-.508.118.86.86 0 0 0-.364.24c-.09.102-.134.238-.134.409 0 .236.087.415.262.537s.397.179.668.179zm5.325.754c-.396 0-.75-.101-1.061-.304s-.552-.495-.729-.872-.262-.834-.262-1.365.089-.984.265-1.361.424-.666.736-.867a1.91 1.91 0 0 1 1.057-.3c.305 0 .55.051.736.153s.332.218.434.352.186.252.243.355h.058v-2.432h.955v6.545h-.933v-.764h-.08a2.49 2.49 0 0 1-.249.358c-.107.134-.254.252-.441.352s-.431.15-.729.15zm.211-.815a1.12 1.12 0 0 0 .697-.217 1.35 1.35 0 0 0 .434-.611c.101-.26.151-.562.151-.908 0-.34-.049-.639-.147-.894s-.242-.455-.432-.598-.424-.214-.703-.214a1.13 1.13 0 0 0-.719.224c-.192.149-.337.352-.435.61s-.144.549-.144.872c0 .329.049.624.147.886s.243.47.435.623.433.227.716.227zm7.031-5.826v6.545h-.987v-6.545h.987zm3.557 6.545h-2.119v-6.545h2.187c.641 0 1.192.131 1.652.393s.813.634 1.058 1.121.37 1.069.37 1.749-.124 1.267-.373 1.757a2.63 2.63 0 0 1-1.074 1.132c-.469.262-1.036.393-1.701.393zm-1.131-.863h1.077c.499 0 .913-.094 1.243-.281a1.77 1.77 0 0 0 .742-.822c.164-.36.246-.799.246-1.316s-.082-.95-.246-1.307-.404-.63-.726-.815-.721-.279-1.198-.279h-1.138v4.82z" class="B L"/><path d="M422.404 144.966v.767h-2.774v-.767h2.774zm-2.014 4.909v-5.478c0-.307.067-.561.202-.764s.312-.357.533-.457a1.71 1.71 0 0 1 .723-.153 2.19 2.19 0 0 1 .492.048c.136.029.237.057.303.083l-.223.773-.173-.045a.99.99 0 0 0-.256-.028c-.232 0-.398.057-.498.172s-.147.282-.147.499v5.35h-.956zm3 0v-4.909h.923v.78h.051c.09-.264.248-.472.473-.623a1.35 1.35 0 0 1 .774-.231l.211.007.195.016v.914c-.039-.011-.107-.023-.205-.035a1.94 1.94 0 0 0-.294-.023c-.226 0-.427.048-.604.144s-.313.225-.415.393-.154.356-.154.569v2.998h-.955zm5.346.099c-.46 0-.862-.105-1.205-.316s-.609-.506-.799-.886-.285-.822-.285-1.329.095-.955.285-1.336a2.13 2.13 0 0 1 .799-.889c.343-.211.745-.316 1.205-.316s.862.105 1.205.316a2.13 2.13 0 0 1 .799.889c.189.381.284.827.284 1.336s-.095.95-.284 1.329-.456.675-.799.886-.745.316-1.205.316zm.003-.802c.298 0 .545-.079.741-.237s.341-.367.435-.629.144-.551.144-.866a2.49 2.49 0 0 0-.144-.863c-.094-.265-.238-.477-.435-.636s-.443-.24-.741-.24-.55.08-.748.24a1.42 1.42 0 0 0-.438.636 2.56 2.56 0 0 0-.14.863c0 .315.047.604.14.866s.242.472.438.629.448.237.748.237zm3.352.703v-4.909h.917v.799h.061a1.26 1.26 0 0 1 .502-.633 1.48 1.48 0 0 1 .834-.23c.328 0 .603.077.824.23s.389.364.496.633h.051a1.38 1.38 0 0 1 .559-.627c.256-.157.561-.236.914-.236.446 0 .809.14 1.09.419s.425.7.425 1.262v3.292h-.955v-3.202c0-.333-.091-.574-.272-.723a.99.99 0 0 0-.649-.223c-.311 0-.553.095-.725.287s-.259.434-.259.732v3.129h-.953v-3.263c0-.266-.083-.481-.249-.643s-.382-.242-.649-.242a.94.94 0 0 0-.502.143c-.151.094-.273.225-.367.393s-.138.364-.138.585v3.027h-.955zm11.4-6.545v6.545h-.988v-6.545h.988zm6.721 0v6.545h-.907l-3.327-4.8h-.061v4.8h-.988v-6.545h.914l3.331 4.806h.06v-4.806h.978zm1.441 6.545v-6.545h2.333c.509 0 .931.092 1.266.278s.584.439.751.76.249.68.249 1.081a2.3 2.3 0 0 1-.253 1.086c-.166.32-.417.573-.754.761s-.755.278-1.262.278h-1.605v-.837h1.515c.322 0 .583-.056.783-.167s.348-.266.441-.46.141-.414.141-.661-.047-.467-.141-.659-.241-.342-.444-.451-.464-.163-.792-.163h-1.241v5.699h-.987zm9.966-6.545h.991v4.305c0 .458-.108.864-.323 1.217a2.25 2.25 0 0 1-.908.831c-.39.201-.847.301-1.371.301s-.978-.1-1.368-.301-.692-.479-.907-.831-.323-.759-.323-1.217v-4.305h.987v4.225c0 .296.065.559.195.789s.319.411.56.543.526.195.856.195.619-.065.86-.195.428-.313.556-.543.195-.493.195-.789v-4.225zm2.104.85v-.85h5.065v.85h-2.042v5.695h-.984v-5.695h-2.039z" class="B G"/><path d="M99.961 170.795h.788l1.854 4.528h.064l1.853-4.528h.789v5.455h-.618v-4.144h-.054l-1.704 4.144h-.597l-1.704-4.144h-.054v4.144h-.618v-5.455zm8.303 5.54c-.394 0-.734-.087-1.02-.261s-.504-.421-.658-.735-.229-.683-.229-1.102.076-.789.229-1.108.369-.572.644-.752.601-.271.97-.271a1.94 1.94 0 0 1 .631.106c.208.071.397.187.567.347s.307.367.408.628.152.583.152.964v.267h-3.154v-.544h2.515c0-.231-.047-.437-.139-.618a1.03 1.03 0 0 0-.389-.428c-.167-.105-.364-.158-.591-.158-.25 0-.467.063-.65.187s-.32.282-.418.479-.147.409-.147.634v.362c0 .309.054.571.16.786s.259.376.45.487.415.166.669.166c.165 0 .314-.023.447-.07s.252-.119.349-.213.173-.215.227-.357l.607.171c-.064.206-.171.387-.322.543s-.338.275-.56.362-.471.128-.748.128zm4.429-4.176v.533h-2.12v-.533h2.12zm-1.502-.98h.628v3.899c0 .178.026.311.078.4s.12.145.202.175a.8.8 0 0 0 .264.043c.069 0 .126-.004.17-.011l.107-.021.128.565a1.28 1.28 0 0 1-.179.048c-.076.017-.173.026-.29.026-.178 0-.352-.038-.522-.114s-.309-.193-.421-.349-.165-.353-.165-.591v-4.07zm3.164 2.61v2.461h-.629v-5.455h.629v2.003h.053c.096-.211.24-.379.432-.503s.451-.189.772-.189c.279 0 .523.056.733.168a1.13 1.13 0 0 1 .487.508c.117.228.176.517.176.869v2.599h-.629v-2.557c0-.325-.084-.576-.253-.754s-.399-.269-.695-.269a1.16 1.16 0 0 0-.554.131c-.162.087-.289.214-.384.381a1.24 1.24 0 0 0-.138.607zm5.465 2.546c-.37 0-.694-.088-.973-.263a1.79 1.79 0 0 1-.649-.738c-.155-.316-.232-.686-.232-1.108s.077-.798.232-1.116.372-.565.649-.741.603-.263.973-.263.692.088.969.263.495.423.65.741.234.69.234 1.116-.078.792-.234 1.108a1.77 1.77 0 0 1-.65.738c-.277.175-.6.263-.969.263zm0-.564c.28 0 .511-.072.692-.216s.315-.333.402-.567.131-.489.131-.762a2.2 2.2 0 0 0-.131-.765c-.087-.236-.221-.427-.402-.572s-.412-.219-.692-.219-.512.073-.693.219-.315.336-.402.572a2.2 2.2 0 0 0-.131.765c0 .273.044.527.131.762s.221.423.402.567.412.216.693.216zm4.357.564c-.34 0-.641-.086-.902-.258s-.466-.419-.613-.735-.221-.694-.221-1.127.074-.802.221-1.118.352-.561.615-.733.567-.258.911-.258c.266 0 .477.044.631.133a1.07 1.07 0 0 1 .357.298l.195.272h.053v-2.014h.628v5.455h-.607v-.629h-.074l-.197.283a1.18 1.18 0 0 1-.365.301c-.158.087-.369.13-.632.13zm.086-.564c.252 0 .465-.066.639-.197s.306-.317.397-.552.136-.509.136-.817-.045-.573-.134-.802a1.16 1.16 0 0 0-.394-.538c-.174-.13-.389-.195-.644-.195-.267 0-.489.069-.666.206a1.22 1.22 0 0 0-.397.551c-.087.231-.131.49-.131.778s.045.555.134.793.223.425.399.565.398.208.661.208z" class="B G"/><path d="M501.3 182.7H103.8a4.05 4.05 0 0 0-4.05 4.05v15.75a4.05 4.05 0 0 0 4.05 4.05h397.5a4.05 4.05 0 0 0 4.05-4.05v-15.75a4.05 4.05 0 0 0-4.05-4.05z" class="D E F"/><path d="M108.949 193.147c-.062-.194-.145-.367-.249-.521a1.62 1.62 0 0 0-.368-.396c-.143-.111-.306-.195-.489-.252a1.95 1.95 0 0 0-.598-.087c-.368 0-.701.095-.997.285s-.53.467-.703.834-.256.811-.256 1.339.087.979.259 1.346.409.644.71.834.642.284 1.026.284c.356 0 .665-.072.93-.217a1.52 1.52 0 0 0 .617-.614c.147-.266.22-.579.22-.939l.256.048h-1.873v-.815h2.573v.744c0 .55-.117 1.027-.352 1.432s-.554.714-.965.933-.878.329-1.406.329c-.593 0-1.113-.136-1.56-.409s-.793-.659-1.042-1.16-.374-1.099-.374-1.79c0-.522.073-.99.218-1.406s.348-.768.61-1.058.574-.514.93-.668a2.92 2.92 0 0 1 1.173-.233c.354 0 .683.052.988.157a2.66 2.66 0 0 1 .818.444 2.52 2.52 0 0 1 .597.684c.158.262.265.553.32.872h-1.013zm2.311 4.478v-6.545h4.104v.85h-3.116v1.994h2.902v.847h-2.902v2.004h3.154v.85h-4.142zm5.1-5.695v-.85h5.066v.85h-2.042v5.695h-.985v-5.695h-2.039z" class="B L"/><path d="M490.863 193.75l2.187 2.187 2.188-2.187" stroke-opacity=".3" class="H I J K"/><path d="M253.175 45.75h-144.5c-5.178 0-9.375 4.197-9.375 9.375s4.197 9.375 9.375 9.375h144.5c5.178 0 9.375-4.197 9.375-9.375s-4.197-9.375-9.375-9.375z" class="C"/><path d="M253.175 45.3h-144.5a9.83 9.83 0 0 0-9.825 9.825 9.83 9.83 0 0 0 9.825 9.825h144.5A9.83 9.83 0 0 0 263 55.125a9.83 9.83 0 0 0-9.825-9.825z" class="D E F"/><mask id="A" maskUnits="userSpaceOnUse" x="104" y="49" width="12" height="12"><path d="M115.425 49.875h-10.5v10.5h10.5v-10.5z" class="C"/></mask><g mask="url(#A)"><path d="M105.641 59.062h1.67v-4.055l-2.386-1.791v5.13c0 .397.321.716.716.716z" fill="#4285f4"/><path d="M113.04 59.062h1.67c.395 0 .716-.321.716-.716v-5.13l-2.386 1.789v4.057z" fill="#34a853"/><path d="M113.04 51.903v3.102l2.386-1.789v-.956c0-.884-1.01-1.39-1.718-.859l-.668.502z" fill="#fbbc04"/><path d="M107.31 55.007v-3.104l2.864 2.148 2.864-2.148v3.104l-2.864 2.146-2.864-2.146z" fill="#ea4335"/><path d="M104.925 52.262v.956l2.386 1.789v-3.104l-.668-.5c-.708-.531-1.718-.025-1.718.859z" fill="#c5221f"/></g><path d="M120.644 58.125V51.58h4.059v.85h-3.071v1.994h2.78v.847h-2.78v2.854h-.988zm6.952.099c-.483 0-.9-.103-1.249-.31s-.616-.502-.806-.879-.281-.824-.281-1.333c0-.503.094-.946.281-1.329s.454-.683.793-.898a2.19 2.19 0 0 1 1.195-.323 2.41 2.41 0 0 1 .806.137c.26.092.493.236.7.431s.369.451.489.764.178.689.178 1.135v.339H125.8v-.716h2.966c0-.251-.051-.474-.153-.668a1.16 1.16 0 0 0-.432-.463c-.183-.113-.398-.169-.646-.169a1.25 1.25 0 0 0-.703.198c-.198.13-.351.3-.46.511s-.16.436-.16.681v.559c0 .328.058.607.173.837s.28.406.489.527a1.45 1.45 0 0 0 .732.179 1.52 1.52 0 0 0 .495-.077c.149-.053.278-.132.387-.237s.192-.233.249-.387l.905.163a1.65 1.65 0 0 1-.39.7c-.186.198-.419.353-.7.463s-.598.163-.956.163zm5.458-5.008v.767h-2.681v-.767h2.681zm-1.962-1.176h.956v4.644c0 .185.027.325.083.419a.43.43 0 0 0 .214.188c.089.032.186.048.291.048a1.12 1.12 0 0 0 .201-.016l.134-.026.173.789c-.056.021-.134.043-.237.064s-.23.036-.383.038a1.68 1.68 0 0 1-.703-.134 1.21 1.21 0 0 1-.528-.435c-.134-.196-.201-.442-.201-.738V52.04zm5.034 6.184c-.475 0-.884-.108-1.227-.323s-.603-.517-.786-.898-.275-.818-.275-1.31c0-.499.094-.938.281-1.32s.452-.683.793-.898.743-.323 1.205-.323c.373 0 .705.069.997.208s.527.328.706.575a1.74 1.74 0 0 1 .323.866h-.93c-.051-.23-.168-.428-.351-.594s-.424-.249-.729-.249c-.266 0-.5.07-.7.211a1.35 1.35 0 0 0-.463.594c-.111.256-.167.558-.167.908 0 .358.055.667.163.927s.262.461.461.604.435.214.706.214c.181 0 .345-.033.492-.099s.274-.165.374-.291a1.09 1.09 0 0 0 .214-.454h.93a1.8 1.8 0 0 1-.31.85c-.172.249-.404.445-.693.588s-.626.214-1.014.214zm3.995-3.014v2.915h-.956V51.58h.943v2.435h.061c.115-.264.29-.474.527-.63s.545-.233.927-.233c.336 0 .63.069.882.208a1.41 1.41 0 0 1 .588.62c.141.273.211.614.211 1.023v3.123h-.956v-3.008c0-.36-.092-.639-.278-.837s-.443-.3-.773-.3c-.226 0-.428.048-.607.144s-.317.236-.419.422a1.37 1.37 0 0 0-.15.665zm6.917 2.915V51.58h4.059v.85h-3.072v1.994h2.781v.847h-2.781v2.854h-.987zm7.999-2.036v-2.873h.958v4.909h-.939v-.85h-.051a1.53 1.53 0 0 1-.544.655c-.247.173-.555.259-.923.259-.316 0-.595-.069-.838-.208s-.43-.348-.569-.623-.204-.615-.204-1.02v-3.123h.955v3.008c0 .334.093.601.278.799s.427.297.723.297c.179 0 .357-.045.533-.134s.328-.225.445-.406.178-.411.176-.69zm3.198-4.51v6.545h-.956V51.58h.956zm2.241 0v6.545h-.955V51.58h.955zm3.744 6.545V51.58h4.104v.85h-3.116v1.994h2.902v.847h-2.902v2.004h3.154v.85h-4.142zm5.346 0v-4.909h.918v.799h.06c.103-.271.27-.481.502-.633s.51-.23.834-.23.603.077.825.23.389.364.495.633h.051c.118-.262.304-.471.56-.626s.56-.236.914-.236c.445 0 .808.139 1.09.419s.425.7.425 1.262v3.292h-.956v-3.202c0-.332-.09-.573-.272-.722s-.397-.224-.648-.224c-.311 0-.553.096-.726.288s-.259.434-.259.732v3.129h-.952v-3.263c0-.266-.083-.48-.249-.642s-.383-.243-.649-.243a.93.93 0 0 0-.502.144 1.06 1.06 0 0 0-.368.393 1.21 1.21 0 0 0-.137.585v3.027h-.956zm9.383.109a2.01 2.01 0 0 1-.844-.173 1.42 1.42 0 0 1-.597-.508c-.145-.222-.218-.493-.218-.815 0-.277.054-.505.16-.684s.251-.321.432-.425.383-.183.607-.236a6.05 6.05 0 0 1 .684-.121l.716-.083c.183-.023.316-.061.399-.112s.125-.134.125-.249v-.022c0-.279-.079-.495-.237-.649s-.387-.23-.696-.23c-.322 0-.576.071-.761.214s-.31.297-.38.47l-.898-.205c.106-.298.262-.539.466-.722s.444-.32.713-.403a2.78 2.78 0 0 1 .847-.128 2.98 2.98 0 0 1 .623.07 1.82 1.82 0 0 1 .62.249c.194.121.353.295.476.521s.186.515.186.873v3.26h-.934v-.671h-.038c-.062.124-.154.245-.278.364s-.282.218-.476.297-.426.118-.697.118zm.208-.767a1.37 1.37 0 0 0 .677-.157c.19-.104.334-.241.432-.409a1.06 1.06 0 0 0 .15-.547v-.633c-.034.034-.1.066-.198.096s-.206.052-.329.073l-.361.054-.294.038c-.186.023-.355.063-.509.118s-.272.135-.364.24-.134.239-.134.409a.61.61 0 0 0 .262.537c.175.119.397.179.668.179zm3.488.658v-4.909h.955v4.909h-.955zm.482-5.666c-.166 0-.309-.055-.428-.166a.54.54 0 0 1-.176-.403c0-.158.059-.292.176-.403a.6.6 0 0 1 .428-.169.59.59 0 0 1 .425.169c.12.111.179.245.179.403s-.059.29-.179.403-.259.166-.425.166zm2.714-.879v6.545h-.955V51.58h.955zm3.422.85v-.85h5.065v.85h-2.042v5.695h-.984V52.43h-2.039zm7.064 2.781v2.915h-.956V51.58h.943v2.435h.061c.115-.264.291-.474.527-.63s.545-.233.927-.233c.337 0 .631.069.882.208a1.4 1.4 0 0 1 .588.62c.141.273.211.614.211 1.023v3.123h-.956v-3.008c0-.36-.092-.639-.278-.837s-.443-.3-.773-.3c-.226 0-.428.048-.607.144s-.317.236-.419.422a1.37 1.37 0 0 0-.15.665zm4.458 2.915v-4.909h.924v.78h.051c.089-.264.247-.472.473-.623s.486-.23.773-.23l.211.006.195.016v.914c-.038-.011-.106-.022-.204-.035s-.196-.022-.294-.022c-.226 0-.427.048-.604.144s-.314.225-.416.393-.153.356-.153.569v2.998h-.956zm5.394.099c-.483 0-.9-.103-1.249-.31s-.616-.502-.806-.879-.281-.824-.281-1.333c0-.503.094-.946.281-1.329s.454-.683.793-.898a2.19 2.19 0 0 1 1.195-.323 2.41 2.41 0 0 1 .806.137 1.95 1.95 0 0 1 .699.431c.207.196.37.451.489.764s.179.689.179 1.135v.339h-3.902v-.716h2.966c0-.251-.051-.474-.153-.668a1.16 1.16 0 0 0-.432-.463c-.183-.113-.398-.169-.645-.169a1.25 1.25 0 0 0-.704.198c-.198.13-.351.3-.46.511s-.16.436-.16.681v.559c0 .328.058.607.173.837s.28.406.489.527a1.45 1.45 0 0 0 .732.179 1.52 1.52 0 0 0 .495-.077c.149-.053.278-.132.387-.237s.192-.233.249-.387l.905.163a1.65 1.65 0 0 1-.39.7c-.186.198-.419.353-.7.463s-.598.163-.956.163zm4.595.01a2 2 0 0 1-.843-.173 1.42 1.42 0 0 1-.598-.508c-.145-.222-.217-.493-.217-.815 0-.277.053-.505.159-.684s.251-.321.432-.425.383-.183.607-.236a6.05 6.05 0 0 1 .684-.121l.716-.083c.183-.023.316-.061.399-.112s.125-.134.125-.249v-.022c0-.279-.079-.495-.236-.649s-.388-.23-.697-.23c-.322 0-.575.071-.761.214s-.31.297-.38.47l-.898-.205c.106-.298.262-.539.466-.722a1.9 1.9 0 0 1 .713-.403c.269-.085.551-.128.847-.128a2.98 2.98 0 0 1 .623.07c.222.045.429.128.62.249s.353.295.477.521.185.515.185.873v3.26h-.933v-.671h-.039c-.061.124-.154.245-.278.364s-.282.218-.476.297-.426.118-.697.118zm.208-.767c.264 0 .49-.052.678-.157a1.1 1.1 0 0 0 .431-.409 1.06 1.06 0 0 0 .15-.547v-.633c-.034.034-.1.066-.198.096a3.06 3.06 0 0 1-.329.073l-.361.054-.294.038a2.35 2.35 0 0 0-.508.118c-.152.055-.273.135-.365.24s-.134.239-.134.409a.61.61 0 0 0 .262.537c.175.119.397.179.668.179zm5.325.754c-.396 0-.75-.101-1.061-.304s-.551-.495-.728-.873-.262-.834-.262-1.365.088-.984.265-1.361.424-.666.735-.866.664-.3 1.058-.3c.305 0 .55.051.735.153s.332.217.435.352.185.252.242.355h.058V51.58h.956v6.545h-.934v-.764h-.08c-.057.104-.14.224-.249.358s-.253.251-.441.352-.43.15-.729.15zm.211-.815c.275 0 .507-.072.697-.217s.337-.351.435-.611a2.52 2.52 0 0 0 .15-.908c0-.341-.049-.639-.147-.895s-.242-.455-.431-.598-.424-.214-.704-.214c-.287 0-.527.075-.719.224s-.336.353-.434.61-.144.549-.144.873.049.623.147.885.243.47.434.623.433.227.716.227zm11.481-3.698h-.998c-.038-.213-.109-.401-.214-.562a1.57 1.57 0 0 0-.383-.412c-.152-.113-.321-.198-.508-.256a1.99 1.99 0 0 0-.592-.086c-.377 0-.715.095-1.013.285s-.53.468-.703.834-.256.814-.256 1.342.086.982.256 1.349.408.643.706.831.634.281 1.007.281a2.04 2.04 0 0 0 .588-.083c.188-.057.357-.142.508-.252s.279-.246.384-.406a1.53 1.53 0 0 0 .22-.556l.998.003c-.054.322-.157.618-.311.889s-.346.501-.584.697-.507.344-.812.451-.637.16-.997.16c-.567 0-1.072-.134-1.515-.403s-.793-.657-1.049-1.16-.38-1.103-.38-1.799.128-1.299.384-1.799.605-.889 1.048-1.157.947-.406 1.512-.406c.347 0 .671.05.971.15s.574.243.815.435.44.422.598.697.264.585.32.936zm3.172 4.516c-.46 0-.862-.105-1.205-.316s-.609-.506-.799-.885-.284-.822-.284-1.33.095-.954.284-1.336a2.13 2.13 0 0 1 .799-.889c.343-.211.745-.316 1.205-.316s.862.105 1.205.316.61.507.799.889.285.827.285 1.336-.095.95-.285 1.33a2.13 2.13 0 0 1-.799.885c-.343.211-.744.316-1.205.316zm.004-.802c.298 0 .545-.079.741-.236a1.39 1.39 0 0 0 .435-.63 2.5 2.5 0 0 0 .144-.866 2.49 2.49 0 0 0-.144-.863c-.094-.264-.239-.476-.435-.636s-.443-.24-.741-.24-.55.08-.748.24a1.43 1.43 0 0 0-.438.636 2.54 2.54 0 0 0-.141.863 2.55 2.55 0 0 0 .141.866 1.41 1.41 0 0 0 .438.63c.198.158.447.236.748.236zm4.307-2.212v2.915h-.956v-4.909h.918v.799h.06c.113-.26.29-.469.531-.626s.549-.236.917-.236c.335 0 .628.07.879.211s.446.345.585.62.208.615.208 1.02v3.123h-.956v-3.008c0-.356-.093-.634-.278-.834s-.44-.304-.764-.304c-.221 0-.419.048-.591.144a1.03 1.03 0 0 0-.406.422c-.098.183-.147.405-.147.665zm6.715-1.994v.767h-2.682v-.767h2.682zm-1.963-1.176h.956v4.644c0 .185.028.325.083.419s.127.154.214.188.187.048.291.048a1.12 1.12 0 0 0 .202-.016l.134-.026.172.789a1.58 1.58 0 0 1-.236.064 1.87 1.87 0 0 1-.384.038c-.251.004-.485-.04-.703-.134s-.393-.239-.527-.435-.202-.442-.202-.738V52.04zm5.083 6.184c-.484 0-.9-.103-1.25-.31s-.615-.502-.805-.879-.281-.824-.281-1.333c0-.503.093-.946.281-1.329s.454-.683.793-.898.739-.323 1.195-.323c.277 0 .545.046.805.137s.493.236.7.431.37.451.489.764.179.689.179 1.135v.339h-3.902v-.716h2.966c0-.251-.051-.474-.154-.668a1.16 1.16 0 0 0-.431-.463c-.183-.113-.399-.169-.646-.169-.268 0-.503.066-.703.198s-.351.3-.46.511a1.47 1.47 0 0 0-.16.681v.559c0 .328.058.607.173.837s.28.406.489.527.452.179.732.179a1.52 1.52 0 0 0 .495-.077c.149-.053.278-.132.387-.237a1.04 1.04 0 0 0 .249-.387l.904.163a1.63 1.63 0 0 1-.39.7c-.185.198-.418.353-.699.463s-.598.163-.956.163zm4.122-3.014v2.915h-.956v-4.909h.918v.799h.06c.113-.26.29-.469.531-.626s.549-.236.917-.236c.335 0 .628.07.879.211a1.41 1.41 0 0 1 .585.62c.138.275.208.615.208 1.02v3.123h-.956v-3.008c0-.356-.093-.634-.278-.834s-.44-.304-.764-.304c-.221 0-.418.048-.591.144a1.03 1.03 0 0 0-.406.422c-.098.183-.147.405-.147.665zm6.715-1.994v.767h-2.682v-.767h2.682zm-1.962-1.176h.955v4.644c0 .185.028.325.083.419s.127.154.214.188.187.048.291.048a1.12 1.12 0 0 0 .202-.016l.134-.026.172.789a1.58 1.58 0 0 1-.236.064 1.87 1.87 0 0 1-.384.038c-.251.004-.485-.04-.703-.134s-.393-.239-.527-.435-.201-.442-.201-.738V52.04z" class="B L"/></g></g></g></g></g><defs><filter id="B" x="33.4" y="12.85" width="538.3" height="323.55" filterUnits="userSpaceOnUse" color-interpolation-filters="sRGB"><feFlood flood-opacity="0" result="A"/><feColorMatrix in="SourceAlpha" values="0 0 0 0 0 0 0 0 0 0 0 0 0 0 0 0 0 0 127 0" result="B"/><feOffset dy="24"/><feGaussianBlur stdDeviation="28"/><feComposite in2="B" operator="out"/><feColorMatrix values="0 0 0 0 0.14902 0 0 0 0 0.137255 0 0 0 0 0.54902 0 0 0 0.08 0"/><feBlend in2="A" result="C"/><feColorMatrix in="SourceAlpha" values="0 0 0 0 0 0 0 0 0 0 0 0 0 0 0 0 0 0 127 0" result="B"/><feOffset dy="16"/><feGaussianBlur stdDeviation="4"/><feComposite in2="B" operator="out"/><feColorMatrix values="0 0 0 0 0.14902 0 0 0 0 0.137255 0 0 0 0 0.54902 0 0 0 0.05 0"/><feBlend in2="C"/><feBlend in="SourceGraphic" result="E"/><feColorMatrix in="SourceAlpha" values="0 0 0 0 0 0 0 0 0 0 0 0 0 0 0 0 0 0 127 0" result="B"/><feOffset/><feGaussianBlur stdDeviation=".5"/><feComposite in2="B" operator="arithmetic" k2="-1" k3="1"/><feColorMatrix values="0 0 0 0 0.14902 0 0 0 0 0.137255 0 0 0 0 0.54902 0 0 0 0.4 0"/><feBlend in2="E"/></filter><clipPath id="C"><path d="M0 0h605.6v200H0z" class="C"/></clipPath><clipPath id="D"><path transform="translate(37.3)" d="M0 0h531v333H0z" class="C"/></clipPath><clipPath id="E"><path transform="translate(37.3)" d="M0 0h531v333H0z" class="C"/></clipPath><clipPath id="F"><path transform="translate(37.3 16)" d="M0 0h531v317H0z" class="C"/></clipPath></defs></svg>