<svg xmlns="http://www.w3.org/2000/svg" width="142" height="50" fill="none" xmlns:v="https://vecta.io/nano"><g fill="#fff"><rect x="141.5" y="49.5" width="141" height="49" rx="6.5" transform="rotate(180 141.5 49.5)" stroke="url(#A)"/><rect x="13" y="5" width="40" height="40" rx="8"/></g><g clip-path="url(#C)" fill-rule="evenodd"><path d="M32.999 12.555c-6.963 0-12.359 5.095-12.359 11.976 0 3.6 1.477 6.71 3.882 8.859.201.181.323.432.333.703l.067 2.196a.99.99 0 0 0 1.388.874l2.452-1.081c.207-.092.44-.109.659-.05 1.127.31 2.328.474 3.578.474 6.963 0 12.359-5.095 12.359-11.976s-5.396-11.976-12.359-11.976z" fill="url(#B)"/><path d="M25.58 28.034l3.63-5.753c.577-.914 1.815-1.143 2.681-.494l2.887 2.164c.129.096.286.148.447.148s.318-.053.446-.15l3.899-2.956a.59.59 0 0 1 .85.78l-3.628 5.751c-.577.914-1.815 1.143-2.681.494l-2.887-2.164c-.129-.096-.286-.148-.447-.148s-.318.053-.446.15l-3.902 2.959a.59.59 0 0 1-.85-.78z" fill="#fff"/></g><path d="M57.98 30V19.92h1.134l3.808 8.029 3.787-8.029h1.148v10.073h-1.183v-7.336L63.251 30h-.665l-3.423-7.343V30H57.98zm15.116.21c-.742 0-1.391-.163-1.946-.49s-.98-.791-1.288-1.379-.462-1.283-.462-2.072c0-.826.152-1.54.455-2.142s.726-1.073 1.267-1.4 1.185-.497 1.918-.497c.761 0 1.407.175 1.939.525s.938.849 1.204 1.498.387 1.421.35 2.317h-1.26v-.448c-.014-.929-.203-1.622-.567-2.079s-.905-.693-1.624-.693c-.77 0-1.356.247-1.757.742s-.602 1.204-.602 2.128c0 .891.201 1.582.602 2.072s.973.735 1.715.735c.499 0 .933-.114 1.302-.343s.658-.558.868-.987l1.197.413a3.39 3.39 0 0 1-1.33 1.554c-.588.364-1.248.546-1.981.546zm-2.793-3.64v-1.001h5.586v1.001h-5.586zm10.644 3.633c-.901 0-1.64-.196-2.219-.588a2.48 2.48 0 0 1-1.057-1.659l1.274-.203c.103.411.338.737.707.98s.826.357 1.372.357c.518 0 .924-.107 1.218-.322s.441-.506.441-.875c0-.215-.049-.387-.147-.518s-.301-.261-.609-.378-.763-.257-1.379-.42c-.667-.177-1.192-.362-1.575-.553s-.656-.413-.819-.665-.245-.558-.245-.917c0-.443.121-.831.364-1.162s.581-.595 1.015-.777.947-.273 1.526-.273 1.087.091 1.54.273.817.441 1.092.777a2.14 2.14 0 0 1 .497 1.162l-1.274.231c-.061-.406-.257-.726-.588-.959s-.749-.357-1.267-.371c-.49-.019-.889.068-1.197.259s-.455.45-.455.777c0 .182.056.338.168.469s.329.254.637.371.765.25 1.358.399c.667.168 1.192.352 1.575.553s.663.429.826.7.245.595.245.987c0 .728-.268 1.302-.805 1.722s-1.276.623-2.219.623zm7.424 0c-.901 0-1.64-.196-2.219-.588a2.48 2.48 0 0 1-1.057-1.659l1.274-.203c.103.411.338.737.707.98s.826.357 1.372.357c.518 0 .924-.107 1.218-.322s.441-.506.441-.875c0-.215-.049-.387-.147-.518s-.301-.261-.609-.378-.763-.257-1.379-.42c-.667-.177-1.192-.362-1.575-.553s-.656-.413-.819-.665-.245-.558-.245-.917c0-.443.121-.831.364-1.162s.581-.595 1.015-.777.947-.273 1.526-.273 1.087.091 1.54.273.817.441 1.092.777a2.14 2.14 0 0 1 .497 1.162l-1.274.231c-.061-.406-.257-.726-.588-.959s-.749-.357-1.267-.371c-.49-.019-.889.068-1.197.259s-.455.45-.455.777c0 .182.056.338.168.469s.329.254.637.371.765.25 1.358.399c.667.168 1.192.352 1.575.553s.663.429.826.7.245.595.245.987c0 .728-.268 1.302-.805 1.722s-1.276.623-2.219.623zm7.844.007c-.742 0-1.391-.163-1.946-.49a3.43 3.43 0 0 1-1.288-1.379c-.308-.593-.462-1.283-.462-2.072 0-.826.152-1.54.455-2.142s.726-1.073 1.267-1.4 1.185-.497 1.918-.497c.761 0 1.407.175 1.939.525s.938.849 1.204 1.498.387 1.421.35 2.317h-1.26v-.448c-.014-.929-.203-1.622-.567-2.079s-.905-.693-1.624-.693c-.77 0-1.356.247-1.757.742s-.602 1.204-.602 2.128c0 .891.201 1.582.602 2.072s.973.735 1.715.735c.499 0 .933-.114 1.302-.343s.658-.558.868-.987l1.197.413a3.39 3.39 0 0 1-1.33 1.554c-.588.364-1.248.546-1.981.546zm-2.793-3.64v-1.001h5.586v1.001h-5.586zM106.388 30v-3.787c0-.359-.032-.705-.098-1.036-.06-.331-.17-.628-.329-.889a1.7 1.7 0 0 0-.63-.63c-.261-.154-.592-.231-.994-.231-.312 0-.597.054-.854.161a1.67 1.67 0 0 0-.651.476c-.182.215-.324.485-.427.812s-.147.702-.147 1.141l-.819-.252c0-.733.131-1.36.392-1.883a2.86 2.86 0 0 1 1.113-1.211c.481-.285 1.046-.427 1.694-.427.49 0 .908.077 1.253.231s.633.359.861.616a2.89 2.89 0 0 1 .539.854 4.12 4.12 0 0 1 .273.959 5.36 5.36 0 0 1 .084.917V30h-1.26zm-5.39 0v-7.56h1.12v2.023h.14V30h-1.26zm11.529 3.57c-.396 0-.784-.061-1.162-.182a3.36 3.36 0 0 1-1.043-.553c-.312-.243-.574-.551-.784-.924l1.141-.602c.187.369.451.637.791.805a2.41 2.41 0 0 0 1.064.252c.481 0 .88-.089 1.197-.266s.551-.432.7-.777.229-.775.224-1.288V27.97h.147v-5.53h1.106v7.609l-.021.595c-.009.191-.032.38-.07.567-.098.537-.291.978-.581 1.323s-.662.609-1.12.777-.987.259-1.589.259zm-.091-3.36c-.704 0-1.309-.175-1.813-.525a3.49 3.49 0 0 1-1.169-1.435c-.27-.602-.406-1.281-.406-2.037s.136-1.435.406-2.037c.276-.602.665-1.076 1.169-1.421s1.106-.525 1.806-.525c.714 0 1.314.173 1.799.518s.852.819 1.099 1.421.378 1.283.378 2.044c0 .751-.126 1.43-.378 2.037s-.613 1.08-1.099 1.435-1.082.525-1.792.525zm.154-1.141c.509 0 .927-.121 1.253-.364s.567-.586.721-1.015c.159-.434.238-.926.238-1.477 0-.56-.079-1.052-.238-1.477-.154-.429-.392-.763-.714-1.001s-.73-.364-1.225-.364c-.513 0-.938.126-1.274.378s-.578.593-.742 1.022c-.158.429-.238.91-.238 1.442s.082 1.022.245 1.456.409.77.735 1.022c.332.252.745.378 1.239.378zm8.549 1.141c-.742 0-1.391-.163-1.946-.49a3.43 3.43 0 0 1-1.288-1.379c-.308-.593-.462-1.283-.462-2.072 0-.826.151-1.54.455-2.142s.725-1.073 1.267-1.4 1.185-.497 1.918-.497c.76 0 1.407.175 1.939.525s.938.849 1.204 1.498.387 1.421.35 2.317h-1.26v-.448c-.014-.929-.203-1.622-.567-2.079s-.906-.693-1.624-.693c-.77 0-1.356.247-1.757.742s-.602 1.204-.602 2.128c0 .891.2 1.582.602 2.072s.973.735 1.715.735c.499 0 .933-.114 1.302-.343s.658-.558.868-.987l1.197.413c-.294.667-.738 1.185-1.33 1.554s-1.249.546-1.981.546zm-2.793-3.64v-1.001h5.586v1.001h-5.586zm7.788 3.43v-7.56h1.113v1.827l-.182-.238a2.85 2.85 0 0 1 .343-.644c.145-.196.306-.357.483-.483.196-.159.418-.28.665-.364a2.83 2.83 0 0 1 .756-.147c.257-.019.497-.002.721.049v1.169a2.36 2.36 0 0 0-.861-.056 1.75 1.75 0 0 0-.868.343c-.242.173-.431.383-.567.63-.13.247-.221.516-.273.805a4.95 4.95 0 0 0-.077.875V30h-1.253z" fill="#475367"/><defs><linearGradient id="A" x1="211" y1="49" x2="211" y2="97" gradientUnits="userSpaceOnUse"><stop stop-color="#e4e7ec"/><stop offset="1" stop-color="#fff"/></linearGradient><linearGradient id="B" x1="4964.14" y1="12.555" x2="4964.14" y2="9958.08" gradientUnits="userSpaceOnUse"><stop stop-color="#00b2ff"/><stop offset="1" stop-color="#006aff"/></linearGradient><clipPath id="C"><path fill="#fff" transform="translate(20.555 12.555)" d="M0 0h24.889v24.889H0z"/></clipPath></defs></svg>