<svg width="26" height="26" viewBox="0 0 26 26" fill="none" xmlns="http://www.w3.org/2000/svg">
<g clip-path="url(#clip0_1748_1408)">
<path fill-rule="evenodd" clip-rule="evenodd" d="M12.9991 0.554688C6.03645 0.554688 0.640381 5.6497 0.640381 12.5309C0.640381 16.1304 2.11744 19.2406 4.52208 21.3894C4.72352 21.5708 4.84532 21.8217 4.85527 22.0924L4.92244 24.2884C4.94481 24.989 5.66841 25.4436 6.31001 25.1628L8.76186 24.0823C8.96929 23.9905 9.20199 23.9729 9.42083 24.0326C10.5473 24.3431 11.7484 24.507 12.9991 24.507C19.9618 24.507 25.3579 19.412 25.3579 12.5309C25.3579 5.6497 19.9618 0.554688 12.9991 0.554688Z" fill="url(#paint0_linear_1748_1408)"/>
<path fill-rule="evenodd" clip-rule="evenodd" d="M5.58043 16.0342L9.21094 10.2809C9.78784 9.36671 11.0262 9.13814 11.8915 9.78654L14.7785 11.9502C14.9075 12.0466 15.0643 12.0985 15.2253 12.0981C15.3863 12.0976 15.5428 12.0449 15.6713 11.9478L19.5704 8.99157C20.0901 8.59664 20.7715 9.2202 20.4208 9.77165L16.7928 15.5225C16.2159 16.4367 14.9775 16.6652 14.1122 16.0168L11.2252 13.8531C11.0962 13.7567 10.9394 13.7049 10.7784 13.7053C10.6174 13.7057 10.4609 13.7585 10.3324 13.8556L6.43084 16.8143C5.91115 17.2093 5.22976 16.5857 5.58043 16.0342Z" fill="white"/>
</g>
<defs>
<linearGradient id="paint0_linear_1748_1408" x1="4944.14" y1="0.554688" x2="4944.14" y2="9946.08" gradientUnits="userSpaceOnUse">
<stop stop-color="#00B2FF"/>
<stop offset="1" stop-color="#006AFF"/>
</linearGradient>
<clipPath id="clip0_1748_1408">
<rect width="24.8889" height="24.8889" fill="white" transform="translate(0.554688 0.554688)"/>
</clipPath>
</defs>
</svg>
