<svg xmlns="http://www.w3.org/2000/svg" width="489" height="395" fill="none" xmlns:v="https://vecta.io/nano"><rect x=".5" y=".5" width="339" height="181" rx="10.5" fill="#fff" stroke="url(#B)"/><g fill="#f7f9fc"><use href="#D"/><use href="#D" y="67.91"/><use href="#D" y="34.547"/><use href="#D" y="102.457"/><use href="#D" y="137.614"/></g><path d="M56.98 172.16c-1.43 0-2.36-1.06-2.37-2.55l1.1-.06c.01 1.06.47 1.62 1.27 1.62.83 0 1.3-.58 1.3-1.67v-4.6h1.08v4.6c0 1.63-.93 2.66-2.38 2.66zm5.594-.04c-1.08 0-1.75-.75-1.75-2.02v-3.42h1.06v3.15c0 .97.33 1.4 1.01 1.4.77 0 1.23-.52 1.23-1.43v-3.12h1.06V172h-.99l-.01-.87c-.28.65-.84.99-1.61.99zm4.109-.12v-5.32h.97l.03.92c.28-.72.89-1.04 1.61-1.04 1.19 0 1.8.86 1.8 2.02V172h-1.06v-3.1c0-.94-.29-1.45-1.03-1.45-.75 0-1.26.51-1.26 1.45v3.1h-1.06zm9.51 0c0-2.2.92-4.37 2.43-6.11h-3.96v-.99h5.1v.92c-1.69 1.92-2.47 3.74-2.47 6.18h-1.1zM20.39 161.777c-1.77 0-2.88-1.42-2.88-3.7s1.12-3.72 2.88-3.72c1.78 0 2.89 1.43 2.89 3.72 0 2.27-1.11 3.7-2.89 3.7zm0-.99c1.14 0 1.77-.96 1.77-2.71 0-1.76-.63-2.73-1.77-2.73-1.12 0-1.76.97-1.76 2.73 0 1.75.64 2.71 1.76 2.71zm-.26-34.768c-1.63 0-2.74-.73-2.74-2.1 0-.93.53-1.58 1.4-1.88-.66-.25-1.06-.75-1.06-1.49 0-1.13.91-1.95 2.4-1.95 1.48 0 2.39.82 2.39 1.95 0 .75-.4 1.23-1.06 1.49.87.29 1.41.95 1.41 1.88 0 1.37-1.12 2.1-2.74 2.1zm0-.99c.98 0 1.61-.4 1.61-1.22 0-.77-.53-1.28-1.61-1.28-1.09 0-1.62.51-1.62 1.28 0 .82.63 1.22 1.62 1.22zm0-3.39c.81 0 1.28-.34 1.28-1.04 0-.62-.45-1.02-1.28-1.02-.84 0-1.29.4-1.29 1.02 0 .7.47 1.04 1.29 1.04zM18.89 91v-5.06h-1.5v-.87H18c.81 0 1.12-.28 1.12-1.17h.85V91h-1.08zm5.363.16c-1.68 0-2.6-1.16-2.6-3.2 0-2.35.78-4.22 2.86-4.22 1.3 0 2.01.69 2.29 1.74l-1.07.09c-.16-.52-.49-.85-1.22-.85-1 0-1.63.78-1.77 2.37.33-.48.93-.83 1.72-.83 1.42 0 2.37.95 2.37 2.39 0 1.57-1.06 2.51-2.58 2.51zm.01-.96c.86 0 1.46-.58 1.46-1.55 0-.9-.57-1.48-1.39-1.48-.89 0-1.55.58-1.55 1.48 0 .91.58 1.55 1.48 1.55zM17.59 58c0-1.61.62-2.6 2.66-3.68.97-.51 1.34-.81 1.34-1.47s-.43-1.12-1.28-1.12c-.91 0-1.43.5-1.57 1.41l-1.12-.07c.15-1.43 1.11-2.33 2.69-2.33 1.51 0 2.4.85 2.4 2.09 0 1.09-.49 1.61-1.92 2.37-1.23.66-1.85 1.33-1.89 1.81h3.81V58h-5.12zm9.535 0v-1.48h-3.58v-.92l3.44-4.7h1.22v4.64h.86v.98h-.86V58h-1.08zm-2.35-2.46h2.35V52.4l-2.35 3.14zM20.09 24.16c-1.64 0-2.54-.83-2.6-2.07l1.11-.06c.07.81.66 1.14 1.49 1.14.85 0 1.57-.33 1.57-1.19 0-.85-.63-1.25-1.58-1.25h-.58v-.94h.58c.77 0 1.33-.28 1.33-1.03 0-.66-.42-1.03-1.29-1.03s-1.28.36-1.37.93l-1.11-.06c.13-1.11 1.01-1.86 2.48-1.86 1.52 0 2.41.75 2.41 1.94 0 .75-.42 1.27-1.22 1.52.92.25 1.47.92 1.47 1.82 0 1.35-1.09 2.14-2.69 2.14zm3.76-.16c0-1.61.62-2.6 2.66-3.68.97-.51 1.34-.81 1.34-1.47s-.43-1.12-1.28-1.12c-.91 0-1.43.5-1.57 1.41l-1.12-.07c.15-1.43 1.11-2.33 2.69-2.33 1.51 0 2.4.85 2.4 2.09 0 1.09-.49 1.61-1.92 2.37-1.23.66-1.85 1.33-1.89 1.81h3.81V24h-5.12zm68.849 148.492c-1.43 0-2.36-1.06-2.37-2.55l1.1-.06c.01 1.06.47 1.62 1.27 1.62.83 0 1.3-.58 1.3-1.67v-4.6h1.08v4.6c0 1.63-.93 2.66-2.38 2.66zm5.594-.04c-1.08 0-1.75-.75-1.75-2.02v-3.42h1.06v3.15c0 .97.33 1.4 1.01 1.4.77 0 1.23-.52 1.23-1.43v-3.12h1.06v5.32h-.99l-.01-.87c-.28.65-.84.99-1.61.99zm4.109-.12v-5.32h.97l.03.92c.28-.72.89-1.04 1.61-1.04 1.19 0 1.8.86 1.8 2.02v3.42h-1.06v-3.1c0-.94-.29-1.45-1.03-1.45-.75 0-1.26.51-1.26 1.45v3.1h-1.06zm10.72.16c-1.63 0-2.74-.73-2.74-2.1 0-.93.53-1.58 1.4-1.88-.66-.25-1.06-.75-1.06-1.49 0-1.13.91-1.95 2.4-1.95 1.48 0 2.39.82 2.39 1.95 0 .75-.4 1.23-1.06 1.49.87.29 1.41.95 1.41 1.88 0 1.37-1.12 2.1-2.74 2.1zm0-.99c.98 0 1.61-.4 1.61-1.22 0-.77-.53-1.28-1.61-1.28-1.09 0-1.62.51-1.62 1.28 0 .82.63 1.22 1.62 1.22zm0-3.39c.81 0 1.28-.34 1.28-1.04 0-.62-.45-1.02-1.28-1.02-.84 0-1.29.4-1.29 1.02 0 .7.47 1.04 1.29 1.04z" fill="#98a2b3"/><path d="M129.613 174.492c-1.43 0-2.36-1.06-2.37-2.55l1.1-.06c.01 1.06.47 1.62 1.27 1.62.83 0 1.3-.58 1.3-1.67v-4.6h1.08v4.6c0 1.63-.93 2.66-2.38 2.66zm5.594-.04c-1.08 0-1.75-.75-1.75-2.02v-3.42h1.06v3.15c0 .97.33 1.4 1.01 1.4.77 0 1.23-.52 1.23-1.43v-3.12h1.06v5.32h-.99l-.01-.87c-.28.65-.84.99-1.61.99zm4.109-.12v-5.32h.97l.03.92c.28-.72.89-1.04 1.61-1.04 1.19 0 1.8.86 1.8 2.02v3.42h-1.06v-3.1c0-.94-.29-1.45-1.03-1.45-.75 0-1.26.51-1.26 1.45v3.1h-1.06zm-9.713 20.16c-1.23 0-2-.64-2.28-1.61l1.09-.07c.15.45.54.7 1.19.7 1.03 0 1.6-.69 1.7-2.34-.37.57-.97.88-1.72.88-1.39 0-2.36-.98-2.36-2.44 0-1.56 1.04-2.54 2.53-2.54 1.83 0 2.66 1.28 2.66 3.35 0 2.41-.76 4.07-2.81 4.07zm.13-3.37c.89 0 1.51-.55 1.51-1.51 0-.92-.55-1.58-1.47-1.58-.9 0-1.45.64-1.45 1.57s.57 1.52 1.41 1.52zm34.974-16.63c-1.43 0-2.36-1.06-2.37-2.55l1.1-.06c.01 1.06.47 1.62 1.27 1.62.83 0 1.3-.58 1.3-1.67v-4.6h1.08v4.6c0 1.63-.93 2.66-2.38 2.66zm5.594-.04c-1.08 0-1.75-.75-1.75-2.02v-3.42h1.06v3.15c0 .97.33 1.4 1.01 1.4.77 0 1.23-.52 1.23-1.43v-3.12h1.06v5.32h-.99l-.01-.87c-.28.65-.84.99-1.61.99zm4.109-.12v-5.32h.97l.03.92c.28-.72.89-1.04 1.61-1.04 1.19 0 1.8.86 1.8 2.02v3.42h-1.06v-3.1c0-.94-.29-1.45-1.03-1.45-.75 0-1.26.51-1.26 1.45v3.1h-1.06zm-10.793 20v-5.06h-1.5v-.87h.61c.81 0 1.12-.28 1.12-1.17h.85v7.1h-1.08zm5.562.16c-1.77 0-2.88-1.42-2.88-3.7s1.12-3.72 2.88-3.72c1.78 0 2.89 1.43 2.89 3.72 0 2.27-1.11 3.7-2.89 3.7zm0-.99c1.14 0 1.77-.96 1.77-2.71 0-1.76-.63-2.73-1.77-2.73-1.12 0-1.76.97-1.76 2.73 0 1.75.64 2.71 1.76 2.71zm32.442-19.01c-1.43 0-2.36-1.06-2.37-2.55l1.1-.06c.01 1.06.47 1.62 1.27 1.62.83 0 1.3-.58 1.3-1.67v-4.6h1.08v4.6c0 1.63-.93 2.66-2.38 2.66zm5.594-.04c-1.08 0-1.75-.75-1.75-2.02v-3.42h1.06v3.15c0 .97.33 1.4 1.01 1.4.77 0 1.23-.52 1.23-1.43v-3.12h1.06v5.32h-.99l-.01-.87c-.28.65-.84.99-1.61.99zm4.109-.12v-5.32h.97l.03.92c.28-.72.89-1.04 1.61-1.04 1.19 0 1.8.86 1.8 2.02v3.42h-1.06v-3.1c0-.94-.29-1.45-1.03-1.45-.75 0-1.26.51-1.26 1.45v3.1h-1.06zm-10.793 20v-5.06h-1.5v-.87h.61c.81 0 1.12-.28 1.12-1.17h.85v7.1h-1.08zm4.062 0v-5.06h-1.5v-.87h.61c.81 0 1.12-.28 1.12-1.17h.85v7.1h-1.08zm33.387-19.84c-1.43 0-2.36-1.06-2.37-2.55l1.1-.06c.01 1.06.47 1.62 1.27 1.62.83 0 1.3-.58 1.3-1.67v-4.6h1.08v4.6c0 1.63-.93 2.66-2.38 2.66zm5.594-.04c-1.08 0-1.75-.75-1.75-2.02v-3.42h1.06v3.15c0 .97.33 1.4 1.01 1.4.77 0 1.23-.52 1.23-1.43v-3.12h1.06v5.32h-.99l-.01-.87c-.28.65-.84.99-1.61.99zm4.11-.12v-5.32h.97l.03.92c.28-.72.89-1.04 1.61-1.04 1.19 0 1.8.86 1.8 2.02v3.42h-1.06v-3.1c0-.94-.29-1.45-1.03-1.45-.75 0-1.26.51-1.26 1.45v3.1h-1.06zm-10.794 20v-5.06h-1.5v-.87h.61c.81 0 1.12-.28 1.12-1.17h.85v7.1h-1.08zm2.763 0c0-1.61.62-2.6 2.66-3.68.97-.51 1.34-.81 1.34-1.47s-.43-1.12-1.28-1.12c-.91 0-1.43.5-1.57 1.41l-1.12-.07c.15-1.43 1.11-2.33 2.69-2.33 1.51 0 2.4.85 2.4 2.09 0 1.09-.49 1.61-1.92 2.37-1.23.66-1.85 1.33-1.89 1.81h3.81v.99h-5.12zm34.694-19.84c-1.43 0-2.36-1.06-2.37-2.55l1.1-.06c.01 1.06.47 1.62 1.27 1.62.83 0 1.3-.58 1.3-1.67v-4.6h1.08v4.6c0 1.63-.93 2.66-2.38 2.66zm5.594-.04c-1.08 0-1.75-.75-1.75-2.02v-3.42h1.06v3.15c0 .97.33 1.4 1.01 1.4.77 0 1.23-.52 1.23-1.43v-3.12h1.06v5.32h-.99l-.01-.87c-.28.65-.84.99-1.61.99zm4.11-.12v-5.32h.97l.03.92c.28-.72.89-1.04 1.61-1.04 1.19 0 1.8.86 1.8 2.02v3.42h-1.06v-3.1c0-.94-.29-1.45-1.03-1.45-.75 0-1.26.51-1.26 1.45v3.1h-1.06zm-10.794 20v-5.06h-1.5v-.87h.61c.81 0 1.12-.28 1.12-1.17h.85v7.1h-1.08zm5.263.16c-1.64 0-2.54-.83-2.6-2.07l1.11-.06c.07.81.66 1.14 1.49 1.14.85 0 1.57-.33 1.57-1.19 0-.85-.63-1.25-1.58-1.25h-.58v-.94h.58c.77 0 1.33-.28 1.33-1.03 0-.66-.42-1.03-1.29-1.03s-1.28.36-1.37.93l-1.11-.06c.13-1.11 1.01-1.86 2.48-1.86 1.52 0 2.41.75 2.41 1.94 0 .75-.42 1.27-1.22 1.52.92.25 1.47.92 1.47 1.82 0 1.35-1.09 2.14-2.69 2.14z" fill="#667185"/><path fill="#5755ff" d="M239.742 25.723h11.914v129.264h-11.914z"/><path d="M203.438 60.824h11.914v94.118h-11.914zm-36.305 46.473h11.914v47.655h-11.914z" fill="#e8e7fe"/><path fill="#5755ff" d="M130.812 37.633h11.914v117.35h-11.914z"/><path d="M94.453 57.871h11.914v97.097H94.453zM58.094 75.148h11.914v79.822H58.094zm218 10.715h11.914v69.1h-11.914z" fill="#e8e7fe"/><g filter="url(#A)"><rect x="105" y="153" width="338" height="180" rx="6" fill="#fff"/><rect x="104.5" y="152.5" width="339" height="181" rx="6.5" stroke="url(#C)"/></g><path d="M117 269h314v1H117zm0 31h314v1H117z" fill="#e4e7ec"/><circle cx="122" cy="255" r="5" fill="#5755ff"/><circle cx="122" cy="286" r="5" fill="#d9d8fd"/><circle cx="122" cy="317" r="5" fill="#e4e7ec"/><g fill="#475367"><path d="M138.66 259.16c-2 0-3.17-1.56-3.17-3.7 0-2.13 1.19-3.72 3.19-3.72 1.7 0 2.58 1.02 2.84 2.34l-.9.06c-.18-.92-.73-1.56-1.94-1.56-1.62 0-2.29 1.34-2.29 2.88 0 1.62.7 2.86 2.29 2.86 1.26 0 2.04-.96 2.06-2.09h-2.04v-.82h2.84V259h-.64l-.04-1.19c-.35.8-1.23 1.35-2.2 1.35zm6.418-.04c-1.5 0-2.43-1.09-2.43-2.77s.93-2.77 2.39-2.77c1.38 0 2.34 1 2.34 2.78v.25h-3.85c.06 1.14.63 1.71 1.55 1.71.69 0 1.14-.35 1.32-.89l.9.07c-.28.95-1.1 1.62-2.22 1.62zm1.38-3.25c-.08-1.02-.64-1.49-1.42-1.49-.82 0-1.37.51-1.51 1.49h2.93zm2.145 3.13v-5.3h.77l.02.95c.28-.73.9-1.07 1.63-1.07 1.21 0 1.79.89 1.79 2.01V259h-.84v-3.17c0-.98-.33-1.51-1.13-1.51-.82 0-1.4.53-1.4 1.51V259h-.84zm7.764.12c-1.5 0-2.43-1.09-2.43-2.77s.93-2.77 2.39-2.77c1.38 0 2.34 1 2.34 2.78v.25h-3.85c.06 1.14.63 1.71 1.55 1.71.69 0 1.14-.35 1.32-.89l.9.07c-.28.95-1.1 1.62-2.22 1.62zm1.38-3.25c-.08-1.02-.64-1.49-1.42-1.49-.82 0-1.37.51-1.51 1.49h2.93zm2.145 3.13v-5.3h.74l.03.98c.19-.67.61-.98 1.26-.98h.52v.8h-.51c-.8 0-1.2.43-1.2 1.3v3.2h-.84zm4.975.12c-1.1 0-1.79-.53-1.79-1.44 0-.9.51-1.4 1.67-1.62l1.88-.35c0-.89-.42-1.33-1.26-1.33-.74 0-1.15.34-1.31.95l-.89-.07c.2-1 1-1.68 2.2-1.68 1.36 0 2.1.82 2.1 2.16v2.19c0 .24.08.33.28.33h.21v.74a2.33 2.33 0 0 1-.32.02c-.64 0-.93-.25-1-.84-.26.55-.99.94-1.77.94zm.08-.74c1.06 0 1.68-.68 1.68-1.56v-.38l-1.72.32c-.72.13-.95.4-.95.84 0 .5.37.78.99.78zm5.606.62c-.96 0-1.41-.42-1.41-1.36v-3.2h-.78v-.74h.78v-1.24h.84v1.24h1.41v.74h-1.41v3.18c0 .48.21.64.65.64h.76v.74h-.84zm3.958.12c-1.5 0-2.43-1.09-2.43-2.77s.93-2.77 2.39-2.77c1.38 0 2.34 1 2.34 2.78v.25h-3.85c.06 1.14.63 1.71 1.55 1.71.69 0 1.14-.35 1.32-.89l.9.07c-.28.95-1.1 1.62-2.22 1.62zm1.38-3.25c-.08-1.02-.64-1.49-1.42-1.49-.82 0-1.37.51-1.51 1.49h2.93zm4.055 3.25c-1.38 0-2.24-1.07-2.24-2.77s.86-2.77 2.24-2.77c.71 0 1.34.32 1.63.86v-2.54h.84v7.1h-.76l-.03-.8c-.3.58-.94.92-1.68.92zm.17-.8c.94 0 1.46-.76 1.46-1.97 0-1.23-.52-1.97-1.46-1.97-.93 0-1.53.74-1.53 1.97 0 1.21.6 1.97 1.53 1.97zm6.397.68v-5.3h.77l.02.95c.28-.73.9-1.07 1.63-1.07 1.21 0 1.79.89 1.79 2.01V259h-.84v-3.17c0-.98-.33-1.51-1.13-1.51-.82 0-1.4.53-1.4 1.51V259h-.84zm7.764.12c-1.5 0-2.43-1.09-2.43-2.77s.93-2.77 2.39-2.77c1.38 0 2.34 1 2.34 2.78v.25h-3.85c.06 1.14.63 1.71 1.55 1.71.69 0 1.14-.35 1.32-.89l.9.07c-.28.95-1.1 1.62-2.22 1.62zm1.38-3.25c-.08-1.02-.64-1.49-1.42-1.49-.82 0-1.37.51-1.51 1.49h2.93zm3 3.13l-1.64-5.3h.92l1.24 4.42 1.26-4.42h.9l1.26 4.42 1.25-4.42h.92l-1.64 5.3h-1.06l-1.18-4.03-1.18 4.03h-1.05zm12.233.16c-1.64 0-2.69-.99-2.81-2.43l.9-.06c.14 1.06.79 1.65 1.93 1.65.99 0 1.57-.39 1.57-1.12 0-.66-.33-1.06-2.03-1.48-1.64-.41-2.22-.9-2.22-1.96 0-1.19.9-2.02 2.36-2.02 1.56 0 2.48.96 2.64 2.26l-.9.06c-.12-.86-.7-1.48-1.76-1.48-.88 0-1.44.46-1.44 1.14 0 .67.36.91 1.86 1.28 1.78.44 2.39 1.12 2.39 2.14 0 1.24-1.04 2.02-2.49 2.02zm5.625-.04c-1.06 0-1.74-.75-1.74-2.01v-3.41h.84v3.18c0 1.03.36 1.5 1.12 1.5.84 0 1.35-.57 1.35-1.52v-3.16h.84v5.3h-.8v-.86c-.29.63-.85.98-1.61.98zm4.012 1.38v-6.8h.78l.01.81c.32-.61.91-.93 1.63-.93 1.58 0 2.29 1.31 2.29 2.77s-.71 2.77-2.29 2.77c-.69 0-1.3-.31-1.58-.82v2.2h-.84zm2.34-2.18c.92 0 1.49-.73 1.49-1.97s-.57-1.97-1.49-1.97-1.5.67-1.5 1.97.57 1.97 1.5 1.97zm3.587 2.18v-6.8h.78l.01.81c.32-.61.91-.93 1.63-.93 1.58 0 2.29 1.31 2.29 2.77s-.71 2.77-2.29 2.77c-.69 0-1.3-.31-1.58-.82v2.2h-.84zm2.34-2.18c.92 0 1.49-.73 1.49-1.97s-.57-1.97-1.49-1.97-1.5.67-1.5 1.97.57 1.97 1.5 1.97zm5.688.8c-1.47 0-2.43-1.08-2.43-2.77s.96-2.77 2.43-2.77c1.46 0 2.42 1.08 2.42 2.77s-.96 2.77-2.42 2.77zm0-.8c.97 0 1.54-.74 1.54-1.97s-.57-1.97-1.54-1.97c-.98 0-1.55.74-1.55 1.97s.57 1.97 1.55 1.97zm3.642.68v-5.3h.74l.03.98c.19-.67.61-.98 1.26-.98h.52v.8h-.51c-.8 0-1.2.43-1.2 1.3v3.2h-.84zm5.612 0c-.96 0-1.41-.42-1.41-1.36v-3.2h-.78v-.74h.78v-1.24h.84v1.24h1.41v.74h-1.41v3.18c0 .48.21.64.65.64h.76v.74h-.84zm4.625 0v-7.1h2.69c1.49 0 2.42.83 2.42 2.15 0 .82-.57 1.44-1.2 1.63.63.11 1 .49 1.07 1.23l.2 2.09h-.87l-.18-2c-.05-.59-.39-.86-1.21-.86h-2.06V259h-.86zm2.8-3.7c.86 0 1.41-.45 1.41-1.27s-.54-1.29-1.52-1.29h-1.83v2.56h1.94zm5.753 3.82c-1.5 0-2.43-1.09-2.43-2.77s.93-2.77 2.39-2.77c1.38 0 2.34 1 2.34 2.78v.25h-3.85c.06 1.14.63 1.71 1.55 1.71.69 0 1.14-.35 1.32-.89l.9.07c-.28.95-1.1 1.62-2.22 1.62zm1.38-3.25c-.08-1.02-.64-1.49-1.42-1.49-.82 0-1.37.51-1.51 1.49h2.93zm6.525 4.63h-.84v-2.2c-.28.51-.89.82-1.58.82-1.58 0-2.29-1.31-2.29-2.77s.71-2.77 2.29-2.77c.72 0 1.31.32 1.63.93l.01-.81h.78v6.8zm-2.34-2.18c.93 0 1.5-.67 1.5-1.97s-.58-1.97-1.5-1.97-1.49.73-1.49 1.97.57 1.97 1.49 1.97zm5.676.8c-1.06 0-1.74-.75-1.74-2.01v-3.41h.84v3.18c0 1.03.36 1.5 1.12 1.5.84 0 1.35-.57 1.35-1.52v-3.16h.84v5.3h-.8v-.86c-.29.63-.85.98-1.61.98zm5.966 0c-1.5 0-2.43-1.09-2.43-2.77s.93-2.77 2.39-2.77c1.38 0 2.34 1 2.34 2.78v.25h-3.85c.06 1.14.63 1.71 1.55 1.71.69 0 1.14-.35 1.32-.89l.9.07c-.28.95-1.1 1.62-2.22 1.62zm1.38-3.25c-.08-1.02-.64-1.49-1.42-1.49-.82 0-1.37.51-1.51 1.49h2.93zm4.105 3.25c-1.42 0-2.21-.75-2.29-1.79l.88-.06c.1.64.51 1.05 1.41 1.05.72 0 1.19-.22 1.19-.74 0-.42-.21-.6-1.35-.8-1.52-.27-2-.74-2-1.58 0-.94.72-1.62 2-1.62 1.29 0 1.97.78 2.13 1.7l-.88.06c-.12-.56-.54-.96-1.26-.96-.76 0-1.11.33-1.11.78 0 .52.34.72 1.28.88 1.62.28 2.07.7 2.07 1.54 0 .98-.9 1.54-2.07 1.54zm4.98-.12c-.96 0-1.41-.42-1.41-1.36v-3.2h-.78v-.74h.78v-1.24h.84v1.24h1.41v.74h-1.41v3.18c0 .48.21.64.65.64h.76v.74h-.84z"/><path d="M135.92 290v-7.1h2.69c1.49 0 2.42.83 2.42 2.15 0 .82-.57 1.44-1.2 1.63.63.11 1 .49 1.07 1.23l.2 2.09h-.87l-.18-2c-.05-.59-.39-.86-1.21-.86h-2.06V290h-.86zm2.8-3.7c.86 0 1.41-.45 1.41-1.27s-.54-1.29-1.52-1.29h-1.83v2.56h1.94zm5.752 3.82c-1.5 0-2.43-1.09-2.43-2.77s.93-2.77 2.39-2.77c1.38 0 2.34 1 2.34 2.78v.25h-3.85c.06 1.14.63 1.71 1.55 1.71.69 0 1.14-.35 1.32-.89l.9.07c-.28.95-1.1 1.62-2.22 1.62zm1.38-3.25c-.08-1.02-.64-1.49-1.42-1.49-.82 0-1.37.51-1.51 1.49h2.93zm6.525 4.63h-.84v-2.2c-.28.51-.89.82-1.58.82-1.58 0-2.29-1.31-2.29-2.77s.71-2.77 2.29-2.77c.72 0 1.31.32 1.63.93l.01-.81h.78v6.8zm-2.34-2.18c.93 0 1.5-.67 1.5-1.97s-.58-1.97-1.5-1.97-1.49.73-1.49 1.97.57 1.97 1.49 1.97zm5.677.8c-1.06 0-1.74-.75-1.74-2.01v-3.41h.84v3.18c0 1.03.36 1.5 1.12 1.5.84 0 1.35-.57 1.35-1.52v-3.16h.84v5.3h-.8v-.86c-.29.63-.85.98-1.61.98zm5.965 0c-1.5 0-2.43-1.09-2.43-2.77s.93-2.77 2.39-2.77c1.38 0 2.34 1 2.34 2.78v.25h-3.85c.06 1.14.63 1.71 1.55 1.71.69 0 1.14-.35 1.32-.89l.9.07c-.28.95-1.1 1.62-2.22 1.62zm1.38-3.25c-.08-1.02-.64-1.49-1.42-1.49-.82 0-1.37.51-1.51 1.49h2.93zm4.105 3.25c-1.42 0-2.21-.75-2.29-1.79l.88-.06c.1.64.51 1.05 1.41 1.05.72 0 1.19-.22 1.19-.74 0-.42-.21-.6-1.35-.8-1.52-.27-2-.74-2-1.58 0-.94.72-1.62 2-1.62 1.29 0 1.97.78 2.13 1.7l-.88.06c-.12-.56-.54-.96-1.26-.96-.76 0-1.11.33-1.11.78 0 .52.34.72 1.28.88 1.62.28 2.07.7 2.07 1.54 0 .98-.9 1.54-2.07 1.54zm4.98-.12c-.96 0-1.41-.42-1.41-1.36v-3.2h-.78v-.74h.78v-1.24h.84v1.24h1.41v.74h-1.41v3.18c0 .48.21.64.65.64h.76v.74h-.84zm3.959.12c-1.5 0-2.43-1.09-2.43-2.77s.93-2.77 2.39-2.77c1.38 0 2.34 1 2.34 2.78v.25h-3.85c.06 1.14.63 1.71 1.55 1.71.69 0 1.14-.35 1.32-.89l.9.07c-.28.95-1.1 1.62-2.22 1.62zm1.38-3.25c-.08-1.02-.64-1.49-1.42-1.49-.82 0-1.37.51-1.51 1.49h2.93zm4.055 3.25c-1.38 0-2.24-1.07-2.24-2.77s.86-2.77 2.24-2.77c.71 0 1.34.32 1.63.86v-2.54h.84v7.1h-.76l-.03-.8c-.3.58-.94.92-1.68.92zm.17-.8c.94 0 1.46-.76 1.46-1.97 0-1.23-.52-1.97-1.46-1.97-.93 0-1.53.74-1.53 1.97 0 1.21.6 1.97 1.53 1.97zm6.397.68v-7.1h.84v2.63c.27-.65.87-.95 1.6-.95 1.14 0 1.77.83 1.77 2.01V290h-.84v-3.17c0-1.02-.37-1.51-1.11-1.51-.86 0-1.42.54-1.42 1.52V290h-.84zm7.404.12c-1.06 0-1.74-.75-1.74-2.01v-3.41h.84v3.18c0 1.03.36 1.5 1.12 1.5.84 0 1.35-.57 1.35-1.52v-3.16h.84v5.3h-.8v-.86c-.29.63-.85.98-1.61.98zm4.012-.12v-5.3h.77l.02.93c.26-.65.81-1.05 1.49-1.05.8 0 1.36.4 1.59 1.11.23-.71.77-1.11 1.55-1.11 1.13 0 1.75.73 1.75 2.01V290h-.84v-3.23c0-.96-.38-1.45-1.11-1.45-.74 0-1.22.56-1.22 1.51V290h-.84v-3.17c0-.94-.31-1.51-1.09-1.51-.74 0-1.23.57-1.23 1.51V290h-.84zm10.132.12c-1.1 0-1.79-.53-1.79-1.44 0-.9.51-1.4 1.67-1.62l1.88-.35c0-.89-.42-1.33-1.26-1.33-.74 0-1.15.34-1.31.95l-.89-.07c.2-1 1-1.68 2.2-1.68 1.36 0 2.1.82 2.1 2.16v2.19c0 .24.08.33.28.33h.21v.74a2.33 2.33 0 0 1-.32.02c-.64 0-.93-.25-1-.84-.26.55-.99.94-1.77.94zm.08-.74c1.06 0 1.68-.68 1.68-1.56v-.38l-1.72.32c-.72.13-.95.4-.95.84 0 .5.37.78.99.78zm4.114.62v-5.3h.77l.02.95c.28-.73.9-1.07 1.63-1.07 1.21 0 1.79.89 1.79 2.01V290h-.84v-3.17c0-.98-.33-1.51-1.13-1.51-.82 0-1.4.53-1.4 1.51V290h-.84zm10.27.12c-1.42 0-2.21-.75-2.29-1.79l.88-.06c.1.64.51 1.05 1.41 1.05.72 0 1.19-.22 1.19-.74 0-.42-.21-.6-1.35-.8-1.52-.27-2-.74-2-1.58 0-.94.72-1.62 2-1.62 1.29 0 1.97.78 2.13 1.7l-.88.06c-.12-.56-.54-.96-1.26-.96-.76 0-1.11.33-1.11.78 0 .52.34.72 1.28.88 1.62.28 2.07.7 2.07 1.54 0 .98-.9 1.54-2.07 1.54zm4.986 0c-1.06 0-1.74-.75-1.74-2.01v-3.41h.84v3.18c0 1.03.36 1.5 1.12 1.5.84 0 1.35-.57 1.35-1.52v-3.16h.84v5.3h-.8v-.86c-.29.63-.85.98-1.61.98zm4.011 1.38v-6.8h.78l.01.81c.32-.61.91-.93 1.63-.93 1.58 0 2.29 1.31 2.29 2.77s-.71 2.77-2.29 2.77c-.69 0-1.3-.31-1.58-.82v2.2h-.84zm2.34-2.18c.92 0 1.49-.73 1.49-1.97s-.57-1.97-1.49-1.97-1.5.67-1.5 1.97.57 1.97 1.5 1.97zm3.588 2.18v-6.8h.78l.01.81c.32-.61.91-.93 1.63-.93 1.58 0 2.29 1.31 2.29 2.77s-.71 2.77-2.29 2.77c-.69 0-1.3-.31-1.58-.82v2.2h-.84zm2.34-2.18c.92 0 1.49-.73 1.49-1.97s-.57-1.97-1.49-1.97-1.5.67-1.5 1.97.57 1.97 1.5 1.97zm5.688.8c-1.47 0-2.43-1.08-2.43-2.77s.96-2.77 2.43-2.77c1.46 0 2.42 1.08 2.42 2.77s-.96 2.77-2.42 2.77zm0-.8c.97 0 1.54-.74 1.54-1.97s-.57-1.97-1.54-1.97c-.98 0-1.55.74-1.55 1.97s.57 1.97 1.55 1.97zm3.642.68v-5.3h.74l.03.98c.19-.67.61-.98 1.26-.98h.52v.8h-.51c-.8 0-1.2.43-1.2 1.3v3.2h-.84zm5.612 0c-.96 0-1.41-.42-1.41-1.36v-3.2h-.78v-.74h.78v-1.24h.84v1.24h1.41v.74h-1.41v3.18c0 .48.21.64.65.64h.76v.74h-.84zM135.92 321v-7.1h1.22l3.51 6.24v-6.24h.86v7.1h-1.28l-3.45-6.12V321h-.86zm9.412.12c-1.47 0-2.43-1.08-2.43-2.77s.96-2.77 2.43-2.77c1.46 0 2.42 1.08 2.42 2.77s-.96 2.77-2.42 2.77zm0-.8c.97 0 1.54-.74 1.54-1.97s-.57-1.97-1.54-1.97c-.98 0-1.55.74-1.55 1.97s.57 1.97 1.55 1.97zm6.191.68v-5.3h.84v5.3h-.84zm-.02-6.13v-.98h.88v.98h-.88zm2.315 6.13v-5.3h.77l.02.95c.28-.73.9-1.07 1.63-1.07 1.21 0 1.79.89 1.79 2.01V321h-.84v-3.17c0-.98-.33-1.51-1.13-1.51-.82 0-1.4.53-1.4 1.51V321h-.84zm7.447 0c-.96 0-1.41-.42-1.41-1.36v-3.2h-.78v-.74h.78v-1.24h.84v1.24h1.41v.74h-1.41v3.18c0 .48.21.64.65.64h.76v.74h-.84zm3.959.12c-1.5 0-2.43-1.09-2.43-2.77s.93-2.77 2.39-2.77c1.38 0 2.34 1 2.34 2.78v.25h-3.85c.06 1.14.63 1.71 1.55 1.71.69 0 1.14-.35 1.32-.89l.9.07c-.28.95-1.1 1.62-2.22 1.62zm1.38-3.25c-.08-1.02-.64-1.49-1.42-1.49-.82 0-1.37.51-1.51 1.49h2.93zm2.145 3.13v-5.3h.74l.03.98c.19-.67.61-.98 1.26-.98h.52v.8h-.51c-.8 0-1.2.43-1.2 1.3v3.2h-.84zm4.976.12c-1.1 0-1.79-.53-1.79-1.44 0-.9.51-1.4 1.67-1.62l1.88-.35c0-.89-.42-1.33-1.26-1.33-.74 0-1.15.34-1.31.95l-.89-.07c.2-1 1-1.68 2.2-1.68 1.36 0 2.1.82 2.1 2.16v2.19c0 .24.08.33.28.33h.21v.74a2.33 2.33 0 0 1-.32.02c-.64 0-.93-.25-1-.84-.26.55-.99.94-1.77.94zm.08-.74c1.06 0 1.68-.68 1.68-1.56v-.38l-1.72.32c-.72.13-.95.4-.95.84 0 .5.37.78.99.78zm6.165.74c-1.48 0-2.43-1.09-2.43-2.77s.95-2.77 2.43-2.77c1.22 0 2.07.66 2.25 1.84l-.88.06c-.12-.7-.65-1.1-1.37-1.1-.98 0-1.55.74-1.55 1.97s.57 1.97 1.55 1.97c.72 0 1.25-.4 1.37-1.2l.88.06c-.18 1.18-1.03 1.94-2.25 1.94zm5.055-.12c-.96 0-1.41-.42-1.41-1.36v-3.2h-.78v-.74h.78v-1.24h.84v1.24h1.41v.74h-1.41v3.18c0 .48.21.64.65.64h.76v.74h-.84zm2.005 0v-5.3h.84v5.3h-.84zm-.02-6.13v-.98h.88v.98h-.88zm4.562 6.25c-1.47 0-2.43-1.08-2.43-2.77s.96-2.77 2.43-2.77c1.46 0 2.42 1.08 2.42 2.77s-.96 2.77-2.42 2.77zm0-.8c.97 0 1.54-.74 1.54-1.97s-.57-1.97-1.54-1.97c-.98 0-1.55.74-1.55 1.97s.57 1.97 1.55 1.97zm3.642.68v-5.3h.77l.02.95c.28-.73.9-1.07 1.63-1.07 1.21 0 1.79.89 1.79 2.01V321h-.84v-3.17c0-.98-.33-1.51-1.13-1.51-.82 0-1.4.53-1.4 1.51V321h-.84zm178.285-61.84c-1.68 0-2.6-1.16-2.6-3.2 0-2.35.78-4.22 2.86-4.22 1.3 0 2.01.69 2.29 1.74l-1.07.09c-.16-.52-.49-.85-1.22-.85-1 0-1.63.78-1.77 2.37.33-.48.93-.83 1.72-.83 1.42 0 2.37.95 2.37 2.39 0 1.57-1.06 2.51-2.58 2.51zm.01-.96c.86 0 1.46-.58 1.46-1.55 0-.9-.57-1.48-1.39-1.48-.89 0-1.55.58-1.55 1.48 0 .91.58 1.55 1.48 1.55zm6.347.96c-1.68 0-2.6-1.16-2.6-3.2 0-2.35.78-4.22 2.86-4.22 1.3 0 2.01.69 2.29 1.74l-1.07.09c-.16-.52-.49-.85-1.22-.85-1 0-1.63.78-1.77 2.37.33-.48.93-.83 1.72-.83 1.42 0 2.37.95 2.37 2.39 0 1.57-1.06 2.51-2.58 2.51zm.01-.96c.86 0 1.46-.58 1.46-1.55 0-.9-.57-1.48-1.39-1.48-.89 0-1.55.58-1.55 1.48 0 .91.58 1.55 1.48 1.55zm3.597.8v-1.26h1.3V259h-1.3zm3.658 0c0-2.2.92-4.37 2.43-6.11h-3.96v-.99h5.1v.92c-1.69 1.92-2.47 3.74-2.47 6.18h-1.1zm4.779.12l5.18-7.38h1.14l-5.18 7.38h-1.14zm1.12-3.78c-.83 0-1.5-.75-1.5-1.72 0-.98.67-1.73 1.5-1.73s1.5.75 1.5 1.73c0 .97-.67 1.72-1.5 1.72zm0-.77c.4 0 .65-.37.65-.95s-.25-.96-.65-.96-.65.38-.65.96.25.95.65.95zm4.04 4.43c-.83 0-1.5-.75-1.5-1.73 0-.97.67-1.72 1.5-1.72s1.5.75 1.5 1.72c0 .98-.67 1.73-1.5 1.73zm0-.77c.4 0 .65-.38.65-.96s-.25-.95-.65-.95-.65.37-.65.95.25.96.65.96zM387.121 290c0-2.2.92-4.37 2.43-6.11h-3.96v-.99h5.1v.92c-1.69 1.92-2.47 3.74-2.47 6.18h-1.1zm4.779.12l5.18-7.38h1.14l-5.18 7.38h-1.14zm1.12-3.78c-.83 0-1.5-.75-1.5-1.72 0-.98.67-1.73 1.5-1.73s1.5.75 1.5 1.73c0 .97-.67 1.72-1.5 1.72zm0-.77c.4 0 .65-.37.65-.95s-.25-.96-.65-.96-.65.38-.65.96.25.95.65.95zm4.04 4.43c-.83 0-1.5-.75-1.5-1.73 0-.97.67-1.72 1.5-1.72s1.5.75 1.5 1.72c0 .98-.67 1.73-1.5 1.73zm0-.77c.4 0 .65-.38.65-.96s-.25-.95-.65-.95-.65.37-.65.95.25.96.65.96zM370.537 321c0-1.61.62-2.6 2.66-3.68.97-.51 1.34-.81 1.34-1.47s-.43-1.12-1.28-1.12c-.91 0-1.43.5-1.57 1.41l-1.12-.07c.15-1.43 1.11-2.33 2.69-2.33 1.51 0 2.4.85 2.4 2.09 0 1.09-.49 1.61-1.92 2.37-1.23.66-1.85 1.33-1.89 1.81h3.81v.99h-5.12zm8.839.16c-1.63 0-2.74-.73-2.74-2.1 0-.93.53-1.58 1.4-1.88-.66-.25-1.06-.75-1.06-1.49 0-1.13.91-1.95 2.4-1.95 1.48 0 2.39.82 2.39 1.95 0 .75-.4 1.23-1.06 1.49.87.29 1.41.95 1.41 1.88 0 1.37-1.12 2.1-2.74 2.1zm0-.99c.98 0 1.61-.4 1.61-1.22 0-.77-.53-1.28-1.61-1.28-1.09 0-1.62.51-1.62 1.28 0 .82.63 1.22 1.62 1.22zm0-3.39c.81 0 1.28-.34 1.28-1.04 0-.62-.45-1.02-1.28-1.02-.84 0-1.29.4-1.29 1.02 0 .7.47 1.04 1.29 1.04zm3.56 4.22v-1.26h1.3V321h-1.3zm4.928.16c-1.58 0-2.5-.82-2.6-2.03l1.11-.07c.1.74.66 1.11 1.49 1.11.93 0 1.51-.55 1.51-1.48 0-.91-.57-1.5-1.52-1.5-.64 0-1.16.29-1.37.75h-1.12l.48-4.04h4.16v.99h-3.2l-.24 1.97c.36-.38.91-.59 1.54-.59 1.43 0 2.39 1.02 2.39 2.42 0 1.47-1.07 2.47-2.63 2.47zm4.036-.04l5.18-7.38h1.14l-5.18 7.38h-1.14zm1.12-3.78c-.83 0-1.5-.75-1.5-1.72 0-.98.67-1.73 1.5-1.73s1.5.75 1.5 1.73c0 .97-.67 1.72-1.5 1.72zm0-.77c.4 0 .65-.37.65-.95s-.25-.96-.65-.96-.65.38-.65.96.25.95.65.95zm4.04 4.43c-.83 0-1.5-.75-1.5-1.73 0-.97.67-1.72 1.5-1.72s1.5.75 1.5 1.72c0 .98-.67 1.73-1.5 1.73zm0-.77c.4 0 .65-.38.65-.96s-.25-.95-.65-.95-.65.37-.65.95.25.96.65.96z"/></g><path d="M408.88 260.1c-1.85-2.76-1.85-5.84 0-8.6h.75c-1.69 2.87-1.69 5.73 0 8.6h-.75zm2.9-1.1v-5.26h-1.48V253h.6c.78 0 1.06-.26 1.06-1.1h.68v7.1h-.86zm4.838.16c-1.18 0-1.93-.65-2.19-1.53l.91-.07c.16.48.58.76 1.28.76 1.08 0 1.72-.76 1.83-2.52-.38.6-1 .94-1.75.94-1.38 0-2.36-1-2.36-2.48 0-1.55 1.04-2.52 2.47-2.52 1.78 0 2.56 1.3 2.56 3.29 0 2.38-.68 4.13-2.75 4.13zm.14-3.27c.97 0 1.66-.59 1.66-1.61 0-.98-.61-1.7-1.61-1.7-.98 0-1.57.7-1.57 1.68 0 1 .62 1.63 1.52 1.63zm6.241 3.27c-1.53 0-2.62-.73-2.62-2.11 0-.92.53-1.57 1.37-1.87-.63-.26-1.03-.73-1.03-1.49 0-1.12.9-1.95 2.28-1.95s2.28.83 2.28 1.95c0 .76-.4 1.23-1.03 1.49.84.3 1.37.95 1.37 1.87 0 1.38-1.09 2.11-2.62 2.11zm0-.84c1.05 0 1.72-.42 1.72-1.32 0-.83-.54-1.37-1.72-1.37s-1.72.54-1.72 1.37c0 .9.67 1.32 1.72 1.32zm0-3.49c.88 0 1.38-.38 1.38-1.14 0-.68-.48-1.11-1.38-1.11s-1.38.43-1.38 1.11c0 .76.5 1.14 1.38 1.14zm3.207 5.27c1.69-2.87 1.69-5.73 0-8.6h.75c1.85 2.76 1.85 5.84 0 8.6h-.75zm-17.326 31c-1.85-2.76-1.85-5.84 0-8.6h.75c-1.69 2.87-1.69 5.73 0 8.6h-.75zm2.9-1.1v-5.26h-1.48V284h.6c.78 0 1.06-.26 1.06-1.1h.68v7.1h-.86zm4.978.16c-1.53 0-2.62-.73-2.62-2.11 0-.92.53-1.57 1.37-1.87-.63-.26-1.03-.73-1.03-1.49 0-1.12.9-1.95 2.28-1.95s2.28.83 2.28 1.95c0 .76-.4 1.23-1.03 1.49.84.3 1.37.95 1.37 1.87 0 1.38-1.09 2.11-2.62 2.11zm0-.84c1.05 0 1.72-.42 1.72-1.32 0-.83-.54-1.37-1.72-1.37s-1.72.54-1.72 1.37c0 .9.67 1.32 1.72 1.32zm0-3.49c.88 0 1.38-.38 1.38-1.14 0-.68-.48-1.11-1.38-1.11s-1.38.43-1.38 1.11c0 .76.5 1.14 1.38 1.14zm3.207 5.27c1.69-2.87 1.69-5.73 0-8.6h.75c1.85 2.76 1.85 5.84 0 8.6h-.75zm-11.085 31c-1.85-2.76-1.85-5.84 0-8.6h.75c-1.69 2.87-1.69 5.73 0 8.6h-.75zm3.962-.94c-1.53 0-2.62-.73-2.62-2.11 0-.92.53-1.57 1.37-1.87-.63-.26-1.03-.73-1.03-1.49 0-1.12.9-1.95 2.28-1.95s2.28.83 2.28 1.95c0 .76-.4 1.23-1.03 1.49.84.3 1.37.95 1.37 1.87 0 1.38-1.09 2.11-2.62 2.11zm0-.84c1.05 0 1.72-.42 1.72-1.32 0-.83-.54-1.37-1.72-1.37s-1.72.54-1.72 1.37c0 .9.67 1.32 1.72 1.32zm0-3.49c.88 0 1.38-.38 1.38-1.14 0-.68-.48-1.11-1.38-1.11s-1.38.43-1.38 1.11c0 .76.5 1.14 1.38 1.14zm6.025 4.33c-1.58 0-2.45-.82-2.51-1.99l.89-.06c.08.87.73 1.21 1.62 1.21.92 0 1.72-.34 1.72-1.3 0-.94-.69-1.37-1.71-1.37h-.56v-.84h.56c.84 0 1.46-.3 1.46-1.11 0-.73-.48-1.12-1.42-1.12s-1.39.38-1.48 1.01l-.9-.06c.13-1.06.96-1.79 2.38-1.79 1.44 0 2.32.74 2.32 1.92 0 .76-.42 1.27-1.23 1.52.92.25 1.48.93 1.48 1.84 0 1.36-1.08 2.14-2.62 2.14zm3.344.94c1.69-2.87 1.69-5.73 0-8.6h.75c1.85 2.76 1.85 5.84 0 8.6h-.75z" fill="#667185"/><path d="M120.39 231.16c-1.77 0-2.88-1.42-2.88-3.7s1.12-3.72 2.88-3.72c1.78 0 2.89 1.43 2.89 3.72 0 2.27-1.11 3.7-2.89 3.7zm0-.99c1.14 0 1.77-.96 1.77-2.71 0-1.76-.63-2.73-1.77-2.73-1.12 0-1.76.97-1.76 2.73 0 1.75.64 2.71 1.76 2.71zm4.217.95l5.18-7.38h1.14l-5.18 7.38h-1.14zm1.12-3.78c-.83 0-1.5-.75-1.5-1.72 0-.98.67-1.73 1.5-1.73s1.5.75 1.5 1.73c0 .97-.67 1.72-1.5 1.72zm0-.77c.4 0 .65-.37.65-.95s-.25-.96-.65-.96-.65.38-.65.96.25.95.65.95zm4.04 4.43c-.83 0-1.5-.75-1.5-1.73 0-.97.67-1.72 1.5-1.72s1.5.75 1.5 1.72c0 .98-.67 1.73-1.5 1.73zm0-.77c.4 0 .65-.38.65-.96s-.25-.95-.65-.95-.65.37-.65.95.25.96.65.96zm277.123.77v-5.06h-1.5v-.87h.61c.81 0 1.12-.28 1.12-1.17h.85v7.1h-1.08zm5.563.16c-1.77 0-2.88-1.42-2.88-3.7s1.12-3.72 2.88-3.72c1.78 0 2.89 1.43 2.89 3.72 0 2.27-1.11 3.7-2.89 3.7zm0-.99c1.14 0 1.77-.96 1.77-2.71 0-1.76-.63-2.73-1.77-2.73-1.12 0-1.76.97-1.76 2.73 0 1.75.64 2.71 1.76 2.71zm6.787.99c-1.77 0-2.88-1.42-2.88-3.7s1.12-3.72 2.88-3.72c1.78 0 2.89 1.43 2.89 3.72 0 2.27-1.11 3.7-2.89 3.7zm0-.99c1.14 0 1.77-.96 1.77-2.71 0-1.76-.63-2.73-1.77-2.73-1.12 0-1.76.97-1.76 2.73 0 1.75.64 2.71 1.76 2.71zm4.217.95l5.18-7.38h1.14l-5.18 7.38h-1.14zm1.12-3.78c-.83 0-1.5-.75-1.5-1.72 0-.98.67-1.73 1.5-1.73s1.5.75 1.5 1.73c0 .97-.67 1.72-1.5 1.72zm0-.77c.4 0 .65-.37.65-.95s-.25-.96-.65-.96-.65.38-.65.96.25.95.65.95zm4.04 4.43c-.83 0-1.5-.75-1.5-1.73 0-.97.67-1.72 1.5-1.72s1.5.75 1.5 1.72c0 .98-.67 1.73-1.5 1.73zm0-.77c.4 0 .65-.38.65-.96s-.25-.95-.65-.95-.65.37-.65.95.25.96.65.96z" fill="#98a2b3"/><path d="M117 216.529V209h313v8" stroke="#e4e7ec"/><path d="M118.032 178v-8.52h3.06c2.04 0 3.096.708 3.096 2.304 0 .972-.588 1.668-1.596 1.812 1.236.144 1.956.924 1.956 2.064 0 1.56-1.08 2.34-3 2.34h-3.516zm3.48-1.164c1.068 0 1.704-.444 1.704-1.296 0-.84-.636-1.32-1.704-1.32h-2.184v2.616h2.184zm-.444-3.72c1.14 0 1.788-.444 1.788-1.236 0-.84-.612-1.236-1.788-1.236h-1.74v2.472h1.74zm5.094 4.884v-6.384h1.164l.036 1.212c.24-.84.732-1.212 1.524-1.212h.612v1.14h-.612c-.972 0-1.452.468-1.452 1.476V178h-1.272zm7.035.144c-1.848 0-3.024-1.32-3.024-3.336s1.176-3.336 2.988-3.336c1.74 0 2.928 1.236 2.928 3.384v.324h-4.584c.06 1.248.696 1.872 1.704 1.872.756 0 1.26-.372 1.464-.972l1.32.084c-.336 1.188-1.38 1.98-2.796 1.98zm1.536-3.924c-.072-1.128-.696-1.668-1.572-1.668-.9 0-1.512.588-1.656 1.668h3.228zm4.573 3.924c-1.32 0-2.184-.636-2.184-1.74 0-1.092.648-1.68 2.04-1.956l2.196-.42c0-.984-.456-1.476-1.368-1.476-.816 0-1.272.372-1.44 1.068l-1.32-.084c.24-1.272 1.236-2.064 2.76-2.064 1.728 0 2.64.972 2.64 2.628v2.484c0 .312.108.408.348.408h.228V178a2.3 2.3 0 0 1-.468.036c-.732 0-1.164-.276-1.272-1.02-.324.672-1.164 1.128-2.16 1.128zm.216-1.008c1.14 0 1.836-.72 1.836-1.74v-.408l-1.86.36c-.768.144-1.056.444-1.056.936 0 .552.396.852 1.08.852zm4.933.864v-8.52h1.272v5.292l2.868-3.156h1.608l-2.496 2.688 2.592 3.696h-1.464l-1.98-2.904-1.128 1.2V178h-1.272zm8.937.144c-1.644 0-2.676-1.284-2.676-3.336 0-2.04 1.032-3.336 2.676-3.336.876 0 1.608.384 1.944 1.044v-3.036h1.272V178h-1.176l-.036-.96c-.36.696-1.116 1.104-2.004 1.104zm.336-1.104c1.032 0 1.608-.828 1.608-2.232 0-1.416-.576-2.232-1.608-2.232s-1.692.84-1.692 2.232c0 1.368.672 2.232 1.692 2.232zm7.348 1.104c-1.836 0-3.036-1.308-3.036-3.336s1.2-3.336 3.036-3.336c1.824 0 3.024 1.308 3.024 3.336s-1.2 3.336-3.024 3.336zm0-1.104c1.08 0 1.704-.828 1.704-2.232s-.624-2.232-1.704-2.232-1.716.828-1.716 2.232.636 2.232 1.716 2.232zm5.441.96l-1.944-6.384h1.332l1.368 4.992 1.404-4.992h1.212l1.404 4.992 1.368-4.992h1.344L172.049 178h-1.428l-1.344-4.56-1.332 4.56h-1.428zm8.641 0v-6.384h1.164l.036 1.104c.336-.864 1.068-1.248 1.932-1.248 1.428 0 2.16 1.032 2.16 2.424V178h-1.272v-3.72c0-1.128-.348-1.74-1.236-1.74-.9 0-1.512.612-1.512 1.74V178h-1.272zm13.188.144c-.888 0-1.596-.408-1.956-1.104l-.036.96h-1.188v-8.52h1.272v3.036c.324-.552 1.02-1.044 1.908-1.044 1.668 0 2.712 1.296 2.712 3.336s-1.044 3.336-2.712 3.336zm-.204-1.104c.972 0 1.596-.852 1.596-2.232 0-1.404-.612-2.232-1.584-2.232-1.08 0-1.716.828-1.716 2.232 0 1.38.636 2.232 1.704 2.232zm4.415 2.76v-1.044h.768c.432 0 .6-.12.72-.42l.204-.528h-.396l-2.304-6.192h1.344l1.752 5.016 1.68-5.016h1.344l-2.544 7.128c-.264.732-.72 1.056-1.608 1.056h-.96zm11.639-1.8l-3.084-8.52h1.38l2.52 7.08 2.508-7.08h1.38l-3.084 8.52h-1.62zm5.872 0v-6.384h1.272V178h-1.272zm-.024-7.308v-1.272h1.332v1.272h-1.332zm5.579 7.452c-1.8 0-2.772-.9-2.868-2.16l1.32-.06c.108.708.564 1.152 1.548 1.152.792 0 1.296-.24 1.296-.804 0-.468-.24-.672-1.524-.888-1.896-.336-2.484-.888-2.484-1.932 0-1.164.9-1.98 2.556-1.98 1.632 0 2.496.936 2.676 2.1l-1.308.072c-.12-.66-.588-1.104-1.38-1.104-.828 0-1.224.36-1.224.864 0 .564.384.792 1.428.96 1.98.324 2.58.852 2.58 1.896 0 1.2-1.092 1.884-2.616 1.884zm3.832-.144v-6.384h1.272V178h-1.272zm-.024-7.308v-1.272h1.332v1.272h-1.332zm5.108 7.308c-1.212 0-1.776-.528-1.776-1.728v-3.612h-.972v-1.044h.972v-1.5h1.272v1.5h1.692v1.044h-1.692v3.516c0 .6.252.78.78.78h.912V178h-1.188zm4.998.144c-1.836 0-3.036-1.308-3.036-3.336s1.2-3.336 3.036-3.336c1.824 0 3.024 1.308 3.024 3.336s-1.2 3.336-3.024 3.336zm0-1.104c1.08 0 1.704-.828 1.704-2.232s-.624-2.232-1.704-2.232-1.716.828-1.716 2.232.636 2.232 1.716 2.232zm4.379.96v-6.384h1.164l.036 1.212c.24-.84.732-1.212 1.524-1.212h.612v1.14h-.612c-.972 0-1.452.468-1.452 1.476V178h-1.272zm7.687 0v-6.384h1.272V178h-1.272zm-.024-7.308v-1.272h1.332v1.272h-1.332zm2.93 7.308v-6.384h1.164l.036 1.104c.336-.864 1.068-1.248 1.932-1.248 1.428 0 2.16 1.032 2.16 2.424V178h-1.272v-3.72c0-1.128-.348-1.74-1.236-1.74-.9 0-1.512.612-1.512 1.74V178h-1.272zm9.175 0c-1.212 0-1.776-.528-1.776-1.728v-3.612h-.972v-1.044h.972v-1.5h1.272v1.5h1.692v1.044h-1.692v3.516c0 .6.252.78.78.78h.912V178h-1.188zm4.985.144c-1.848 0-3.024-1.32-3.024-3.336s1.176-3.336 2.988-3.336c1.74 0 2.928 1.236 2.928 3.384v.324h-4.584c.06 1.248.696 1.872 1.704 1.872.756 0 1.26-.372 1.464-.972l1.32.084c-.336 1.188-1.38 1.98-2.796 1.98zm1.536-3.924c-.072-1.128-.696-1.668-1.572-1.668-.9 0-1.512.588-1.656 1.668h3.228zm2.715 3.78v-6.384h1.164l.036 1.212c.24-.84.732-1.212 1.524-1.212h.612v1.14h-.612c-.972 0-1.452.468-1.452 1.476V178h-1.272zm6.253.144c-1.32 0-2.184-.636-2.184-1.74 0-1.092.648-1.68 2.04-1.956l2.196-.42c0-.984-.456-1.476-1.368-1.476-.816 0-1.272.372-1.44 1.068l-1.32-.084c.24-1.272 1.236-2.064 2.76-2.064 1.728 0 2.64.972 2.64 2.628v2.484c0 .312.108.408.348.408h.228V178a2.3 2.3 0 0 1-.468.036c-.732 0-1.164-.276-1.272-1.02-.324.672-1.164 1.128-2.16 1.128zm.216-1.008c1.14 0 1.836-.72 1.836-1.74v-.408l-1.86.36c-.768.144-1.056.444-1.056.936 0 .552.396.852 1.08.852zm7.538 1.008c-1.848 0-3.036-1.32-3.036-3.336s1.188-3.336 3.036-3.336c1.548 0 2.64.84 2.844 2.316l-1.32.072c-.132-.828-.72-1.284-1.524-1.284-1.08 0-1.716.828-1.716 2.232s.636 2.232 1.716 2.232c.804 0 1.392-.456 1.524-1.38l1.32.072c-.204 1.464-1.284 2.412-2.844 2.412zm6.253-.144c-1.212 0-1.776-.528-1.776-1.728v-3.612h-.972v-1.044h.972v-1.5h1.272v1.5h1.692v1.044h-1.692v3.516c0 .6.252.78.78.78h.912V178h-1.188zm2.497 0v-6.384h1.272V178h-1.272zm-.024-7.308v-1.272h1.332v1.272h-1.332zm5.747 7.452c-1.836 0-3.036-1.308-3.036-3.336s1.2-3.336 3.036-3.336c1.824 0 3.024 1.308 3.024 3.336s-1.2 3.336-3.024 3.336zm0-1.104c1.08 0 1.704-.828 1.704-2.232s-.624-2.232-1.704-2.232-1.716.828-1.716 2.232.636 2.232 1.716 2.232zm4.379.96v-6.384h1.164l.036 1.104c.336-.864 1.068-1.248 1.932-1.248 1.428 0 2.16 1.032 2.16 2.424V178h-1.272v-3.72c0-1.128-.348-1.74-1.236-1.74-.9 0-1.512.612-1.512 1.74V178h-1.272z" fill="#475367"/><path fill="#5755ff" d="M117 193h216v10H117z"/><path fill="#e4e7ec" d="M333 203h98v-10h-98z"/><path fill="#d9d8fd" d="M333 203h13v-10h-13z"/><defs><filter id="A" x="59" y="123" width="430" height="272" filterUnits="userSpaceOnUse" color-interpolation-filters="sRGB"><feFlood flood-opacity="0" result="A"/><feColorMatrix in="SourceAlpha" values="0 0 0 0 0 0 0 0 0 0 0 0 0 0 0 0 0 0 127 0" result="B"/><feMorphology radius="3" in="SourceAlpha"/><feOffset dy="16"/><feGaussianBlur stdDeviation="24"/><feComposite in2="B" operator="out"/><feColorMatrix values="0 0 0 0 0.341176 0 0 0 0 0.333333 0 0 0 0 1 0 0 0 0.08 0"/><feBlend in2="A"/><feBlend in="SourceGraphic"/></filter><linearGradient id="B" x1="170" y1="1" x2="170" y2="181" gradientUnits="userSpaceOnUse"><stop stop-color="#e4e7ec"/><stop offset="1" stop-color="#fff"/></linearGradient><linearGradient id="C" x1="274" y1="153" x2="274" y2="333" gradientUnits="userSpaceOnUse"><stop stop-color="#e4e7ec"/><stop offset="1" stop-color="#fff"/></linearGradient><path id="D" d="M46.813 17.363h250.188v.596H46.813z"/></defs></svg>