<svg width="489" height="395" viewBox="0 0 489 395" fill="none" xmlns="http://www.w3.org/2000/svg">
<rect x="0.5" y="0.5" width="339" height="181" rx="10.5" fill="white" stroke="url(#paint0_linear_2329_175)"/>
<rect x="46.8125" y="17.3633" width="250.188" height="0.595685" fill="#F7F9FC"/>
<rect x="46.8125" y="85.2734" width="250.188" height="0.595685" fill="#F7F9FC"/>
<rect x="46.8125" y="51.9102" width="250.188" height="0.595685" fill="#F7F9FC"/>
<rect x="46.8125" y="119.82" width="250.188" height="0.595685" fill="#F7F9FC"/>
<rect x="46.8125" y="154.977" width="250.188" height="0.595685" fill="#F7F9FC"/>
<path d="M56.98 172.16C55.55 172.16 54.62 171.1 54.61 169.61L55.71 169.55C55.72 170.61 56.18 171.17 56.98 171.17C57.81 171.17 58.28 170.59 58.28 169.5V164.9H59.36V169.5C59.36 171.13 58.43 172.16 56.98 172.16ZM62.5742 172.12C61.4942 172.12 60.8242 171.37 60.8242 170.1V166.68H61.8842V169.83C61.8842 170.8 62.2142 171.23 62.8942 171.23C63.6642 171.23 64.1242 170.71 64.1242 169.8V166.68H65.1842V172H64.1942L64.1842 171.13C63.9042 171.78 63.3442 172.12 62.5742 172.12ZM66.6836 172V166.68H67.6536L67.6836 167.6C67.9636 166.88 68.5736 166.56 69.2936 166.56C70.4836 166.56 71.0936 167.42 71.0936 168.58V172H70.0336V168.9C70.0336 167.96 69.7436 167.45 69.0036 167.45C68.2536 167.45 67.7436 167.96 67.7436 168.9V172H66.6836ZM76.1934 172C76.1934 169.8 77.1134 167.63 78.6234 165.89H74.6634V164.9H79.7634V165.82C78.0734 167.74 77.2934 169.56 77.2934 172H76.1934Z" fill="#98A2B3"/>
<path d="M20.39 161.777C18.62 161.777 17.51 160.357 17.51 158.077C17.51 155.797 18.63 154.357 20.39 154.357C22.17 154.357 23.28 155.787 23.28 158.077C23.28 160.347 22.17 161.777 20.39 161.777ZM20.39 160.787C21.53 160.787 22.16 159.827 22.16 158.077C22.16 156.317 21.53 155.347 20.39 155.347C19.27 155.347 18.63 156.317 18.63 158.077C18.63 159.827 19.27 160.787 20.39 160.787Z" fill="#98A2B3"/>
<path d="M20.13 126.019C18.5 126.019 17.39 125.289 17.39 123.919C17.39 122.989 17.92 122.339 18.79 122.039C18.13 121.789 17.73 121.289 17.73 120.549C17.73 119.419 18.64 118.599 20.13 118.599C21.61 118.599 22.52 119.419 22.52 120.549C22.52 121.299 22.12 121.779 21.46 122.039C22.33 122.329 22.87 122.989 22.87 123.919C22.87 125.289 21.75 126.019 20.13 126.019ZM20.13 125.029C21.11 125.029 21.74 124.629 21.74 123.809C21.74 123.039 21.21 122.529 20.13 122.529C19.04 122.529 18.51 123.039 18.51 123.809C18.51 124.629 19.14 125.029 20.13 125.029ZM20.13 121.639C20.94 121.639 21.41 121.299 21.41 120.599C21.41 119.979 20.96 119.579 20.13 119.579C19.29 119.579 18.84 119.979 18.84 120.599C18.84 121.299 19.31 121.639 20.13 121.639Z" fill="#98A2B3"/>
<path d="M18.89 91V85.94H17.39V85.07H18C18.81 85.07 19.12 84.79 19.12 83.9H19.97V91H18.89ZM24.2525 91.16C22.5725 91.16 21.6525 90 21.6525 87.96C21.6525 85.61 22.4325 83.74 24.5125 83.74C25.8125 83.74 26.5225 84.43 26.8025 85.48L25.7325 85.57C25.5725 85.05 25.2425 84.72 24.5125 84.72C23.5125 84.72 22.8825 85.5 22.7425 87.09C23.0725 86.61 23.6725 86.26 24.4625 86.26C25.8825 86.26 26.8325 87.21 26.8325 88.65C26.8325 90.22 25.7725 91.16 24.2525 91.16ZM24.2625 90.2C25.1225 90.2 25.7225 89.62 25.7225 88.65C25.7225 87.75 25.1525 87.17 24.3325 87.17C23.4425 87.17 22.7825 87.75 22.7825 88.65C22.7825 89.56 23.3625 90.2 24.2625 90.2Z" fill="#98A2B3"/>
<path d="M17.59 58C17.59 56.39 18.21 55.4 20.25 54.32C21.22 53.81 21.59 53.51 21.59 52.85C21.59 52.19 21.16 51.73 20.31 51.73C19.4 51.73 18.88 52.23 18.74 53.14L17.62 53.07C17.77 51.64 18.73 50.74 20.31 50.74C21.82 50.74 22.71 51.59 22.71 52.83C22.71 53.92 22.22 54.44 20.79 55.2C19.56 55.86 18.94 56.53 18.9 57.01H22.71V58H17.59ZM27.1247 58V56.52H23.5447V55.6L26.9847 50.9H28.2047V55.54H29.0647V56.52H28.2047V58H27.1247ZM24.7747 55.54H27.1247V52.4L24.7747 55.54Z" fill="#98A2B3"/>
<path d="M20.09 24.16C18.45 24.16 17.55 23.33 17.49 22.09L18.6 22.03C18.67 22.84 19.26 23.17 20.09 23.17C20.94 23.17 21.66 22.84 21.66 21.98C21.66 21.13 21.03 20.73 20.08 20.73H19.5V19.79H20.08C20.85 19.79 21.41 19.51 21.41 18.76C21.41 18.1 20.99 17.73 20.12 17.73C19.25 17.73 18.84 18.09 18.75 18.66L17.64 18.6C17.77 17.49 18.65 16.74 20.12 16.74C21.64 16.74 22.53 17.49 22.53 18.68C22.53 19.43 22.11 19.95 21.31 20.2C22.23 20.45 22.78 21.12 22.78 22.02C22.78 23.37 21.69 24.16 20.09 24.16ZM23.8498 24C23.8498 22.39 24.4698 21.4 26.5098 20.32C27.4798 19.81 27.8498 19.51 27.8498 18.85C27.8498 18.19 27.4198 17.73 26.5698 17.73C25.6598 17.73 25.1398 18.23 24.9998 19.14L23.8798 19.07C24.0298 17.64 24.9898 16.74 26.5698 16.74C28.0798 16.74 28.9698 17.59 28.9698 18.83C28.9698 19.92 28.4798 20.44 27.0498 21.2C25.8198 21.86 25.1998 22.53 25.1598 23.01H28.9698V24H23.8498Z" fill="#98A2B3"/>
<path d="M92.6988 172.492C91.2688 172.492 90.3388 171.432 90.3288 169.942L91.4288 169.882C91.4388 170.942 91.8988 171.502 92.6988 171.502C93.5288 171.502 93.9988 170.922 93.9988 169.832V165.232H95.0788V169.832C95.0788 171.462 94.1488 172.492 92.6988 172.492ZM98.293 172.452C97.213 172.452 96.543 171.702 96.543 170.432V167.012H97.603V170.162C97.603 171.132 97.933 171.562 98.613 171.562C99.383 171.562 99.843 171.042 99.843 170.132V167.012H100.903V172.332H99.913L99.903 171.462C99.623 172.112 99.063 172.452 98.293 172.452ZM102.402 172.332V167.012H103.372L103.402 167.932C103.682 167.212 104.292 166.892 105.012 166.892C106.202 166.892 106.812 167.752 106.812 168.912V172.332H105.752V169.232C105.752 168.292 105.462 167.782 104.722 167.782C103.972 167.782 103.462 168.292 103.462 169.232V172.332H102.402ZM113.122 172.492C111.492 172.492 110.382 171.762 110.382 170.392C110.382 169.462 110.912 168.812 111.782 168.512C111.122 168.262 110.722 167.762 110.722 167.022C110.722 165.892 111.632 165.072 113.122 165.072C114.602 165.072 115.512 165.892 115.512 167.022C115.512 167.772 115.112 168.252 114.452 168.512C115.322 168.802 115.862 169.462 115.862 170.392C115.862 171.762 114.742 172.492 113.122 172.492ZM113.122 171.502C114.102 171.502 114.732 171.102 114.732 170.282C114.732 169.512 114.202 169.002 113.122 169.002C112.032 169.002 111.502 169.512 111.502 170.282C111.502 171.102 112.132 171.502 113.122 171.502ZM113.122 168.112C113.932 168.112 114.402 167.772 114.402 167.072C114.402 166.452 113.952 166.052 113.122 166.052C112.282 166.052 111.832 166.452 111.832 167.072C111.832 167.772 112.302 168.112 113.122 168.112Z" fill="#98A2B3"/>
<path d="M129.613 174.492C128.183 174.492 127.253 173.432 127.243 171.942L128.343 171.882C128.353 172.942 128.813 173.502 129.613 173.502C130.443 173.502 130.913 172.922 130.913 171.832V167.232H131.993V171.832C131.993 173.462 131.063 174.492 129.613 174.492ZM135.207 174.452C134.127 174.452 133.457 173.702 133.457 172.432V169.012H134.517V172.162C134.517 173.132 134.847 173.562 135.527 173.562C136.297 173.562 136.757 173.042 136.757 172.132V169.012H137.817V174.332H136.827L136.817 173.462C136.537 174.112 135.977 174.452 135.207 174.452ZM139.316 174.332V169.012H140.286L140.316 169.932C140.596 169.212 141.206 168.892 141.926 168.892C143.116 168.892 143.726 169.752 143.726 170.912V174.332H142.666V171.232C142.666 170.292 142.376 169.782 141.636 169.782C140.886 169.782 140.376 170.292 140.376 171.232V174.332H139.316ZM129.603 194.492C128.373 194.492 127.603 193.852 127.323 192.882L128.413 192.812C128.563 193.262 128.953 193.512 129.603 193.512C130.633 193.512 131.203 192.822 131.303 191.172C130.933 191.742 130.333 192.052 129.583 192.052C128.193 192.052 127.223 191.072 127.223 189.612C127.223 188.052 128.263 187.072 129.753 187.072C131.583 187.072 132.413 188.352 132.413 190.422C132.413 192.832 131.653 194.492 129.603 194.492ZM129.733 191.122C130.623 191.122 131.243 190.572 131.243 189.612C131.243 188.692 130.693 188.032 129.773 188.032C128.873 188.032 128.323 188.672 128.323 189.602C128.323 190.532 128.893 191.122 129.733 191.122Z" fill="#667185"/>
<path d="M164.707 174.492C163.277 174.492 162.347 173.432 162.337 171.942L163.437 171.882C163.447 172.942 163.907 173.502 164.707 173.502C165.537 173.502 166.007 172.922 166.007 171.832V167.232H167.087V171.832C167.087 173.462 166.157 174.492 164.707 174.492ZM170.301 174.452C169.221 174.452 168.551 173.702 168.551 172.432V169.012H169.611V172.162C169.611 173.132 169.941 173.562 170.621 173.562C171.391 173.562 171.851 173.042 171.851 172.132V169.012H172.911V174.332H171.921L171.911 173.462C171.631 174.112 171.071 174.452 170.301 174.452ZM174.41 174.332V169.012H175.38L175.41 169.932C175.69 169.212 176.3 168.892 177.02 168.892C178.21 168.892 178.82 169.752 178.82 170.912V174.332H177.76V171.232C177.76 170.292 177.47 169.782 176.73 169.782C175.98 169.782 175.47 170.292 175.47 171.232V174.332H174.41ZM163.617 194.332V189.272H162.117V188.402H162.727C163.537 188.402 163.847 188.122 163.847 187.232H164.697V194.332H163.617ZM169.179 194.492C167.409 194.492 166.299 193.072 166.299 190.792C166.299 188.512 167.419 187.072 169.179 187.072C170.959 187.072 172.069 188.502 172.069 190.792C172.069 193.062 170.959 194.492 169.179 194.492ZM169.179 193.502C170.319 193.502 170.949 192.542 170.949 190.792C170.949 189.032 170.319 188.062 169.179 188.062C168.059 188.062 167.419 189.032 167.419 190.792C167.419 192.542 168.059 193.502 169.179 193.502Z" fill="#667185"/>
<path d="M201.621 174.492C200.191 174.492 199.261 173.432 199.251 171.942L200.351 171.882C200.361 172.942 200.821 173.502 201.621 173.502C202.451 173.502 202.921 172.922 202.921 171.832V167.232H204.001V171.832C204.001 173.462 203.071 174.492 201.621 174.492ZM207.215 174.452C206.135 174.452 205.465 173.702 205.465 172.432V169.012H206.525V172.162C206.525 173.132 206.855 173.562 207.535 173.562C208.305 173.562 208.765 173.042 208.765 172.132V169.012H209.825V174.332H208.835L208.825 173.462C208.545 174.112 207.985 174.452 207.215 174.452ZM211.324 174.332V169.012H212.294L212.324 169.932C212.604 169.212 213.214 168.892 213.934 168.892C215.124 168.892 215.734 169.752 215.734 170.912V174.332H214.674V171.232C214.674 170.292 214.384 169.782 213.644 169.782C212.894 169.782 212.384 170.292 212.384 171.232V174.332H211.324ZM200.531 194.332V189.272H199.031V188.402H199.641C200.451 188.402 200.761 188.122 200.761 187.232H201.611V194.332H200.531ZM204.593 194.332V189.272H203.093V188.402H203.703C204.513 188.402 204.823 188.122 204.823 187.232H205.673V194.332H204.593Z" fill="#667185"/>
<path d="M237.98 174.492C236.55 174.492 235.62 173.432 235.61 171.942L236.71 171.882C236.72 172.942 237.18 173.502 237.98 173.502C238.81 173.502 239.28 172.922 239.28 171.832V167.232H240.36V171.832C240.36 173.462 239.43 174.492 237.98 174.492ZM243.574 174.452C242.494 174.452 241.824 173.702 241.824 172.432V169.012H242.884V172.162C242.884 173.132 243.214 173.562 243.894 173.562C244.664 173.562 245.124 173.042 245.124 172.132V169.012H246.184V174.332H245.194L245.184 173.462C244.904 174.112 244.344 174.452 243.574 174.452ZM247.684 174.332V169.012H248.654L248.684 169.932C248.964 169.212 249.574 168.892 250.294 168.892C251.484 168.892 252.094 169.752 252.094 170.912V174.332H251.034V171.232C251.034 170.292 250.744 169.782 250.004 169.782C249.254 169.782 248.744 170.292 248.744 171.232V174.332H247.684ZM236.89 194.332V189.272H235.39V188.402H236C236.81 188.402 237.12 188.122 237.12 187.232H237.97V194.332H236.89ZM239.653 194.332C239.653 192.722 240.273 191.732 242.313 190.652C243.283 190.142 243.653 189.842 243.653 189.182C243.653 188.522 243.223 188.062 242.373 188.062C241.463 188.062 240.943 188.562 240.803 189.472L239.683 189.402C239.833 187.972 240.793 187.072 242.373 187.072C243.883 187.072 244.773 187.922 244.773 189.162C244.773 190.252 244.283 190.772 242.853 191.532C241.623 192.192 241.003 192.862 240.963 193.342H244.773V194.332H239.653Z" fill="#667185"/>
<path d="M274.347 174.492C272.917 174.492 271.987 173.432 271.977 171.942L273.077 171.882C273.087 172.942 273.547 173.502 274.347 173.502C275.177 173.502 275.647 172.922 275.647 171.832V167.232H276.727V171.832C276.727 173.462 275.797 174.492 274.347 174.492ZM279.941 174.452C278.861 174.452 278.191 173.702 278.191 172.432V169.012H279.251V172.162C279.251 173.132 279.581 173.562 280.261 173.562C281.031 173.562 281.491 173.042 281.491 172.132V169.012H282.551V174.332H281.561L281.551 173.462C281.271 174.112 280.711 174.452 279.941 174.452ZM284.051 174.332V169.012H285.021L285.051 169.932C285.331 169.212 285.941 168.892 286.661 168.892C287.851 168.892 288.461 169.752 288.461 170.912V174.332H287.401V171.232C287.401 170.292 287.111 169.782 286.371 169.782C285.621 169.782 285.111 170.292 285.111 171.232V174.332H284.051ZM273.257 194.332V189.272H271.757V188.402H272.367C273.177 188.402 273.487 188.122 273.487 187.232H274.337V194.332H273.257ZM278.52 194.492C276.88 194.492 275.98 193.662 275.92 192.422L277.03 192.362C277.1 193.172 277.69 193.502 278.52 193.502C279.37 193.502 280.09 193.172 280.09 192.312C280.09 191.462 279.46 191.062 278.51 191.062H277.93V190.122H278.51C279.28 190.122 279.84 189.842 279.84 189.092C279.84 188.432 279.42 188.062 278.55 188.062C277.68 188.062 277.27 188.422 277.18 188.992L276.07 188.932C276.2 187.822 277.08 187.072 278.55 187.072C280.07 187.072 280.96 187.822 280.96 189.012C280.96 189.762 280.54 190.282 279.74 190.532C280.66 190.782 281.21 191.452 281.21 192.352C281.21 193.702 280.12 194.492 278.52 194.492Z" fill="#667185"/>
<rect x="239.742" y="25.7227" width="11.9137" height="129.264" fill="#5755FF"/>
<rect x="203.438" y="60.8242" width="11.9137" height="94.1183" fill="#E8E7FE"/>
<rect x="167.133" y="107.297" width="11.9137" height="47.6548" fill="#E8E7FE"/>
<rect x="130.812" y="37.6328" width="11.9137" height="117.35" fill="#5755FF"/>
<rect x="94.4531" y="57.8711" width="11.9137" height="97.0968" fill="#E8E7FE"/>
<rect x="58.0938" y="75.1484" width="11.9137" height="79.8219" fill="#E8E7FE"/>
<rect x="276.094" y="85.8633" width="11.9137" height="69.0995" fill="#E8E7FE"/>
<g filter="url(#filter0_d_2329_175)">
<rect x="105" y="153" width="338" height="180" rx="6" fill="white"/>
<rect x="104.5" y="152.5" width="339" height="181" rx="6.5" stroke="url(#paint1_linear_2329_175)"/>
</g>
<rect x="117" y="269" width="314" height="1" fill="#E4E7EC"/>
<rect x="117" y="300" width="314" height="1" fill="#E4E7EC"/>
<circle cx="122" cy="255" r="5" fill="#5755FF"/>
<circle cx="122" cy="286" r="5" fill="#D9D8FD"/>
<circle cx="122" cy="317" r="5" fill="#E4E7EC"/>
<path d="M138.66 259.16C136.66 259.16 135.49 257.6 135.49 255.46C135.49 253.33 136.68 251.74 138.68 251.74C140.38 251.74 141.26 252.76 141.52 254.08L140.62 254.14C140.44 253.22 139.89 252.58 138.68 252.58C137.06 252.58 136.39 253.92 136.39 255.46C136.39 257.08 137.09 258.32 138.68 258.32C139.94 258.32 140.72 257.36 140.74 256.23H138.7V255.41H141.54V259H140.9L140.86 257.81C140.51 258.61 139.63 259.16 138.66 259.16ZM145.078 259.12C143.578 259.12 142.648 258.03 142.648 256.35C142.648 254.67 143.578 253.58 145.038 253.58C146.418 253.58 147.378 254.58 147.378 256.36V256.61H143.528C143.588 257.75 144.158 258.32 145.078 258.32C145.768 258.32 146.218 257.97 146.398 257.43L147.298 257.5C147.018 258.45 146.198 259.12 145.078 259.12ZM146.458 255.87C146.378 254.85 145.818 254.38 145.038 254.38C144.218 254.38 143.668 254.89 143.528 255.87H146.458ZM148.603 259V253.7H149.373L149.393 254.65C149.673 253.92 150.293 253.58 151.023 253.58C152.233 253.58 152.813 254.47 152.813 255.59V259H151.973V255.83C151.973 254.85 151.643 254.32 150.843 254.32C150.023 254.32 149.443 254.85 149.443 255.83V259H148.603ZM156.367 259.12C154.867 259.12 153.937 258.03 153.937 256.35C153.937 254.67 154.867 253.58 156.327 253.58C157.707 253.58 158.667 254.58 158.667 256.36V256.61H154.817C154.877 257.75 155.447 258.32 156.367 258.32C157.057 258.32 157.507 257.97 157.687 257.43L158.587 257.5C158.307 258.45 157.487 259.12 156.367 259.12ZM157.747 255.87C157.667 254.85 157.107 254.38 156.327 254.38C155.507 254.38 154.957 254.89 154.817 255.87H157.747ZM159.892 259V253.7H160.632L160.662 254.68C160.852 254.01 161.272 253.7 161.922 253.7H162.442V254.5H161.932C161.132 254.5 160.732 254.93 160.732 255.8V259H159.892ZM164.867 259.12C163.767 259.12 163.077 258.59 163.077 257.68C163.077 256.78 163.587 256.28 164.747 256.06L166.627 255.71C166.627 254.82 166.207 254.38 165.367 254.38C164.627 254.38 164.217 254.72 164.057 255.33L163.167 255.26C163.367 254.26 164.167 253.58 165.367 253.58C166.727 253.58 167.467 254.4 167.467 255.74V257.93C167.467 258.17 167.547 258.26 167.747 258.26H167.957V259C167.897 259.01 167.767 259.02 167.637 259.02C166.997 259.02 166.707 258.77 166.637 258.18C166.377 258.73 165.647 259.12 164.867 259.12ZM164.947 258.38C166.007 258.38 166.627 257.7 166.627 256.82V256.44L164.907 256.76C164.187 256.89 163.957 257.16 163.957 257.6C163.957 258.1 164.327 258.38 164.947 258.38ZM170.553 259C169.593 259 169.143 258.58 169.143 257.64V254.44H168.363V253.7H169.143V252.46H169.983V253.7H171.393V254.44H169.983V257.62C169.983 258.1 170.193 258.26 170.633 258.26H171.393V259H170.553ZM174.511 259.12C173.011 259.12 172.081 258.03 172.081 256.35C172.081 254.67 173.011 253.58 174.471 253.58C175.851 253.58 176.811 254.58 176.811 256.36V256.61H172.961C173.021 257.75 173.591 258.32 174.511 258.32C175.201 258.32 175.651 257.97 175.831 257.43L176.731 257.5C176.451 258.45 175.631 259.12 174.511 259.12ZM175.891 255.87C175.811 254.85 175.251 254.38 174.471 254.38C173.651 254.38 173.101 254.89 172.961 255.87H175.891ZM179.946 259.12C178.566 259.12 177.706 258.05 177.706 256.35C177.706 254.65 178.566 253.58 179.946 253.58C180.656 253.58 181.286 253.9 181.576 254.44V251.9H182.416V259H181.656L181.626 258.2C181.326 258.78 180.686 259.12 179.946 259.12ZM180.116 258.32C181.056 258.32 181.576 257.56 181.576 256.35C181.576 255.12 181.056 254.38 180.116 254.38C179.186 254.38 178.586 255.12 178.586 256.35C178.586 257.56 179.186 258.32 180.116 258.32ZM186.513 259V253.7H187.283L187.303 254.65C187.583 253.92 188.203 253.58 188.933 253.58C190.143 253.58 190.723 254.47 190.723 255.59V259H189.883V255.83C189.883 254.85 189.553 254.32 188.753 254.32C187.933 254.32 187.353 254.85 187.353 255.83V259H186.513ZM194.277 259.12C192.777 259.12 191.847 258.03 191.847 256.35C191.847 254.67 192.777 253.58 194.237 253.58C195.617 253.58 196.577 254.58 196.577 256.36V256.61H192.727C192.787 257.75 193.357 258.32 194.277 258.32C194.967 258.32 195.417 257.97 195.597 257.43L196.497 257.5C196.217 258.45 195.397 259.12 194.277 259.12ZM195.657 255.87C195.577 254.85 195.017 254.38 194.237 254.38C193.417 254.38 192.867 254.89 192.727 255.87H195.657ZM198.657 259L197.017 253.7H197.937L199.177 258.12L200.437 253.7H201.337L202.597 258.12L203.847 253.7H204.767L203.127 259H202.067L200.887 254.97L199.707 259H198.657ZM210.89 259.16C209.25 259.16 208.2 258.17 208.08 256.73L208.98 256.67C209.12 257.73 209.77 258.32 210.91 258.32C211.9 258.32 212.48 257.93 212.48 257.2C212.48 256.54 212.15 256.14 210.45 255.72C208.81 255.31 208.23 254.82 208.23 253.76C208.23 252.57 209.13 251.74 210.59 251.74C212.15 251.74 213.07 252.7 213.23 254L212.33 254.06C212.21 253.2 211.63 252.58 210.57 252.58C209.69 252.58 209.13 253.04 209.13 253.72C209.13 254.39 209.49 254.63 210.99 255C212.77 255.44 213.38 256.12 213.38 257.14C213.38 258.38 212.34 259.16 210.89 259.16ZM216.515 259.12C215.455 259.12 214.775 258.37 214.775 257.11V253.7H215.615V256.88C215.615 257.91 215.975 258.38 216.735 258.38C217.575 258.38 218.085 257.81 218.085 256.86V253.7H218.925V259H218.125V258.14C217.835 258.77 217.275 259.12 216.515 259.12ZM220.527 260.5V253.7H221.307L221.317 254.51C221.637 253.9 222.227 253.58 222.947 253.58C224.527 253.58 225.237 254.89 225.237 256.35C225.237 257.81 224.527 259.12 222.947 259.12C222.257 259.12 221.647 258.81 221.367 258.3V260.5H220.527ZM222.867 258.32C223.787 258.32 224.357 257.59 224.357 256.35C224.357 255.11 223.787 254.38 222.867 254.38C221.947 254.38 221.367 255.05 221.367 256.35C221.367 257.65 221.937 258.32 222.867 258.32ZM226.454 260.5V253.7H227.234L227.244 254.51C227.564 253.9 228.154 253.58 228.874 253.58C230.454 253.58 231.164 254.89 231.164 256.35C231.164 257.81 230.454 259.12 228.874 259.12C228.184 259.12 227.574 258.81 227.294 258.3V260.5H226.454ZM228.794 258.32C229.714 258.32 230.284 257.59 230.284 256.35C230.284 255.11 229.714 254.38 228.794 254.38C227.874 254.38 227.294 255.05 227.294 256.35C227.294 257.65 227.864 258.32 228.794 258.32ZM234.482 259.12C233.012 259.12 232.052 258.04 232.052 256.35C232.052 254.66 233.012 253.58 234.482 253.58C235.942 253.58 236.902 254.66 236.902 256.35C236.902 258.04 235.942 259.12 234.482 259.12ZM234.482 258.32C235.452 258.32 236.022 257.58 236.022 256.35C236.022 255.12 235.452 254.38 234.482 254.38C233.502 254.38 232.932 255.12 232.932 256.35C232.932 257.58 233.502 258.32 234.482 258.32ZM238.124 259V253.7H238.864L238.894 254.68C239.084 254.01 239.504 253.7 240.154 253.7H240.674V254.5H240.164C239.364 254.5 238.964 254.93 238.964 255.8V259H238.124ZM243.736 259C242.776 259 242.326 258.58 242.326 257.64V254.44H241.546V253.7H242.326V252.46H243.166V253.7H244.576V254.44H243.166V257.62C243.166 258.1 243.376 258.26 243.816 258.26H244.576V259H243.736ZM248.361 259V251.9H251.051C252.541 251.9 253.471 252.73 253.471 254.05C253.471 254.87 252.901 255.49 252.271 255.68C252.901 255.79 253.271 256.17 253.341 256.91L253.541 259H252.671L252.491 257C252.441 256.41 252.101 256.14 251.281 256.14H249.221V259H248.361ZM251.161 255.3C252.021 255.3 252.571 254.85 252.571 254.03C252.571 253.21 252.031 252.74 251.051 252.74H249.221V255.3H251.161ZM256.914 259.12C255.414 259.12 254.484 258.03 254.484 256.35C254.484 254.67 255.414 253.58 256.874 253.58C258.254 253.58 259.214 254.58 259.214 256.36V256.61H255.364C255.424 257.75 255.994 258.32 256.914 258.32C257.604 258.32 258.054 257.97 258.234 257.43L259.134 257.5C258.854 258.45 258.034 259.12 256.914 259.12ZM258.294 255.87C258.214 254.85 257.654 254.38 256.874 254.38C256.054 254.38 255.504 254.89 255.364 255.87H258.294ZM264.819 260.5H263.979V258.3C263.699 258.81 263.089 259.12 262.399 259.12C260.819 259.12 260.109 257.81 260.109 256.35C260.109 254.89 260.819 253.58 262.399 253.58C263.119 253.58 263.709 253.9 264.029 254.51L264.039 253.7H264.819V260.5ZM262.479 258.32C263.409 258.32 263.979 257.65 263.979 256.35C263.979 255.05 263.399 254.38 262.479 254.38C261.559 254.38 260.989 255.11 260.989 256.35C260.989 257.59 261.559 258.32 262.479 258.32ZM268.155 259.12C267.095 259.12 266.415 258.37 266.415 257.11V253.7H267.255V256.88C267.255 257.91 267.615 258.38 268.375 258.38C269.215 258.38 269.725 257.81 269.725 256.86V253.7H270.565V259H269.765V258.14C269.475 258.77 268.915 259.12 268.155 259.12ZM274.121 259.12C272.621 259.12 271.691 258.03 271.691 256.35C271.691 254.67 272.621 253.58 274.081 253.58C275.461 253.58 276.421 254.58 276.421 256.36V256.61H272.571C272.631 257.75 273.201 258.32 274.121 258.32C274.811 258.32 275.261 257.97 275.441 257.43L276.341 257.5C276.061 258.45 275.241 259.12 274.121 259.12ZM275.501 255.87C275.421 254.85 274.861 254.38 274.081 254.38C273.261 254.38 272.711 254.89 272.571 255.87H275.501ZM279.606 259.12C278.186 259.12 277.396 258.37 277.316 257.33L278.196 257.27C278.296 257.91 278.706 258.32 279.606 258.32C280.326 258.32 280.796 258.1 280.796 257.58C280.796 257.16 280.586 256.98 279.446 256.78C277.926 256.51 277.446 256.04 277.446 255.2C277.446 254.26 278.166 253.58 279.446 253.58C280.736 253.58 281.416 254.36 281.576 255.28L280.696 255.34C280.576 254.78 280.156 254.38 279.436 254.38C278.676 254.38 278.326 254.71 278.326 255.16C278.326 255.68 278.666 255.88 279.606 256.04C281.226 256.32 281.676 256.74 281.676 257.58C281.676 258.56 280.776 259.12 279.606 259.12ZM284.586 259C283.626 259 283.176 258.58 283.176 257.64V254.44H282.396V253.7H283.176V252.46H284.016V253.7H285.426V254.44H284.016V257.62C284.016 258.1 284.226 258.26 284.666 258.26H285.426V259H284.586Z" fill="#475367"/>
<path d="M135.92 290V282.9H138.61C140.1 282.9 141.03 283.73 141.03 285.05C141.03 285.87 140.46 286.49 139.83 286.68C140.46 286.79 140.83 287.17 140.9 287.91L141.1 290H140.23L140.05 288C140 287.41 139.66 287.14 138.84 287.14H136.78V290H135.92ZM138.72 286.3C139.58 286.3 140.13 285.85 140.13 285.03C140.13 284.21 139.59 283.74 138.61 283.74H136.78V286.3H138.72ZM144.472 290.12C142.972 290.12 142.042 289.03 142.042 287.35C142.042 285.67 142.972 284.58 144.432 284.58C145.812 284.58 146.772 285.58 146.772 287.36V287.61H142.922C142.982 288.75 143.552 289.32 144.472 289.32C145.162 289.32 145.612 288.97 145.792 288.43L146.692 288.5C146.412 289.45 145.592 290.12 144.472 290.12ZM145.852 286.87C145.772 285.85 145.212 285.38 144.432 285.38C143.612 285.38 143.062 285.89 142.922 286.87H145.852ZM152.377 291.5H151.537V289.3C151.257 289.81 150.647 290.12 149.957 290.12C148.377 290.12 147.667 288.81 147.667 287.35C147.667 285.89 148.377 284.58 149.957 284.58C150.677 284.58 151.267 284.9 151.587 285.51L151.597 284.7H152.377V291.5ZM150.037 289.32C150.967 289.32 151.537 288.65 151.537 287.35C151.537 286.05 150.957 285.38 150.037 285.38C149.117 285.38 148.547 286.11 148.547 287.35C148.547 288.59 149.117 289.32 150.037 289.32ZM155.714 290.12C154.654 290.12 153.974 289.37 153.974 288.11V284.7H154.814V287.88C154.814 288.91 155.174 289.38 155.934 289.38C156.774 289.38 157.284 288.81 157.284 287.86V284.7H158.124V290H157.324V289.14C157.034 289.77 156.474 290.12 155.714 290.12ZM161.679 290.12C160.179 290.12 159.249 289.03 159.249 287.35C159.249 285.67 160.179 284.58 161.639 284.58C163.019 284.58 163.979 285.58 163.979 287.36V287.61H160.129C160.189 288.75 160.759 289.32 161.679 289.32C162.369 289.32 162.819 288.97 162.999 288.43L163.899 288.5C163.619 289.45 162.799 290.12 161.679 290.12ZM163.059 286.87C162.979 285.85 162.419 285.38 161.639 285.38C160.819 285.38 160.269 285.89 160.129 286.87H163.059ZM167.164 290.12C165.744 290.12 164.954 289.37 164.874 288.33L165.754 288.27C165.854 288.91 166.264 289.32 167.164 289.32C167.884 289.32 168.354 289.1 168.354 288.58C168.354 288.16 168.144 287.98 167.004 287.78C165.484 287.51 165.004 287.04 165.004 286.2C165.004 285.26 165.724 284.58 167.004 284.58C168.294 284.58 168.974 285.36 169.134 286.28L168.254 286.34C168.134 285.78 167.714 285.38 166.994 285.38C166.234 285.38 165.884 285.71 165.884 286.16C165.884 286.68 166.224 286.88 167.164 287.04C168.784 287.32 169.234 287.74 169.234 288.58C169.234 289.56 168.334 290.12 167.164 290.12ZM172.144 290C171.184 290 170.734 289.58 170.734 288.64V285.44H169.954V284.7H170.734V283.46H171.574V284.7H172.984V285.44H171.574V288.62C171.574 289.1 171.784 289.26 172.224 289.26H172.984V290H172.144ZM176.103 290.12C174.603 290.12 173.673 289.03 173.673 287.35C173.673 285.67 174.603 284.58 176.063 284.58C177.443 284.58 178.403 285.58 178.403 287.36V287.61H174.553C174.613 288.75 175.183 289.32 176.103 289.32C176.793 289.32 177.243 288.97 177.423 288.43L178.323 288.5C178.043 289.45 177.223 290.12 176.103 290.12ZM177.483 286.87C177.403 285.85 176.843 285.38 176.063 285.38C175.243 285.38 174.693 285.89 174.553 286.87H177.483ZM181.538 290.12C180.158 290.12 179.298 289.05 179.298 287.35C179.298 285.65 180.158 284.58 181.538 284.58C182.248 284.58 182.878 284.9 183.168 285.44V282.9H184.008V290H183.248L183.218 289.2C182.918 289.78 182.278 290.12 181.538 290.12ZM181.708 289.32C182.648 289.32 183.168 288.56 183.168 287.35C183.168 286.12 182.648 285.38 181.708 285.38C180.778 285.38 180.178 286.12 180.178 287.35C180.178 288.56 180.778 289.32 181.708 289.32ZM188.105 290V282.9H188.945V285.53C189.215 284.88 189.815 284.58 190.545 284.58C191.685 284.58 192.315 285.41 192.315 286.59V290H191.475V286.83C191.475 285.81 191.105 285.32 190.365 285.32C189.505 285.32 188.945 285.86 188.945 286.84V290H188.105ZM195.509 290.12C194.449 290.12 193.769 289.37 193.769 288.11V284.7H194.609V287.88C194.609 288.91 194.969 289.38 195.729 289.38C196.569 289.38 197.079 288.81 197.079 287.86V284.7H197.919V290H197.119V289.14C196.829 289.77 196.269 290.12 195.509 290.12ZM199.521 290V284.7H200.291L200.311 285.63C200.571 284.98 201.121 284.58 201.801 284.58C202.601 284.58 203.161 284.98 203.391 285.69C203.621 284.98 204.161 284.58 204.941 284.58C206.071 284.58 206.691 285.31 206.691 286.59V290H205.851V286.77C205.851 285.81 205.471 285.32 204.741 285.32C204.001 285.32 203.521 285.88 203.521 286.83V290H202.681V286.83C202.681 285.89 202.371 285.32 201.591 285.32C200.851 285.32 200.361 285.89 200.361 286.83V290H199.521ZM209.653 290.12C208.553 290.12 207.863 289.59 207.863 288.68C207.863 287.78 208.373 287.28 209.533 287.06L211.413 286.71C211.413 285.82 210.993 285.38 210.153 285.38C209.413 285.38 209.003 285.72 208.843 286.33L207.953 286.26C208.153 285.26 208.953 284.58 210.153 284.58C211.513 284.58 212.253 285.4 212.253 286.74V288.93C212.253 289.17 212.333 289.26 212.533 289.26H212.743V290C212.683 290.01 212.553 290.02 212.423 290.02C211.783 290.02 211.493 289.77 211.423 289.18C211.163 289.73 210.433 290.12 209.653 290.12ZM209.733 289.38C210.793 289.38 211.413 288.7 211.413 287.82V287.44L209.693 287.76C208.973 287.89 208.743 288.16 208.743 288.6C208.743 289.1 209.113 289.38 209.733 289.38ZM213.847 290V284.7H214.617L214.637 285.65C214.917 284.92 215.537 284.58 216.267 284.58C217.477 284.58 218.057 285.47 218.057 286.59V290H217.217V286.83C217.217 285.85 216.887 285.32 216.087 285.32C215.267 285.32 214.687 285.85 214.687 286.83V290H213.847ZM224.117 290.12C222.697 290.12 221.907 289.37 221.827 288.33L222.707 288.27C222.807 288.91 223.217 289.32 224.117 289.32C224.837 289.32 225.307 289.1 225.307 288.58C225.307 288.16 225.097 287.98 223.957 287.78C222.437 287.51 221.957 287.04 221.957 286.2C221.957 285.26 222.677 284.58 223.957 284.58C225.247 284.58 225.927 285.36 226.087 286.28L225.207 286.34C225.087 285.78 224.667 285.38 223.947 285.38C223.187 285.38 222.837 285.71 222.837 286.16C222.837 286.68 223.177 286.88 224.117 287.04C225.737 287.32 226.187 287.74 226.187 288.58C226.187 289.56 225.287 290.12 224.117 290.12ZM229.103 290.12C228.043 290.12 227.363 289.37 227.363 288.11V284.7H228.203V287.88C228.203 288.91 228.563 289.38 229.323 289.38C230.163 289.38 230.673 288.81 230.673 287.86V284.7H231.513V290H230.713V289.14C230.423 289.77 229.863 290.12 229.103 290.12ZM233.114 291.5V284.7H233.894L233.904 285.51C234.224 284.9 234.814 284.58 235.534 284.58C237.114 284.58 237.824 285.89 237.824 287.35C237.824 288.81 237.114 290.12 235.534 290.12C234.844 290.12 234.234 289.81 233.954 289.3V291.5H233.114ZM235.454 289.32C236.374 289.32 236.944 288.59 236.944 287.35C236.944 286.11 236.374 285.38 235.454 285.38C234.534 285.38 233.954 286.05 233.954 287.35C233.954 288.65 234.524 289.32 235.454 289.32ZM239.042 291.5V284.7H239.822L239.832 285.51C240.152 284.9 240.742 284.58 241.462 284.58C243.042 284.58 243.752 285.89 243.752 287.35C243.752 288.81 243.042 290.12 241.462 290.12C240.772 290.12 240.162 289.81 239.882 289.3V291.5H239.042ZM241.382 289.32C242.302 289.32 242.872 288.59 242.872 287.35C242.872 286.11 242.302 285.38 241.382 285.38C240.462 285.38 239.882 286.05 239.882 287.35C239.882 288.65 240.452 289.32 241.382 289.32ZM247.07 290.12C245.6 290.12 244.64 289.04 244.64 287.35C244.64 285.66 245.6 284.58 247.07 284.58C248.53 284.58 249.49 285.66 249.49 287.35C249.49 289.04 248.53 290.12 247.07 290.12ZM247.07 289.32C248.04 289.32 248.61 288.58 248.61 287.35C248.61 286.12 248.04 285.38 247.07 285.38C246.09 285.38 245.52 286.12 245.52 287.35C245.52 288.58 246.09 289.32 247.07 289.32ZM250.712 290V284.7H251.452L251.482 285.68C251.672 285.01 252.092 284.7 252.742 284.7H253.262V285.5H252.752C251.952 285.5 251.552 285.93 251.552 286.8V290H250.712ZM256.324 290C255.364 290 254.914 289.58 254.914 288.64V285.44H254.134V284.7H254.914V283.46H255.754V284.7H257.164V285.44H255.754V288.62C255.754 289.1 255.964 289.26 256.404 289.26H257.164V290H256.324Z" fill="#475367"/>
<path d="M135.92 321V313.9H137.14L140.65 320.14V313.9H141.51V321H140.23L136.78 314.88V321H135.92ZM145.332 321.12C143.862 321.12 142.902 320.04 142.902 318.35C142.902 316.66 143.862 315.58 145.332 315.58C146.792 315.58 147.752 316.66 147.752 318.35C147.752 320.04 146.792 321.12 145.332 321.12ZM145.332 320.32C146.302 320.32 146.872 319.58 146.872 318.35C146.872 317.12 146.302 316.38 145.332 316.38C144.352 316.38 143.782 317.12 143.782 318.35C143.782 319.58 144.352 320.32 145.332 320.32ZM151.523 321V315.7H152.363V321H151.523ZM151.503 314.87V313.89H152.383V314.87H151.503ZM153.818 321V315.7H154.588L154.608 316.65C154.888 315.92 155.508 315.58 156.238 315.58C157.448 315.58 158.028 316.47 158.028 317.59V321H157.188V317.83C157.188 316.85 156.858 316.32 156.058 316.32C155.238 316.32 154.658 316.85 154.658 317.83V321H153.818ZM161.265 321C160.305 321 159.855 320.58 159.855 319.64V316.44H159.075V315.7H159.855V314.46H160.695V315.7H162.105V316.44H160.695V319.62C160.695 320.1 160.905 320.26 161.345 320.26H162.105V321H161.265ZM165.224 321.12C163.724 321.12 162.794 320.03 162.794 318.35C162.794 316.67 163.724 315.58 165.184 315.58C166.564 315.58 167.524 316.58 167.524 318.36V318.61H163.674C163.734 319.75 164.304 320.32 165.224 320.32C165.914 320.32 166.364 319.97 166.544 319.43L167.444 319.5C167.164 320.45 166.344 321.12 165.224 321.12ZM166.604 317.87C166.524 316.85 165.964 316.38 165.184 316.38C164.364 316.38 163.814 316.89 163.674 317.87H166.604ZM168.749 321V315.7H169.489L169.519 316.68C169.709 316.01 170.129 315.7 170.779 315.7H171.299V316.5H170.789C169.989 316.5 169.589 316.93 169.589 317.8V321H168.749ZM173.725 321.12C172.625 321.12 171.935 320.59 171.935 319.68C171.935 318.78 172.445 318.28 173.605 318.06L175.485 317.71C175.485 316.82 175.065 316.38 174.225 316.38C173.485 316.38 173.075 316.72 172.915 317.33L172.025 317.26C172.225 316.26 173.025 315.58 174.225 315.58C175.585 315.58 176.325 316.4 176.325 317.74V319.93C176.325 320.17 176.405 320.26 176.605 320.26H176.815V321C176.755 321.01 176.625 321.02 176.495 321.02C175.855 321.02 175.565 320.77 175.495 320.18C175.235 320.73 174.505 321.12 173.725 321.12ZM173.805 320.38C174.865 320.38 175.485 319.7 175.485 318.82V318.44L173.765 318.76C173.045 318.89 172.815 319.16 172.815 319.6C172.815 320.1 173.185 320.38 173.805 320.38ZM179.97 321.12C178.49 321.12 177.54 320.03 177.54 318.35C177.54 316.67 178.49 315.58 179.97 315.58C181.19 315.58 182.04 316.24 182.22 317.42L181.34 317.48C181.22 316.78 180.69 316.38 179.97 316.38C178.99 316.38 178.42 317.12 178.42 318.35C178.42 319.58 178.99 320.32 179.97 320.32C180.69 320.32 181.22 319.92 181.34 319.12L182.22 319.18C182.04 320.36 181.19 321.12 179.97 321.12ZM185.025 321C184.065 321 183.615 320.58 183.615 319.64V316.44H182.835V315.7H183.615V314.46H184.455V315.7H185.865V316.44H184.455V319.62C184.455 320.1 184.665 320.26 185.105 320.26H185.865V321H185.025ZM187.03 321V315.7H187.87V321H187.03ZM187.01 314.87V313.89H187.89V314.87H187.01ZM191.572 321.12C190.102 321.12 189.142 320.04 189.142 318.35C189.142 316.66 190.102 315.58 191.572 315.58C193.032 315.58 193.992 316.66 193.992 318.35C193.992 320.04 193.032 321.12 191.572 321.12ZM191.572 320.32C192.542 320.32 193.112 319.58 193.112 318.35C193.112 317.12 192.542 316.38 191.572 316.38C190.592 316.38 190.022 317.12 190.022 318.35C190.022 319.58 190.592 320.32 191.572 320.32ZM195.214 321V315.7H195.984L196.004 316.65C196.284 315.92 196.904 315.58 197.634 315.58C198.844 315.58 199.424 316.47 199.424 317.59V321H198.584V317.83C198.584 316.85 198.254 316.32 197.454 316.32C196.634 316.32 196.054 316.85 196.054 317.83V321H195.214Z" fill="#475367"/>
<path d="M373.499 259.16C371.819 259.16 370.899 258 370.899 255.96C370.899 253.61 371.679 251.74 373.759 251.74C375.059 251.74 375.769 252.43 376.049 253.48L374.979 253.57C374.819 253.05 374.489 252.72 373.759 252.72C372.759 252.72 372.129 253.5 371.989 255.09C372.319 254.61 372.919 254.26 373.709 254.26C375.129 254.26 376.079 255.21 376.079 256.65C376.079 258.22 375.019 259.16 373.499 259.16ZM373.509 258.2C374.369 258.2 374.969 257.62 374.969 256.65C374.969 255.75 374.399 255.17 373.579 255.17C372.689 255.17 372.029 255.75 372.029 256.65C372.029 257.56 372.609 258.2 373.509 258.2ZM379.856 259.16C378.176 259.16 377.256 258 377.256 255.96C377.256 253.61 378.036 251.74 380.116 251.74C381.416 251.74 382.126 252.43 382.406 253.48L381.336 253.57C381.176 253.05 380.846 252.72 380.116 252.72C379.116 252.72 378.486 253.5 378.346 255.09C378.676 254.61 379.276 254.26 380.066 254.26C381.486 254.26 382.436 255.21 382.436 256.65C382.436 258.22 381.376 259.16 379.856 259.16ZM379.866 258.2C380.726 258.2 381.326 257.62 381.326 256.65C381.326 255.75 380.756 255.17 379.936 255.17C379.046 255.17 378.386 255.75 378.386 256.65C378.386 257.56 378.966 258.2 379.866 258.2ZM383.463 259V257.74H384.763V259H383.463ZM387.121 259C387.121 256.8 388.041 254.63 389.551 252.89H385.591V251.9H390.691V252.82C389.001 254.74 388.221 256.56 388.221 259H387.121ZM391.9 259.12L397.08 251.74H398.22L393.04 259.12H391.9ZM393.02 255.34C392.19 255.34 391.52 254.59 391.52 253.62C391.52 252.64 392.19 251.89 393.02 251.89C393.85 251.89 394.52 252.64 394.52 253.62C394.52 254.59 393.85 255.34 393.02 255.34ZM393.02 254.57C393.42 254.57 393.67 254.2 393.67 253.62C393.67 253.04 393.42 252.66 393.02 252.66C392.62 252.66 392.37 253.04 392.37 253.62C392.37 254.2 392.62 254.57 393.02 254.57ZM397.06 259C396.23 259 395.56 258.25 395.56 257.27C395.56 256.3 396.23 255.55 397.06 255.55C397.89 255.55 398.56 256.3 398.56 257.27C398.56 258.25 397.89 259 397.06 259ZM397.06 258.23C397.46 258.23 397.71 257.85 397.71 257.27C397.71 256.69 397.46 256.32 397.06 256.32C396.66 256.32 396.41 256.69 396.41 257.27C396.41 257.85 396.66 258.23 397.06 258.23Z" fill="#475367"/>
<path d="M387.121 290C387.121 287.8 388.041 285.63 389.551 283.89H385.591V282.9H390.691V283.82C389.001 285.74 388.221 287.56 388.221 290H387.121ZM391.9 290.12L397.08 282.74H398.22L393.04 290.12H391.9ZM393.02 286.34C392.19 286.34 391.52 285.59 391.52 284.62C391.52 283.64 392.19 282.89 393.02 282.89C393.85 282.89 394.52 283.64 394.52 284.62C394.52 285.59 393.85 286.34 393.02 286.34ZM393.02 285.57C393.42 285.57 393.67 285.2 393.67 284.62C393.67 284.04 393.42 283.66 393.02 283.66C392.62 283.66 392.37 284.04 392.37 284.62C392.37 285.2 392.62 285.57 393.02 285.57ZM397.06 290C396.23 290 395.56 289.25 395.56 288.27C395.56 287.3 396.23 286.55 397.06 286.55C397.89 286.55 398.56 287.3 398.56 288.27C398.56 289.25 397.89 290 397.06 290ZM397.06 289.23C397.46 289.23 397.71 288.85 397.71 288.27C397.71 287.69 397.46 287.32 397.06 287.32C396.66 287.32 396.41 287.69 396.41 288.27C396.41 288.85 396.66 289.23 397.06 289.23Z" fill="#475367"/>
<path d="M370.537 321C370.537 319.39 371.157 318.4 373.197 317.32C374.167 316.81 374.537 316.51 374.537 315.85C374.537 315.19 374.107 314.73 373.257 314.73C372.347 314.73 371.827 315.23 371.687 316.14L370.567 316.07C370.717 314.64 371.677 313.74 373.257 313.74C374.767 313.74 375.657 314.59 375.657 315.83C375.657 316.92 375.167 317.44 373.737 318.2C372.507 318.86 371.887 319.53 371.847 320.01H375.657V321H370.537ZM379.376 321.16C377.746 321.16 376.636 320.43 376.636 319.06C376.636 318.13 377.166 317.48 378.036 317.18C377.376 316.93 376.976 316.43 376.976 315.69C376.976 314.56 377.886 313.74 379.376 313.74C380.856 313.74 381.766 314.56 381.766 315.69C381.766 316.44 381.366 316.92 380.706 317.18C381.576 317.47 382.116 318.13 382.116 319.06C382.116 320.43 380.996 321.16 379.376 321.16ZM379.376 320.17C380.356 320.17 380.986 319.77 380.986 318.95C380.986 318.18 380.456 317.67 379.376 317.67C378.286 317.67 377.756 318.18 377.756 318.95C377.756 319.77 378.386 320.17 379.376 320.17ZM379.376 316.78C380.186 316.78 380.656 316.44 380.656 315.74C380.656 315.12 380.206 314.72 379.376 314.72C378.536 314.72 378.086 315.12 378.086 315.74C378.086 316.44 378.556 316.78 379.376 316.78ZM382.936 321V319.74H384.236V321H382.936ZM387.864 321.16C386.284 321.16 385.364 320.34 385.264 319.13L386.374 319.06C386.474 319.8 387.034 320.17 387.864 320.17C388.794 320.17 389.374 319.62 389.374 318.69C389.374 317.78 388.804 317.19 387.854 317.19C387.214 317.19 386.694 317.48 386.484 317.94H385.364L385.844 313.9H390.004V314.89H386.804L386.564 316.86C386.924 316.48 387.474 316.27 388.104 316.27C389.534 316.27 390.494 317.29 390.494 318.69C390.494 320.16 389.424 321.16 387.864 321.16ZM391.9 321.12L397.08 313.74H398.22L393.04 321.12H391.9ZM393.02 317.34C392.19 317.34 391.52 316.59 391.52 315.62C391.52 314.64 392.19 313.89 393.02 313.89C393.85 313.89 394.52 314.64 394.52 315.62C394.52 316.59 393.85 317.34 393.02 317.34ZM393.02 316.57C393.42 316.57 393.67 316.2 393.67 315.62C393.67 315.04 393.42 314.66 393.02 314.66C392.62 314.66 392.37 315.04 392.37 315.62C392.37 316.2 392.62 316.57 393.02 316.57ZM397.06 321C396.23 321 395.56 320.25 395.56 319.27C395.56 318.3 396.23 317.55 397.06 317.55C397.89 317.55 398.56 318.3 398.56 319.27C398.56 320.25 397.89 321 397.06 321ZM397.06 320.23C397.46 320.23 397.71 319.85 397.71 319.27C397.71 318.69 397.46 318.32 397.06 318.32C396.66 318.32 396.41 318.69 396.41 319.27C396.41 319.85 396.66 320.23 397.06 320.23Z" fill="#475367"/>
<path d="M408.88 260.1C407.03 257.34 407.03 254.26 408.88 251.5H409.63C407.94 254.37 407.94 257.23 409.63 260.1H408.88ZM411.78 259V253.74H410.3V253H410.9C411.68 253 411.96 252.74 411.96 251.9H412.64V259H411.78ZM416.618 259.16C415.438 259.16 414.688 258.51 414.428 257.63L415.338 257.56C415.498 258.04 415.918 258.32 416.618 258.32C417.698 258.32 418.338 257.56 418.448 255.8C418.068 256.4 417.448 256.74 416.698 256.74C415.318 256.74 414.338 255.74 414.338 254.26C414.338 252.71 415.378 251.74 416.808 251.74C418.588 251.74 419.368 253.04 419.368 255.03C419.368 257.41 418.688 259.16 416.618 259.16ZM416.758 255.89C417.728 255.89 418.418 255.3 418.418 254.28C418.418 253.3 417.808 252.58 416.808 252.58C415.828 252.58 415.238 253.28 415.238 254.26C415.238 255.26 415.858 255.89 416.758 255.89ZM422.999 259.16C421.469 259.16 420.379 258.43 420.379 257.05C420.379 256.13 420.909 255.48 421.749 255.18C421.119 254.92 420.719 254.45 420.719 253.69C420.719 252.57 421.619 251.74 422.999 251.74C424.379 251.74 425.279 252.57 425.279 253.69C425.279 254.45 424.879 254.92 424.249 255.18C425.089 255.48 425.619 256.13 425.619 257.05C425.619 258.43 424.529 259.16 422.999 259.16ZM422.999 258.32C424.049 258.32 424.719 257.9 424.719 257C424.719 256.17 424.179 255.63 422.999 255.63C421.819 255.63 421.279 256.17 421.279 257C421.279 257.9 421.949 258.32 422.999 258.32ZM422.999 254.83C423.879 254.83 424.379 254.45 424.379 253.69C424.379 253.01 423.899 252.58 422.999 252.58C422.099 252.58 421.619 253.01 421.619 253.69C421.619 254.45 422.119 254.83 422.999 254.83ZM426.206 260.1C427.896 257.23 427.896 254.37 426.206 251.5H426.956C428.806 254.26 428.806 257.34 426.956 260.1H426.206Z" fill="#667185"/>
<path d="M408.88 291.1C407.03 288.34 407.03 285.26 408.88 282.5H409.63C407.94 285.37 407.94 288.23 409.63 291.1H408.88ZM411.78 290V284.74H410.3V284H410.9C411.68 284 411.96 283.74 411.96 282.9H412.64V290H411.78ZM416.758 290.16C415.228 290.16 414.138 289.43 414.138 288.05C414.138 287.13 414.668 286.48 415.508 286.18C414.878 285.92 414.478 285.45 414.478 284.69C414.478 283.57 415.378 282.74 416.758 282.74C418.138 282.74 419.038 283.57 419.038 284.69C419.038 285.45 418.638 285.92 418.008 286.18C418.848 286.48 419.378 287.13 419.378 288.05C419.378 289.43 418.288 290.16 416.758 290.16ZM416.758 289.32C417.808 289.32 418.478 288.9 418.478 288C418.478 287.17 417.938 286.63 416.758 286.63C415.578 286.63 415.038 287.17 415.038 288C415.038 288.9 415.708 289.32 416.758 289.32ZM416.758 285.83C417.638 285.83 418.138 285.45 418.138 284.69C418.138 284.01 417.658 283.58 416.758 283.58C415.858 283.58 415.378 284.01 415.378 284.69C415.378 285.45 415.878 285.83 416.758 285.83ZM419.965 291.1C421.655 288.23 421.655 285.37 419.965 282.5H420.715C422.565 285.26 422.565 288.34 420.715 291.1H419.965Z" fill="#667185"/>
<path d="M408.88 322.1C407.03 319.34 407.03 316.26 408.88 313.5H409.63C407.94 316.37 407.94 319.23 409.63 322.1H408.88ZM412.842 321.16C411.312 321.16 410.222 320.43 410.222 319.05C410.222 318.13 410.752 317.48 411.592 317.18C410.962 316.92 410.562 316.45 410.562 315.69C410.562 314.57 411.462 313.74 412.842 313.74C414.222 313.74 415.122 314.57 415.122 315.69C415.122 316.45 414.722 316.92 414.092 317.18C414.932 317.48 415.462 318.13 415.462 319.05C415.462 320.43 414.372 321.16 412.842 321.16ZM412.842 320.32C413.892 320.32 414.562 319.9 414.562 319C414.562 318.17 414.022 317.63 412.842 317.63C411.662 317.63 411.122 318.17 411.122 319C411.122 319.9 411.792 320.32 412.842 320.32ZM412.842 316.83C413.722 316.83 414.222 316.45 414.222 315.69C414.222 315.01 413.742 314.58 412.842 314.58C411.942 314.58 411.462 315.01 411.462 315.69C411.462 316.45 411.962 316.83 412.842 316.83ZM418.867 321.16C417.287 321.16 416.417 320.34 416.357 319.17L417.247 319.11C417.327 319.98 417.977 320.32 418.867 320.32C419.787 320.32 420.587 319.98 420.587 319.02C420.587 318.08 419.897 317.65 418.877 317.65H418.317V316.81H418.877C419.717 316.81 420.337 316.51 420.337 315.7C420.337 314.97 419.857 314.58 418.917 314.58C417.977 314.58 417.527 314.96 417.437 315.59L416.537 315.53C416.667 314.47 417.497 313.74 418.917 313.74C420.357 313.74 421.237 314.48 421.237 315.66C421.237 316.42 420.817 316.93 420.007 317.18C420.927 317.43 421.487 318.11 421.487 319.02C421.487 320.38 420.407 321.16 418.867 321.16ZM422.211 322.1C423.901 319.23 423.901 316.37 422.211 313.5H422.961C424.811 316.26 424.811 319.34 422.961 322.1H422.211Z" fill="#667185"/>
<path d="M120.39 231.16C118.62 231.16 117.51 229.74 117.51 227.46C117.51 225.18 118.63 223.74 120.39 223.74C122.17 223.74 123.28 225.17 123.28 227.46C123.28 229.73 122.17 231.16 120.39 231.16ZM120.39 230.17C121.53 230.17 122.16 229.21 122.16 227.46C122.16 225.7 121.53 224.73 120.39 224.73C119.27 224.73 118.63 225.7 118.63 227.46C118.63 229.21 119.27 230.17 120.39 230.17ZM124.607 231.12L129.787 223.74H130.927L125.747 231.12H124.607ZM125.727 227.34C124.897 227.34 124.227 226.59 124.227 225.62C124.227 224.64 124.897 223.89 125.727 223.89C126.557 223.89 127.227 224.64 127.227 225.62C127.227 226.59 126.557 227.34 125.727 227.34ZM125.727 226.57C126.127 226.57 126.377 226.2 126.377 225.62C126.377 225.04 126.127 224.66 125.727 224.66C125.327 224.66 125.077 225.04 125.077 225.62C125.077 226.2 125.327 226.57 125.727 226.57ZM129.767 231C128.937 231 128.267 230.25 128.267 229.27C128.267 228.3 128.937 227.55 129.767 227.55C130.597 227.55 131.267 228.3 131.267 229.27C131.267 230.25 130.597 231 129.767 231ZM129.767 230.23C130.167 230.23 130.417 229.85 130.417 229.27C130.417 228.69 130.167 228.32 129.767 228.32C129.367 228.32 129.117 228.69 129.117 229.27C129.117 229.85 129.367 230.23 129.767 230.23Z" fill="#98A2B3"/>
<path d="M406.89 231V225.94H405.39V225.07H406C406.81 225.07 407.12 224.79 407.12 223.9H407.97V231H406.89ZM412.453 231.16C410.683 231.16 409.573 229.74 409.573 227.46C409.573 225.18 410.693 223.74 412.453 223.74C414.233 223.74 415.343 225.17 415.343 227.46C415.343 229.73 414.233 231.16 412.453 231.16ZM412.453 230.17C413.593 230.17 414.223 229.21 414.223 227.46C414.223 225.7 413.593 224.73 412.453 224.73C411.333 224.73 410.693 225.7 410.693 227.46C410.693 229.21 411.333 230.17 412.453 230.17ZM419.24 231.16C417.47 231.16 416.36 229.74 416.36 227.46C416.36 225.18 417.48 223.74 419.24 223.74C421.02 223.74 422.13 225.17 422.13 227.46C422.13 229.73 421.02 231.16 419.24 231.16ZM419.24 230.17C420.38 230.17 421.01 229.21 421.01 227.46C421.01 225.7 420.38 224.73 419.24 224.73C418.12 224.73 417.48 225.7 417.48 227.46C417.48 229.21 418.12 230.17 419.24 230.17ZM423.457 231.12L428.637 223.74H429.777L424.597 231.12H423.457ZM424.577 227.34C423.747 227.34 423.077 226.59 423.077 225.62C423.077 224.64 423.747 223.89 424.577 223.89C425.407 223.89 426.077 224.64 426.077 225.62C426.077 226.59 425.407 227.34 424.577 227.34ZM424.577 226.57C424.977 226.57 425.227 226.2 425.227 225.62C425.227 225.04 424.977 224.66 424.577 224.66C424.177 224.66 423.927 225.04 423.927 225.62C423.927 226.2 424.177 226.57 424.577 226.57ZM428.617 231C427.787 231 427.117 230.25 427.117 229.27C427.117 228.3 427.787 227.55 428.617 227.55C429.447 227.55 430.117 228.3 430.117 229.27C430.117 230.25 429.447 231 428.617 231ZM428.617 230.23C429.017 230.23 429.267 229.85 429.267 229.27C429.267 228.69 429.017 228.32 428.617 228.32C428.217 228.32 427.967 228.69 427.967 229.27C427.967 229.85 428.217 230.23 428.617 230.23Z" fill="#98A2B3"/>
<path d="M117 216.529V209H430V217" stroke="#E4E7EC"/>
<path d="M118.032 178V169.48H121.092C123.132 169.48 124.188 170.188 124.188 171.784C124.188 172.756 123.6 173.452 122.592 173.596C123.828 173.74 124.548 174.52 124.548 175.66C124.548 177.22 123.468 178 121.548 178H118.032ZM121.512 176.836C122.58 176.836 123.216 176.392 123.216 175.54C123.216 174.7 122.58 174.22 121.512 174.22H119.328V176.836H121.512ZM121.068 173.116C122.208 173.116 122.856 172.672 122.856 171.88C122.856 171.04 122.244 170.644 121.068 170.644H119.328V173.116H121.068ZM126.162 178V171.616H127.326L127.362 172.828C127.602 171.988 128.094 171.616 128.886 171.616H129.498V172.756H128.886C127.914 172.756 127.434 173.224 127.434 174.232V178H126.162ZM133.197 178.144C131.349 178.144 130.173 176.824 130.173 174.808C130.173 172.792 131.349 171.472 133.161 171.472C134.901 171.472 136.089 172.708 136.089 174.856V175.18H131.505C131.565 176.428 132.201 177.052 133.209 177.052C133.965 177.052 134.469 176.68 134.673 176.08L135.993 176.164C135.657 177.352 134.613 178.144 133.197 178.144ZM134.733 174.22C134.661 173.092 134.037 172.552 133.161 172.552C132.261 172.552 131.649 173.14 131.505 174.22H134.733ZM139.306 178.144C137.986 178.144 137.122 177.508 137.122 176.404C137.122 175.312 137.77 174.724 139.162 174.448L141.358 174.028C141.358 173.044 140.902 172.552 139.99 172.552C139.174 172.552 138.718 172.924 138.55 173.62L137.23 173.536C137.47 172.264 138.466 171.472 139.99 171.472C141.718 171.472 142.63 172.444 142.63 174.1V176.584C142.63 176.896 142.738 176.992 142.978 176.992H143.206V178C143.122 178.024 142.918 178.036 142.738 178.036C142.006 178.036 141.574 177.76 141.466 177.016C141.142 177.688 140.302 178.144 139.306 178.144ZM139.522 177.136C140.662 177.136 141.358 176.416 141.358 175.396V174.988L139.498 175.348C138.73 175.492 138.442 175.792 138.442 176.284C138.442 176.836 138.838 177.136 139.522 177.136ZM144.455 178V169.48H145.727V174.772L148.595 171.616H150.203L147.707 174.304L150.299 178H148.835L146.855 175.096L145.727 176.296V178H144.455ZM153.392 178.144C151.748 178.144 150.716 176.86 150.716 174.808C150.716 172.768 151.748 171.472 153.392 171.472C154.268 171.472 155 171.856 155.336 172.516V169.48H156.608V178H155.432L155.396 177.04C155.036 177.736 154.28 178.144 153.392 178.144ZM153.728 177.04C154.76 177.04 155.336 176.212 155.336 174.808C155.336 173.392 154.76 172.576 153.728 172.576C152.696 172.576 152.036 173.416 152.036 174.808C152.036 176.176 152.708 177.04 153.728 177.04ZM161.076 178.144C159.24 178.144 158.04 176.836 158.04 174.808C158.04 172.78 159.24 171.472 161.076 171.472C162.9 171.472 164.1 172.78 164.1 174.808C164.1 176.836 162.9 178.144 161.076 178.144ZM161.076 177.04C162.156 177.04 162.78 176.212 162.78 174.808C162.78 173.404 162.156 172.576 161.076 172.576C159.996 172.576 159.36 173.404 159.36 174.808C159.36 176.212 159.996 177.04 161.076 177.04ZM166.517 178L164.573 171.616H165.905L167.273 176.608L168.677 171.616H169.889L171.293 176.608L172.661 171.616H174.005L172.049 178H170.621L169.277 173.44L167.945 178H166.517ZM175.158 178V171.616H176.322L176.358 172.72C176.694 171.856 177.426 171.472 178.29 171.472C179.718 171.472 180.45 172.504 180.45 173.896V178H179.178V174.28C179.178 173.152 178.83 172.54 177.942 172.54C177.042 172.54 176.43 173.152 176.43 174.28V178H175.158ZM188.346 178.144C187.458 178.144 186.75 177.736 186.39 177.04L186.354 178H185.166V169.48H186.438V172.516C186.762 171.964 187.458 171.472 188.346 171.472C190.014 171.472 191.058 172.768 191.058 174.808C191.058 176.848 190.014 178.144 188.346 178.144ZM188.142 177.04C189.114 177.04 189.738 176.188 189.738 174.808C189.738 173.404 189.126 172.576 188.154 172.576C187.074 172.576 186.438 173.404 186.438 174.808C186.438 176.188 187.074 177.04 188.142 177.04ZM192.557 179.8V178.756H193.325C193.757 178.756 193.925 178.636 194.045 178.336L194.249 177.808H193.853L191.549 171.616H192.893L194.645 176.632L196.325 171.616H197.669L195.125 178.744C194.861 179.476 194.405 179.8 193.517 179.8H192.557ZM204.196 178L201.112 169.48H202.492L205.012 176.56L207.52 169.48H208.9L205.816 178H204.196ZM210.068 178V171.616H211.34V178H210.068ZM210.044 170.692V169.42H211.376V170.692H210.044ZM215.623 178.144C213.823 178.144 212.851 177.244 212.755 175.984L214.075 175.924C214.183 176.632 214.639 177.076 215.623 177.076C216.415 177.076 216.919 176.836 216.919 176.272C216.919 175.804 216.679 175.6 215.395 175.384C213.499 175.048 212.911 174.496 212.911 173.452C212.911 172.288 213.811 171.472 215.467 171.472C217.099 171.472 217.963 172.408 218.143 173.572L216.835 173.644C216.715 172.984 216.247 172.54 215.455 172.54C214.627 172.54 214.231 172.9 214.231 173.404C214.231 173.968 214.615 174.196 215.659 174.364C217.639 174.688 218.239 175.216 218.239 176.26C218.239 177.46 217.147 178.144 215.623 178.144ZM219.455 178V171.616H220.727V178H219.455ZM219.431 170.692V169.42H220.763V170.692H219.431ZM224.539 178C223.327 178 222.763 177.472 222.763 176.272V172.66H221.791V171.616H222.763V170.116H224.035V171.616H225.727V172.66H224.035V176.176C224.035 176.776 224.287 176.956 224.815 176.956H225.727V178H224.539ZM229.537 178.144C227.701 178.144 226.501 176.836 226.501 174.808C226.501 172.78 227.701 171.472 229.537 171.472C231.361 171.472 232.561 172.78 232.561 174.808C232.561 176.836 231.361 178.144 229.537 178.144ZM229.537 177.04C230.617 177.04 231.241 176.212 231.241 174.808C231.241 173.404 230.617 172.576 229.537 172.576C228.457 172.576 227.821 173.404 227.821 174.808C227.821 176.212 228.457 177.04 229.537 177.04ZM233.916 178V171.616H235.08L235.116 172.828C235.356 171.988 235.848 171.616 236.64 171.616H237.252V172.756H236.64C235.668 172.756 235.188 173.224 235.188 174.232V178H233.916ZM241.603 178V171.616H242.875V178H241.603ZM241.579 170.692V169.42H242.911V170.692H241.579ZM244.509 178V171.616H245.673L245.709 172.72C246.045 171.856 246.777 171.472 247.641 171.472C249.069 171.472 249.801 172.504 249.801 173.896V178H248.529V174.28C248.529 173.152 248.181 172.54 247.293 172.54C246.393 172.54 245.781 173.152 245.781 174.28V178H244.509ZM253.684 178C252.472 178 251.908 177.472 251.908 176.272V172.66H250.936V171.616H251.908V170.116H253.18V171.616H254.872V172.66H253.18V176.176C253.18 176.776 253.432 176.956 253.96 176.956H254.872V178H253.684ZM258.669 178.144C256.821 178.144 255.645 176.824 255.645 174.808C255.645 172.792 256.821 171.472 258.633 171.472C260.373 171.472 261.561 172.708 261.561 174.856V175.18H256.977C257.037 176.428 257.673 177.052 258.681 177.052C259.437 177.052 259.941 176.68 260.145 176.08L261.465 176.164C261.129 177.352 260.085 178.144 258.669 178.144ZM260.205 174.22C260.133 173.092 259.509 172.552 258.633 172.552C257.733 172.552 257.121 173.14 256.977 174.22H260.205ZM262.92 178V171.616H264.084L264.12 172.828C264.36 171.988 264.852 171.616 265.644 171.616H266.256V172.756H265.644C264.672 172.756 264.192 173.224 264.192 174.232V178H262.92ZM269.173 178.144C267.853 178.144 266.989 177.508 266.989 176.404C266.989 175.312 267.637 174.724 269.029 174.448L271.225 174.028C271.225 173.044 270.769 172.552 269.857 172.552C269.041 172.552 268.585 172.924 268.417 173.62L267.097 173.536C267.337 172.264 268.333 171.472 269.857 171.472C271.585 171.472 272.497 172.444 272.497 174.1V176.584C272.497 176.896 272.605 176.992 272.845 176.992H273.073V178C272.989 178.024 272.785 178.036 272.605 178.036C271.873 178.036 271.441 177.76 271.333 177.016C271.009 177.688 270.169 178.144 269.173 178.144ZM269.389 177.136C270.529 177.136 271.225 176.416 271.225 175.396V174.988L269.365 175.348C268.597 175.492 268.309 175.792 268.309 176.284C268.309 176.836 268.705 177.136 269.389 177.136ZM276.927 178.144C275.079 178.144 273.891 176.824 273.891 174.808C273.891 172.792 275.079 171.472 276.927 171.472C278.475 171.472 279.567 172.312 279.771 173.788L278.451 173.86C278.319 173.032 277.731 172.576 276.927 172.576C275.847 172.576 275.211 173.404 275.211 174.808C275.211 176.212 275.847 177.04 276.927 177.04C277.731 177.04 278.319 176.584 278.451 175.66L279.771 175.732C279.567 177.196 278.487 178.144 276.927 178.144ZM283.18 178C281.968 178 281.404 177.472 281.404 176.272V172.66H280.432V171.616H281.404V170.116H282.676V171.616H284.368V172.66H282.676V176.176C282.676 176.776 282.928 176.956 283.456 176.956H284.368V178H283.18ZM285.677 178V171.616H286.949V178H285.677ZM285.653 170.692V169.42H286.985V170.692H285.653ZM291.4 178.144C289.564 178.144 288.364 176.836 288.364 174.808C288.364 172.78 289.564 171.472 291.4 171.472C293.224 171.472 294.424 172.78 294.424 174.808C294.424 176.836 293.224 178.144 291.4 178.144ZM291.4 177.04C292.48 177.04 293.104 176.212 293.104 174.808C293.104 173.404 292.48 172.576 291.4 172.576C290.32 172.576 289.684 173.404 289.684 174.808C289.684 176.212 290.32 177.04 291.4 177.04ZM295.779 178V171.616H296.943L296.979 172.72C297.315 171.856 298.047 171.472 298.911 171.472C300.339 171.472 301.071 172.504 301.071 173.896V178H299.799V174.28C299.799 173.152 299.451 172.54 298.563 172.54C297.663 172.54 297.051 173.152 297.051 174.28V178H295.779Z" fill="#475367"/>
<rect x="117" y="193" width="216" height="10" fill="#5755FF"/>
<rect width="98" height="10" transform="matrix(1 0 0 -1 333 203)" fill="#E4E7EC"/>
<rect width="13" height="10" transform="matrix(1 0 0 -1 333 203)" fill="#D9D8FD"/>
<defs>
<filter id="filter0_d_2329_175" x="59" y="123" width="430" height="272" filterUnits="userSpaceOnUse" color-interpolation-filters="sRGB">
<feFlood flood-opacity="0" result="BackgroundImageFix"/>
<feColorMatrix in="SourceAlpha" type="matrix" values="0 0 0 0 0 0 0 0 0 0 0 0 0 0 0 0 0 0 127 0" result="hardAlpha"/>
<feMorphology radius="3" operator="erode" in="SourceAlpha" result="effect1_dropShadow_2329_175"/>
<feOffset dy="16"/>
<feGaussianBlur stdDeviation="24"/>
<feComposite in2="hardAlpha" operator="out"/>
<feColorMatrix type="matrix" values="0 0 0 0 0.341176 0 0 0 0 0.333333 0 0 0 0 1 0 0 0 0.08 0"/>
<feBlend mode="normal" in2="BackgroundImageFix" result="effect1_dropShadow_2329_175"/>
<feBlend mode="normal" in="SourceGraphic" in2="effect1_dropShadow_2329_175" result="shape"/>
</filter>
<linearGradient id="paint0_linear_2329_175" x1="170" y1="1" x2="170" y2="181" gradientUnits="userSpaceOnUse">
<stop stop-color="#E4E7EC"/>
<stop offset="1" stop-color="white"/>
</linearGradient>
<linearGradient id="paint1_linear_2329_175" x1="274" y1="153" x2="274" y2="333" gradientUnits="userSpaceOnUse">
<stop stop-color="#E4E7EC"/>
<stop offset="1" stop-color="white"/>
</linearGradient>
</defs>
</svg>
