<svg width="484" height="482" viewBox="0 0 484 482" fill="none" xmlns="http://www.w3.org/2000/svg">
<path d="M190 140C212.884 152.688 232.064 171.658 245.46 194.894C258.856 218.127 265.957 244.736 266 271.87C266.042 299.005 259.024 325.637 245.701 348.916C232.377 372.198 213.257 391.234 190.412 404" stroke="url(#paint0_linear_2726_984)" stroke-width="1.42166" stroke-linecap="round" stroke-dasharray="0.47 7.58"/>
<g filter="url(#filter0_di_2726_984)">
<rect x="215" y="337" width="40" height="40" rx="8" fill="white" shape-rendering="crispEdges"/>
<g clip-path="url(#clip0_2726_984)">
<g clip-path="url(#clip1_2726_984)">
<g clip-path="url(#clip2_2726_984)">
<mask id="mask0_2726_984" style="mask-type:luminance" maskUnits="userSpaceOnUse" x="225" y="346" width="20" height="21">
<path d="M245 346.13H225V366.13H245V346.13Z" fill="white"/>
</mask>
<g mask="url(#mask0_2726_984)">
<path d="M231.896 359.033C231.492 358.755 231.202 358.34 231.079 357.865L231.992 357.489C232.056 357.774 232.208 358.03 232.426 358.223C232.635 358.398 232.901 358.49 233.174 358.482C233.455 358.489 233.728 358.392 233.943 358.21C234.046 358.127 234.129 358.021 234.185 357.901C234.24 357.781 234.268 357.649 234.265 357.517C234.268 357.381 234.239 357.247 234.18 357.125C234.121 357.003 234.034 356.896 233.926 356.814C233.683 356.627 233.383 356.531 233.076 356.542H232.551V355.638H233.025C233.291 355.647 233.552 355.563 233.763 355.401C233.861 355.325 233.94 355.226 233.992 355.113C234.044 355 234.069 354.877 234.063 354.752C234.067 354.641 234.045 354.529 233.998 354.428C233.952 354.326 233.882 354.237 233.795 354.167C233.601 354.015 233.361 353.938 233.115 353.947C232.882 353.934 232.654 354.011 232.476 354.162C232.318 354.306 232.199 354.487 232.131 354.689L231.227 354.313C231.358 353.957 231.587 353.645 231.888 353.414C232.242 353.145 232.679 353.007 233.123 353.025C233.467 353.019 233.808 353.092 234.12 353.239C234.401 353.371 234.641 353.576 234.813 353.834C234.98 354.087 235.067 354.384 235.063 354.688C235.073 354.978 234.992 355.264 234.831 355.506C234.684 355.722 234.488 355.898 234.258 356.021V356.077C234.55 356.197 234.804 356.395 234.992 356.649C235.187 356.916 235.288 357.24 235.279 357.571C235.284 357.91 235.19 358.243 235.007 358.528C234.82 358.812 234.561 359.041 234.256 359.19C233.921 359.354 233.552 359.437 233.178 359.432C232.72 359.434 232.272 359.294 231.896 359.033Z" fill="#4285F4"/>
<path d="M236.503 355.226L236.002 354.466L237.8 353.168H238.49V359.288H237.506V354.501L236.503 355.226Z" fill="#4285F4"/>
<path d="M240.263 361.393H229.736V366.13H240.263V361.393Z" fill="#34A853"/>
<path d="M240.263 346.13H226.579C226.16 346.13 225.759 346.296 225.462 346.592C225.166 346.888 225 347.29 225 347.709V361.393H229.737V350.867H240.263V346.13Z" fill="#4285F4"/>
<path d="M225 361.393V364.551C225 364.97 225.166 365.371 225.462 365.667C225.759 365.963 226.16 366.13 226.579 366.13H229.737V361.393H225Z" fill="#188038"/>
<path d="M245 350.867H240.264V361.393H245V350.867Z" fill="#FBBC04"/>
<path d="M245 350.867V347.709C245 347.29 244.834 346.888 244.538 346.592C244.242 346.296 243.84 346.13 243.421 346.13H240.264V350.867H245Z" fill="#1967D2"/>
<path d="M240.264 366.13L245 361.393H240.264V366.13Z" fill="#EA4335"/>
</g>
</g>
</g>
</g>
</g>
<g clip-path="url(#clip3_2726_984)">
<g clip-path="url(#clip4_2726_984)">
<g clip-path="url(#clip5_2726_984)">
<path d="M16.3901 315.918C25.4421 333.459 78.6101 334.886 135.145 319.106C191.68 303.326 230.173 276.315 221.121 258.774C212.069 241.234 158.9 239.806 102.365 255.586C61.7681 266.917 30.4751 284.041 19.4091 299.289C15.0651 305.276 13.8391 310.973 16.3901 315.918Z" stroke="url(#paint1_linear_2726_984)" stroke-width="13.141"/>
<path d="M118.681 351.821C156.575 351.821 187.295 323.069 187.295 287.6C187.295 252.132 156.575 223.38 118.681 223.38C80.7874 223.38 50.0674 252.132 50.0674 287.6C50.0674 323.069 80.7874 351.821 118.681 351.821Z" fill="url(#paint2_radial_2726_984)"/>
<path d="M109.625 237.709H114.031V235.709H109.625V237.709Z" fill="black"/>
<path d="M221.121 258.774C230.173 276.315 191.681 303.327 135.146 319.107C78.6105 334.887 25.4425 333.459 16.3905 315.919C13.8385 310.974 15.0655 305.276 19.4095 299.29" stroke="url(#paint3_linear_2726_984)" stroke-width="13.141"/>
<path d="M108.512 227.69H117.235V224.65H108.512V227.69Z" fill="#577BFF"/>
<path d="M123.911 185.994H126.136V176.882H123.911V185.994Z" fill="#3C404C"/>
<path d="M126.125 190.066H129.34V181.996H126.125V190.066ZM114.109 184.766H119.927V180.954H114.109V184.766Z" fill="#3C404C"/>
<path d="M135.437 216.59H122.231V221.286H135.437V216.59Z" fill="#C9792B"/>
<path opacity="0.5" d="M118.971 243.384C104.881 243.384 93.459 239.953 93.459 235.72C93.459 231.487 104.881 228.055 118.971 228.055C133.061 228.055 144.483 231.487 144.483 235.72C144.483 239.953 133.061 243.384 118.971 243.384Z" fill="#98B2FF"/>
<path d="M108.879 211.08H106.554V212.913H108.879V211.08Z" fill="#5E30EE"/>
<path d="M110.47 211.08H108.512V218.433H110.47V211.08Z" fill="#E7B7B5"/>
<path d="M104.585 207.415V201.917L106.554 200.073L107.711 199.157H109.058L110.871 198.241H126.147L128.239 211.175L106.554 211.081L104.585 207.415Z" fill="#805AF3"/>
<path d="M114.398 211.08H110.47V214.757H114.398V211.08Z" fill="#E7B7B5"/>
<path d="M118.415 209.248H116.345V213.038H118.415V209.248Z" fill="#C98B8B"/>
<path d="M137.384 208.79H123.922V214.288H137.384V208.79Z" fill="#C9792B"/>
<path d="M135.426 218.433V201.907L136.516 198.251L144.794 198.241V196.408H151.114L156.999 200.084L156.988 218.434L149.144 222.109H139.354L135.426 218.433Z" fill="#FFE59C"/>
<path d="M116.824 218.433L114.398 218.423L112.429 218.433H110.682V222.348H116.824V218.433Z" fill="#577BFF"/>
<path d="M123.643 231.742H130.141V229.742H123.643V231.742Z" fill="#805AF3"/>
<path d="M130.153 231.742H132.289V229.742H130.153V231.742ZM128.038 229.731H130.141V221.181H128.038V229.731ZM123.643 233.74H130.141V231.741H123.643V233.74ZM108.519 239.644H112.929V237.511H108.519V239.644Z" fill="black"/>
<path d="M123.643 229.742H128.049V225.69H123.643V229.74V229.742Z" fill="#E7B7B5"/>
<path d="M121.474 223.66H128.039V222.11H121.474V223.66Z" fill="#577BFF"/>
<path d="M114.042 218.433H116.824V216.23H114.042V218.433Z" fill="#4F24D3"/>
<path d="M116.367 216.58H118.314V214.757H116.367V216.579V216.58Z" fill="#18D19C"/>
<path d="M121.474 225.691H128.039V223.651H121.474V225.691ZM108.512 231.731H115.077V227.681H108.512V231.731Z" fill="#C98B8B"/>
<path d="M108.512 237.802H112.918V235.802H108.512V237.802Z" fill="#805AF3"/>
<path d="M108.512 235.793H112.918V231.742H108.512V235.793Z" fill="#E7B7B5"/>
<path d="M121.486 231.742H123.644V225.68H121.486V231.74V231.742ZM115.088 231.731H117.246V227.681H115.088V231.731ZM112.93 237.792H115.088V231.731L112.93 231.732V237.792ZM106.354 237.802H108.512V225.692H106.354V237.802ZM108.512 225.68H110.671V219.62H108.512V225.68Z" fill="black"/>
<path d="M110.682 225.68H117.246V222.098H110.682V225.68Z" fill="#577BFF"/>
<path d="M119.394 225.68H121.474V223.431H119.394V225.68Z" fill="black"/>
<path d="M110.671 231.731H115.077V227.681H110.671V231.731Z" fill="#E7B7B5"/>
<path d="M115.088 227.68H117.246V225.66H115.088V227.68ZM110.593 229.7H112.929V227.68H110.593V229.7Z" fill="#C98B8B"/>
<path d="M117.235 226.722H119.394V223.93H117.235V226.72V226.722Z" fill="#1D57FC"/>
<path d="M125.88 223.65H128.039V221.6H125.88V223.65Z" fill="#C98B8B"/>
<path d="M125.88 225.701H128.039V223.65H125.88V225.701Z" fill="#E7B7B5"/>
<path d="M104.407 188.046H108.69V183.9H104.407V188.046Z" fill="#D7E2FF"/>
<path d="M108.69 181.985H117.135V179.955L120.451 179.923V177.903L124.033 177.913L124.011 173.863H108.69V181.985Z" fill="white"/>
<path d="M104.407 179.934H115.822V175.904H104.407V179.934Z" fill="white"/>
<path d="M119.449 182.734H124.156V179.923H119.449V182.734ZM108.679 198.24H116.323V183.985H108.679V198.242V198.24Z" fill="#3C404C"/>
<path d="M113.074 198.897H123.611V192.67H113.074V198.897Z" fill="#E7B7B5"/>
<path d="M115.221 195.241H126.036V185.775H115.221V195.241Z" fill="#E7B7B5"/>
<path d="M116.267 193.21H124.445V184.005H116.267V193.211V193.21Z" fill="#E7B7B5"/>
<path d="M126.125 196.2H128.228V190.066H126.125V196.199V196.2ZM126.125 181.996H128.228V177.924H126.125V181.996ZM124.033 177.914H126.136V175.872H124.033V177.914ZM102.304 188.087H104.407V186.025H102.304V188.087Z" fill="black"/>
<path d="M100.212 190.118H102.315V188.078H100.212V190.118Z" fill="black"/>
<path d="M98.1104 192.149H100.213V190.108H98.1104V192.149ZM98.1104 194.19H100.213V192.149H98.1104V194.189V194.19ZM100.212 196.231H107.656V194.19H100.213L100.212 196.231ZM121.93 175.893H124.033V173.852H121.93V175.893ZM102.304 186.036H104.407V177.923H102.304V186.036ZM106.51 175.893H108.69V173.852H106.51V175.893Z" fill="black"/>
<path d="M104.396 177.914H106.577V175.872H104.396V177.914ZM108.679 173.862H112.807V171.822H108.679V173.862ZM117.358 173.862H121.942V171.822H117.358V173.862ZM128.239 190.066H130.341V181.996H128.239V190.066ZM123.822 198.24H128.228V196.2H123.822V198.24ZM106.554 198.24H108.69V192.222H106.554V198.24ZM104.418 192.222H106.554V188.046H104.418V192.222ZM110.86 198.24H113.063V196.18H110.86V198.242V198.24Z" fill="black"/>
<path d="M113.074 200.073H123.833V198.24H113.074V200.073ZM123.833 196.2H126.136V192.003H123.833V196.199V196.2Z" fill="#C98B8B"/>
<path d="M121.686 198.48H123.833V192.003H121.686V198.48ZM119.538 192.003H121.686V188.046H119.538V192.003Z" fill="#C98B8B"/>
<path d="M121.685 192.003H123.911V188.046H121.685V192.003Z" fill="black"/>
<path d="M123.911 192.003H126.136V190.024H123.911V192.003Z" fill="white"/>
<path d="M123.911 190.024H126.136V188.046H123.911V190.024Z" fill="#D7E2FF"/>
<path d="M113.074 194.2H115.222V192.222H113.074V194.2Z" fill="white"/>
<path d="M113.074 192.222H115.222V190.243H113.074V192.222Z" fill="#D7E2FF"/>
<path d="M115.221 194.2H117.369V190.243H115.221V194.2Z" fill="black"/>
<path d="M113.074 188.254H115.222V186.244H113.074V188.254Z" fill="#C98B8B"/>
<path d="M115.221 186.255H117.369V184.005H115.221V186.255ZM123.911 186.067H126.136V183.984H123.911V186.067ZM119.449 184.005H123.911V181.995H119.449V184.005ZM110.86 196.18H113.063V192.222H110.86V196.18ZM106.554 192.222H108.69V188.046H106.554V192.222Z" fill="#C98B8B"/>
<path d="M121.685 188.046H123.911V186.067H121.685V188.046Z" fill="#282828"/>
<path d="M123.911 188.046H126.136V186.067H123.911V188.046Z" fill="#AD6D6D"/>
<path d="M117.358 188.264H115.21V190.243H117.358V188.264Z" fill="#282828"/>
<path d="M115.21 188.264H113.063V190.243H115.21V188.264Z" fill="#AD6D6D"/>
<path d="M119.449 179.923H124.033V177.903H119.449V179.923ZM115.221 181.985H119.46V179.944H115.221V181.985ZM110.971 184.005H115.21V181.995H110.971V184.005ZM106.554 188.046H108.69V186.036H106.554V188.046ZM117.313 177.903H119.449V175.893H117.313V177.903Z" fill="#272B35"/>
<path d="M115.221 177.903H118.481V175.893H115.221V177.903ZM113.085 179.955H115.222L115.221 177.903H113.085V179.955Z" fill="#272B35"/>
<path d="M112.807 173.862H117.357V171.822H112.807V173.862Z" fill="#18D19C"/>
<path d="M106.554 177.914H108.69V175.914H106.554V177.914ZM108.69 175.914H110.826V173.863H108.69V175.914ZM108.679 181.985H110.971V179.933H108.679V181.985ZM104.407 184.005H110.982V181.995H104.407V184.005Z" fill="#D7E2FF"/>
<path d="M104.407 181.996H108.69V177.913H104.407V181.996Z" fill="#D7E2FF"/>
<path d="M100.212 194.19H102.315V190.118H100.212V194.19Z" fill="#A7BFFF"/>
<path d="M102.304 192.222H104.407V188.077H102.304V192.222Z" fill="#799EFF"/>
<path d="M102.304 194.19H106.543V192.222H102.304V194.19Z" fill="#A7BFFF"/>
<path d="M110.749 173.862H119.416V171.822H110.749V173.862Z" fill="black"/>
<path d="M104.418 194.19H106.554V192.222H104.418V194.19Z" fill="#799EFF"/>
<path d="M104.596 200.073H106.554V198.24H104.596V200.073ZM102.627 201.917H104.585V200.084H102.627V201.917ZM102.627 203.75H104.585V201.917H102.627V203.75ZM100.668 205.582H102.626V203.749H100.668V205.582ZM100.668 207.415H102.626V205.582H100.668V207.415ZM102.627 209.831H104.585V207.415H102.626L102.627 209.831Z" fill="black"/>
<path d="M102.627 211.091H104.585V209.258H102.627V211.091ZM104.596 212.924H106.554V211.09H104.596V212.924Z" fill="black"/>
<path d="M104.596 214.756H106.554V212.923H104.596V214.756ZM106.554 216.59H108.512V214.757L106.554 214.756V216.59ZM108.512 220.255H110.682V218.423H108.512V220.255ZM114.387 216.59H116.345V214.757H114.387V216.59ZM116.345 216.6H118.537V214.767H116.345V216.6ZM118.315 212.924H120.273V211.09H118.315V212.924Z" fill="black"/>
<path d="M120.261 212.924H122.22V211.09H120.261V212.924ZM120.261 211.08H122.22V209.248H120.261V211.08ZM122.231 209.248H124.189V207.415H122.231V209.248ZM122.231 207.415H124.189V205.582H122.231V207.415ZM124.2 205.572H126.158V203.739H124.2V205.572ZM124.2 203.739H126.158V201.906H124.2V203.739ZM130.42 200.073H132.378V198.24H130.42V200.073ZM118.315 216.59H120.273V214.757H118.315V216.59Z" fill="black"/>
<path d="M118.315 214.756H120.273V212.923H118.315V214.756ZM116.356 220.265H118.314V218.432H116.356V220.265ZM114.387 222.098H116.345V220.265H114.387V222.098ZM116.356 223.941H118.314V222.11H116.356V223.941ZM118.314 223.941H120.273V222.11H118.314L118.315 223.942L118.314 223.941ZM120.273 223.941H122.231V222.11H120.273V223.941ZM122.231 223.941H124.189V222.11H122.231V223.941ZM124.189 222.098H126.147V220.265H124.189V222.098ZM126.147 222.098H129.062V220.265H126.147V222.098Z" fill="black"/>
<path d="M128.117 222.098H130.075V220.265H128.117V222.098Z" fill="black"/>
<path d="M130.063 222.098H135.437V220.265H130.063V222.098ZM116.356 218.433H118.314V216.6H116.356V218.433ZM118.315 209.248H120.273V207.415H118.315V209.248ZM118.315 207.415H120.273V205.582H118.315V207.415ZM118.315 205.582H120.273V203.749H118.315V205.582Z" fill="black"/>
<path d="M118.326 203.75H120.261V201.917H118.326V203.75ZM116.356 209.248H118.314V207.415H116.356V209.248ZM114.387 211.08H116.345V209.248H114.387V211.08ZM112.429 211.08H114.387V209.248H112.429V211.08ZM110.471 209.248H112.429V207.415H110.471V209.248ZM110.471 207.415H112.429V205.582H110.471V207.415ZM128.227 200.073H135.737V198.24H128.227V200.073Z" fill="black"/>
<path d="M134.558 200.073H136.516V198.24H134.558V200.073ZM132.366 200.073H134.547V198.24H132.366V200.073ZM138.697 198.24H140.655V196.408H138.697V198.24Z" fill="black"/>
<path d="M136.505 198.24H143.526V196.408H136.505V198.24Z" fill="black"/>
<path d="M142.836 198.24H144.794V196.408H142.836V198.24ZM140.644 198.24H142.825V196.408H140.644V198.24ZM146.975 196.408H148.933V194.575H146.975V196.408Z" fill="black"/>
<path d="M144.794 196.408H146.975V194.575H144.794V196.408ZM151.114 196.408H153.072V194.575H151.114V196.408ZM153.072 198.24H155.03V196.408H153.072V198.24ZM155.041 200.084H157V198.251H155.041V200.084ZM157 201.917H158.958V200.084H157V201.917Z" fill="black"/>
<path d="M157 206.186H158.958V201.916H157V206.186Z" fill="black"/>
<path d="M157 205.593H158.958V203.76H157V205.593ZM157 207.426H158.958V205.593H157V207.426ZM155.041 209.258H157V207.426L155.041 207.425V209.258ZM155.041 211.091H157V209.258H155.041V211.091Z" fill="black"/>
<path d="M149.089 212.924H151.047V207.404H149.089V212.924ZM154.096 214.767H157V212.934H154.096V214.767ZM160.916 214.767H162.874V212.934H160.916V214.767ZM155.041 218.433H157V216.6H155.041V218.433ZM155.008 216.6H160.916V214.767H155.008V216.6Z" fill="#FFCD2C"/>
<path d="M155.041 212.924H157V211.09H155.041V212.924ZM157 214.767H159.659V212.934H157V214.767Z" fill="black"/>
<path d="M158.968 214.767H160.927V212.934H158.968V214.767ZM160.927 212.924H162.885V211.09H160.927V212.924ZM162.885 214.767H164.844V212.934H162.885V214.767ZM160.916 216.6H162.874V214.767H160.916V216.6ZM158.958 218.433H160.916V216.6H158.958V218.433Z" fill="black"/>
<path d="M156.988 218.433H159.659V216.6H156.988V218.433ZM155.03 220.276H156.988V218.443H155.03V220.276ZM153.072 220.276H155.03V218.443H153.072V220.276ZM151.103 222.109H153.061V220.276H151.103V222.109ZM149.144 222.109H151.103V220.276H149.144V222.109ZM147.175 223.941H149.133V222.11H147.175V223.941Z" fill="black"/>
<path d="M142.413 223.941H147.197V222.11H142.413V223.941Z" fill="black"/>
<path d="M143.27 223.941H145.228V222.11H143.27V223.941Z" fill="black"/>
<path d="M141.323 223.941H143.281V222.11H141.323V223.941ZM139.364 223.941H141.323V222.11H139.364V223.941ZM137.395 222.109H139.353V220.276H137.395V222.109ZM135.437 220.276H137.395V218.443H135.437V220.276ZM148.933 196.408H151.114V194.575H148.933V196.408Z" fill="black"/>
<path d="M118.303 220.265H116.345V222.098H118.303V220.265ZM120.262 220.265H118.303V222.098H120.262V220.265Z" fill="#FFCD2C"/>
<path d="M124.189 220.265H120.273V222.098H124.189V220.265ZM135.437 212.924H122.231V216.589H135.437V212.924ZM135.437 205.572H127.905V209.237H135.437V205.572ZM135.437 201.906H127.905V205.572H135.437V201.906Z" fill="#C9792B"/>
<path d="M120.262 216.59H118.303V220.265H120.262V216.59Z" fill="#FFCD2C"/>
<path d="M122.22 212.924H120.261V220.265H122.22V212.924ZM124.189 209.248H122.231V216.589H124.189V209.248ZM126.147 205.582H124.189V212.924H126.147V205.582ZM128.239 201.906H126.147V209.258H128.239V201.906Z" fill="#FFCD2C"/>
<path d="M130.063 200.073H128.238V205.572H130.063V200.073ZM131.888 200.073H130.063L130.064 201.896H131.888V200.073Z" fill="#FFCD2C"/>
<path d="M133.535 201.906H130.064V203.729H133.535V201.906ZM133.613 209.248H131.666V216.6H133.613V209.248ZM133.613 203.739H131.666V205.561H133.613V203.74V203.739Z" fill="#A55819"/>
<path d="M135.426 201.906H133.479V218.433H135.426V201.906Z" fill="#A55819"/>
<path d="M153.061 196.408H151.069V198.251H153.061V196.408ZM151.069 196.408H149.078V198.251H151.069V196.408ZM155.03 207.415H153.039V216.59H155.03V207.415ZM153.039 205.582H151.047V214.757H153.039V205.582ZM153.027 198.251H151.036V200.073H153.027V198.251ZM156.988 200.084H154.997V207.415H156.988V200.084Z" fill="#FFCD2C"/>
<path d="M155.03 198.24H153.005V207.415H155.03V198.24Z" fill="#FFCD2C"/>
<path d="M136.516 200.073H131.888V201.896H136.516V200.073ZM135.771 209.258H133.479V212.924H135.771V209.258ZM135.771 212.924H133.479V216.6H135.771V212.924Z" fill="#FFE59C"/>
<path d="M135.771 201.75H133.479V203.739H135.771V201.75Z" fill="#FFE59C"/>
<path d="M112.418 209.248H110.459V211.08H112.418V209.248Z" fill="#AD6D6D"/>
<path d="M108.879 212.924H106.554V214.757H108.879V212.924Z" fill="#E7B7B5"/>
<path d="M106.543 207.415H104.585V211.091H106.543V207.415ZM104.585 203.75H102.626V207.415H104.585V203.75ZM106.543 200.073H104.585V201.906H106.543V200.073ZM108.512 198.24H106.554V200.074H108.512V198.24Z" fill="#5E30EE"/>
<path d="M110.871 198.24H108.457V200.074H110.871V198.24ZM116.356 207.415H112.44V209.248H116.356V207.415ZM114.387 205.582H112.429V207.415H114.387V205.582ZM122.22 207.405H120.261V209.238H122.22V207.405ZM124.189 203.739H122.231V205.572H124.189V203.739ZM128.239 198.24H126.147V200.98H128.239V198.24Z" fill="#5E30EE"/>
<path d="M120.262 209.248H118.303V211.08H120.262V209.248ZM118.303 212.924H116.345V214.757H118.303V212.924Z" fill="#AD6D6D"/>
<path d="M116.345 211.08H114.387V214.757H116.345V211.08Z" fill="#C98B8B"/>
<path d="M114.398 212.924H112.44V216.6H114.398V212.924Z" fill="#C98B8B"/>
<path d="M112.929 214.756H110.47V217.12H112.929V214.756Z" fill="#C98B8B"/>
<path d="M108.523 218.433H110.482V216.6H108.523V218.433Z" fill="black"/>
<path d="M109.024 218.433H112.963V216.6H109.024V218.433Z" fill="black"/>
<path d="M112.429 218.433H114.387V216.6H112.429V218.433ZM126.147 201.906H128.228V200.084H126.147V201.906ZM117.235 227.69H119.394V225.691H117.235V227.691V227.69Z" fill="black"/>
</g>
</g>
</g>
<g filter="url(#filter1_di_2726_984)">
<rect x="215" y="152" width="40" height="40" rx="8" fill="white" shape-rendering="crispEdges"/>
<path fill-rule="evenodd" clip-rule="evenodd" d="M236 171V171.001H244.999V166.501H240.498V162H235.998V171H236ZM234 173H225V177.499H229.501L229.501 182H234.001V173.001H234V173ZM244.999 173H240.499V177.499H244.999V173ZM240.499 182V177.5H235.999L235.999 182H240.499Z" fill="#5755FF"/>
</g>
<rect x="271" y="160" width="127.48" height="24" rx="12" fill="#BA811B" fill-opacity="0.09"/>
<rect opacity="0.2172" x="279" y="168" width="8" height="8" rx="4" fill="#B0B2BB"/>
<path d="M296.516 177V166.818H298.052V175.678H302.666V177H296.516ZM307.59 177.154C306.838 177.154 306.19 176.993 305.646 176.672C305.106 176.347 304.688 175.891 304.393 175.305C304.102 174.715 303.956 174.024 303.956 173.232C303.956 172.449 304.102 171.76 304.393 171.163C304.688 170.567 305.099 170.101 305.626 169.766C306.157 169.432 306.776 169.264 307.486 169.264C307.917 169.264 308.334 169.335 308.738 169.478C309.143 169.621 309.506 169.844 309.827 170.149C310.149 170.454 310.402 170.85 310.588 171.337C310.774 171.821 310.866 172.41 310.866 173.102V173.629H304.796V172.516H309.41C309.41 172.125 309.33 171.778 309.171 171.477C309.012 171.172 308.788 170.931 308.5 170.756C308.215 170.58 307.88 170.492 307.496 170.492C307.078 170.492 306.713 170.595 306.402 170.8C306.094 171.003 305.855 171.268 305.686 171.596C305.52 171.921 305.437 172.274 305.437 172.655V173.525C305.437 174.035 305.527 174.469 305.706 174.827C305.888 175.185 306.142 175.459 306.466 175.648C306.791 175.833 307.171 175.926 307.605 175.926C307.887 175.926 308.144 175.886 308.376 175.807C308.608 175.724 308.808 175.601 308.977 175.439C309.146 175.277 309.275 175.076 309.365 174.837L310.772 175.091C310.659 175.505 310.457 175.868 310.165 176.18C309.877 176.488 309.514 176.728 309.077 176.901C308.642 177.07 308.147 177.154 307.59 177.154ZM314.738 177.169C314.254 177.169 313.817 177.08 313.425 176.901C313.034 176.718 312.724 176.455 312.496 176.11C312.27 175.765 312.158 175.343 312.158 174.842C312.158 174.411 312.241 174.057 312.406 173.778C312.572 173.5 312.796 173.28 313.077 173.117C313.359 172.955 313.674 172.832 314.022 172.749C314.37 172.666 314.725 172.603 315.086 172.56C315.543 172.507 315.915 172.464 316.2 172.431C316.485 172.395 316.692 172.337 316.821 172.257C316.95 172.178 317.015 172.048 317.015 171.869V171.835C317.015 171.4 316.892 171.064 316.647 170.825C316.405 170.587 316.044 170.467 315.563 170.467C315.063 170.467 314.668 170.578 314.38 170.8C314.095 171.019 313.898 171.263 313.788 171.531L312.391 171.213C312.557 170.749 312.799 170.375 313.117 170.089C313.439 169.801 313.808 169.592 314.226 169.463C314.643 169.33 315.083 169.264 315.543 169.264C315.848 169.264 316.171 169.301 316.513 169.374C316.857 169.443 317.179 169.572 317.477 169.761C317.779 169.95 318.026 170.22 318.218 170.572C318.41 170.92 318.506 171.372 318.506 171.929V177H317.055V175.956H316.995C316.899 176.148 316.755 176.337 316.563 176.523C316.37 176.708 316.123 176.862 315.822 176.985C315.52 177.108 315.159 177.169 314.738 177.169ZM315.061 175.976C315.472 175.976 315.823 175.895 316.115 175.732C316.41 175.57 316.634 175.358 316.786 175.096C316.942 174.831 317.02 174.547 317.02 174.246V173.261C316.967 173.314 316.864 173.364 316.712 173.411C316.563 173.454 316.392 173.492 316.2 173.525C316.007 173.555 315.82 173.583 315.638 173.609C315.456 173.633 315.303 173.652 315.18 173.669C314.892 173.705 314.629 173.767 314.39 173.853C314.155 173.939 313.966 174.063 313.823 174.226C313.684 174.385 313.614 174.597 313.614 174.862C313.614 175.23 313.75 175.509 314.022 175.697C314.294 175.883 314.64 175.976 315.061 175.976ZM323.345 177.149C322.729 177.149 322.178 176.992 321.694 176.677C321.214 176.359 320.836 175.906 320.561 175.32C320.289 174.73 320.153 174.022 320.153 173.197C320.153 172.371 320.291 171.665 320.566 171.079C320.844 170.492 321.225 170.043 321.709 169.732C322.193 169.42 322.742 169.264 323.355 169.264C323.829 169.264 324.21 169.344 324.498 169.503C324.79 169.659 325.015 169.841 325.175 170.05C325.337 170.259 325.463 170.442 325.552 170.602H325.642V166.818H327.128V177H325.677V175.812H325.552C325.463 175.974 325.334 176.16 325.165 176.369C324.999 176.577 324.77 176.76 324.479 176.915C324.187 177.071 323.809 177.149 323.345 177.149ZM323.673 175.881C324.101 175.881 324.462 175.769 324.757 175.543C325.055 175.315 325.281 174.998 325.433 174.594C325.589 174.189 325.667 173.719 325.667 173.182C325.667 172.652 325.591 172.187 325.438 171.79C325.286 171.392 325.062 171.082 324.767 170.86C324.472 170.638 324.107 170.527 323.673 170.527C323.226 170.527 322.853 170.643 322.555 170.875C322.256 171.107 322.031 171.424 321.878 171.825C321.729 172.226 321.655 172.678 321.655 173.182C321.655 173.692 321.731 174.151 321.883 174.559C322.036 174.967 322.261 175.29 322.56 175.528C322.861 175.764 323.232 175.881 323.673 175.881ZM332.955 177V169.364H334.392V170.577H334.471C334.611 170.166 334.856 169.843 335.207 169.607C335.562 169.369 335.963 169.249 336.41 169.249C336.503 169.249 336.613 169.253 336.738 169.259C336.868 169.266 336.969 169.274 337.042 169.284V170.706C336.982 170.689 336.876 170.671 336.724 170.651C336.571 170.628 336.419 170.616 336.266 170.616C335.915 170.616 335.602 170.691 335.327 170.84C335.055 170.986 334.839 171.19 334.68 171.452C334.521 171.71 334.442 172.005 334.442 172.337V177H332.955ZM341.346 177.154C340.594 177.154 339.946 176.993 339.402 176.672C338.862 176.347 338.444 175.891 338.149 175.305C337.857 174.715 337.712 174.024 337.712 173.232C337.712 172.449 337.857 171.76 338.149 171.163C338.444 170.567 338.855 170.101 339.382 169.766C339.912 169.432 340.532 169.264 341.241 169.264C341.672 169.264 342.09 169.335 342.494 169.478C342.899 169.621 343.262 169.844 343.583 170.149C343.905 170.454 344.158 170.85 344.344 171.337C344.529 171.821 344.622 172.41 344.622 173.102V173.629H338.552V172.516H343.166C343.166 172.125 343.086 171.778 342.927 171.477C342.768 171.172 342.544 170.931 342.256 170.756C341.971 170.58 341.636 170.492 341.251 170.492C340.834 170.492 340.469 170.595 340.158 170.8C339.849 171.003 339.611 171.268 339.442 171.596C339.276 171.921 339.193 172.274 339.193 172.655V173.525C339.193 174.035 339.283 174.469 339.462 174.827C339.644 175.185 339.898 175.459 340.222 175.648C340.547 175.833 340.927 175.926 341.361 175.926C341.643 175.926 341.899 175.886 342.131 175.807C342.363 175.724 342.564 175.601 342.733 175.439C342.902 175.277 343.031 175.076 343.121 174.837L344.528 175.091C344.415 175.505 344.213 175.868 343.921 176.18C343.633 176.488 343.27 176.728 342.832 176.901C342.398 177.07 341.903 177.154 341.346 177.154ZM351.994 171.228L350.647 171.467C350.59 171.294 350.501 171.13 350.378 170.974C350.259 170.819 350.096 170.691 349.891 170.592C349.685 170.492 349.428 170.442 349.12 170.442C348.699 170.442 348.348 170.537 348.066 170.726C347.785 170.911 347.644 171.152 347.644 171.447C347.644 171.702 347.738 171.907 347.927 172.063C348.116 172.219 348.421 172.347 348.842 172.446L350.055 172.724C350.758 172.887 351.281 173.137 351.626 173.475C351.971 173.813 352.143 174.252 352.143 174.793C352.143 175.25 352.01 175.658 351.745 176.016C351.483 176.37 351.117 176.649 350.647 176.851C350.179 177.053 349.637 177.154 349.021 177.154C348.166 177.154 347.468 176.972 346.928 176.607C346.388 176.239 346.056 175.717 345.933 175.041L347.37 174.822C347.46 175.197 347.644 175.48 347.922 175.673C348.2 175.862 348.563 175.956 349.011 175.956C349.498 175.956 349.888 175.855 350.179 175.653C350.471 175.447 350.617 175.197 350.617 174.902C350.617 174.663 350.527 174.463 350.348 174.3C350.173 174.138 349.902 174.015 349.538 173.933L348.245 173.649C347.533 173.487 347.006 173.228 346.664 172.874C346.326 172.519 346.157 172.07 346.157 171.526C346.157 171.076 346.283 170.681 346.535 170.343C346.787 170.005 347.135 169.741 347.579 169.553C348.023 169.36 348.532 169.264 349.105 169.264C349.931 169.264 350.58 169.443 351.054 169.801C351.528 170.156 351.841 170.631 351.994 171.228ZM357.069 177.154C356.316 177.154 355.668 176.993 355.125 176.672C354.584 176.347 354.167 175.891 353.872 175.305C353.58 174.715 353.434 174.024 353.434 173.232C353.434 172.449 353.58 171.76 353.872 171.163C354.167 170.567 354.578 170.101 355.105 169.766C355.635 169.432 356.255 169.264 356.964 169.264C357.395 169.264 357.813 169.335 358.217 169.478C358.621 169.621 358.984 169.844 359.306 170.149C359.627 170.454 359.881 170.85 360.066 171.337C360.252 171.821 360.345 172.41 360.345 173.102V173.629H354.275V172.516H358.888C358.888 172.125 358.809 171.778 358.65 171.477C358.49 171.172 358.267 170.931 357.978 170.756C357.693 170.58 357.359 170.492 356.974 170.492C356.556 170.492 356.192 170.595 355.88 170.8C355.572 171.003 355.333 171.268 355.164 171.596C354.999 171.921 354.916 172.274 354.916 172.655V173.525C354.916 174.035 355.005 174.469 355.184 174.827C355.367 175.185 355.62 175.459 355.945 175.648C356.27 175.833 356.649 175.926 357.083 175.926C357.365 175.926 357.622 175.886 357.854 175.807C358.086 175.724 358.287 175.601 358.456 175.439C358.625 175.277 358.754 175.076 358.843 174.837L360.25 175.091C360.138 175.505 359.936 175.868 359.644 176.18C359.355 176.488 358.993 176.728 358.555 176.901C358.121 177.07 357.625 177.154 357.069 177.154ZM364.216 177.169C363.733 177.169 363.295 177.08 362.904 176.901C362.513 176.718 362.203 176.455 361.974 176.11C361.749 175.765 361.636 175.343 361.636 174.842C361.636 174.411 361.719 174.057 361.885 173.778C362.051 173.5 362.274 173.28 362.556 173.117C362.838 172.955 363.153 172.832 363.501 172.749C363.849 172.666 364.203 172.603 364.564 172.56C365.022 172.507 365.393 172.464 365.678 172.431C365.963 172.395 366.17 172.337 366.3 172.257C366.429 172.178 366.493 172.048 366.493 171.869V171.835C366.493 171.4 366.371 171.064 366.126 170.825C365.884 170.587 365.522 170.467 365.042 170.467C364.541 170.467 364.147 170.578 363.859 170.8C363.573 171.019 363.376 171.263 363.267 171.531L361.87 171.213C362.036 170.749 362.278 170.375 362.596 170.089C362.917 169.801 363.287 169.592 363.704 169.463C364.122 169.33 364.561 169.264 365.022 169.264C365.327 169.264 365.65 169.301 365.991 169.374C366.336 169.443 366.658 169.572 366.956 169.761C367.257 169.95 367.504 170.22 367.697 170.572C367.889 170.92 367.985 171.372 367.985 171.929V177H366.533V175.956H366.474C366.377 176.148 366.233 176.337 366.041 176.523C365.849 176.708 365.602 176.862 365.3 176.985C364.999 177.108 364.637 177.169 364.216 177.169ZM364.54 175.976C364.951 175.976 365.302 175.895 365.594 175.732C365.889 175.57 366.112 175.358 366.265 175.096C366.421 174.831 366.498 174.547 366.498 174.246V173.261C366.445 173.314 366.343 173.364 366.19 173.411C366.041 173.454 365.87 173.492 365.678 173.525C365.486 173.555 365.299 173.583 365.116 173.609C364.934 173.633 364.782 173.652 364.659 173.669C364.371 173.705 364.107 173.767 363.868 173.853C363.633 173.939 363.444 174.063 363.302 174.226C363.162 174.385 363.093 174.597 363.093 174.862C363.093 175.23 363.229 175.509 363.501 175.697C363.772 175.883 364.119 175.976 364.54 175.976ZM369.965 177V169.364H371.402V170.577H371.481C371.62 170.166 371.866 169.843 372.217 169.607C372.572 169.369 372.973 169.249 373.42 169.249C373.513 169.249 373.622 169.253 373.748 169.259C373.878 169.266 373.979 169.274 374.052 169.284V170.706C373.992 170.689 373.886 170.671 373.733 170.651C373.581 170.628 373.428 170.616 373.276 170.616C372.925 170.616 372.611 170.691 372.336 170.84C372.065 170.986 371.849 171.19 371.69 171.452C371.531 171.71 371.451 172.005 371.451 172.337V177H369.965ZM378.281 177.154C377.542 177.154 376.906 176.987 376.372 176.652C375.842 176.314 375.434 175.848 375.149 175.255C374.864 174.662 374.721 173.982 374.721 173.217C374.721 172.441 374.867 171.757 375.159 171.163C375.451 170.567 375.862 170.101 376.392 169.766C376.922 169.432 377.547 169.264 378.266 169.264C378.846 169.264 379.363 169.372 379.817 169.587C380.271 169.799 380.638 170.098 380.916 170.482C381.198 170.867 381.365 171.316 381.418 171.83H379.971C379.892 171.472 379.71 171.163 379.425 170.905C379.143 170.646 378.765 170.517 378.291 170.517C377.877 170.517 377.514 170.626 377.202 170.845C376.894 171.061 376.654 171.369 376.481 171.77C376.309 172.168 376.223 172.638 376.223 173.182C376.223 173.739 376.307 174.219 376.476 174.624C376.645 175.028 376.884 175.341 377.192 175.563C377.504 175.785 377.87 175.896 378.291 175.896C378.573 175.896 378.828 175.845 379.057 175.742C379.289 175.636 379.483 175.485 379.638 175.29C379.797 175.094 379.908 174.859 379.971 174.584H381.418C381.365 175.078 381.204 175.518 380.936 175.906C380.667 176.294 380.308 176.599 379.857 176.821C379.41 177.043 378.884 177.154 378.281 177.154ZM384.494 172.466V177H383.008V166.818H384.474V170.607H384.569C384.748 170.196 385.021 169.869 385.389 169.627C385.757 169.385 386.238 169.264 386.831 169.264C387.355 169.264 387.812 169.372 388.203 169.587C388.598 169.803 388.902 170.124 389.118 170.552C389.337 170.976 389.446 171.506 389.446 172.143V177H387.96V172.322C387.96 171.762 387.815 171.327 387.527 171.019C387.239 170.708 386.838 170.552 386.324 170.552C385.973 170.552 385.658 170.626 385.379 170.776C385.104 170.925 384.887 171.143 384.728 171.432C384.572 171.717 384.494 172.062 384.494 172.466Z" fill="#A86128"/>
<g opacity="0.8416">
<path d="M280.814 175.872C280.613 176.289 280.106 176.468 279.729 176.199C279.024 175.697 278.456 175.017 278.09 174.221C277.605 173.171 277.499 171.985 277.791 170.866C278.083 169.746 278.754 168.763 279.689 168.082C280.625 167.402 281.767 167.067 282.922 167.135C284.077 167.203 285.173 167.669 286.022 168.454C286.872 169.239 287.423 170.294 287.582 171.44C287.741 172.586 287.498 173.751 286.894 174.738C286.436 175.485 285.794 176.094 285.034 176.51C284.628 176.733 284.146 176.496 283.995 176.059C283.843 175.622 284.083 175.152 284.468 174.896C284.869 174.63 285.21 174.279 285.465 173.863C285.866 173.207 286.028 172.432 285.923 171.67C285.817 170.908 285.45 170.206 284.885 169.684C284.32 169.163 283.592 168.853 282.824 168.808C282.056 168.763 281.297 168.985 280.674 169.438C280.052 169.89 279.606 170.544 279.412 171.288C279.218 172.033 279.289 172.821 279.611 173.519C279.815 173.962 280.113 174.351 280.48 174.662C280.832 174.962 281.016 175.456 280.814 175.872Z" fill="#F4A20C"/>
</g>
<g filter="url(#filter2_di_2726_984)">
<rect x="246" y="242" width="40" height="40" rx="8" fill="white" shape-rendering="crispEdges"/>
<g clip-path="url(#clip6_2726_984)">
<g clip-path="url(#clip7_2726_984)">
<g clip-path="url(#clip8_2726_984)">
<mask id="mask1_2726_984" style="mask-type:luminance" maskUnits="userSpaceOnUse" x="256" y="251" width="20" height="21">
<path d="M276 251.13H256V271.13H276V251.13Z" fill="white"/>
</mask>
<g mask="url(#mask1_2726_984)">
<path fill-rule="evenodd" clip-rule="evenodd" d="M258.222 271.13H273.778C275.005 271.13 276 270.135 276 268.908V253.352C276 252.125 275.005 251.13 273.778 251.13H258.222C256.995 251.13 256 252.125 256 253.352V268.908C256 270.135 256.995 271.13 258.222 271.13Z" fill="#007EBB"/>
<path fill-rule="evenodd" clip-rule="evenodd" d="M273.222 268.352H270.254V263.297C270.254 261.911 269.727 261.137 268.63 261.137C267.437 261.137 266.813 261.943 266.813 263.297V268.352H263.953V258.723H266.813V260.02C266.813 260.02 267.673 258.428 269.717 258.428C271.759 258.428 273.222 259.676 273.222 262.255V268.352ZM260.541 257.462C259.567 257.462 258.777 256.666 258.777 255.685C258.777 254.703 259.567 253.908 260.541 253.908C261.515 253.908 262.304 254.703 262.304 255.685C262.304 256.666 261.515 257.462 260.541 257.462ZM259.064 268.352H262.047V258.723H259.064V268.352Z" fill="white"/>
</g>
</g>
</g>
</g>
</g>
<rect x="302" y="250" width="181.7" height="24" rx="12" fill="#0D162F" fill-opacity="0.04"/>
<rect x="310" y="258" width="8" height="8" rx="4" fill="#B0B2BB"/>
<path d="M327.369 267V256.818H330.998C331.79 256.818 332.447 256.962 332.967 257.251C333.487 257.539 333.877 257.933 334.135 258.434C334.394 258.931 334.523 259.491 334.523 260.114C334.523 260.741 334.392 261.304 334.13 261.805C333.872 262.302 333.481 262.696 332.957 262.988C332.437 263.276 331.782 263.42 330.993 263.42H328.497V262.118H330.854C331.354 262.118 331.76 262.032 332.072 261.859C332.384 261.684 332.612 261.445 332.758 261.143C332.904 260.842 332.977 260.499 332.977 260.114C332.977 259.73 332.904 259.388 332.758 259.09C332.612 258.792 332.382 258.558 332.067 258.389C331.755 258.22 331.344 258.136 330.834 258.136H328.905V267H327.369ZM339.4 267.154C338.648 267.154 338 266.993 337.456 266.672C336.916 266.347 336.498 265.891 336.203 265.305C335.912 264.715 335.766 264.024 335.766 263.232C335.766 262.449 335.912 261.76 336.203 261.163C336.498 260.567 336.909 260.101 337.436 259.766C337.967 259.432 338.586 259.264 339.296 259.264C339.727 259.264 340.144 259.335 340.549 259.478C340.953 259.621 341.316 259.844 341.637 260.149C341.959 260.454 342.212 260.85 342.398 261.337C342.584 261.821 342.676 262.41 342.676 263.102V263.629H336.606V262.516H341.22C341.22 262.125 341.14 261.778 340.981 261.477C340.822 261.172 340.598 260.931 340.31 260.756C340.025 260.58 339.69 260.492 339.306 260.492C338.888 260.492 338.523 260.595 338.212 260.8C337.904 261.003 337.665 261.268 337.496 261.596C337.33 261.921 337.247 262.274 337.247 262.655V263.525C337.247 264.035 337.337 264.469 337.516 264.827C337.698 265.185 337.952 265.459 338.277 265.648C338.601 265.833 338.981 265.926 339.415 265.926C339.697 265.926 339.954 265.886 340.186 265.807C340.418 265.724 340.618 265.601 340.787 265.439C340.956 265.277 341.085 265.076 341.175 264.837L342.582 265.091C342.469 265.505 342.267 265.868 341.975 266.18C341.687 266.488 341.324 266.728 340.887 266.901C340.452 267.07 339.957 267.154 339.4 267.154ZM344.326 267V259.364H345.763V260.577H345.842C345.981 260.166 346.227 259.843 346.578 259.607C346.932 259.369 347.334 259.249 347.781 259.249C347.874 259.249 347.983 259.253 348.109 259.259C348.238 259.266 348.339 259.274 348.412 259.284V260.706C348.353 260.689 348.247 260.671 348.094 260.651C347.942 260.628 347.789 260.616 347.637 260.616C347.285 260.616 346.972 260.691 346.697 260.84C346.425 260.986 346.21 261.19 346.051 261.452C345.892 261.71 345.812 262.005 345.812 262.337V267H344.326ZM355.421 261.228L354.074 261.467C354.017 261.294 353.928 261.13 353.805 260.974C353.686 260.819 353.524 260.691 353.318 260.592C353.113 260.492 352.856 260.442 352.547 260.442C352.127 260.442 351.775 260.537 351.494 260.726C351.212 260.911 351.071 261.152 351.071 261.447C351.071 261.702 351.165 261.907 351.354 262.063C351.543 262.219 351.848 262.347 352.269 262.446L353.482 262.724C354.185 262.887 354.708 263.137 355.053 263.475C355.398 263.813 355.57 264.252 355.57 264.793C355.57 265.25 355.438 265.658 355.172 266.016C354.911 266.37 354.544 266.649 354.074 266.851C353.606 267.053 353.065 267.154 352.448 267.154C351.593 267.154 350.895 266.972 350.355 266.607C349.815 266.239 349.483 265.717 349.361 265.041L350.797 264.822C350.887 265.197 351.071 265.48 351.349 265.673C351.628 265.862 351.991 265.956 352.438 265.956C352.925 265.956 353.315 265.855 353.606 265.653C353.898 265.447 354.044 265.197 354.044 264.902C354.044 264.663 353.954 264.463 353.775 264.3C353.6 264.138 353.33 264.015 352.965 263.933L351.672 263.649C350.96 263.487 350.433 263.228 350.092 262.874C349.753 262.519 349.584 262.07 349.584 261.526C349.584 261.076 349.71 260.681 349.962 260.343C350.214 260.005 350.562 259.741 351.006 259.553C351.45 259.36 351.959 259.264 352.533 259.264C353.358 259.264 354.007 259.443 354.481 259.801C354.955 260.156 355.269 260.631 355.421 261.228ZM360.421 267.154C359.705 267.154 359.081 266.99 358.547 266.662C358.013 266.334 357.599 265.875 357.304 265.285C357.009 264.695 356.862 264.005 356.862 263.217C356.862 262.424 357.009 261.732 357.304 261.138C357.599 260.545 358.013 260.085 358.547 259.756C359.081 259.428 359.705 259.264 360.421 259.264C361.137 259.264 361.762 259.428 362.296 259.756C362.829 260.085 363.243 260.545 363.538 261.138C363.833 261.732 363.981 262.424 363.981 263.217C363.981 264.005 363.833 264.695 363.538 265.285C363.243 265.875 362.829 266.334 362.296 266.662C361.762 266.99 361.137 267.154 360.421 267.154ZM360.426 265.906C360.89 265.906 361.275 265.784 361.58 265.538C361.885 265.293 362.11 264.967 362.256 264.559C362.405 264.151 362.479 263.702 362.479 263.212C362.479 262.724 362.405 262.277 362.256 261.869C362.11 261.458 361.885 261.129 361.58 260.88C361.275 260.631 360.89 260.507 360.426 260.507C359.959 260.507 359.571 260.631 359.263 260.88C358.958 261.129 358.731 261.458 358.582 261.869C358.436 262.277 358.363 262.724 358.363 263.212C358.363 263.702 358.436 264.151 358.582 264.559C358.731 264.967 358.958 265.293 359.263 265.538C359.571 265.784 359.959 265.906 360.426 265.906ZM367.127 262.466V267H365.64V259.364H367.067V260.607H367.161C367.337 260.202 367.612 259.877 367.987 259.632C368.365 259.387 368.84 259.264 369.414 259.264C369.934 259.264 370.39 259.374 370.781 259.592C371.172 259.808 371.475 260.129 371.691 260.557C371.906 260.984 372.014 261.513 372.014 262.143V267H370.527V262.322C370.527 261.768 370.383 261.336 370.095 261.024C369.806 260.709 369.41 260.552 368.907 260.552C368.562 260.552 368.255 260.626 367.987 260.776C367.722 260.925 367.511 261.143 367.355 261.432C367.203 261.717 367.127 262.062 367.127 262.466ZM376.23 267.169C375.746 267.169 375.308 267.08 374.917 266.901C374.526 266.718 374.216 266.455 373.987 266.11C373.762 265.765 373.649 265.343 373.649 264.842C373.649 264.411 373.732 264.057 373.898 263.778C374.064 263.5 374.287 263.28 374.569 263.117C374.851 262.955 375.166 262.832 375.514 262.749C375.862 262.666 376.216 262.603 376.578 262.56C377.035 262.507 377.406 262.464 377.691 262.431C377.976 262.395 378.184 262.337 378.313 262.257C378.442 262.178 378.507 262.048 378.507 261.869V261.835C378.507 261.4 378.384 261.064 378.139 260.825C377.897 260.587 377.536 260.467 377.055 260.467C376.554 260.467 376.16 260.578 375.872 260.8C375.587 261.019 375.389 261.263 375.28 261.531L373.883 261.213C374.049 260.749 374.291 260.375 374.609 260.089C374.93 259.801 375.3 259.592 375.718 259.463C376.135 259.33 376.574 259.264 377.035 259.264C377.34 259.264 377.663 259.301 378.005 259.374C378.349 259.443 378.671 259.572 378.969 259.761C379.271 259.95 379.518 260.22 379.71 260.572C379.902 260.92 379.998 261.372 379.998 261.929V267H378.546V265.956H378.487C378.391 266.148 378.246 266.337 378.054 266.523C377.862 266.708 377.615 266.862 377.313 266.985C377.012 267.108 376.651 267.169 376.23 267.169ZM376.553 265.976C376.964 265.976 377.315 265.895 377.607 265.732C377.902 265.57 378.126 265.358 378.278 265.096C378.434 264.831 378.512 264.547 378.512 264.246V263.261C378.459 263.314 378.356 263.364 378.203 263.411C378.054 263.454 377.884 263.492 377.691 263.525C377.499 263.555 377.312 263.583 377.13 263.609C376.947 263.633 376.795 263.652 376.672 263.669C376.384 263.705 376.12 263.767 375.882 263.853C375.646 263.939 375.457 264.063 375.315 264.226C375.176 264.385 375.106 264.597 375.106 264.862C375.106 265.23 375.242 265.509 375.514 265.697C375.786 265.883 376.132 265.976 376.553 265.976ZM383.465 256.818V267H381.978V256.818H383.465ZM385.464 267V259.364H386.951V267H385.464ZM386.215 258.185C385.957 258.185 385.735 258.099 385.549 257.927C385.367 257.751 385.275 257.542 385.275 257.3C385.275 257.055 385.367 256.846 385.549 256.674C385.735 256.498 385.957 256.411 386.215 256.411C386.474 256.411 386.694 256.498 386.876 256.674C387.062 256.846 387.155 257.055 387.155 257.3C387.155 257.542 387.062 257.751 386.876 257.927C386.694 258.099 386.474 258.185 386.215 258.185ZM394.673 261.228L393.326 261.467C393.269 261.294 393.18 261.13 393.057 260.974C392.938 260.819 392.776 260.691 392.57 260.592C392.365 260.492 392.108 260.442 391.799 260.442C391.379 260.442 391.027 260.537 390.745 260.726C390.464 260.911 390.323 261.152 390.323 261.447C390.323 261.702 390.417 261.907 390.606 262.063C390.795 262.219 391.1 262.347 391.521 262.446L392.734 262.724C393.437 262.887 393.96 263.137 394.305 263.475C394.65 263.813 394.822 264.252 394.822 264.793C394.822 265.25 394.69 265.658 394.424 266.016C394.163 266.37 393.796 266.649 393.326 266.851C392.858 267.053 392.316 267.154 391.7 267.154C390.845 267.154 390.147 266.972 389.607 266.607C389.067 266.239 388.735 265.717 388.613 265.041L390.049 264.822C390.139 265.197 390.323 265.48 390.601 265.673C390.88 265.862 391.243 265.956 391.69 265.956C392.177 265.956 392.567 265.855 392.858 265.653C393.15 265.447 393.296 265.197 393.296 264.902C393.296 264.663 393.206 264.463 393.027 264.3C392.852 264.138 392.582 264.015 392.217 263.933L390.924 263.649C390.212 263.487 389.685 263.228 389.343 262.874C389.005 262.519 388.836 262.07 388.836 261.526C388.836 261.076 388.962 260.681 389.214 260.343C389.466 260.005 389.814 259.741 390.258 259.553C390.702 259.36 391.211 259.264 391.785 259.264C392.61 259.264 393.259 259.443 393.733 259.801C394.207 260.156 394.521 260.631 394.673 261.228ZM399.748 267.154C398.995 267.154 398.347 266.993 397.804 266.672C397.264 266.347 396.846 265.891 396.551 265.305C396.259 264.715 396.114 264.024 396.114 263.232C396.114 262.449 396.259 261.76 396.551 261.163C396.846 260.567 397.257 260.101 397.784 259.766C398.314 259.432 398.934 259.264 399.643 259.264C400.074 259.264 400.492 259.335 400.896 259.478C401.301 259.621 401.664 259.844 401.985 260.149C402.306 260.454 402.56 260.85 402.746 261.337C402.931 261.821 403.024 262.41 403.024 263.102V263.629H396.954V262.516H401.567C401.567 262.125 401.488 261.778 401.329 261.477C401.17 261.172 400.946 260.931 400.658 260.756C400.373 260.58 400.038 260.492 399.653 260.492C399.236 260.492 398.871 260.595 398.56 260.8C398.251 261.003 398.013 261.268 397.844 261.596C397.678 261.921 397.595 262.274 397.595 262.655V263.525C397.595 264.035 397.685 264.469 397.864 264.827C398.046 265.185 398.299 265.459 398.624 265.648C398.949 265.833 399.329 265.926 399.763 265.926C400.044 265.926 400.301 265.886 400.533 265.807C400.765 265.724 400.966 265.601 401.135 265.439C401.304 265.277 401.433 265.076 401.523 264.837L402.93 265.091C402.817 265.505 402.615 265.868 402.323 266.18C402.035 266.488 401.672 266.728 401.234 266.901C400.8 267.07 400.305 267.154 399.748 267.154ZM407.532 267.149C406.916 267.149 406.365 266.992 405.881 266.677C405.401 266.359 405.023 265.906 404.748 265.32C404.476 264.73 404.34 264.022 404.34 263.197C404.34 262.371 404.478 261.665 404.753 261.079C405.031 260.492 405.412 260.043 405.896 259.732C406.38 259.42 406.929 259.264 407.542 259.264C408.016 259.264 408.397 259.344 408.685 259.503C408.977 259.659 409.203 259.841 409.362 260.05C409.524 260.259 409.65 260.442 409.739 260.602H409.829V256.818H411.315V267H409.864V265.812H409.739C409.65 265.974 409.521 266.16 409.352 266.369C409.186 266.577 408.957 266.76 408.666 266.915C408.374 267.071 407.996 267.149 407.532 267.149ZM407.86 265.881C408.288 265.881 408.649 265.769 408.944 265.543C409.242 265.315 409.468 264.998 409.62 264.594C409.776 264.189 409.854 263.719 409.854 263.182C409.854 262.652 409.778 262.187 409.625 261.79C409.473 261.392 409.249 261.082 408.954 260.86C408.659 260.638 408.294 260.527 407.86 260.527C407.413 260.527 407.04 260.643 406.742 260.875C406.443 261.107 406.218 261.424 406.065 261.825C405.916 262.226 405.842 262.678 405.842 263.182C405.842 263.692 405.918 264.151 406.07 264.559C406.223 264.967 406.448 265.29 406.747 265.528C407.048 265.764 407.419 265.881 407.86 265.881ZM420.359 267.154C419.643 267.154 419.018 266.99 418.484 266.662C417.951 266.334 417.537 265.875 417.242 265.285C416.947 264.695 416.799 264.005 416.799 263.217C416.799 262.424 416.947 261.732 417.242 261.138C417.537 260.545 417.951 260.085 418.484 259.756C419.018 259.428 419.643 259.264 420.359 259.264C421.075 259.264 421.699 259.428 422.233 259.756C422.767 260.085 423.181 260.545 423.476 261.138C423.771 261.732 423.918 262.424 423.918 263.217C423.918 264.005 423.771 264.695 423.476 265.285C423.181 265.875 422.767 266.334 422.233 266.662C421.699 266.99 421.075 267.154 420.359 267.154ZM420.364 265.906C420.828 265.906 421.212 265.784 421.517 265.538C421.822 265.293 422.047 264.967 422.193 264.559C422.342 264.151 422.417 263.702 422.417 263.212C422.417 262.724 422.342 262.277 422.193 261.869C422.047 261.458 421.822 261.129 421.517 260.88C421.212 260.631 420.828 260.507 420.364 260.507C419.896 260.507 419.509 260.631 419.2 260.88C418.895 261.129 418.668 261.458 418.519 261.869C418.373 262.277 418.301 262.724 418.301 263.212C418.301 263.702 418.373 264.151 418.519 264.559C418.668 264.967 418.895 265.293 419.2 265.538C419.509 265.784 419.896 265.906 420.364 265.906ZM430.415 263.833V259.364H431.907V267H430.445V265.678H430.365C430.19 266.085 429.908 266.425 429.52 266.697C429.136 266.965 428.657 267.099 428.083 267.099C427.593 267.099 427.159 266.992 426.781 266.776C426.406 266.558 426.111 266.234 425.896 265.807C425.684 265.379 425.578 264.851 425.578 264.221V259.364H427.064V264.042C427.064 264.562 427.208 264.977 427.497 265.285C427.785 265.593 428.16 265.747 428.62 265.747C428.899 265.747 429.175 265.678 429.451 265.538C429.729 265.399 429.959 265.189 430.142 264.907C430.327 264.625 430.418 264.267 430.415 263.833ZM437.468 259.364V260.557H433.297V259.364H437.468ZM434.416 257.534H435.902V264.758C435.902 265.046 435.946 265.263 436.032 265.409C436.118 265.552 436.229 265.649 436.365 265.702C436.504 265.752 436.655 265.777 436.817 265.777C436.937 265.777 437.041 265.769 437.13 265.752C437.22 265.736 437.29 265.722 437.339 265.712L437.608 266.94C437.522 266.973 437.399 267.007 437.24 267.04C437.081 267.076 436.882 267.096 436.643 267.099C436.252 267.106 435.888 267.036 435.549 266.891C435.211 266.745 434.938 266.519 434.729 266.214C434.52 265.91 434.416 265.527 434.416 265.066V257.534ZM439.113 267V259.364H440.55V260.577H440.629C440.768 260.166 441.014 259.843 441.365 259.607C441.72 259.369 442.121 259.249 442.568 259.249C442.661 259.249 442.77 259.253 442.896 259.259C443.025 259.266 443.127 259.274 443.199 259.284V260.706C443.14 260.689 443.034 260.671 442.881 260.651C442.729 260.628 442.576 260.616 442.424 260.616C442.073 260.616 441.759 260.691 441.484 260.84C441.213 260.986 440.997 261.19 440.838 261.452C440.679 261.71 440.599 262.005 440.599 262.337V267H439.113ZM447.504 267.154C446.751 267.154 446.103 266.993 445.56 266.672C445.02 266.347 444.602 265.891 444.307 265.305C444.015 264.715 443.869 264.024 443.869 263.232C443.869 262.449 444.015 261.76 444.307 261.163C444.602 260.567 445.013 260.101 445.54 259.766C446.07 259.432 446.69 259.264 447.399 259.264C447.83 259.264 448.248 259.335 448.652 259.478C449.056 259.621 449.419 259.844 449.741 260.149C450.062 260.454 450.316 260.85 450.502 261.337C450.687 261.821 450.78 262.41 450.78 263.102V263.629H444.71V262.516H449.323C449.323 262.125 449.244 261.778 449.085 261.477C448.926 261.172 448.702 260.931 448.413 260.756C448.128 260.58 447.794 260.492 447.409 260.492C446.992 260.492 446.627 260.595 446.315 260.8C446.007 261.003 445.769 261.268 445.6 261.596C445.434 261.921 445.351 262.274 445.351 262.655V263.525C445.351 264.035 445.44 264.469 445.619 264.827C445.802 265.185 446.055 265.459 446.38 265.648C446.705 265.833 447.084 265.926 447.519 265.926C447.8 265.926 448.057 265.886 448.289 265.807C448.521 265.724 448.722 265.601 448.891 265.439C449.06 265.277 449.189 265.076 449.278 264.837L450.685 265.091C450.573 265.505 450.371 265.868 450.079 266.18C449.791 266.488 449.428 266.728 448.99 266.901C448.556 267.07 448.06 267.154 447.504 267.154ZM454.652 267.169C454.168 267.169 453.73 267.08 453.339 266.901C452.948 266.718 452.638 266.455 452.409 266.11C452.184 265.765 452.071 265.343 452.071 264.842C452.071 264.411 452.154 264.057 452.32 263.778C452.486 263.5 452.709 263.28 452.991 263.117C453.273 262.955 453.588 262.832 453.936 262.749C454.284 262.666 454.638 262.603 455 262.56C455.457 262.507 455.828 262.464 456.113 262.431C456.398 262.395 456.605 262.337 456.735 262.257C456.864 262.178 456.929 262.048 456.929 261.869V261.835C456.929 261.4 456.806 261.064 456.561 260.825C456.319 260.587 455.957 260.467 455.477 260.467C454.976 260.467 454.582 260.578 454.294 260.8C454.009 261.019 453.811 261.263 453.702 261.531L452.305 261.213C452.471 260.749 452.713 260.375 453.031 260.089C453.352 259.801 453.722 259.592 454.139 259.463C454.557 259.33 454.996 259.264 455.457 259.264C455.762 259.264 456.085 259.301 456.426 259.374C456.771 259.443 457.093 259.572 457.391 259.761C457.693 259.95 457.939 260.22 458.132 260.572C458.324 260.92 458.42 261.372 458.42 261.929V267H456.968V265.956H456.909C456.813 266.148 456.668 266.337 456.476 266.523C456.284 266.708 456.037 266.862 455.735 266.985C455.434 267.108 455.072 267.169 454.652 267.169ZM454.975 265.976C455.386 265.976 455.737 265.895 456.029 265.732C456.324 265.57 456.547 265.358 456.7 265.096C456.856 264.831 456.934 264.547 456.934 264.246V263.261C456.88 263.314 456.778 263.364 456.625 263.411C456.476 263.454 456.305 263.492 456.113 263.525C455.921 263.555 455.734 263.583 455.551 263.609C455.369 263.633 455.217 263.652 455.094 263.669C454.806 263.705 454.542 263.767 454.304 263.853C454.068 263.939 453.879 264.063 453.737 264.226C453.598 264.385 453.528 264.597 453.528 264.862C453.528 265.23 453.664 265.509 453.936 265.697C454.207 265.883 454.554 265.976 454.975 265.976ZM463.617 267.154C462.877 267.154 462.241 266.987 461.707 266.652C461.177 266.314 460.77 265.848 460.484 265.255C460.199 264.662 460.057 263.982 460.057 263.217C460.057 262.441 460.203 261.757 460.494 261.163C460.786 260.567 461.197 260.101 461.727 259.766C462.258 259.432 462.882 259.264 463.602 259.264C464.182 259.264 464.699 259.372 465.153 259.587C465.607 259.799 465.973 260.098 466.252 260.482C466.533 260.867 466.701 261.316 466.754 261.83H465.307C465.227 261.472 465.045 261.163 464.76 260.905C464.478 260.646 464.1 260.517 463.627 260.517C463.212 260.517 462.849 260.626 462.538 260.845C462.23 261.061 461.989 261.369 461.817 261.77C461.645 262.168 461.558 262.638 461.558 263.182C461.558 263.739 461.643 264.219 461.812 264.624C461.981 265.028 462.22 265.341 462.528 265.563C462.839 265.785 463.206 265.896 463.627 265.896C463.908 265.896 464.163 265.845 464.392 265.742C464.624 265.636 464.818 265.485 464.974 265.29C465.133 265.094 465.244 264.859 465.307 264.584H466.754C466.701 265.078 466.54 265.518 466.271 265.906C466.003 266.294 465.643 266.599 465.193 266.821C464.745 267.043 464.22 267.154 463.617 267.154ZM469.83 262.466V267H468.343V256.818H469.81V260.607H469.904C470.083 260.196 470.357 259.869 470.725 259.627C471.093 259.385 471.573 259.264 472.166 259.264C472.69 259.264 473.148 259.372 473.539 259.587C473.933 259.803 474.238 260.124 474.453 260.552C474.672 260.976 474.782 261.506 474.782 262.143V267H473.295V262.322C473.295 261.762 473.151 261.327 472.862 261.019C472.574 260.708 472.173 260.552 471.659 260.552C471.308 260.552 470.993 260.626 470.715 260.776C470.44 260.925 470.223 261.143 470.063 261.432C469.908 261.717 469.83 262.062 469.83 262.466Z" fill="#828794"/>
<rect x="271" y="345" width="181.02" height="24" rx="12" fill="#0D162F" fill-opacity="0.04"/>
<rect x="279" y="353" width="8" height="8" rx="4" fill="#B0B2BB"/>
<path d="M323.56 355.129H322.009C321.949 354.798 321.838 354.506 321.676 354.254C321.513 354.002 321.315 353.789 321.079 353.613C320.844 353.437 320.58 353.305 320.289 353.215C320 353.126 319.694 353.081 319.369 353.081C318.782 353.081 318.257 353.228 317.793 353.523C317.332 353.818 316.968 354.251 316.699 354.821C316.434 355.391 316.302 356.087 316.302 356.909C316.302 357.738 316.434 358.437 316.699 359.007C316.968 359.577 317.334 360.008 317.798 360.3C318.262 360.591 318.784 360.737 319.364 360.737C319.686 360.737 319.991 360.694 320.279 360.608C320.571 360.518 320.834 360.388 321.069 360.215C321.305 360.043 321.504 359.832 321.666 359.584C321.832 359.332 321.946 359.044 322.009 358.719L323.56 358.724C323.477 359.224 323.317 359.685 323.078 360.106C322.843 360.523 322.539 360.885 322.168 361.19C321.8 361.491 321.379 361.725 320.905 361.891C320.431 362.056 319.914 362.139 319.354 362.139C318.473 362.139 317.687 361.93 316.998 361.513C316.308 361.092 315.765 360.49 315.367 359.708C314.973 358.926 314.775 357.993 314.775 356.909C314.775 355.822 314.974 354.889 315.372 354.11C315.77 353.328 316.313 352.728 317.003 352.31C317.692 351.889 318.476 351.679 319.354 351.679C319.894 351.679 320.398 351.757 320.866 351.913C321.336 352.065 321.759 352.29 322.133 352.589C322.508 352.884 322.818 353.245 323.063 353.673C323.308 354.097 323.474 354.582 323.56 355.129ZM328.496 362.154C327.78 362.154 327.155 361.99 326.621 361.662C326.088 361.334 325.673 360.875 325.378 360.285C325.083 359.695 324.936 359.005 324.936 358.217C324.936 357.424 325.083 356.732 325.378 356.138C325.673 355.545 326.088 355.085 326.621 354.756C327.155 354.428 327.78 354.264 328.496 354.264C329.212 354.264 329.836 354.428 330.37 354.756C330.904 355.085 331.318 355.545 331.613 356.138C331.908 356.732 332.055 357.424 332.055 358.217C332.055 359.005 331.908 359.695 331.613 360.285C331.318 360.875 330.904 361.334 330.37 361.662C329.836 361.99 329.212 362.154 328.496 362.154ZM328.501 360.906C328.965 360.906 329.349 360.784 329.654 360.538C329.959 360.293 330.184 359.967 330.33 359.559C330.479 359.151 330.554 358.702 330.554 358.212C330.554 357.724 330.479 357.277 330.33 356.869C330.184 356.458 329.959 356.129 329.654 355.88C329.349 355.631 328.965 355.507 328.501 355.507C328.033 355.507 327.646 355.631 327.337 355.88C327.032 356.129 326.805 356.458 326.656 356.869C326.51 357.277 326.437 357.724 326.437 358.212C326.437 358.702 326.51 359.151 326.656 359.559C326.805 359.967 327.032 360.293 327.337 360.538C327.646 360.784 328.033 360.906 328.501 360.906ZM335.201 357.466V362H333.715V354.364H335.141V355.607H335.236C335.412 355.202 335.687 354.877 336.061 354.632C336.439 354.387 336.915 354.264 337.488 354.264C338.008 354.264 338.464 354.374 338.855 354.592C339.246 354.808 339.55 355.129 339.765 355.557C339.98 355.984 340.088 356.513 340.088 357.143V362H338.602V357.322C338.602 356.768 338.457 356.336 338.169 356.024C337.881 355.709 337.485 355.552 336.981 355.552C336.636 355.552 336.33 355.626 336.061 355.776C335.796 355.925 335.586 356.143 335.43 356.432C335.277 356.717 335.201 357.062 335.201 357.466ZM345.716 354.364V355.557H341.401V354.364H345.716ZM342.584 362V353.479C342.584 353.001 342.688 352.605 342.897 352.29C343.106 351.972 343.383 351.735 343.727 351.58C344.072 351.42 344.447 351.341 344.851 351.341C345.149 351.341 345.404 351.366 345.617 351.415C345.829 351.462 345.986 351.505 346.089 351.545L345.741 352.748C345.671 352.728 345.582 352.705 345.472 352.678C345.363 352.648 345.23 352.634 345.075 352.634C344.713 352.634 344.455 352.723 344.299 352.902C344.147 353.081 344.07 353.339 344.07 353.678V362H342.584ZM347.25 362V354.364H348.736V362H347.25ZM348 353.185C347.742 353.185 347.52 353.099 347.334 352.927C347.152 352.751 347.061 352.542 347.061 352.3C347.061 352.055 347.152 351.846 347.334 351.674C347.52 351.498 347.742 351.411 348 351.411C348.259 351.411 348.479 351.498 348.662 351.674C348.847 351.846 348.94 352.055 348.94 352.3C348.94 352.542 348.847 352.751 348.662 352.927C348.479 353.099 348.259 353.185 348 353.185ZM350.736 362V354.364H352.173V355.577H352.252C352.392 355.166 352.637 354.843 352.988 354.607C353.343 354.369 353.744 354.249 354.191 354.249C354.284 354.249 354.394 354.253 354.519 354.259C354.649 354.266 354.75 354.274 354.823 354.284V355.706C354.763 355.689 354.657 355.671 354.505 355.651C354.352 355.628 354.2 355.616 354.047 355.616C353.696 355.616 353.383 355.691 353.108 355.84C352.836 355.986 352.62 356.19 352.461 356.452C352.302 356.71 352.223 357.005 352.223 357.337V362H350.736ZM356.109 362V354.364H357.536V355.607H357.63C357.79 355.186 358.05 354.857 358.411 354.622C358.772 354.384 359.205 354.264 359.709 354.264C360.219 354.264 360.647 354.384 360.991 354.622C361.339 354.861 361.596 355.189 361.762 355.607H361.841C362.024 355.199 362.314 354.874 362.711 354.632C363.109 354.387 363.583 354.264 364.133 354.264C364.826 354.264 365.391 354.481 365.829 354.915C366.269 355.35 366.49 356.004 366.49 356.879V362H365.003V357.018C365.003 356.501 364.862 356.127 364.581 355.895C364.299 355.663 363.963 355.547 363.571 355.547C363.088 355.547 362.711 355.696 362.443 355.994C362.174 356.289 362.04 356.669 362.04 357.133V362H360.559V356.924C360.559 356.51 360.429 356.177 360.171 355.925C359.912 355.673 359.576 355.547 359.162 355.547C358.88 355.547 358.62 355.621 358.381 355.771C358.146 355.916 357.955 356.12 357.809 356.382C357.667 356.644 357.596 356.947 357.596 357.292V362H356.109ZM372.187 362V354.364H373.614V355.607H373.709C373.868 355.186 374.128 354.857 374.489 354.622C374.85 354.384 375.283 354.264 375.787 354.264C376.297 354.264 376.725 354.384 377.069 354.622C377.417 354.861 377.674 355.189 377.84 355.607H377.919C378.102 355.199 378.392 354.874 378.79 354.632C379.187 354.387 379.661 354.264 380.211 354.264C380.904 354.264 381.469 354.481 381.907 354.915C382.348 355.35 382.568 356.004 382.568 356.879V362H381.081V357.018C381.081 356.501 380.941 356.127 380.659 355.895C380.377 355.663 380.041 355.547 379.65 355.547C379.166 355.547 378.79 355.696 378.521 355.994C378.253 356.289 378.118 356.669 378.118 357.133V362H376.637V356.924C376.637 356.51 376.508 356.177 376.249 355.925C375.991 355.673 375.654 355.547 375.24 355.547C374.958 355.547 374.698 355.621 374.459 355.771C374.224 355.916 374.033 356.12 373.888 356.382C373.745 356.644 373.674 356.947 373.674 357.292V362H372.187ZM387.851 362.154C387.099 362.154 386.451 361.993 385.908 361.672C385.367 361.347 384.95 360.891 384.655 360.305C384.363 359.715 384.217 359.024 384.217 358.232C384.217 357.449 384.363 356.76 384.655 356.163C384.95 355.567 385.361 355.101 385.888 354.766C386.418 354.432 387.038 354.264 387.747 354.264C388.178 354.264 388.596 354.335 389 354.478C389.404 354.621 389.767 354.844 390.089 355.149C390.41 355.454 390.664 355.85 390.849 356.337C391.035 356.821 391.128 357.41 391.128 358.102V358.629H385.057V357.516H389.671C389.671 357.125 389.592 356.778 389.432 356.477C389.273 356.172 389.05 355.931 388.761 355.756C388.476 355.58 388.141 355.492 387.757 355.492C387.339 355.492 386.975 355.595 386.663 355.8C386.355 356.003 386.116 356.268 385.947 356.596C385.782 356.921 385.699 357.274 385.699 357.655V358.525C385.699 359.035 385.788 359.469 385.967 359.827C386.15 360.185 386.403 360.459 386.728 360.648C387.053 360.833 387.432 360.926 387.866 360.926C388.148 360.926 388.405 360.886 388.637 360.807C388.869 360.724 389.07 360.601 389.239 360.439C389.408 360.277 389.537 360.076 389.626 359.837L391.033 360.091C390.921 360.505 390.718 360.868 390.427 361.18C390.138 361.488 389.775 361.728 389.338 361.901C388.904 362.07 388.408 362.154 387.851 362.154ZM396.068 362.154C395.316 362.154 394.668 361.993 394.124 361.672C393.584 361.347 393.167 360.891 392.872 360.305C392.58 359.715 392.434 359.024 392.434 358.232C392.434 357.449 392.58 356.76 392.872 356.163C393.167 355.567 393.578 355.101 394.105 354.766C394.635 354.432 395.255 354.264 395.964 354.264C396.395 354.264 396.812 354.335 397.217 354.478C397.621 354.621 397.984 354.844 398.306 355.149C398.627 355.454 398.881 355.85 399.066 356.337C399.252 356.821 399.345 357.41 399.345 358.102V358.629H393.274V357.516H397.888C397.888 357.125 397.808 356.778 397.649 356.477C397.49 356.172 397.266 355.931 396.978 355.756C396.693 355.58 396.358 355.492 395.974 355.492C395.556 355.492 395.192 355.595 394.88 355.8C394.572 356.003 394.333 356.268 394.164 356.596C393.998 356.921 393.916 357.274 393.916 357.655V358.525C393.916 359.035 394.005 359.469 394.184 359.827C394.366 360.185 394.62 360.459 394.945 360.648C395.27 360.833 395.649 360.926 396.083 360.926C396.365 360.926 396.622 360.886 396.854 360.807C397.086 360.724 397.286 360.601 397.455 360.439C397.624 360.277 397.754 360.076 397.843 359.837L399.25 360.091C399.137 360.505 398.935 360.868 398.644 361.18C398.355 361.488 397.992 361.728 397.555 361.901C397.121 362.07 396.625 362.154 396.068 362.154ZM404.559 354.364V355.557H400.387V354.364H404.559ZM401.506 352.534H402.992V359.758C402.992 360.046 403.036 360.263 403.122 360.409C403.208 360.552 403.319 360.649 403.455 360.702C403.594 360.752 403.745 360.777 403.907 360.777C404.027 360.777 404.131 360.769 404.22 360.752C404.31 360.736 404.38 360.722 404.429 360.712L404.698 361.94C404.612 361.973 404.489 362.007 404.33 362.04C404.171 362.076 403.972 362.096 403.733 362.099C403.342 362.106 402.978 362.036 402.639 361.891C402.301 361.745 402.028 361.519 401.819 361.214C401.61 360.91 401.506 360.527 401.506 360.066V352.534ZM406.203 362V354.364H407.689V362H406.203ZM406.954 353.185C406.695 353.185 406.473 353.099 406.287 352.927C406.105 352.751 406.014 352.542 406.014 352.3C406.014 352.055 406.105 351.846 406.287 351.674C406.473 351.498 406.695 351.411 406.954 351.411C407.212 351.411 407.433 351.498 407.615 351.674C407.8 351.846 407.893 352.055 407.893 352.3C407.893 352.542 407.8 352.751 407.615 352.927C407.433 353.099 407.212 353.185 406.954 353.185ZM411.176 357.466V362H409.689V354.364H411.116V355.607H411.211C411.386 355.202 411.661 354.877 412.036 354.632C412.414 354.387 412.889 354.264 413.463 354.264C413.983 354.264 414.439 354.374 414.83 354.592C415.221 354.808 415.524 355.129 415.74 355.557C415.955 355.984 416.063 356.513 416.063 357.143V362H414.576V357.322C414.576 356.768 414.432 356.336 414.144 356.024C413.855 355.709 413.459 355.552 412.956 355.552C412.611 355.552 412.304 355.626 412.036 355.776C411.771 355.925 411.56 356.143 411.404 356.432C411.252 356.717 411.176 357.062 411.176 357.466ZM421.258 365.023C420.652 365.023 420.13 364.943 419.692 364.784C419.258 364.625 418.903 364.415 418.628 364.153C418.353 363.891 418.148 363.604 418.012 363.293L419.289 362.766C419.379 362.911 419.498 363.066 419.647 363.228C419.8 363.394 420.005 363.535 420.264 363.651C420.526 363.767 420.862 363.825 421.273 363.825C421.836 363.825 422.302 363.687 422.67 363.412C423.038 363.14 423.222 362.706 423.222 362.109V360.608H423.127C423.038 360.77 422.909 360.951 422.74 361.15C422.574 361.349 422.345 361.521 422.054 361.667C421.762 361.813 421.382 361.886 420.915 361.886C420.312 361.886 419.768 361.745 419.284 361.463C418.804 361.178 418.423 360.759 418.141 360.205C417.862 359.648 417.723 358.964 417.723 358.152C417.723 357.34 417.861 356.644 418.136 356.064C418.414 355.484 418.795 355.04 419.279 354.732C419.763 354.42 420.312 354.264 420.925 354.264C421.399 354.264 421.782 354.344 422.073 354.503C422.365 354.659 422.592 354.841 422.755 355.05C422.92 355.259 423.048 355.442 423.137 355.602H423.247V354.364H424.703V362.169C424.703 362.825 424.551 363.364 424.246 363.785C423.941 364.206 423.528 364.517 423.008 364.719C422.491 364.922 421.908 365.023 421.258 365.023ZM421.243 360.653C421.671 360.653 422.032 360.553 422.327 360.354C422.625 360.152 422.851 359.864 423.003 359.489C423.159 359.112 423.237 358.659 423.237 358.132C423.237 357.618 423.161 357.166 423.008 356.775C422.856 356.384 422.632 356.079 422.337 355.86C422.042 355.638 421.677 355.527 421.243 355.527C420.796 355.527 420.423 355.643 420.125 355.875C419.826 356.104 419.601 356.415 419.448 356.81C419.299 357.204 419.225 357.645 419.225 358.132C419.225 358.633 419.301 359.072 419.453 359.45C419.606 359.827 419.831 360.122 420.13 360.335C420.431 360.547 420.802 360.653 421.243 360.653Z" fill="#828794"/>
<defs>
<filter id="filter0_di_2726_984" x="214" y="336" width="42" height="42" filterUnits="userSpaceOnUse" color-interpolation-filters="sRGB">
<feFlood flood-opacity="0" result="BackgroundImageFix"/>
<feColorMatrix in="SourceAlpha" type="matrix" values="0 0 0 0 0 0 0 0 0 0 0 0 0 0 0 0 0 0 127 0" result="hardAlpha"/>
<feOffset/>
<feGaussianBlur stdDeviation="0.5"/>
<feComposite in2="hardAlpha" operator="out"/>
<feColorMatrix type="matrix" values="0 0 0 0 0.0509804 0 0 0 0 0.0862745 0 0 0 0 0.184314 0 0 0 0.4 0"/>
<feBlend mode="normal" in2="BackgroundImageFix" result="effect1_dropShadow_2726_984"/>
<feBlend mode="normal" in="SourceGraphic" in2="effect1_dropShadow_2726_984" result="shape"/>
<feColorMatrix in="SourceAlpha" type="matrix" values="0 0 0 0 0 0 0 0 0 0 0 0 0 0 0 0 0 0 127 0" result="hardAlpha"/>
<feOffset dy="-2"/>
<feComposite in2="hardAlpha" operator="arithmetic" k2="-1" k3="1"/>
<feColorMatrix type="matrix" values="0 0 0 0 0.929412 0 0 0 0 0.929412 0 0 0 0 0.945098 0 0 0 1 0"/>
<feBlend mode="normal" in2="shape" result="effect2_innerShadow_2726_984"/>
</filter>
<filter id="filter1_di_2726_984" x="214" y="151" width="42" height="42" filterUnits="userSpaceOnUse" color-interpolation-filters="sRGB">
<feFlood flood-opacity="0" result="BackgroundImageFix"/>
<feColorMatrix in="SourceAlpha" type="matrix" values="0 0 0 0 0 0 0 0 0 0 0 0 0 0 0 0 0 0 127 0" result="hardAlpha"/>
<feOffset/>
<feGaussianBlur stdDeviation="0.5"/>
<feComposite in2="hardAlpha" operator="out"/>
<feColorMatrix type="matrix" values="0 0 0 0 0.0509804 0 0 0 0 0.0862745 0 0 0 0 0.184314 0 0 0 0.4 0"/>
<feBlend mode="normal" in2="BackgroundImageFix" result="effect1_dropShadow_2726_984"/>
<feBlend mode="normal" in="SourceGraphic" in2="effect1_dropShadow_2726_984" result="shape"/>
<feColorMatrix in="SourceAlpha" type="matrix" values="0 0 0 0 0 0 0 0 0 0 0 0 0 0 0 0 0 0 127 0" result="hardAlpha"/>
<feOffset dy="-2"/>
<feComposite in2="hardAlpha" operator="arithmetic" k2="-1" k3="1"/>
<feColorMatrix type="matrix" values="0 0 0 0 0.929412 0 0 0 0 0.929412 0 0 0 0 0.945098 0 0 0 1 0"/>
<feBlend mode="normal" in2="shape" result="effect2_innerShadow_2726_984"/>
</filter>
<filter id="filter2_di_2726_984" x="245" y="241" width="42" height="42" filterUnits="userSpaceOnUse" color-interpolation-filters="sRGB">
<feFlood flood-opacity="0" result="BackgroundImageFix"/>
<feColorMatrix in="SourceAlpha" type="matrix" values="0 0 0 0 0 0 0 0 0 0 0 0 0 0 0 0 0 0 127 0" result="hardAlpha"/>
<feOffset/>
<feGaussianBlur stdDeviation="0.5"/>
<feComposite in2="hardAlpha" operator="out"/>
<feColorMatrix type="matrix" values="0 0 0 0 0.0509804 0 0 0 0 0.0862745 0 0 0 0 0.184314 0 0 0 0.4 0"/>
<feBlend mode="normal" in2="BackgroundImageFix" result="effect1_dropShadow_2726_984"/>
<feBlend mode="normal" in="SourceGraphic" in2="effect1_dropShadow_2726_984" result="shape"/>
<feColorMatrix in="SourceAlpha" type="matrix" values="0 0 0 0 0 0 0 0 0 0 0 0 0 0 0 0 0 0 127 0" result="hardAlpha"/>
<feOffset dy="-2"/>
<feComposite in2="hardAlpha" operator="arithmetic" k2="-1" k3="1"/>
<feColorMatrix type="matrix" values="0 0 0 0 0.929412 0 0 0 0 0.929412 0 0 0 0 0.945098 0 0 0 1 0"/>
<feBlend mode="normal" in2="shape" result="effect2_innerShadow_2726_984"/>
</filter>
<linearGradient id="paint0_linear_2726_984" x1="192.497" y1="141.294" x2="193.681" y2="404.998" gradientUnits="userSpaceOnUse">
<stop stop-color="#7E8095"/>
<stop offset="1" stop-color="#B6B7C3" stop-opacity="0.2"/>
</linearGradient>
<linearGradient id="paint1_linear_2726_984" x1="93.1127" y1="270.512" x2="91.2188" y2="334.636" gradientUnits="userSpaceOnUse">
<stop offset="0.313" stop-color="#5755FF" stop-opacity="0.5"/>
<stop offset="1" stop-color="#5755FF"/>
</linearGradient>
<radialGradient id="paint2_radial_2726_984" cx="0" cy="0" r="1" gradientUnits="userSpaceOnUse" gradientTransform="translate(136.293 268.668) rotate(118.542) scale(97.7986 101.532)">
<stop stop-color="#FCFDFF"/>
<stop offset="0.168" stop-color="#F1F6FF"/>
<stop offset="0.331" stop-color="#EBF2FF"/>
<stop offset="0.603" stop-color="#C3D3FF"/>
<stop offset="0.785" stop-color="#A7BEFF"/>
<stop offset="1" stop-color="#E0D1FF"/>
</radialGradient>
<linearGradient id="paint3_linear_2726_984" x1="93.1125" y1="280.374" x2="91.7935" y2="333.894" gradientUnits="userSpaceOnUse">
<stop offset="0.313" stop-color="#5755FF" stop-opacity="0.5"/>
<stop offset="1" stop-color="#5755FF"/>
</linearGradient>
<clipPath id="clip0_2726_984">
<rect width="20" height="20" fill="white" transform="translate(225 346.13)"/>
</clipPath>
<clipPath id="clip1_2726_984">
<rect width="20" height="20" fill="white" transform="translate(225 346.13)"/>
</clipPath>
<clipPath id="clip2_2726_984">
<rect width="20" height="20" fill="white" transform="translate(225 346.13)"/>
</clipPath>
<clipPath id="clip3_2726_984">
<rect width="238" height="181" fill="white" transform="translate(0 171.5)"/>
</clipPath>
<clipPath id="clip4_2726_984">
<rect width="238" height="181" fill="white" transform="translate(0 171.5)"/>
</clipPath>
<clipPath id="clip5_2726_984">
<rect width="238" height="181" fill="white" transform="translate(0 171.5)"/>
</clipPath>
<clipPath id="clip6_2726_984">
<rect width="20" height="20" fill="white" transform="translate(256 251.13)"/>
</clipPath>
<clipPath id="clip7_2726_984">
<rect width="20" height="20" fill="white" transform="translate(256 251.13)"/>
</clipPath>
<clipPath id="clip8_2726_984">
<rect width="20" height="20" fill="white" transform="translate(256 251.13)"/>
</clipPath>
</defs>
</svg>
