<svg width="129" height="16" viewBox="0 0 129 16" fill="none" xmlns="http://www.w3.org/2000/svg">
<path d="M5.562 14.288C2.61 14.288 0.99 12.794 0.882 10.562L2.88 10.454C3.006 11.912 4.068 12.506 5.562 12.506C7.092 12.506 8.388 11.912 8.388 10.364C8.388 8.834 7.254 8.114 5.544 8.114H4.5V6.422H5.544C6.93 6.422 7.938 5.918 7.938 4.568C7.938 3.38 7.182 2.714 5.616 2.714C4.05 2.714 3.312 3.362 3.15 4.388L1.152 4.28C1.386 2.282 2.97 0.932 5.616 0.932C8.352 0.932 9.954 2.282 9.954 4.424C9.954 5.774 9.198 6.71 7.758 7.16C9.414 7.61 10.404 8.816 10.404 10.436C10.404 12.866 8.442 14.288 5.562 14.288Z" fill="#00994D"/>
<path d="M11.7116 15.32L15.2636 5H16.4876L12.9476 15.32H11.7116ZM22.0813 14V12.224H17.7853V11.12L21.9133 5.48H23.3773V11.048H24.4093V12.224H23.3773V14H22.0813ZM19.2613 11.048H22.0813V7.28L19.2613 11.048ZM28.8199 14V7.616H29.9839L30.0199 8.828C30.2599 7.988 30.7519 7.616 31.5439 7.616H32.1559V8.756H31.5439C30.5719 8.756 30.0919 9.224 30.0919 10.232V14H28.8199ZM35.8547 14.144C34.0067 14.144 32.8307 12.824 32.8307 10.808C32.8307 8.792 34.0067 7.472 35.8187 7.472C37.5587 7.472 38.7467 8.708 38.7467 10.856V11.18H34.1627C34.2227 12.428 34.8587 13.052 35.8667 13.052C36.6227 13.052 37.1267 12.68 37.3307 12.08L38.6507 12.164C38.3147 13.352 37.2707 14.144 35.8547 14.144ZM37.3907 10.22C37.3187 9.092 36.6947 8.552 35.8187 8.552C34.9187 8.552 34.3067 9.14 34.1627 10.22H37.3907ZM45.6371 15.8H44.3651V13.136C44.0291 13.76 43.3091 14.144 42.4811 14.144C40.6211 14.144 39.7451 12.608 39.7451 10.808C39.7451 9.008 40.6091 7.472 42.4811 7.472C43.3331 7.472 44.0411 7.856 44.4131 8.588L44.4371 7.616H45.6371V15.8ZM42.7091 13.04C43.7411 13.04 44.3651 12.284 44.3651 10.808C44.3651 9.332 43.7291 8.576 42.7091 8.576C41.6891 8.576 41.0651 9.404 41.0651 10.808C41.0651 12.212 41.6891 13.04 42.7091 13.04ZM49.541 14.144C48.245 14.144 47.441 13.244 47.441 11.72V7.616H48.713V11.396C48.713 12.56 49.109 13.076 49.925 13.076C50.849 13.076 51.401 12.452 51.401 11.36V7.616H52.673V14H51.485L51.473 12.956C51.137 13.736 50.465 14.144 49.541 14.144ZM56.9602 14.144C55.1122 14.144 53.9362 12.824 53.9362 10.808C53.9362 8.792 55.1122 7.472 56.9242 7.472C58.6642 7.472 59.8522 8.708 59.8522 10.856V11.18H55.2682C55.3282 12.428 55.9642 13.052 56.9722 13.052C57.7282 13.052 58.2322 12.68 58.4362 12.08L59.7562 12.164C59.4202 13.352 58.3762 14.144 56.9602 14.144ZM58.4962 10.22C58.4242 9.092 57.8002 8.552 56.9242 8.552C56.0242 8.552 55.4122 9.14 55.2682 10.22H58.4962ZM63.7065 14.144C61.9065 14.144 60.9345 13.244 60.8385 11.984L62.1585 11.924C62.2665 12.632 62.7225 13.076 63.7065 13.076C64.4985 13.076 65.0025 12.836 65.0025 12.272C65.0025 11.804 64.7625 11.6 63.4785 11.384C61.5825 11.048 60.9945 10.496 60.9945 9.452C60.9945 8.288 61.8945 7.472 63.5505 7.472C65.1825 7.472 66.0465 8.408 66.2265 9.572L64.9185 9.644C64.7985 8.984 64.3305 8.54 63.5385 8.54C62.7105 8.54 62.3145 8.9 62.3145 9.404C62.3145 9.968 62.6985 10.196 63.7425 10.364C65.7225 10.688 66.3225 11.216 66.3225 12.26C66.3225 13.46 65.2305 14.144 63.7065 14.144ZM69.846 14C68.634 14 68.07 13.472 68.07 12.272V8.66H67.098V7.616H68.07V6.116H69.342V7.616H71.034V8.66H69.342V12.176C69.342 12.776 69.594 12.956 70.122 12.956H71.034V14H69.846ZM74.6753 14.144C72.8753 14.144 71.9033 13.244 71.8073 11.984L73.1273 11.924C73.2353 12.632 73.6913 13.076 74.6753 13.076C75.4673 13.076 75.9713 12.836 75.9713 12.272C75.9713 11.804 75.7313 11.6 74.4473 11.384C72.5513 11.048 71.9633 10.496 71.9633 9.452C71.9633 8.288 72.8633 7.472 74.5193 7.472C76.1513 7.472 77.0153 8.408 77.1953 9.572L75.8873 9.644C75.7673 8.984 75.2993 8.54 74.5073 8.54C73.6793 8.54 73.2833 8.9 73.2833 9.404C73.2833 9.968 73.6673 10.196 74.7113 10.364C76.6913 10.688 77.2913 11.216 77.2913 12.26C77.2913 13.46 76.1993 14.144 74.6753 14.144ZM81.6363 14V7.616H82.8003L82.8363 8.828C83.0763 7.988 83.5683 7.616 84.3603 7.616H84.9723V8.756H84.3603C83.3883 8.756 82.9083 9.224 82.9083 10.232V14H81.6363ZM88.6711 14.144C86.8231 14.144 85.6471 12.824 85.6471 10.808C85.6471 8.792 86.8231 7.472 88.6351 7.472C90.3751 7.472 91.5631 8.708 91.5631 10.856V11.18H86.9791C87.0391 12.428 87.6751 13.052 88.6831 13.052C89.4391 13.052 89.9431 12.68 90.1471 12.08L91.4671 12.164C91.1311 13.352 90.0871 14.144 88.6711 14.144ZM90.2071 10.22C90.1351 9.092 89.5111 8.552 88.6351 8.552C87.7351 8.552 87.1231 9.14 86.9791 10.22H90.2071ZM95.4175 14.144C93.6175 14.144 92.6455 13.244 92.5495 11.984L93.8695 11.924C93.9775 12.632 94.4335 13.076 95.4175 13.076C96.2095 13.076 96.7135 12.836 96.7135 12.272C96.7135 11.804 96.4735 11.6 95.1895 11.384C93.2935 11.048 92.7055 10.496 92.7055 9.452C92.7055 8.288 93.6055 7.472 95.2615 7.472C96.8935 7.472 97.7575 8.408 97.9375 9.572L96.6295 9.644C96.5095 8.984 96.0415 8.54 95.2495 8.54C94.4215 8.54 94.0255 8.9 94.0255 9.404C94.0255 9.968 94.4095 10.196 95.4535 10.364C97.4335 10.688 98.0335 11.216 98.0335 12.26C98.0335 13.46 96.9415 14.144 95.4175 14.144ZM102.054 14.144C100.218 14.144 99.0182 12.836 99.0182 10.808C99.0182 8.78 100.218 7.472 102.054 7.472C103.878 7.472 105.078 8.78 105.078 10.808C105.078 12.836 103.878 14.144 102.054 14.144ZM102.054 13.04C103.134 13.04 103.758 12.212 103.758 10.808C103.758 9.404 103.134 8.576 102.054 8.576C100.974 8.576 100.338 9.404 100.338 10.808C100.338 12.212 100.974 13.04 102.054 13.04ZM107.849 14C107.009 14 106.445 13.592 106.445 12.644L106.457 5.48H107.729V12.524C107.729 12.824 107.873 12.956 108.161 12.956H108.677V14H107.849ZM111.371 14L109.043 7.616H110.399L112.139 12.704L113.879 7.616H115.247L112.919 14H111.371ZM118.73 14.144C116.882 14.144 115.706 12.824 115.706 10.808C115.706 8.792 116.882 7.472 118.694 7.472C120.434 7.472 121.622 8.708 121.622 10.856V11.18H117.038C117.098 12.428 117.734 13.052 118.742 13.052C119.498 13.052 120.002 12.68 120.206 12.08L121.526 12.164C121.19 13.352 120.146 14.144 118.73 14.144ZM120.266 10.22C120.194 9.092 119.57 8.552 118.694 8.552C117.794 8.552 117.182 9.14 117.038 10.22H120.266ZM125.284 14.144C123.64 14.144 122.608 12.86 122.608 10.808C122.608 8.768 123.64 7.472 125.284 7.472C126.16 7.472 126.892 7.856 127.228 8.516V5.48H128.5V14H127.324L127.288 13.04C126.928 13.736 126.172 14.144 125.284 14.144ZM125.62 13.04C126.652 13.04 127.228 12.212 127.228 10.808C127.228 9.392 126.652 8.576 125.62 8.576C124.588 8.576 123.928 9.416 123.928 10.808C123.928 12.176 124.6 13.04 125.62 13.04Z" fill="#475367"/>
</svg>
