<svg xmlns="http://www.w3.org/2000/svg" width="142" height="50" fill="none" xmlns:v="https://vecta.io/nano"><g fill="#fff"><rect x=".5" y=".5" width="141" height="49" rx="6.5" stroke="url(#A)"/><rect x="13" y="5" width="40" height="40" rx="8"/></g><path d="M41.354 17.405c-.018-.125-.129-.194-.221-.202-1.313-.108-2.552-.653-3.492-1.576l-.039-.038c-.148-.146-.437-.101-.55-.069-.424.123-.863-.103-1.06-.498-.479-.963-1.214-1.723-2.34-1.723-.074 0-.145-.032-.192-.088-.384-.453-.843-.651-1.242-.651-2.262 0-3.704 1.933-4.538 3.797-.603 1.349-1.636 2.515-3.048 2.952-.707.218-.729.24-.822.896l-.93 7.054a8 8 0 0 0 6.48 8.909l5.575 1.029c.904.167 1.832.154 2.731-.038 3.623-.772 6.019-4.229 5.469-7.892l-1.78-11.861zm-6.048-1.925c.12.276-.042.585-.33.672l-.447.136c-.123.037-.247-.055-.247-.184l-.012-.445c-.04-.7.509-1.167.851-.555.066.118.128.244.185.375zm-3.32-.31c.502-.591 1.34-.246 1.408.526a8.94 8.94 0 0 1 .033.79c0 .083-.055.156-.134.18l-.598.182c-.781.238-1.506-.483-1.075-1.175a4.24 4.24 0 0 1 .365-.502zm.142-1.749c.197 0 .192.248.027.354-.847.543-1.685 1.601-2.136 3.426a.89.89 0 0 1-.595.645c-.644.197-1.238-.401-.972-1.02.71-1.655 1.897-3.405 3.677-3.405z" fill="#95bf46"/><path d="M41.134 17.201c-1.313-.108-2.552-.653-3.492-1.576l-.039-.038c-.089-.087-.214.014-.22.138l-.849 17.095c-.116 2.336 2.013 4.148 4.301 3.661a3.56 3.56 0 0 0 2.782-4.008l-2.262-15.069c-.017-.125-.129-.194-.221-.202z" fill="#5e8e3e"/><path d="M32.465 21.126c.711.09 1.018.815.786 1.493-.296.868-1.327 1.263-2.243 1.214l-.199-.005c-1.516 0-1.592.937-1.592 1.173 0 1.288 3.41 1.782 3.41 4.8 0 2.374-1.529 3.903-3.591 3.903-1.636 0-2.743-.663-3.306-1.112-.29-.231-.368-.618-.259-.973.231-.752 1.173-1.025 1.898-.72.321.136.664.232.988.232.717 0 1.009-.556 1.009-.962 0-1.681-2.798-1.756-2.798-4.517 0-2.324 1.694-4.574 5.113-4.574a6.25 6.25 0 0 1 .783.047z" fill="#fff"/><path d="M61.557 30.21c-.714 0-1.358-.121-1.932-.364a3.69 3.69 0 0 1-1.414-1.036c-.369-.453-.609-.987-.721-1.603l1.288-.203c.163.635.502 1.132 1.015 1.491s1.127.532 1.827.532a3.39 3.39 0 0 0 1.225-.21c.369-.145.66-.35.875-.616s.322-.581.322-.945c0-.224-.04-.415-.119-.574a1.15 1.15 0 0 0-.315-.413 1.86 1.86 0 0 0-.448-.294 3.37 3.37 0 0 0-.525-.196l-2.569-.763c-.28-.084-.551-.189-.812-.315s-.495-.292-.7-.483a2.2 2.2 0 0 1-.49-.7c-.121-.275-.182-.6-.182-.973 0-.597.154-1.106.462-1.526s.735-.749 1.267-.973 1.132-.334 1.799-.329c.677.005 1.281.126 1.813.364a3.41 3.41 0 0 1 1.33 1.008c.355.439.593.964.714 1.575l-1.323.231a2.21 2.21 0 0 0-.469-1.057 2.33 2.33 0 0 0-.896-.686c-.359-.163-.754-.247-1.183-.252-.411-.005-.782.061-1.113.196s-.595.324-.791.567a1.26 1.26 0 0 0-.294.826c0 .308.089.558.266.749s.394.336.651.448a7.11 7.11 0 0 0 .763.266l1.918.553c.219.061.471.145.756.252s.569.259.84.455.495.448.672.77.266.719.266 1.204-.098.917-.294 1.295a2.68 2.68 0 0 1-.805.952c-.345.252-.747.443-1.204.574s-.947.203-1.47.203zM72.181 30v-3.787c0-.359-.033-.705-.098-1.036a2.6 2.6 0 0 0-.329-.889 1.7 1.7 0 0 0-.63-.63c-.261-.154-.593-.231-.994-.231-.313 0-.597.054-.854.161a1.67 1.67 0 0 0-.651.476c-.182.215-.324.485-.427.812s-.147.702-.147 1.141l-.819-.252c0-.733.131-1.36.392-1.883a2.86 2.86 0 0 1 1.113-1.211c.481-.285 1.045-.427 1.694-.427.49 0 .908.077 1.253.231s.632.359.861.616a2.91 2.91 0 0 1 .539.854c.131.313.222.632.273.959a5.36 5.36 0 0 1 .084.917V30h-1.26zm-5.39 0V19.92h1.12v5.565h.14V30h-1.26zm11.69.21c-.751 0-1.4-.17-1.946-.511s-.959-.812-1.253-1.414-.441-1.293-.441-2.072c0-.793.149-1.489.448-2.086s.721-1.062 1.267-1.393 1.188-.504 1.925-.504c.756 0 1.407.17 1.953.511a3.28 3.28 0 0 1 1.253 1.407c.294.597.441 1.286.441 2.065 0 .789-.147 1.484-.441 2.086a3.38 3.38 0 0 1-1.26 1.407c-.546.336-1.195.504-1.946.504zm0-1.183c.784 0 1.367-.261 1.75-.784s.574-1.199.574-2.03c0-.854-.194-1.533-.581-2.037s-.968-.763-1.743-.763c-.527 0-.961.119-1.302.357s-.595.567-.763.987-.252.905-.252 1.456c0 .849.196 1.531.588 2.044s.968.77 1.729.77zm8.66 1.183c-.709 0-1.307-.175-1.792-.525s-.854-.833-1.106-1.435-.371-1.286-.371-2.037c0-.761.124-1.442.371-2.044s.621-1.076 1.106-1.421 1.09-.518 1.799-.518c.7 0 1.302.175 1.806.525s.898.819 1.169 1.421.406 1.281.406 2.037-.135 1.435-.406 2.037-.66 1.08-1.169 1.435-1.108.525-1.813.525zm-3.479 3.15V22.44h1.113v5.565h.14v5.355h-1.253zm3.325-4.291c.499 0 .912-.126 1.239-.378a2.28 2.28 0 0 0 .735-1.022c.163-.434.245-.919.245-1.456a4.03 4.03 0 0 0-.245-1.442c-.159-.429-.406-.77-.742-1.022s-.754-.378-1.267-.378c-.49 0-.896.121-1.218.364s-.562.572-.721 1.001-.238.917-.238 1.477a4.4 4.4 0 0 0 .231 1.477c.159.429.401.768.728 1.015s.744.364 1.253.364zm5.216-7.966v-1.288h1.246v1.288h-1.246zm0 8.897v-7.56h1.246V30h-1.246zm4.067 0v-7.973l.028-.595a2.55 2.55 0 0 1 .126-.595c.065-.196.173-.376.322-.539a1.49 1.49 0 0 1 .567-.406 2.14 2.14 0 0 1 .623-.154l.609-.028h.959v1.036h-.889c-.369 0-.644.091-.826.273s-.273.448-.273.812V30h-1.246zm-1.281-6.531V22.44h4.515v1.029H94.99zm6.683 9.891l1.463-3.976.021 1.176-3.304-8.12h1.309l2.59 6.531h-.448l2.429-6.531H107l-4.116 10.92h-1.211z" fill="#475367"/><defs><linearGradient id="A" x1="71" y1="1" x2="71" y2="49" gradientUnits="userSpaceOnUse"><stop stop-color="#e4e7ec"/><stop offset="1" stop-color="#fff"/></linearGradient></defs></svg>