<svg width="24" height="26" viewBox="0 0 24 26" fill="none" xmlns="http://www.w3.org/2000/svg">
<path d="M20.3541 5.40455C20.3366 5.27946 20.2254 5.21024 20.1334 5.20261C18.8207 5.09477 17.5811 4.54922 16.6412 3.62659C16.6242 3.60998 16.6111 3.59703 16.6022 3.58829C16.454 3.44238 16.1647 3.48676 16.0524 3.51932C15.6287 3.64232 15.1891 3.41664 14.9926 3.02158C14.5137 2.05877 13.7787 1.29824 12.6524 1.29824C12.5785 1.29824 12.5079 1.26641 12.4601 1.20998C12.0762 0.756992 11.6174 0.558594 11.2178 0.558594C8.95587 0.558594 7.51379 2.49123 6.67984 4.35559C6.07649 5.70443 5.04382 6.87042 3.63221 7.30717C2.92531 7.52556 2.90295 7.54749 2.81013 8.20352C2.77658 8.44205 2.33252 11.8154 1.87999 15.2575C1.32511 19.4781 4.17331 23.3937 8.35954 24.1661L13.9341 25.1948C14.8382 25.3616 15.7662 25.3489 16.6654 25.1573C20.2879 24.3855 22.684 20.9284 22.134 17.2656C21.345 12.0106 20.3644 5.4792 20.3541 5.40455ZM14.3058 3.479C14.4262 3.75459 14.2638 4.06384 13.9761 4.15153L13.5291 4.2878C13.4061 4.32529 13.2822 4.23289 13.2822 4.10432C13.2822 3.95025 13.278 3.80201 13.2699 3.65943C13.2301 2.95964 13.7787 2.49228 14.1208 3.10402C14.1869 3.22216 14.2485 3.34786 14.3058 3.479ZM10.986 3.16912C11.4877 2.57834 12.3258 2.92279 12.3943 3.69484C12.4158 3.93673 12.4273 4.19971 12.4273 4.48464C12.4273 4.56747 12.3726 4.6402 12.2934 4.66437C12.0977 4.72406 11.8981 4.78492 11.6956 4.84667C10.9149 5.08477 10.1892 4.36404 10.621 3.67138C10.7378 3.48406 10.8602 3.31718 10.986 3.16912ZM11.1282 1.41956C11.325 1.41956 11.3204 1.66781 11.1548 1.77394C10.3076 2.31687 9.4698 3.37526 9.01856 5.20001C8.94355 5.50333 8.72245 5.75344 8.42358 5.8446C7.77932 6.04112 7.18593 5.44335 7.45152 4.82435C8.16161 3.16934 9.34842 1.41956 11.1282 1.41956Z" fill="#95BF46"/>
<path d="M20.1339 5.20067C18.8213 5.09283 17.5816 4.54727 16.6417 3.62465C16.6247 3.60803 16.6116 3.59509 16.6027 3.58635C16.514 3.49936 16.3891 3.60012 16.3829 3.72424L15.5343 20.8192C15.4184 23.1555 17.5471 24.9676 19.8348 24.4802C21.6769 24.0877 22.896 22.3346 22.6163 20.4721C21.8253 15.2047 20.3672 5.49373 20.3546 5.4026C20.3372 5.27752 20.2259 5.20829 20.1339 5.20067Z" fill="#5E8E3E"/>
<path d="M11.4649 9.12547C12.1759 9.21531 12.4827 9.94001 12.2512 10.6182C11.9549 11.4864 10.9243 11.8817 10.0082 11.8327C9.94283 11.8292 9.87646 11.8273 9.80928 11.8273C8.29317 11.8273 8.21687 12.7644 8.21687 13.0005C8.21687 14.2889 11.627 14.7826 11.627 17.8004C11.627 20.1748 10.0979 21.7037 8.03619 21.7037C6.40062 21.7037 5.29336 21.041 4.73068 20.5917C4.44094 20.3604 4.36256 19.9735 4.47147 19.6191C4.70255 18.8672 5.64431 18.5938 6.36909 18.8995C6.69032 19.035 7.03269 19.1313 7.35729 19.1313C8.07438 19.1313 8.36607 18.5752 8.36607 18.1689C8.36607 16.4883 5.56837 16.4133 5.56837 13.6517C5.56837 11.3274 7.2623 9.07812 10.6816 9.07812C10.9759 9.07812 11.237 9.09667 11.4649 9.12547Z" fill="white"/>
</svg>
