<svg xmlns="http://www.w3.org/2000/svg" width="142" height="50" fill="none" xmlns:v="https://vecta.io/nano"><g fill="#fff"><rect x=".5" y=".5" width="141" height="49" rx="6.5" stroke="url(#A)"/><rect x="13" y="5" width="40" height="40" rx="8"/></g><g clip-path="url(#B)" fill-rule="evenodd"><path d="M29.68 12.555a2.49 2.49 0 0 0-2.488 2.488 2.49 2.49 0 0 0 2.489 2.488h2.489v-2.487a2.49 2.49 0 0 0-2.49-2.489zm0 6.637h-6.636a2.49 2.49 0 0 0-2.489 2.488 2.49 2.49 0 0 0 2.488 2.489h6.637a2.49 2.49 0 0 0 2.489-2.488 2.49 2.49 0 0 0-2.489-2.489z" fill="#36c5f0"/><path d="M45.443 21.68a2.49 2.49 0 0 0-2.489-2.488 2.49 2.49 0 0 0-2.489 2.488v2.489h2.489a2.49 2.49 0 0 0 2.489-2.489zm-6.637 0v-6.637a2.49 2.49 0 0 0-2.488-2.488 2.49 2.49 0 0 0-2.489 2.488v6.637a2.49 2.49 0 0 0 2.488 2.489 2.49 2.49 0 0 0 2.489-2.489z" fill="#2eb67d"/><path d="M36.317 37.444a2.49 2.49 0 0 0 2.489-2.488 2.49 2.49 0 0 0-2.489-2.488h-2.489v2.488a2.49 2.49 0 0 0 2.489 2.488zm0-6.638h6.637a2.49 2.49 0 0 0 2.489-2.488 2.49 2.49 0 0 0-2.488-2.489h-6.637a2.49 2.49 0 0 0-2.489 2.488 2.49 2.49 0 0 0 2.488 2.489z" fill="#ecb22e"/><path d="M20.555 28.317a2.49 2.49 0 0 0 2.489 2.488 2.49 2.49 0 0 0 2.489-2.488v-2.488h-2.489a2.49 2.49 0 0 0-2.489 2.488zm6.637 0v6.637a2.49 2.49 0 0 0 2.488 2.489 2.49 2.49 0 0 0 2.489-2.488v-6.636a2.49 2.49 0 0 0-2.488-2.489c-1.377 0-2.49 1.114-2.489 2.487z" fill="#e01e5a"/></g><path d="M61.557 30.21c-.714 0-1.358-.121-1.932-.364a3.69 3.69 0 0 1-1.414-1.036c-.369-.453-.609-.987-.721-1.603l1.288-.203c.163.635.502 1.132 1.015 1.491s1.127.532 1.827.532a3.39 3.39 0 0 0 1.225-.21c.369-.145.66-.35.875-.616s.322-.581.322-.945c0-.224-.04-.415-.119-.574a1.15 1.15 0 0 0-.315-.413 1.86 1.86 0 0 0-.448-.294 3.37 3.37 0 0 0-.525-.196l-2.569-.763c-.28-.084-.551-.189-.812-.315s-.495-.292-.7-.483a2.2 2.2 0 0 1-.49-.7c-.121-.275-.182-.6-.182-.973 0-.597.154-1.106.462-1.526s.735-.749 1.267-.973 1.132-.334 1.799-.329c.677.005 1.281.126 1.813.364a3.41 3.41 0 0 1 1.33 1.008c.355.439.593.964.714 1.575l-1.323.231a2.21 2.21 0 0 0-.469-1.057 2.33 2.33 0 0 0-.896-.686c-.359-.163-.754-.247-1.183-.252-.411-.005-.782.061-1.113.196s-.595.324-.791.567a1.26 1.26 0 0 0-.294.826c0 .308.089.558.266.749s.394.336.651.448a7.11 7.11 0 0 0 .763.266l1.918.553c.219.061.471.145.756.252s.569.259.84.455.495.448.672.77.266.719.266 1.204-.098.917-.294 1.295a2.68 2.68 0 0 1-.805.952c-.345.252-.747.443-1.204.574s-.947.203-1.47.203zm5.381-.21V19.71h1.246V30h-1.246zm5.495.21c-.565 0-1.038-.103-1.421-.308s-.665-.485-.861-.826a2.25 2.25 0 0 1-.287-1.12c0-.397.075-.74.224-1.029a2.01 2.01 0 0 1 .644-.728c.275-.196.604-.35.987-.462a11.29 11.29 0 0 1 1.204-.252l1.358-.203 1.281-.175-.448.259c.014-.672-.121-1.169-.406-1.491s-.765-.483-1.456-.483c-.457 0-.859.105-1.204.315s-.581.541-.721 1.008l-1.183-.357c.182-.663.534-1.183 1.057-1.561s1.211-.567 2.065-.567c.686 0 1.274.124 1.764.371s.849.611 1.064 1.106c.107.233.175.488.203.763s.042.555.042.854V30h-1.106v-1.813l.259.168c-.285.611-.684 1.073-1.197 1.386s-1.129.469-1.862.469zm.189-1.043c.448 0 .835-.079 1.162-.238s.597-.376.798-.637.331-.555.392-.868c.07-.233.107-.492.112-.777l.014-.665.434.189-1.197.161-1.113.168c-.35.056-.665.124-.945.203-.205.065-.399.149-.581.252a1.32 1.32 0 0 0-.434.399c-.107.159-.161.357-.161.595 0 .205.051.401.154.588a1.19 1.19 0 0 0 .49.455c.224.117.516.175.875.175zm8.722 1.043c-.765 0-1.416-.17-1.953-.511s-.938-.819-1.218-1.421-.425-1.288-.434-2.058c.009-.789.156-1.482.441-2.079s.702-1.071 1.239-1.407 1.183-.504 1.939-.504c.798 0 1.484.196 2.058.588a2.83 2.83 0 0 1 1.162 1.61l-1.232.371c-.159-.439-.418-.779-.777-1.022s-.763-.364-1.225-.364c-.518 0-.945.121-1.281.364s-.586.569-.749.994-.247.903-.252 1.449c.009.84.203 1.519.581 2.037s.95.77 1.701.77c.495 0 .905-.112 1.232-.336s.574-.558.742-.987l1.26.329c-.261.705-.67 1.244-1.225 1.617s-1.225.56-2.009.56zM86 30l.007-10.08h1.26v6.16l3.171-3.64h1.617l-3.339 3.78L92.447 30h-1.743l-3.437-3.64V30H86z" fill="#475367"/><defs><linearGradient id="A" x1="71" y1="1" x2="71" y2="49" gradientUnits="userSpaceOnUse"><stop stop-color="#e4e7ec"/><stop offset="1" stop-color="#fff"/></linearGradient><clipPath id="B"><path fill="#fff" transform="translate(20.555 12.555)" d="M0 0h24.889v24.889H0z"/></clipPath></defs></svg>