<svg width="26" height="26" viewBox="0 0 26 26" fill="none" xmlns="http://www.w3.org/2000/svg">
<g clip-path="url(#clip0_1748_1363)">
<path fill-rule="evenodd" clip-rule="evenodd" d="M9.68007 0.554688C8.30425 0.555702 7.19078 1.66999 7.19179 3.04307C7.19078 4.41614 8.30527 5.53044 9.68109 5.53145H12.1704V3.04408C12.1714 1.67101 11.0569 0.556717 9.68007 0.554688C9.68109 0.554688 9.68109 0.554688 9.68007 0.554688ZM9.68007 7.19172H3.04399C1.66816 7.19274 0.553673 8.30703 0.55469 9.68011C0.552657 11.0532 1.66714 12.1675 3.04297 12.1695H9.68007C11.0559 12.1685 12.1704 11.0542 12.1694 9.68112C12.1704 8.30703 11.0559 7.19274 9.68007 7.19172Z" fill="#36C5F0"/>
<path fill-rule="evenodd" clip-rule="evenodd" d="M25.4428 9.68011C25.4438 8.30703 24.3293 7.19274 22.9535 7.19172C21.5777 7.19274 20.4632 8.30703 20.4642 9.68011V12.1695H22.9535C24.3293 12.1685 25.4438 11.0542 25.4428 9.68011ZM18.8057 9.68011V3.04307C18.8067 1.67101 17.6932 0.556717 16.3174 0.554688C14.9416 0.555702 13.8271 1.66999 13.8281 3.04307V9.68011C13.8261 11.0532 14.9406 12.1675 16.3164 12.1695C17.6922 12.1685 18.8067 11.0542 18.8057 9.68011Z" fill="#2EB67D"/>
<path fill-rule="evenodd" clip-rule="evenodd" d="M16.3174 25.444C17.6932 25.4429 18.8077 24.3286 18.8067 22.9556C18.8077 21.5825 17.6932 20.4682 16.3174 20.4672H13.8281V22.9556C13.8271 24.3276 14.9416 25.4419 16.3174 25.444ZM16.3174 18.8059H22.9545C24.3303 18.8049 25.4448 17.6906 25.4438 16.3175C25.4459 14.9444 24.3314 13.8302 22.9555 13.8281H16.3184C14.9426 13.8291 13.8281 14.9434 13.8291 16.3165C13.8281 17.6906 14.9416 18.8049 16.3174 18.8059Z" fill="#ECB22E"/>
<path fill-rule="evenodd" clip-rule="evenodd" d="M0.554688 16.3165C0.553671 17.6896 1.66816 18.8039 3.04398 18.8049C4.41981 18.8039 5.5343 17.6896 5.53328 16.3165V13.8281H3.04398C1.66816 13.8291 0.553671 14.9434 0.554688 16.3165ZM7.19179 16.3165V22.9535C7.18976 24.3266 8.30425 25.4409 9.68007 25.4429C11.0559 25.4419 12.1704 24.3276 12.1694 22.9546V16.3185C12.1714 14.9455 11.0569 13.8312 9.68109 13.8291C8.30425 13.8291 7.19078 14.9434 7.19179 16.3165Z" fill="#E01E5A"/>
</g>
<defs>
<clipPath id="clip0_1748_1363">
<rect width="24.8889" height="24.8889" fill="white" transform="translate(0.554688 0.554688)"/>
</clipPath>
</defs>
</svg>
