<svg xmlns="http://www.w3.org/2000/svg" width="488" height="431" fill="none" xmlns:v="https://vecta.io/nano"><style><![CDATA[.B{fill:#fff}.C{fill:#98a2b3}.D{fill:#101928}.E{color-interpolation-filters:sRGB}.F{flood-opacity:0}]]></style><rect x=".5" y="36.5" width="339" height="181" rx="10.5" stroke="url(#E)" class="B"/><circle cx="15" cy="51" r="4" fill="#ff5551"/><circle cx="29" cy="51" r="4" fill="#fbb93a"/><circle cx="43" cy="51" r="4" fill="#00c641"/><path d="M1 65h338v1H1zm0 33h338v1H1z" fill="#e4e7ec"/><path d="M279.774 18.168c-1.288 0-2.282-.303-2.982-.91-.691-.607-1.036-1.545-1.036-2.814l.028-.784.098-.728c.177-.971.499-1.806.966-2.506a4.75 4.75 0 0 1 1.82-1.624c.747-.383 1.605-.574 2.576-.574.756 0 1.419.107 1.988.322.569.205 1.013.523 1.33.952.327.429.49.971.49 1.624l-.014.378a2.78 2.78 0 0 1-.056.392h-1.61a.97.97 0 0 0 .042-.28l.014-.266c0-.401-.093-.733-.28-.994-.177-.271-.434-.467-.77-.588-.327-.131-.719-.196-1.176-.196-.513 0-.975.079-1.386.238a3.17 3.17 0 0 0-1.078.686 3.62 3.62 0 0 0-.77 1.064c-.196.42-.341.887-.434 1.4l-.084.434-.056.364-.028.322v.308c0 .56.093 1.022.28 1.386a1.8 1.8 0 0 0 .826.798c.364.168.807.252 1.33.252.569 0 1.073-.084 1.512-.252.439-.177.803-.434 1.092-.77.289-.345.481-.775.574-1.288h1.54c-.131.831-.425 1.517-.882 2.058-.448.541-1.008.943-1.68 1.204-.663.261-1.391.392-2.184.392zm8.899 0c-.672 0-1.237-.098-1.694-.294-.458-.205-.803-.513-1.036-.924s-.35-.933-.35-1.568a5.81 5.81 0 0 1 .028-.56l.084-.616c.149-.859.401-1.563.756-2.114a3.26 3.26 0 0 1 1.358-1.218c.55-.271 1.199-.406 1.946-.406.681 0 1.25.103 1.708.308.457.196.798.499 1.022.91.233.411.35.938.35 1.582 0 .177-.01.364-.028.56-.01.187-.038.387-.084.602-.15.859-.397 1.563-.742 2.114s-.794.961-1.344 1.232c-.542.261-1.2.392-1.974.392zm.084-1.204c.457 0 .849-.089 1.176-.266.326-.187.592-.467.798-.84.214-.373.368-.845.462-1.414.046-.187.074-.345.084-.476a2.93 2.93 0 0 0 .028-.364l.014-.28c0-.373-.061-.681-.182-.924-.112-.243-.29-.425-.532-.546s-.551-.182-.924-.182c-.458 0-.85.093-1.176.28-.318.187-.584.467-.798.84-.206.364-.364.831-.476 1.4l-.07.49-.042.364c-.01.093-.014.187-.014.28 0 .373.056.681.168.924a1.19 1.19 0 0 0 .56.532c.252.121.56.182.924.182zm4.41 3.458l1.722-9.786h1.162l-.028 1.008h.112c.298-.392.648-.686 1.05-.882s.826-.294 1.274-.294c.522 0 .966.103 1.33.308.373.196.658.495.854.896s.294.896.294 1.484l-.028.616c-.01.215-.038.443-.084.686-.15.849-.388 1.549-.714 2.1-.327.541-.719.947-1.176 1.218-.458.261-.952.392-1.484.392-.346 0-.658-.037-.938-.112a2.03 2.03 0 0 1-.728-.35 1.71 1.71 0 0 1-.49-.602h-.098l-.574 3.318h-1.456zm3.878-3.514c.42 0 .779-.084 1.078-.252s.541-.429.728-.784c.196-.364.34-.817.434-1.358l.098-.546.042-.392.014-.322c0-.355-.056-.644-.168-.868s-.276-.387-.49-.49c-.206-.112-.472-.168-.798-.168-.411 0-.77.098-1.078.294-.308.187-.56.462-.756.826s-.341.812-.434 1.344l-.084.462-.042.35v.28c0 .392.06.709.182.952.121.233.289.406.504.518.214.103.471.154.77.154zm5.083 3.64c-.308 0-.555-.023-.742-.07l-.35-.07.168-1.064h.728c.224 0 .439-.042.644-.126.215-.075.42-.215.616-.42.196-.196.378-.471.546-.826l-1.54-7.336h1.456l.728 3.542.14.728.126.812.098.714h.07l.21-.504.252-.574.266-.56.224-.476 1.834-3.682h1.526l-3.682 7.084a11.08 11.08 0 0 1-.644 1.106 5.04 5.04 0 0 1-.728.896 2.84 2.84 0 0 1-.868.602 2.5 2.5 0 0 1-1.078.224zm10.09 0c-.308 0-.555-.023-.742-.07l-.35-.07.168-1.064h.728c.224 0 .439-.042.644-.126.215-.075.42-.215.616-.42.196-.196.378-.471.546-.826l-1.54-7.336h1.456l.728 3.542.14.728.126.812.098.714h.07l.21-.504.252-.574.266-.56.224-.476 1.834-3.682h1.526l-3.682 7.084a11.08 11.08 0 0 1-.644 1.106 5.04 5.04 0 0 1-.728.896 2.84 2.84 0 0 1-.868.602 2.5 2.5 0 0 1-1.078.224zm10.019-2.38c-.672 0-1.237-.098-1.694-.294a2.18 2.18 0 0 1-1.036-.924c-.233-.411-.35-.933-.35-1.568a5.81 5.81 0 0 1 .028-.56l.084-.616c.149-.859.401-1.563.756-2.114s.807-.957 1.358-1.218c.551-.271 1.199-.406 1.946-.406.681 0 1.251.103 1.708.308.457.196.798.499 1.022.91.233.411.35.938.35 1.582a5.81 5.81 0 0 1-.028.56c-.009.187-.037.387-.084.602-.149.859-.397 1.563-.742 2.114a3.27 3.27 0 0 1-1.344 1.232c-.541.261-1.199.392-1.974.392zm.084-1.204c.457 0 .849-.089 1.176-.266.327-.187.593-.467.798-.84.215-.373.369-.845.462-1.414.047-.187.075-.345.084-.476a2.75 2.75 0 0 0 .028-.364l.014-.28c0-.373-.061-.681-.182-.924a1.12 1.12 0 0 0-.532-.546c-.243-.121-.551-.182-.924-.182-.457 0-.849.093-1.176.28-.317.187-.583.467-.798.84-.205.364-.364.831-.476 1.4l-.07.49-.042.364-.014.28c0 .373.056.681.168.924a1.19 1.19 0 0 0 .56.532c.252.121.56.182.924.182zm7.21 1.204c-.392 0-.751-.061-1.078-.182-.317-.121-.569-.317-.756-.588s-.28-.63-.28-1.078c0-.149.009-.303.028-.462l.098-.532.826-4.69h1.47l-.812 4.62-.056.35c-.019.103-.028.201-.028.294 0 .252.047.453.14.602.103.14.238.243.406.308.177.056.373.084.588.084.261 0 .518-.047.77-.14a2.09 2.09 0 0 0 .686-.42c.215-.187.397-.415.546-.686a2.79 2.79 0 0 0 .322-.952l.714-4.06h1.47L333.283 18h-1.176l.042-1.05h-.098c-.205.252-.443.471-.714.658-.271.177-.56.313-.868.406-.299.103-.611.154-.938.154zm5.646-.168l1.302-7.364h1.148l-.042 1.176h.084c.121-.224.266-.434.434-.63a2.08 2.08 0 0 1 .602-.504c.233-.14.508-.21.826-.21a1.89 1.89 0 0 1 .42.042l.28.07-.224 1.372h-.504a2.36 2.36 0 0 0-.826.14 1.82 1.82 0 0 0-.644.42c-.178.187-.327.415-.448.686-.122.261-.21.565-.266.91L336.633 18h-1.456zm8.809 0l-.91-7.364h1.456l.35 3.556.042.56.042.77.042.714h.056l.266-.7.294-.756.238-.588 1.484-3.556h1.568l.266 3.556.028.602.042.756.042.686h.056l.252-.658.308-.742.266-.644 1.568-3.556h1.456l-3.5 7.364H348.2l-.266-3.878-.028-.532-.028-.63-.014-.56h-.07l-.196.546-.238.63-.224.546L345.498 18h-1.512zm12.268.168c-.69 0-1.269-.098-1.736-.294-.466-.205-.816-.513-1.05-.924-.224-.42-.336-.943-.336-1.568 0-.252.014-.509.042-.77l.112-.742c.131-.653.346-1.232.644-1.736a3.46 3.46 0 0 1 1.218-1.218c.514-.299 1.158-.448 1.932-.448.644 0 1.181.103 1.61.308a2 2 0 0 1 .966.896c.215.392.322.882.322 1.47 0 .215-.018.457-.056.728a4.94 4.94 0 0 1-.154.812h-5.096l-.042.364-.014.322c0 .364.056.667.168.91.122.243.304.42.546.532s.551.168.924.168c.234 0 .453-.028.658-.084s.392-.145.56-.266a1.71 1.71 0 0 0 .434-.462c.131-.196.224-.434.28-.714h1.428c-.084.467-.228.873-.434 1.218-.196.336-.443.616-.742.84a3.18 3.18 0 0 1-.994.49c-.364.112-.76.168-1.19.168zm-1.386-4.55h3.584l.042-.308.014-.28c0-.317-.056-.579-.168-.784-.102-.205-.261-.355-.476-.448-.214-.103-.471-.154-.77-.154-.382 0-.723.075-1.022.224-.289.149-.532.373-.728.672-.196.289-.354.649-.476 1.078zm9.628 4.55c-.522 0-.975-.098-1.358-.294-.373-.196-.653-.49-.84-.882h-.098L361.892 18h-1.19l1.778-10.122h1.456l-.644 3.654h.098c.187-.252.397-.453.63-.602.243-.159.5-.275.77-.35.28-.075.57-.112.868-.112.495 0 .92.103 1.274.308a1.96 1.96 0 0 1 .84.896c.196.392.294.887.294 1.484l-.028.588c-.018.205-.051.425-.098.658-.149.877-.382 1.591-.7 2.142s-.709.961-1.176 1.232a3.15 3.15 0 0 1-1.568.392zm-.322-1.26c.411 0 .761-.084 1.05-.252.299-.168.542-.434.728-.798.196-.364.35-.84.462-1.428l.084-.504.042-.378.014-.308c0-.345-.051-.625-.154-.84-.102-.224-.266-.392-.49-.504s-.508-.168-.854-.168c-.252 0-.494.047-.728.14s-.452.243-.658.448c-.196.196-.368.453-.518.77s-.261.695-.336 1.134l-.07.462-.042.35v.28c0 .336.052.625.154.868a1.1 1.1 0 0 0 .476.546c.224.121.504.182.84.182zm7.52 1.26c-.486 0-.915-.047-1.288-.14-.374-.084-.691-.205-.952-.364-.252-.168-.444-.369-.574-.602-.122-.233-.182-.49-.182-.77a1.77 1.77 0 0 1 .028-.322l.07-.266h1.428c-.019.056-.033.117-.042.182s-.014.117-.014.154c0 .233.065.425.196.574.14.14.326.243.56.308a3.61 3.61 0 0 0 .812.084c.224 0 .438-.019.644-.056a2.45 2.45 0 0 0 .574-.196c.168-.084.298-.196.392-.336s.14-.313.14-.518c0-.177-.056-.322-.168-.434a1.1 1.1 0 0 0-.42-.294c-.178-.084-.383-.159-.616-.224l-.714-.21-.756-.252a3.74 3.74 0 0 1-.672-.336 1.68 1.68 0 0 1-.476-.518c-.122-.215-.182-.471-.182-.77 0-.392.079-.737.238-1.036.168-.299.396-.546.686-.742.289-.205.625-.359 1.008-.462s.788-.154 1.218-.154c.41 0 .784.037 1.12.112.345.075.639.187.882.336.252.149.443.331.574.546.14.205.21.443.21.714 0 .131-.014.257-.042.378-.019.112-.038.187-.056.224h-1.414a.98.98 0 0 0 .014-.154c.009-.047.014-.089.014-.126 0-.205-.056-.369-.168-.49-.103-.131-.252-.224-.448-.28-.196-.065-.434-.098-.714-.098-.252 0-.476.023-.672.07-.187.037-.35.098-.49.182s-.248.187-.322.308-.112.257-.112.406c0 .205.084.369.252.49.168.112.382.205.644.28l.854.266.798.266c.27.093.518.21.742.35.224.131.401.308.532.532.13.215.196.485.196.812 0 .457-.089.849-.266 1.176-.168.327-.406.593-.714.798s-.663.355-1.064.448c-.402.103-.831.154-1.288.154zm5.955-8.806l.266-1.484h1.456l-.266 1.484h-1.456zM376.151 18l1.302-7.364h1.456L377.607 18h-1.456zm5.24.168c-.364 0-.648-.061-.854-.182-.196-.121-.336-.275-.42-.462-.084-.196-.126-.415-.126-.658 0-.075.005-.145.014-.21l.028-.224.798-4.592h-.924l.21-1.204h.952l.63-2.058h1.148l-.364 2.058h1.344l-.21 1.204h-1.33l-.756 4.284-.042.21-.014.182c0 .14.042.252.126.336.084.075.215.112.392.112h.728l-.182.98a2.08 2.08 0 0 1-.336.098c-.13.037-.266.065-.406.084-.14.028-.275.042-.406.042zm5.666 0c-.691 0-1.269-.098-1.736-.294-.467-.205-.817-.513-1.05-.924-.224-.42-.336-.943-.336-1.568 0-.252.014-.509.042-.77l.112-.742a5.49 5.49 0 0 1 .644-1.736 3.46 3.46 0 0 1 1.218-1.218c.513-.299 1.157-.448 1.932-.448.644 0 1.181.103 1.61.308a2.01 2.01 0 0 1 .966.896c.215.392.322.882.322 1.47a5.44 5.44 0 0 1-.056.728 4.94 4.94 0 0 1-.154.812h-5.096l-.042.364-.014.322c0 .364.056.667.168.91.121.243.303.42.546.532s.551.168.924.168a2.49 2.49 0 0 0 .658-.084c.205-.056.392-.145.56-.266a1.71 1.71 0 0 0 .434-.462c.131-.196.224-.434.28-.714h1.428c-.084.467-.229.873-.434 1.218-.196.336-.443.616-.742.84a3.19 3.19 0 0 1-.994.49 4.03 4.03 0 0 1-1.19.168zm-1.386-4.55h3.584l.042-.308.014-.28c0-.317-.056-.579-.168-.784a.93.93 0 0 0-.476-.448 1.77 1.77 0 0 0-.77-.154c-.383 0-.723.075-1.022.224-.289.149-.532.373-.728.672-.196.289-.355.649-.476 1.078zm13.031 4.55c-1.148 0-2.039-.238-2.674-.714-.625-.485-.938-1.218-.938-2.198a4.13 4.13 0 0 1 .028-.462l.07-.504 1.036-5.894h1.554l-1.05 5.992a4.14 4.14 0 0 0-.056.336c-.019.131-.028.247-.028.35 0 .588.177 1.031.532 1.33.355.289.868.434 1.54.434.775 0 1.414-.201 1.918-.602s.826-.999.966-1.792l1.064-6.048h1.568l-1.064 6.006c-.149.859-.42 1.568-.812 2.128-.383.56-.882.975-1.498 1.246-.607.261-1.325.392-2.156.392zm6.056-.168l1.694-9.604h4.816c.644 0 1.176.098 1.596.294.42.187.732.453.938.798.205.336.308.742.308 1.218 0 .579-.094 1.087-.28 1.526-.178.439-.434.807-.77 1.106-.327.299-.719.532-1.176.7L413.2 18h-1.652l-1.19-3.696h-3.374L406.326 18h-1.568zm2.464-5.026h3.29c.373 0 .709-.084 1.008-.252s.536-.406.714-.714.266-.677.266-1.106c0-.373-.112-.658-.336-.854-.224-.205-.565-.308-1.022-.308h-3.346l-.574 3.234zM414.875 18l1.68-9.604h1.554l-1.442 8.246h4.802L421.231 18h-6.356z" class="C"/><g filter="url(#B)"><path d="M267.708 86.436c-4.061-4.455-14.315-5.651-14.315-5.651 2.694-.215 5.324-.9 7.725-2.013s4.522-2.63 6.231-4.456l.359 12.12z" class="B"/><path d="M286.734 74.967c-4.884 3.07-10.683 4.859-16.665 5.141-.023.011-.05.017-.076.018s-.053-.005-.077-.015-.043-.026-.057-.045-.024-.041-.026-.063.003-.046.014-.067.028-.04.049-.054.046-.024.073-.028.053-.003.078.004c5.816-.742 11.423-2.494 16.475-5.147.182-.085.416.125.212.258z" class="B"/><path d="M292.069 71.163c-.152.105-.176-.169-.176-.169 4.748-4.266 8.833-9.035 12.148-14.181.037-.039.088-.068.145-.081a.31.31 0 0 1 .17.009c.053.019.098.052.126.095s.04.093.032.142c-2.83 5.459-7.09 10.316-12.445 14.184z" class="B"/><path d="M308.068 50.707c-.202.156-.214.019-.224-.095 2.9-6.27 4.531-12.89 4.82-19.57.022-.37.593-.328.617-.054.132 6.792-1.656 13.556-5.213 19.719z" class="B"/><path d="M304.898 56.5585C304.803 56.4162 304.666 56.32 304.521 56.2693C304.376 56.2186 304.22 56.2116 304.075 56.2448C303.929 56.2779 303.788 56.3527 303.677 56.4697L303.645 56.5033L303.62 56.5422C300.33 61.65 296.275 66.3847 291.558 70.6223L291.373 70.7892L291.395 71.0379L291.893 70.9943C291.395 71.0379 291.395 71.038 291.395 71.0381L291.395 71.0384L291.395 71.0391L291.395 71.0404L291.395 71.0434L291.396 71.0507L291.398 71.0707C291.4 71.0861 291.403 71.1065 291.408 71.1301C291.416 71.1723 291.433 71.2462 291.468 71.3246C291.497 71.3876 291.579 71.5486 291.769 71.6356C292.005 71.7439 292.225 71.6631 292.353 71.5744L292.353 71.5745L292.362 71.5682C297.775 67.6575 302.09 62.7427 304.958 57.2087L304.995 57.1368L305.008 57.0568C305.036 56.8796 304.995 56.703 304.898 56.5585ZM304.898 56.5585L304.482 56.8361M304.898 56.5585C304.898 56.5584 304.898 56.5584 304.898 56.5584L304.482 56.8361M304.482 56.8361C304.511 56.8789 304.522 56.929 304.514 56.9786L291.926 70.9644L291.777 70.7576C292.502 70.2333 293.208 69.6907 293.891 69.1309C297.786 65.3639 301.184 61.2429 304.02 56.8453C304.026 56.8338 304.032 56.8224 304.038 56.811C304.038 56.8108 304.038 56.8106 304.038 56.8104C304.049 56.7898 304.059 56.7692 304.07 56.7485L304.102 56.7649C304.127 56.7502 304.156 56.7391 304.186 56.7323C304.242 56.7194 304.302 56.7225 304.356 56.7412C304.409 56.76 304.454 56.7933 304.482 56.8361ZM267.338 86.7731L268.248 87.7705L268.208 86.4215L267.849 74.3013L267.813 73.0888L266.984 73.9745C265.321 75.7514 263.253 77.2312 260.907 78.3186C258.561 79.406 255.99 80.0764 253.353 80.2865L253.335 81.2808L253.335 81.2815L253.335 81.2815L253.335 81.2816L253.336 81.2817L253.341 81.2822L253.361 81.2847C253.38 81.287 253.408 81.2905 253.445 81.2953C253.519 81.3049 253.628 81.3196 253.77 81.34C254.054 81.3807 254.465 81.444 254.971 81.5338C255.985 81.7136 257.377 81.9991 258.893 82.4218C261.955 83.2751 265.41 84.6584 267.338 86.7731ZM287 75.3903L287 75.3904L287.006 75.3861C287.144 75.2966 287.285 75.1397 287.309 74.9115C287.333 74.6913 287.235 74.5165 287.134 74.4113C286.949 74.2168 286.619 74.1122 286.31 74.2565L286.3 74.2613L286.29 74.2667C281.311 76.8818 275.785 78.613 270.051 79.352C269.997 79.3479 269.943 79.3502 269.889 79.3588C269.794 79.3741 269.7 79.4099 269.615 79.4672C269.531 79.5246 269.455 79.6044 269.403 79.7052C269.351 79.8067 269.325 79.9241 269.335 80.0455C269.346 80.1668 269.392 80.2779 269.461 80.3688C269.53 80.459 269.618 80.5245 269.711 80.5663C269.804 80.608 269.904 80.627 270 80.6255C270.054 80.6246 270.108 80.6175 270.161 80.604C276.201 80.3078 282.058 78.4962 287 75.3903ZM270.044 79.8263L270.032 79.853L270.044 79.8263ZM308.373 51.103L308.452 51.0425L308.501 50.9567C312.101 44.7186 313.915 37.865 313.78 30.978L313.78 30.961L313.779 30.9441C313.756 30.6872 313.603 30.5076 313.447 30.4077C313.297 30.3113 313.124 30.2716 312.967 30.2731C312.808 30.2747 312.622 30.3187 312.461 30.4424C312.288 30.5759 312.179 30.7774 312.165 31.0125L312.165 31.0125L312.165 31.02C311.878 37.6327 310.264 44.1886 307.39 50.4015L307.334 50.5223L307.346 50.655L307.346 50.6599C307.349 50.6849 307.354 50.7431 307.366 50.8015C307.377 50.8524 307.411 50.9962 307.533 51.1168C307.696 51.2767 307.906 51.2991 308.068 51.2594C308.199 51.2274 308.304 51.1567 308.373 51.103Z" stroke="url(#F)"/></g><path d="M59 43h1v16h-1zm156 0h1v16h-1z" fill="#e4e7ec"/><g stroke="#667185" stroke-linecap="round" stroke-linejoin="round"><path d="M206 50l-4 4"/><path d="M202 50l4 4"/></g><path d="M88.72 55v-2.9l-2.51-4.2h1.02l1.92 3.32 1.92-3.32h1.02l-2.51 4.2V55h-.86zm5.981.12c-1.47 0-2.43-1.08-2.43-2.77s.96-2.77 2.43-2.77c1.46 0 2.42 1.08 2.42 2.77s-.96 2.77-2.42 2.77zm0-.8c.97 0 1.54-.74 1.54-1.97s-.57-1.97-1.54-1.97c-.98 0-1.55.74-1.55 1.97s.57 1.97 1.55 1.97zm5.333.8c-1.06 0-1.74-.75-1.74-2.01V49.7h.84v3.18c0 1.03.36 1.5 1.12 1.5.84 0 1.35-.57 1.35-1.52V49.7h.84V55h-.8v-.86c-.29.63-.85.98-1.61.98zm4.012-.12v-5.3h.74l.03.98c.19-.67.61-.98 1.26-.98h.52v.8h-.51c-.8 0-1.2.43-1.2 1.3V55h-.84zm9.198.16c-1.9 0-3.19-1.4-3.19-3.7s1.29-3.72 3.19-3.72c1.72 0 2.63.93 2.93 2.42l-.91.06c-.2-1.01-.84-1.64-2.02-1.64-1.36 0-2.29 1.08-2.29 2.88s.93 2.86 2.29 2.86c1.24 0 1.9-.69 2.08-1.8l.91.06c-.26 1.54-1.29 2.58-2.99 2.58zm6.33-.04c-1.47 0-2.43-1.08-2.43-2.77s.96-2.77 2.43-2.77c1.46 0 2.42 1.08 2.42 2.77s-.96 2.77-2.42 2.77zm0-.8c.97 0 1.54-.74 1.54-1.97s-.57-1.97-1.54-1.97c-.98 0-1.55.74-1.55 1.97s.57 1.97 1.55 1.97zm3.642.68v-5.3h.77l.02.93c.26-.65.81-1.05 1.49-1.05.8 0 1.36.4 1.59 1.11.23-.71.77-1.11 1.55-1.11 1.13 0 1.75.73 1.75 2.01V55h-.84v-3.23c0-.96-.38-1.45-1.11-1.45-.74 0-1.22.56-1.22 1.51V55h-.84v-3.17c0-.94-.31-1.51-1.09-1.51-.74 0-1.23.57-1.23 1.51V55h-.84zm8.574 1.5v-6.8h.78l.01.81c.32-.61.91-.93 1.63-.93 1.58 0 2.29 1.31 2.29 2.77s-.71 2.77-2.29 2.77c-.69 0-1.3-.31-1.58-.82v2.2h-.84zm2.34-2.18c.92 0 1.49-.73 1.49-1.97s-.57-1.97-1.49-1.97-1.5.67-1.5 1.97.57 1.97 1.5 1.97zm5.097.8c-1.1 0-1.79-.53-1.79-1.44 0-.9.51-1.4 1.67-1.62l1.88-.35c0-.89-.42-1.33-1.26-1.33-.74 0-1.15.34-1.31.95l-.89-.07c.2-1 1-1.68 2.2-1.68 1.36 0 2.1.82 2.1 2.16v2.19c0 .24.08.33.28.33h.21V55a2.33 2.33 0 0 1-.32.02c-.64 0-.93-.25-1-.84-.26.55-.99.94-1.77.94zm.08-.74c1.06 0 1.68-.68 1.68-1.56v-.38l-1.72.32c-.72.13-.95.4-.95.84 0 .5.37.78.99.78zm4.114.62v-5.3h.77l.02.95c.28-.73.9-1.07 1.63-1.07 1.21 0 1.79.89 1.79 2.01V55h-.84v-3.17c0-.98-.33-1.51-1.13-1.51-.82 0-1.4.53-1.4 1.51V55h-.84zm5.845 1.5v-.74h.61c.37 0 .52-.11.62-.36l.19-.5h-.29l-1.94-5.2h.92l1.58 4.42 1.51-4.42h.92l-2.15 5.97c-.2.57-.57.83-1.28.83h-.69z" fill="#475367"/><rect x="68" y="45" width="12" height="12" rx="2" fill="#5755ff"/><rect x="7.5" y="72.5" width="239" height="19" rx="5.5" fill="#f9fafb" stroke="#cdccff"/><path d="M15.8 86v-7.1h.84v2.63c.27-.65.87-.95 1.6-.95 1.14 0 1.77.83 1.77 2.01V86h-.84v-3.17c0-1.02-.37-1.51-1.11-1.51-.86 0-1.42.54-1.42 1.52V86h-.84zm7.448 0c-.96 0-1.41-.42-1.41-1.36v-3.2h-.78v-.74h.78v-1.24h.84v1.24h2.18v-1.24h.84v1.24h1.41v.74h-1.41v3.18c0 .48.21.64.65.64h.76V86h-.84c-.96 0-1.41-.42-1.41-1.36v-3.2h-2.18v3.18c0 .48.21.64.65.64h.76V86h-.84zm5.081 1.5v-6.8h.78l.01.81c.32-.61.91-.93 1.63-.93 1.58 0 2.29 1.31 2.29 2.77s-.71 2.77-2.29 2.77c-.69 0-1.3-.31-1.58-.82v2.2h-.84zm2.34-2.18c.92 0 1.49-.73 1.49-1.97s-.57-1.97-1.49-1.97-1.5.67-1.5 1.97.57 1.97 1.5 1.97zm5.548.8c-1.42 0-2.21-.75-2.29-1.79l.88-.06c.1.64.51 1.05 1.41 1.05.72 0 1.19-.22 1.19-.74 0-.42-.21-.6-1.35-.8-1.52-.27-2-.74-2-1.58 0-.94.72-1.62 2-1.62 1.29 0 1.97.78 2.13 1.7l-.88.06c-.12-.56-.54-.96-1.26-.96-.76 0-1.11.33-1.11.78 0 .52.34.72 1.28.88 1.62.28 2.07.7 2.07 1.54 0 .98-.9 1.54-2.07 1.54zM39.68 86v-1.13h1.13V86h-1.13zm0-3.93v-1.13h1.13v1.13h-1.13zm2.449 5.03l2.95-8.6h.8l-2.95 8.6h-.8zm4.102 0l2.95-8.6h.8l-2.95 8.6h-.8zm6.265-1.1l-1.64-5.3h.92l1.24 4.42 1.26-4.42h.9l1.26 4.42 1.25-4.42h.92l-1.64 5.3h-1.06l-1.18-4.03-1.18 4.03h-1.05zm8.193 0l-1.64-5.3h.92l1.24 4.42 1.26-4.42h.9l1.26 4.42 1.25-4.42h.92l-1.64 5.3h-1.06l-1.18-4.03-1.18 4.03h-1.05zm8.193 0l-1.64-5.3h.92l1.24 4.42 1.26-4.42h.9l1.26 4.42 1.25-4.42h.92l-1.64 5.3h-1.06l-1.18-4.03-1.18 4.03h-1.05zm6.208 0v-1.13h1.13V86h-1.13zm2.63 1.5v-.74h.61c.37 0 .52-.11.62-.36l.19-.5h-.29l-1.94-5.2h.92l1.58 4.42 1.51-4.42h.92l-2.15 5.97c-.2.57-.57.83-1.28.83h-.69zm6.987-1.38c-1.47 0-2.43-1.08-2.43-2.77s.96-2.77 2.43-2.77c1.46 0 2.42 1.08 2.42 2.77s-.96 2.77-2.42 2.77zm0-.8c.97 0 1.54-.74 1.54-1.97s-.57-1.97-1.54-1.97c-.98 0-1.55.74-1.55 1.97s.57 1.97 1.55 1.97zm5.333.8c-1.06 0-1.74-.75-1.74-2.01V80.7h.84v3.18c0 1.03.36 1.5 1.12 1.5.84 0 1.35-.57 1.35-1.52V80.7h.84V86h-.8v-.86c-.29.63-.85.98-1.61.98zm4.012-.12v-5.3h.74l.03.98c.19-.67.61-.98 1.26-.98h.52v.8h-.51c-.8 0-1.2.43-1.2 1.3V86h-.84zm5.616.12c-1.48 0-2.43-1.09-2.43-2.77s.95-2.77 2.43-2.77c1.22 0 2.07.66 2.25 1.84l-.88.06c-.12-.7-.65-1.1-1.37-1.1-.98 0-1.55.74-1.55 1.97s.57 1.97 1.55 1.97c.72 0 1.25-.4 1.37-1.2l.88.06c-.18 1.18-1.03 1.94-2.25 1.94zm5.468 0c-1.47 0-2.43-1.08-2.43-2.77s.96-2.77 2.43-2.77c1.46 0 2.42 1.08 2.42 2.77s-.96 2.77-2.42 2.77zm0-.8c.97 0 1.54-.74 1.54-1.97s-.57-1.97-1.54-1.97c-.98 0-1.55.74-1.55 1.97s.57 1.97 1.55 1.97zm3.643.68v-5.3h.77l.02.93c.26-.65.81-1.05 1.49-1.05.8 0 1.36.4 1.59 1.11.23-.71.77-1.11 1.55-1.11 1.13 0 1.75.73 1.75 2.01V86h-.84v-3.23c0-.96-.38-1.45-1.11-1.45-.74 0-1.22.56-1.22 1.51V86h-.84v-3.17c0-.94-.31-1.51-1.09-1.51-.74 0-1.23.57-1.23 1.51V86h-.84zm8.574 1.5v-6.8h.78l.01.81c.32-.61.91-.93 1.63-.93 1.58 0 2.29 1.31 2.29 2.77s-.71 2.77-2.29 2.77c-.69 0-1.3-.31-1.58-.82v2.2h-.84zm2.34-2.18c.92 0 1.49-.73 1.49-1.97s-.57-1.97-1.49-1.97-1.5.67-1.5 1.97.57 1.97 1.5 1.97zm5.096.8c-1.1 0-1.79-.53-1.79-1.44 0-.9.51-1.4 1.67-1.62l1.88-.35c0-.89-.42-1.33-1.26-1.33-.74 0-1.15.34-1.31.95l-.89-.07c.2-1 1-1.68 2.2-1.68 1.36 0 2.1.82 2.1 2.16v2.19c0 .24.08.33.28.33h.21V86a2.33 2.33 0 0 1-.32.02c-.64 0-.93-.25-1-.84-.26.55-.99.94-1.77.94zm.08-.74c1.06 0 1.68-.68 1.68-1.56v-.38l-1.72.32c-.72.13-.95.4-.95.84 0 .5.37.78.99.78zm4.115.62v-5.3h.77l.02.95c.28-.73.9-1.07 1.63-1.07 1.21 0 1.79.89 1.79 2.01V86h-.84v-3.17c0-.98-.33-1.51-1.13-1.51-.82 0-1.4.53-1.4 1.51V86h-.84zm5.845 1.5v-.74h.61c.37 0 .52-.11.62-.36l.19-.5h-.29l-1.94-5.2h.92l1.58 4.42 1.51-4.42h.92l-2.15 5.97c-.2.57-.57.83-1.28.83h-.69zm5.141-1.5v-5.3h.77l.02.95c.28-.73.9-1.07 1.63-1.07 1.21 0 1.79.89 1.79 2.01V86h-.84v-3.17c0-.98-.33-1.51-1.13-1.51-.82 0-1.4.53-1.4 1.51V86h-.84zm7.173.12c-1.1 0-1.79-.53-1.79-1.44 0-.9.51-1.4 1.67-1.62l1.88-.35c0-.89-.42-1.33-1.26-1.33-.74 0-1.15.34-1.31.95l-.89-.07c.2-1 1-1.68 2.2-1.68 1.36 0 2.1.82 2.1 2.16v2.19c0 .24.08.33.28.33h.21V86a2.33 2.33 0 0 1-.32.02c-.64 0-.93-.25-1-.84-.26.55-.99.94-1.77.94zm.08-.74c1.06 0 1.68-.68 1.68-1.56v-.38l-1.72.32c-.72.13-.95.4-.95.84 0 .5.37.78.99.78zm4.114.62v-5.3h.77l.02.93c.26-.65.81-1.05 1.49-1.05.8 0 1.36.4 1.59 1.11.23-.71.77-1.11 1.55-1.11 1.13 0 1.75.73 1.75 2.01V86h-.84v-3.23c0-.96-.38-1.45-1.11-1.45-.74 0-1.22.56-1.22 1.51V86h-.84v-3.17c0-.94-.31-1.51-1.09-1.51-.74 0-1.23.57-1.23 1.51V86h-.84zm10.723.12c-1.5 0-2.43-1.09-2.43-2.77s.93-2.77 2.39-2.77c1.38 0 2.34 1 2.34 2.78v.25h-3.85c.06 1.14.63 1.71 1.55 1.71.69 0 1.14-.35 1.32-.89l.9.07c-.28.95-1.1 1.62-2.22 1.62zm1.38-3.25c-.08-1.02-.64-1.49-1.42-1.49-.82 0-1.37.51-1.51 1.49h2.93zm1.864 3.13v-1.13h1.13V86h-1.13zm4.5.12c-1.48 0-2.43-1.09-2.43-2.77s.95-2.77 2.43-2.77c1.22 0 2.07.66 2.25 1.84l-.88.06c-.12-.7-.65-1.1-1.37-1.1-.98 0-1.55.74-1.55 1.97s.57 1.97 1.55 1.97c.72 0 1.25-.4 1.37-1.2l.88.06c-.18 1.18-1.03 1.94-2.25 1.94zm5.469 0c-1.47 0-2.43-1.08-2.43-2.77s.96-2.77 2.43-2.77c1.46 0 2.42 1.08 2.42 2.77s-.96 2.77-2.42 2.77zm0-.8c.97 0 1.54-.74 1.54-1.97s-.57-1.97-1.54-1.97c-.98 0-1.55.74-1.55 1.97s.57 1.97 1.55 1.97zm3.642.68v-5.3h.77l.02.93c.26-.65.81-1.05 1.49-1.05.8 0 1.36.4 1.59 1.11.23-.71.77-1.11 1.55-1.11 1.13 0 1.75.73 1.75 2.01V86h-.84v-3.23c0-.96-.38-1.45-1.11-1.45-.74 0-1.22.56-1.22 1.51V86h-.84v-3.17c0-.94-.31-1.51-1.09-1.51-.74 0-1.23.57-1.23 1.51V86h-.84z" class="D"/><path d="M1 99h338v158a10 10 0 0 1-10 10H11a10 10 0 0 1-10-10V99z" fill="url(#G)"/><g filter="url(#C)"><rect x="104" y="189" width="338" height="180" rx="6" class="B"/><rect x="103.5" y="188.5" width="339" height="181" rx="6.5" stroke="url(#H)"/></g><rect x="116" y="201" width="24" height="24" rx="4" fill="#5755ff"/><path d="M128.716 212.276v.002l6.2.001a.28.28 0 0 0 .28-.28v-2.68a.28.28 0 0 0-.28-.28h-2.68a.28.28 0 0 1-.28-.28v-2.682a.28.28 0 0 0-.28-.28h-2.68a.28.28 0 0 0-.28.28v6.199zm-1.439 1.441h-6.2a.28.28 0 0 0-.28.28v2.679a.28.28 0 0 0 .28.28h2.68a.28.28 0 0 1 .28.28v2.68a.28.28 0 0 0 .28.28h2.68a.28.28 0 0 0 .28-.28v-6.199zm7.919.28a.28.28 0 0 0-.28-.28h-2.68a.28.28 0 0 0-.28.28v2.679a.28.28 0 0 0 .28.28h2.68a.28.28 0 0 0 .28-.28v-2.679zm-3.52 6.199a.28.28 0 0 0 .28-.28v-2.679a.28.28 0 0 0-.28-.28h-2.68a.28.28 0 0 0-.28.28v2.679a.28.28 0 0 0 .28.28h2.68z" class="B"/><g filter="url(#D)"><path d="M262.932 313.292c2.007-1.039 3.436-4.637 3.436-4.637-.184.997-.191 2.016-.021 2.993s.514 1.894 1.01 2.69l-4.425-1.046z" class="B"/><path d="M265.24 321.296c-.638-2.067-.724-4.341-.245-6.535-.002-.009-.002-.02.001-.029s.007-.019.013-.026.013-.014.022-.017.017-.004.025-.003.016.006.023.012.012.013.015.023a.07.07 0 0 1 .003.029c-.001.01-.004.019-.009.028-.296 2.178-.205 4.379.265 6.467.014.074-.085.138-.113.051z" class="B"/><path d="M266.1 323.598c-.024-.065.078-.047.078-.047 1.084 2.134 2.415 4.076 3.958 5.776.01.018.016.039.015.061s-.008.043-.02.06-.028.031-.047.037-.037.005-.054-.002c-1.703-1.555-3.049-3.57-3.93-5.885z" class="B"/><path d="M271.956 331.379c-.036-.088.014-.08.057-.072 1.989 1.659 4.229 2.892 6.621 3.645.132.044.061.247-.041.229-2.473-.611-4.749-1.916-6.637-3.802z" class="B"/><path d="M261.503 313.468L262.702 312.848C263.571 312.398 264.369 311.35 264.972 310.329C265.266 309.832 265.5 309.365 265.661 309.022C265.741 308.85 265.802 308.711 265.843 308.615C265.864 308.567 265.879 308.53 265.889 308.505L265.9 308.478L265.903 308.472L265.903 308.47L265.903 308.47L265.904 308.47C265.904 308.47 265.904 308.47 265.905 308.471L266.86 308.746C266.687 309.685 266.68 310.645 266.84 311.563C267 312.481 267.321 313.335 267.781 314.074L268.422 315.104L267.242 314.825L265.49 314.41L261.503 313.468ZM261.503 313.468L262.817 313.778L264.797 314.247M261.503 313.468L264.797 314.247M264.797 314.247C264.726 314.284 264.667 314.334 264.621 314.39L264.797 314.247ZM265.595 314.801C265.603 314.721 265.594 314.638 265.566 314.556L264.621 314.39C264.567 314.456 264.531 314.532 264.511 314.61C264.503 314.641 264.498 314.673 264.495 314.705C264.012 316.964 264.102 319.307 264.762 321.444L264.762 321.444L264.764 321.451C264.803 321.571 264.899 321.728 265.092 321.802C265.276 321.873 265.446 321.827 265.552 321.77C265.743 321.665 265.894 321.431 265.846 321.157L265.844 321.146L265.841 321.135C265.387 319.123 265.297 316.999 265.577 314.895C265.585 314.864 265.591 314.832 265.595 314.801ZM265.629 323.766L265.629 323.766L265.632 323.776C266.54 326.159 267.928 328.241 269.693 329.852L269.752 329.907L269.826 329.94C269.961 330 270.111 330.004 270.245 329.959L270.245 329.959C270.376 329.914 270.478 329.828 270.544 329.73L270.544 329.73C270.611 329.633 270.646 329.52 270.65 329.407L270.65 329.407C270.655 329.294 270.628 329.173 270.561 329.065L270.537 329.026L270.506 328.991C268.995 327.325 267.689 325.42 266.624 323.324L266.511 323.102L266.265 323.058L266.178 323.551C266.265 323.058 266.265 323.058 266.264 323.058L266.264 323.058L266.264 323.058L266.262 323.058L266.26 323.057L266.254 323.056L266.239 323.054C266.228 323.053 266.214 323.051 266.198 323.05C266.17 323.048 266.115 323.046 266.048 323.057C265.999 323.065 265.84 323.096 265.717 323.244C265.561 323.432 265.586 323.646 265.629 323.766ZM270.151 329.388C270.151 329.376 270.15 329.365 270.147 329.354L270.03 329.483C270.047 329.49 270.066 329.491 270.084 329.485C270.103 329.479 270.119 329.466 270.131 329.448C270.143 329.431 270.15 329.41 270.151 329.388ZM271.495 331.571L271.533 331.663L271.603 331.733C273.551 333.68 275.908 335.032 278.473 335.666L278.49 335.67L278.506 335.673C278.718 335.71 278.892 335.624 278.998 335.529C279.098 335.437 279.157 335.322 279.185 335.214C279.213 335.106 279.22 334.963 279.159 334.817C279.092 334.656 278.959 334.534 278.791 334.478L278.791 334.478L278.784 334.475C276.456 333.742 274.274 332.542 272.333 330.923L272.231 330.838L272.1 330.815C272.096 330.814 272.053 330.806 272.006 330.803C271.971 330.801 271.838 330.795 271.701 330.876C271.516 330.985 271.447 331.171 271.444 331.318C271.441 331.434 271.476 331.527 271.495 331.571Z" stroke="url(#I)"/></g><path d="M284.504 343l1.68-9.604h4.312c.719 0 1.302.107 1.75.322.457.205.789.495.994.868.215.373.322.817.322 1.33 0 .551-.089 1.045-.266 1.484a3 3 0 0 1-.742 1.106 3.12 3.12 0 0 1-1.148.7c-.448.159-.947.238-1.498.238h-3.206l-.644 3.556h-1.554zm2.422-4.9h2.954c.411 0 .77-.079 1.078-.238.317-.159.565-.387.742-.686s.266-.663.266-1.092-.121-.761-.364-.994-.621-.35-1.134-.35h-2.94l-.602 3.36zm9.005 5.068c-.485 0-.91-.098-1.274-.294-.354-.205-.63-.504-.826-.896-.196-.401-.294-.901-.294-1.498l.028-.588.098-.658c.15-.877.383-1.591.7-2.142.318-.56.705-.971 1.162-1.232a3.16 3.16 0 0 1 1.568-.392c.327 0 .621.042.882.126.271.075.509.191.714.35s.369.364.49.616h.098l.406-.924h1.204l-.322 1.778-.21 1.078-.196 1.078-.168.952-.112.714-.042.35c0 .121.038.215.112.28.075.056.173.084.294.084h.504l-.168.994c-.093.047-.224.093-.392.14a1.73 1.73 0 0 1-.574.084c-.252 0-.462-.056-.63-.168a.87.87 0 0 1-.364-.462l-.084-.266a1.27 1.27 0 0 1-.014-.322h-.098c-.308.411-.676.719-1.106.924-.42.196-.882.294-1.386.294zm.602-1.26a1.91 1.91 0 0 0 .714-.14 2.11 2.11 0 0 0 .644-.448c.196-.205.369-.462.518-.77.15-.317.266-.695.35-1.134l.056-.462.042-.35.014-.28c0-.345-.051-.635-.154-.868-.102-.243-.261-.425-.476-.546s-.49-.182-.826-.182c-.401 0-.751.084-1.05.252-.289.168-.532.434-.728.798-.186.364-.336.84-.448 1.428l-.084.504-.042.378-.014.308c0 .513.122.896.364 1.148.243.243.616.364 1.12.364zm7.872 1.26c-.486 0-.915-.047-1.288-.14-.374-.084-.691-.205-.952-.364-.252-.168-.444-.369-.574-.602-.122-.233-.182-.49-.182-.77a1.77 1.77 0 0 1 .028-.322l.07-.266h1.428a.99.99 0 0 0-.042.182c-.01.065-.014.117-.014.154 0 .233.065.425.196.574.14.14.326.243.56.308a3.61 3.61 0 0 0 .812.084 3.63 3.63 0 0 0 .644-.056c.214-.047.406-.112.574-.196s.298-.196.392-.336.14-.313.14-.518c0-.177-.056-.322-.168-.434-.103-.121-.243-.219-.42-.294-.178-.084-.383-.159-.616-.224l-.714-.21-.756-.252a3.7 3.7 0 0 1-.672-.336 1.68 1.68 0 0 1-.476-.518c-.122-.215-.182-.471-.182-.77 0-.392.079-.737.238-1.036.168-.299.396-.546.686-.742a3.13 3.13 0 0 1 1.008-.462 4.66 4.66 0 0 1 1.218-.154c.41 0 .784.037 1.12.112.345.075.639.187.882.336.252.149.443.331.574.546.14.205.21.443.21.714a1.67 1.67 0 0 1-.042.378c-.019.112-.038.187-.056.224h-1.414c.009-.056.014-.107.014-.154a.68.68 0 0 0 .014-.126c0-.205-.056-.369-.168-.49-.103-.131-.252-.224-.448-.28-.196-.065-.434-.098-.714-.098-.252 0-.476.023-.672.07-.187.037-.35.098-.49.182s-.248.187-.322.308-.112.257-.112.406c0 .205.084.369.252.49.168.112.382.205.644.28l.854.266.798.266a3.62 3.62 0 0 1 .742.35 1.46 1.46 0 0 1 .532.532c.13.215.196.485.196.812 0 .457-.089.849-.266 1.176-.168.327-.406.593-.714.798s-.663.355-1.064.448c-.402.103-.831.154-1.288.154zm6.361 0c-.364 0-.648-.061-.854-.182-.196-.121-.336-.275-.42-.462-.084-.196-.126-.415-.126-.658a1.53 1.53 0 0 1 .014-.21l.028-.224.798-4.592h-.924l.21-1.204h.952l.63-2.058h1.148l-.364 2.058h1.344l-.21 1.204h-1.33l-.756 4.284-.042.21-.014.182c0 .14.042.252.126.336.084.075.215.112.392.112h.728l-.182.98a2.11 2.11 0 0 1-.336.098 2.92 2.92 0 0 1-.406.084c-.14.028-.275.042-.406.042zm5.666 0c-.691 0-1.269-.098-1.736-.294-.467-.205-.817-.513-1.05-.924-.224-.42-.336-.943-.336-1.568a7.22 7.22 0 0 1 .042-.77l.112-.742c.131-.653.345-1.232.644-1.736.308-.513.714-.919 1.218-1.218.513-.299 1.157-.448 1.932-.448.644 0 1.181.103 1.61.308a2.01 2.01 0 0 1 .966.896c.215.392.322.882.322 1.47a5.44 5.44 0 0 1-.056.728 4.94 4.94 0 0 1-.154.812h-5.096l-.042.364-.014.322c0 .364.056.667.168.91.121.243.303.42.546.532s.551.168.924.168a2.49 2.49 0 0 0 .658-.084 1.73 1.73 0 0 0 .56-.266 1.7 1.7 0 0 0 .434-.462c.131-.196.224-.434.28-.714h1.428a3.62 3.62 0 0 1-.434 1.218c-.196.336-.443.616-.742.84-.289.215-.621.378-.994.49a4.03 4.03 0 0 1-1.19.168zm-1.386-4.55h3.584l.042-.308.014-.28c0-.317-.056-.579-.168-.784a.93.93 0 0 0-.476-.448c-.215-.103-.471-.154-.77-.154-.383 0-.723.075-1.022.224a1.92 1.92 0 0 0-.728.672c-.196.289-.355.649-.476 1.078zm10.609 4.55c-.364 0-.649-.061-.854-.182-.196-.121-.336-.275-.42-.462-.084-.196-.126-.415-.126-.658a1.53 1.53 0 0 1 .014-.21l.028-.224.798-4.592h-.924l.21-1.204h.952l.63-2.058h1.148l-.364 2.058h1.344l-.21 1.204h-1.33l-.756 4.284-.042.21-.014.182c0 .14.042.252.126.336.084.075.215.112.392.112h.728l-.182.98a2.11 2.11 0 0 1-.336.098 2.95 2.95 0 0 1-.406.084c-.14.028-.275.042-.406.042zm2.362-.168l1.778-10.122h1.456l-.644 3.64h.098a3.25 3.25 0 0 1 .672-.56c.252-.159.518-.28.798-.364.289-.084.588-.126.896-.126.392 0 .742.061 1.05.182a1.58 1.58 0 0 1 .756.588c.186.271.28.63.28 1.078 0 .149-.01.308-.028.476l-.084.518-.826 4.69h-1.456l.812-4.606.042-.35c.018-.112.028-.215.028-.308 0-.252-.047-.448-.14-.588a.72.72 0 0 0-.392-.308c-.168-.065-.364-.098-.588-.098a2.12 2.12 0 0 0-.784.154c-.252.093-.486.233-.7.42-.206.187-.388.42-.546.7-.15.28-.252.602-.308.966l-.714 4.018h-1.456zm11.329.168c-.691 0-1.269-.098-1.736-.294-.467-.205-.817-.513-1.05-.924-.224-.42-.336-.943-.336-1.568a7.22 7.22 0 0 1 .042-.77l.112-.742c.131-.653.345-1.232.644-1.736.308-.513.714-.919 1.218-1.218.513-.299 1.157-.448 1.932-.448.644 0 1.181.103 1.61.308a2.01 2.01 0 0 1 .966.896c.215.392.322.882.322 1.47a5.44 5.44 0 0 1-.056.728 4.94 4.94 0 0 1-.154.812h-5.096l-.042.364-.014.322c0 .364.056.667.168.91.121.243.303.42.546.532s.551.168.924.168a2.49 2.49 0 0 0 .658-.084 1.73 1.73 0 0 0 .56-.266 1.7 1.7 0 0 0 .434-.462c.131-.196.224-.434.28-.714h1.428a3.62 3.62 0 0 1-.434 1.218c-.196.336-.443.616-.742.84-.289.215-.621.378-.994.49a4.03 4.03 0 0 1-1.19.168zm-1.386-4.55h3.584l.042-.308.014-.28c0-.317-.056-.579-.168-.784a.93.93 0 0 0-.476-.448c-.215-.103-.471-.154-.77-.154-.383 0-.723.075-1.022.224a1.92 1.92 0 0 0-.728.672c-.196.289-.355.649-.476 1.078zm13.031 4.55c-1.148 0-2.039-.238-2.674-.714-.625-.485-.938-1.218-.938-2.198a4.13 4.13 0 0 1 .028-.462l.07-.504 1.036-5.894h1.554l-1.05 5.992a4.14 4.14 0 0 0-.056.336c-.019.131-.028.247-.028.35 0 .588.177 1.031.532 1.33.355.289.868.434 1.54.434.775 0 1.414-.201 1.918-.602s.826-.999.966-1.792l1.064-6.048h1.568l-1.064 6.006c-.149.859-.42 1.568-.812 2.128a3.48 3.48 0 0 1-1.498 1.246c-.607.261-1.325.392-2.156.392zm6.056-.168l1.694-9.604h4.816c.644 0 1.176.098 1.596.294.42.187.732.453.938.798.205.336.308.742.308 1.218 0 .579-.094 1.087-.28 1.526-.178.439-.434.807-.77 1.106-.327.299-.719.532-1.176.7l1.316 3.962h-1.652l-1.19-3.696h-3.374l-.658 3.696h-1.568zm2.464-5.026h3.29c.373 0 .709-.084 1.008-.252s.536-.406.714-.714.266-.677.266-1.106c0-.373-.112-.658-.336-.854-.224-.205-.565-.308-1.022-.308h-3.346l-.574 3.234zm7.653 5.026l1.68-9.604h1.554l-1.442 8.246h4.802L373.52 343h-6.356zm10.386 0l1.778-10.122h1.456l-.644 3.64h.098a3.25 3.25 0 0 1 .672-.56c.252-.159.518-.28.798-.364.289-.084.588-.126.896-.126.392 0 .742.061 1.05.182a1.58 1.58 0 0 1 .756.588c.187.271.28.63.28 1.078 0 .149-.009.308-.028.476l-.084.518-.826 4.69h-1.456l.812-4.606.042-.35a1.85 1.85 0 0 0 .028-.308c0-.252-.047-.448-.14-.588-.093-.149-.224-.252-.392-.308-.168-.065-.364-.098-.588-.098-.261 0-.523.051-.784.154-.252.093-.485.233-.7.42-.205.187-.387.42-.546.7a3.02 3.02 0 0 0-.308.966l-.714 4.018h-1.456zm11.329.168c-.69 0-1.269-.098-1.736-.294-.466-.205-.816-.513-1.05-.924-.224-.42-.336-.943-.336-1.568a7.22 7.22 0 0 1 .042-.77l.112-.742c.131-.653.346-1.232.644-1.736.308-.513.714-.919 1.218-1.218.514-.299 1.158-.448 1.932-.448.644 0 1.181.103 1.61.308.43.196.752.495.966.896.215.392.322.882.322 1.47 0 .215-.018.457-.056.728a4.94 4.94 0 0 1-.154.812h-5.096l-.042.364-.014.322c0 .364.056.667.168.91.122.243.304.42.546.532s.551.168.924.168c.234 0 .453-.028.658-.084a1.72 1.72 0 0 0 .56-.266 1.7 1.7 0 0 0 .434-.462c.131-.196.224-.434.28-.714h1.428c-.084.467-.228.873-.434 1.218-.196.336-.443.616-.742.84-.289.215-.62.378-.994.49-.364.112-.76.168-1.19.168zm-1.386-4.55h3.584l.042-.308.014-.28c0-.317-.056-.579-.168-.784-.102-.205-.261-.355-.476-.448-.214-.103-.471-.154-.77-.154-.382 0-.723.075-1.022.224a1.92 1.92 0 0 0-.728.672c-.196.289-.354.649-.476 1.078zm5.834 4.382l1.302-7.364h1.148l-.042 1.176h.084a3.64 3.64 0 0 1 .434-.63c.168-.205.369-.373.602-.504.234-.14.509-.21.826-.21.159 0 .299.014.42.042l.28.07-.224 1.372h-.504a2.37 2.37 0 0 0-.826.14 1.83 1.83 0 0 0-.644.42c-.177.187-.326.415-.448.686-.121.261-.21.565-.266.91l-.686 3.892h-1.456zm8.007.168c-.69 0-1.269-.098-1.736-.294-.466-.205-.816-.513-1.05-.924-.224-.42-.336-.943-.336-1.568a7.22 7.22 0 0 1 .042-.77l.112-.742c.131-.653.346-1.232.644-1.736.308-.513.714-.919 1.218-1.218.514-.299 1.158-.448 1.932-.448.644 0 1.181.103 1.61.308.43.196.752.495.966.896.215.392.322.882.322 1.47 0 .215-.018.457-.056.728a4.94 4.94 0 0 1-.154.812h-5.096l-.042.364-.014.322c0 .364.056.667.168.91.122.243.304.42.546.532s.551.168.924.168c.234 0 .453-.028.658-.084a1.72 1.72 0 0 0 .56-.266 1.7 1.7 0 0 0 .434-.462c.131-.196.224-.434.28-.714h1.428c-.084.467-.228.873-.434 1.218-.196.336-.443.616-.742.84-.289.215-.62.378-.994.49-.364.112-.76.168-1.19.168zm-1.386-4.55h3.584l.042-.308.014-.28c0-.317-.056-.579-.168-.784-.102-.205-.261-.355-.476-.448-.214-.103-.471-.154-.77-.154-.382 0-.723.075-1.022.224a1.92 1.92 0 0 0-.728.672c-.196.289-.354.649-.476 1.078z" class="C"/><path d="M119.264 258v-3.48l-3.012-5.04h1.224l2.304 3.984 2.304-3.984h1.224l-3.012 5.04V258h-1.032zm7.177.144c-1.764 0-2.916-1.296-2.916-3.324s1.152-3.324 2.916-3.324c1.752 0 2.904 1.296 2.904 3.324s-1.152 3.324-2.904 3.324zm0-.96c1.164 0 1.848-.888 1.848-2.364s-.684-2.364-1.848-2.364c-1.176 0-1.86.888-1.86 2.364s.684 2.364 1.86 2.364zm6.4.96c-1.272 0-2.088-.9-2.088-2.412v-4.092h1.008v3.816c0 1.236.432 1.8 1.344 1.8 1.008 0 1.62-.684 1.62-1.824v-3.792h1.008V258h-.96v-1.032c-.348.756-1.02 1.176-1.932 1.176zm4.814-.144v-6.36h.888l.036 1.176c.228-.804.732-1.176 1.512-1.176h.624v.96h-.612c-.96 0-1.44.516-1.44 1.56V258h-1.008zm11.038.192c-2.28 0-3.828-1.68-3.828-4.44s1.548-4.464 3.828-4.464c2.064 0 3.156 1.116 3.516 2.904l-1.092.072c-.24-1.212-1.008-1.968-2.424-1.968-1.632 0-2.748 1.296-2.748 3.456s1.116 3.432 2.748 3.432c1.488 0 2.28-.828 2.496-2.16l1.092.072c-.312 1.848-1.548 3.096-3.588 3.096zm7.596-.048c-1.764 0-2.916-1.296-2.916-3.324s1.152-3.324 2.916-3.324c1.752 0 2.904 1.296 2.904 3.324s-1.152 3.324-2.904 3.324zm0-.96c1.164 0 1.848-.888 1.848-2.364s-.684-2.364-1.848-2.364c-1.176 0-1.86.888-1.86 2.364s.684 2.364 1.86 2.364zm4.37.816v-6.36h.924l.024 1.116c.312-.78.972-1.26 1.788-1.26.96 0 1.632.48 1.908 1.332.276-.852.924-1.332 1.86-1.332 1.356 0 2.1.876 2.1 2.412V258h-1.008v-3.876c0-1.152-.456-1.74-1.332-1.74-.888 0-1.464.672-1.464 1.812V258h-1.008v-3.804c0-1.128-.372-1.812-1.308-1.812-.888 0-1.476.684-1.476 1.812V258h-1.008zm10.289 1.8v-8.16h.936l.012.972c.384-.732 1.092-1.116 1.956-1.116 1.896 0 2.748 1.572 2.748 3.324s-.852 3.324-2.748 3.324c-.828 0-1.56-.372-1.896-.984v2.64h-1.008zm2.808-2.616c1.104 0 1.788-.876 1.788-2.364s-.684-2.364-1.788-2.364-1.8.804-1.8 2.364.684 2.364 1.8 2.364zm6.116.96c-1.32 0-2.148-.636-2.148-1.728 0-1.08.612-1.68 2.004-1.944l2.256-.42c0-1.068-.504-1.596-1.512-1.596-.888 0-1.38.408-1.572 1.14l-1.068-.084c.24-1.2 1.2-2.016 2.64-2.016 1.632 0 2.52.984 2.52 2.592v2.628c0 .288.096.396.336.396h.252V258c-.072.012-.228.024-.384.024-.768 0-1.116-.3-1.2-1.008-.312.66-1.188 1.128-2.124 1.128zm.096-.888c1.272 0 2.016-.816 2.016-1.872v-.456l-2.064.384c-.864.156-1.14.48-1.14 1.008 0 .6.444.936 1.188.936zm4.937.744v-6.36h.924l.024 1.14c.336-.876 1.08-1.284 1.956-1.284 1.452 0 2.148 1.068 2.148 2.412V258h-1.008v-3.804c0-1.176-.396-1.812-1.356-1.812-.984 0-1.68.636-1.68 1.812V258h-1.008zm7.015 1.8v-.888h.732c.444 0 .624-.132.744-.432l.228-.6h-.348l-2.328-6.24h1.104l1.896 5.304 1.812-5.304h1.104l-2.58 7.164c-.24.684-.684.996-1.536.996h-.828zm12.349-1.608c-1.98 0-3.216-1.224-3.216-3.168v-5.556h1.032v5.556c0 1.38.792 2.16 2.184 2.16 1.38 0 2.172-.78 2.172-2.16v-5.556h1.032v5.556c0 1.944-1.236 3.168-3.204 3.168zm5.237-.192v-8.52h3.228c1.788 0 2.904.996 2.904 2.58 0 .984-.684 1.728-1.44 1.956.756.132 1.2.588 1.284 1.476l.24 2.508h-1.044l-.216-2.4c-.06-.708-.468-1.032-1.452-1.032h-2.472V258h-1.032zm3.36-4.44c1.032 0 1.692-.54 1.692-1.524s-.648-1.548-1.824-1.548h-2.196v3.072h2.328zm4.527 4.44v-8.52h1.032v7.512h4.26V258h-5.292z" class="D"/><rect x="116.5" y="267.5" width="299" height="39" rx="3.5" stroke="#e4e7ec" class="B"/><path d="M126.96 291v-8.52h1.008v3.156c.324-.78 1.044-1.14 1.92-1.14 1.368 0 2.124.996 2.124 2.412V291h-1.008v-3.804c0-1.224-.444-1.812-1.332-1.812-1.032 0-1.704.648-1.704 1.824V291h-1.008zm8.937 0c-1.152 0-1.692-.504-1.692-1.632v-3.84h-.936v-.888h.936v-1.488h1.008v1.488h2.616v-1.488h1.008v1.488h1.692v.888h-1.692v3.816c0 .576.252.768.78.768h.912V291h-1.008c-1.152 0-1.692-.504-1.692-1.632v-3.84h-2.616v3.816c0 .576.252.768.78.768h.912V291h-1.008zm6.098 1.8v-8.16h.936l.012.972c.384-.732 1.092-1.116 1.956-1.116 1.896 0 2.748 1.572 2.748 3.324s-.852 3.324-2.748 3.324c-.828 0-1.56-.372-1.896-.984v2.64h-1.008zm2.808-2.616c1.104 0 1.788-.876 1.788-2.364s-.684-2.364-1.788-2.364-1.8.804-1.8 2.364.684 2.364 1.8 2.364zm6.657.96c-1.704 0-2.652-.9-2.748-2.148l1.056-.072c.12.768.612 1.26 1.692 1.26.864 0 1.428-.264 1.428-.888 0-.504-.252-.72-1.62-.96-1.824-.324-2.4-.888-2.4-1.896 0-1.128.864-1.944 2.4-1.944 1.548 0 2.364.936 2.556 2.04l-1.056.072c-.144-.672-.648-1.152-1.512-1.152-.912 0-1.332.396-1.332.936 0 .624.408.864 1.536 1.056 1.944.336 2.484.84 2.484 1.848 0 1.176-1.08 1.848-2.484 1.848zm4.156-.144v-1.356h1.356V291h-1.356zm0-4.716v-1.356h1.356v1.356h-1.356zm2.938 6.036l3.54-10.32h.96l-3.54 10.32h-.96zm4.922 0l3.54-10.32h.96l-3.54 10.32h-.96zm6.522.48v-.888h.732c.444 0 .624-.132.744-.432l.228-.6h-.348l-2.328-6.24h1.104l1.896 5.304 1.812-5.304h1.104l-2.58 7.164c-.24.684-.684.996-1.536.996h-.828zm8.384-1.656c-1.764 0-2.916-1.296-2.916-3.324s1.152-3.324 2.916-3.324c1.752 0 2.904 1.296 2.904 3.324s-1.152 3.324-2.904 3.324zm0-.96c1.164 0 1.848-.888 1.848-2.364s-.684-2.364-1.848-2.364c-1.176 0-1.86.888-1.86 2.364s.684 2.364 1.86 2.364zm6.4.96c-1.272 0-2.088-.9-2.088-2.412v-4.092h1.008v3.816c0 1.236.432 1.8 1.344 1.8 1.008 0 1.62-.684 1.62-1.824v-3.792h1.008V291h-.96v-1.032c-.348.756-1.02 1.176-1.932 1.176zm4.815-.144v-6.36h.888l.036 1.176c.228-.804.732-1.176 1.512-1.176h.624v.96h-.612c-.96 0-1.44.516-1.44 1.56V291h-1.008zm6.738.144c-1.776 0-2.916-1.308-2.916-3.324s1.14-3.324 2.916-3.324c1.464 0 2.484.792 2.7 2.208l-1.056.072c-.144-.84-.78-1.32-1.644-1.32-1.176 0-1.86.888-1.86 2.364s.684 2.364 1.86 2.364c.864 0 1.5-.48 1.644-1.44l1.056.072c-.216 1.416-1.236 2.328-2.7 2.328zm6.563 0c-1.764 0-2.916-1.296-2.916-3.324s1.152-3.324 2.916-3.324c1.752 0 2.904 1.296 2.904 3.324s-1.152 3.324-2.904 3.324zm0-.96c1.164 0 1.848-.888 1.848-2.364s-.684-2.364-1.848-2.364c-1.176 0-1.86.888-1.86 2.364s.684 2.364 1.86 2.364zm4.371.816v-6.36h.924l.024 1.116c.312-.78.972-1.26 1.788-1.26.96 0 1.632.48 1.908 1.332.276-.852.924-1.332 1.86-1.332 1.356 0 2.1.876 2.1 2.412V291h-1.008v-3.876c0-1.152-.456-1.74-1.332-1.74-.888 0-1.464.672-1.464 1.812V291h-1.008v-3.804c0-1.128-.372-1.812-1.308-1.812-.888 0-1.476.684-1.476 1.812V291h-1.008zm10.289 1.8v-8.16h.936l.012.972c.384-.732 1.092-1.116 1.956-1.116 1.896 0 2.748 1.572 2.748 3.324s-.852 3.324-2.748 3.324c-.828 0-1.56-.372-1.896-.984v2.64h-1.008zm2.808-2.616c1.104 0 1.788-.876 1.788-2.364s-.684-2.364-1.788-2.364-1.8.804-1.8 2.364.684 2.364 1.8 2.364zm6.116.96c-1.32 0-2.148-.636-2.148-1.728 0-1.08.612-1.68 2.004-1.944l2.256-.42c0-1.068-.504-1.596-1.512-1.596-.888 0-1.38.408-1.572 1.14l-1.068-.084c.24-1.2 1.2-2.016 2.64-2.016 1.632 0 2.52.984 2.52 2.592v2.628c0 .288.096.396.336.396h.252V291c-.072.012-.228.024-.384.024-.768 0-1.116-.3-1.2-1.008-.312.66-1.188 1.128-2.124 1.128zm.096-.888c1.272 0 2.016-.816 2.016-1.872v-.456l-2.064.384c-.864.156-1.14.48-1.14 1.008 0 .6.444.936 1.188.936zm4.937.744v-6.36h.924l.024 1.14c.336-.876 1.08-1.284 1.956-1.284 1.452 0 2.148 1.068 2.148 2.412V291h-1.008v-3.804c0-1.176-.396-1.812-1.356-1.812-.984 0-1.68.636-1.68 1.812V291h-1.008zm7.014 1.8v-.888h.732c.444 0 .624-.132.744-.432l.228-.6h-.348l-2.328-6.24h1.104l1.896 5.304 1.812-5.304h1.104l-2.58 7.164c-.24.684-.684.996-1.536.996h-.828zm6.169-1.8v-6.36h.924l.024 1.14c.336-.876 1.08-1.284 1.956-1.284 1.452 0 2.148 1.068 2.148 2.412V291h-1.008v-3.804c0-1.176-.396-1.812-1.356-1.812-.984 0-1.68.636-1.68 1.812V291h-1.008zm8.608.144c-1.32 0-2.148-.636-2.148-1.728 0-1.08.612-1.68 2.004-1.944l2.256-.42c0-1.068-.504-1.596-1.512-1.596-.888 0-1.38.408-1.572 1.14l-1.068-.084c.24-1.2 1.2-2.016 2.64-2.016 1.632 0 2.52.984 2.52 2.592v2.628c0 .288.096.396.336.396h.252V291c-.072.012-.228.024-.384.024-.768 0-1.116-.3-1.2-1.008-.312.66-1.188 1.128-2.124 1.128zm.096-.888c1.272 0 2.016-.816 2.016-1.872v-.456l-2.064.384c-.864.156-1.14.48-1.14 1.008 0 .6.444.936 1.188.936zm4.937.744v-6.36h.924l.024 1.116c.312-.78.972-1.26 1.788-1.26.96 0 1.632.48 1.908 1.332.276-.852.924-1.332 1.86-1.332 1.356 0 2.1.876 2.1 2.412V291h-1.008v-3.876c0-1.152-.456-1.74-1.332-1.74-.888 0-1.464.672-1.464 1.812V291h-1.008v-3.804c0-1.128-.372-1.812-1.308-1.812-.888 0-1.476.684-1.476 1.812V291h-1.008zm12.868.144c-1.8 0-2.916-1.308-2.916-3.324s1.116-3.324 2.868-3.324c1.656 0 2.808 1.2 2.808 3.336v.3h-4.62c.072 1.368.756 2.052 1.86 2.052.828 0 1.368-.42 1.584-1.068l1.08.084c-.336 1.14-1.32 1.944-2.664 1.944zm1.656-3.9c-.096-1.224-.768-1.788-1.704-1.788-.984 0-1.644.612-1.812 1.788h3.516zm2.236 3.756v-1.356h1.356V291h-1.356zm5.401.144c-1.776 0-2.916-1.308-2.916-3.324s1.14-3.324 2.916-3.324c1.464 0 2.484.792 2.7 2.208l-1.056.072c-.144-.84-.78-1.32-1.644-1.32-1.176 0-1.86.888-1.86 2.364s.684 2.364 1.86 2.364c.864 0 1.5-.48 1.644-1.44l1.056.072c-.216 1.416-1.236 2.328-2.7 2.328zm6.562 0c-1.764 0-2.916-1.296-2.916-3.324s1.152-3.324 2.916-3.324c1.752 0 2.904 1.296 2.904 3.324s-1.152 3.324-2.904 3.324zm0-.96c1.164 0 1.848-.888 1.848-2.364s-.684-2.364-1.848-2.364c-1.176 0-1.86.888-1.86 2.364s.684 2.364 1.86 2.364zm4.371.816v-6.36h.924l.024 1.116c.312-.78.972-1.26 1.788-1.26.96 0 1.632.48 1.908 1.332.276-.852.924-1.332 1.86-1.332 1.356 0 2.1.876 2.1 2.412V291h-1.008v-3.876c0-1.152-.456-1.74-1.332-1.74-.888 0-1.464.672-1.464 1.812V291h-1.008v-3.804c0-1.128-.372-1.812-1.308-1.812-.888 0-1.476.684-1.476 1.812V291h-1.008zm-140.229-73v-9.94h3.57c2.38 0 3.612.826 3.612 2.688 0 1.134-.686 1.946-1.862 2.114 1.442.168 2.282 1.078 2.282 2.408 0 1.82-1.26 2.73-3.5 2.73h-4.102zm4.06-1.358c1.246 0 1.988-.518 1.988-1.512 0-.98-.742-1.54-1.988-1.54h-2.548v3.052h2.548zm-.518-4.34c1.33 0 2.086-.518 2.086-1.442 0-.98-.714-1.442-2.086-1.442h-2.03v2.884h2.03zm9.051 5.866c-2.142 0-3.542-1.526-3.542-3.892s1.4-3.892 3.542-3.892c2.128 0 3.528 1.526 3.528 3.892s-1.4 3.892-3.528 3.892zm0-1.288c1.26 0 1.988-.966 1.988-2.604s-.728-2.604-1.988-2.604-2.002.966-2.002 2.604.742 2.604 2.002 2.604zm7.636 1.12c-1.414 0-2.072-.616-2.072-2.016v-4.214h-1.134v-1.218h1.134v-1.75h1.484v1.75h1.974v1.218h-1.974v4.102c0 .7.294.91.91.91h1.064V218h-1.386zm6.022.224c-1.722 0-2.8-.896-3.192-2.254l1.526-.098c.21.63.756.98 1.666.98 1.442 0 2.24-.966 2.38-3.276-.518.798-1.358 1.232-2.408 1.232-1.946 0-3.304-1.372-3.304-3.416 0-2.184 1.456-3.556 3.542-3.556 2.562 0 3.724 1.792 3.724 4.69 0 3.374-1.064 5.698-3.934 5.698zm.182-4.718c1.246 0 2.114-.77 2.114-2.114 0-1.288-.77-2.212-2.058-2.212-1.26 0-2.03.896-2.03 2.198s.798 2.128 1.974 2.128zm13.27 4.718c-2.884 0-4.634-1.96-4.634-5.18s1.75-5.208 4.634-5.208c2.912 0 4.648 1.988 4.648 5.208s-1.736 5.18-4.648 5.18zm0-1.386c1.932 0 3.08-1.4 3.08-3.794s-1.148-3.822-3.08-3.822c-1.904 0-3.066 1.428-3.066 3.822s1.162 3.794 3.066 3.794zm6.094 1.162v-7.448h1.358l.042 1.288c.392-1.008 1.246-1.456 2.254-1.456 1.666 0 2.52 1.204 2.52 2.828V218h-1.484v-4.34c0-1.316-.406-2.03-1.442-2.03-1.05 0-1.764.714-1.764 2.03V218h-1.484zm11.982.168c-1.036 0-1.862-.476-2.282-1.288l-.042 1.12h-1.386v-9.94h1.484v3.542c.378-.644 1.19-1.218 2.226-1.218 1.946 0 3.164 1.512 3.164 3.892s-1.218 3.892-3.164 3.892zm-.238-1.288c1.134 0 1.862-.994 1.862-2.604 0-1.638-.714-2.604-1.848-2.604-1.26 0-2.002.966-2.002 2.604 0 1.61.742 2.604 1.988 2.604zm8.112 1.288c-2.142 0-3.542-1.526-3.542-3.892s1.4-3.892 3.542-3.892c2.128 0 3.528 1.526 3.528 3.892s-1.4 3.892-3.528 3.892zm0-1.288c1.26 0 1.988-.966 1.988-2.604s-.728-2.604-1.988-2.604-2.002.966-2.002 2.604.742 2.604 2.002 2.604zm7.278 1.288c-1.54 0-2.548-.742-2.548-2.03 0-1.274.756-1.96 2.38-2.282l2.562-.49c0-1.148-.532-1.722-1.596-1.722-.952 0-1.484.434-1.68 1.246l-1.54-.098c.28-1.484 1.442-2.408 3.22-2.408 2.016 0 3.08 1.134 3.08 3.066v2.898c0 .364.126.476.406.476h.266V218c-.098.028-.336.042-.546.042-.854 0-1.358-.322-1.484-1.19-.378.784-1.358 1.316-2.52 1.316zm.252-1.176c1.33 0 2.142-.84 2.142-2.03v-.476l-2.17.42c-.896.168-1.232.518-1.232 1.092 0 .644.462.994 1.26.994zm5.755 1.008v-7.448h1.358l.042 1.414c.28-.98.854-1.414 1.778-1.414h.714v1.33h-.714c-1.134 0-1.694.546-1.694 1.722V218h-1.484zm7.801.168c-1.918 0-3.122-1.498-3.122-3.892 0-2.38 1.204-3.892 3.122-3.892 1.022 0 1.876.448 2.268 1.218v-3.542h1.484V218h-1.372l-.042-1.12c-.42.812-1.302 1.288-2.338 1.288zm.392-1.288c1.204 0 1.876-.966 1.876-2.604 0-1.652-.672-2.604-1.876-2.604s-1.974.98-1.974 2.604c0 1.596.784 2.604 1.974 2.604zm5.137 1.12v-7.448h1.484V218h-1.484zm-.028-8.526v-1.484h1.554v1.484h-1.554zm3.419 8.526v-7.448h1.358l.042 1.288c.392-1.008 1.245-1.456 2.254-1.456 1.666 0 2.52 1.204 2.52 2.828V218h-1.484v-4.34c0-1.316-.406-2.03-1.442-2.03-1.05 0-1.764.714-1.764 2.03V218h-1.484zm11.118 2.268c-1.778 0-2.94-.854-3.248-2.142l1.54-.098c.196.63.644 1.008 1.708 1.008 1.232 0 1.904-.504 1.904-1.582v-1.078c-.364.756-1.204 1.246-2.17 1.246-1.876 0-3.206-1.47-3.206-3.612 0-2.128 1.316-3.626 3.164-3.626 1.05 0 1.918.518 2.268 1.344v-1.176h1.442v6.86c0 1.834-1.316 2.856-3.402 2.856zm-.028-3.906c1.176 0 1.932-.896 1.946-2.366.014-1.456-.756-2.352-1.946-2.352-1.204 0-1.904.91-1.904 2.352 0 1.456.728 2.366 1.904 2.366z" class="D"/><mask id="A" maskUnits="userSpaceOnUse" x="24" y="127" width="292" height="29" fill="#000"><path d="M24 127h292v29H24z" class="B"/><path d="M30.974 150l-5.67-21.3h3.48l4.14 16.83 4.14-16.83h3.27l4.17 16.83 4.11-16.83h3.48l-5.64 21.3h-3.81l-3.96-15.54-3.96 15.54h-3.75zm24.016 0v-21.3h3.18v7.65c.84-1.83 2.58-2.67 4.68-2.67 3.48 0 5.37 2.49 5.37 6.06V150h-3.18v-9.42c0-2.85-.99-4.23-3.03-4.23-2.34 0-3.84 1.5-3.84 4.29V150h-3.18zm21.932.36c-3.3 0-5.46-1.59-5.46-4.35 0-2.73 1.62-4.2 5.1-4.89l5.49-1.05c0-2.46-1.14-3.69-3.42-3.69-2.04 0-3.18.93-3.6 2.67l-3.3-.21c.6-3.18 3.09-5.16 6.9-5.16 4.32 0 6.6 2.43 6.6 6.57v6.21c0 .78.27 1.02.87 1.02h.57V150c-.21.06-.72.09-1.17.09-1.83 0-2.91-.69-3.18-2.55-.81 1.68-2.91 2.82-5.4 2.82zm.54-2.52c2.85 0 4.59-1.8 4.59-4.35v-1.02l-4.65.9c-1.92.36-2.64 1.11-2.64 2.34 0 1.38.99 2.13 2.7 2.13zM94.625 150c-3.03 0-4.44-1.32-4.44-4.32v-9.03h-2.43v-2.61h2.43v-3.75h3.18v3.75h4.23v2.61h-4.23v8.79c0 1.5.63 1.95 1.95 1.95h2.28V150h-2.97zm14.468 4.5v-2.61h1.92c1.08 0 1.5-.3 1.8-1.05l.51-1.32h-.99l-5.76-15.48h3.36l4.38 12.54 4.2-12.54h3.36l-6.36 17.82c-.66 1.83-1.8 2.64-4.02 2.64h-2.4zm21.55-4.14c-4.59 0-7.59-3.27-7.59-8.34s3-8.34 7.59-8.34c4.56 0 7.56 3.27 7.56 8.34s-3 8.34-7.56 8.34zm0-2.76c2.7 0 4.26-2.07 4.26-5.58s-1.56-5.58-4.26-5.58-4.29 2.07-4.29 5.58 1.59 5.58 4.29 5.58zm16.051 2.76c-3.24 0-5.25-2.25-5.25-6.06v-10.26h3.18v9.45c0 2.91.99 4.2 3.03 4.2 2.31 0 3.69-1.56 3.69-4.29v-9.36h3.18V150h-2.97l-.03-2.61c-.84 1.95-2.52 2.97-4.83 2.97zm22.893-.36l-4.86-15.96h3.33l3.42 12.48 3.51-12.48h3.03l3.51 12.48 3.42-12.48h3.36l-4.89 15.96h-3.57l-3.36-11.4-3.33 11.4h-3.57zm25.547.36c-3.3 0-5.46-1.59-5.46-4.35 0-2.73 1.62-4.2 5.1-4.89l5.49-1.05c0-2.46-1.14-3.69-3.42-3.69-2.04 0-3.18.93-3.6 2.67l-3.3-.21c.6-3.18 3.09-5.16 6.9-5.16 4.32 0 6.6 2.43 6.6 6.57v6.21c0 .78.27 1.02.87 1.02h.57V150c-.21.06-.72.09-1.17.09-1.83 0-2.91-.69-3.18-2.55-.81 1.68-2.91 2.82-5.4 2.82zm.54-2.52c2.85 0 4.59-1.8 4.59-4.35v-1.02l-4.65.9c-1.92.36-2.64 1.11-2.64 2.34 0 1.38.99 2.13 2.7 2.13zm12.333 2.16v-15.96h2.91l.09 2.76c.84-2.16 2.67-3.12 4.83-3.12 3.57 0 5.4 2.58 5.4 6.06V150h-3.18v-9.3c0-2.82-.87-4.35-3.09-4.35-2.25 0-3.78 1.53-3.78 4.35v9.3h-3.18zm22.936 0c-3.03 0-4.44-1.32-4.44-4.32v-9.03h-2.43v-2.61h2.43v-3.75h3.18v3.75h4.23v2.61h-4.23v8.79c0 1.5.63 1.95 1.95 1.95h2.28V150h-2.97zm19.658 0c-3.03 0-4.44-1.32-4.44-4.32v-9.03h-2.43v-2.61h2.43v-3.75h3.18v3.75h4.23v2.61h-4.23v8.79c0 1.5.63 1.95 1.95 1.95h2.28V150h-2.97zm12.494.36c-4.59 0-7.59-3.27-7.59-8.34s3-8.34 7.59-8.34c4.56 0 7.56 3.27 7.56 8.34s-3 8.34-7.56 8.34zm0-2.76c2.7 0 4.26-2.07 4.26-5.58s-1.56-5.58-4.26-5.58-4.29 2.07-4.29 5.58 1.59 5.58 4.29 5.58zm24.178 2.76c-4.11 0-6.69-3.21-6.69-8.34 0-5.1 2.58-8.34 6.69-8.34 2.19 0 4.02.96 4.86 2.61v-7.59h3.18V150h-2.94l-.09-2.4c-.9 1.74-2.79 2.76-5.01 2.76zm.84-2.76c2.58 0 4.02-2.07 4.02-5.58 0-3.54-1.44-5.58-4.02-5.58s-4.23 2.1-4.23 5.58c0 3.42 1.68 5.58 4.23 5.58zm18.37 2.76c-4.59 0-7.59-3.27-7.59-8.34s3-8.34 7.59-8.34c4.56 0 7.56 3.27 7.56 8.34s-3 8.34-7.56 8.34zm0-2.76c2.7 0 4.26-2.07 4.26-5.58s-1.56-5.58-4.26-5.58-4.29 2.07-4.29 5.58 1.59 5.58 4.29 5.58z"/></mask><path d="M30.974 150l-5.67-21.3h3.48l4.14 16.83 4.14-16.83h3.27l4.17 16.83 4.11-16.83h3.48l-5.64 21.3h-3.81l-3.96-15.54-3.96 15.54h-3.75zm24.016 0v-21.3h3.18v7.65c.84-1.83 2.58-2.67 4.68-2.67 3.48 0 5.37 2.49 5.37 6.06V150h-3.18v-9.42c0-2.85-.99-4.23-3.03-4.23-2.34 0-3.84 1.5-3.84 4.29V150h-3.18zm21.932.36c-3.3 0-5.46-1.59-5.46-4.35 0-2.73 1.62-4.2 5.1-4.89l5.49-1.05c0-2.46-1.14-3.69-3.42-3.69-2.04 0-3.18.93-3.6 2.67l-3.3-.21c.6-3.18 3.09-5.16 6.9-5.16 4.32 0 6.6 2.43 6.6 6.57v6.21c0 .78.27 1.02.87 1.02h.57V150c-.21.06-.72.09-1.17.09-1.83 0-2.91-.69-3.18-2.55-.81 1.68-2.91 2.82-5.4 2.82zm.54-2.52c2.85 0 4.59-1.8 4.59-4.35v-1.02l-4.65.9c-1.92.36-2.64 1.11-2.64 2.34 0 1.38.99 2.13 2.7 2.13zM94.625 150c-3.03 0-4.44-1.32-4.44-4.32v-9.03h-2.43v-2.61h2.43v-3.75h3.18v3.75h4.23v2.61h-4.23v8.79c0 1.5.63 1.95 1.95 1.95h2.28V150h-2.97zm14.468 4.5v-2.61h1.92c1.08 0 1.5-.3 1.8-1.05l.51-1.32h-.99l-5.76-15.48h3.36l4.38 12.54 4.2-12.54h3.36l-6.36 17.82c-.66 1.83-1.8 2.64-4.02 2.64h-2.4zm21.55-4.14c-4.59 0-7.59-3.27-7.59-8.34s3-8.34 7.59-8.34c4.56 0 7.56 3.27 7.56 8.34s-3 8.34-7.56 8.34zm0-2.76c2.7 0 4.26-2.07 4.26-5.58s-1.56-5.58-4.26-5.58-4.29 2.07-4.29 5.58 1.59 5.58 4.29 5.58zm16.051 2.76c-3.24 0-5.25-2.25-5.25-6.06v-10.26h3.18v9.45c0 2.91.99 4.2 3.03 4.2 2.31 0 3.69-1.56 3.69-4.29v-9.36h3.18V150h-2.97l-.03-2.61c-.84 1.95-2.52 2.97-4.83 2.97zm22.893-.36l-4.86-15.96h3.33l3.42 12.48 3.51-12.48h3.03l3.51 12.48 3.42-12.48h3.36l-4.89 15.96h-3.57l-3.36-11.4-3.33 11.4h-3.57zm25.547.36c-3.3 0-5.46-1.59-5.46-4.35 0-2.73 1.62-4.2 5.1-4.89l5.49-1.05c0-2.46-1.14-3.69-3.42-3.69-2.04 0-3.18.93-3.6 2.67l-3.3-.21c.6-3.18 3.09-5.16 6.9-5.16 4.32 0 6.6 2.43 6.6 6.57v6.21c0 .78.27 1.02.87 1.02h.57V150c-.21.06-.72.09-1.17.09-1.83 0-2.91-.69-3.18-2.55-.81 1.68-2.91 2.82-5.4 2.82zm.54-2.52c2.85 0 4.59-1.8 4.59-4.35v-1.02l-4.65.9c-1.92.36-2.64 1.11-2.64 2.34 0 1.38.99 2.13 2.7 2.13zm12.333 2.16v-15.96h2.91l.09 2.76c.84-2.16 2.67-3.12 4.83-3.12 3.57 0 5.4 2.58 5.4 6.06V150h-3.18v-9.3c0-2.82-.87-4.35-3.09-4.35-2.25 0-3.78 1.53-3.78 4.35v9.3h-3.18zm22.936 0c-3.03 0-4.44-1.32-4.44-4.32v-9.03h-2.43v-2.61h2.43v-3.75h3.18v3.75h4.23v2.61h-4.23v8.79c0 1.5.63 1.95 1.95 1.95h2.28V150h-2.97zm19.658 0c-3.03 0-4.44-1.32-4.44-4.32v-9.03h-2.43v-2.61h2.43v-3.75h3.18v3.75h4.23v2.61h-4.23v8.79c0 1.5.63 1.95 1.95 1.95h2.28V150h-2.97zm12.494.36c-4.59 0-7.59-3.27-7.59-8.34s3-8.34 7.59-8.34c4.56 0 7.56 3.27 7.56 8.34s-3 8.34-7.56 8.34zm0-2.76c2.7 0 4.26-2.07 4.26-5.58s-1.56-5.58-4.26-5.58-4.29 2.07-4.29 5.58 1.59 5.58 4.29 5.58zm24.178 2.76c-4.11 0-6.69-3.21-6.69-8.34 0-5.1 2.58-8.34 6.69-8.34 2.19 0 4.02.96 4.86 2.61v-7.59h3.18V150h-2.94l-.09-2.4c-.9 1.74-2.79 2.76-5.01 2.76zm.84-2.76c2.58 0 4.02-2.07 4.02-5.58 0-3.54-1.44-5.58-4.02-5.58s-4.23 2.1-4.23 5.58c0 3.42 1.68 5.58 4.23 5.58zm18.37 2.76c-4.59 0-7.59-3.27-7.59-8.34s3-8.34 7.59-8.34c4.56 0 7.56 3.27 7.56 8.34s-3 8.34-7.56 8.34zm0-2.76c2.7 0 4.26-2.07 4.26-5.58s-1.56-5.58-4.26-5.58-4.29 2.07-4.29 5.58 1.59 5.58 4.29 5.58z" class="B"/><path d="M30.974 150l-.966.257.198.743h.769v-1zm-5.67-21.3v-1h-1.301l.335 1.257.966-.257zm3.48 0l.971-.239-.187-.761h-.784v1zm4.14 16.83l-.971.239h1.942l-.971-.239zm4.14-16.83v-1h-.784l-.187.761.971.239zm3.27 0l.971-.241-.188-.759h-.782v1zm4.17 16.83l-.971.241 1.942-.004-.971-.237zm4.11-16.83v-1h-.785l-.186.763.971.237zm3.48 0l.967.256.333-1.256h-1.299v1zm-5.64 21.3v1h.77l.197-.744-.967-.256zm-3.81 0l-.969.247.192.753h.777v-1zm-3.96-15.54l.969-.247h-1.938l.969.247zM34.724 150v1h.777l.192-.753-.969-.247zm-2.784-.257l-5.67-21.3-1.933.514 5.67 21.3 1.933-.514zM25.304 129.7h3.48v-2h-3.48v2zm2.509-.761l4.14 16.83 1.942-.478-4.14-16.83-1.942.478zm6.082 16.83l4.14-16.83-1.942-.478-4.14 16.83 1.942.478zm3.169-16.069h3.27v-2h-3.27v2zm2.299-.76l4.17 16.831 1.941-.481-4.17-16.831-1.941.481zm6.112 16.827l4.11-16.83-1.943-.474-4.11 16.83 1.943.474zm3.139-16.067h3.48v-2h-3.48v2zm2.513-1.256l-5.64 21.3 1.933.512 5.64-21.3-1.933-.512zM46.454 149h-3.81v2h3.81v-2zm-2.841.753l-3.96-15.54-1.938.494 3.96 15.54 1.938-.494zm-5.898-15.54l-3.96 15.54 1.938.494 3.96-15.54-1.938-.494zM34.724 149h-3.75v2h3.75v-2zm20.266 1h-1v1h1v-1zm0-21.3v-1h-1v1h1zm3.18 0h1v-1h-1v1zm0 7.65h-1l1.909.417-.909-.417zM68.219 150v1h1v-1h-1zm-3.18 0h-1v1h1v-1zm-6.87 0v1h1v-1h-1zm-2.18 0v-21.3h-2V150h2zm-1-20.3h3.18v-2h-3.18v2zm2.18-1v7.65h2v-7.65h-2zm1.909 8.067c.633-1.38 1.945-2.087 3.771-2.087v-2c-2.374 0-4.542.973-5.589 3.253l1.818.834zm3.771-2.087c1.483 0 2.532.52 3.228 1.339.714.84 1.142 2.102 1.142 3.721h2c0-1.951-.516-3.719-1.618-5.016-1.12-1.319-2.755-2.044-4.752-2.044v2zm4.37 5.06V150h2v-10.26h-2zm1 9.26h-3.18v2h3.18v-2zm-2.18 1v-9.42h-2V150h2zm0-9.42c0-1.508-.256-2.816-.937-3.766-.728-1.016-1.821-1.464-3.093-1.464v2c.768 0 1.19.242 1.467.629.324.452.563 1.259.563 2.601h2zm-4.03-5.23c-1.39 0-2.639.452-3.533 1.421-.885.959-1.307 2.301-1.307 3.869h2c0-1.222.327-2.025.778-2.513.441-.479 1.112-.777 2.062-.777v-2zm-4.84 5.29V150h2v-9.36h-2zm1 8.36h-3.18v2h3.18v-2zm18.392-7.88l-.188-.982-.007.001.195.981zm5.49-1.05l.188.982.812-.155v-.827h-1zm-7.02-1.02l-.063.998.838.053.197-.816-.972-.235zm-3.3-.21l-.983-.185-.21 1.111 1.129.072.064-.998zm14.94 8.64h1v-1h-1v1zm0 2.52l.275.962.725-.208V150h-1zm-4.35-2.46l.99-.144-.47-3.237-1.421 2.947.901.434zm-.27-5.07h1v-1.212l-1.19.23.19.982zm-4.65.9l.184.983.006-.001-.19-.982zm-.48 5.99c-1.503 0-2.628-.364-3.353-.929-.695-.541-1.107-1.33-1.107-2.421h-2c0 1.669.668 3.055 1.878 3.999 1.18.92 2.786 1.351 4.582 1.351v-2zm-4.46-3.35c0-1.146.329-1.913.932-2.484.642-.608 1.703-1.096 3.362-1.425l-.389-1.962c-1.821.361-3.31.953-4.348 1.935-1.077 1.019-1.558 2.352-1.558 3.936h2zm4.288-3.908l5.49-1.05-.376-1.964-5.49 1.05.376 1.964zm6.302-2.032c0-1.366-.315-2.577-1.122-3.447-.82-.885-1.984-1.243-3.298-1.243v2c.965 0 1.511.257 1.832.602.333.36.588.994.588 2.088h2zm-4.42-4.69c-1.169 0-2.197.267-3.012.886-.82.623-1.31 1.516-1.56 2.549l1.944.47c.171-.707.46-1.149.825-1.426.37-.281.931-.479 1.803-.479v-2zm-3.537 2.672l-3.3-.21-.127 1.996 3.3.21.127-1.996zm-2.381.973c.258-1.369.91-2.432 1.869-3.161.966-.735 2.316-1.184 4.049-1.184v-2c-2.077 0-3.878.541-5.259 1.591-1.389 1.056-2.282 2.573-2.624 4.384l1.965.37zm5.917-4.345c1.975 0 3.337.552 4.208 1.435s1.392 2.243 1.392 4.135h2c0-2.248-.621-4.175-1.968-5.54s-3.287-2.03-5.632-2.03v2zm5.6 5.57v6.21h2v-6.21h-2zm0 6.21c0 .457.069 1.032.469 1.473.427.473 1.001.547 1.401.547v-2c-.043 0-.07-.002-.086-.004.012.005.038.015.071.035s.067.048.096.081c.061.067.072.119.067.103a.53.53 0 0 1-.011-.072 1.56 1.56 0 0 1-.007-.163h-2zm1.87 2.02h.57v-2h-.57v2zm-.43-1V150h2v-2.52h-2zm.725 1.558c.016-.004 0 .001-.066.01l-.226.022-.604.02v2l.746-.025c.211-.015.484-.042.698-.103l-.549-1.924zm-.895.052c-.809 0-1.283-.156-1.57-.373-.263-.2-.511-.563-.621-1.321l-1.979.288c.16 1.102.587 2.014 1.389 2.624.779.593 1.759.782 2.78.782v-2zm-4.081-1.984c-.595 1.234-2.268 2.254-4.499 2.254v2c2.749 0 5.276-1.26 6.301-3.386l-1.802-.868zm-3.959 1.734c1.639 0 3.052-.521 4.061-1.502s1.529-2.34 1.529-3.848h-2c0 1.042-.351 1.858-.923 2.414s-1.456.936-2.667.936v2zm5.59-5.35v-1.02h-2v1.02h2zm-1.19-2.002l-4.65.9.38 1.964 4.65-.9-.38-1.964zm-4.644.899c-1.036.194-1.911.519-2.533 1.091-.667.613-.923 1.399-.923 2.232h2c0-.397.104-.601.277-.76.219-.201.663-.431 1.547-.597l-.369-1.966zm-3.456 3.323c0 .953.356 1.795 1.093 2.371.7.546 1.624.759 2.607.759v-2c-.728 0-1.154-.162-1.376-.336-.185-.144-.324-.367-.324-.794h-2zm16.423-9.06h1v-1h-1v1zm-2.43 0h-1v1h1v-1zm0-2.61v-1h-1v1h1zm2.43 0v1h1v-1h-1zm0-3.75v-1h-1v1h1zm3.18 0h1v-1h-1v1zm0 3.75h-1v1h1v-1zm4.23 0h1v-1h-1v1zm0 2.61v1h1v-1h-1zm-4.23 0v-1h-1v1h1zm4.23 10.74h1v-1h-1v1zm0 2.61v1h1v-1h-1zm-2.97-1c-1.394 0-2.197-.307-2.662-.755-.457-.44-.778-1.203-.778-2.565h-2c0 1.638.384 3.035 1.39 4.005.998.962 2.415 1.315 4.05 1.315v-2zm-3.44-3.32v-9.03h-2v9.03h2zm-1-10.03h-2.43v2h2.43v-2zm-1.43 1v-2.61h-2v2.61h2zm-1-1.61h2.43v-2h-2.43v2zm3.43-1v-3.75h-2v3.75h2zm-1-2.75h3.18v-2h-3.18v2zm2.18-1v3.75h2v-3.75h-2zm1 4.75h4.23v-2h-4.23v2zm3.23-1v2.61h2v-2.61h-2zm1 1.61h-4.23v2h4.23v-2zm-5.23 1v8.79h2v-8.79h-2zm0 8.79c0 .856.174 1.689.799 2.27.609.566 1.422.68 2.151.68v-2c-.591 0-.752-.111-.789-.145-.02-.019-.161-.161-.161-.805h-2zm2.95 2.95h2.28v-2h-2.28v2zm1.28-1V150h2v-2.61h-2zm1 1.61h-2.97v2h2.97v-2zm11.498 5.5h-1v1h1v-1zm0-2.61v-1h-1v1h1zm3.72-1.05l.929.371.004-.011-.933-.36zm.51-1.32l.933.36.525-1.36h-1.458v1zm-.99 0l-.937.349.242.651h.695v-1zm-5.76-15.48v-1h-1.439l.502 1.349.937-.349zm3.36 0l.944-.33-.234-.67h-.71v1zm4.38 12.54l-.944.33.964 2.759.928-2.771-.948-.318zm4.2-12.54v-1h-.72l-.228.682.948.318zm3.36 0l.942.336.477-1.336h-1.419v1zm-6.36 17.82l.941.339.001-.003-.942-.336zm-5.42 2.64v-2.61h-2v2.61h2zm-1-1.61h1.92v-2h-1.92v2zm1.92 0c.61 0 1.203-.08 1.712-.389.535-.326.825-.81 1.017-1.29l-1.857-.742c-.109.27-.179.311-.199.323-.046.028-.203.098-.673.098v2zm2.733-1.69l.51-1.32-1.866-.72-.51 1.32 1.866.72zm-.423-2.68h-.99v2h.99v-2zm-.053.651l-5.76-15.48-1.874.698 5.76 15.48 1.874-.698zm-6.697-14.131h3.36v-2h-3.36v2zm2.416-.67l4.38 12.54 1.888-.66-4.38-12.54-1.888.66zm6.272 12.528l4.2-12.54-1.896-.636-4.2 12.54 1.896.636zm3.252-11.858h3.36v-2h-3.36v2zm2.418-1.336l-6.36 17.82 1.884.672 6.36-17.82-1.884-.672zm-6.359 17.817c-.283.786-.627 1.238-1.04 1.514-.422.282-1.042.465-2.039.465v2c1.223 0 2.283-.222 3.151-.802.877-.587 1.433-1.455 1.81-2.499l-1.882-.678zm-3.079 1.979h-2.4v2h2.4v-2zm19.15-4.14c-2.045 0-3.663-.721-4.777-1.943-1.122-1.23-1.813-3.057-1.813-5.397h-2c0 2.73.81 5.073 2.335 6.745 1.534 1.681 3.711 2.595 6.255 2.595v-2zm-6.59-7.34c0-2.34.691-4.167 1.813-5.397 1.114-1.222 2.732-1.943 4.777-1.943v-2c-2.544 0-4.721.914-6.255 2.595-1.525 1.672-2.335 4.015-2.335 6.745h2zm6.59-7.34c2.029 0 3.64.72 4.751 1.942 1.119 1.23 1.809 3.058 1.809 5.398h2c0-2.73-.809-5.072-2.33-6.744-1.529-1.681-3.698-2.596-6.23-2.596v2zm6.56 7.34c0 2.34-.69 4.168-1.809 5.398-1.111 1.222-2.722 1.942-4.751 1.942v2c2.532 0 4.701-.915 6.23-2.596 1.521-1.672 2.33-4.014 2.33-6.744h-2zm-6.56 6.58c1.635 0 3.006-.642 3.939-1.868.905-1.19 1.321-2.826 1.321-4.712h-2c0 1.624-.363 2.778-.913 3.501-.522.686-1.281 1.079-2.347 1.079v2zm5.26-6.58c0-1.886-.416-3.522-1.321-4.712-.933-1.226-2.304-1.868-3.939-1.868v2c1.066 0 1.825.393 2.347 1.079.55.723.913 1.877.913 3.501h2zm-5.26-6.58c-1.633 0-3.01.641-3.95 1.864-.914 1.189-1.34 2.827-1.34 4.716h2c0-1.621.369-2.773.926-3.497.53-.689 1.298-1.083 2.364-1.083v-2zm-5.29 6.58c0 1.889.426 3.527 1.34 4.716.94 1.223 2.317 1.864 3.95 1.864v-2c-1.066 0-1.834-.394-2.364-1.083-.557-.724-.926-1.876-.926-3.497h-2zm16.091-7.98v-1h-1v1h1zm3.18 0h1v-1h-1v1zm6.72 0v-1h-1v1h1zm3.18 0h1v-1h-1v1zm0 15.96v1h1v-1h-1zm-2.97 0l-1 .011.012.989h.988v-1zm-.03-2.61l1-.011-1.918-.385.918.396zm-4.83 1.97c-1.375 0-2.396-.469-3.087-1.259-.705-.807-1.163-2.063-1.163-3.801h-2c0 2.072.548 3.846 1.657 5.117 1.125 1.287 2.728 1.943 4.593 1.943v-2zm-4.25-5.06v-10.26h-2v10.26h2zm-1-9.26h3.18v-2h-3.18v2zm2.18-1v9.45h2v-9.45h-2zm0 9.45c0 1.533.254 2.841.944 3.782.737 1.008 1.836 1.418 3.086 1.418v-2c-.79 0-1.206-.235-1.473-.6-.316-.431-.557-1.223-.557-2.6h-2zm4.03 5.2c1.393 0 2.612-.479 3.467-1.466.839-.968 1.223-2.302 1.223-3.824h-2c0 1.208-.305 2.019-.734 2.514-.412.475-1.039.776-1.956.776v2zm4.69-5.29v-9.36h-2v9.36h2zm-1-8.36h3.18v-2h-3.18v2zm2.18-1V150h2v-15.96h-2zm1 14.96h-2.97v2h2.97v-2zm-1.97.989l-.03-2.61-2 .022.03 2.61 2-.022zm-1.948-2.995c-.346.804-.846 1.378-1.468 1.76-.627.384-1.436.606-2.444.606v2c1.303 0 2.489-.288 3.489-.901 1.006-.616 1.766-1.527 2.26-2.673l-1.837-.792zM169.587 150l-.956.291.216.709h.74v-1zm-4.86-15.96v-1h-1.349l.393 1.291.956-.291zm3.33 0l.965-.264-.202-.736h-.763v1zm3.42 12.48l-.964.264.952 3.474.975-3.467-.963-.271zm3.51-12.48v-1h-.757l-.205.729.962.271zm3.03 0l.963-.271-.205-.729h-.758v1zm3.51 12.48l-.962.271.975 3.467.952-3.474-.965-.264zm3.42-12.48v-1h-.762l-.202.736.964.264zm3.36 0l.957.293.396-1.293h-1.353v1zm-4.89 15.96v1h.74l.217-.707-.957-.293zm-3.57 0l-.959.283.212.717h.747v-1zm-3.36-11.4l.96-.283-.964-3.269-.956 3.272.96.28zm-3.33 11.4v1h.75l.21-.72-.96-.28zm-2.613-.291l-4.86-15.96-1.913.582 4.86 15.96 1.913-.582zm-5.817-14.669h3.33v-2h-3.33v2zm2.366-.736l3.42 12.48 1.929-.528-3.42-12.48-1.929.528zm5.347 12.487l3.51-12.48-1.925-.542-3.51 12.48 1.925.542zm2.547-11.751h3.03v-2h-3.03v2zm2.068-.729l3.51 12.48 1.925-.542-3.51-12.48-1.925.542zm5.437 12.473l3.42-12.48-1.929-.528-3.42 12.48 1.929.528zm2.455-11.744h3.36v-2h-3.36v2zm2.404-1.293l-4.89 15.96 1.913.586 4.89-15.96-1.913-.586zM183.417 149h-3.57v2h3.57v-2zm-2.61.717l-3.36-11.4-1.919.566 3.36 11.4 1.919-.566zm-5.28-11.397l-3.33 11.4 1.92.56 3.33-11.4-1.92-.56zm-2.37 10.68h-3.57v2h3.57v-2zm21.617-7.88l-.187-.982-.007.001.194.981zm5.49-1.05l.188.982.812-.155v-.827h-1zm-7.02-1.02l-.063.998.838.053.198-.816-.973-.235zm-3.3-.21l-.982-.185-.21 1.111 1.129.072.063-.998zm14.94 8.64h1v-1h-1v1zm0 2.52l.275.962.725-.208V150h-1zm-4.349-2.46l.989-.144-.47-3.237-1.42 2.947.901.434zm-.271-5.07h1v-1.212l-1.19.23.19.982zm-4.65.9l.185.983.006-.001-.191-.982zm-.48 5.99c-1.503 0-2.627-.364-3.352-.929-.695-.541-1.108-1.33-1.108-2.421h-2c0 1.669.668 3.055 1.878 3.999 1.18.92 2.786 1.351 4.582 1.351v-2zm-4.46-3.35c0-1.146.33-1.913.933-2.484.642-.608 1.703-1.096 3.362-1.425l-.389-1.962c-1.821.361-3.31.953-4.348 1.935-1.077 1.019-1.558 2.352-1.558 3.936h2zm4.288-3.908l5.49-1.05-.375-1.964-5.49 1.05.375 1.964zm6.302-2.032c0-1.366-.314-2.577-1.121-3.447-.82-.885-1.984-1.243-3.299-1.243v2c.966 0 1.512.257 1.832.602.333.36.588.994.588 2.088h2zm-4.42-4.69c-1.168 0-2.197.267-3.012.886s-1.31 1.516-1.56 2.549l1.945.47c.17-.707.46-1.149.825-1.426s.931-.479 1.802-.479v-2zm-3.536 2.672l-3.3-.21-.127 1.996 3.3.21.127-1.996zm-2.381.973c.259-1.369.91-2.432 1.869-3.161.966-.735 2.316-1.184 4.048-1.184v-2c-2.077 0-3.877.541-5.259 1.591-1.388 1.056-2.282 2.573-2.623 4.384l1.965.37zm5.917-4.345c1.976 0 3.338.552 4.209 1.435s1.391 2.243 1.391 4.135h2c0-2.248-.621-4.175-1.968-5.54s-3.287-2.03-5.632-2.03v2zm5.6 5.57v6.21h2v-6.21h-2zm0 6.21c0 .457.069 1.032.469 1.473.427.473 1.001.547 1.401.547v-2a.7.7 0 0 1-.085-.004c.012.005.038.015.071.035a.45.45 0 0 1 .096.081c.061.067.072.119.067.103a.59.59 0 0 1-.011-.072l-.008-.163h-2zm1.87 2.02h.57v-2h-.57v2zm-.43-1V150h2v-2.52h-2zm.726 1.558c.016-.004 0 .001-.066.01l-.226.022-.604.02v2l.747-.025c.211-.015.483-.042.698-.103l-.549-1.924zm-.896.052c-.808 0-1.283-.156-1.569-.373-.263-.2-.511-.563-.621-1.321l-1.979.288c.16 1.102.587 2.014 1.389 2.624.779.593 1.759.782 2.78.782v-2zm-4.08-1.984c-.595 1.234-2.268 2.254-4.5 2.254v2c2.749 0 5.276-1.26 6.301-3.386l-1.801-.868zm-3.96 1.734c1.639 0 3.052-.521 4.061-1.502s1.529-2.34 1.529-3.848h-2c0 1.042-.35 1.858-.923 2.414s-1.455.936-2.667.936v2zm5.59-5.35v-1.02h-2v1.02h2zm-1.19-2.002l-4.65.9.381 1.964 4.65-.9-.381-1.964zm-4.644.899c-1.035.194-1.911.519-2.532 1.091-.668.613-.924 1.399-.924 2.232h2c0-.397.104-.601.277-.76.219-.201.663-.431 1.548-.597l-.369-1.966zm-3.456 3.323c0 .953.357 1.795 1.094 2.371.7.546 1.624.759 2.606.759v-2c-.727 0-1.153-.162-1.375-.336-.186-.144-.325-.367-.325-.794h-2zm16.033 4.29h-1v1h1v-1zm0-15.96v-1h-1v1h1zm2.91 0l.999-.033-.031-.967h-.968v1zm.09 2.76l-1 .033 1.932.329-.932-.362zm10.23 13.2v1h1v-1h-1zm-3.18 0h-1v1h1v-1zm-6.87 0v1h1v-1h-1zm-2.18 0v-15.96h-2V150h2zm-1-14.96h2.91v-2h-2.91v2zm1.91-.967l.09 2.76 1.999-.066-.09-2.76-1.999.066zm2.022 3.089c.662-1.702 2.066-2.482 3.898-2.482v-2c-2.488 0-4.744 1.14-5.762 3.758l1.864.724zm3.898-2.482c1.523 0 2.579.539 3.272 1.367.713.852 1.128 2.117 1.128 3.693h2c0-1.904-.5-3.669-1.594-4.977-1.115-1.332-2.759-2.083-4.806-2.083v2zm4.4 5.06V150h2v-10.26h-2zm1 9.26h-3.18v2h3.18v-2zm-2.18 1v-9.3h-2v9.3h2zm0-9.3c0-1.475-.221-2.807-.883-3.791-.717-1.065-1.835-1.559-3.207-1.559v2c.847 0 1.275.271 1.548.676.327.486.542 1.329.542 2.674h2zm-4.09-5.35c-1.361 0-2.593.47-3.476 1.447-.873.967-1.304 2.318-1.304 3.903h2c0-1.235.333-2.059.788-2.562.445-.493 1.103-.788 1.992-.788v-2zm-4.78 5.35v9.3h2v-9.3h-2zm1 8.3h-3.18v2h3.18v-2zm15.316-12.35h1v-1h-1v1zm-2.43 0h-1v1h1v-1zm0-2.61v-1h-1v1h1zm2.43 0v1h1v-1h-1zm0-3.75v-1h-1v1h1zm3.18 0h1v-1h-1v1zm0 3.75h-1v1h1v-1zm4.23 0h1v-1h-1v1zm0 2.61v1h1v-1h-1zm-4.23 0v-1h-1v1h1zm4.23 10.74h1v-1h-1v1zm0 2.61v1h1v-1h-1zm-2.97-1c-1.394 0-2.197-.307-2.662-.755-.457-.44-.778-1.203-.778-2.565h-2c0 1.638.384 3.035 1.39 4.005.998.962 2.415 1.315 4.05 1.315v-2zm-3.44-3.32v-9.03h-2v9.03h2zm-1-10.03h-2.43v2h2.43v-2zm-1.43 1v-2.61h-2v2.61h2zm-1-1.61h2.43v-2h-2.43v2zm3.43-1v-3.75h-2v3.75h2zm-1-2.75h3.18v-2h-3.18v2zm2.18-1v3.75h2v-3.75h-2zm1 4.75h4.23v-2h-4.23v2zm3.23-1v2.61h2v-2.61h-2zm1 1.61h-4.23v2h4.23v-2zm-5.23 1v8.79h2v-8.79h-2zm0 8.79c0 .856.175 1.689.799 2.27.609.566 1.423.68 2.151.68v-2c-.591 0-.752-.111-.789-.145-.02-.019-.161-.161-.161-.805h-2zm2.95 2.95h2.28v-2h-2.28v2zm1.28-1V150h2v-2.61h-2zm1 1.61h-2.97v2h2.97v-2zm12.248-12.35h1v-1h-1v1zm-2.43 0h-1v1h1v-1zm0-2.61v-1h-1v1h1zm2.43 0v1h1v-1h-1zm0-3.75v-1h-1v1h1zm3.18 0h1v-1h-1v1zm0 3.75h-1v1h1v-1zm4.23 0h1v-1h-1v1zm0 2.61v1h1v-1h-1zm-4.23 0v-1h-1v1h1zm4.23 10.74h1v-1h-1v1zm0 2.61v1h1v-1h-1zm-2.97-1c-1.394 0-2.197-.307-2.662-.755-.457-.44-.778-1.203-.778-2.565h-2c0 1.638.385 3.035 1.39 4.005.998.962 2.415 1.315 4.05 1.315v-2zm-3.44-3.32v-9.03h-2v9.03h2zm-1-10.03h-2.43v2h2.43v-2zm-1.43 1v-2.61h-2v2.61h2zm-1-1.61h2.43v-2h-2.43v2zm3.43-1v-3.75h-2v3.75h2zm-1-2.75h3.18v-2h-3.18v2zm2.18-1v3.75h2v-3.75h-2zm1 4.75h4.23v-2h-4.23v2zm3.23-1v2.61h2v-2.61h-2zm1 1.61h-4.23v2h4.23v-2zm-5.23 1v8.79h2v-8.79h-2zm0 8.79c0 .856.175 1.689.799 2.27.609.566 1.423.68 2.151.68v-2c-.591 0-.752-.111-.788-.145-.021-.019-.162-.161-.162-.805h-2zm2.95 2.95h2.28v-2h-2.28v2zm1.28-1V150h2v-2.61h-2zm1 1.61h-2.97v2h2.97v-2zm9.524.36c-2.046 0-3.664-.721-4.778-1.943-1.122-1.23-1.812-3.057-1.812-5.397h-2c0 2.73.809 5.073 2.335 6.745 1.533 1.681 3.71 2.595 6.255 2.595v-2zm-6.59-7.34c0-2.34.69-4.167 1.812-5.397 1.114-1.222 2.732-1.943 4.778-1.943v-2c-2.545 0-4.722.914-6.255 2.595-1.526 1.672-2.335 4.015-2.335 6.745h2zm6.59-7.34c2.028 0 3.639.72 4.75 1.942 1.119 1.23 1.81 3.058 1.81 5.398h2c0-2.73-.81-5.072-2.331-6.744-1.529-1.681-3.698-2.596-6.229-2.596v2zm6.56 7.34c0 2.34-.691 4.168-1.81 5.398-1.111 1.222-2.722 1.942-4.75 1.942v2c2.531 0 4.7-.915 6.229-2.596 1.521-1.672 2.331-4.014 2.331-6.744h-2zm-6.56 6.58c1.634 0 3.005-.642 3.938-1.868.905-1.19 1.322-2.826 1.322-4.712h-2c0 1.624-.364 2.778-.914 3.501-.522.686-1.281 1.079-2.346 1.079v2zm5.26-6.58c0-1.886-.417-3.522-1.322-4.712-.933-1.226-2.304-1.868-3.938-1.868v2c1.065 0 1.824.393 2.346 1.079.55.723.914 1.877.914 3.501h2zm-5.26-6.58c-1.634 0-3.011.641-3.951 1.864-.913 1.189-1.339 2.827-1.339 4.716h2c0-1.621.369-2.773.925-3.497.53-.689 1.298-1.083 2.365-1.083v-2zm-5.29 6.58c0 1.889.426 3.527 1.339 4.716.94 1.223 2.317 1.864 3.951 1.864v-2c-1.067 0-1.835-.394-2.365-1.083-.556-.724-.925-1.876-.925-3.497h-2zm34.328-5.73l-.891.454 1.891-.454h-1zm0-7.59v-1h-1v1h1zm3.18 0h1v-1h-1v1zm0 21.3v1h1v-1h-1zm-2.94 0l-1 .037.036.963h.964v-1zm-.09-2.4l.999-.037-.142-3.796-1.746 3.374.889.459zm-5.01 1.76c-1.77 0-3.149-.679-4.107-1.872-.977-1.218-1.583-3.059-1.583-5.468h-2c0 2.721.683 5.05 2.024 6.72 1.359 1.694 3.326 2.62 5.666 2.62v-2zm-5.69-7.34c0-2.392.605-4.235 1.584-5.458.96-1.198 2.339-1.882 4.106-1.882v-2c-2.343 0-4.309.936-5.667 2.633-1.339 1.672-2.023 3.999-2.023 6.707h2zm5.69-7.34c1.911 0 3.339.828 3.969 2.064l1.782-.908c-1.051-2.064-3.283-3.156-5.751-3.156v2zm5.86 1.61v-7.59h-2v7.59h2zm-1-6.59h3.18v-2h-3.18v2zm2.18-1V150h2v-21.3h-2zm1 20.3h-2.94v2h2.94v-2zm-1.941.963l-.09-2.4-1.999.074.09 2.4 1.999-.074zm-1.978-2.822c-.696 1.347-2.201 2.219-4.121 2.219v2c2.52 0 4.795-1.168 5.898-3.301l-1.777-.918zm-3.281 1.459c1.595 0 2.911-.659 3.791-1.893.848-1.188 1.229-2.816 1.229-4.687h-2c0 1.639-.34 2.801-.857 3.525-.484.679-1.178 1.055-2.163 1.055v2zm5.02-6.58c0-1.884-.38-3.514-1.23-4.7-.883-1.232-2.2-1.88-3.79-1.88v2c.99 0 1.682.372 2.164 1.045.516.719.856 1.879.856 3.535h2zm-5.02-6.58c-1.592 0-2.947.662-3.877 1.877-.908 1.186-1.353 2.819-1.353 4.703h2c0-1.596.379-2.753.941-3.487.54-.705 1.3-1.093 2.289-1.093v-2zm-5.23 6.58c0 1.862.456 3.491 1.364 4.679.927 1.214 2.277 1.901 3.866 1.901v-2c-.962 0-1.726-.393-2.277-1.114-.57-.747-.953-1.908-.953-3.466h-2zm23.6 7.34c-2.045 0-3.663-.721-4.777-1.943-1.122-1.23-1.813-3.057-1.813-5.397h-2c0 2.73.81 5.073 2.335 6.745 1.534 1.681 3.711 2.595 6.255 2.595v-2zm-6.59-7.34c0-2.34.691-4.167 1.813-5.397 1.114-1.222 2.732-1.943 4.777-1.943v-2c-2.544 0-4.721.914-6.255 2.595-1.525 1.672-2.335 4.015-2.335 6.745h2zm6.59-7.34c2.029 0 3.639.72 4.75 1.942 1.12 1.23 1.81 3.058 1.81 5.398h2c0-2.73-.809-5.072-2.33-6.744-1.529-1.681-3.698-2.596-6.23-2.596v2zm6.56 7.34c0 2.34-.69 4.168-1.81 5.398-1.111 1.222-2.721 1.942-4.75 1.942v2c2.532 0 4.701-.915 6.23-2.596 1.521-1.672 2.33-4.014 2.33-6.744h-2zm-6.56 6.58c1.635 0 3.006-.642 3.939-1.868.904-1.19 1.321-2.826 1.321-4.712h-2c0 1.624-.363 2.778-.913 3.501-.522.686-1.282 1.079-2.347 1.079v2zm5.26-6.58c0-1.886-.417-3.522-1.321-4.712-.933-1.226-2.304-1.868-3.939-1.868v2c1.065 0 1.825.393 2.347 1.079.55.723.913 1.877.913 3.501h2zm-5.26-6.58c-1.633 0-3.01.641-3.95 1.864-.914 1.189-1.34 2.827-1.34 4.716h2c0-1.621.369-2.773.926-3.497.529-.689 1.298-1.083 2.364-1.083v-2zm-5.29 6.58c0 1.889.426 3.527 1.34 4.716.94 1.223 2.317 1.864 3.95 1.864v-2c-1.066 0-1.835-.394-2.364-1.083-.557-.724-.926-1.876-.926-3.497h-2z" mask="url(#A)" class="C"/><defs><filter id="B" x="208.276" y=".773" width="151.011" height="149.332" filterUnits="userSpaceOnUse" class="E"><feFlood result="A" class="F"/><feColorMatrix in="SourceAlpha" values="0 0 0 0 0 0 0 0 0 0 0 0 0 0 0 0 0 0 127 0" result="B"/><feMorphology radius="3" in="SourceAlpha"/><feOffset dy="16"/><feGaussianBlur stdDeviation="24"/><feComposite in2="B" operator="out"/><feColorMatrix values="0 0 0 0 0.341176 0 0 0 0 0.333333 0 0 0 0 1 0 0 0 0.08 0"/><feBlend in2="A"/><feBlend in="SourceGraphic"/></filter><filter id="C" x="58" y="159" width="430" height="272" filterUnits="userSpaceOnUse" class="E"><feFlood result="A" class="F"/><feColorMatrix in="SourceAlpha" values="0 0 0 0 0 0 0 0 0 0 0 0 0 0 0 0 0 0 127 0" result="B"/><feMorphology radius="3" in="SourceAlpha"/><feOffset dy="16"/><feGaussianBlur stdDeviation="24"/><feComposite in2="B" operator="out"/><feColorMatrix values="0 0 0 0 0.341176 0 0 0 0 0.333333 0 0 0 0 1 0 0 0 0.08 0"/><feBlend in2="A"/><feBlend in="SourceGraphic"/></filter><filter id="D" x="215.075" y="279.285" width="109.631" height="117.897" filterUnits="userSpaceOnUse" class="E"><feFlood result="A" class="F"/><feColorMatrix in="SourceAlpha" values="0 0 0 0 0 0 0 0 0 0 0 0 0 0 0 0 0 0 127 0" result="B"/><feMorphology radius="3" in="SourceAlpha"/><feOffset dy="16"/><feGaussianBlur stdDeviation="24"/><feComposite in2="B" operator="out"/><feColorMatrix values="0 0 0 0 0.341176 0 0 0 0 0.333333 0 0 0 0 1 0 0 0 0.08 0"/><feBlend in2="A"/><feBlend in="SourceGraphic"/></filter><linearGradient id="E" x1="170" y1="37" x2="170" y2="217" href="#J"><stop stop-color="#e4e7ec"/><stop offset="1" stop-color="#fff"/></linearGradient><linearGradient id="F" x1="251.748" y1="61.982" x2="315.504" y2="56.404" href="#J"><stop stop-color="#101928"/><stop offset="1" stop-color="#fff"/></linearGradient><linearGradient id="G" x1="170" y1="99" x2="170" y2="267" href="#J"><stop stop-color="#f9fafb"/><stop offset="1" stop-color="#fff"/></linearGradient><linearGradient id="H" x1="273" y1="189" x2="273" y2="369" href="#J"><stop stop-color="#e4e7ec"/><stop offset="1" stop-color="#fff"/></linearGradient><linearGradient id="I" x1="273.339" y1="309.884" x2="269.171" y2="333.519" href="#J"><stop stop-color="#101928"/><stop offset="1" stop-color="#fff"/></linearGradient><linearGradient id="J" gradientUnits="userSpaceOnUse"/></defs></svg>