<svg xmlns="http://www.w3.org/2000/svg" width="142" height="50" fill="none" xmlns:v="https://vecta.io/nano"><rect x="141.5" y="49.5" width="141" height="49" rx="6.5" transform="rotate(180 141.5 49.5)" fill="#fff" stroke="url(#A)"/><path d="M60.577 30v-8.897H57.14V19.92h8.12v1.183h-3.437V30h-1.246zm7.952.21c-.742 0-1.391-.163-1.946-.49s-.98-.791-1.288-1.379-.462-1.283-.462-2.072c0-.826.152-1.54.455-2.142s.726-1.073 1.267-1.4 1.185-.497 1.918-.497c.761 0 1.407.175 1.939.525s.938.849 1.204 1.498.387 1.421.35 2.317h-1.26v-.448c-.014-.929-.203-1.622-.567-2.079s-.905-.693-1.624-.693c-.77 0-1.356.247-1.757.742s-.602 1.204-.602 2.128c0 .891.201 1.582.602 2.072s.973.735 1.715.735c.499 0 .933-.114 1.302-.343s.658-.558.868-.987l1.197.413a3.39 3.39 0 0 1-1.33 1.554c-.588.364-1.248.546-1.981.546zm-2.793-3.64v-1.001h5.586v1.001h-5.586zM73.665 30V19.71h1.246V30h-1.246zm6.622.21c-.742 0-1.391-.163-1.946-.49a3.43 3.43 0 0 1-1.288-1.379c-.308-.593-.462-1.283-.462-2.072 0-.826.152-1.54.455-2.142s.726-1.073 1.267-1.4 1.185-.497 1.918-.497c.761 0 1.407.175 1.939.525s.938.849 1.204 1.498.387 1.421.35 2.317h-1.26v-.448c-.014-.929-.203-1.622-.567-2.079s-.905-.693-1.624-.693c-.77 0-1.356.247-1.757.742s-.602 1.204-.602 2.128c0 .891.201 1.582.602 2.072s.973.735 1.715.735c.499 0 .933-.114 1.302-.343s.658-.558.868-.987l1.197.413a3.39 3.39 0 0 1-1.33 1.554c-.588.364-1.248.546-1.981.546zm-2.793-3.64v-1.001h5.586v1.001h-5.586zm10.847 7a3.78 3.78 0 0 1-1.162-.182 3.35 3.35 0 0 1-1.043-.553c-.313-.243-.574-.551-.784-.924l1.141-.602a1.74 1.74 0 0 0 .791.805c.345.168.7.252 1.064.252.481 0 .88-.089 1.197-.266a1.56 1.56 0 0 0 .7-.777c.154-.345.229-.775.224-1.288V27.97h.147v-5.53h1.106v7.609l-.021.595a3.83 3.83 0 0 1-.07.567c-.098.537-.292.978-.581 1.323a2.57 2.57 0 0 1-1.12.777c-.457.173-.987.259-1.589.259zm-.091-3.36c-.705 0-1.309-.175-1.813-.525s-.894-.833-1.169-1.435-.406-1.281-.406-2.037.135-1.435.406-2.037.665-1.076 1.169-1.421 1.106-.525 1.806-.525c.714 0 1.314.173 1.799.518s.852.819 1.099 1.421.378 1.283.378 2.044c0 .751-.126 1.43-.378 2.037a3.27 3.27 0 0 1-1.099 1.435c-.485.35-1.083.525-1.792.525zm.154-1.141c.509 0 .926-.121 1.253-.364s.567-.586.721-1.015.238-.926.238-1.477c0-.56-.079-1.052-.238-1.477s-.392-.763-.714-1.001-.73-.364-1.225-.364c-.513 0-.938.126-1.274.378s-.579.593-.742 1.022-.238.91-.238 1.442.082 1.022.245 1.456a2.28 2.28 0 0 0 .735 1.022c.331.252.744.378 1.239.378zm5.273.931v-7.56h1.113v1.827l-.182-.238c.089-.233.203-.448.343-.644a2.15 2.15 0 0 1 .483-.483 2.14 2.14 0 0 1 .665-.364c.247-.084.499-.133.756-.147s.497-.002.721.049v1.169c-.261-.07-.548-.089-.861-.056a1.75 1.75 0 0 0-.868.343 1.87 1.87 0 0 0-.567.63 2.73 2.73 0 0 0-.273.805c-.051.285-.077.576-.077.875V30h-1.253zm7.126.21c-.565 0-1.038-.103-1.421-.308s-.665-.485-.861-.826a2.25 2.25 0 0 1-.287-1.12c0-.397.075-.74.224-1.029a2.01 2.01 0 0 1 .644-.728c.275-.196.604-.35.987-.462.359-.098.76-.182 1.204-.252l1.358-.203 1.281-.175-.448.259c.014-.672-.122-1.169-.406-1.491s-.766-.483-1.456-.483c-.458 0-.859.105-1.204.315s-.581.541-.721 1.008l-1.183-.357c.182-.663.534-1.183 1.057-1.561s1.211-.567 2.065-.567c.686 0 1.274.124 1.764.371a2.16 2.16 0 0 1 1.064 1.106 2.4 2.4 0 0 1 .203.763c.028.271.042.555.042.854V30h-1.106v-1.813l.259.168c-.285.611-.684 1.073-1.197 1.386s-1.13.469-1.862.469zm.189-1.043c.448 0 .835-.079 1.162-.238s.597-.376.798-.637a2.1 2.1 0 0 0 .392-.868c.07-.233.107-.492.112-.777l.014-.665.434.189-1.197.161-1.113.168c-.35.056-.665.124-.945.203-.206.065-.399.149-.581.252a1.32 1.32 0 0 0-.434.399c-.107.159-.161.357-.161.595 0 .205.051.401.154.588a1.19 1.19 0 0 0 .49.455c.224.117.515.175.875.175zm14.574.833l.007-4.837c0-.565-.152-1.006-.455-1.323s-.689-.483-1.169-.483a1.71 1.71 0 0 0-.798.196c-.252.126-.458.327-.616.602s-.238.618-.238 1.043l-.658-.266c-.01-.537.1-1.006.329-1.407s.55-.721.952-.945.854-.336 1.358-.336c.788 0 1.409.24 1.862.721s.679 1.118.679 1.925l-.007 5.11h-1.246zm-9.044 0v-7.56h1.113v2.023h.14V30h-1.253zm4.529 0l.007-4.788c0-.579-.15-1.031-.448-1.358s-.696-.497-1.19-.497-.887.168-1.19.504-.455.782-.455 1.337l-.658-.392c0-.49.116-.929.35-1.316a2.47 2.47 0 0 1 .952-.91 2.75 2.75 0 0 1 1.365-.336c.508 0 .952.107 1.33.322a2.18 2.18 0 0 1 .875.924c.205.397.308.87.308 1.421L112.29 30h-1.239z" fill="#475367"/><rect x="13" y="5" width="40" height="40" rx="8" fill="#fff"/><g clip-path="url(#D)"><path d="M45.444 24.999c0 6.876-5.569 12.445-12.445 12.445s-12.444-5.569-12.444-12.445 5.569-12.444 12.444-12.444 12.445 5.569 12.445 12.444z" fill="url(#B)"/><path d="M30.714 30.702c-.404 0-.332-.155-.477-.539l-1.182-3.899 7.342-4.584.861.228-.716 1.95-5.828 6.844z" fill="#c8daea"/><path d="M30.719 30.701c.311 0 .446-.145.622-.311l3.733-3.63-2.126-.518-1.97 1.244-.259 3.111v.104z" fill="#a9c9dd"/><path d="M30.922 27.53l5.019 3.702c.57.311.985.155 1.13-.529l2.043-9.624c.207-.84-.322-1.213-.871-.965L26.255 24.74c-.819.332-.809.788-.145.985l3.08.964 7.124-4.49c.332-.207.643-.093.394.135l-5.787 5.196z" fill="url(#C)"/></g><defs><linearGradient id="A" x1="211" y1="49" x2="211" y2="97" gradientUnits="userSpaceOnUse"><stop stop-color="#e4e7ec"/><stop offset="1" stop-color="#fff"/></linearGradient><linearGradient id="B" x1="36.646" y1="16.488" x2="30.424" y2="31.007" gradientUnits="userSpaceOnUse"><stop stop-color="#37aee2"/><stop offset="1" stop-color="#1e96c8"/></linearGradient><linearGradient id="C" x1="33.928" y1="25.389" x2="36.521" y2="29.537" gradientUnits="userSpaceOnUse"><stop stop-color="#eff7fc"/><stop offset="1" stop-color="#fff"/></linearGradient><clipPath id="D"><rect x="20.555" y="12.555" width="24.889" height="24.889" rx="8" fill="#fff"/></clipPath></defs></svg>