<svg width="26" height="26" viewBox="0 0 26 26" fill="none" xmlns="http://www.w3.org/2000/svg">
<g clip-path="url(#clip0_1748_1430)">
<path d="M25.4436 12.9991C25.4436 19.8747 19.8747 25.4436 12.9991 25.4436C6.12358 25.4436 0.554688 19.8747 0.554688 12.9991C0.554688 6.12358 6.12358 0.554688 12.9991 0.554688C19.8747 0.554688 25.4436 6.12358 25.4436 12.9991Z" fill="url(#paint0_linear_1748_1430)"/>
<path d="M10.7139 18.7019C10.3095 18.7019 10.3821 18.5464 10.2369 18.1627L9.05469 14.2634L16.3969 9.67969L17.2577 9.90784L16.5421 11.8575L10.7139 18.7019Z" fill="#C8DAEA"/>
<path d="M10.7188 18.7014C11.0299 18.7014 11.1647 18.5563 11.341 18.3903C11.6106 18.1311 15.0743 14.7607 15.0743 14.7607L12.9484 14.2422L10.978 15.4866L10.7188 18.5977V18.7014Z" fill="#A9C9DD"/>
<path d="M10.9215 15.5298L15.9408 19.2321C16.5112 19.5432 16.926 19.3876 17.0712 18.7032L19.1141 9.07947C19.3215 8.23947 18.7926 7.86613 18.243 8.11502L6.25485 12.7402C5.4356 13.0721 5.44597 13.5284 6.10967 13.7254L9.18967 14.6898L16.3141 10.1995C16.646 9.99206 16.9571 10.1061 16.7082 10.3343L10.9215 15.5298Z" fill="url(#paint1_linear_1748_1430)"/>
</g>
<defs>
<linearGradient id="paint0_linear_1748_1430" x1="16.6464" y1="4.48817" x2="10.4242" y2="19.0065" gradientUnits="userSpaceOnUse">
<stop stop-color="#37AEE2"/>
<stop offset="1" stop-color="#1E96C8"/>
</linearGradient>
<linearGradient id="paint1_linear_1748_1430" x1="13.928" y1="13.3889" x2="16.5206" y2="17.537" gradientUnits="userSpaceOnUse">
<stop stop-color="#EFF7FC"/>
<stop offset="1" stop-color="white"/>
</linearGradient>
<clipPath id="clip0_1748_1430">
<rect x="0.554688" y="0.554688" width="24.8889" height="24.8889" rx="8" fill="white"/>
</clipPath>
</defs>
</svg>
