<svg width="240" height="240" viewBox="0 0 240 240" fill="none" xmlns="http://www.w3.org/2000/svg">
<g filter="url(#filter0_iii_2507_2733)">
<circle cx="120" cy="120" r="120" fill="url(#paint0_linear_2507_2733)" fill-opacity="0.44"/>
<circle cx="120" cy="120" r="120" fill="url(#paint1_radial_2507_2733)" fill-opacity="0.9"/>
<circle cx="120" cy="120" r="120" fill="url(#paint2_radial_2507_2733)" fill-opacity="0.85"/>
<circle cx="120" cy="120" r="120" fill="url(#paint3_radial_2507_2733)" fill-opacity="0.8"/>
<circle cx="120" cy="120" r="120" fill="url(#paint4_radial_2507_2733)" fill-opacity="0.45"/>
</g>
<mask id="mask0_2507_2733" style="mask-type:alpha" maskUnits="userSpaceOnUse" x="0" y="0" width="240" height="240">
<circle cx="120" cy="120" r="120" fill="url(#paint5_radial_2507_2733)"/>
</mask>
<g mask="url(#mask0_2507_2733)">
<g style="mix-blend-mode:plus-lighter" filter="url(#filter1_di_2507_2733)">
<path d="M71.8182 121.036C68.7577 123.024 65.2753 123.533 60.8515 121.036H2.3999C2.3999 121.036 15.2415 119.504 31.1829 119.504C47.1242 119.504 52.3773 116.251 60.8515 121.036H71.8182C83.769 113.271 89.2869 82.953 119.303 121.036H157.525C162.65 110.806 167.668 99.6954 176.869 99.5975C185.492 99.5057 195.025 119.504 205.209 119.504C215.394 119.504 236.206 121.036 236.206 121.036H157.525C149.843 136.372 141.92 149.731 119.303 121.036H71.8182Z" fill="url(#paint6_radial_2507_2733)" shape-rendering="crispEdges"/>
<path d="M71.8182 121.036C68.7577 123.024 65.2753 123.533 60.8515 121.036H2.3999C2.3999 121.036 15.2415 119.504 31.1829 119.504C47.1242 119.504 52.3773 116.251 60.8515 121.036H71.8182C83.769 113.271 89.2869 82.953 119.303 121.036H157.525C162.65 110.806 167.668 99.6954 176.869 99.5975C185.492 99.5057 195.025 119.504 205.209 119.504C215.394 119.504 236.206 121.036 236.206 121.036H157.525C149.843 136.372 141.92 149.731 119.303 121.036H71.8182Z" fill="url(#paint7_radial_2507_2733)" shape-rendering="crispEdges"/>
</g>
<g style="mix-blend-mode:plus-lighter" filter="url(#filter2_dif_2507_2733)">
<path d="M60.5999 121.064C63.9407 112.307 67.1717 114.593 70.5524 121.064L108.74 121.064C136.8 10.8 147.6 132 204.336 117.806C214.174 115.345 235.2 121.064 235.2 121.064L108.74 121.064C90.8884 191.214 80.1208 139.379 70.5524 121.064L60.5999 121.064C47.8036 154.607 44.559 121.064 28.6863 121.064H60.5999Z" fill="url(#paint8_radial_2507_2733)" shape-rendering="crispEdges"/>
<path d="M60.5999 121.064C63.9407 112.307 67.1717 114.593 70.5524 121.064L108.74 121.064C136.8 10.8 147.6 132 204.336 117.806C214.174 115.345 235.2 121.064 235.2 121.064L108.74 121.064C90.8884 191.214 80.1208 139.379 70.5524 121.064L60.5999 121.064C47.8036 154.607 44.559 121.064 28.6863 121.064H60.5999Z" fill="url(#paint9_radial_2507_2733)" shape-rendering="crispEdges"/>
</g>
</g>
<defs>
<filter id="filter0_iii_2507_2733" x="0" y="0" width="240" height="240" filterUnits="userSpaceOnUse" color-interpolation-filters="sRGB">
<feFlood flood-opacity="0" result="BackgroundImageFix"/>
<feBlend mode="normal" in="SourceGraphic" in2="BackgroundImageFix" result="shape"/>
<feColorMatrix in="SourceAlpha" type="matrix" values="0 0 0 0 0 0 0 0 0 0 0 0 0 0 0 0 0 0 127 0" result="hardAlpha"/>
<feOffset/>
<feGaussianBlur stdDeviation="20"/>
<feComposite in2="hardAlpha" operator="arithmetic" k2="-1" k3="1"/>
<feColorMatrix type="matrix" values="0 0 0 0 0.185021 0 0 0 0 0.156042 0 0 0 0 0.735625 0 0 0 1 0"/>
<feBlend mode="normal" in2="shape" result="effect1_innerShadow_2507_2733"/>
<feColorMatrix in="SourceAlpha" type="matrix" values="0 0 0 0 0 0 0 0 0 0 0 0 0 0 0 0 0 0 127 0" result="hardAlpha"/>
<feOffset/>
<feGaussianBlur stdDeviation="15"/>
<feComposite in2="hardAlpha" operator="arithmetic" k2="-1" k3="1"/>
<feColorMatrix type="matrix" values="0 0 0 0 0.2075 0 0 0 0 0.175 0 0 0 0 0.825 0 0 0 1 0"/>
<feBlend mode="normal" in2="effect1_innerShadow_2507_2733" result="effect2_innerShadow_2507_2733"/>
<feColorMatrix in="SourceAlpha" type="matrix" values="0 0 0 0 0 0 0 0 0 0 0 0 0 0 0 0 0 0 127 0" result="hardAlpha"/>
<feOffset/>
<feGaussianBlur stdDeviation="6"/>
<feComposite in2="hardAlpha" operator="arithmetic" k2="-1" k3="1"/>
<feColorMatrix type="matrix" values="0 0 0 0 0.791969 0 0 0 0 0.783437 0 0 0 0 0.954063 0 0 0 1 0"/>
<feBlend mode="normal" in2="effect2_innerShadow_2507_2733" result="effect3_innerShadow_2507_2733"/>
</filter>
<filter id="filter1_di_2507_2733" x="-6.6001" y="91.5972" width="251.807" height="56.3145" filterUnits="userSpaceOnUse" color-interpolation-filters="sRGB">
<feFlood flood-opacity="0" result="BackgroundImageFix"/>
<feColorMatrix in="SourceAlpha" type="matrix" values="0 0 0 0 0 0 0 0 0 0 0 0 0 0 0 0 0 0 127 0" result="hardAlpha"/>
<feOffset dy="1"/>
<feGaussianBlur stdDeviation="4.5"/>
<feComposite in2="hardAlpha" operator="out"/>
<feColorMatrix type="matrix" values="0 0 0 0 0.426944 0 0 0 0 0.966667 0 0 0 0 0.966667 0 0 0 0.8 0"/>
<feBlend mode="normal" in2="BackgroundImageFix" result="effect1_dropShadow_2507_2733"/>
<feBlend mode="normal" in="SourceGraphic" in2="effect1_dropShadow_2507_2733" result="shape"/>
<feColorMatrix in="SourceAlpha" type="matrix" values="0 0 0 0 0 0 0 0 0 0 0 0 0 0 0 0 0 0 127 0" result="hardAlpha"/>
<feOffset/>
<feGaussianBlur stdDeviation="1"/>
<feComposite in2="hardAlpha" operator="arithmetic" k2="-1" k3="1"/>
<feColorMatrix type="matrix" values="0 0 0 0 0.900833 0 0 0 0 0.854167 0 0 0 0 1 0 0 0 1 0"/>
<feBlend mode="normal" in2="shape" result="effect2_innerShadow_2507_2733"/>
</filter>
<filter id="filter2_dif_2507_2733" x="19.686" y="66.2944" width="224.514" height="100.43" filterUnits="userSpaceOnUse" color-interpolation-filters="sRGB">
<feFlood flood-opacity="0" result="BackgroundImageFix"/>
<feColorMatrix in="SourceAlpha" type="matrix" values="0 0 0 0 0 0 0 0 0 0 0 0 0 0 0 0 0 0 127 0" result="hardAlpha"/>
<feOffset dy="1"/>
<feGaussianBlur stdDeviation="4.5"/>
<feComposite in2="hardAlpha" operator="out"/>
<feColorMatrix type="matrix" values="0 0 0 0 0.426944 0 0 0 0 0.578067 0 0 0 0 0.966667 0 0 0 0.8 0"/>
<feBlend mode="normal" in2="BackgroundImageFix" result="effect1_dropShadow_2507_2733"/>
<feBlend mode="normal" in="SourceGraphic" in2="effect1_dropShadow_2507_2733" result="shape"/>
<feColorMatrix in="SourceAlpha" type="matrix" values="0 0 0 0 0 0 0 0 0 0 0 0 0 0 0 0 0 0 127 0" result="hardAlpha"/>
<feOffset/>
<feGaussianBlur stdDeviation="1"/>
<feComposite in2="hardAlpha" operator="arithmetic" k2="-1" k3="1"/>
<feColorMatrix type="matrix" values="0 0 0 0 0.416083 0 0 0 0 0.404167 0 0 0 0 1 0 0 0 1 0"/>
<feBlend mode="normal" in2="shape" result="effect2_innerShadow_2507_2733"/>
<feGaussianBlur stdDeviation="0.25" result="effect3_foregroundBlur_2507_2733"/>
</filter>
<linearGradient id="paint0_linear_2507_2733" x1="10" y1="120" x2="222.5" y2="120" gradientUnits="userSpaceOnUse">
<stop stop-color="#5755FF"/>
<stop offset="1" stop-color="#33BBC5"/>
</linearGradient>
<radialGradient id="paint1_radial_2507_2733" cx="0" cy="0" r="1" gradientUnits="userSpaceOnUse" gradientTransform="translate(69.6 15.6) rotate(63.4457) scale(116.712 138.451)">
<stop stop-color="#8F8AE6" stop-opacity="0.63"/>
<stop offset="1" stop-color="#2C25AD" stop-opacity="0"/>
</radialGradient>
<radialGradient id="paint2_radial_2507_2733" cx="0" cy="0" r="1" gradientUnits="userSpaceOnUse" gradientTransform="translate(233.61 81.3023) rotate(151.458) scale(106.106)">
<stop stop-color="#3E36D4"/>
<stop offset="1" stop-color="#3029C0" stop-opacity="0"/>
</radialGradient>
<radialGradient id="paint3_radial_2507_2733" cx="0" cy="0" r="1" gradientUnits="userSpaceOnUse" gradientTransform="translate(159.764 233.61) rotate(-108.939) scale(76.5715)">
<stop stop-color="#5B54DB"/>
<stop offset="1" stop-color="#5B55DB" stop-opacity="0"/>
</radialGradient>
<radialGradient id="paint4_radial_2507_2733" cx="0" cy="0" r="1" gradientUnits="userSpaceOnUse" gradientTransform="translate(92.4 120) rotate(-19.7672) scale(81.6088 121.612)">
<stop stop-color="#2D26B2"/>
<stop offset="1" stop-color="#453DD6" stop-opacity="0"/>
</radialGradient>
<radialGradient id="paint5_radial_2507_2733" cx="0" cy="0" r="1" gradientUnits="userSpaceOnUse" gradientTransform="translate(120 120) rotate(90) scale(120)">
<stop offset="0.351881" stop-color="#D9D9D9"/>
<stop offset="1" stop-color="#D9D9D9" stop-opacity="0"/>
</radialGradient>
<radialGradient id="paint6_radial_2507_2733" cx="0" cy="0" r="1" gradientUnits="userSpaceOnUse" gradientTransform="translate(119.303 124.11) rotate(90) scale(21.6589 122.504)">
<stop stop-color="#2542DD" stop-opacity="0"/>
<stop offset="1" stop-color="#361D80"/>
</radialGradient>
<radialGradient id="paint7_radial_2507_2733" cx="0" cy="0" r="1" gradientUnits="userSpaceOnUse" gradientTransform="translate(2.3999 128.096) scale(132.845 1786.09)">
<stop offset="0.297404" stop-color="#D1C1FF" stop-opacity="0.52"/>
<stop offset="1" stop-color="#D1C1FF" stop-opacity="0"/>
</radialGradient>
<radialGradient id="paint8_radial_2507_2733" cx="0" cy="0" r="1" gradientUnits="userSpaceOnUse" gradientTransform="translate(118.8 110.249) rotate(90) scale(49.9136 121.977)">
<stop stop-color="#2542DD" stop-opacity="0"/>
<stop offset="1" stop-color="#11195F"/>
</radialGradient>
<radialGradient id="paint9_radial_2507_2733" cx="0" cy="0" r="1" gradientUnits="userSpaceOnUse" gradientTransform="translate(2.3999 119.435) scale(132.273 4116.11)">
<stop offset="0.297404" stop-color="#D1C1FF" stop-opacity="0.52"/>
<stop offset="1" stop-color="#D1C1FF" stop-opacity="0"/>
</radialGradient>
</defs>
</svg>
