<svg width="228" height="152" viewBox="0 0 228 152" fill="none" xmlns="http://www.w3.org/2000/svg">
<g filter="url(#filter0_dd_1748_2003)">
<rect x="12" y="2" width="204" height="128" rx="6" fill="white"/>
</g>
<path d="M28.694 73L26.198 64.36H27.116L29.138 71.494L31.148 64.366L32.072 64.36L34.094 71.494L36.104 64.36H37.028L34.538 73H33.65L31.61 65.914L29.582 73H28.694ZM40.0937 73.18C39.4617 73.18 38.9137 73.04 38.4497 72.76C37.9897 72.48 37.6317 72.086 37.3757 71.578C37.1197 71.07 36.9917 70.474 36.9917 69.79C36.9917 69.082 37.1177 68.47 37.3697 67.954C37.6217 67.438 37.9757 67.04 38.4317 66.76C38.8917 66.48 39.4337 66.34 40.0577 66.34C40.6977 66.34 41.2437 66.488 41.6957 66.784C42.1477 67.076 42.4897 67.496 42.7217 68.044C42.9537 68.592 43.0597 69.246 43.0397 70.006H42.1397V69.694C42.1237 68.854 41.9417 68.22 41.5937 67.792C41.2497 67.364 40.7457 67.15 40.0817 67.15C39.3857 67.15 38.8517 67.376 38.4797 67.828C38.1117 68.28 37.9277 68.924 37.9277 69.76C37.9277 70.576 38.1117 71.21 38.4797 71.662C38.8517 72.11 39.3777 72.334 40.0577 72.334C40.5217 72.334 40.9257 72.228 41.2697 72.016C41.6177 71.8 41.8917 71.49 42.0917 71.086L42.9137 71.404C42.6577 71.968 42.2797 72.406 41.7797 72.718C41.2837 73.026 40.7217 73.18 40.0937 73.18ZM37.6157 70.006V69.268H42.5657V70.006H37.6157ZM44.2513 66.52V64.36H45.1333V66.52H44.2513ZM47.4209 73V64.18H48.3029V73H47.4209ZM50.2217 73V64.18H51.1037V73H50.2217ZM57.7228 73.174C56.9628 73.174 56.3368 73.01 55.8448 72.682C55.3568 72.354 55.0568 71.898 54.9448 71.314L55.8448 71.164C55.9408 71.532 56.1588 71.826 56.4988 72.046C56.8428 72.262 57.2668 72.37 57.7708 72.37C58.2628 72.37 58.6508 72.268 58.9348 72.064C59.2188 71.856 59.3608 71.574 59.3608 71.218C59.3608 71.018 59.3148 70.856 59.2228 70.732C59.1348 70.604 58.9528 70.486 58.6768 70.378C58.4008 70.27 57.9888 70.142 57.4408 69.994C56.8528 69.834 56.3928 69.674 56.0608 69.514C55.7288 69.354 55.4928 69.17 55.3528 68.962C55.2128 68.75 55.1428 68.492 55.1428 68.188C55.1428 67.82 55.2468 67.498 55.4548 67.222C55.6628 66.942 55.9508 66.726 56.3188 66.574C56.6868 66.418 57.1148 66.34 57.6028 66.34C58.0908 66.34 58.5268 66.42 58.9108 66.58C59.2988 66.736 59.6108 66.956 59.8468 67.24C60.0828 67.524 60.2228 67.854 60.2668 68.23L59.3668 68.392C59.3068 68.012 59.1168 67.712 58.7968 67.492C58.4808 67.268 58.0788 67.152 57.5908 67.144C57.1308 67.132 56.7568 67.22 56.4688 67.408C56.1808 67.592 56.0368 67.838 56.0368 68.146C56.0368 68.318 56.0888 68.466 56.1928 68.59C56.2968 68.71 56.4848 68.824 56.7568 68.932C57.0328 69.04 57.4248 69.158 57.9328 69.286C58.5288 69.438 58.9968 69.598 59.3368 69.766C59.6768 69.934 59.9188 70.132 60.0628 70.36C60.2068 70.588 60.2788 70.87 60.2788 71.206C60.2788 71.818 60.0508 72.3 59.5948 72.652C59.1428 73 58.5188 73.174 57.7228 73.174ZM64.2975 73.18C63.6455 73.18 63.0935 73.034 62.6415 72.742C62.1895 72.45 61.8455 72.048 61.6095 71.536C61.3775 71.02 61.2575 70.428 61.2495 69.76C61.2575 69.08 61.3815 68.484 61.6215 67.972C61.8615 67.456 62.2075 67.056 62.6595 66.772C63.1115 66.484 63.6595 66.34 64.3035 66.34C64.9595 66.34 65.5295 66.5 66.0135 66.82C66.5015 67.14 66.8355 67.578 67.0155 68.134L66.1515 68.41C65.9995 68.022 65.7575 67.722 65.4255 67.51C65.0975 67.294 64.7215 67.186 64.2975 67.186C63.8215 67.186 63.4275 67.296 63.1155 67.516C62.8035 67.732 62.5715 68.034 62.4195 68.422C62.2675 68.81 62.1895 69.256 62.1855 69.76C62.1935 70.536 62.3735 71.16 62.7255 71.632C63.0775 72.1 63.6015 72.334 64.2975 72.334C64.7375 72.334 65.1115 72.234 65.4195 72.034C65.7315 71.83 65.9675 71.534 66.1275 71.146L67.0155 71.41C66.7755 71.986 66.4235 72.426 65.9595 72.73C65.4955 73.03 64.9415 73.18 64.2975 73.18ZM70.0729 73.18C69.5849 73.18 69.1749 73.092 68.8429 72.916C68.5149 72.74 68.2689 72.506 68.1049 72.214C67.9409 71.922 67.8589 71.604 67.8589 71.26C67.8589 70.908 67.9289 70.608 68.0689 70.36C68.2129 70.108 68.4069 69.902 68.6509 69.742C68.8989 69.582 69.1849 69.46 69.5089 69.376C69.8369 69.296 70.1989 69.226 70.5949 69.166C70.9949 69.102 71.3849 69.048 71.7649 69.004C72.1489 68.956 72.4849 68.91 72.7729 68.866L72.4609 69.058C72.4729 68.418 72.3489 67.944 72.0889 67.636C71.8289 67.328 71.3769 67.174 70.7329 67.174C70.2889 67.174 69.9129 67.274 69.6049 67.474C69.3009 67.674 69.0869 67.99 68.9629 68.422L68.1049 68.17C68.2529 67.59 68.5509 67.14 68.9989 66.82C69.4469 66.5 70.0289 66.34 70.7449 66.34C71.3369 66.34 71.8389 66.452 72.2509 66.676C72.6669 66.896 72.9609 67.216 73.1329 67.636C73.2129 67.824 73.2649 68.034 73.2889 68.266C73.3129 68.498 73.3249 68.734 73.3249 68.974V73H72.5389V71.374L72.7669 71.47C72.5469 72.026 72.2049 72.45 71.7409 72.742C71.2769 73.034 70.7209 73.18 70.0729 73.18ZM70.1749 72.418C70.5869 72.418 70.9469 72.344 71.2549 72.196C71.5629 72.048 71.8109 71.846 71.9989 71.59C72.1869 71.33 72.3089 71.038 72.3649 70.714C72.4129 70.506 72.4389 70.278 72.4429 70.03C72.4469 69.778 72.4489 69.59 72.4489 69.466L72.7849 69.64C72.4849 69.68 72.1589 69.72 71.8069 69.76C71.4589 69.8 71.1149 69.846 70.7749 69.898C70.4389 69.95 70.1349 70.012 69.8629 70.084C69.6789 70.136 69.5009 70.21 69.3289 70.306C69.1569 70.398 69.0149 70.522 68.9029 70.678C68.7949 70.834 68.7409 71.028 68.7409 71.26C68.7409 71.448 68.7869 71.63 68.8789 71.806C68.9749 71.982 69.1269 72.128 69.3349 72.244C69.5469 72.36 69.8269 72.418 70.1749 72.418ZM79.5669 73V69.694C79.5669 69.334 79.5329 69.004 79.4649 68.704C79.3969 68.4 79.2869 68.136 79.1349 67.912C78.9869 67.684 78.7929 67.508 78.5529 67.384C78.3169 67.26 78.0289 67.198 77.6889 67.198C77.3769 67.198 77.1009 67.252 76.8609 67.36C76.6249 67.468 76.4249 67.624 76.2609 67.828C76.1009 68.028 75.9789 68.272 75.8949 68.56C75.8109 68.848 75.7689 69.176 75.7689 69.544L75.1449 69.406C75.1449 68.742 75.2609 68.184 75.4929 67.732C75.7249 67.28 76.0449 66.938 76.4529 66.706C76.8609 66.474 77.3289 66.358 77.8569 66.358C78.2449 66.358 78.5829 66.418 78.8709 66.538C79.1629 66.658 79.4089 66.82 79.6089 67.024C79.8129 67.228 79.9769 67.462 80.1009 67.726C80.2249 67.986 80.3149 68.264 80.3709 68.56C80.4269 68.852 80.4549 69.144 80.4549 69.436V73H79.5669ZM74.8809 73V66.52H75.6789V68.116H75.7689V73H74.8809ZM87.9422 73C87.5782 73.076 87.2182 73.106 86.8622 73.09C86.5102 73.074 86.1942 72.998 85.9142 72.862C85.6382 72.726 85.4282 72.514 85.2842 72.226C85.1682 71.986 85.1042 71.744 85.0922 71.5C85.0842 71.252 85.0802 70.97 85.0802 70.654V64.72H85.9562V70.618C85.9562 70.89 85.9582 71.118 85.9622 71.302C85.9702 71.482 86.0122 71.642 86.0882 71.782C86.2322 72.05 86.4602 72.21 86.7722 72.262C87.0882 72.314 87.4782 72.302 87.9422 72.226V73ZM83.6942 67.276V66.52H87.9422V67.276H83.6942ZM93.8989 73V69.694C93.8989 69.334 93.8649 69.004 93.7969 68.704C93.7289 68.4 93.6189 68.136 93.4669 67.912C93.3189 67.684 93.1249 67.508 92.8849 67.384C92.6489 67.26 92.3609 67.198 92.0209 67.198C91.7089 67.198 91.4329 67.252 91.1929 67.36C90.9569 67.468 90.7569 67.624 90.5929 67.828C90.4329 68.028 90.3109 68.272 90.2269 68.56C90.1429 68.848 90.1009 69.176 90.1009 69.544L89.4769 69.406C89.4769 68.742 89.5929 68.184 89.8249 67.732C90.0569 67.28 90.3769 66.938 90.7849 66.706C91.1929 66.474 91.6609 66.358 92.1889 66.358C92.5769 66.358 92.9149 66.418 93.2029 66.538C93.4949 66.658 93.7409 66.82 93.9409 67.024C94.1449 67.228 94.3089 67.462 94.4329 67.726C94.5569 67.986 94.6469 68.264 94.7029 68.56C94.7589 68.852 94.7869 69.144 94.7869 69.436V73H93.8989ZM89.2129 73V64.36H90.0109V69.238H90.1009V73H89.2129ZM99.0859 73.18C98.4539 73.18 97.9059 73.04 97.4419 72.76C96.9819 72.48 96.6239 72.086 96.3679 71.578C96.1119 71.07 95.9839 70.474 95.9839 69.79C95.9839 69.082 96.1099 68.47 96.3619 67.954C96.6139 67.438 96.9679 67.04 97.4239 66.76C97.8839 66.48 98.4259 66.34 99.0499 66.34C99.6899 66.34 100.236 66.488 100.688 66.784C101.14 67.076 101.482 67.496 101.714 68.044C101.946 68.592 102.052 69.246 102.032 70.006H101.132V69.694C101.116 68.854 100.934 68.22 100.586 67.792C100.242 67.364 99.7379 67.15 99.0739 67.15C98.3779 67.15 97.8439 67.376 97.4719 67.828C97.1039 68.28 96.9199 68.924 96.9199 69.76C96.9199 70.576 97.1039 71.21 97.4719 71.662C97.8439 72.11 98.3699 72.334 99.0499 72.334C99.5139 72.334 99.9179 72.228 100.262 72.016C100.61 71.8 100.884 71.49 101.084 71.086L101.906 71.404C101.65 71.968 101.272 72.406 100.772 72.718C100.276 73.026 99.7139 73.18 99.0859 73.18ZM96.6079 70.006V69.268H101.558V70.006H96.6079ZM107.146 73L105.166 66.514L106.048 66.52L107.584 71.554L109.126 66.52H109.93L111.472 71.554L113.02 66.52H113.896L111.916 73H111.148L109.528 67.84L107.914 73H107.146ZM117.484 73.18C116.852 73.18 116.304 73.04 115.84 72.76C115.38 72.48 115.022 72.086 114.766 71.578C114.51 71.07 114.382 70.474 114.382 69.79C114.382 69.082 114.508 68.47 114.76 67.954C115.012 67.438 115.366 67.04 115.822 66.76C116.282 66.48 116.824 66.34 117.448 66.34C118.088 66.34 118.634 66.488 119.086 66.784C119.538 67.076 119.88 67.496 120.112 68.044C120.344 68.592 120.45 69.246 120.43 70.006H119.53V69.694C119.514 68.854 119.332 68.22 118.984 67.792C118.64 67.364 118.136 67.15 117.472 67.15C116.776 67.15 116.242 67.376 115.87 67.828C115.502 68.28 115.318 68.924 115.318 69.76C115.318 70.576 115.502 71.21 115.87 71.662C116.242 72.11 116.768 72.334 117.448 72.334C117.912 72.334 118.316 72.228 118.66 72.016C119.008 71.8 119.282 71.49 119.482 71.086L120.304 71.404C120.048 71.968 119.67 72.406 119.17 72.718C118.674 73.026 118.112 73.18 117.484 73.18ZM115.006 70.006V69.268H119.956V70.006H115.006ZM124.672 73.18C124.076 73.18 123.572 73.03 123.16 72.73C122.748 72.426 122.436 72.016 122.224 71.5C122.012 70.98 121.906 70.398 121.906 69.754C121.906 69.098 122.012 68.514 122.224 68.002C122.44 67.486 122.756 67.08 123.172 66.784C123.588 66.488 124.1 66.34 124.708 66.34C125.3 66.34 125.808 66.49 126.232 66.79C126.656 67.09 126.98 67.498 127.204 68.014C127.432 68.53 127.546 69.11 127.546 69.754C127.546 70.402 127.432 70.984 127.204 71.5C126.976 72.016 126.648 72.426 126.22 72.73C125.792 73.03 125.276 73.18 124.672 73.18ZM121.756 73V64.36H122.644V68.122H122.548V73H121.756ZM124.582 72.358C125.034 72.358 125.41 72.244 125.71 72.016C126.01 71.788 126.234 71.478 126.382 71.086C126.534 70.69 126.61 70.246 126.61 69.754C126.61 69.266 126.536 68.826 126.388 68.434C126.24 68.042 126.014 67.732 125.71 67.504C125.41 67.276 125.028 67.162 124.564 67.162C124.112 67.162 123.736 67.272 123.436 67.492C123.14 67.712 122.918 68.018 122.77 68.41C122.622 68.798 122.548 69.246 122.548 69.754C122.548 70.254 122.622 70.702 122.77 71.098C122.918 71.49 123.142 71.798 123.442 72.022C123.742 72.246 124.122 72.358 124.582 72.358ZM131.223 73.174C130.463 73.174 129.837 73.01 129.345 72.682C128.857 72.354 128.557 71.898 128.445 71.314L129.345 71.164C129.441 71.532 129.659 71.826 129.999 72.046C130.343 72.262 130.767 72.37 131.271 72.37C131.763 72.37 132.151 72.268 132.435 72.064C132.719 71.856 132.861 71.574 132.861 71.218C132.861 71.018 132.815 70.856 132.723 70.732C132.635 70.604 132.453 70.486 132.177 70.378C131.901 70.27 131.489 70.142 130.941 69.994C130.353 69.834 129.893 69.674 129.561 69.514C129.229 69.354 128.993 69.17 128.853 68.962C128.713 68.75 128.643 68.492 128.643 68.188C128.643 67.82 128.747 67.498 128.955 67.222C129.163 66.942 129.451 66.726 129.819 66.574C130.187 66.418 130.615 66.34 131.103 66.34C131.591 66.34 132.027 66.42 132.411 66.58C132.799 66.736 133.111 66.956 133.347 67.24C133.583 67.524 133.723 67.854 133.767 68.23L132.867 68.392C132.807 68.012 132.617 67.712 132.297 67.492C131.981 67.268 131.579 67.152 131.091 67.144C130.631 67.132 130.257 67.22 129.969 67.408C129.681 67.592 129.537 67.838 129.537 68.146C129.537 68.318 129.589 68.466 129.693 68.59C129.797 68.71 129.985 68.824 130.257 68.932C130.533 69.04 130.925 69.158 131.433 69.286C132.029 69.438 132.497 69.598 132.837 69.766C133.177 69.934 133.419 70.132 133.563 70.36C133.707 70.588 133.779 70.87 133.779 71.206C133.779 71.818 133.551 72.3 133.095 72.652C132.643 73 132.019 73.174 131.223 73.174ZM135.23 65.29V64.3H136.112V65.29H135.23ZM135.23 73V66.52H136.112V73H135.23ZM141.438 73C141.074 73.076 140.714 73.106 140.358 73.09C140.006 73.074 139.69 72.998 139.41 72.862C139.134 72.726 138.924 72.514 138.78 72.226C138.664 71.986 138.6 71.744 138.588 71.5C138.58 71.252 138.576 70.97 138.576 70.654V64.72H139.452V70.618C139.452 70.89 139.454 71.118 139.458 71.302C139.466 71.482 139.508 71.642 139.584 71.782C139.728 72.05 139.956 72.21 140.268 72.262C140.584 72.314 140.974 72.302 141.438 72.226V73ZM137.19 67.276V66.52H141.438V67.276H137.19ZM145.223 73.18C144.591 73.18 144.043 73.04 143.579 72.76C143.119 72.48 142.761 72.086 142.505 71.578C142.249 71.07 142.121 70.474 142.121 69.79C142.121 69.082 142.247 68.47 142.499 67.954C142.751 67.438 143.105 67.04 143.561 66.76C144.021 66.48 144.563 66.34 145.187 66.34C145.827 66.34 146.373 66.488 146.825 66.784C147.277 67.076 147.619 67.496 147.851 68.044C148.083 68.592 148.189 69.246 148.169 70.006H147.269V69.694C147.253 68.854 147.071 68.22 146.723 67.792C146.379 67.364 145.875 67.15 145.211 67.15C144.515 67.15 143.981 67.376 143.609 67.828C143.241 68.28 143.057 68.924 143.057 69.76C143.057 70.576 143.241 71.21 143.609 71.662C143.981 72.11 144.507 72.334 145.187 72.334C145.651 72.334 146.055 72.228 146.399 72.016C146.747 71.8 147.021 71.49 147.221 71.086L148.043 71.404C147.787 71.968 147.409 72.406 146.909 72.718C146.413 73.026 145.851 73.18 145.223 73.18ZM142.745 70.006V69.268H147.695V70.006H142.745ZM153.757 73.18C153.269 73.18 152.859 73.092 152.527 72.916C152.199 72.74 151.953 72.506 151.789 72.214C151.625 71.922 151.543 71.604 151.543 71.26C151.543 70.908 151.613 70.608 151.753 70.36C151.897 70.108 152.091 69.902 152.335 69.742C152.583 69.582 152.869 69.46 153.193 69.376C153.521 69.296 153.883 69.226 154.279 69.166C154.679 69.102 155.069 69.048 155.449 69.004C155.833 68.956 156.169 68.91 156.457 68.866L156.145 69.058C156.157 68.418 156.033 67.944 155.773 67.636C155.513 67.328 155.061 67.174 154.417 67.174C153.973 67.174 153.597 67.274 153.289 67.474C152.985 67.674 152.771 67.99 152.646 68.422L151.789 68.17C151.937 67.59 152.235 67.14 152.683 66.82C153.131 66.5 153.713 66.34 154.429 66.34C155.021 66.34 155.523 66.452 155.935 66.676C156.351 66.896 156.645 67.216 156.817 67.636C156.897 67.824 156.949 68.034 156.973 68.266C156.997 68.498 157.009 68.734 157.009 68.974V73H156.223V71.374L156.451 71.47C156.231 72.026 155.889 72.45 155.425 72.742C154.961 73.034 154.405 73.18 153.757 73.18ZM153.859 72.418C154.271 72.418 154.631 72.344 154.939 72.196C155.247 72.048 155.495 71.846 155.683 71.59C155.871 71.33 155.993 71.038 156.049 70.714C156.097 70.506 156.123 70.278 156.127 70.03C156.131 69.778 156.133 69.59 156.133 69.466L156.469 69.64C156.169 69.68 155.843 69.72 155.491 69.76C155.143 69.8 154.799 69.846 154.459 69.898C154.123 69.95 153.819 70.012 153.547 70.084C153.363 70.136 153.185 70.21 153.013 70.306C152.841 70.398 152.699 70.522 152.587 70.678C152.479 70.834 152.425 71.028 152.425 71.26C152.425 71.448 152.471 71.63 152.562 71.806C152.659 71.982 152.811 72.128 153.019 72.244C153.231 72.36 153.511 72.418 153.859 72.418ZM163.25 73V69.694C163.25 69.334 163.216 69.004 163.148 68.704C163.08 68.4 162.97 68.136 162.818 67.912C162.67 67.684 162.476 67.508 162.236 67.384C162 67.26 161.712 67.198 161.372 67.198C161.06 67.198 160.784 67.252 160.544 67.36C160.308 67.468 160.108 67.624 159.944 67.828C159.784 68.028 159.662 68.272 159.578 68.56C159.494 68.848 159.452 69.176 159.452 69.544L158.828 69.406C158.828 68.742 158.944 68.184 159.176 67.732C159.408 67.28 159.728 66.938 160.136 66.706C160.544 66.474 161.012 66.358 161.54 66.358C161.928 66.358 162.266 66.418 162.554 66.538C162.846 66.658 163.092 66.82 163.292 67.024C163.496 67.228 163.66 67.462 163.784 67.726C163.908 67.986 163.998 68.264 164.054 68.56C164.11 68.852 164.138 69.144 164.138 69.436V73H163.25ZM158.564 73V66.52H159.362V68.116H159.452V73H158.564ZM168.174 73.18C167.57 73.18 167.054 73.03 166.626 72.73C166.198 72.426 165.87 72.016 165.642 71.5C165.414 70.984 165.3 70.402 165.3 69.754C165.3 69.11 165.412 68.53 165.636 68.014C165.864 67.498 166.19 67.09 166.614 66.79C167.038 66.49 167.546 66.34 168.138 66.34C168.746 66.34 169.258 66.488 169.674 66.784C170.09 67.08 170.404 67.486 170.616 68.002C170.832 68.514 170.94 69.098 170.94 69.754C170.94 70.398 170.834 70.98 170.622 71.5C170.41 72.016 170.098 72.426 169.686 72.73C169.274 73.03 168.77 73.18 168.174 73.18ZM168.264 72.358C168.724 72.358 169.104 72.246 169.404 72.022C169.704 71.798 169.928 71.49 170.076 71.098C170.224 70.702 170.298 70.254 170.298 69.754C170.298 69.246 170.224 68.798 170.076 68.41C169.928 68.018 169.704 67.712 169.404 67.492C169.108 67.272 168.734 67.162 168.282 67.162C167.818 67.162 167.434 67.276 167.13 67.504C166.826 67.732 166.6 68.042 166.452 68.434C166.308 68.826 166.236 69.266 166.236 69.754C166.236 70.246 166.31 70.69 166.458 71.086C166.61 71.478 166.836 71.788 167.136 72.016C167.436 72.244 167.812 72.358 168.264 72.358ZM170.298 73V68.122H170.202V64.36H171.09V73H170.298ZM29.528 93.18C28.876 93.18 28.324 93.034 27.872 92.742C27.42 92.45 27.076 92.048 26.84 91.536C26.608 91.02 26.488 90.428 26.48 89.76C26.488 89.08 26.612 88.484 26.852 87.972C27.092 87.456 27.438 87.056 27.89 86.772C28.342 86.484 28.89 86.34 29.534 86.34C30.19 86.34 30.76 86.5 31.244 86.82C31.732 87.14 32.066 87.578 32.246 88.134L31.382 88.41C31.23 88.022 30.988 87.722 30.656 87.51C30.328 87.294 29.952 87.186 29.528 87.186C29.052 87.186 28.658 87.296 28.346 87.516C28.034 87.732 27.802 88.034 27.65 88.422C27.498 88.81 27.42 89.256 27.416 89.76C27.424 90.536 27.604 91.16 27.956 91.632C28.308 92.1 28.832 92.334 29.528 92.334C29.968 92.334 30.342 92.234 30.65 92.034C30.962 91.83 31.198 91.534 31.358 91.146L32.246 91.41C32.006 91.986 31.654 92.426 31.19 92.73C30.726 93.03 30.172 93.18 29.528 93.18ZM36.0148 93.18C35.3708 93.18 34.8208 93.034 34.3648 92.742C33.9088 92.45 33.5588 92.046 33.3148 91.53C33.0708 91.014 32.9488 90.422 32.9488 89.754C32.9488 89.074 33.0728 88.478 33.3208 87.966C33.5688 87.454 33.9208 87.056 34.3768 86.772C34.8368 86.484 35.3828 86.34 36.0148 86.34C36.6628 86.34 37.2148 86.486 37.6708 86.778C38.1308 87.066 38.4808 87.468 38.7208 87.984C38.9648 88.496 39.0868 89.086 39.0868 89.754C39.0868 90.434 38.9648 91.032 38.7208 91.548C38.4768 92.06 38.1248 92.46 37.6648 92.748C37.2048 93.036 36.6548 93.18 36.0148 93.18ZM36.0148 92.334C36.7348 92.334 37.2708 92.096 37.6228 91.62C37.9748 91.14 38.1508 90.518 38.1508 89.754C38.1508 88.97 37.9728 88.346 37.6168 87.882C37.2648 87.418 36.7308 87.186 36.0148 87.186C35.5308 87.186 35.1308 87.296 34.8148 87.516C34.5028 87.732 34.2688 88.034 34.1128 88.422C33.9608 88.806 33.8848 89.25 33.8848 89.754C33.8848 90.534 34.0648 91.16 34.4248 91.632C34.7848 92.1 35.3148 92.334 36.0148 92.334ZM40.5303 93V84.18H41.4123V93H40.5303ZM43.3311 93V84.18H44.2131V93H43.3311ZM48.7539 93.18C48.1219 93.18 47.5739 93.04 47.1099 92.76C46.6499 92.48 46.2919 92.086 46.0359 91.578C45.7799 91.07 45.6519 90.474 45.6519 89.79C45.6519 89.082 45.7779 88.47 46.0299 87.954C46.2819 87.438 46.6359 87.04 47.0919 86.76C47.5519 86.48 48.0939 86.34 48.7179 86.34C49.3579 86.34 49.9039 86.488 50.3559 86.784C50.8079 87.076 51.1499 87.496 51.3819 88.044C51.6139 88.592 51.7199 89.246 51.6999 90.006H50.7999V89.694C50.7839 88.854 50.6019 88.22 50.2539 87.792C49.9099 87.364 49.4059 87.15 48.7419 87.15C48.0459 87.15 47.5119 87.376 47.1399 87.828C46.7719 88.28 46.5879 88.924 46.5879 89.76C46.5879 90.576 46.7719 91.21 47.1399 91.662C47.5119 92.11 48.0379 92.334 48.7179 92.334C49.1819 92.334 49.5859 92.228 49.9299 92.016C50.2779 91.8 50.5519 91.49 50.7519 91.086L51.5739 91.404C51.3179 91.968 50.9399 92.406 50.4399 92.718C49.9439 93.026 49.3819 93.18 48.7539 93.18ZM46.2759 90.006V89.268H51.2259V90.006H46.2759ZM55.7194 93.18C55.0674 93.18 54.5154 93.034 54.0634 92.742C53.6114 92.45 53.2674 92.048 53.0314 91.536C52.7994 91.02 52.6794 90.428 52.6714 89.76C52.6794 89.08 52.8034 88.484 53.0434 87.972C53.2834 87.456 53.6294 87.056 54.0814 86.772C54.5334 86.484 55.0814 86.34 55.7254 86.34C56.3814 86.34 56.9514 86.5 57.4354 86.82C57.9234 87.14 58.2574 87.578 58.4374 88.134L57.5734 88.41C57.4214 88.022 57.1794 87.722 56.8474 87.51C56.5194 87.294 56.1434 87.186 55.7194 87.186C55.2434 87.186 54.8494 87.296 54.5374 87.516C54.2254 87.732 53.9934 88.034 53.8414 88.422C53.6894 88.81 53.6114 89.256 53.6074 89.76C53.6154 90.536 53.7954 91.16 54.1474 91.632C54.4994 92.1 55.0234 92.334 55.7194 92.334C56.1594 92.334 56.5334 92.234 56.8414 92.034C57.1534 91.83 57.3894 91.534 57.5494 91.146L58.4374 91.41C58.1974 91.986 57.8454 92.426 57.3814 92.73C56.9174 93.03 56.3634 93.18 55.7194 93.18ZM63.2039 93C62.8399 93.076 62.4799 93.106 62.1239 93.09C61.7719 93.074 61.4559 92.998 61.1759 92.862C60.8999 92.726 60.6899 92.514 60.5459 92.226C60.4299 91.986 60.3659 91.744 60.3539 91.5C60.3459 91.252 60.3419 90.97 60.3419 90.654V84.72H61.2179V90.618C61.2179 90.89 61.2199 91.118 61.2239 91.302C61.2319 91.482 61.2739 91.642 61.3499 91.782C61.4939 92.05 61.7219 92.21 62.0339 92.262C62.3499 92.314 62.7399 92.302 63.2039 92.226V93ZM58.9559 87.276V86.52H63.2039V87.276H58.9559ZM69.571 93.18C68.919 93.18 68.367 93.034 67.915 92.742C67.463 92.45 67.119 92.048 66.883 91.536C66.651 91.02 66.531 90.428 66.523 89.76C66.531 89.08 66.655 88.484 66.895 87.972C67.135 87.456 67.481 87.056 67.933 86.772C68.385 86.484 68.933 86.34 69.577 86.34C70.233 86.34 70.803 86.5 71.287 86.82C71.775 87.14 72.109 87.578 72.289 88.134L71.425 88.41C71.273 88.022 71.031 87.722 70.699 87.51C70.371 87.294 69.995 87.186 69.571 87.186C69.095 87.186 68.701 87.296 68.389 87.516C68.077 87.732 67.845 88.034 67.693 88.422C67.541 88.81 67.463 89.256 67.459 89.76C67.467 90.536 67.647 91.16 67.999 91.632C68.351 92.1 68.875 92.334 69.571 92.334C70.011 92.334 70.385 92.234 70.693 92.034C71.005 91.83 71.241 91.534 71.401 91.146L72.289 91.41C72.049 91.986 71.697 92.426 71.233 92.73C70.769 93.03 70.215 93.18 69.571 93.18ZM76.0577 93.18C75.4137 93.18 74.8637 93.034 74.4077 92.742C73.9517 92.45 73.6017 92.046 73.3577 91.53C73.1137 91.014 72.9917 90.422 72.9917 89.754C72.9917 89.074 73.1157 88.478 73.3637 87.966C73.6117 87.454 73.9637 87.056 74.4197 86.772C74.8797 86.484 75.4257 86.34 76.0577 86.34C76.7057 86.34 77.2577 86.486 77.7137 86.778C78.1737 87.066 78.5237 87.468 78.7637 87.984C79.0077 88.496 79.1297 89.086 79.1297 89.754C79.1297 90.434 79.0077 91.032 78.7637 91.548C78.5197 92.06 78.1677 92.46 77.7077 92.748C77.2477 93.036 76.6977 93.18 76.0577 93.18ZM76.0577 92.334C76.7777 92.334 77.3137 92.096 77.6657 91.62C78.0177 91.14 78.1937 90.518 78.1937 89.754C78.1937 88.97 78.0157 88.346 77.6597 87.882C77.3077 87.418 76.7737 87.186 76.0577 87.186C75.5737 87.186 75.1737 87.296 74.8577 87.516C74.5457 87.732 74.3117 88.034 74.1557 88.422C74.0037 88.806 73.9277 89.25 73.9277 89.754C73.9277 90.534 74.1077 91.16 74.4677 91.632C74.8277 92.1 75.3577 92.334 76.0577 92.334ZM85.1333 93V89.694C85.1333 89.334 85.0993 89.004 85.0313 88.704C84.9633 88.4 84.8533 88.136 84.7013 87.912C84.5533 87.684 84.3593 87.508 84.1193 87.384C83.8833 87.26 83.5953 87.198 83.2553 87.198C82.9433 87.198 82.6673 87.252 82.4273 87.36C82.1913 87.468 81.9913 87.624 81.8273 87.828C81.6673 88.028 81.5453 88.272 81.4613 88.56C81.3773 88.848 81.3353 89.176 81.3353 89.544L80.7113 89.406C80.7113 88.742 80.8273 88.184 81.0593 87.732C81.2913 87.28 81.6113 86.938 82.0193 86.706C82.4273 86.474 82.8953 86.358 83.4233 86.358C83.8113 86.358 84.1493 86.418 84.4373 86.538C84.7293 86.658 84.9753 86.82 85.1753 87.024C85.3793 87.228 85.5433 87.462 85.6673 87.726C85.7913 87.986 85.8813 88.264 85.9373 88.56C85.9933 88.852 86.0213 89.144 86.0213 89.436V93H85.1333ZM80.4473 93V86.52H81.2453V88.116H81.3353V93H80.4473ZM91.1063 93C90.7423 93.076 90.3823 93.106 90.0263 93.09C89.6743 93.074 89.3583 92.998 89.0783 92.862C88.8023 92.726 88.5923 92.514 88.4483 92.226C88.3323 91.986 88.2683 91.744 88.2563 91.5C88.2483 91.252 88.2443 90.97 88.2443 90.654V84.72H89.1203V90.618C89.1203 90.89 89.1223 91.118 89.1263 91.302C89.1343 91.482 89.1763 91.642 89.2523 91.782C89.3963 92.05 89.6243 92.21 89.9363 92.262C90.2523 92.314 90.6423 92.302 91.1063 92.226V93ZM86.8583 87.276V86.52H91.1063V87.276H86.8583ZM94.8906 93.18C94.2586 93.18 93.7106 93.04 93.2466 92.76C92.7866 92.48 92.4286 92.086 92.1726 91.578C91.9166 91.07 91.7886 90.474 91.7886 89.79C91.7886 89.082 91.9146 88.47 92.1666 87.954C92.4186 87.438 92.7726 87.04 93.2286 86.76C93.6886 86.48 94.2306 86.34 94.8546 86.34C95.4946 86.34 96.0406 86.488 96.4926 86.784C96.9446 87.076 97.2866 87.496 97.5186 88.044C97.7506 88.592 97.8566 89.246 97.8366 90.006H96.9366V89.694C96.9206 88.854 96.7386 88.22 96.3906 87.792C96.0466 87.364 95.5426 87.15 94.8786 87.15C94.1826 87.15 93.6486 87.376 93.2766 87.828C92.9086 88.28 92.7246 88.924 92.7246 89.76C92.7246 90.576 92.9086 91.21 93.2766 91.662C93.6486 92.11 94.1746 92.334 94.8546 92.334C95.3186 92.334 95.7226 92.228 96.0666 92.016C96.4146 91.8 96.6886 91.49 96.8886 91.086L97.7106 91.404C97.4546 91.968 97.0766 92.406 96.5766 92.718C96.0806 93.026 95.5186 93.18 94.8906 93.18ZM92.4126 90.006V89.268H97.3626V90.006H92.4126ZM103.672 93V89.694C103.672 89.334 103.638 89.004 103.57 88.704C103.502 88.4 103.392 88.136 103.24 87.912C103.092 87.684 102.898 87.508 102.658 87.384C102.422 87.26 102.134 87.198 101.794 87.198C101.482 87.198 101.206 87.252 100.966 87.36C100.73 87.468 100.53 87.624 100.366 87.828C100.206 88.028 100.084 88.272 100 88.56C99.9163 88.848 99.8743 89.176 99.8743 89.544L99.2503 89.406C99.2503 88.742 99.3663 88.184 99.5983 87.732C99.8303 87.28 100.15 86.938 100.558 86.706C100.966 86.474 101.434 86.358 101.962 86.358C102.35 86.358 102.688 86.418 102.976 86.538C103.268 86.658 103.514 86.82 103.714 87.024C103.918 87.228 104.082 87.462 104.206 87.726C104.33 87.986 104.42 88.264 104.476 88.56C104.532 88.852 104.56 89.144 104.56 89.436V93H103.672ZM98.9863 93V86.52H99.7843V88.116H99.8743V93H98.9863ZM109.645 93C109.281 93.076 108.921 93.106 108.565 93.09C108.213 93.074 107.897 92.998 107.617 92.862C107.341 92.726 107.131 92.514 106.987 92.226C106.871 91.986 106.807 91.744 106.795 91.5C106.787 91.252 106.783 90.97 106.783 90.654V84.72H107.659V90.618C107.659 90.89 107.661 91.118 107.665 91.302C107.673 91.482 107.715 91.642 107.791 91.782C107.935 92.05 108.163 92.21 108.475 92.262C108.791 92.314 109.181 92.302 109.645 92.226V93ZM105.397 87.276V86.52H109.645V87.276H105.397ZM113.966 93V86.04C113.966 85.872 113.974 85.706 113.99 85.542C114.01 85.378 114.048 85.222 114.104 85.074C114.16 84.922 114.248 84.782 114.368 84.654C114.5 84.51 114.644 84.406 114.8 84.342C114.956 84.274 115.118 84.23 115.286 84.21C115.458 84.19 115.626 84.18 115.79 84.18H116.618V84.924H115.85C115.514 84.924 115.262 85.006 115.094 85.17C114.93 85.334 114.848 85.592 114.848 85.944V93H113.966ZM112.844 87.276V86.52H116.618V87.276H112.844ZM117.578 93V86.52H118.37V88.08L118.214 87.876C118.286 87.684 118.38 87.508 118.496 87.348C118.612 87.184 118.738 87.05 118.874 86.946C119.042 86.798 119.238 86.686 119.462 86.61C119.686 86.53 119.912 86.484 120.14 86.472C120.368 86.456 120.576 86.472 120.764 86.52V87.348C120.528 87.288 120.27 87.274 119.99 87.306C119.71 87.338 119.452 87.45 119.216 87.642C119 87.81 118.838 88.012 118.73 88.248C118.622 88.48 118.55 88.728 118.514 88.992C118.478 89.252 118.46 89.51 118.46 89.766V93H117.578ZM124.491 93.18C123.847 93.18 123.297 93.034 122.841 92.742C122.385 92.45 122.035 92.046 121.791 91.53C121.547 91.014 121.425 90.422 121.425 89.754C121.425 89.074 121.549 88.478 121.797 87.966C122.045 87.454 122.397 87.056 122.853 86.772C123.313 86.484 123.859 86.34 124.491 86.34C125.139 86.34 125.691 86.486 126.147 86.778C126.607 87.066 126.957 87.468 127.197 87.984C127.441 88.496 127.563 89.086 127.563 89.754C127.563 90.434 127.441 91.032 127.197 91.548C126.953 92.06 126.601 92.46 126.141 92.748C125.681 93.036 125.131 93.18 124.491 93.18ZM124.491 92.334C125.211 92.334 125.747 92.096 126.099 91.62C126.451 91.14 126.627 90.518 126.627 89.754C126.627 88.97 126.449 88.346 126.093 87.882C125.741 87.418 125.207 87.186 124.491 87.186C124.007 87.186 123.607 87.296 123.291 87.516C122.979 87.732 122.745 88.034 122.589 88.422C122.437 88.806 122.361 89.25 122.361 89.754C122.361 90.534 122.541 91.16 122.901 91.632C123.261 92.1 123.791 92.334 124.491 92.334ZM136.615 93L136.621 88.746C136.621 88.246 136.481 87.854 136.201 87.57C135.925 87.282 135.573 87.138 135.145 87.138C134.901 87.138 134.663 87.194 134.431 87.306C134.199 87.418 134.007 87.598 133.855 87.846C133.707 88.094 133.633 88.418 133.633 88.818L133.111 88.668C133.099 88.204 133.189 87.798 133.381 87.45C133.577 87.102 133.845 86.832 134.185 86.64C134.529 86.444 134.917 86.346 135.349 86.346C136.001 86.346 136.523 86.548 136.915 86.952C137.307 87.352 137.503 87.894 137.503 88.578L137.497 93H136.615ZM128.881 93V86.52H129.673V88.116H129.769V93H128.881ZM132.757 93L132.763 88.806C132.763 88.29 132.625 87.884 132.349 87.588C132.077 87.288 131.717 87.138 131.269 87.138C130.821 87.138 130.459 87.292 130.183 87.6C129.907 87.904 129.769 88.31 129.769 88.818L129.241 88.53C129.241 88.114 129.339 87.742 129.535 87.414C129.731 87.082 129.999 86.822 130.339 86.634C130.679 86.442 131.065 86.346 131.497 86.346C131.909 86.346 132.275 86.434 132.595 86.61C132.919 86.786 133.173 87.042 133.357 87.378C133.541 87.714 133.633 88.122 133.633 88.602L133.627 93H132.757ZM144.989 93C144.625 93.076 144.265 93.106 143.909 93.09C143.557 93.074 143.241 92.998 142.961 92.862C142.685 92.726 142.475 92.514 142.331 92.226C142.215 91.986 142.151 91.744 142.139 91.5C142.131 91.252 142.127 90.97 142.127 90.654V84.72H143.003V90.618C143.003 90.89 143.005 91.118 143.009 91.302C143.017 91.482 143.059 91.642 143.135 91.782C143.279 92.05 143.507 92.21 143.819 92.262C144.135 92.314 144.525 92.302 144.989 92.226V93ZM140.741 87.276V86.52H144.989V87.276H140.741ZM150.946 93V89.694C150.946 89.334 150.912 89.004 150.844 88.704C150.776 88.4 150.666 88.136 150.514 87.912C150.366 87.684 150.172 87.508 149.932 87.384C149.696 87.26 149.408 87.198 149.068 87.198C148.756 87.198 148.48 87.252 148.24 87.36C148.004 87.468 147.804 87.624 147.64 87.828C147.48 88.028 147.358 88.272 147.274 88.56C147.19 88.848 147.148 89.176 147.148 89.544L146.524 89.406C146.524 88.742 146.64 88.184 146.872 87.732C147.104 87.28 147.424 86.938 147.832 86.706C148.24 86.474 148.708 86.358 149.236 86.358C149.624 86.358 149.962 86.418 150.25 86.538C150.542 86.658 150.788 86.82 150.988 87.024C151.192 87.228 151.356 87.462 151.48 87.726C151.604 87.986 151.694 88.264 151.75 88.56C151.806 88.852 151.834 89.144 151.834 89.436V93H150.946ZM146.26 93V84.36H147.058V89.238H147.148V93H146.26ZM153.511 85.29V84.3H154.393V85.29H153.511ZM153.511 93V86.52H154.393V93H153.511ZM158.61 93.174C157.85 93.174 157.224 93.01 156.732 92.682C156.244 92.354 155.944 91.898 155.832 91.314L156.732 91.164C156.828 91.532 157.046 91.826 157.386 92.046C157.73 92.262 158.154 92.37 158.658 92.37C159.15 92.37 159.538 92.268 159.822 92.064C160.106 91.856 160.248 91.574 160.248 91.218C160.248 91.018 160.202 90.856 160.11 90.732C160.022 90.604 159.84 90.486 159.564 90.378C159.288 90.27 158.876 90.142 158.328 89.994C157.74 89.834 157.28 89.674 156.948 89.514C156.616 89.354 156.38 89.17 156.24 88.962C156.1 88.75 156.03 88.492 156.03 88.188C156.03 87.82 156.134 87.498 156.342 87.222C156.55 86.942 156.838 86.726 157.206 86.574C157.574 86.418 158.002 86.34 158.49 86.34C158.978 86.34 159.414 86.42 159.798 86.58C160.186 86.736 160.498 86.956 160.734 87.24C160.97 87.524 161.11 87.854 161.154 88.23L160.254 88.392C160.194 88.012 160.004 87.712 159.684 87.492C159.368 87.268 158.966 87.152 158.478 87.144C158.018 87.132 157.644 87.22 157.356 87.408C157.068 87.592 156.924 87.838 156.924 88.146C156.924 88.318 156.976 88.466 157.08 88.59C157.184 88.71 157.372 88.824 157.644 88.932C157.92 89.04 158.312 89.158 158.82 89.286C159.416 89.438 159.884 89.598 160.224 89.766C160.564 89.934 160.806 90.132 160.95 90.36C161.094 90.588 161.166 90.87 161.166 91.206C161.166 91.818 160.938 92.3 160.482 92.652C160.03 93 159.406 93.174 158.61 93.174ZM167.317 93.174C166.557 93.174 165.931 93.01 165.439 92.682C164.951 92.354 164.651 91.898 164.539 91.314L165.439 91.164C165.535 91.532 165.753 91.826 166.093 92.046C166.437 92.262 166.861 92.37 167.365 92.37C167.857 92.37 168.245 92.268 168.529 92.064C168.813 91.856 168.955 91.574 168.955 91.218C168.955 91.018 168.909 90.856 168.817 90.732C168.729 90.604 168.547 90.486 168.271 90.378C167.995 90.27 167.583 90.142 167.035 89.994C166.447 89.834 165.987 89.674 165.655 89.514C165.323 89.354 165.087 89.17 164.947 88.962C164.807 88.75 164.737 88.492 164.737 88.188C164.737 87.82 164.841 87.498 165.049 87.222C165.257 86.942 165.545 86.726 165.913 86.574C166.281 86.418 166.709 86.34 167.197 86.34C167.685 86.34 168.121 86.42 168.505 86.58C168.893 86.736 169.205 86.956 169.441 87.24C169.677 87.524 169.817 87.854 169.861 88.23L168.961 88.392C168.901 88.012 168.711 87.712 168.391 87.492C168.075 87.268 167.673 87.152 167.185 87.144C166.725 87.132 166.351 87.22 166.063 87.408C165.775 87.592 165.631 87.838 165.631 88.146C165.631 88.318 165.683 88.466 165.787 88.59C165.891 88.71 166.079 88.824 166.351 88.932C166.627 89.04 167.019 89.158 167.527 89.286C168.123 89.438 168.591 89.598 168.931 89.766C169.271 89.934 169.513 90.132 169.657 90.36C169.801 90.588 169.873 90.87 169.873 91.206C169.873 91.818 169.645 92.3 169.189 92.652C168.737 93 168.113 93.174 167.317 93.174ZM171.323 85.29V84.3H172.205V85.29H171.323ZM171.323 93V86.52H172.205V93H171.323ZM177.532 93C177.168 93.076 176.808 93.106 176.452 93.09C176.1 93.074 175.784 92.998 175.504 92.862C175.228 92.726 175.018 92.514 174.874 92.226C174.758 91.986 174.694 91.744 174.682 91.5C174.674 91.252 174.67 90.97 174.67 90.654V84.72H175.546V90.618C175.546 90.89 175.548 91.118 175.552 91.302C175.56 91.482 175.602 91.642 175.678 91.782C175.822 92.05 176.05 92.21 176.362 92.262C176.678 92.314 177.068 92.302 177.532 92.226V93ZM173.284 87.276V86.52H177.532V87.276H173.284ZM181.316 93.18C180.684 93.18 180.136 93.04 179.672 92.76C179.212 92.48 178.854 92.086 178.598 91.578C178.342 91.07 178.214 90.474 178.214 89.79C178.214 89.082 178.34 88.47 178.592 87.954C178.844 87.438 179.198 87.04 179.654 86.76C180.114 86.48 180.656 86.34 181.28 86.34C181.92 86.34 182.466 86.488 182.918 86.784C183.37 87.076 183.712 87.496 183.944 88.044C184.176 88.592 184.282 89.246 184.262 90.006H183.362V89.694C183.346 88.854 183.164 88.22 182.816 87.792C182.472 87.364 181.968 87.15 181.304 87.15C180.608 87.15 180.074 87.376 179.702 87.828C179.334 88.28 179.15 88.924 179.15 89.76C179.15 90.576 179.334 91.21 179.702 91.662C180.074 92.11 180.6 92.334 181.28 92.334C181.744 92.334 182.148 92.228 182.492 92.016C182.84 91.8 183.114 91.49 183.314 91.086L184.136 91.404C183.88 91.968 183.502 92.406 183.002 92.718C182.506 93.026 181.944 93.18 181.316 93.18ZM178.838 90.006V89.268H183.788V90.006H178.838ZM185.24 94.254L185.294 93.816C185.454 93.828 185.57 93.796 185.642 93.72C185.714 93.644 185.758 93.542 185.774 93.414C185.79 93.286 185.794 93.148 185.786 93H185.24V91.734H186.266V93.24C186.266 93.608 186.172 93.884 185.984 94.068C185.8 94.252 185.552 94.314 185.24 94.254ZM29.318 113.162C28.93 113.162 28.59 113.102 28.298 112.982C28.01 112.862 27.764 112.7 27.56 112.496C27.36 112.292 27.198 112.06 27.074 111.8C26.95 111.536 26.86 111.258 26.804 110.966C26.748 110.67 26.72 110.376 26.72 110.084V106.52H27.608V109.826C27.608 110.182 27.642 110.512 27.71 110.816C27.778 111.12 27.886 111.386 28.034 111.614C28.186 111.838 28.38 112.012 28.616 112.136C28.856 112.26 29.146 112.322 29.486 112.322C29.798 112.322 30.072 112.268 30.308 112.16C30.548 112.052 30.748 111.898 30.908 111.698C31.072 111.494 31.196 111.248 31.28 110.96C31.364 110.668 31.406 110.34 31.406 109.976L32.03 110.114C32.03 110.778 31.914 111.336 31.682 111.788C31.45 112.24 31.13 112.582 30.722 112.814C30.314 113.046 29.846 113.162 29.318 113.162ZM31.496 113V111.404H31.406V106.52H32.288V113H31.496ZM36.875 113.18C36.279 113.18 35.775 113.03 35.363 112.73C34.951 112.426 34.639 112.016 34.427 111.5C34.215 110.98 34.109 110.398 34.109 109.754C34.109 109.098 34.215 108.514 34.427 108.002C34.643 107.486 34.959 107.08 35.375 106.784C35.791 106.488 36.303 106.34 36.911 106.34C37.503 106.34 38.011 106.49 38.435 106.79C38.859 107.09 39.183 107.498 39.407 108.014C39.635 108.53 39.749 109.11 39.749 109.754C39.749 110.402 39.635 110.984 39.407 111.5C39.179 112.016 38.851 112.426 38.423 112.73C37.995 113.03 37.479 113.18 36.875 113.18ZM33.959 115.88V106.52H34.751V111.398H34.847V115.88H33.959ZM36.785 112.358C37.237 112.358 37.613 112.244 37.913 112.016C38.213 111.788 38.437 111.478 38.585 111.086C38.737 110.69 38.813 110.246 38.813 109.754C38.813 109.266 38.739 108.826 38.591 108.434C38.443 108.042 38.217 107.732 37.913 107.504C37.613 107.276 37.231 107.162 36.767 107.162C36.315 107.162 35.939 107.272 35.639 107.492C35.343 107.712 35.121 108.018 34.973 108.41C34.825 108.798 34.751 109.246 34.751 109.754C34.751 110.254 34.825 110.702 34.973 111.098C35.121 111.49 35.345 111.798 35.645 112.022C35.945 112.246 36.325 112.358 36.785 112.358ZM46.9969 113C46.6329 113.076 46.2729 113.106 45.9169 113.09C45.5649 113.074 45.2489 112.998 44.9689 112.862C44.6929 112.726 44.4829 112.514 44.3389 112.226C44.2229 111.986 44.1589 111.744 44.1469 111.5C44.1389 111.252 44.1349 110.97 44.1349 110.654V104.72H45.0109V110.618C45.0109 110.89 45.0129 111.118 45.0169 111.302C45.0249 111.482 45.0669 111.642 45.1429 111.782C45.2869 112.05 45.5149 112.21 45.8269 112.262C46.1429 112.314 46.5329 112.302 46.9969 112.226V113ZM42.7489 107.276V106.52H46.9969V107.276H42.7489ZM50.7452 113.18C50.1012 113.18 49.5512 113.034 49.0952 112.742C48.6392 112.45 48.2892 112.046 48.0452 111.53C47.8012 111.014 47.6792 110.422 47.6792 109.754C47.6792 109.074 47.8032 108.478 48.0512 107.966C48.2992 107.454 48.6512 107.056 49.1072 106.772C49.5672 106.484 50.1132 106.34 50.7452 106.34C51.3932 106.34 51.9452 106.486 52.4012 106.778C52.8612 107.066 53.2112 107.468 53.4512 107.984C53.6952 108.496 53.8172 109.086 53.8172 109.754C53.8172 110.434 53.6952 111.032 53.4512 111.548C53.2072 112.06 52.8552 112.46 52.3952 112.748C51.9352 113.036 51.3852 113.18 50.7452 113.18ZM50.7452 112.334C51.4652 112.334 52.0012 112.096 52.3532 111.62C52.7052 111.14 52.8812 110.518 52.8812 109.754C52.8812 108.97 52.7032 108.346 52.3472 107.882C51.9952 107.418 51.4612 107.186 50.7452 107.186C50.2612 107.186 49.8612 107.296 49.5452 107.516C49.2332 107.732 48.9992 108.034 48.8432 108.422C48.6912 108.806 48.6152 109.25 48.6152 109.754C48.6152 110.534 48.7952 111.16 49.1552 111.632C49.5152 112.1 50.0452 112.334 50.7452 112.334ZM60.0931 113.18C59.6451 113.18 59.2311 113.088 58.8511 112.904C58.4711 112.72 58.1471 112.466 57.8791 112.142C57.6111 111.818 57.4191 111.446 57.3031 111.026L58.1491 110.798C58.2251 111.11 58.3631 111.38 58.5631 111.608C58.7631 111.832 58.9971 112.006 59.2651 112.13C59.5371 112.254 59.8211 112.316 60.1171 112.316C60.5011 112.316 60.8451 112.224 61.1491 112.04C61.4571 111.852 61.7011 111.604 61.8811 111.296C62.0611 110.988 62.1511 110.65 62.1511 110.282C62.1511 109.902 62.0571 109.56 61.8691 109.256C61.6811 108.948 61.4331 108.704 61.1251 108.524C60.8171 108.344 60.4811 108.254 60.1171 108.254C59.7091 108.254 59.3571 108.344 59.0611 108.524C58.7651 108.7 58.5291 108.922 58.3531 109.19L57.5491 108.854L57.8131 104.36H62.4271V105.206H58.2031L58.6411 104.792L58.4071 108.626L58.1851 108.332C58.4331 108.048 58.7331 107.826 59.0851 107.666C59.4371 107.506 59.8071 107.426 60.1951 107.426C60.7271 107.426 61.2071 107.554 61.6351 107.81C62.0631 108.062 62.4031 108.404 62.6551 108.836C62.9071 109.268 63.0331 109.75 63.0331 110.282C63.0331 110.81 62.8991 111.294 62.6311 111.734C62.3631 112.17 62.0071 112.52 61.5631 112.784C61.1191 113.048 60.6291 113.18 60.0931 113.18ZM66.9913 113V104.18H67.8733V113H66.9913ZM72.414 113.18C71.782 113.18 71.234 113.04 70.77 112.76C70.31 112.48 69.952 112.086 69.696 111.578C69.44 111.07 69.312 110.474 69.312 109.79C69.312 109.082 69.438 108.47 69.69 107.954C69.942 107.438 70.296 107.04 70.752 106.76C71.212 106.48 71.754 106.34 72.378 106.34C73.018 106.34 73.564 106.488 74.016 106.784C74.468 107.076 74.81 107.496 75.042 108.044C75.274 108.592 75.38 109.246 75.36 110.006H74.46V109.694C74.444 108.854 74.262 108.22 73.914 107.792C73.57 107.364 73.066 107.15 72.402 107.15C71.706 107.15 71.172 107.376 70.8 107.828C70.432 108.28 70.248 108.924 70.248 109.76C70.248 110.576 70.432 111.21 70.8 111.662C71.172 112.11 71.698 112.334 72.378 112.334C72.842 112.334 73.246 112.228 73.59 112.016C73.938 111.8 74.212 111.49 74.412 111.086L75.234 111.404C74.978 111.968 74.6 112.406 74.1 112.718C73.604 113.026 73.042 113.18 72.414 113.18ZM69.936 110.006V109.268H74.886V110.006H69.936ZM78.2092 113L75.8572 106.52H76.7512L78.6652 111.848L80.5672 106.52H81.4732L79.1212 113H78.2092ZM85.0586 113.18C84.4266 113.18 83.8786 113.04 83.4146 112.76C82.9546 112.48 82.5966 112.086 82.3406 111.578C82.0846 111.07 81.9566 110.474 81.9566 109.79C81.9566 109.082 82.0826 108.47 82.3346 107.954C82.5866 107.438 82.9406 107.04 83.3966 106.76C83.8566 106.48 84.3986 106.34 85.0226 106.34C85.6626 106.34 86.2086 106.488 86.6606 106.784C87.1126 107.076 87.4546 107.496 87.6866 108.044C87.9186 108.592 88.0246 109.246 88.0046 110.006H87.1046V109.694C87.0886 108.854 86.9066 108.22 86.5586 107.792C86.2146 107.364 85.7106 107.15 85.0466 107.15C84.3506 107.15 83.8166 107.376 83.4446 107.828C83.0766 108.28 82.8926 108.924 82.8926 109.76C82.8926 110.576 83.0766 111.21 83.4446 111.662C83.8166 112.11 84.3426 112.334 85.0226 112.334C85.4866 112.334 85.8906 112.228 86.2346 112.016C86.5826 111.8 86.8566 111.49 87.0566 111.086L87.8786 111.404C87.6226 111.968 87.2446 112.406 86.7446 112.718C86.2486 113.026 85.6866 113.18 85.0586 113.18ZM82.5806 110.006V109.268H87.5306V110.006H82.5806ZM89.4561 113V104.18H90.3381V113H89.4561ZM94.5549 113.174C93.7949 113.174 93.1689 113.01 92.6769 112.682C92.1889 112.354 91.8889 111.898 91.7769 111.314L92.6769 111.164C92.7729 111.532 92.9909 111.826 93.3309 112.046C93.6749 112.262 94.0989 112.37 94.6029 112.37C95.0949 112.37 95.4829 112.268 95.7669 112.064C96.0509 111.856 96.1929 111.574 96.1929 111.218C96.1929 111.018 96.1469 110.856 96.0549 110.732C95.9669 110.604 95.7849 110.486 95.5089 110.378C95.2329 110.27 94.8209 110.142 94.2729 109.994C93.6849 109.834 93.2249 109.674 92.8929 109.514C92.5609 109.354 92.3249 109.17 92.1849 108.962C92.0449 108.75 91.9749 108.492 91.9749 108.188C91.9749 107.82 92.0789 107.498 92.2869 107.222C92.4949 106.942 92.7829 106.726 93.1509 106.574C93.5189 106.418 93.9469 106.34 94.4349 106.34C94.9229 106.34 95.3589 106.42 95.7429 106.58C96.1309 106.736 96.4429 106.956 96.6789 107.24C96.9149 107.524 97.0549 107.854 97.0989 108.23L96.1989 108.392C96.1389 108.012 95.9489 107.712 95.6289 107.492C95.3129 107.268 94.9109 107.152 94.4229 107.144C93.9629 107.132 93.5889 107.22 93.3009 107.408C93.0129 107.592 92.8689 107.838 92.8689 108.146C92.8689 108.318 92.9209 108.466 93.0249 108.59C93.1289 108.71 93.3169 108.824 93.5889 108.932C93.8649 109.04 94.2569 109.158 94.7649 109.286C95.3609 109.438 95.8289 109.598 96.1689 109.766C96.5089 109.934 96.7509 110.132 96.8949 110.36C97.0389 110.588 97.1109 110.87 97.1109 111.206C97.1109 111.818 96.8829 112.3 96.4269 112.652C95.9749 113 95.3509 113.174 94.5549 113.174ZM103.358 113.18C102.754 113.18 102.238 113.03 101.81 112.73C101.382 112.426 101.054 112.016 100.826 111.5C100.598 110.984 100.484 110.402 100.484 109.754C100.484 109.11 100.596 108.53 100.82 108.014C101.048 107.498 101.374 107.09 101.798 106.79C102.222 106.49 102.73 106.34 103.322 106.34C103.93 106.34 104.442 106.488 104.858 106.784C105.274 107.08 105.588 107.486 105.8 108.002C106.016 108.514 106.124 109.098 106.124 109.754C106.124 110.398 106.018 110.98 105.806 111.5C105.594 112.016 105.282 112.426 104.87 112.73C104.458 113.03 103.954 113.18 103.358 113.18ZM103.448 112.358C103.908 112.358 104.288 112.246 104.588 112.022C104.888 111.798 105.112 111.49 105.26 111.098C105.408 110.702 105.482 110.254 105.482 109.754C105.482 109.246 105.408 108.798 105.26 108.41C105.112 108.018 104.888 107.712 104.588 107.492C104.292 107.272 103.918 107.162 103.466 107.162C103.002 107.162 102.618 107.276 102.314 107.504C102.01 107.732 101.784 108.042 101.636 108.434C101.492 108.826 101.42 109.266 101.42 109.754C101.42 110.246 101.494 110.69 101.642 111.086C101.794 111.478 102.02 111.788 102.32 112.016C102.62 112.244 102.996 112.358 103.448 112.358ZM105.482 113V108.122H105.386V104.36H106.274V113H105.482ZM110.699 113.18C110.067 113.18 109.519 113.04 109.055 112.76C108.595 112.48 108.237 112.086 107.981 111.578C107.725 111.07 107.597 110.474 107.597 109.79C107.597 109.082 107.723 108.47 107.975 107.954C108.227 107.438 108.581 107.04 109.037 106.76C109.497 106.48 110.039 106.34 110.663 106.34C111.303 106.34 111.849 106.488 112.301 106.784C112.753 107.076 113.095 107.496 113.327 108.044C113.559 108.592 113.665 109.246 113.645 110.006H112.745V109.694C112.729 108.854 112.547 108.22 112.199 107.792C111.855 107.364 111.351 107.15 110.687 107.15C109.991 107.15 109.457 107.376 109.085 107.828C108.717 108.28 108.533 108.924 108.533 109.76C108.533 110.576 108.717 111.21 109.085 111.662C109.457 112.11 109.983 112.334 110.663 112.334C111.127 112.334 111.531 112.228 111.875 112.016C112.223 111.8 112.497 111.49 112.697 111.086L113.519 111.404C113.263 111.968 112.885 112.406 112.385 112.718C111.889 113.026 111.327 113.18 110.699 113.18ZM108.221 110.006V109.268H113.171V110.006H108.221ZM117.719 113.18C117.087 113.18 116.539 113.04 116.075 112.76C115.615 112.48 115.257 112.086 115.001 111.578C114.745 111.07 114.617 110.474 114.617 109.79C114.617 109.082 114.743 108.47 114.995 107.954C115.247 107.438 115.601 107.04 116.057 106.76C116.517 106.48 117.059 106.34 117.683 106.34C118.323 106.34 118.869 106.488 119.321 106.784C119.773 107.076 120.115 107.496 120.347 108.044C120.579 108.592 120.685 109.246 120.665 110.006H119.765V109.694C119.749 108.854 119.567 108.22 119.219 107.792C118.875 107.364 118.371 107.15 117.707 107.15C117.011 107.15 116.477 107.376 116.105 107.828C115.737 108.28 115.553 108.924 115.553 109.76C115.553 110.576 115.737 111.21 116.105 111.662C116.477 112.11 117.003 112.334 117.683 112.334C118.147 112.334 118.551 112.228 118.895 112.016C119.243 111.8 119.517 111.49 119.717 111.086L120.539 111.404C120.283 111.968 119.905 112.406 119.405 112.718C118.909 113.026 118.347 113.18 117.719 113.18ZM115.241 110.006V109.268H120.191V110.006H115.241ZM124.73 113.18C124.134 113.18 123.63 113.03 123.218 112.73C122.806 112.426 122.494 112.016 122.282 111.5C122.07 110.98 121.964 110.398 121.964 109.754C121.964 109.098 122.07 108.514 122.282 108.002C122.498 107.486 122.814 107.08 123.23 106.784C123.646 106.488 124.158 106.34 124.766 106.34C125.358 106.34 125.866 106.49 126.29 106.79C126.714 107.09 127.038 107.498 127.262 108.014C127.49 108.53 127.604 109.11 127.604 109.754C127.604 110.402 127.49 110.984 127.262 111.5C127.034 112.016 126.706 112.426 126.278 112.73C125.85 113.03 125.334 113.18 124.73 113.18ZM121.814 115.88V106.52H122.606V111.398H122.702V115.88H121.814ZM124.64 112.358C125.092 112.358 125.468 112.244 125.768 112.016C126.068 111.788 126.292 111.478 126.44 111.086C126.592 110.69 126.668 110.246 126.668 109.754C126.668 109.266 126.594 108.826 126.446 108.434C126.298 108.042 126.072 107.732 125.768 107.504C125.468 107.276 125.086 107.162 124.622 107.162C124.17 107.162 123.794 107.272 123.494 107.492C123.198 107.712 122.976 108.018 122.828 108.41C122.68 108.798 122.606 109.246 122.606 109.754C122.606 110.254 122.68 110.702 122.828 111.098C122.976 111.49 123.2 111.798 123.5 112.022C123.8 112.246 124.18 112.358 124.64 112.358ZM128.856 113V111.974H129.882V113H128.856Z" fill="#667185"/>
<path d="M71.115 35L68.189 24.92H69.722L71.843 32.543L73.964 24.927L75.504 24.92L77.625 32.543L79.746 24.92H81.286L78.353 35H76.897L74.734 27.461L72.571 35H71.115ZM84.9795 35.21C84.2282 35.21 83.5678 35.0467 82.9985 34.72C82.4338 34.3887 81.9928 33.929 81.6755 33.341C81.3628 32.7483 81.2065 32.0623 81.2065 31.283C81.2065 30.457 81.3605 29.7407 81.6685 29.134C81.9812 28.5273 82.4152 28.0583 82.9705 27.727C83.5258 27.3957 84.1722 27.23 84.9095 27.23C85.6795 27.23 86.3352 27.4097 86.8765 27.769C87.4178 28.1237 87.8215 28.63 88.0875 29.288C88.3582 29.946 88.4655 30.7277 88.4095 31.633H86.9465V31.101C86.9372 30.2237 86.7692 29.575 86.4425 29.155C86.1205 28.735 85.6282 28.525 84.9655 28.525C84.2328 28.525 83.6822 28.756 83.3135 29.218C82.9448 29.68 82.7605 30.3473 82.7605 31.22C82.7605 32.0507 82.9448 32.6947 83.3135 33.152C83.6822 33.6047 84.2142 33.831 84.9095 33.831C85.3668 33.831 85.7612 33.7283 86.0925 33.523C86.4285 33.313 86.6898 33.0143 86.8765 32.627L88.3115 33.082C88.0175 33.7587 87.5718 34.2837 86.9745 34.657C86.3772 35.0257 85.7122 35.21 84.9795 35.21ZM82.2845 31.633V30.492H87.6815V31.633H82.2845ZM93.529 35.21C92.8057 35.21 92.199 35.035 91.709 34.685C91.219 34.3303 90.848 33.852 90.596 33.25C90.344 32.648 90.218 31.969 90.218 31.213C90.218 30.457 90.3417 29.778 90.589 29.176C90.841 28.574 91.2097 28.1003 91.695 27.755C92.185 27.405 92.787 27.23 93.501 27.23C94.2103 27.23 94.8217 27.405 95.335 27.755C95.853 28.1003 96.252 28.574 96.532 29.176C96.812 29.7733 96.952 30.4523 96.952 31.213C96.952 31.969 96.812 32.6503 96.532 33.257C96.2567 33.859 95.8623 34.335 95.349 34.685C94.8403 35.035 94.2337 35.21 93.529 35.21ZM89.973 35V24.92H91.443V29.561H91.275V35H89.973ZM93.326 33.887C93.7927 33.887 94.1777 33.768 94.481 33.53C94.789 33.292 95.0177 32.9723 95.167 32.571C95.321 32.165 95.398 31.7123 95.398 31.213C95.398 30.7183 95.321 30.2703 95.167 29.869C95.0177 29.4677 94.7867 29.148 94.474 28.91C94.1613 28.672 93.7623 28.553 93.277 28.553C92.8197 28.553 92.4417 28.665 92.143 28.889C91.849 29.113 91.6297 29.4257 91.485 29.827C91.345 30.2283 91.275 30.6903 91.275 31.213C91.275 31.7357 91.345 32.1977 91.485 32.599C91.625 33.0003 91.8467 33.3153 92.15 33.544C92.4533 33.7727 92.8453 33.887 93.326 33.887ZM104.534 35.21C103.76 35.21 103.102 35.0373 102.56 34.692C102.019 34.3467 101.604 33.873 101.314 33.271C101.03 32.669 100.885 31.9853 100.88 31.22C100.885 30.4407 101.034 29.7523 101.328 29.155C101.622 28.553 102.042 28.0817 102.588 27.741C103.134 27.4003 103.79 27.23 104.555 27.23C105.381 27.23 106.086 27.4353 106.669 27.846C107.257 28.2567 107.645 28.819 107.831 29.533L106.375 29.953C106.231 29.5283 105.993 29.1993 105.661 28.966C105.335 28.728 104.959 28.609 104.534 28.609C104.054 28.609 103.659 28.7233 103.351 28.952C103.043 29.176 102.815 29.484 102.665 29.876C102.516 30.268 102.439 30.716 102.434 31.22C102.439 31.9993 102.616 32.6293 102.966 33.11C103.321 33.5907 103.844 33.831 104.534 33.831C105.006 33.831 105.386 33.7237 105.675 33.509C105.969 33.2897 106.193 32.977 106.347 32.571L107.831 32.921C107.584 33.6583 107.176 34.2253 106.606 34.622C106.037 35.014 105.346 35.21 104.534 35.21ZM109.257 35V27.44H110.559V29.274L110.377 29.036C110.471 28.7933 110.592 28.5717 110.741 28.371C110.891 28.1657 111.063 27.9977 111.259 27.867C111.451 27.727 111.663 27.6197 111.896 27.545C112.134 27.4657 112.377 27.419 112.624 27.405C112.872 27.3863 113.11 27.398 113.338 27.44V28.812C113.091 28.7467 112.816 28.728 112.512 28.756C112.214 28.784 111.938 28.8797 111.686 29.043C111.448 29.197 111.259 29.3837 111.119 29.603C110.984 29.8223 110.886 30.0673 110.825 30.338C110.765 30.604 110.734 30.8863 110.734 31.185V35H109.257ZM116.588 35.21C116.028 35.21 115.559 35.1073 115.181 34.902C114.803 34.692 114.516 34.4167 114.32 34.076C114.128 33.7307 114.033 33.3527 114.033 32.942C114.033 32.5593 114.1 32.2233 114.236 31.934C114.371 31.6447 114.572 31.3997 114.838 31.199C115.104 30.9937 115.43 30.828 115.818 30.702C116.154 30.604 116.534 30.5177 116.959 30.443C117.383 30.3683 117.829 30.2983 118.296 30.233C118.767 30.1677 119.234 30.1023 119.696 30.037L119.164 30.331C119.173 29.7383 119.047 29.2997 118.786 29.015C118.529 28.7257 118.086 28.581 117.456 28.581C117.059 28.581 116.695 28.6743 116.364 28.861C116.032 29.043 115.801 29.3463 115.671 29.771L114.306 29.351C114.492 28.7023 114.847 28.1867 115.37 27.804C115.897 27.4213 116.597 27.23 117.47 27.23C118.146 27.23 118.734 27.3467 119.234 27.58C119.738 27.8087 120.106 28.1727 120.34 28.672C120.461 28.9193 120.536 29.1807 120.564 29.456C120.592 29.7313 120.606 30.0277 120.606 30.345V35H119.311V33.271L119.563 33.495C119.25 34.0737 118.851 34.5053 118.366 34.79C117.885 35.07 117.292 35.21 116.588 35.21ZM116.847 34.013C117.262 34.013 117.619 33.9407 117.918 33.796C118.216 33.6467 118.457 33.4577 118.639 33.229C118.821 33.0003 118.94 32.7623 118.996 32.515C119.075 32.291 119.119 32.039 119.129 31.759C119.143 31.479 119.15 31.255 119.15 31.087L119.626 31.262C119.164 31.332 118.744 31.395 118.366 31.451C117.988 31.507 117.645 31.563 117.337 31.619C117.033 31.6703 116.763 31.7333 116.525 31.808C116.324 31.878 116.144 31.962 115.986 32.06C115.832 32.158 115.708 32.277 115.615 32.417C115.526 32.557 115.482 32.7273 115.482 32.928C115.482 33.124 115.531 33.306 115.629 33.474C115.727 33.6373 115.876 33.768 116.077 33.866C116.277 33.964 116.534 34.013 116.847 34.013ZM123.76 35L121.45 27.433L122.899 27.44L124.481 32.627L126.077 27.44H127.337L128.933 32.627L130.515 27.44H131.957L129.647 35H128.471L126.707 29.526L124.936 35H123.76ZM133.35 35V24.71H134.813V35H133.35ZM140.269 35.21C139.517 35.21 138.857 35.0467 138.288 34.72C137.723 34.3887 137.282 33.929 136.965 33.341C136.652 32.7483 136.496 32.0623 136.496 31.283C136.496 30.457 136.65 29.7407 136.958 29.134C137.27 28.5273 137.704 28.0583 138.26 27.727C138.815 27.3957 139.461 27.23 140.199 27.23C140.969 27.23 141.624 27.4097 142.166 27.769C142.707 28.1237 143.111 28.63 143.377 29.288C143.647 29.946 143.755 30.7277 143.699 31.633H142.236V31.101C142.226 30.2237 142.058 29.575 141.732 29.155C141.41 28.735 140.917 28.525 140.255 28.525C139.522 28.525 138.971 28.756 138.603 29.218C138.234 29.68 138.05 30.3473 138.05 31.22C138.05 32.0507 138.234 32.6947 138.603 33.152C138.971 33.6047 139.503 33.831 140.199 33.831C140.656 33.831 141.05 33.7283 141.382 33.523C141.718 33.313 141.979 33.0143 142.166 32.627L143.601 33.082C143.307 33.7587 142.861 34.2837 142.264 34.657C141.666 35.0257 141.001 35.21 140.269 35.21ZM137.574 31.633V30.492H142.971V31.633H137.574ZM145.269 35V27.44H146.571V29.274L146.389 29.036C146.482 28.7933 146.604 28.5717 146.753 28.371C146.902 28.1657 147.075 27.9977 147.271 27.867C147.462 27.727 147.675 27.6197 147.908 27.545C148.146 27.4657 148.389 27.419 148.636 27.405C148.883 27.3863 149.121 27.398 149.35 27.44V28.812C149.103 28.7467 148.827 28.728 148.524 28.756C148.225 28.784 147.95 28.8797 147.698 29.043C147.46 29.197 147.271 29.3837 147.131 29.603C146.996 29.8223 146.898 30.0673 146.837 30.338C146.776 30.604 146.746 30.8863 146.746 31.185V35H145.269Z" fill="#475367"/>
<rect x="24" y="14" width="32" height="32" rx="4" fill="#E5F6FF"/>
<mask id="mask0_1748_2003" style="mask-type:alpha" maskUnits="userSpaceOnUse" x="28" y="18" width="24" height="24">
<rect x="28" y="18" width="24" height="24" fill="#D9D9D9"/>
</mask>
<g mask="url(#mask0_1748_2003)">
<path d="M40.008 39.6011C38.6867 39.6011 37.4427 39.3511 36.276 38.8511C35.1094 38.3511 34.0885 37.6636 33.2135 36.7886C32.3385 35.9136 31.651 34.8931 31.151 33.7271C30.651 32.5611 30.401 31.3153 30.401 29.9896C30.401 28.664 30.651 27.422 31.151 26.2636C31.651 25.1053 32.3385 24.0886 33.2135 23.2136C34.0885 22.3386 35.109 21.6511 36.275 21.1511C37.441 20.6511 38.6869 20.4011 40.0125 20.4011C41.3382 20.4011 42.5802 20.6511 43.7385 21.1511C44.8969 21.6511 45.9135 22.3386 46.7885 23.2136C47.6635 24.0886 48.351 25.1071 48.851 26.2691C49.351 27.4313 49.601 28.673 49.601 29.9941C49.601 31.3155 49.351 32.5595 48.851 33.7261C48.351 34.8928 47.6635 35.9136 46.7885 36.7886C45.9135 37.6636 44.895 38.3511 43.733 38.8511C42.5709 39.3511 41.3292 39.6011 40.008 39.6011ZM38.801 37.7011V36.0011C38.4677 36.0011 38.1844 35.8836 37.951 35.6486C37.7177 35.4136 37.601 35.1311 37.601 34.8011V33.6011L32.376 28.3761C32.3094 28.6928 32.2635 28.9845 32.2385 29.2511C32.2135 29.5178 32.201 29.7678 32.201 30.0011C32.201 31.9178 32.8219 33.6095 34.0635 35.0761C35.3052 36.5428 36.8844 37.4178 38.801 37.7011ZM46.001 34.9761C46.301 34.6261 46.5635 34.2595 46.7885 33.8761C47.0135 33.4928 47.1999 33.0882 47.3475 32.6624C47.4952 32.2364 47.6077 31.7989 47.685 31.3499C47.7624 30.9007 47.801 30.4511 47.801 30.0011C47.801 28.4243 47.3677 26.9843 46.501 25.6811C45.6344 24.3778 44.4677 23.4178 43.001 22.8011V23.4011C43.001 23.8961 42.8248 24.3199 42.4723 24.6724C42.1198 25.0249 41.696 25.2011 41.201 25.2011H38.801V26.4011C38.801 26.7411 38.686 27.0261 38.456 27.2561C38.226 27.4861 37.941 27.6011 37.601 27.6011H36.401V30.0011H42.401C42.741 30.0011 43.026 30.1161 43.256 30.3461C43.486 30.5761 43.601 30.8611 43.601 31.2011V33.6011H44.626C45.0094 33.6011 45.3344 33.7345 45.601 34.0011C45.8677 34.2678 46.001 34.5928 46.001 34.9761Z" fill="#4BBFFF"/>
</g>
<defs>
<filter id="filter0_dd_1748_2003" x="0" y="0" width="228" height="152" filterUnits="userSpaceOnUse" color-interpolation-filters="sRGB">
<feFlood flood-opacity="0" result="BackgroundImageFix"/>
<feColorMatrix in="SourceAlpha" type="matrix" values="0 0 0 0 0 0 0 0 0 0 0 0 0 0 0 0 0 0 127 0" result="hardAlpha"/>
<feMorphology radius="2" operator="erode" in="SourceAlpha" result="effect1_dropShadow_1748_2003"/>
<feOffset dy="4"/>
<feGaussianBlur stdDeviation="3"/>
<feColorMatrix type="matrix" values="0 0 0 0 0.341176 0 0 0 0 0.333333 0 0 0 0 1 0 0 0 0.05 0"/>
<feBlend mode="normal" in2="BackgroundImageFix" result="effect1_dropShadow_1748_2003"/>
<feColorMatrix in="SourceAlpha" type="matrix" values="0 0 0 0 0 0 0 0 0 0 0 0 0 0 0 0 0 0 127 0" result="hardAlpha"/>
<feMorphology radius="3" operator="erode" in="SourceAlpha" result="effect2_dropShadow_1748_2003"/>
<feOffset dy="10"/>
<feGaussianBlur stdDeviation="7.5"/>
<feColorMatrix type="matrix" values="0 0 0 0 0.341176 0 0 0 0 0.333333 0 0 0 0 1 0 0 0 0.1 0"/>
<feBlend mode="normal" in2="effect1_dropShadow_1748_2003" result="effect2_dropShadow_1748_2003"/>
<feBlend mode="normal" in="SourceGraphic" in2="effect2_dropShadow_1748_2003" result="shape"/>
</filter>
</defs>
</svg>
