<svg xmlns="http://www.w3.org/2000/svg" width="228" height="152" fill="none" xmlns:v="https://vecta.io/nano"><g filter="url(#B)"><rect x="12" y="2" width="204" height="128" rx="6" fill="#fff"/></g><path d="M28.694 73l-2.496-8.64h.918l2.022 7.134 2.01-7.128.924-.006 2.022 7.134 2.01-7.134h.924L34.538 73h-.888l-2.04-7.086L29.582 73h-.888zm11.4.18c-.632 0-1.18-.14-1.644-.42a2.85 2.85 0 0 1-1.074-1.182c-.256-.508-.384-1.104-.384-1.788 0-.708.126-1.32.378-1.836s.606-.914 1.062-1.194 1.002-.42 1.626-.42c.64 0 1.186.148 1.638.444s.794.712 1.026 1.26.338 1.202.318 1.962h-.9v-.312c-.016-.84-.198-1.474-.546-1.902s-.848-.642-1.512-.642c-.696 0-1.23.226-1.602.678s-.552 1.096-.552 1.932c0 .816.184 1.45.552 1.902s.898.672 1.578.672c.464 0 .868-.106 1.212-.318s.622-.526.822-.93l.822.318c-.256.564-.634 1.002-1.134 1.314a3.13 3.13 0 0 1-1.686.462zm-2.478-3.174v-.738h4.95v.738h-4.95zm6.636-3.486v-2.16h.882v2.16h-.882zm3.17 6.48v-8.82h.882V73h-.882zm2.801 0v-8.82h.882V73h-.882zm7.501.174c-.76 0-1.386-.164-1.878-.492a2.05 2.05 0 0 1-.9-1.368l.9-.15c.096.368.314.662.654.882s.768.324 1.272.324c.492 0 .88-.102 1.164-.306s.426-.49.426-.846c0-.2-.046-.362-.138-.486s-.27-.246-.546-.354-.688-.236-1.236-.384c-.588-.16-1.048-.32-1.38-.48s-.568-.344-.708-.552-.21-.47-.21-.774a1.56 1.56 0 0 1 .312-.966c.208-.28.496-.496.864-.648s.796-.234 1.284-.234.924.08 1.308.24.7.376.936.66a1.85 1.85 0 0 1 .42.99l-.9.162c-.06-.38-.25-.68-.57-.9s-.718-.34-1.206-.348c-.46-.012-.834.076-1.122.264s-.432.43-.432.738a.67.67 0 0 0 .156.444c.104.12.292.234.564.342a10.34 10.34 0 0 0 1.176.354c.596.152 1.064.312 1.404.48s.582.366.726.594.216.51.216.846c0 .612-.228 1.094-.684 1.446s-1.076.522-1.872.522zm6.575.006c-.652 0-1.204-.146-1.656-.438a2.79 2.79 0 0 1-1.032-1.206c-.232-.516-.352-1.108-.36-1.776.008-.68.132-1.276.372-1.788s.586-.916 1.038-1.2 1-.432 1.644-.432c.656 0 1.226.16 1.71.48a2.42 2.42 0 0 1 1.002 1.314l-.864.276c-.152-.388-.394-.688-.726-.9s-.704-.324-1.128-.324c-.476 0-.87.11-1.182.33a1.92 1.92 0 0 0-.696.906c-.152.388-.23.834-.234 1.338.008.776.188 1.4.54 1.872s.876.702 1.572.702c.44 0 .814-.1 1.122-.3s.548-.5.708-.888l.888.264c-.24.576-.592 1.016-1.056 1.32s-1.018.45-1.662.45zm5.775 0c-.488 0-.898-.088-1.23-.264a1.79 1.79 0 0 1-.738-.702c-.164-.292-.246-.61-.246-.954 0-.352.07-.652.21-.9s.338-.458.582-.618.534-.282.858-.366l1.086-.21 1.17-.162 1.008-.138-.312.192c.012-.64-.112-1.114-.372-1.422s-.712-.462-1.356-.462c-.444 0-.82.1-1.128.3s-.518.516-.642.948l-.858-.252c.148-.58.446-1.03.894-1.35s1.03-.48 1.746-.48c.592 0 1.094.112 1.506.336s.71.54.882.96c.08.188.132.398.156.63s.036.468.036.708V73h-.786v-1.626l.228.096c-.22.556-.562.98-1.026 1.272s-1.02.438-1.668.438zm.102-.762c.412 0 .772-.074 1.08-.222s.556-.35.744-.606a2.08 2.08 0 0 0 .366-.876 3.28 3.28 0 0 0 .078-.684l.006-.564.336.174-.978.12-1.032.138-.912.186c-.184.052-.362.126-.534.222s-.314.216-.426.372-.162.35-.162.582c0 .188.046.37.138.546s.248.322.456.438.492.174.84.174zm9.392.582v-3.306a4.48 4.48 0 0 0-.102-.99c-.068-.304-.178-.568-.33-.792a1.51 1.51 0 0 0-.582-.528c-.236-.124-.524-.186-.864-.186-.312 0-.588.054-.828.162a1.63 1.63 0 0 0-.6.468c-.16.2-.282.444-.366.732s-.126.616-.126.984l-.624-.138c0-.664.116-1.222.348-1.674s.552-.794.96-1.026a2.79 2.79 0 0 1 1.404-.348c.388 0 .726.06 1.014.18s.538.282.738.486a2.47 2.47 0 0 1 .492.702c.124.26.214.538.27.834a4.64 4.64 0 0 1 .084.876V73h-.888zm-4.686 0v-6.48h.798v1.596h.09V73h-.888zm13.061 0a4.32 4.32 0 0 1-1.08.09c-.352-.016-.668-.092-.948-.228s-.486-.348-.63-.636a1.87 1.87 0 0 1-.192-.726l-.012-.846V64.72h.876v5.898l.006.684c.008.18.05.34.126.48.144.268.372.428.684.48s.706.04 1.17-.036V73zm-4.248-5.724v-.756h4.248v.756h-4.248zM93.899 73v-3.306a4.48 4.48 0 0 0-.102-.99c-.068-.304-.178-.568-.33-.792a1.51 1.51 0 0 0-.582-.528c-.236-.124-.524-.186-.864-.186-.312 0-.588.054-.828.162a1.63 1.63 0 0 0-.6.468c-.16.2-.282.444-.366.732s-.126.616-.126.984l-.624-.138c0-.664.116-1.222.348-1.674s.552-.794.96-1.026a2.79 2.79 0 0 1 1.404-.348c.388 0 .726.06 1.014.18s.538.282.738.486a2.47 2.47 0 0 1 .492.702c.124.26.214.538.27.834a4.64 4.64 0 0 1 .084.876V73h-.888zm-4.686 0v-8.64h.798v4.878h.09V73h-.888zm9.873.18c-.632 0-1.18-.14-1.644-.42a2.85 2.85 0 0 1-1.074-1.182c-.256-.508-.384-1.104-.384-1.788 0-.708.126-1.32.378-1.836s.606-.914 1.062-1.194 1.002-.42 1.626-.42c.64 0 1.186.148 1.638.444s.794.712 1.026 1.26.338 1.202.318 1.962h-.9v-.312c-.016-.84-.198-1.474-.546-1.902s-.848-.642-1.512-.642c-.696 0-1.23.226-1.602.678s-.552 1.096-.552 1.932c0 .816.184 1.45.552 1.902s.898.672 1.578.672c.464 0 .868-.106 1.212-.318s.622-.526.822-.93l.822.318c-.256.564-.634 1.002-1.134 1.314a3.13 3.13 0 0 1-1.686.462zm-2.478-3.174v-.738h4.95v.738h-4.95zM107.146 73l-1.98-6.486.882.006 1.536 5.034 1.542-5.034h.804l1.542 5.034 1.548-5.034h.876l-1.98 6.48h-.768l-1.62-5.16-1.614 5.16h-.768zm10.338.18c-.632 0-1.18-.14-1.644-.42a2.85 2.85 0 0 1-1.074-1.182c-.256-.508-.384-1.104-.384-1.788 0-.708.126-1.32.378-1.836s.606-.914 1.062-1.194 1.002-.42 1.626-.42c.64 0 1.186.148 1.638.444s.794.712 1.026 1.26.338 1.202.318 1.962h-.9v-.312c-.016-.84-.198-1.474-.546-1.902s-.848-.642-1.512-.642c-.696 0-1.23.226-1.602.678s-.552 1.096-.552 1.932c0 .816.184 1.45.552 1.902s.898.672 1.578.672c.464 0 .868-.106 1.212-.318s.622-.526.822-.93l.822.318c-.256.564-.634 1.002-1.134 1.314a3.13 3.13 0 0 1-1.686.462zm-2.478-3.174v-.738h4.95v.738h-4.95zm9.666 3.174c-.596 0-1.1-.15-1.512-.45s-.724-.714-.936-1.23-.318-1.102-.318-1.746c0-.656.106-1.24.318-1.752s.532-.922.948-1.218.928-.444 1.536-.444c.592 0 1.1.15 1.524.45s.748.708.972 1.224.342 1.096.342 1.74-.114 1.23-.342 1.746-.556.926-.984 1.23-.944.45-1.548.45zm-2.916-.18v-8.64h.888v3.762h-.096V73h-.792zm2.826-.642c.452 0 .828-.114 1.128-.342a2.04 2.04 0 0 0 .672-.93c.152-.396.228-.84.228-1.332s-.074-.928-.222-1.32-.374-.702-.678-.93-.682-.342-1.146-.342c-.452 0-.828.11-1.128.33s-.518.526-.666.918-.222.836-.222 1.344c0 .5.074.948.222 1.344s.372.7.672.924.68.336 1.14.336zm6.641.816c-.76 0-1.386-.164-1.878-.492a2.05 2.05 0 0 1-.9-1.368l.9-.15c.096.368.314.662.654.882s.768.324 1.272.324c.492 0 .88-.102 1.164-.306s.426-.49.426-.846c0-.2-.046-.362-.138-.486s-.27-.246-.546-.354-.688-.236-1.236-.384c-.588-.16-1.048-.32-1.38-.48s-.568-.344-.708-.552-.21-.47-.21-.774a1.56 1.56 0 0 1 .312-.966c.208-.28.496-.496.864-.648s.796-.234 1.284-.234.924.08 1.308.24.7.376.936.66a1.85 1.85 0 0 1 .42.99l-.9.162c-.06-.38-.25-.68-.57-.9s-.718-.34-1.206-.348c-.46-.012-.834.076-1.122.264s-.432.43-.432.738a.67.67 0 0 0 .156.444c.104.12.292.234.564.342a10.34 10.34 0 0 0 1.176.354c.596.152 1.064.312 1.404.48s.582.366.726.594.216.51.216.846c0 .612-.228 1.094-.684 1.446s-1.076.522-1.872.522zm4.007-7.884v-.99h.882v.99h-.882zm0 7.71v-6.48h.882V73h-.882zm6.208 0a4.32 4.32 0 0 1-1.08.09c-.352-.016-.668-.092-.948-.228s-.486-.348-.63-.636a1.87 1.87 0 0 1-.192-.726l-.012-.846V64.72h.876v5.898l.006.684c.008.18.05.34.126.48.144.268.372.428.684.48s.706.04 1.17-.036V73zm-4.248-5.724v-.756h4.248v.756h-4.248zm8.033 5.904c-.632 0-1.18-.14-1.644-.42a2.85 2.85 0 0 1-1.074-1.182c-.256-.508-.384-1.104-.384-1.788 0-.708.126-1.32.378-1.836s.606-.914 1.062-1.194 1.002-.42 1.626-.42c.64 0 1.186.148 1.638.444s.794.712 1.026 1.26.338 1.202.318 1.962h-.9v-.312c-.016-.84-.198-1.474-.546-1.902s-.848-.642-1.512-.642c-.696 0-1.23.226-1.602.678s-.552 1.096-.552 1.932c0 .816.184 1.45.552 1.902s.898.672 1.578.672c.464 0 .868-.106 1.212-.318s.622-.526.822-.93l.822.318c-.256.564-.634 1.002-1.134 1.314a3.13 3.13 0 0 1-1.686.462zm-2.478-3.174v-.738h4.95v.738h-4.95zm11.012 3.174c-.488 0-.898-.088-1.23-.264a1.79 1.79 0 0 1-.738-.702c-.164-.292-.246-.61-.246-.954 0-.352.07-.652.21-.9s.338-.458.582-.618.534-.282.858-.366l1.086-.21 1.17-.162 1.008-.138-.312.192c.012-.64-.112-1.114-.372-1.422s-.712-.462-1.356-.462c-.444 0-.82.1-1.128.3s-.518.516-.643.948l-.857-.252c.148-.58.446-1.03.894-1.35s1.03-.48 1.746-.48c.592 0 1.094.112 1.506.336s.71.54.882.96c.08.188.132.398.156.63s.036.468.036.708V73h-.786v-1.626l.228.096c-.22.556-.562.98-1.026 1.272s-1.02.438-1.668.438zm.102-.762c.412 0 .772-.074 1.08-.222s.556-.35.744-.606a2.08 2.08 0 0 0 .366-.876 3.28 3.28 0 0 0 .078-.684l.006-.564.336.174-.978.12-1.032.138-.912.186c-.184.052-.362.126-.534.222s-.314.216-.426.372-.162.35-.162.582c0 .188.046.37.137.546.097.176.249.322.457.438s.492.174.84.174zm9.391.582v-3.306a4.48 4.48 0 0 0-.102-.99c-.068-.304-.178-.568-.33-.792a1.51 1.51 0 0 0-.582-.528c-.236-.124-.524-.186-.864-.186-.312 0-.588.054-.828.162a1.63 1.63 0 0 0-.6.468c-.16.2-.282.444-.366.732s-.126.616-.126.984l-.624-.138c0-.664.116-1.222.348-1.674s.552-.794.96-1.026a2.79 2.79 0 0 1 1.404-.348c.388 0 .726.06 1.014.18s.538.282.738.486a2.47 2.47 0 0 1 .492.702c.124.26.214.538.27.834a4.64 4.64 0 0 1 .084.876V73h-.888zm-4.686 0v-6.48h.798v1.596h.09V73h-.888zm9.61.18c-.604 0-1.12-.15-1.548-.45s-.756-.714-.984-1.23-.342-1.098-.342-1.746.112-1.224.336-1.74.554-.924.978-1.224.932-.45 1.524-.45c.608 0 1.12.148 1.536.444s.73.702.942 1.218.324 1.096.324 1.752c0 .644-.106 1.226-.318 1.746s-.524.926-.936 1.23-.916.45-1.512.45zm.09-.822c.46 0 .84-.112 1.14-.336s.524-.532.672-.924.222-.844.222-1.344c0-.508-.074-.956-.222-1.344s-.372-.698-.672-.918-.67-.33-1.122-.33c-.464 0-.848.114-1.152.342s-.53.538-.678.93-.216.832-.216 1.32.074.936.222 1.332a2.08 2.08 0 0 0 .678.93c.3.228.676.342 1.128.342zm2.034.642v-4.878h-.096V64.36h.888V73h-.792zM29.528 93.18c-.652 0-1.204-.146-1.656-.438a2.79 2.79 0 0 1-1.032-1.206c-.232-.516-.352-1.108-.36-1.776.008-.68.132-1.276.372-1.788s.586-.916 1.038-1.2 1-.432 1.644-.432c.656 0 1.226.16 1.71.48a2.42 2.42 0 0 1 1.002 1.314l-.864.276c-.152-.388-.394-.688-.726-.9s-.704-.324-1.128-.324c-.476 0-.87.11-1.182.33a1.92 1.92 0 0 0-.696.906c-.152.388-.23.834-.234 1.338.008.776.188 1.4.54 1.872s.876.702 1.572.702c.44 0 .814-.1 1.122-.3s.548-.5.708-.888l.888.264c-.24.576-.592 1.016-1.056 1.32s-1.018.45-1.662.45zm6.487 0c-.644 0-1.194-.146-1.65-.438a2.85 2.85 0 0 1-1.05-1.212c-.244-.516-.366-1.108-.366-1.776 0-.68.124-1.276.372-1.788s.6-.91 1.056-1.194 1.006-.432 1.638-.432c.648 0 1.2.146 1.656.438s.81.69 1.05 1.206.366 1.102.366 1.77c0 .68-.122 1.278-.366 1.794s-.596.912-1.056 1.2-1.01.432-1.65.432zm0-.846c.72 0 1.256-.238 1.608-.714s.528-1.102.528-1.866c0-.784-.178-1.408-.534-1.872s-.886-.696-1.602-.696c-.484 0-.884.11-1.2.33s-.546.518-.702.906-.228.828-.228 1.332c0 .78.18 1.406.54 1.878s.89.702 1.59.702zM40.53 93v-8.82h.882V93h-.882zm2.801 0v-8.82h.882V93h-.882zm5.423.18c-.632 0-1.18-.14-1.644-.42a2.85 2.85 0 0 1-1.074-1.182c-.256-.508-.384-1.104-.384-1.788 0-.708.126-1.32.378-1.836s.606-.914 1.062-1.194 1.002-.42 1.626-.42c.64 0 1.186.148 1.638.444s.794.712 1.026 1.26.338 1.202.318 1.962h-.9v-.312c-.016-.84-.198-1.474-.546-1.902s-.848-.642-1.512-.642c-.696 0-1.23.226-1.602.678s-.552 1.096-.552 1.932c0 .816.184 1.45.552 1.902s.898.672 1.578.672c.464 0 .868-.106 1.212-.318s.622-.526.822-.93l.822.318c-.256.564-.634 1.002-1.134 1.314a3.13 3.13 0 0 1-1.686.462zm-2.478-3.174v-.738h4.95v.738h-4.95zm9.444 3.174c-.652 0-1.204-.146-1.656-.438a2.79 2.79 0 0 1-1.032-1.206c-.232-.516-.352-1.108-.36-1.776.008-.68.132-1.276.372-1.788s.586-.916 1.038-1.2 1-.432 1.644-.432c.656 0 1.226.16 1.71.48a2.42 2.42 0 0 1 1.002 1.314l-.864.276c-.152-.388-.394-.688-.726-.9s-.704-.324-1.128-.324c-.476 0-.87.11-1.182.33a1.92 1.92 0 0 0-.696.906c-.152.388-.23.834-.234 1.338.008.776.188 1.4.54 1.872s.876.702 1.572.702c.44 0 .814-.1 1.122-.3s.548-.5.708-.888l.888.264c-.24.576-.592 1.016-1.056 1.32s-1.018.45-1.662.45zm7.484-.18a4.32 4.32 0 0 1-1.08.09c-.352-.016-.668-.092-.948-.228s-.486-.348-.63-.636a1.87 1.87 0 0 1-.192-.726l-.012-.846V84.72h.876v5.898l.006.684c.008.18.05.34.126.48.144.268.372.428.684.48s.706.04 1.17-.036V93zm-4.248-5.724v-.756h4.248v.756h-4.248zm10.615 5.904c-.652 0-1.204-.146-1.656-.438a2.79 2.79 0 0 1-1.032-1.206c-.232-.516-.352-1.108-.36-1.776.008-.68.132-1.276.372-1.788s.586-.916 1.038-1.2 1-.432 1.644-.432c.656 0 1.226.16 1.71.48a2.42 2.42 0 0 1 1.002 1.314l-.864.276c-.152-.388-.394-.688-.726-.9s-.704-.324-1.128-.324c-.476 0-.87.11-1.182.33a1.92 1.92 0 0 0-.696.906c-.152.388-.23.834-.234 1.338.008.776.188 1.4.54 1.872s.876.702 1.572.702c.44 0 .814-.1 1.122-.3s.548-.5.708-.888l.888.264c-.24.576-.592 1.016-1.056 1.32s-1.018.45-1.662.45zm6.487 0c-.644 0-1.194-.146-1.65-.438a2.85 2.85 0 0 1-1.05-1.212c-.244-.516-.366-1.108-.366-1.776 0-.68.124-1.276.372-1.788s.6-.91 1.056-1.194 1.006-.432 1.638-.432c.648 0 1.2.146 1.656.438s.81.69 1.05 1.206.366 1.102.366 1.77c0 .68-.122 1.278-.366 1.794s-.596.912-1.056 1.2-1.01.432-1.65.432zm0-.846c.72 0 1.256-.238 1.608-.714s.528-1.102.528-1.866c0-.784-.178-1.408-.534-1.872s-.886-.696-1.602-.696c-.484 0-.884.11-1.2.33s-.546.518-.702.906-.228.828-.228 1.332c0 .78.18 1.406.54 1.878s.89.702 1.59.702zm9.076.666v-3.306a4.48 4.48 0 0 0-.102-.99c-.068-.304-.178-.568-.33-.792a1.51 1.51 0 0 0-.582-.528c-.236-.124-.524-.186-.864-.186-.312 0-.588.054-.828.162a1.63 1.63 0 0 0-.6.468c-.16.2-.282.444-.366.732s-.126.616-.126.984l-.624-.138c0-.664.116-1.222.348-1.674s.552-.794.96-1.026a2.79 2.79 0 0 1 1.404-.348c.388 0 .726.06 1.014.18s.538.282.738.486a2.47 2.47 0 0 1 .492.702c.124.26.214.538.27.834a4.64 4.64 0 0 1 .084.876V93h-.888zm-4.686 0v-6.48h.798v1.596h.09V93h-.888zm10.659 0a4.32 4.32 0 0 1-1.08.09c-.352-.016-.668-.092-.948-.228s-.486-.348-.63-.636a1.87 1.87 0 0 1-.192-.726l-.012-.846V84.72h.876v5.898l.006.684c.008.18.05.34.126.48.144.268.372.428.684.48s.706.04 1.17-.036V93zm-4.248-5.724v-.756h4.248v.756h-4.248zm8.032 5.904c-.632 0-1.18-.14-1.644-.42a2.85 2.85 0 0 1-1.074-1.182c-.256-.508-.384-1.104-.384-1.788 0-.708.126-1.32.378-1.836s.606-.914 1.062-1.194 1.002-.42 1.626-.42c.64 0 1.186.148 1.638.444s.794.712 1.026 1.26.338 1.202.318 1.962h-.9v-.312c-.016-.84-.198-1.474-.546-1.902s-.848-.642-1.512-.642c-.696 0-1.23.226-1.602.678s-.552 1.096-.552 1.932c0 .816.184 1.45.552 1.902s.898.672 1.578.672c.464 0 .868-.106 1.212-.318s.622-.526.822-.93l.822.318c-.256.564-.634 1.002-1.134 1.314a3.13 3.13 0 0 1-1.686.462zm-2.478-3.174v-.738h4.95v.738h-4.95zM103.672 93v-3.306a4.48 4.48 0 0 0-.102-.99c-.068-.304-.178-.568-.33-.792a1.51 1.51 0 0 0-.582-.528c-.236-.124-.524-.186-.864-.186-.312 0-.588.054-.828.162a1.63 1.63 0 0 0-.6.468c-.16.2-.282.444-.366.732a3.53 3.53 0 0 0-.126.984l-.624-.138c0-.664.116-1.222.348-1.674a2.41 2.41 0 0 1 .96-1.026 2.79 2.79 0 0 1 1.404-.348c.388 0 .726.06 1.014.18s.538.282.738.486a2.47 2.47 0 0 1 .492.702c.124.26.214.538.27.834a4.64 4.64 0 0 1 .084.876V93h-.888zm-4.686 0v-6.48h.798v1.596h.09V93h-.888zm10.659 0a4.32 4.32 0 0 1-1.08.09c-.352-.016-.668-.092-.948-.228s-.486-.348-.63-.636a1.87 1.87 0 0 1-.192-.726l-.012-.846V84.72h.876v5.898l.006.684c.008.18.05.34.126.48.144.268.372.428.684.48s.706.04 1.17-.036V93zm-4.248-5.724v-.756h4.248v.756h-4.248zM113.966 93v-6.96l.024-.498a2 2 0 0 1 .114-.468c.056-.152.144-.292.264-.42.132-.144.276-.248.432-.312a1.72 1.72 0 0 1 .486-.132c.172-.02.34-.03.504-.03h.828v.744h-.768c-.336 0-.588.082-.756.246s-.246.422-.246.774V93h-.882zm-1.122-5.724v-.756h3.774v.756h-3.774zM117.578 93v-6.48h.792v1.56l-.156-.204c.072-.192.166-.368.282-.528a1.83 1.83 0 0 1 .378-.402 1.71 1.71 0 0 1 .588-.336 2.38 2.38 0 0 1 .678-.138 1.96 1.96 0 0 1 .624.048v.828a2.14 2.14 0 0 0-.774-.042c-.28.032-.538.144-.774.336a1.61 1.61 0 0 0-.486.606c-.108.232-.18.48-.216.744a5.64 5.64 0 0 0-.054.774V93h-.882zm6.913.18c-.644 0-1.194-.146-1.65-.438a2.85 2.85 0 0 1-1.05-1.212c-.244-.516-.366-1.108-.366-1.776 0-.68.124-1.276.372-1.788s.6-.91 1.056-1.194 1.006-.432 1.638-.432c.648 0 1.2.146 1.656.438s.81.69 1.05 1.206.366 1.102.366 1.77c0 .68-.122 1.278-.366 1.794s-.596.912-1.056 1.2-1.01.432-1.65.432zm0-.846c.72 0 1.256-.238 1.608-.714s.528-1.102.528-1.866c0-.784-.178-1.408-.534-1.872s-.886-.696-1.602-.696c-.484 0-.884.11-1.2.33s-.546.518-.702.906-.228.828-.228 1.332c0 .78.18 1.406.54 1.878s.89.702 1.59.702zm12.124.666l.006-4.254c0-.5-.14-.892-.42-1.176s-.628-.432-1.056-.432c-.244 0-.482.056-.714.168s-.424.292-.576.54-.222.572-.222.972l-.522-.15c-.012-.464.078-.87.27-1.218s.464-.618.804-.81a2.31 2.31 0 0 1 1.164-.294c.652 0 1.174.202 1.566.606s.588.942.588 1.626L137.497 93h-.882zm-7.734 0v-6.48h.792v1.596h.096V93h-.888zm3.876 0l.006-4.194c0-.516-.138-.922-.414-1.218s-.632-.45-1.08-.45-.81.154-1.086.462-.414.71-.414 1.218l-.528-.288c0-.416.098-.788.294-1.116a2.09 2.09 0 0 1 .804-.78c.34-.192.726-.288 1.158-.288a2.24 2.24 0 0 1 1.098.264 1.88 1.88 0 0 1 .762.768c.184.336.276.744.276 1.224L133.627 93h-.87zm12.232 0a4.32 4.32 0 0 1-1.08.09c-.352-.016-.668-.092-.948-.228s-.486-.348-.63-.636a1.87 1.87 0 0 1-.192-.726l-.012-.846V84.72h.876v5.898l.006.684c.008.18.05.34.126.48.144.268.372.428.684.48s.706.04 1.17-.036V93zm-4.248-5.724v-.756h4.248v.756h-4.248zM150.946 93v-3.306a4.48 4.48 0 0 0-.102-.99c-.068-.304-.178-.568-.33-.792a1.51 1.51 0 0 0-.582-.528c-.236-.124-.524-.186-.864-.186-.312 0-.588.054-.828.162a1.63 1.63 0 0 0-.6.468c-.16.2-.282.444-.366.732s-.126.616-.126.984l-.624-.138c0-.664.116-1.222.348-1.674s.552-.794.96-1.026a2.79 2.79 0 0 1 1.404-.348c.388 0 .726.06 1.014.18s.538.282.738.486a2.47 2.47 0 0 1 .492.702c.124.26.214.538.27.834a4.64 4.64 0 0 1 .084.876V93h-.888zm-4.686 0v-8.64h.798v4.878h.09V93h-.888zm7.251-7.71v-.99h.882v.99h-.882zm0 7.71v-6.48h.882V93h-.882zm5.099.174c-.76 0-1.386-.164-1.878-.492a2.05 2.05 0 0 1-.9-1.368l.9-.15c.096.368.314.662.654.882s.768.324 1.272.324c.492 0 .88-.102 1.164-.306s.426-.49.426-.846c0-.2-.046-.362-.138-.486s-.27-.246-.546-.354-.688-.236-1.236-.384c-.588-.16-1.048-.32-1.38-.48s-.568-.344-.708-.552-.21-.47-.21-.774a1.56 1.56 0 0 1 .312-.966c.208-.28.496-.496.864-.648s.796-.234 1.284-.234.924.08 1.308.24.7.376.936.66a1.85 1.85 0 0 1 .42.99l-.9.162c-.06-.38-.25-.68-.57-.9s-.718-.34-1.206-.348c-.46-.012-.834.076-1.122.264s-.432.43-.432.738a.67.67 0 0 0 .156.444c.104.12.292.234.564.342a10.34 10.34 0 0 0 1.176.354c.596.152 1.064.312 1.404.48s.582.366.726.594.216.51.216.846c0 .612-.228 1.094-.684 1.446s-1.076.522-1.872.522zm8.707 0c-.76 0-1.386-.164-1.878-.492a2.05 2.05 0 0 1-.9-1.368l.9-.15c.096.368.314.662.654.882s.768.324 1.272.324c.492 0 .88-.102 1.164-.306s.426-.49.426-.846c0-.2-.046-.362-.138-.486s-.27-.246-.546-.354-.688-.236-1.236-.384c-.588-.16-1.048-.32-1.38-.48s-.568-.344-.708-.552-.21-.47-.21-.774a1.56 1.56 0 0 1 .312-.966c.208-.28.496-.496.864-.648s.796-.234 1.284-.234.924.08 1.308.24.7.376.936.66a1.85 1.85 0 0 1 .42.99l-.9.162c-.06-.38-.25-.68-.57-.9s-.718-.34-1.206-.348c-.46-.012-.834.076-1.122.264s-.432.43-.432.738a.67.67 0 0 0 .156.444c.104.12.292.234.564.342a10.34 10.34 0 0 0 1.176.354c.596.152 1.064.312 1.404.48s.582.366.726.594.216.51.216.846c0 .612-.228 1.094-.684 1.446s-1.076.522-1.872.522zm4.006-7.884v-.99h.882v.99h-.882zm0 7.71v-6.48h.882V93h-.882zm6.209 0a4.32 4.32 0 0 1-1.08.09c-.352-.016-.668-.092-.948-.228s-.486-.348-.63-.636a1.87 1.87 0 0 1-.192-.726l-.012-.846V84.72h.876v5.898l.006.684c.008.18.05.34.126.48.144.268.372.428.684.48s.706.04 1.17-.036V93zm-4.248-5.724v-.756h4.248v.756h-4.248zm8.032 5.904c-.632 0-1.18-.14-1.644-.42a2.85 2.85 0 0 1-1.074-1.182c-.256-.508-.384-1.104-.384-1.788 0-.708.126-1.32.378-1.836s.606-.914 1.062-1.194 1.002-.42 1.626-.42c.64 0 1.186.148 1.638.444s.794.712 1.026 1.26.338 1.202.318 1.962h-.9v-.312c-.016-.84-.198-1.474-.546-1.902s-.848-.642-1.512-.642c-.696 0-1.23.226-1.602.678s-.552 1.096-.552 1.932c0 .816.184 1.45.552 1.902s.898.672 1.578.672c.464 0 .868-.106 1.212-.318s.622-.526.822-.93l.822.318c-.256.564-.634 1.002-1.134 1.314a3.13 3.13 0 0 1-1.686.462zm-2.478-3.174v-.738h4.95v.738h-4.95zm6.402 4.248l.054-.438c.16.012.276-.02.348-.096s.116-.178.132-.306a2.33 2.33 0 0 0 .012-.414h-.546v-1.266h1.026v1.506c0 .368-.094.644-.282.828s-.432.246-.744.186zM29.318 113.162c-.388 0-.728-.06-1.02-.18s-.534-.282-.738-.486-.362-.436-.486-.696-.214-.542-.27-.834-.084-.59-.084-.882v-3.564h.888v3.306c0 .356.034.686.102.99s.176.57.324.798.346.398.582.522.53.186.87.186c.312 0 .586-.054.822-.162s.44-.262.6-.462.288-.45.372-.738.126-.62.126-.984l.624.138c0 .664-.116 1.222-.348 1.674s-.552.794-.96 1.026a2.79 2.79 0 0 1-1.404.348zm2.178-.162v-1.596h-.09v-4.884h.882V113h-.792zm5.379.18c-.596 0-1.1-.15-1.512-.45s-.724-.714-.936-1.23-.318-1.102-.318-1.746c0-.656.106-1.24.318-1.752s.532-.922.948-1.218.928-.444 1.536-.444c.592 0 1.1.15 1.524.45s.748.708.972 1.224.342 1.096.342 1.74-.114 1.23-.342 1.746-.556.926-.984 1.23-.944.45-1.548.45zm-2.916 2.7v-9.36h.792v4.878h.096v4.482h-.888zm2.826-3.522c.452 0 .828-.114 1.128-.342a2.04 2.04 0 0 0 .672-.93c.152-.396.228-.84.228-1.332s-.074-.928-.222-1.32-.374-.702-.678-.93-.682-.342-1.146-.342c-.452 0-.828.11-1.128.33s-.518.526-.666.918-.222.836-.222 1.344c0 .5.074.948.222 1.344s.372.7.672.924.68.336 1.14.336zm10.212.642a4.32 4.32 0 0 1-1.08.09c-.352-.016-.668-.092-.948-.228s-.486-.348-.63-.636a1.87 1.87 0 0 1-.192-.726l-.012-.846v-5.934h.876v5.898l.006.684c.008.18.05.34.126.48.144.268.372.428.684.48s.706.04 1.17-.036V113zm-4.248-5.724v-.756h4.248v.756h-4.248zm7.996 5.904c-.644 0-1.194-.146-1.65-.438a2.85 2.85 0 0 1-1.05-1.212c-.244-.516-.366-1.108-.366-1.776 0-.68.124-1.276.372-1.788s.6-.91 1.056-1.194 1.006-.432 1.638-.432c.648 0 1.2.146 1.656.438s.81.69 1.05 1.206.366 1.102.366 1.77c0 .68-.122 1.278-.366 1.794s-.596.912-1.056 1.2-1.01.432-1.65.432zm0-.846c.72 0 1.256-.238 1.608-.714s.528-1.102.528-1.866c0-.784-.178-1.408-.534-1.872s-.886-.696-1.602-.696c-.484 0-.884.11-1.2.33s-.546.518-.702.906-.228.828-.228 1.332c0 .78.18 1.406.54 1.878s.89.702 1.59.702zm9.348.846a2.81 2.81 0 0 1-1.242-.276 2.87 2.87 0 0 1-.972-.762 2.97 2.97 0 0 1-.576-1.116l.846-.228c.076.312.214.582.414.81s.434.398.702.522a2.03 2.03 0 0 0 .852.186c.384 0 .728-.092 1.032-.276s.552-.436.732-.744.27-.646.27-1.014a1.91 1.91 0 0 0-.282-1.026c-.188-.308-.436-.552-.744-.732a1.96 1.96 0 0 0-1.008-.27c-.408 0-.76.09-1.056.27s-.532.398-.708.666l-.804-.336.264-4.494h4.614v.846h-4.224l.438-.414-.234 3.834-.222-.294c.248-.284.548-.506.9-.666a2.65 2.65 0 0 1 1.11-.24 2.75 2.75 0 0 1 1.44.384 2.82 2.82 0 0 1 1.02 1.026c.252.432.378.914.378 1.446s-.134 1.012-.402 1.452-.624.786-1.068 1.05-.934.396-1.47.396zm6.898-.18v-8.82h.882V113h-.882zm5.423.18c-.632 0-1.18-.14-1.644-.42a2.85 2.85 0 0 1-1.074-1.182c-.256-.508-.384-1.104-.384-1.788 0-.708.126-1.32.378-1.836s.606-.914 1.062-1.194 1.002-.42 1.626-.42c.64 0 1.186.148 1.638.444s.794.712 1.026 1.26.338 1.202.318 1.962h-.9v-.312c-.016-.84-.198-1.474-.546-1.902s-.848-.642-1.512-.642c-.696 0-1.23.226-1.602.678s-.552 1.096-.552 1.932c0 .816.184 1.45.552 1.902s.898.672 1.578.672c.464 0 .868-.106 1.212-.318s.622-.526.822-.93l.822.318c-.256.564-.634 1.002-1.134 1.314a3.13 3.13 0 0 1-1.686.462zm-2.478-3.174v-.738h4.95v.738h-4.95zM78.209 113l-2.352-6.48h.894l1.914 5.328 1.902-5.328h.906L79.121 113h-.912zm6.849.18c-.632 0-1.18-.14-1.644-.42a2.85 2.85 0 0 1-1.074-1.182c-.256-.508-.384-1.104-.384-1.788 0-.708.126-1.32.378-1.836s.606-.914 1.062-1.194 1.002-.42 1.626-.42c.64 0 1.186.148 1.638.444s.794.712 1.026 1.26.338 1.202.318 1.962h-.9v-.312c-.016-.84-.198-1.474-.546-1.902s-.848-.642-1.512-.642c-.696 0-1.23.226-1.602.678s-.552 1.096-.552 1.932c0 .816.184 1.45.552 1.902s.898.672 1.578.672c.464 0 .868-.106 1.212-.318s.622-.526.822-.93l.822.318c-.256.564-.634 1.002-1.134 1.314a3.13 3.13 0 0 1-1.686.462zm-2.478-3.174v-.738h4.95v.738h-4.95zM89.456 113v-8.82h.882V113h-.882zm5.099.174c-.76 0-1.386-.164-1.878-.492a2.05 2.05 0 0 1-.9-1.368l.9-.15c.096.368.314.662.654.882s.768.324 1.272.324c.492 0 .88-.102 1.164-.306s.426-.49.426-.846c0-.2-.046-.362-.138-.486s-.27-.246-.546-.354-.688-.236-1.236-.384c-.588-.16-1.048-.32-1.38-.48s-.568-.344-.708-.552-.21-.47-.21-.774a1.56 1.56 0 0 1 .312-.966c.208-.28.496-.496.864-.648s.796-.234 1.284-.234.924.08 1.308.24.7.376.936.66a1.85 1.85 0 0 1 .42.99l-.9.162c-.06-.38-.25-.68-.57-.9s-.718-.34-1.206-.348c-.46-.012-.834.076-1.122.264s-.432.43-.432.738a.67.67 0 0 0 .156.444c.104.12.292.234.564.342a10.34 10.34 0 0 0 1.176.354c.596.152 1.064.312 1.404.48s.582.366.726.594.216.51.216.846c0 .612-.228 1.094-.684 1.446s-1.076.522-1.872.522zm8.803.006c-.604 0-1.12-.15-1.548-.45s-.756-.714-.984-1.23-.342-1.098-.342-1.746.112-1.224.336-1.74.554-.924.978-1.224.932-.45 1.524-.45c.608 0 1.12.148 1.536.444s.73.702.942 1.218.324 1.096.324 1.752c0 .644-.106 1.226-.318 1.746s-.524.926-.936 1.23-.916.45-1.512.45zm.09-.822c.46 0 .84-.112 1.14-.336s.524-.532.672-.924.222-.844.222-1.344c0-.508-.074-.956-.222-1.344s-.372-.698-.672-.918-.67-.33-1.122-.33c-.464 0-.848.114-1.152.342s-.53.538-.678.93-.216.832-.216 1.32.074.936.222 1.332a2.08 2.08 0 0 0 .678.93c.3.228.676.342 1.128.342zm2.034.642v-4.878h-.096v-3.762h.888V113h-.792zm5.217.18c-.632 0-1.18-.14-1.644-.42a2.85 2.85 0 0 1-1.074-1.182c-.256-.508-.384-1.104-.384-1.788 0-.708.126-1.32.378-1.836s.606-.914 1.062-1.194 1.002-.42 1.626-.42c.64 0 1.186.148 1.638.444s.794.712 1.026 1.26.338 1.202.318 1.962h-.9v-.312c-.016-.84-.198-1.474-.546-1.902s-.848-.642-1.512-.642c-.696 0-1.23.226-1.602.678s-.552 1.096-.552 1.932c0 .816.184 1.45.552 1.902s.898.672 1.578.672c.464 0 .868-.106 1.212-.318s.622-.526.822-.93l.822.318c-.256.564-.634 1.002-1.134 1.314a3.13 3.13 0 0 1-1.686.462zm-2.478-3.174v-.738h4.95v.738h-4.95zm9.498 3.174c-.632 0-1.18-.14-1.644-.42a2.85 2.85 0 0 1-1.074-1.182c-.256-.508-.384-1.104-.384-1.788 0-.708.126-1.32.378-1.836s.606-.914 1.062-1.194 1.002-.42 1.626-.42c.64 0 1.186.148 1.638.444s.794.712 1.026 1.26.338 1.202.318 1.962h-.9v-.312c-.016-.84-.198-1.474-.546-1.902s-.848-.642-1.512-.642c-.696 0-1.23.226-1.602.678s-.552 1.096-.552 1.932c0 .816.184 1.45.552 1.902s.898.672 1.578.672c.464 0 .868-.106 1.212-.318s.622-.526.822-.93l.822.318c-.256.564-.634 1.002-1.134 1.314a3.13 3.13 0 0 1-1.686.462zm-2.478-3.174v-.738h4.95v.738h-4.95zm9.489 3.174c-.596 0-1.1-.15-1.512-.45s-.724-.714-.936-1.23-.318-1.102-.318-1.746c0-.656.106-1.24.318-1.752s.532-.922.948-1.218.928-.444 1.536-.444c.592 0 1.1.15 1.524.45s.748.708.972 1.224.342 1.096.342 1.74-.114 1.23-.342 1.746-.556.926-.984 1.23-.944.45-1.548.45zm-2.916 2.7v-9.36h.792v4.878h.096v4.482h-.888zm2.826-3.522c.452 0 .828-.114 1.128-.342a2.04 2.04 0 0 0 .672-.93c.152-.396.228-.84.228-1.332s-.074-.928-.222-1.32-.374-.702-.678-.93-.682-.342-1.146-.342c-.452 0-.828.11-1.128.33s-.518.526-.666.918-.222.836-.222 1.344c0 .5.074.948.222 1.344s.372.7.672.924.68.336 1.14.336zm4.216.642v-1.026h1.026V113h-1.026z" fill="#667185"/><path d="M71.115 35l-2.926-10.08h1.533l2.121 7.623 2.121-7.616 1.54-.007 2.121 7.623 2.121-7.623h1.54L78.353 35h-1.456l-2.163-7.539L72.571 35h-1.456zm13.865.21c-.751 0-1.412-.163-1.981-.49s-1.006-.791-1.323-1.379-.469-1.279-.469-2.058c0-.826.154-1.542.462-2.149s.747-1.076 1.302-1.407 1.202-.497 1.939-.497c.77 0 1.426.18 1.967.539s.945.861 1.211 1.519.378 1.44.322 2.345h-1.463v-.532c-.009-.877-.177-1.526-.504-1.946s-.814-.63-1.477-.63c-.733 0-1.283.231-1.652.693s-.553 1.129-.553 2.002c0 .831.184 1.475.553 1.932s.901.679 1.596.679c.457 0 .852-.103 1.183-.308s.597-.509.784-.896l1.435.455c-.294.677-.74 1.202-1.337 1.575s-1.262.553-1.995.553zm-2.695-3.577v-1.141h5.397v1.141h-5.397zm11.245 3.577c-.723 0-1.33-.175-1.82-.525s-.861-.833-1.113-1.435-.378-1.281-.378-2.037.124-1.435.371-2.037.621-1.076 1.106-1.421 1.092-.525 1.806-.525 1.321.175 1.834.525.917.819 1.197 1.421.42 1.276.42 2.037-.14 1.437-.42 2.044-.67 1.078-1.183 1.428-1.115.525-1.82.525zM89.973 35V24.92h1.47v4.641h-.168V35h-1.302zm3.353-1.113c.467 0 .852-.119 1.155-.357s.537-.558.686-.959.231-.859.231-1.358-.077-.943-.231-1.344-.38-.721-.693-.959-.712-.357-1.197-.357c-.457 0-.835.112-1.134.336s-.513.537-.658.938-.21.863-.21 1.386.07.985.21 1.386.362.716.665.945.695.343 1.176.343zm11.208 1.323c-.774 0-1.432-.173-1.974-.518s-.956-.819-1.246-1.421c-.284-.602-.429-1.286-.434-2.051.005-.779.154-1.468.448-2.065a3.37 3.37 0 0 1 1.26-1.414c.546-.341 1.202-.511 1.967-.511.826 0 1.531.205 2.114.616.588.411.976.973 1.162 1.687l-1.456.42c-.144-.425-.382-.754-.714-.987-.326-.238-.702-.357-1.127-.357-.48 0-.875.114-1.183.343s-.536.532-.686.924-.226.84-.231 1.344c.005.779.182 1.409.532 1.89.355.481.878.721 1.568.721.472 0 .852-.107 1.141-.322s.518-.532.672-.938l1.484.35c-.247.737-.655 1.304-1.225 1.701s-1.26.588-2.072.588zm4.723-.21v-7.56h1.302v1.834l-.182-.238c.094-.243.215-.464.364-.665a2.05 2.05 0 0 1 .518-.504c.192-.14.404-.247.637-.322s.481-.126.728-.14.486-.007.714.035v1.372a2.37 2.37 0 0 0-.826-.056 1.81 1.81 0 0 0-.826.287c-.238.154-.427.341-.567.56s-.233.464-.294.735a3.84 3.84 0 0 0-.091.847V35h-1.477zm7.331.21c-.56 0-1.029-.103-1.407-.308s-.665-.485-.861-.826-.287-.723-.287-1.134c0-.383.067-.719.203-1.008a1.94 1.94 0 0 1 .602-.735c.266-.205.592-.371.98-.497.336-.098.716-.184 1.141-.259l1.337-.21 1.4-.196-.532.294c.009-.593-.117-1.031-.378-1.316s-.7-.434-1.33-.434c-.397 0-.761.093-1.092.28s-.563.485-.693.91l-1.365-.42c.186-.649.541-1.164 1.064-1.547s1.227-.574 2.1-.574c.676 0 1.264.117 1.764.35s.872.593 1.106 1.092a2.3 2.3 0 0 1 .224.784 8.81 8.81 0 0 1 .042.889V35h-1.295v-1.729l.252.224c-.313.579-.712 1.01-1.197 1.295s-1.074.42-1.778.42zm.259-1.197c.415 0 .772-.072 1.071-.217s.539-.338.721-.567.301-.467.357-.714a2.54 2.54 0 0 0 .133-.756l.021-.672.476.175-1.26.189-1.029.168c-.304.051-.574.114-.812.189-.201.07-.381.154-.539.252a1.23 1.23 0 0 0-.371.357c-.089.14-.133.31-.133.511s.049.378.147.546a1.03 1.03 0 0 0 .448.392c.2.098.457.147.77.147zm6.913.987l-2.31-7.567 1.449.007 1.582 5.187 1.596-5.187h1.26l1.596 5.187 1.582-5.187h1.442l-2.31 7.56h-1.176l-1.764-5.474L124.936 35h-1.176zm9.59 0V24.71h1.463V35h-1.463zm6.919.21c-.752 0-1.412-.163-1.981-.49a3.48 3.48 0 0 1-1.323-1.379c-.313-.593-.469-1.279-.469-2.058 0-.826.154-1.542.462-2.149s.746-1.076 1.302-1.407 1.201-.497 1.939-.497c.77 0 1.425.18 1.967.539s.945.861 1.211 1.519.378 1.44.322 2.345h-1.463v-.532c-.01-.877-.178-1.526-.504-1.946s-.815-.63-1.477-.63c-.733 0-1.284.231-1.652.693s-.553 1.129-.553 2.002c0 .831.184 1.475.553 1.932s.9.679 1.596.679c.457 0 .851-.103 1.183-.308s.597-.509.784-.896l1.435.455c-.294.677-.74 1.202-1.337 1.575s-1.263.553-1.995.553zm-2.695-3.577v-1.141h5.397v1.141h-5.397zM145.269 35v-7.56h1.302v1.834l-.182-.238c.093-.243.215-.464.364-.665s.322-.373.518-.504c.191-.14.404-.247.637-.322.238-.079.481-.126.728-.14a2.78 2.78 0 0 1 .714.035v1.372c-.247-.065-.523-.084-.826-.056s-.574.124-.826.287c-.238.154-.427.341-.567.56s-.233.464-.294.735a3.78 3.78 0 0 0-.091.847V35h-1.477z" fill="#475367"/><rect x="24" y="14" width="32" height="32" rx="4" fill="#e5f6ff"/><mask id="A" maskUnits="userSpaceOnUse" x="28" y="18" width="24" height="24" mask-type="alpha"><path fill="#d9d9d9" d="M28 18h24v24H28z"/></mask><g mask="url(#A)"><path d="M40.008 39.601c-1.321 0-2.565-.25-3.732-.75s-2.187-1.187-3.062-2.062a9.68 9.68 0 0 1-2.063-3.062c-.5-1.166-.75-2.412-.75-3.738a9.3 9.3 0 0 1 .75-3.726c.5-1.158 1.188-2.175 2.063-3.05a9.68 9.68 0 0 1 3.061-2.062c1.166-.5 2.412-.75 3.738-.75a9.3 9.3 0 0 1 3.726.75c1.158.5 2.175 1.188 3.05 2.063s1.563 1.893 2.063 3.056.75 2.404.75 3.725-.25 2.565-.75 3.732-1.187 2.188-2.062 3.063-1.893 1.563-3.056 2.063-2.404.75-3.725.75zm-1.207-1.9v-1.7c-.333 0-.617-.117-.85-.352a1.16 1.16 0 0 1-.35-.848v-1.2l-5.225-5.225c-.067.317-.112.608-.137.875l-.038.75a7.62 7.62 0 0 0 1.862 5.075 7.43 7.43 0 0 0 4.738 2.625zm7.2-2.725a7.6 7.6 0 0 0 .788-1.1c.225-.383.411-.788.559-1.214s.26-.863.338-1.312a7.93 7.93 0 0 0 .116-1.349c0-1.577-.433-3.017-1.3-4.32s-2.033-2.263-3.5-2.88v.6a1.73 1.73 0 0 1-.529 1.271 1.73 1.73 0 0 1-1.271.529h-2.4v1.2a1.16 1.16 0 0 1-1.2 1.2h-1.2v2.4h6a1.16 1.16 0 0 1 1.2 1.2v2.4h1.025c.383 0 .708.133.975.4s.4.592.4.975z" fill="#4bbfff"/></g><defs><filter id="B" x="0" y="0" width="228" height="152" filterUnits="userSpaceOnUse" color-interpolation-filters="sRGB"><feFlood flood-opacity="0" result="A"/><feColorMatrix in="SourceAlpha" values="0 0 0 0 0 0 0 0 0 0 0 0 0 0 0 0 0 0 127 0"/><feMorphology radius="2" in="SourceAlpha" result="C"/><feOffset dy="4"/><feGaussianBlur stdDeviation="3"/><feColorMatrix values="0 0 0 0 0.341176 0 0 0 0 0.333333 0 0 0 0 1 0 0 0 0.05 0"/><feBlend in2="A" result="C"/><feColorMatrix in="SourceAlpha" values="0 0 0 0 0 0 0 0 0 0 0 0 0 0 0 0 0 0 127 0"/><feMorphology radius="3" in="SourceAlpha"/><feOffset dy="10"/><feGaussianBlur stdDeviation="7.5"/><feColorMatrix values="0 0 0 0 0.341176 0 0 0 0 0.333333 0 0 0 0 1 0 0 0 0.1 0"/><feBlend in2="C"/><feBlend in="SourceGraphic"/></filter></defs></svg>