<svg width="26" height="26" viewBox="0 0 26 26" fill="none" xmlns="http://www.w3.org/2000/svg">
<path d="M7.11107 22.0789L7.51775 22.2807C9.17598 23.2595 11.0718 23.7712 13.0011 23.7605C18.9407 23.7471 23.8208 18.8924 23.8208 12.9978C23.8208 10.1491 22.6808 7.41336 20.6535 5.39669C18.6289 3.35918 15.8628 2.21094 12.9801 2.21094C7.06769 2.21094 2.20312 7.03936 2.20312 12.9064C2.20312 12.9528 2.20313 12.9985 2.2038 13.0449C2.22161 15.0397 2.78378 16.9924 3.83053 18.6953L4.10163 19.0989L3.01717 23.0677L7.11107 22.0789Z" fill="#00E676"/>
<path d="M21.8501 4.19118C19.5422 1.85431 16.3761 0.543303 13.0794 0.558728H13.0583C6.26886 0.558749 0.68177 6.10358 0.68177 12.8417C0.68177 12.8733 0.682449 12.9042 0.682449 12.9359C0.708023 15.0782 1.26684 17.181 2.30917 19.0571L0.546875 25.4475L7.11475 23.7658C8.92913 24.7544 10.9689 25.264 13.0387 25.2457C19.8533 25.2087 25.4397 19.6323 25.4356 12.8686C25.4519 9.61892 24.1607 6.49371 21.8501 4.19118ZM13.0794 23.1604C11.2447 23.1699 9.44227 22.6814 7.86709 21.7478L7.46041 21.546L3.54952 22.555L4.56621 18.7208L4.2951 18.3172C3.28802 16.7034 2.75448 14.8428 2.75446 12.9446C2.75446 7.34667 7.39603 2.7402 13.0367 2.7402C18.6773 2.7402 23.3188 7.34667 23.3188 12.9446C23.3188 16.4694 21.4786 19.7534 18.4611 21.6133C16.8651 22.6279 15.0086 23.165 13.1133 23.1604M19.0711 15.6938L18.3255 15.3575C18.3255 15.3575 17.241 14.8866 16.5632 14.5503C16.4955 14.5503 16.4277 14.483 16.3599 14.483C16.1928 14.4871 16.0295 14.5334 15.8854 14.6175C15.7411 14.7016 15.8177 14.6848 14.8687 15.7611C14.8044 15.8869 14.6722 15.9656 14.5299 15.9629H14.4621C14.3602 15.9459 14.2657 15.8991 14.191 15.8283L13.8521 15.6938C13.1249 15.3883 12.4591 14.9553 11.8864 14.4157C11.7509 14.2812 11.5475 14.1466 11.412 14.0121C10.9102 13.5351 10.4769 12.9919 10.1242 12.3977L10.0564 12.2632C9.99749 12.181 9.95177 12.0902 9.92082 11.9941C9.90309 11.8776 9.92707 11.7586 9.98859 11.6578C10.0503 11.5569 10.2597 11.3214 10.463 11.1196C10.6664 10.9179 10.6664 10.7833 10.802 10.6488C10.8716 10.5528 10.9198 10.443 10.9432 10.327C10.9665 10.211 10.9646 10.0913 10.9375 9.9761C10.6216 9.1057 10.2596 8.25247 9.85304 7.41998C9.74405 7.25177 9.57426 7.1314 9.37858 7.08364H8.633C8.49744 7.08364 8.36189 7.1509 8.22631 7.1509L8.15854 7.21817C8.02298 7.28543 7.88743 7.41998 7.75186 7.48724C7.6163 7.55451 7.54853 7.75632 7.41297 7.89085C6.93914 8.48509 6.67696 9.21836 6.66739 9.9761C6.6749 10.5091 6.79013 11.0352 7.00627 11.5233L7.07407 11.725C7.68267 13.0164 8.53383 14.1807 9.58193 15.1557L9.85304 15.4247C10.0503 15.5869 10.2319 15.7671 10.3953 15.9629C11.7997 17.1757 13.4677 18.0501 15.2687 18.519C15.472 18.5863 15.7431 18.5863 15.9464 18.6535H16.6242C16.9785 18.6362 17.325 18.5445 17.6409 18.3845C17.807 18.3098 17.9656 18.2197 18.1154 18.1154L18.2509 17.9809C18.3865 17.8463 18.5221 17.7791 18.6576 17.6445C18.7901 17.5274 18.9043 17.3914 18.9965 17.2409C19.1267 16.9396 19.2182 16.6234 19.2677 16.2992V15.8283C19.2068 15.774 19.1383 15.7287 19.0643 15.6938" fill="#F7F8FA"/>
</svg>
