<svg xmlns="http://www.w3.org/2000/svg" width="142" height="50" fill="none" xmlns:v="https://vecta.io/nano"><rect x=".5" y=".5" width="141" height="49" rx="6.5" fill="#fff" stroke="url(#A)"/><path d="M60.129 30L57.21 19.92h1.302l2.24 7.973 2.233-7.966 1.309-.007 2.24 7.973 2.233-7.973h1.309L67.157 30h-1.246l-2.268-7.903L61.375 30h-1.246zm16.523 0v-3.787c0-.359-.033-.705-.098-1.036a2.6 2.6 0 0 0-.329-.889 1.7 1.7 0 0 0-.63-.63c-.261-.154-.593-.231-.994-.231-.313 0-.597.054-.854.161a1.67 1.67 0 0 0-.651.476c-.182.215-.324.485-.427.812s-.147.702-.147 1.141l-.819-.252c0-.733.131-1.36.392-1.883a2.86 2.86 0 0 1 1.113-1.211c.481-.285 1.045-.427 1.694-.427.49 0 .908.077 1.253.231s.632.359.861.616a2.91 2.91 0 0 1 .539.854c.131.313.222.632.273.959a5.36 5.36 0 0 1 .084.917V30h-1.26zm-5.39 0V19.92h1.12v5.565h.14V30h-1.26zm10.619.21c-.565 0-1.038-.103-1.421-.308s-.665-.485-.861-.826-.287-.714-.287-1.12c0-.397.075-.74.224-1.029a2.01 2.01 0 0 1 .644-.728c.275-.196.604-.35.987-.462.359-.098.761-.182 1.204-.252l1.358-.203 1.281-.175-.448.259c.014-.672-.121-1.169-.406-1.491s-.765-.483-1.456-.483c-.457 0-.859.105-1.204.315s-.581.541-.721 1.008l-1.183-.357c.182-.663.534-1.183 1.057-1.561s1.211-.567 2.065-.567c.686 0 1.274.124 1.764.371s.849.611 1.064 1.106c.107.233.175.488.203.763s.042.555.042.854V30h-1.106v-1.813l.259.168c-.285.611-.684 1.073-1.197 1.386s-1.129.469-1.862.469zm.189-1.043c.448 0 .835-.079 1.162-.238s.597-.376.798-.637.331-.555.392-.868c.07-.233.107-.492.112-.777l.014-.665.434.189-1.197.161-1.113.168c-.35.056-.665.124-.945.203-.205.065-.399.149-.581.252a1.32 1.32 0 0 0-.434.399c-.107.159-.161.357-.161.595 0 .205.051.401.154.588a1.19 1.19 0 0 0 .49.455c.224.117.516.175.875.175zm9.758.833a5.6 5.6 0 0 1-1.33.105 2.95 2.95 0 0 1-1.162-.259 1.67 1.67 0 0 1-.777-.756c-.149-.299-.231-.6-.245-.903l-.014-1.043V20.34h1.246v6.748l.007.791c.009.219.058.408.147.567.168.299.434.474.798.525s.812.037 1.33-.042V30zm-5.061-6.531V22.44h5.061v1.029h-5.061zm9.452 6.734c-.901 0-1.64-.196-2.219-.588a2.48 2.48 0 0 1-1.057-1.659l1.274-.203c.103.411.338.737.707.98s.826.357 1.372.357c.518 0 .924-.107 1.218-.322s.441-.506.441-.875c0-.215-.049-.387-.147-.518s-.301-.261-.609-.378-.763-.257-1.379-.42c-.667-.177-1.192-.362-1.575-.553s-.656-.413-.819-.665-.245-.558-.245-.917c0-.443.121-.831.364-1.162s.581-.595 1.015-.777.947-.273 1.526-.273 1.087.091 1.54.273.817.441 1.092.777a2.14 2.14 0 0 1 .497 1.162l-1.274.231c-.061-.406-.257-.726-.588-.959s-.749-.357-1.267-.371c-.49-.019-.889.068-1.197.259s-.455.45-.455.777c0 .182.056.338.168.469s.329.254.637.371.765.25 1.358.399c.667.168 1.192.352 1.575.553s.663.429.826.7.245.595.245.987c0 .728-.268 1.302-.805 1.722s-1.276.623-2.219.623zm6.717.007c-.565 0-1.039-.103-1.421-.308s-.665-.485-.861-.826a2.24 2.24 0 0 1-.287-1.12c0-.397.074-.74.224-1.029s.368-.537.644-.728.604-.35.987-.462c.359-.098.76-.182 1.204-.252l1.358-.203 1.281-.175-.448.259c.014-.672-.122-1.169-.406-1.491s-.766-.483-1.456-.483c-.458 0-.859.105-1.204.315s-.581.541-.721 1.008l-1.183-.357c.182-.663.534-1.183 1.057-1.561s1.211-.567 2.065-.567c.686 0 1.274.124 1.764.371a2.16 2.16 0 0 1 1.064 1.106 2.4 2.4 0 0 1 .203.763c.028.271.042.555.042.854V30h-1.106v-1.813l.259.168c-.285.611-.684 1.073-1.197 1.386s-1.13.469-1.862.469zm.189-1.043c.448 0 .835-.079 1.162-.238s.597-.376.798-.637a2.1 2.1 0 0 0 .392-.868c.07-.233.107-.492.112-.777l.014-.665.434.189-1.197.161-1.113.168c-.35.056-.665.124-.945.203-.206.065-.399.149-.581.252s-.322.236-.434.399-.161.357-.161.595a1.2 1.2 0 0 0 .154.588c.107.187.27.338.49.455s.515.175.875.175zm9.009 1.043c-.71 0-1.307-.175-1.792-.525s-.854-.833-1.106-1.435-.371-1.286-.371-2.037c0-.761.123-1.442.371-2.044s.62-1.076 1.106-1.421 1.089-.518 1.799-.518c.7 0 1.302.175 1.806.525s.898.819 1.169 1.421.406 1.281.406 2.037-.136 1.435-.406 2.037-.661 1.08-1.169 1.435-1.109.525-1.813.525zm-3.479 3.15V22.44h1.113v5.565h.14v5.355h-1.253zm3.325-4.291c.499 0 .912-.126 1.239-.378s.571-.593.735-1.022.245-.919.245-1.456-.082-1.013-.245-1.442-.406-.77-.742-1.022-.754-.378-1.267-.378c-.49 0-.896.121-1.218.364s-.563.572-.721 1.001-.238.917-.238 1.477a4.4 4.4 0 0 0 .231 1.477 2.18 2.18 0 0 0 .728 1.015c.326.243.744.364 1.253.364zm8.548 1.141c-.709 0-1.306-.175-1.792-.525s-.854-.833-1.106-1.435c-.247-.607-.371-1.286-.371-2.037 0-.761.124-1.442.371-2.044.252-.602.621-1.076 1.106-1.421s1.09-.518 1.799-.518c.7 0 1.302.175 1.806.525a3.31 3.31 0 0 1 1.169 1.421c.271.602.406 1.281.406 2.037s-.135 1.435-.406 2.037-.66 1.08-1.169 1.435c-.504.35-1.108.525-1.813.525zm-3.479 3.15V22.44h1.113v5.565h.14v5.355h-1.253zm3.325-4.291c.5 0 .913-.126 1.239-.378s.572-.593.735-1.022.245-.919.245-1.456-.081-1.013-.245-1.442c-.158-.429-.406-.77-.742-1.022-.331-.252-.753-.378-1.267-.378-.49 0-.896.121-1.218.364s-.562.572-.721 1.001-.238.917-.238 1.477a4.4 4.4 0 0 0 .231 1.477c.159.429.402.768.728 1.015s.745.364 1.253.364z" fill="#475367"/><rect x="13" y="5" width="40" height="40" rx="8" fill="#fff"/><path d="M27.111 34.079l.407.202c1.658.979 3.554 1.49 5.483 1.48 5.94-.013 10.82-4.868 10.82-10.763 0-2.849-1.14-5.584-3.167-7.601-2.025-2.037-4.791-3.186-7.673-3.186-5.912 0-10.777 4.829-10.777 10.696l.001.138c.018 1.995.58 3.948 1.627 5.65l.271.404-1.084 3.969 4.094-.989z" fill="#00e676"/><path d="M41.85 16.191a12.25 12.25 0 0 0-8.771-3.632h-.021c-6.789 0-12.377 5.545-12.377 12.283v.094a12.92 12.92 0 0 0 1.627 6.121l-1.762 6.39 6.568-1.682a12.16 12.16 0 0 0 5.924 1.48c6.815-.037 12.401-5.613 12.397-12.377.016-3.25-1.275-6.375-3.586-8.677zM33.079 35.16a10.12 10.12 0 0 1-5.212-1.413l-.407-.202-3.911 1.009 1.017-3.834-.271-.404c-1.007-1.614-1.541-3.474-1.541-5.373 0-5.598 4.642-10.204 10.282-10.204s10.282 4.606 10.282 10.204c0 3.525-1.84 6.809-4.858 8.669-1.596 1.015-3.453 1.552-5.348 1.547m5.958-7.467l-.746-.336s-1.084-.471-1.762-.807c-.068 0-.136-.067-.203-.067a.99.99 0 0 0-.475.134c-.144.084-.068.067-1.017 1.144-.064.126-.197.204-.339.202h-.068a.52.52 0 0 1-.271-.135l-.339-.134c-.727-.305-1.393-.738-1.966-1.278-.135-.135-.339-.269-.474-.404a7.53 7.53 0 0 1-1.288-1.614l-.068-.134c-.059-.082-.105-.173-.136-.269a.5.5 0 0 1 .068-.336c.062-.101.271-.336.474-.538s.203-.336.339-.471c.07-.096.118-.206.141-.322s.021-.236-.006-.351c-.316-.87-.678-1.724-1.084-2.556-.109-.168-.279-.289-.474-.336h-.746c-.136 0-.271.067-.407.067l-.068.067c-.136.067-.271.202-.407.269s-.203.269-.339.404c-.474.594-.736 1.328-.746 2.085.008.533.123 1.059.339 1.547l.068.202c.609 1.291 1.46 2.456 2.508 3.431l.271.269c.197.162.379.342.542.538 1.404 1.213 3.072 2.087 4.873 2.556.203.067.474.067.678.135h.678c.354-.017.701-.109 1.017-.269a2.94 2.94 0 0 0 .474-.269l.136-.135c.136-.135.271-.202.407-.336a1.78 1.78 0 0 0 .339-.404 3.83 3.83 0 0 0 .271-.942v-.471a.85.85 0 0 0-.203-.134" fill="#f7f8fa"/><defs><linearGradient id="A" x1="71" y1="1" x2="71" y2="49" gradientUnits="userSpaceOnUse"><stop stop-color="#e4e7ec"/><stop offset="1" stop-color="#fff"/></linearGradient></defs></svg>