<svg width="206" height="142" viewBox="0 0 206 142" fill="none" xmlns="http://www.w3.org/2000/svg">
<rect x="0.5" y="0.5" width="205" height="141" rx="10.5" fill="white" stroke="url(#paint0_linear_1748_2031)"/>
<path d="M15.84 72V63.36H16.65L20.046 70.626L23.424 63.36H24.246V71.994H23.406V65.328L20.328 72H19.758L16.686 65.328V72H15.84ZM27.7838 72.18C27.2958 72.18 26.8858 72.092 26.5538 71.916C26.2258 71.74 25.9798 71.506 25.8158 71.214C25.6518 70.922 25.5698 70.604 25.5698 70.26C25.5698 69.908 25.6398 69.608 25.7798 69.36C25.9238 69.108 26.1178 68.902 26.3618 68.742C26.6098 68.582 26.8958 68.46 27.2198 68.376C27.5478 68.296 27.9098 68.226 28.3058 68.166C28.7058 68.102 29.0958 68.048 29.4758 68.004C29.8598 67.956 30.1958 67.91 30.4838 67.866L30.1718 68.058C30.1838 67.418 30.0598 66.944 29.7998 66.636C29.5398 66.328 29.0878 66.174 28.4438 66.174C27.9998 66.174 27.6238 66.274 27.3158 66.474C27.0118 66.674 26.7978 66.99 26.6738 67.422L25.8158 67.17C25.9638 66.59 26.2618 66.14 26.7098 65.82C27.1578 65.5 27.7398 65.34 28.4558 65.34C29.0478 65.34 29.5498 65.452 29.9618 65.676C30.3778 65.896 30.6718 66.216 30.8438 66.636C30.9238 66.824 30.9758 67.034 30.9998 67.266C31.0238 67.498 31.0358 67.734 31.0358 67.974V72H30.2498V70.374L30.4778 70.47C30.2578 71.026 29.9158 71.45 29.4518 71.742C28.9878 72.034 28.4318 72.18 27.7838 72.18ZM27.8858 71.418C28.2978 71.418 28.6578 71.344 28.9658 71.196C29.2738 71.048 29.5218 70.846 29.7098 70.59C29.8978 70.33 30.0198 70.038 30.0758 69.714C30.1238 69.506 30.1498 69.278 30.1538 69.03C30.1578 68.778 30.1598 68.59 30.1598 68.466L30.4958 68.64C30.1958 68.68 29.8698 68.72 29.5178 68.76C29.1698 68.8 28.8258 68.846 28.4858 68.898C28.1498 68.95 27.8458 69.012 27.5738 69.084C27.3898 69.136 27.2118 69.21 27.0398 69.306C26.8678 69.398 26.7258 69.522 26.6138 69.678C26.5058 69.834 26.4518 70.028 26.4518 70.26C26.4518 70.448 26.4978 70.63 26.5898 70.806C26.6858 70.982 26.8378 71.128 27.0458 71.244C27.2578 71.36 27.5378 71.418 27.8858 71.418ZM37.2778 72V68.694C37.2778 68.334 37.2438 68.004 37.1758 67.704C37.1078 67.4 36.9978 67.136 36.8458 66.912C36.6978 66.684 36.5038 66.508 36.2638 66.384C36.0278 66.26 35.7398 66.198 35.3998 66.198C35.0878 66.198 34.8118 66.252 34.5718 66.36C34.3358 66.468 34.1358 66.624 33.9718 66.828C33.8118 67.028 33.6898 67.272 33.6058 67.56C33.5218 67.848 33.4798 68.176 33.4798 68.544L32.8558 68.406C32.8558 67.742 32.9718 67.184 33.2038 66.732C33.4358 66.28 33.7558 65.938 34.1638 65.706C34.5718 65.474 35.0398 65.358 35.5678 65.358C35.9558 65.358 36.2938 65.418 36.5818 65.538C36.8738 65.658 37.1198 65.82 37.3198 66.024C37.5238 66.228 37.6878 66.462 37.8118 66.726C37.9358 66.986 38.0258 67.264 38.0818 67.56C38.1378 67.852 38.1658 68.144 38.1658 68.436V72H37.2778ZM32.5918 72V65.52H33.3898V67.116H33.4798V72H32.5918ZM42.2008 72.162C41.8128 72.162 41.4728 72.102 41.1808 71.982C40.8928 71.862 40.6468 71.7 40.4428 71.496C40.2428 71.292 40.0808 71.06 39.9568 70.8C39.8328 70.536 39.7428 70.258 39.6868 69.966C39.6308 69.67 39.6028 69.376 39.6028 69.084V65.52H40.4908V68.826C40.4908 69.182 40.5248 69.512 40.5928 69.816C40.6608 70.12 40.7688 70.386 40.9168 70.614C41.0688 70.838 41.2628 71.012 41.4988 71.136C41.7388 71.26 42.0288 71.322 42.3688 71.322C42.6808 71.322 42.9548 71.268 43.1908 71.16C43.4308 71.052 43.6308 70.898 43.7908 70.698C43.9548 70.494 44.0788 70.248 44.1628 69.96C44.2468 69.668 44.2888 69.34 44.2888 68.976L44.9128 69.114C44.9128 69.778 44.7968 70.336 44.5648 70.788C44.3328 71.24 44.0128 71.582 43.6048 71.814C43.1968 72.046 42.7288 72.162 42.2008 72.162ZM44.3788 72V70.404H44.2888V65.52H45.1708V72H44.3788ZM48.7018 72.18C48.2138 72.18 47.8038 72.092 47.4718 71.916C47.1438 71.74 46.8978 71.506 46.7338 71.214C46.5698 70.922 46.4878 70.604 46.4878 70.26C46.4878 69.908 46.5578 69.608 46.6978 69.36C46.8418 69.108 47.0358 68.902 47.2798 68.742C47.5278 68.582 47.8138 68.46 48.1378 68.376C48.4658 68.296 48.8278 68.226 49.2238 68.166C49.6238 68.102 50.0138 68.048 50.3938 68.004C50.7778 67.956 51.1138 67.91 51.4018 67.866L51.0898 68.058C51.1018 67.418 50.9778 66.944 50.7178 66.636C50.4578 66.328 50.0058 66.174 49.3618 66.174C48.9178 66.174 48.5418 66.274 48.2338 66.474C47.9298 66.674 47.7158 66.99 47.5918 67.422L46.7338 67.17C46.8818 66.59 47.1798 66.14 47.6278 65.82C48.0758 65.5 48.6578 65.34 49.3738 65.34C49.9658 65.34 50.4678 65.452 50.8798 65.676C51.2958 65.896 51.5898 66.216 51.7618 66.636C51.8418 66.824 51.8938 67.034 51.9178 67.266C51.9418 67.498 51.9538 67.734 51.9538 67.974V72H51.1678V70.374L51.3958 70.47C51.1758 71.026 50.8338 71.45 50.3698 71.742C49.9058 72.034 49.3498 72.18 48.7018 72.18ZM48.8038 71.418C49.2158 71.418 49.5758 71.344 49.8838 71.196C50.1918 71.048 50.4398 70.846 50.6278 70.59C50.8158 70.33 50.9378 70.038 50.9938 69.714C51.0418 69.506 51.0678 69.278 51.0718 69.03C51.0758 68.778 51.0778 68.59 51.0778 68.466L51.4138 68.64C51.1138 68.68 50.7878 68.72 50.4358 68.76C50.0878 68.8 49.7438 68.846 49.4038 68.898C49.0678 68.95 48.7638 69.012 48.4918 69.084C48.3078 69.136 48.1298 69.21 47.9578 69.306C47.7858 69.398 47.6438 69.522 47.5318 69.678C47.4238 69.834 47.3698 70.028 47.3698 70.26C47.3698 70.448 47.4158 70.63 47.5078 70.806C47.6038 70.982 47.7558 71.128 47.9638 71.244C48.1758 71.36 48.4558 71.418 48.8038 71.418ZM53.6358 72V63.18H54.5178V72H53.6358ZM56.4366 72V63.18H57.3186V72H56.4366ZM60.0413 74.88L61.2953 71.478L61.3133 72.486L58.4753 65.52H59.4113L61.7393 71.346H61.3553L63.5033 65.52H64.4033L60.9233 74.88H60.0413ZM69.2278 72L67.2478 65.514L68.1298 65.52L69.6658 70.554L71.2078 65.52H72.0118L73.5538 70.554L75.1018 65.52H75.9778L73.9978 72H73.2298L71.6098 66.84L69.9958 72H69.2278ZM77.0588 72V65.52H77.8508V67.08L77.6948 66.876C77.7668 66.684 77.8608 66.508 77.9768 66.348C78.0928 66.184 78.2188 66.05 78.3548 65.946C78.5228 65.798 78.7188 65.686 78.9428 65.61C79.1668 65.53 79.3928 65.484 79.6208 65.472C79.8488 65.456 80.0568 65.472 80.2448 65.52V66.348C80.0088 66.288 79.7508 66.274 79.4708 66.306C79.1908 66.338 78.9328 66.45 78.6968 66.642C78.4808 66.81 78.3188 67.012 78.2108 67.248C78.1028 67.48 78.0308 67.728 77.9948 67.992C77.9588 68.252 77.9408 68.51 77.9408 68.766V72H77.0588ZM81.503 64.29V63.3H82.385V64.29H81.503ZM81.503 72V65.52H82.385V72H81.503ZM87.7118 72C87.3478 72.076 86.9878 72.106 86.6318 72.09C86.2798 72.074 85.9638 71.998 85.6838 71.862C85.4078 71.726 85.1978 71.514 85.0538 71.226C84.9378 70.986 84.8738 70.744 84.8618 70.5C84.8538 70.252 84.8498 69.97 84.8498 69.654V63.72H85.7258V69.618C85.7258 69.89 85.7278 70.118 85.7318 70.302C85.7398 70.482 85.7818 70.642 85.8578 70.782C86.0018 71.05 86.2298 71.21 86.5418 71.262C86.8578 71.314 87.2478 71.302 87.7118 71.226V72ZM83.4638 66.276V65.52H87.7118V66.276H83.4638ZM91.4961 72.18C90.8641 72.18 90.3161 72.04 89.8521 71.76C89.3921 71.48 89.0341 71.086 88.7781 70.578C88.5221 70.07 88.3941 69.474 88.3941 68.79C88.3941 68.082 88.5201 67.47 88.7721 66.954C89.0241 66.438 89.3781 66.04 89.8341 65.76C90.2941 65.48 90.8361 65.34 91.4601 65.34C92.1001 65.34 92.6461 65.488 93.0981 65.784C93.5501 66.076 93.8921 66.496 94.1241 67.044C94.3561 67.592 94.4621 68.246 94.4421 69.006H93.5421V68.694C93.5261 67.854 93.3441 67.22 92.9961 66.792C92.6521 66.364 92.1481 66.15 91.4841 66.15C90.7881 66.15 90.2541 66.376 89.8821 66.828C89.5141 67.28 89.3301 67.924 89.3301 68.76C89.3301 69.576 89.5141 70.21 89.8821 70.662C90.2541 71.11 90.7801 71.334 91.4601 71.334C91.9241 71.334 92.3281 71.228 92.6721 71.016C93.0201 70.8 93.2941 70.49 93.4941 70.086L94.3161 70.404C94.0601 70.968 93.6821 71.406 93.1821 71.718C92.6861 72.026 92.1241 72.18 91.4961 72.18ZM89.0181 69.006V68.268H93.9681V69.006H89.0181ZM101.704 72C101.34 72.076 100.98 72.106 100.624 72.09C100.272 72.074 99.9559 71.998 99.6759 71.862C99.3999 71.726 99.1899 71.514 99.0459 71.226C98.9299 70.986 98.8659 70.744 98.8539 70.5C98.8459 70.252 98.8419 69.97 98.8419 69.654V63.72H99.7179V69.618C99.7179 69.89 99.7199 70.118 99.7239 70.302C99.7319 70.482 99.7739 70.642 99.8499 70.782C99.9939 71.05 100.222 71.21 100.534 71.262C100.85 71.314 101.24 71.302 101.704 71.226V72ZM97.4559 66.276V65.52H101.704V66.276H97.4559ZM102.981 72V65.52H103.773V67.08L103.617 66.876C103.689 66.684 103.783 66.508 103.899 66.348C104.015 66.184 104.141 66.05 104.277 65.946C104.445 65.798 104.641 65.686 104.865 65.61C105.089 65.53 105.315 65.484 105.543 65.472C105.771 65.456 105.979 65.472 106.167 65.52V66.348C105.931 66.288 105.673 66.274 105.393 66.306C105.113 66.338 104.855 66.45 104.619 66.642C104.403 66.81 104.241 67.012 104.133 67.248C104.025 67.48 103.953 67.728 103.917 67.992C103.881 68.252 103.863 68.51 103.863 68.766V72H102.981ZM108.913 72.18C108.425 72.18 108.015 72.092 107.683 71.916C107.355 71.74 107.109 71.506 106.945 71.214C106.781 70.922 106.699 70.604 106.699 70.26C106.699 69.908 106.769 69.608 106.909 69.36C107.053 69.108 107.247 68.902 107.491 68.742C107.739 68.582 108.025 68.46 108.349 68.376C108.677 68.296 109.039 68.226 109.435 68.166C109.835 68.102 110.225 68.048 110.605 68.004C110.989 67.956 111.325 67.91 111.613 67.866L111.301 68.058C111.313 67.418 111.189 66.944 110.929 66.636C110.669 66.328 110.217 66.174 109.573 66.174C109.129 66.174 108.753 66.274 108.445 66.474C108.141 66.674 107.927 66.99 107.803 67.422L106.945 67.17C107.093 66.59 107.391 66.14 107.839 65.82C108.287 65.5 108.869 65.34 109.585 65.34C110.177 65.34 110.679 65.452 111.091 65.676C111.507 65.896 111.801 66.216 111.973 66.636C112.053 66.824 112.105 67.034 112.129 67.266C112.153 67.498 112.165 67.734 112.165 67.974V72H111.379V70.374L111.607 70.47C111.387 71.026 111.045 71.45 110.581 71.742C110.117 72.034 109.561 72.18 108.913 72.18ZM109.015 71.418C109.427 71.418 109.787 71.344 110.095 71.196C110.403 71.048 110.651 70.846 110.839 70.59C111.027 70.33 111.149 70.038 111.205 69.714C111.253 69.506 111.279 69.278 111.283 69.03C111.287 68.778 111.289 68.59 111.289 68.466L111.625 68.64C111.325 68.68 110.999 68.72 110.647 68.76C110.299 68.8 109.955 68.846 109.615 68.898C109.279 68.95 108.975 69.012 108.703 69.084C108.519 69.136 108.341 69.21 108.169 69.306C107.997 69.398 107.855 69.522 107.743 69.678C107.635 69.834 107.581 70.028 107.581 70.26C107.581 70.448 107.627 70.63 107.719 70.806C107.815 70.982 107.967 71.128 108.175 71.244C108.387 71.36 108.667 71.418 109.015 71.418ZM113.847 64.29V63.3H114.729V64.29H113.847ZM113.847 72V65.52H114.729V72H113.847ZM121.208 72V68.694C121.208 68.334 121.174 68.004 121.106 67.704C121.038 67.4 120.928 67.136 120.776 66.912C120.628 66.684 120.434 66.508 120.194 66.384C119.958 66.26 119.67 66.198 119.33 66.198C119.018 66.198 118.742 66.252 118.502 66.36C118.266 66.468 118.066 66.624 117.902 66.828C117.742 67.028 117.62 67.272 117.536 67.56C117.452 67.848 117.41 68.176 117.41 68.544L116.786 68.406C116.786 67.742 116.902 67.184 117.134 66.732C117.366 66.28 117.686 65.938 118.094 65.706C118.502 65.474 118.97 65.358 119.498 65.358C119.886 65.358 120.224 65.418 120.512 65.538C120.804 65.658 121.05 65.82 121.25 66.024C121.454 66.228 121.618 66.462 121.742 66.726C121.866 66.986 121.956 67.264 122.012 67.56C122.068 67.852 122.096 68.144 122.096 68.436V72H121.208ZM116.522 72V65.52H117.32V67.116H117.41V72H116.522ZM123.773 64.29V63.3H124.655V64.29H123.773ZM123.773 72V65.52H124.655V72H123.773ZM131.133 72V68.694C131.133 68.334 131.099 68.004 131.031 67.704C130.963 67.4 130.853 67.136 130.701 66.912C130.553 66.684 130.359 66.508 130.119 66.384C129.883 66.26 129.595 66.198 129.255 66.198C128.943 66.198 128.667 66.252 128.427 66.36C128.191 66.468 127.991 66.624 127.827 66.828C127.667 67.028 127.545 67.272 127.461 67.56C127.377 67.848 127.335 68.176 127.335 68.544L126.711 68.406C126.711 67.742 126.827 67.184 127.059 66.732C127.291 66.28 127.611 65.938 128.019 65.706C128.427 65.474 128.895 65.358 129.423 65.358C129.811 65.358 130.149 65.418 130.437 65.538C130.729 65.658 130.975 65.82 131.175 66.024C131.379 66.228 131.543 66.462 131.667 66.726C131.791 66.986 131.881 67.264 131.937 67.56C131.993 67.852 132.021 68.144 132.021 68.436V72H131.133ZM126.447 72V65.52H127.245V67.116H127.335V72H126.447ZM136.152 75.06C135.82 75.06 135.492 75.01 135.168 74.91C134.848 74.814 134.552 74.66 134.28 74.448C134.008 74.24 133.78 73.968 133.596 73.632L134.394 73.188C134.574 73.548 134.826 73.806 135.15 73.962C135.478 74.122 135.812 74.202 136.152 74.202C136.62 74.202 136.998 74.114 137.286 73.938C137.578 73.766 137.79 73.51 137.922 73.17C138.054 72.83 138.118 72.406 138.114 71.898V70.17H138.216V65.52H139.002V71.91C139.002 72.094 138.996 72.27 138.984 72.438C138.976 72.61 138.958 72.778 138.93 72.942C138.854 73.426 138.696 73.824 138.456 74.136C138.22 74.448 137.908 74.68 137.52 74.832C137.136 74.984 136.68 75.06 136.152 75.06ZM136.092 72.18C135.488 72.18 134.972 72.03 134.544 71.73C134.116 71.426 133.788 71.016 133.56 70.5C133.332 69.984 133.218 69.402 133.218 68.754C133.218 68.11 133.33 67.53 133.554 67.014C133.782 66.498 134.108 66.09 134.532 65.79C134.956 65.49 135.464 65.34 136.056 65.34C136.664 65.34 137.176 65.488 137.592 65.784C138.008 66.08 138.322 66.486 138.534 67.002C138.75 67.514 138.858 68.098 138.858 68.754C138.858 69.398 138.752 69.98 138.54 70.5C138.328 71.016 138.016 71.426 137.604 71.73C137.192 72.03 136.688 72.18 136.092 72.18ZM136.182 71.358C136.642 71.358 137.022 71.246 137.322 71.022C137.622 70.798 137.846 70.49 137.994 70.098C138.142 69.702 138.216 69.254 138.216 68.754C138.216 68.246 138.142 67.798 137.994 67.41C137.846 67.018 137.622 66.712 137.322 66.492C137.026 66.272 136.652 66.162 136.2 66.162C135.736 66.162 135.352 66.276 135.048 66.504C134.744 66.732 134.518 67.042 134.37 67.434C134.226 67.826 134.154 68.266 134.154 68.754C134.154 69.246 134.228 69.69 134.376 70.086C134.528 70.478 134.754 70.788 135.054 71.016C135.354 71.244 135.73 71.358 136.182 71.358ZM145.77 72.18C145.118 72.18 144.566 72.034 144.114 71.742C143.662 71.45 143.318 71.048 143.082 70.536C142.85 70.02 142.73 69.428 142.722 68.76C142.73 68.08 142.854 67.484 143.094 66.972C143.334 66.456 143.68 66.056 144.132 65.772C144.584 65.484 145.132 65.34 145.776 65.34C146.432 65.34 147.002 65.5 147.486 65.82C147.974 66.14 148.308 66.578 148.488 67.134L147.624 67.41C147.472 67.022 147.23 66.722 146.898 66.51C146.57 66.294 146.194 66.186 145.77 66.186C145.294 66.186 144.9 66.296 144.588 66.516C144.276 66.732 144.044 67.034 143.892 67.422C143.74 67.81 143.662 68.256 143.658 68.76C143.666 69.536 143.846 70.16 144.198 70.632C144.55 71.1 145.074 71.334 145.77 71.334C146.21 71.334 146.584 71.234 146.892 71.034C147.204 70.83 147.44 70.534 147.6 70.146L148.488 70.41C148.248 70.986 147.896 71.426 147.432 71.73C146.968 72.03 146.414 72.18 145.77 72.18ZM152.257 72.18C151.613 72.18 151.063 72.034 150.607 71.742C150.151 71.45 149.801 71.046 149.557 70.53C149.313 70.014 149.191 69.422 149.191 68.754C149.191 68.074 149.315 67.478 149.563 66.966C149.811 66.454 150.163 66.056 150.619 65.772C151.079 65.484 151.625 65.34 152.257 65.34C152.905 65.34 153.457 65.486 153.913 65.778C154.373 66.066 154.723 66.468 154.963 66.984C155.207 67.496 155.329 68.086 155.329 68.754C155.329 69.434 155.207 70.032 154.963 70.548C154.719 71.06 154.367 71.46 153.907 71.748C153.447 72.036 152.897 72.18 152.257 72.18ZM152.257 71.334C152.977 71.334 153.513 71.096 153.865 70.62C154.217 70.14 154.393 69.518 154.393 68.754C154.393 67.97 154.215 67.346 153.859 66.882C153.507 66.418 152.973 66.186 152.257 66.186C151.773 66.186 151.373 66.296 151.057 66.516C150.745 66.732 150.511 67.034 150.355 67.422C150.203 67.806 150.127 68.25 150.127 68.754C150.127 69.534 150.307 70.16 150.667 70.632C151.027 71.1 151.557 71.334 152.257 71.334ZM161.333 72V68.694C161.333 68.334 161.299 68.004 161.231 67.704C161.163 67.4 161.053 67.136 160.901 66.912C160.753 66.684 160.559 66.508 160.319 66.384C160.083 66.26 159.795 66.198 159.455 66.198C159.143 66.198 158.867 66.252 158.627 66.36C158.391 66.468 158.191 66.624 158.027 66.828C157.867 67.028 157.745 67.272 157.661 67.56C157.577 67.848 157.535 68.176 157.535 68.544L156.911 68.406C156.911 67.742 157.027 67.184 157.259 66.732C157.491 66.28 157.811 65.938 158.219 65.706C158.627 65.474 159.095 65.358 159.623 65.358C160.011 65.358 160.349 65.418 160.637 65.538C160.929 65.658 161.175 65.82 161.375 66.024C161.579 66.228 161.743 66.462 161.867 66.726C161.991 66.986 162.081 67.264 162.137 67.56C162.193 67.852 162.221 68.144 162.221 68.436V72H161.333ZM156.647 72V65.52H157.445V67.116H157.535V72H156.647ZM167.306 72C166.942 72.076 166.582 72.106 166.226 72.09C165.874 72.074 165.558 71.998 165.278 71.862C165.002 71.726 164.792 71.514 164.648 71.226C164.532 70.986 164.468 70.744 164.456 70.5C164.448 70.252 164.444 69.97 164.444 69.654V63.72H165.32V69.618C165.32 69.89 165.322 70.118 165.326 70.302C165.334 70.482 165.376 70.642 165.452 70.782C165.596 71.05 165.824 71.21 166.136 71.262C166.452 71.314 166.842 71.302 167.306 71.226V72ZM163.058 66.276V65.52H167.306V66.276H163.058ZM171.09 72.18C170.458 72.18 169.91 72.04 169.446 71.76C168.986 71.48 168.628 71.086 168.372 70.578C168.116 70.07 167.988 69.474 167.988 68.79C167.988 68.082 168.114 67.47 168.366 66.954C168.618 66.438 168.972 66.04 169.428 65.76C169.888 65.48 170.43 65.34 171.054 65.34C171.694 65.34 172.24 65.488 172.692 65.784C173.144 66.076 173.486 66.496 173.718 67.044C173.95 67.592 174.056 68.246 174.036 69.006H173.136V68.694C173.12 67.854 172.938 67.22 172.59 66.792C172.246 66.364 171.742 66.15 171.078 66.15C170.382 66.15 169.848 66.376 169.476 66.828C169.108 67.28 168.924 67.924 168.924 68.76C168.924 69.576 169.108 70.21 169.476 70.662C169.848 71.11 170.374 71.334 171.054 71.334C171.518 71.334 171.922 71.228 172.266 71.016C172.614 70.8 172.888 70.49 173.088 70.086L173.91 70.404C173.654 70.968 173.276 71.406 172.776 71.718C172.28 72.026 171.718 72.18 171.09 72.18ZM168.612 69.006V68.268H173.562V69.006H168.612ZM179.872 72V68.694C179.872 68.334 179.838 68.004 179.77 67.704C179.702 67.4 179.592 67.136 179.44 66.912C179.292 66.684 179.098 66.508 178.858 66.384C178.622 66.26 178.334 66.198 177.994 66.198C177.682 66.198 177.406 66.252 177.166 66.36C176.93 66.468 176.73 66.624 176.566 66.828C176.406 67.028 176.284 67.272 176.2 67.56C176.116 67.848 176.074 68.176 176.074 68.544L175.45 68.406C175.45 67.742 175.566 67.184 175.798 66.732C176.03 66.28 176.35 65.938 176.758 65.706C177.166 65.474 177.634 65.358 178.162 65.358C178.55 65.358 178.888 65.418 179.176 65.538C179.468 65.658 179.714 65.82 179.914 66.024C180.118 66.228 180.282 66.462 180.406 66.726C180.53 66.986 180.62 67.264 180.676 67.56C180.732 67.852 180.76 68.144 180.76 68.436V72H179.872ZM175.186 72V65.52H175.984V67.116H176.074V72H175.186ZM185.845 72C185.481 72.076 185.121 72.106 184.765 72.09C184.413 72.074 184.097 71.998 183.817 71.862C183.541 71.726 183.331 71.514 183.187 71.226C183.071 70.986 183.007 70.744 182.995 70.5C182.987 70.252 182.983 69.97 182.983 69.654V63.72H183.859V69.618C183.859 69.89 183.861 70.118 183.865 70.302C183.873 70.482 183.915 70.642 183.991 70.782C184.135 71.05 184.363 71.21 184.675 71.262C184.991 71.314 185.381 71.302 185.845 71.226V72ZM181.597 66.276V65.52H185.845V66.276H181.597ZM18.318 92.162C17.93 92.162 17.59 92.102 17.298 91.982C17.01 91.862 16.764 91.7 16.56 91.496C16.36 91.292 16.198 91.06 16.074 90.8C15.95 90.536 15.86 90.258 15.804 89.966C15.748 89.67 15.72 89.376 15.72 89.084V85.52H16.608V88.826C16.608 89.182 16.642 89.512 16.71 89.816C16.778 90.12 16.886 90.386 17.034 90.614C17.186 90.838 17.38 91.012 17.616 91.136C17.856 91.26 18.146 91.322 18.486 91.322C18.798 91.322 19.072 91.268 19.308 91.16C19.548 91.052 19.748 90.898 19.908 90.698C20.072 90.494 20.196 90.248 20.28 89.96C20.364 89.668 20.406 89.34 20.406 88.976L21.03 89.114C21.03 89.778 20.914 90.336 20.682 90.788C20.45 91.24 20.13 91.582 19.722 91.814C19.314 92.046 18.846 92.162 18.318 92.162ZM20.496 92V90.404H20.406V85.52H21.288V92H20.496ZM25.383 92.174C24.623 92.174 23.997 92.01 23.505 91.682C23.017 91.354 22.717 90.898 22.605 90.314L23.505 90.164C23.601 90.532 23.819 90.826 24.159 91.046C24.503 91.262 24.927 91.37 25.431 91.37C25.923 91.37 26.311 91.268 26.595 91.064C26.879 90.856 27.021 90.574 27.021 90.218C27.021 90.018 26.975 89.856 26.883 89.732C26.795 89.604 26.613 89.486 26.337 89.378C26.061 89.27 25.649 89.142 25.101 88.994C24.513 88.834 24.053 88.674 23.721 88.514C23.389 88.354 23.153 88.17 23.013 87.962C22.873 87.75 22.803 87.492 22.803 87.188C22.803 86.82 22.907 86.498 23.115 86.222C23.323 85.942 23.611 85.726 23.979 85.574C24.347 85.418 24.775 85.34 25.263 85.34C25.751 85.34 26.187 85.42 26.571 85.58C26.959 85.736 27.271 85.956 27.507 86.24C27.743 86.524 27.883 86.854 27.927 87.23L27.027 87.392C26.967 87.012 26.777 86.712 26.457 86.492C26.141 86.268 25.739 86.152 25.251 86.144C24.791 86.132 24.417 86.22 24.129 86.408C23.841 86.592 23.697 86.838 23.697 87.146C23.697 87.318 23.749 87.466 23.853 87.59C23.957 87.71 24.145 87.824 24.417 87.932C24.693 88.04 25.085 88.158 25.593 88.286C26.189 88.438 26.657 88.598 26.997 88.766C27.337 88.934 27.579 89.132 27.723 89.36C27.867 89.588 27.939 89.87 27.939 90.206C27.939 90.818 27.711 91.3 27.255 91.652C26.803 92 26.179 92.174 25.383 92.174ZM29.3897 84.29V83.3H30.2717V84.29H29.3897ZM29.3897 92V85.52H30.2717V92H29.3897ZM36.7505 92V88.694C36.7505 88.334 36.7165 88.004 36.6485 87.704C36.5805 87.4 36.4705 87.136 36.3185 86.912C36.1705 86.684 35.9765 86.508 35.7365 86.384C35.5005 86.26 35.2125 86.198 34.8725 86.198C34.5605 86.198 34.2845 86.252 34.0445 86.36C33.8085 86.468 33.6085 86.624 33.4445 86.828C33.2845 87.028 33.1625 87.272 33.0785 87.56C32.9945 87.848 32.9525 88.176 32.9525 88.544L32.3285 88.406C32.3285 87.742 32.4445 87.184 32.6765 86.732C32.9085 86.28 33.2285 85.938 33.6365 85.706C34.0445 85.474 34.5125 85.358 35.0405 85.358C35.4285 85.358 35.7665 85.418 36.0545 85.538C36.3465 85.658 36.5925 85.82 36.7925 86.024C36.9965 86.228 37.1605 86.462 37.2845 86.726C37.4085 86.986 37.4985 87.264 37.5545 87.56C37.6105 87.852 37.6385 88.144 37.6385 88.436V92H36.7505ZM32.0645 92V85.52H32.8625V87.116H32.9525V92H32.0645ZM41.7695 95.06C41.4375 95.06 41.1095 95.01 40.7855 94.91C40.4655 94.814 40.1695 94.66 39.8975 94.448C39.6255 94.24 39.3975 93.968 39.2135 93.632L40.0115 93.188C40.1915 93.548 40.4435 93.806 40.7675 93.962C41.0955 94.122 41.4295 94.202 41.7695 94.202C42.2375 94.202 42.6155 94.114 42.9035 93.938C43.1955 93.766 43.4075 93.51 43.5395 93.17C43.6715 92.83 43.7355 92.406 43.7315 91.898V90.17H43.8335V85.52H44.6195V91.91C44.6195 92.094 44.6135 92.27 44.6015 92.438C44.5935 92.61 44.5755 92.778 44.5475 92.942C44.4715 93.426 44.3135 93.824 44.0735 94.136C43.8375 94.448 43.5255 94.68 43.1375 94.832C42.7535 94.984 42.2975 95.06 41.7695 95.06ZM41.7095 92.18C41.1055 92.18 40.5895 92.03 40.1615 91.73C39.7335 91.426 39.4055 91.016 39.1775 90.5C38.9495 89.984 38.8355 89.402 38.8355 88.754C38.8355 88.11 38.9475 87.53 39.1715 87.014C39.3995 86.498 39.7255 86.09 40.1495 85.79C40.5735 85.49 41.0815 85.34 41.6735 85.34C42.2815 85.34 42.7935 85.488 43.2095 85.784C43.6255 86.08 43.9395 86.486 44.1515 87.002C44.3675 87.514 44.4755 88.098 44.4755 88.754C44.4755 89.398 44.3695 89.98 44.1575 90.5C43.9455 91.016 43.6335 91.426 43.2215 91.73C42.8095 92.03 42.3055 92.18 41.7095 92.18ZM41.7995 91.358C42.2595 91.358 42.6395 91.246 42.9395 91.022C43.2395 90.798 43.4635 90.49 43.6115 90.098C43.7595 89.702 43.8335 89.254 43.8335 88.754C43.8335 88.246 43.7595 87.798 43.6115 87.41C43.4635 87.018 43.2395 86.712 42.9395 86.492C42.6435 86.272 42.2695 86.162 41.8175 86.162C41.3535 86.162 40.9695 86.276 40.6655 86.504C40.3615 86.732 40.1355 87.042 39.9875 87.434C39.8435 87.826 39.7715 88.266 39.7715 88.754C39.7715 89.246 39.8455 89.69 39.9935 90.086C40.1455 90.478 40.3715 90.788 40.6715 91.016C40.9715 91.244 41.3475 91.358 41.7995 91.358ZM51.4054 92.18C50.7614 92.18 50.2114 92.034 49.7554 91.742C49.2994 91.45 48.9494 91.046 48.7054 90.53C48.4614 90.014 48.3394 89.422 48.3394 88.754C48.3394 88.074 48.4634 87.478 48.7114 86.966C48.9594 86.454 49.3114 86.056 49.7674 85.772C50.2274 85.484 50.7734 85.34 51.4054 85.34C52.0534 85.34 52.6054 85.486 53.0614 85.778C53.5214 86.066 53.8714 86.468 54.1114 86.984C54.3554 87.496 54.4774 88.086 54.4774 88.754C54.4774 89.434 54.3554 90.032 54.1114 90.548C53.8674 91.06 53.5154 91.46 53.0554 91.748C52.5954 92.036 52.0454 92.18 51.4054 92.18ZM51.4054 91.334C52.1254 91.334 52.6614 91.096 53.0134 90.62C53.3654 90.14 53.5414 89.518 53.5414 88.754C53.5414 87.97 53.3634 87.346 53.0074 86.882C52.6554 86.418 52.1214 86.186 51.4054 86.186C50.9214 86.186 50.5214 86.296 50.2054 86.516C49.8934 86.732 49.6594 87.034 49.5034 87.422C49.3514 87.806 49.2754 88.25 49.2754 88.754C49.2754 89.534 49.4554 90.16 49.8154 90.632C50.1754 91.1 50.7054 91.334 51.4054 91.334ZM58.2789 92.162C57.8909 92.162 57.5509 92.102 57.2589 91.982C56.9709 91.862 56.7249 91.7 56.5209 91.496C56.3209 91.292 56.1589 91.06 56.0349 90.8C55.9109 90.536 55.8209 90.258 55.7649 89.966C55.7089 89.67 55.6809 89.376 55.6809 89.084V85.52H56.5689V88.826C56.5689 89.182 56.6029 89.512 56.6709 89.816C56.7389 90.12 56.8469 90.386 56.9949 90.614C57.1469 90.838 57.3409 91.012 57.5769 91.136C57.8169 91.26 58.1069 91.322 58.4469 91.322C58.7589 91.322 59.0329 91.268 59.2689 91.16C59.5089 91.052 59.7089 90.898 59.8689 90.698C60.0329 90.494 60.1569 90.248 60.2409 89.96C60.3249 89.668 60.3669 89.34 60.3669 88.976L60.9909 89.114C60.9909 89.778 60.8749 90.336 60.6429 90.788C60.4109 91.24 60.0909 91.582 59.6829 91.814C59.2749 92.046 58.8069 92.162 58.2789 92.162ZM60.4569 92V90.404H60.3669V85.52H61.2489V92H60.4569ZM62.9259 92V85.52H63.7179V87.08L63.5619 86.876C63.6339 86.684 63.7279 86.508 63.8439 86.348C63.9599 86.184 64.0859 86.05 64.2219 85.946C64.3899 85.798 64.5859 85.686 64.8099 85.61C65.0339 85.53 65.2599 85.484 65.4879 85.472C65.7159 85.456 65.9239 85.472 66.1119 85.52V86.348C65.8759 86.288 65.6179 86.274 65.3379 86.306C65.0579 86.338 64.7999 86.45 64.5639 86.642C64.3479 86.81 64.1859 87.012 64.0779 87.248C63.9699 87.48 63.8979 87.728 63.8619 87.992C63.8259 88.252 63.8079 88.51 63.8079 88.766V92H62.9259ZM72.1305 92.162C71.7425 92.162 71.4025 92.102 71.1105 91.982C70.8225 91.862 70.5765 91.7 70.3725 91.496C70.1725 91.292 70.0105 91.06 69.8865 90.8C69.7625 90.536 69.6725 90.258 69.6165 89.966C69.5605 89.67 69.5325 89.376 69.5325 89.084V85.52H70.4205V88.826C70.4205 89.182 70.4545 89.512 70.5225 89.816C70.5905 90.12 70.6985 90.386 70.8465 90.614C70.9985 90.838 71.1925 91.012 71.4285 91.136C71.6685 91.26 71.9585 91.322 72.2985 91.322C72.6105 91.322 72.8845 91.268 73.1205 91.16C73.3605 91.052 73.5605 90.898 73.7205 90.698C73.8845 90.494 74.0085 90.248 74.0925 89.96C74.1765 89.668 74.2185 89.34 74.2185 88.976L74.8425 89.114C74.8425 89.778 74.7265 90.336 74.4945 90.788C74.2625 91.24 73.9425 91.582 73.5345 91.814C73.1265 92.046 72.6585 92.162 72.1305 92.162ZM74.3085 92V90.404H74.2185V85.52H75.1005V92H74.3085ZM79.1955 92.174C78.4355 92.174 77.8095 92.01 77.3175 91.682C76.8295 91.354 76.5295 90.898 76.4175 90.314L77.3175 90.164C77.4135 90.532 77.6315 90.826 77.9715 91.046C78.3155 91.262 78.7395 91.37 79.2435 91.37C79.7355 91.37 80.1235 91.268 80.4075 91.064C80.6915 90.856 80.8335 90.574 80.8335 90.218C80.8335 90.018 80.7875 89.856 80.6955 89.732C80.6075 89.604 80.4255 89.486 80.1495 89.378C79.8735 89.27 79.4615 89.142 78.9135 88.994C78.3255 88.834 77.8655 88.674 77.5335 88.514C77.2015 88.354 76.9655 88.17 76.8255 87.962C76.6855 87.75 76.6155 87.492 76.6155 87.188C76.6155 86.82 76.7195 86.498 76.9275 86.222C77.1355 85.942 77.4235 85.726 77.7915 85.574C78.1595 85.418 78.5875 85.34 79.0755 85.34C79.5635 85.34 79.9995 85.42 80.3835 85.58C80.7715 85.736 81.0835 85.956 81.3195 86.24C81.5555 86.524 81.6955 86.854 81.7395 87.23L80.8395 87.392C80.7795 87.012 80.5895 86.712 80.2695 86.492C79.9535 86.268 79.5515 86.152 79.0635 86.144C78.6035 86.132 78.2295 86.22 77.9415 86.408C77.6535 86.592 77.5095 86.838 77.5095 87.146C77.5095 87.318 77.5615 87.466 77.6655 87.59C77.7695 87.71 77.9575 87.824 78.2295 87.932C78.5055 88.04 78.8975 88.158 79.4055 88.286C80.0015 88.438 80.4695 88.598 80.8095 88.766C81.1495 88.934 81.3915 89.132 81.5355 89.36C81.6795 89.588 81.7515 89.87 81.7515 90.206C81.7515 90.818 81.5235 91.3 81.0675 91.652C80.6155 92 79.9915 92.174 79.1955 92.174ZM85.8242 92.18C85.1922 92.18 84.6442 92.04 84.1802 91.76C83.7202 91.48 83.3622 91.086 83.1062 90.578C82.8502 90.07 82.7222 89.474 82.7222 88.79C82.7222 88.082 82.8482 87.47 83.1002 86.954C83.3522 86.438 83.7062 86.04 84.1622 85.76C84.6222 85.48 85.1642 85.34 85.7882 85.34C86.4282 85.34 86.9742 85.488 87.4262 85.784C87.8782 86.076 88.2202 86.496 88.4522 87.044C88.6842 87.592 88.7902 88.246 88.7702 89.006H87.8702V88.694C87.8542 87.854 87.6722 87.22 87.3242 86.792C86.9802 86.364 86.4762 86.15 85.8122 86.15C85.1162 86.15 84.5822 86.376 84.2102 86.828C83.8422 87.28 83.6582 87.924 83.6582 88.76C83.6582 89.576 83.8422 90.21 84.2102 90.662C84.5822 91.11 85.1082 91.334 85.7882 91.334C86.2522 91.334 86.6562 91.228 87.0002 91.016C87.3482 90.8 87.6222 90.49 87.8222 90.086L88.6442 90.404C88.3882 90.968 88.0102 91.406 87.5102 91.718C87.0142 92.026 86.4522 92.18 85.8242 92.18ZM83.3462 89.006V88.268H88.2962V89.006H83.3462ZM90.1017 92V85.52H90.8937V87.08L90.7377 86.876C90.8097 86.684 90.9037 86.508 91.0197 86.348C91.1357 86.184 91.2617 86.05 91.3977 85.946C91.5657 85.798 91.7617 85.686 91.9857 85.61C92.2097 85.53 92.4357 85.484 92.6637 85.472C92.8917 85.456 93.0997 85.472 93.2877 85.52V86.348C93.0517 86.288 92.7937 86.274 92.5137 86.306C92.2337 86.338 91.9757 86.45 91.7397 86.642C91.5237 86.81 91.3617 87.012 91.2537 87.248C91.1457 87.48 91.0737 87.728 91.0377 87.992C91.0017 88.252 90.9837 88.51 90.9837 88.766V92H90.1017ZM94.3059 88.598V87.842H97.9059V88.598H94.3059ZM100.107 92V85.04C100.107 84.872 100.115 84.706 100.131 84.542C100.151 84.378 100.189 84.222 100.245 84.074C100.301 83.922 100.389 83.782 100.509 83.654C100.641 83.51 100.785 83.406 100.941 83.342C101.097 83.274 101.259 83.23 101.427 83.21C101.599 83.19 101.767 83.18 101.931 83.18H102.759V83.924H101.991C101.655 83.924 101.403 84.006 101.235 84.17C101.071 84.334 100.989 84.592 100.989 84.944V92H100.107ZM98.985 86.276V85.52H102.759V86.276H98.985ZM103.719 92V85.52H104.511V87.08L104.355 86.876C104.427 86.684 104.521 86.508 104.637 86.348C104.753 86.184 104.879 86.05 105.015 85.946C105.183 85.798 105.379 85.686 105.603 85.61C105.827 85.53 106.053 85.484 106.281 85.472C106.509 85.456 106.717 85.472 106.905 85.52V86.348C106.669 86.288 106.411 86.274 106.131 86.306C105.851 86.338 105.593 86.45 105.357 86.642C105.141 86.81 104.979 87.012 104.871 87.248C104.763 87.48 104.691 87.728 104.655 87.992C104.619 88.252 104.601 88.51 104.601 88.766V92H103.719ZM108.163 84.29V83.3H109.045V84.29H108.163ZM108.163 92V85.52H109.045V92H108.163ZM113.586 92.18C112.954 92.18 112.406 92.04 111.942 91.76C111.482 91.48 111.124 91.086 110.868 90.578C110.612 90.07 110.484 89.474 110.484 88.79C110.484 88.082 110.61 87.47 110.862 86.954C111.114 86.438 111.468 86.04 111.924 85.76C112.384 85.48 112.926 85.34 113.55 85.34C114.19 85.34 114.736 85.488 115.188 85.784C115.64 86.076 115.982 86.496 116.214 87.044C116.446 87.592 116.552 88.246 116.532 89.006H115.632V88.694C115.616 87.854 115.434 87.22 115.086 86.792C114.742 86.364 114.238 86.15 113.574 86.15C112.878 86.15 112.344 86.376 111.972 86.828C111.604 87.28 111.42 87.924 111.42 88.76C111.42 89.576 111.604 90.21 111.972 90.662C112.344 91.11 112.87 91.334 113.55 91.334C114.014 91.334 114.418 91.228 114.762 91.016C115.11 90.8 115.384 90.49 115.584 90.086L116.406 90.404C116.15 90.968 115.772 91.406 115.272 91.718C114.776 92.026 114.214 92.18 113.586 92.18ZM111.108 89.006V88.268H116.058V89.006H111.108ZM122.368 92V88.694C122.368 88.334 122.334 88.004 122.266 87.704C122.198 87.4 122.088 87.136 121.936 86.912C121.788 86.684 121.594 86.508 121.354 86.384C121.118 86.26 120.83 86.198 120.49 86.198C120.178 86.198 119.902 86.252 119.662 86.36C119.426 86.468 119.226 86.624 119.062 86.828C118.902 87.028 118.78 87.272 118.696 87.56C118.612 87.848 118.57 88.176 118.57 88.544L117.946 88.406C117.946 87.742 118.062 87.184 118.294 86.732C118.526 86.28 118.846 85.938 119.254 85.706C119.662 85.474 120.13 85.358 120.658 85.358C121.046 85.358 121.384 85.418 121.672 85.538C121.964 85.658 122.21 85.82 122.41 86.024C122.614 86.228 122.778 86.462 122.902 86.726C123.026 86.986 123.116 87.264 123.172 87.56C123.228 87.852 123.256 88.144 123.256 88.436V92H122.368ZM117.682 92V85.52H118.48V87.116H118.57V92H117.682ZM127.292 92.18C126.688 92.18 126.172 92.03 125.744 91.73C125.316 91.426 124.988 91.016 124.76 90.5C124.532 89.984 124.418 89.402 124.418 88.754C124.418 88.11 124.53 87.53 124.754 87.014C124.982 86.498 125.308 86.09 125.732 85.79C126.156 85.49 126.664 85.34 127.256 85.34C127.864 85.34 128.376 85.488 128.792 85.784C129.208 86.08 129.522 86.486 129.734 87.002C129.95 87.514 130.058 88.098 130.058 88.754C130.058 89.398 129.952 89.98 129.74 90.5C129.528 91.016 129.216 91.426 128.804 91.73C128.392 92.03 127.888 92.18 127.292 92.18ZM127.382 91.358C127.842 91.358 128.222 91.246 128.522 91.022C128.822 90.798 129.046 90.49 129.194 90.098C129.342 89.702 129.416 89.254 129.416 88.754C129.416 88.246 129.342 87.798 129.194 87.41C129.046 87.018 128.822 86.712 128.522 86.492C128.226 86.272 127.852 86.162 127.4 86.162C126.936 86.162 126.552 86.276 126.248 86.504C125.944 86.732 125.718 87.042 125.57 87.434C125.426 87.826 125.354 88.266 125.354 88.754C125.354 89.246 125.428 89.69 125.576 90.086C125.728 90.478 125.954 90.788 126.254 91.016C126.554 91.244 126.93 91.358 127.382 91.358ZM129.416 92V87.122H129.32V83.36H130.208V92H129.416ZM132.011 92V83.18H132.893V92H132.011ZM135.616 94.88L136.87 91.478L136.888 92.486L134.05 85.52H134.986L137.314 91.346H136.93L139.078 85.52H139.978L136.498 94.88H135.616ZM146.164 92.18C145.532 92.18 144.984 92.04 144.52 91.76C144.06 91.48 143.702 91.086 143.446 90.578C143.19 90.07 143.062 89.474 143.062 88.79C143.062 88.082 143.188 87.47 143.44 86.954C143.692 86.438 144.046 86.04 144.502 85.76C144.962 85.48 145.504 85.34 146.128 85.34C146.768 85.34 147.314 85.488 147.766 85.784C148.218 86.076 148.56 86.496 148.792 87.044C149.024 87.592 149.13 88.246 149.11 89.006H148.21V88.694C148.194 87.854 148.012 87.22 147.664 86.792C147.32 86.364 146.816 86.15 146.152 86.15C145.456 86.15 144.922 86.376 144.55 86.828C144.182 87.28 143.998 87.924 143.998 88.76C143.998 89.576 144.182 90.21 144.55 90.662C144.922 91.11 145.448 91.334 146.128 91.334C146.592 91.334 146.996 91.228 147.34 91.016C147.688 90.8 147.962 90.49 148.162 90.086L148.984 90.404C148.728 90.968 148.35 91.406 147.85 91.718C147.354 92.026 146.792 92.18 146.164 92.18ZM143.686 89.006V88.268H148.636V89.006H143.686ZM152.956 92.18C152.352 92.18 151.836 92.03 151.408 91.73C150.98 91.426 150.652 91.016 150.424 90.5C150.196 89.984 150.082 89.402 150.082 88.754C150.082 88.11 150.194 87.53 150.418 87.014C150.646 86.498 150.972 86.09 151.396 85.79C151.82 85.49 152.328 85.34 152.92 85.34C153.528 85.34 154.04 85.488 154.456 85.784C154.872 86.08 155.186 86.486 155.398 87.002C155.614 87.514 155.722 88.098 155.722 88.754C155.722 89.398 155.616 89.98 155.404 90.5C155.192 91.016 154.88 91.426 154.468 91.73C154.056 92.03 153.552 92.18 152.956 92.18ZM153.046 91.358C153.506 91.358 153.886 91.246 154.186 91.022C154.486 90.798 154.71 90.49 154.858 90.098C155.006 89.702 155.08 89.254 155.08 88.754C155.08 88.246 155.006 87.798 154.858 87.41C154.71 87.018 154.486 86.712 154.186 86.492C153.89 86.272 153.516 86.162 153.064 86.162C152.6 86.162 152.216 86.276 151.912 86.504C151.608 86.732 151.382 87.042 151.234 87.434C151.09 87.826 151.018 88.266 151.018 88.754C151.018 89.246 151.092 89.69 151.24 90.086C151.392 90.478 151.618 90.788 151.918 91.016C152.218 91.244 152.594 91.358 153.046 91.358ZM155.08 92V87.122H154.984V83.36H155.872V92H155.08ZM157.675 84.29V83.3H158.557V84.29H157.675ZM157.675 92V85.52H158.557V92H157.675ZM163.884 92C163.52 92.076 163.16 92.106 162.804 92.09C162.452 92.074 162.136 91.998 161.856 91.862C161.58 91.726 161.37 91.514 161.226 91.226C161.11 90.986 161.046 90.744 161.034 90.5C161.026 90.252 161.022 89.97 161.022 89.654V83.72H161.898V89.618C161.898 89.89 161.9 90.118 161.904 90.302C161.912 90.482 161.954 90.642 162.03 90.782C162.174 91.05 162.402 91.21 162.714 91.262C163.03 91.314 163.42 91.302 163.884 91.226V92ZM159.636 86.276V85.52H163.884V86.276H159.636ZM167.632 92.18C166.988 92.18 166.438 92.034 165.982 91.742C165.526 91.45 165.176 91.046 164.932 90.53C164.688 90.014 164.566 89.422 164.566 88.754C164.566 88.074 164.69 87.478 164.938 86.966C165.186 86.454 165.538 86.056 165.994 85.772C166.454 85.484 167 85.34 167.632 85.34C168.28 85.34 168.832 85.486 169.288 85.778C169.748 86.066 170.098 86.468 170.338 86.984C170.582 87.496 170.704 88.086 170.704 88.754C170.704 89.434 170.582 90.032 170.338 90.548C170.094 91.06 169.742 91.46 169.282 91.748C168.822 92.036 168.272 92.18 167.632 92.18ZM167.632 91.334C168.352 91.334 168.888 91.096 169.24 90.62C169.592 90.14 169.768 89.518 169.768 88.754C169.768 87.97 169.59 87.346 169.234 86.882C168.882 86.418 168.348 86.186 167.632 86.186C167.148 86.186 166.748 86.296 166.432 86.516C166.12 86.732 165.886 87.034 165.73 87.422C165.578 87.806 165.502 88.25 165.502 88.754C165.502 89.534 165.682 90.16 166.042 90.632C166.402 91.1 166.932 91.334 167.632 91.334ZM172.028 92V85.52H172.82V87.08L172.664 86.876C172.736 86.684 172.83 86.508 172.946 86.348C173.062 86.184 173.188 86.05 173.324 85.946C173.492 85.798 173.688 85.686 173.912 85.61C174.136 85.53 174.362 85.484 174.59 85.472C174.818 85.456 175.026 85.472 175.214 85.52V86.348C174.978 86.288 174.72 86.274 174.44 86.306C174.16 86.338 173.902 86.45 173.666 86.642C173.45 86.81 173.288 87.012 173.18 87.248C173.072 87.48 173 87.728 172.964 87.992C172.928 88.252 172.91 88.51 172.91 88.766V92H172.028ZM175.559 92V90.974H176.585V92H175.559Z" fill="#667185"/>
<path d="M58.115 34L55.189 23.92H56.722L58.843 31.543L60.964 23.927L62.504 23.92L64.625 31.543L66.746 23.92H68.286L65.353 34H63.897L61.734 26.461L59.571 34H58.115ZM69.4605 34V26.44H70.7625V28.274L70.5805 28.036C70.6738 27.7933 70.7951 27.5717 70.9445 27.371C71.0938 27.1657 71.2665 26.9977 71.4625 26.867C71.6538 26.727 71.8661 26.6197 72.0995 26.545C72.3375 26.4657 72.5801 26.419 72.8275 26.405C73.0748 26.3863 73.3128 26.398 73.5415 26.44V27.812C73.2941 27.7467 73.0188 27.728 72.7155 27.756C72.4168 27.784 72.1415 27.8797 71.8895 28.043C71.6515 28.197 71.4625 28.3837 71.3225 28.603C71.1871 28.8223 71.0891 29.0673 71.0285 29.338C70.9678 29.604 70.9375 29.8863 70.9375 30.185V34H69.4605ZM75.0145 25.201V23.78H76.4775V25.201H75.0145ZM75.0145 34V26.44H76.4775V34H75.0145ZM82.9056 34C82.4296 34.0933 81.9629 34.133 81.5056 34.119C81.0483 34.105 80.6399 34.0163 80.2806 33.853C79.9213 33.6897 79.6506 33.433 79.4686 33.083C79.3053 32.7703 79.2166 32.453 79.2026 32.131C79.1933 31.8043 79.1886 31.4357 79.1886 31.025V24.34H80.6586V30.955C80.6586 31.2583 80.6609 31.522 80.6656 31.746C80.6749 31.97 80.7239 32.159 80.8126 32.313C80.9806 32.6023 81.2466 32.768 81.6106 32.81C81.9793 32.8473 82.4109 32.831 82.9056 32.761V34ZM77.7396 27.616V26.44H82.9056V27.616H77.7396ZM87.5107 34.21C86.7594 34.21 86.0991 34.0467 85.5297 33.72C84.9651 33.3887 84.5241 32.929 84.2067 32.341C83.8941 31.7483 83.7377 31.0623 83.7377 30.283C83.7377 29.457 83.8917 28.7407 84.1997 28.134C84.5124 27.5273 84.9464 27.0583 85.5017 26.727C86.0571 26.3957 86.7034 26.23 87.4407 26.23C88.2107 26.23 88.8664 26.4097 89.4077 26.769C89.9491 27.1237 90.3527 27.63 90.6187 28.288C90.8894 28.946 90.9967 29.7277 90.9407 30.633H89.4777V30.101C89.4684 29.2237 89.3004 28.575 88.9737 28.155C88.6517 27.735 88.1594 27.525 87.4967 27.525C86.7641 27.525 86.2134 27.756 85.8447 28.218C85.4761 28.68 85.2917 29.3473 85.2917 30.22C85.2917 31.0507 85.4761 31.6947 85.8447 32.152C86.2134 32.6047 86.7454 32.831 87.4407 32.831C87.8981 32.831 88.2924 32.7283 88.6237 32.523C88.9597 32.313 89.2211 32.0143 89.4077 31.627L90.8427 32.082C90.5487 32.7587 90.1031 33.2837 89.5057 33.657C88.9084 34.0257 88.2434 34.21 87.5107 34.21ZM84.8157 30.633V29.492H90.2127V30.633H84.8157ZM95.314 34V23.92H96.637L100.291 31.501L103.924 23.92H105.261V33.993H103.875V27.098L100.62 34H99.955L96.693 27.098V34H95.314ZM109.357 34.21C108.797 34.21 108.328 34.1073 107.95 33.902C107.572 33.692 107.285 33.4167 107.089 33.076C106.898 32.7307 106.802 32.3527 106.802 31.942C106.802 31.5593 106.87 31.2233 107.005 30.934C107.141 30.6447 107.341 30.3997 107.607 30.199C107.873 29.9937 108.2 29.828 108.587 29.702C108.923 29.604 109.304 29.5177 109.728 29.443C110.153 29.3683 110.599 29.2983 111.065 29.233C111.537 29.1677 112.003 29.1023 112.465 29.037L111.933 29.331C111.943 28.7383 111.817 28.2997 111.555 28.015C111.299 27.7257 110.855 27.581 110.225 27.581C109.829 27.581 109.465 27.6743 109.133 27.861C108.802 28.043 108.571 28.3463 108.44 28.771L107.075 28.351C107.262 27.7023 107.617 27.1867 108.139 26.804C108.667 26.4213 109.367 26.23 110.239 26.23C110.916 26.23 111.504 26.3467 112.003 26.58C112.507 26.8087 112.876 27.1727 113.109 27.672C113.231 27.9193 113.305 28.1807 113.333 28.456C113.361 28.7313 113.375 29.0277 113.375 29.345V34H112.08V32.271L112.332 32.495C112.02 33.0737 111.621 33.5053 111.135 33.79C110.655 34.07 110.062 34.21 109.357 34.21ZM109.616 33.013C110.032 33.013 110.389 32.9407 110.687 32.796C110.986 32.6467 111.226 32.4577 111.408 32.229C111.59 32.0003 111.709 31.7623 111.765 31.515C111.845 31.291 111.889 31.039 111.898 30.759C111.912 30.479 111.919 30.255 111.919 30.087L112.395 30.262C111.933 30.332 111.513 30.395 111.135 30.451C110.757 30.507 110.414 30.563 110.106 30.619C109.803 30.6703 109.532 30.7333 109.294 30.808C109.094 30.878 108.914 30.962 108.755 31.06C108.601 31.158 108.478 31.277 108.384 31.417C108.296 31.557 108.251 31.7273 108.251 31.928C108.251 32.124 108.3 32.306 108.398 32.474C108.496 32.6373 108.646 32.768 108.846 32.866C109.047 32.964 109.304 33.013 109.616 33.013ZM120.499 34V30.283C120.499 29.989 120.473 29.688 120.422 29.38C120.375 29.0673 120.282 28.778 120.142 28.512C120.007 28.246 119.813 28.0313 119.561 27.868C119.314 27.7047 118.989 27.623 118.588 27.623C118.327 27.623 118.079 27.6673 117.846 27.756C117.613 27.84 117.407 27.9777 117.23 28.169C117.057 28.3603 116.92 28.6123 116.817 28.925C116.719 29.2377 116.67 29.618 116.67 30.066L115.76 29.723C115.76 29.037 115.888 28.4327 116.145 27.91C116.402 27.3827 116.77 26.972 117.251 26.678C117.732 26.384 118.313 26.237 118.994 26.237C119.517 26.237 119.955 26.321 120.31 26.489C120.665 26.657 120.952 26.8787 121.171 27.154C121.395 27.4247 121.565 27.721 121.682 28.043C121.799 28.365 121.878 28.68 121.92 28.988C121.962 29.296 121.983 29.5667 121.983 29.8V34H120.499ZM115.186 34V26.44H116.495V28.624H116.67V34H115.186ZM126.655 34.203C126.133 34.203 125.694 34.119 125.339 33.951C124.985 33.783 124.695 33.5637 124.471 33.293C124.252 33.0177 124.084 32.719 123.967 32.397C123.851 32.075 123.771 31.76 123.729 31.452C123.687 31.144 123.666 30.8733 123.666 30.64V26.44H125.15V30.157C125.15 30.451 125.174 30.7543 125.22 31.067C125.272 31.375 125.365 31.662 125.5 31.928C125.64 32.194 125.834 32.4087 126.081 32.572C126.333 32.7353 126.66 32.817 127.061 32.817C127.323 32.817 127.57 32.775 127.803 32.691C128.037 32.6023 128.24 32.4623 128.412 32.271C128.59 32.0797 128.727 31.8277 128.825 31.515C128.928 31.2023 128.979 30.822 128.979 30.374L129.889 30.717C129.889 31.403 129.761 32.0097 129.504 32.537C129.248 33.0597 128.879 33.468 128.398 33.762C127.918 34.056 127.337 34.203 126.655 34.203ZM129.154 34V31.816H128.979V26.44H130.456V34H129.154ZM134.554 34.21C133.994 34.21 133.525 34.1073 133.147 33.902C132.769 33.692 132.482 33.4167 132.286 33.076C132.095 32.7307 131.999 32.3527 131.999 31.942C131.999 31.5593 132.067 31.2233 132.202 30.934C132.338 30.6447 132.538 30.3997 132.804 30.199C133.07 29.9937 133.397 29.828 133.784 29.702C134.12 29.604 134.501 29.5177 134.925 29.443C135.35 29.3683 135.796 29.2983 136.262 29.233C136.734 29.1677 137.2 29.1023 137.662 29.037L137.13 29.331C137.14 28.7383 137.014 28.2997 136.752 28.015C136.496 27.7257 136.052 27.581 135.422 27.581C135.026 27.581 134.662 27.6743 134.33 27.861C133.999 28.043 133.768 28.3463 133.637 28.771L132.272 28.351C132.459 27.7023 132.814 27.1867 133.336 26.804C133.864 26.4213 134.564 26.23 135.436 26.23C136.113 26.23 136.701 26.3467 137.2 26.58C137.704 26.8087 138.073 27.1727 138.306 27.672C138.428 27.9193 138.502 28.1807 138.53 28.456C138.558 28.7313 138.572 29.0277 138.572 29.345V34H137.277V32.271L137.529 32.495C137.217 33.0737 136.818 33.5053 136.332 33.79C135.852 34.07 135.259 34.21 134.554 34.21ZM134.813 33.013C135.229 33.013 135.586 32.9407 135.884 32.796C136.183 32.6467 136.423 32.4577 136.605 32.229C136.787 32.0003 136.906 31.7623 136.962 31.515C137.042 31.291 137.086 31.039 137.095 30.759C137.109 30.479 137.116 30.255 137.116 30.087L137.592 30.262C137.13 30.332 136.71 30.395 136.332 30.451C135.954 30.507 135.611 30.563 135.303 30.619C135 30.6703 134.729 30.7333 134.491 30.808C134.291 30.878 134.111 30.962 133.952 31.06C133.798 31.158 133.675 31.277 133.581 31.417C133.493 31.557 133.448 31.7273 133.448 31.928C133.448 32.124 133.497 32.306 133.595 32.474C133.693 32.6373 133.843 32.768 134.043 32.866C134.244 32.964 134.501 33.013 134.813 33.013ZM140.53 34V23.71H141.993V34H140.53ZM144.235 34V23.71H145.698V34H144.235ZM148.822 37.36L150.285 33.377L150.306 34.553L147.009 26.44H148.535L150.999 32.705H150.551L152.903 26.44H154.387L150.215 37.36H148.822Z" fill="#475367"/>
<path d="M13 19C13 15.6863 15.6863 13 19 13H39C42.3137 13 45 15.6863 45 19V39C45 42.3137 42.3137 45 39 45H19C15.6863 45 13 42.3137 13 39V19Z" fill="#FEF1E6"/>
<mask id="mask0_1748_2031" style="mask-type:alpha" maskUnits="userSpaceOnUse" x="17" y="17" width="24" height="24">
<rect x="17" y="17" width="24" height="24" fill="#D9D9D9"/>
</mask>
<g mask="url(#mask0_1748_2031)">
<path d="M23.5951 36.1989C23.0998 36.1989 22.6771 36.0226 22.3271 35.6701C21.9771 35.3176 21.8021 34.8939 21.8021 34.3989V33.4989C21.8021 33.2439 21.8878 33.0301 22.0593 32.8576C22.2308 32.6851 22.4433 32.5989 22.6968 32.5989C22.9503 32.5989 23.1646 32.6851 23.3396 32.8576C23.5146 33.0301 23.6021 33.2439 23.6021 33.4989V34.3989H34.4021V33.4989C34.4021 33.2439 34.4878 33.0301 34.6593 32.8576C34.8308 32.6851 35.0433 32.5989 35.2968 32.5989C35.5503 32.5989 35.7646 32.6851 35.9396 32.8576C36.1146 33.0301 36.2021 33.2439 36.2021 33.4989V34.3989C36.2021 34.8939 36.0258 35.3176 35.6731 35.6701C35.3204 36.0226 34.8964 36.1989 34.4011 36.1989H23.5951ZM28.1021 24.0489L26.1021 26.0489C25.9188 26.2322 25.7063 26.3239 25.4646 26.3239C25.2229 26.3239 25.0064 26.2322 24.8151 26.0489C24.6398 25.8655 24.5521 25.653 24.5521 25.4114C24.5521 25.1697 24.6438 24.9572 24.8271 24.7739L28.3771 21.2239C28.4671 21.1405 28.5646 21.078 28.6696 21.0364C28.7746 20.9947 28.8871 20.9739 29.0071 20.9739C29.1271 20.9739 29.2396 20.9947 29.3446 21.0364C29.4496 21.078 29.5438 21.1405 29.6271 21.2239L33.1771 24.7739C33.3604 24.9572 33.4521 25.1655 33.4521 25.3989C33.4521 25.6322 33.3644 25.8405 33.1891 26.0239C32.9978 26.2072 32.7813 26.2989 32.5396 26.2989C32.2979 26.2989 32.0854 26.2072 31.9021 26.0239L29.9021 24.0489V31.6989C29.9021 31.9539 29.8163 32.1676 29.6448 32.3401C29.4733 32.5126 29.2608 32.5989 29.0073 32.5989C28.7538 32.5989 28.5396 32.5126 28.3646 32.3401C28.1896 32.1676 28.1021 31.9539 28.1021 31.6989V24.0489Z" fill="#FAA666"/>
</g>
<defs>
<linearGradient id="paint0_linear_1748_2031" x1="103" y1="1" x2="103" y2="141" gradientUnits="userSpaceOnUse">
<stop stop-color="#E4E7EC"/>
<stop offset="1" stop-color="white"/>
</linearGradient>
</defs>
</svg>
