<svg xmlns="http://www.w3.org/2000/svg" width="206" height="142" fill="none" xmlns:v="https://vecta.io/nano"><rect x=".5" y=".5" width="205" height="141" rx="10.5" fill="#fff" stroke="url(#B)"/><path d="M15.84 72v-8.64h.81l3.396 7.266 3.378-7.266h.822v8.634h-.84v-6.666L20.328 72h-.57l-3.072-6.672V72h-.846zm11.944.18c-.488 0-.898-.088-1.23-.264a1.79 1.79 0 0 1-.738-.702c-.164-.292-.246-.61-.246-.954 0-.352.07-.652.21-.9s.338-.458.582-.618.534-.282.858-.366l1.086-.21 1.17-.162 1.008-.138-.312.192c.012-.64-.112-1.114-.372-1.422s-.712-.462-1.356-.462c-.444 0-.82.1-1.128.3s-.518.516-.642.948l-.858-.252c.148-.58.446-1.03.894-1.35s1.03-.48 1.746-.48c.592 0 1.094.112 1.506.336s.71.54.882.96c.08.188.132.398.156.63s.036.468.036.708V72h-.786v-1.626l.228.096c-.22.556-.562.98-1.026 1.272s-1.02.438-1.668.438zm.102-.762c.412 0 .772-.074 1.08-.222s.556-.35.744-.606a2.08 2.08 0 0 0 .366-.876 3.28 3.28 0 0 0 .078-.684l.006-.564.336.174-.978.12-1.032.138-.912.186c-.184.052-.362.126-.534.222s-.314.216-.426.372-.162.35-.162.582c0 .188.046.37.138.546s.248.322.456.438.492.174.84.174zm9.392.582v-3.306a4.48 4.48 0 0 0-.102-.99c-.068-.304-.178-.568-.33-.792a1.51 1.51 0 0 0-.582-.528c-.236-.124-.524-.186-.864-.186-.312 0-.588.054-.828.162a1.63 1.63 0 0 0-.6.468c-.16.2-.282.444-.366.732s-.126.616-.126.984l-.624-.138c0-.664.116-1.222.348-1.674s.552-.794.96-1.026a2.79 2.79 0 0 1 1.404-.348c.388 0 .726.06 1.014.18s.538.282.738.486a2.47 2.47 0 0 1 .492.702c.124.26.214.538.27.834a4.64 4.64 0 0 1 .084.876V72h-.888zm-4.686 0v-6.48h.798v1.596h.09V72h-.888zm9.609.162c-.388 0-.728-.06-1.02-.18s-.534-.282-.738-.486-.362-.436-.486-.696-.214-.542-.27-.834-.084-.59-.084-.882V65.52h.888v3.306c0 .356.034.686.102.99s.176.57.324.798.346.398.582.522.53.186.87.186c.312 0 .586-.054.822-.162s.44-.262.6-.462.288-.45.372-.738.126-.62.126-.984l.624.138c0 .664-.116 1.222-.348 1.674s-.552.794-.96 1.026a2.79 2.79 0 0 1-1.404.348zM44.379 72v-1.596h-.09V65.52h.882V72h-.792zm4.323.18c-.488 0-.898-.088-1.23-.264a1.79 1.79 0 0 1-.738-.702c-.164-.292-.246-.61-.246-.954 0-.352.07-.652.21-.9s.338-.458.582-.618.534-.282.858-.366l1.086-.21 1.17-.162 1.008-.138-.312.192c.012-.64-.112-1.114-.372-1.422s-.712-.462-1.356-.462c-.444 0-.82.1-1.128.3s-.518.516-.642.948l-.858-.252c.148-.58.446-1.03.894-1.35s1.03-.48 1.746-.48c.592 0 1.094.112 1.506.336s.71.54.882.96c.08.188.132.398.156.63s.036.468.036.708V72h-.786v-1.626l.228.096c-.22.556-.562.98-1.026 1.272s-1.02.438-1.668.438zm.102-.762c.412 0 .772-.074 1.08-.222s.556-.35.744-.606a2.08 2.08 0 0 0 .366-.876 3.28 3.28 0 0 0 .078-.684l.006-.564.336.174-.978.12-1.032.138-.912.186c-.184.052-.362.126-.534.222s-.314.216-.426.372-.162.35-.162.582c0 .188.046.37.138.546s.248.322.456.438.492.174.84.174zm4.832.582v-8.82h.882V72h-.882zm2.801 0v-8.82h.882V72h-.882zm3.605 2.88l1.254-3.402.018 1.008-2.838-6.966h.936l2.328 5.826h-.384l2.148-5.826h.9l-3.48 9.36h-.882zM69.228 72l-1.98-6.486.882.006 1.536 5.034 1.542-5.034h.804l1.542 5.034 1.548-5.034h.876L73.998 72h-.768l-1.62-5.16L69.996 72h-.768zm7.831 0v-6.48h.792v1.56l-.156-.204c.072-.192.166-.368.282-.528a1.83 1.83 0 0 1 .378-.402 1.71 1.71 0 0 1 .588-.336 2.38 2.38 0 0 1 .678-.138 1.96 1.96 0 0 1 .624.048v.828a2.14 2.14 0 0 0-.774-.042c-.28.032-.538.144-.774.336a1.61 1.61 0 0 0-.486.606c-.108.232-.18.48-.216.744a5.64 5.64 0 0 0-.054.774V72h-.882zm4.444-7.71v-.99h.882v.99h-.882zm0 7.71v-6.48h.882V72h-.882zm6.209 0a4.32 4.32 0 0 1-1.08.09c-.352-.016-.668-.092-.948-.228s-.486-.348-.63-.636a1.87 1.87 0 0 1-.192-.726l-.012-.846V63.72h.876v5.898l.006.684c.008.18.05.34.126.48.144.268.372.428.684.48s.706.04 1.17-.036V72zm-4.248-5.724v-.756h4.248v.756h-4.248zm8.032 5.904c-.632 0-1.18-.14-1.644-.42a2.85 2.85 0 0 1-1.074-1.182c-.256-.508-.384-1.104-.384-1.788 0-.708.126-1.32.378-1.836s.606-.914 1.062-1.194 1.002-.42 1.626-.42c.64 0 1.186.148 1.638.444s.794.712 1.026 1.26.338 1.202.318 1.962h-.9v-.312c-.016-.84-.198-1.474-.546-1.902s-.848-.642-1.512-.642c-.696 0-1.23.226-1.602.678s-.552 1.096-.552 1.932c0 .816.184 1.45.552 1.902s.898.672 1.578.672c.464 0 .868-.106 1.212-.318s.622-.526.822-.93l.822.318c-.256.564-.634 1.002-1.134 1.314a3.13 3.13 0 0 1-1.686.462zm-2.478-3.174v-.738h4.95v.738h-4.95zM101.704 72a4.32 4.32 0 0 1-1.08.09c-.352-.016-.668-.092-.948-.228s-.486-.348-.63-.636a1.87 1.87 0 0 1-.192-.726l-.012-.846V63.72h.876v5.898l.006.684c.008.18.05.34.126.48.144.268.372.428.684.48s.706.04 1.17-.036V72zm-4.248-5.724v-.756h4.248v.756h-4.248zM102.981 72v-6.48h.792v1.56l-.156-.204c.072-.192.166-.368.282-.528a1.83 1.83 0 0 1 .378-.402 1.71 1.71 0 0 1 .588-.336 2.38 2.38 0 0 1 .678-.138 1.96 1.96 0 0 1 .624.048v.828a2.14 2.14 0 0 0-.774-.042c-.28.032-.538.144-.774.336a1.61 1.61 0 0 0-.486.606c-.108.232-.18.48-.216.744a5.64 5.64 0 0 0-.054.774V72h-.882zm5.932.18c-.488 0-.898-.088-1.23-.264a1.79 1.79 0 0 1-.738-.702c-.164-.292-.246-.61-.246-.954 0-.352.07-.652.21-.9s.338-.458.582-.618.534-.282.858-.366l1.086-.21 1.17-.162 1.008-.138-.312.192c.012-.64-.112-1.114-.372-1.422s-.712-.462-1.356-.462c-.444 0-.82.1-1.128.3s-.518.516-.642.948l-.858-.252c.148-.58.446-1.03.894-1.35s1.03-.48 1.746-.48c.592 0 1.094.112 1.506.336s.71.54.882.96c.08.188.132.398.156.63s.036.468.036.708V72h-.786v-1.626l.228.096c-.22.556-.562.98-1.026 1.272s-1.02.438-1.668.438zm.102-.762c.412 0 .772-.074 1.08-.222s.556-.35.744-.606a2.08 2.08 0 0 0 .366-.876 3.28 3.28 0 0 0 .078-.684l.006-.564.336.174-.978.12-1.032.138-.912.186c-.184.052-.362.126-.534.222s-.314.216-.426.372-.162.35-.162.582c0 .188.046.37.138.546s.248.322.456.438.492.174.84.174zm4.832-7.128v-.99h.882v.99h-.882zm0 7.71v-6.48h.882V72h-.882zm7.361 0v-3.306a4.48 4.48 0 0 0-.102-.99c-.068-.304-.178-.568-.33-.792a1.51 1.51 0 0 0-.582-.528c-.236-.124-.524-.186-.864-.186-.312 0-.588.054-.828.162a1.63 1.63 0 0 0-.6.468c-.16.2-.282.444-.366.732s-.126.616-.126.984l-.624-.138c0-.664.116-1.222.348-1.674s.552-.794.96-1.026a2.79 2.79 0 0 1 1.404-.348c.388 0 .726.06 1.014.18s.538.282.738.486a2.47 2.47 0 0 1 .492.702c.124.26.214.538.27.834a4.64 4.64 0 0 1 .084.876V72h-.888zm-4.686 0v-6.48h.798v1.596h.09V72h-.888zm7.251-7.71v-.99h.882v.99h-.882zm0 7.71v-6.48h.882V72h-.882zm7.36 0v-3.306a4.48 4.48 0 0 0-.102-.99c-.068-.304-.178-.568-.33-.792a1.51 1.51 0 0 0-.582-.528c-.236-.124-.524-.186-.864-.186-.312 0-.588.054-.828.162a1.63 1.63 0 0 0-.6.468c-.16.2-.282.444-.366.732s-.126.616-.126.984l-.624-.138c0-.664.116-1.222.348-1.674s.552-.794.96-1.026a2.79 2.79 0 0 1 1.404-.348c.388 0 .726.06 1.014.18s.538.282.738.486a2.47 2.47 0 0 1 .492.702c.124.26.214.538.27.834a4.64 4.64 0 0 1 .084.876V72h-.888zm-4.686 0v-6.48h.798v1.596h.09V72h-.888zm9.705 3.06a3.32 3.32 0 0 1-.984-.15c-.32-.096-.616-.25-.888-.462a2.55 2.55 0 0 1-.684-.816l.798-.444c.18.36.432.618.756.774s.662.24 1.002.24c.468 0 .846-.088 1.134-.264a1.48 1.48 0 0 0 .636-.768c.132-.34.196-.764.192-1.272V70.17h.102v-4.65h.786v6.39l-.018.528c-.008.172-.026.34-.054.504-.076.484-.234.882-.474 1.194a2.11 2.11 0 0 1-.936.696c-.384.152-.84.228-1.368.228zm-.06-2.88c-.604 0-1.12-.15-1.548-.45s-.756-.714-.984-1.23-.342-1.098-.342-1.746.112-1.224.336-1.74.554-.924.978-1.224.932-.45 1.524-.45c.608 0 1.12.148 1.536.444s.73.702.942 1.218.324 1.096.324 1.752c0 .644-.106 1.226-.318 1.746s-.524.926-.936 1.23-.916.45-1.512.45zm.09-.822c.46 0 .84-.112 1.14-.336s.524-.532.672-.924.222-.844.222-1.344c0-.508-.074-.956-.222-1.344s-.372-.698-.672-.918-.67-.33-1.122-.33c-.464 0-.848.114-1.152.342s-.53.538-.678.93-.216.832-.216 1.32.074.936.222 1.332a2.08 2.08 0 0 0 .678.93c.3.228.676.342 1.128.342zm9.588.822c-.652 0-1.204-.146-1.656-.438a2.79 2.79 0 0 1-1.032-1.206c-.232-.516-.352-1.108-.36-1.776.008-.68.132-1.276.372-1.788s.586-.916 1.038-1.2 1-.432 1.644-.432c.656 0 1.226.16 1.71.48a2.42 2.42 0 0 1 1.002 1.314l-.864.276c-.152-.388-.394-.688-.726-.9s-.704-.324-1.128-.324c-.476 0-.87.11-1.182.33a1.92 1.92 0 0 0-.696.906c-.152.388-.23.834-.234 1.338.008.776.188 1.4.54 1.872s.876.702 1.572.702c.44 0 .814-.1 1.122-.3s.548-.5.708-.888l.888.264c-.24.576-.592 1.016-1.056 1.32s-1.018.45-1.662.45zm6.487 0c-.644 0-1.194-.146-1.65-.438a2.85 2.85 0 0 1-1.05-1.212c-.244-.516-.366-1.108-.366-1.776 0-.68.124-1.276.372-1.788s.6-.91 1.056-1.194 1.006-.432 1.638-.432c.648 0 1.2.146 1.656.438s.81.69 1.05 1.206.366 1.102.366 1.77c0 .68-.122 1.278-.366 1.794s-.596.912-1.056 1.2-1.01.432-1.65.432zm0-.846c.72 0 1.256-.238 1.608-.714s.528-1.102.528-1.866c0-.784-.178-1.408-.534-1.872s-.886-.696-1.602-.696c-.484 0-.884.11-1.2.33s-.546.518-.702.906-.228.828-.228 1.332c0 .78.18 1.406.54 1.878s.89.702 1.59.702zm9.076.666v-3.306a4.48 4.48 0 0 0-.102-.99c-.068-.304-.178-.568-.33-.792a1.51 1.51 0 0 0-.582-.528c-.236-.124-.524-.186-.864-.186-.312 0-.588.054-.828.162a1.63 1.63 0 0 0-.6.468c-.16.2-.282.444-.366.732s-.126.616-.126.984l-.624-.138c0-.664.116-1.222.348-1.674s.552-.794.96-1.026a2.79 2.79 0 0 1 1.404-.348c.388 0 .726.06 1.014.18s.538.282.738.486a2.47 2.47 0 0 1 .492.702c.124.26.214.538.27.834a4.64 4.64 0 0 1 .084.876V72h-.888zm-4.686 0v-6.48h.798v1.596h.09V72h-.888zm10.659 0a4.32 4.32 0 0 1-1.08.09c-.352-.016-.668-.092-.948-.228s-.486-.348-.63-.636a1.87 1.87 0 0 1-.192-.726l-.012-.846V63.72h.876v5.898l.006.684c.008.18.05.34.126.48.144.268.372.428.684.48s.706.04 1.17-.036V72zm-4.248-5.724v-.756h4.248v.756h-4.248zm8.032 5.904c-.632 0-1.18-.14-1.644-.42a2.85 2.85 0 0 1-1.074-1.182c-.256-.508-.384-1.104-.384-1.788 0-.708.126-1.32.378-1.836s.606-.914 1.062-1.194 1.002-.42 1.626-.42c.64 0 1.186.148 1.638.444s.794.712 1.026 1.26.338 1.202.318 1.962h-.9v-.312c-.016-.84-.198-1.474-.546-1.902s-.848-.642-1.512-.642c-.696 0-1.23.226-1.602.678s-.552 1.096-.552 1.932c0 .816.184 1.45.552 1.902s.898.672 1.578.672c.464 0 .868-.106 1.212-.318s.622-.526.822-.93l.822.318c-.256.564-.634 1.002-1.134 1.314a3.13 3.13 0 0 1-1.686.462zm-2.478-3.174v-.738h4.95v.738h-4.95zM179.872 72v-3.306a4.48 4.48 0 0 0-.102-.99c-.068-.304-.178-.568-.33-.792a1.51 1.51 0 0 0-.582-.528c-.236-.124-.524-.186-.864-.186-.312 0-.588.054-.828.162a1.63 1.63 0 0 0-.6.468c-.16.2-.282.444-.366.732s-.126.616-.126.984l-.624-.138c0-.664.116-1.222.348-1.674s.552-.794.96-1.026a2.79 2.79 0 0 1 1.404-.348c.388 0 .726.06 1.014.18s.538.282.738.486a2.47 2.47 0 0 1 .492.702c.124.26.214.538.27.834a4.64 4.64 0 0 1 .084.876V72h-.888zm-4.686 0v-6.48h.798v1.596h.09V72h-.888zm10.659 0a4.32 4.32 0 0 1-1.08.09c-.352-.016-.668-.092-.948-.228s-.486-.348-.63-.636a1.87 1.87 0 0 1-.192-.726l-.012-.846V63.72h.876v5.898l.006.684c.008.18.05.34.126.48.144.268.372.428.684.48s.706.04 1.17-.036V72zm-4.248-5.724v-.756h4.248v.756h-4.248zM18.318 92.162c-.388 0-.728-.06-1.02-.18s-.534-.282-.738-.486-.362-.436-.486-.696-.214-.542-.27-.834-.084-.59-.084-.882V85.52h.888v3.306c0 .356.034.686.102.99s.176.57.324.798.346.398.582.522.53.186.87.186c.312 0 .586-.054.822-.162s.44-.262.6-.462.288-.45.372-.738.126-.62.126-.984l.624.138c0 .664-.116 1.222-.348 1.674s-.552.794-.96 1.026a2.79 2.79 0 0 1-1.404.348zM20.496 92v-1.596h-.09V85.52h.882V92h-.792zm4.887.174c-.76 0-1.386-.164-1.878-.492a2.05 2.05 0 0 1-.9-1.368l.9-.15c.096.368.314.662.654.882s.768.324 1.272.324c.492 0 .88-.102 1.164-.306s.426-.49.426-.846c0-.2-.046-.362-.138-.486s-.27-.246-.546-.354-.688-.236-1.236-.384c-.588-.16-1.048-.32-1.38-.48s-.568-.344-.708-.552-.21-.47-.21-.774a1.56 1.56 0 0 1 .312-.966c.208-.28.496-.496.864-.648s.796-.234 1.284-.234.924.08 1.308.24.7.376.936.66a1.85 1.85 0 0 1 .42.99l-.9.162c-.06-.38-.25-.68-.57-.9s-.718-.34-1.206-.348c-.46-.012-.834.076-1.122.264s-.432.43-.432.738a.67.67 0 0 0 .156.444c.104.12.292.234.564.342a10.34 10.34 0 0 0 1.176.354c.596.152 1.064.312 1.404.48s.582.366.726.594.216.51.216.846c0 .612-.228 1.094-.684 1.446s-1.076.522-1.872.522zm4.007-7.884v-.99h.882v.99h-.882zm0 7.71v-6.48h.882V92h-.882zm7.361 0v-3.306a4.48 4.48 0 0 0-.102-.99c-.068-.304-.178-.568-.33-.792a1.51 1.51 0 0 0-.582-.528c-.236-.124-.524-.186-.864-.186-.312 0-.588.054-.828.162a1.63 1.63 0 0 0-.6.468c-.16.2-.282.444-.366.732s-.126.616-.126.984l-.624-.138c0-.664.116-1.222.348-1.674s.552-.794.96-1.026a2.79 2.79 0 0 1 1.404-.348c.388 0 .726.06 1.014.18s.538.282.738.486a2.47 2.47 0 0 1 .492.702c.124.26.214.538.27.834a4.64 4.64 0 0 1 .084.876V92h-.888zm-4.686 0v-6.48h.798v1.596h.09V92h-.888zm9.705 3.06a3.32 3.32 0 0 1-.984-.15c-.32-.096-.616-.25-.888-.462a2.55 2.55 0 0 1-.684-.816l.798-.444c.18.36.432.618.756.774s.662.24 1.002.24c.468 0 .846-.088 1.134-.264a1.48 1.48 0 0 0 .636-.768c.132-.34.196-.764.192-1.272V90.17h.102v-4.65h.786v6.39l-.018.528c-.008.172-.026.34-.054.504-.076.484-.234.882-.474 1.194a2.11 2.11 0 0 1-.936.696c-.384.152-.84.228-1.368.228zm-.06-2.88c-.604 0-1.12-.15-1.548-.45s-.756-.714-.984-1.23-.342-1.098-.342-1.746.112-1.224.336-1.74.554-.924.978-1.224.932-.45 1.524-.45c.608 0 1.12.148 1.536.444s.73.702.942 1.218.324 1.096.324 1.752c0 .644-.106 1.226-.318 1.746s-.524.926-.936 1.23-.916.45-1.512.45zm.09-.822c.46 0 .84-.112 1.14-.336s.524-.532.672-.924.222-.844.222-1.344c0-.508-.074-.956-.222-1.344s-.372-.698-.672-.918-.67-.33-1.122-.33c-.464 0-.848.114-1.152.342s-.53.538-.678.93-.216.832-.216 1.32.074.936.222 1.332a2.08 2.08 0 0 0 .678.93c.3.228.676.342 1.128.342zm9.606.822c-.644 0-1.194-.146-1.65-.438a2.85 2.85 0 0 1-1.05-1.212c-.244-.516-.366-1.108-.366-1.776 0-.68.124-1.276.372-1.788s.6-.91 1.056-1.194 1.006-.432 1.638-.432c.648 0 1.2.146 1.656.438s.81.69 1.05 1.206.366 1.102.366 1.77c0 .68-.122 1.278-.366 1.794s-.596.912-1.056 1.2-1.01.432-1.65.432zm0-.846c.72 0 1.256-.238 1.608-.714s.528-1.102.528-1.866c0-.784-.178-1.408-.534-1.872s-.886-.696-1.602-.696c-.484 0-.884.11-1.2.33s-.546.518-.702.906-.228.828-.228 1.332c0 .78.18 1.406.54 1.878s.89.702 1.59.702zm6.874.828c-.388 0-.728-.06-1.02-.18s-.534-.282-.738-.486-.362-.436-.486-.696-.214-.542-.27-.834-.084-.59-.084-.882V85.52h.888v3.306c0 .356.034.686.102.99s.176.57.324.798.346.398.582.522.53.186.87.186c.312 0 .586-.054.822-.162s.44-.262.6-.462.288-.45.372-.738.126-.62.126-.984l.624.138c0 .664-.116 1.222-.348 1.674s-.552.794-.96 1.026a2.79 2.79 0 0 1-1.404.348zM60.457 92v-1.596h-.09V85.52h.882V92h-.792zm2.469 0v-6.48h.792v1.56l-.156-.204c.072-.192.166-.368.282-.528a1.83 1.83 0 0 1 .378-.402 1.71 1.71 0 0 1 .588-.336 2.38 2.38 0 0 1 .678-.138 1.96 1.96 0 0 1 .624.048v.828a2.14 2.14 0 0 0-.774-.042c-.28.032-.538.144-.774.336a1.61 1.61 0 0 0-.486.606c-.108.232-.18.48-.216.744a5.64 5.64 0 0 0-.054.774V92h-.882zm9.205.162c-.388 0-.728-.06-1.02-.18s-.534-.282-.738-.486-.362-.436-.486-.696-.214-.542-.27-.834-.084-.59-.084-.882V85.52h.888v3.306c0 .356.034.686.102.99s.176.57.324.798.346.398.582.522.53.186.87.186c.312 0 .586-.054.822-.162s.44-.262.6-.462.288-.45.372-.738.126-.62.126-.984l.624.138c0 .664-.116 1.222-.348 1.674s-.552.794-.96 1.026a2.79 2.79 0 0 1-1.404.348zM74.309 92v-1.596h-.09V85.52h.882V92h-.792zm4.887.174c-.76 0-1.386-.164-1.878-.492a2.05 2.05 0 0 1-.9-1.368l.9-.15c.096.368.314.662.654.882s.768.324 1.272.324c.492 0 .88-.102 1.164-.306s.426-.49.426-.846c0-.2-.046-.362-.138-.486s-.27-.246-.546-.354-.688-.236-1.236-.384c-.588-.16-1.048-.32-1.38-.48s-.568-.344-.708-.552-.21-.47-.21-.774a1.56 1.56 0 0 1 .312-.966c.208-.28.496-.496.864-.648s.796-.234 1.284-.234.924.08 1.308.24.7.376.936.66a1.85 1.85 0 0 1 .42.99l-.9.162c-.06-.38-.25-.68-.57-.9s-.718-.34-1.206-.348c-.46-.012-.834.076-1.122.264s-.432.43-.432.738a.67.67 0 0 0 .156.444c.104.12.292.234.564.342a10.34 10.34 0 0 0 1.176.354c.596.152 1.064.312 1.404.48s.582.366.726.594.216.51.216.846c0 .612-.228 1.094-.684 1.446s-1.076.522-1.872.522zm6.629.006c-.632 0-1.18-.14-1.644-.42a2.85 2.85 0 0 1-1.074-1.182c-.256-.508-.384-1.104-.384-1.788 0-.708.126-1.32.378-1.836s.606-.914 1.062-1.194 1.002-.42 1.626-.42c.64 0 1.186.148 1.638.444s.794.712 1.026 1.26.338 1.202.318 1.962h-.9v-.312c-.016-.84-.198-1.474-.546-1.902s-.848-.642-1.512-.642c-.696 0-1.23.226-1.602.678s-.552 1.096-.552 1.932c0 .816.184 1.45.552 1.902s.898.672 1.578.672c.464 0 .868-.106 1.212-.318s.622-.526.822-.93l.822.318c-.256.564-.634 1.002-1.134 1.314a3.13 3.13 0 0 1-1.686.462zm-2.478-3.174v-.738h4.95v.738h-4.95zM90.102 92v-6.48h.792v1.56l-.156-.204c.072-.192.166-.368.282-.528a1.83 1.83 0 0 1 .378-.402 1.71 1.71 0 0 1 .588-.336 2.38 2.38 0 0 1 .678-.138 1.96 1.96 0 0 1 .624.048v.828a2.14 2.14 0 0 0-.774-.042c-.28.032-.538.144-.774.336a1.61 1.61 0 0 0-.486.606c-.108.232-.18.48-.216.744a5.64 5.64 0 0 0-.054.774V92h-.882zm4.204-3.402v-.756h3.6v.756h-3.6zM100.107 92v-6.96l.024-.498a2 2 0 0 1 .114-.468c.056-.152.144-.292.264-.42.132-.144.276-.248.432-.312a1.72 1.72 0 0 1 .486-.132c.172-.02.34-.03.504-.03h.828v.744h-.768c-.336 0-.588.082-.756.246s-.246.422-.246.774V92h-.882zm-1.122-5.724v-.756h3.774v.756h-3.774zM103.719 92v-6.48h.792v1.56l-.156-.204c.072-.192.166-.368.282-.528a1.83 1.83 0 0 1 .378-.402 1.71 1.71 0 0 1 .588-.336 2.38 2.38 0 0 1 .678-.138 1.96 1.96 0 0 1 .624.048v.828a2.14 2.14 0 0 0-.774-.042c-.28.032-.538.144-.774.336a1.61 1.61 0 0 0-.486.606c-.108.232-.18.48-.216.744a5.64 5.64 0 0 0-.054.774V92h-.882zm4.444-7.71v-.99h.882v.99h-.882zm0 7.71v-6.48h.882V92h-.882zm5.423.18c-.632 0-1.18-.14-1.644-.42a2.85 2.85 0 0 1-1.074-1.182c-.256-.508-.384-1.104-.384-1.788 0-.708.126-1.32.378-1.836s.606-.914 1.062-1.194 1.002-.42 1.626-.42c.64 0 1.186.148 1.638.444s.794.712 1.026 1.26.338 1.202.318 1.962h-.9v-.312c-.016-.84-.198-1.474-.546-1.902s-.848-.642-1.512-.642c-.696 0-1.23.226-1.602.678s-.552 1.096-.552 1.932c0 .816.184 1.45.552 1.902s.898.672 1.578.672c.464 0 .868-.106 1.212-.318s.622-.526.822-.93l.822.318c-.256.564-.634 1.002-1.134 1.314a3.13 3.13 0 0 1-1.686.462zm-2.478-3.174v-.738h4.95v.738h-4.95zM122.368 92v-3.306a4.48 4.48 0 0 0-.102-.99c-.068-.304-.178-.568-.33-.792a1.51 1.51 0 0 0-.582-.528c-.236-.124-.524-.186-.864-.186-.312 0-.588.054-.828.162a1.63 1.63 0 0 0-.6.468c-.16.2-.282.444-.366.732s-.126.616-.126.984l-.624-.138c0-.664.116-1.222.348-1.674s.552-.794.96-1.026a2.79 2.79 0 0 1 1.404-.348c.388 0 .726.06 1.014.18s.538.282.738.486a2.47 2.47 0 0 1 .492.702c.124.26.214.538.27.834a4.64 4.64 0 0 1 .084.876V92h-.888zm-4.686 0v-6.48h.798v1.596h.09V92h-.888zm9.61.18c-.604 0-1.12-.15-1.548-.45s-.756-.714-.984-1.23-.342-1.098-.342-1.746.112-1.224.336-1.74.554-.924.978-1.224.932-.45 1.524-.45c.608 0 1.12.148 1.536.444s.73.702.942 1.218.324 1.096.324 1.752c0 .644-.106 1.226-.318 1.746s-.524.926-.936 1.23-.916.45-1.512.45zm.09-.822c.46 0 .84-.112 1.14-.336s.524-.532.672-.924.222-.844.222-1.344c0-.508-.074-.956-.222-1.344s-.372-.698-.672-.918-.67-.33-1.122-.33c-.464 0-.848.114-1.152.342s-.53.538-.678.93-.216.832-.216 1.32.074.936.222 1.332a2.08 2.08 0 0 0 .678.93c.3.228.676.342 1.128.342zm2.034.642v-4.878h-.096V83.36h.888V92h-.792zm2.595 0v-8.82h.882V92h-.882zm3.605 2.88l1.254-3.402.018 1.008-2.838-6.966h.936l2.328 5.826h-.384l2.148-5.826h.9l-3.48 9.36h-.882zm10.548-2.7c-.632 0-1.18-.14-1.644-.42a2.85 2.85 0 0 1-1.074-1.182c-.256-.508-.384-1.104-.384-1.788 0-.708.126-1.32.378-1.836s.606-.914 1.062-1.194 1.002-.42 1.626-.42c.64 0 1.186.148 1.638.444s.794.712 1.026 1.26.338 1.202.318 1.962h-.9v-.312c-.016-.84-.198-1.474-.546-1.902s-.848-.642-1.512-.642c-.696 0-1.23.226-1.602.678s-.552 1.096-.552 1.932c0 .816.184 1.45.552 1.902s.898.672 1.578.672c.464 0 .868-.106 1.212-.318s.622-.526.822-.93l.822.318c-.256.564-.634 1.002-1.134 1.314a3.13 3.13 0 0 1-1.686.462zm-2.478-3.174v-.738h4.95v.738h-4.95zm9.27 3.174c-.604 0-1.12-.15-1.548-.45s-.756-.714-.984-1.23-.342-1.098-.342-1.746.112-1.224.336-1.74.554-.924.978-1.224.932-.45 1.524-.45c.608 0 1.12.148 1.536.444s.73.702.942 1.218.324 1.096.324 1.752c0 .644-.106 1.226-.318 1.746s-.524.926-.936 1.23-.916.45-1.512.45zm.09-.822c.46 0 .84-.112 1.14-.336s.524-.532.672-.924.222-.844.222-1.344c0-.508-.074-.956-.222-1.344s-.372-.698-.672-.918-.67-.33-1.122-.33c-.464 0-.848.114-1.152.342s-.53.538-.678.93-.216.832-.216 1.32.074.936.222 1.332a2.08 2.08 0 0 0 .678.93c.3.228.676.342 1.128.342zm2.034.642v-4.878h-.096V83.36h.888V92h-.792zm2.595-7.71v-.99h.882v.99h-.882zm0 7.71v-6.48h.882V92h-.882zm6.209 0a4.32 4.32 0 0 1-1.08.09c-.352-.016-.668-.092-.948-.228s-.486-.348-.63-.636a1.87 1.87 0 0 1-.192-.726l-.012-.846V83.72h.876v5.898l.006.684c.008.18.05.34.126.48.144.268.372.428.684.48s.706.04 1.17-.036V92zm-4.248-5.724v-.756h4.248v.756h-4.248zm7.996 5.904c-.644 0-1.194-.146-1.65-.438a2.85 2.85 0 0 1-1.05-1.212c-.244-.516-.366-1.108-.366-1.776 0-.68.124-1.276.372-1.788s.6-.91 1.056-1.194 1.006-.432 1.638-.432c.648 0 1.2.146 1.656.438s.81.69 1.05 1.206.366 1.102.366 1.77c0 .68-.122 1.278-.366 1.794s-.596.912-1.056 1.2-1.01.432-1.65.432zm0-.846c.72 0 1.256-.238 1.608-.714s.528-1.102.528-1.866c0-.784-.178-1.408-.534-1.872s-.886-.696-1.602-.696c-.484 0-.884.11-1.2.33s-.546.518-.702.906-.228.828-.228 1.332c0 .78.18 1.406.54 1.878s.89.702 1.59.702zm4.396.666v-6.48h.792v1.56l-.156-.204c.072-.192.166-.368.282-.528a1.83 1.83 0 0 1 .378-.402 1.71 1.71 0 0 1 .588-.336 2.38 2.38 0 0 1 .678-.138 1.96 1.96 0 0 1 .624.048v.828a2.14 2.14 0 0 0-.774-.042c-.28.032-.538.144-.774.336a1.61 1.61 0 0 0-.486.606c-.108.232-.18.48-.216.744a5.64 5.64 0 0 0-.054.774V92h-.882zm3.531 0v-1.026h1.026V92h-1.026z" fill="#667185"/><path d="M58.115 34l-2.926-10.08h1.533l2.121 7.623 2.121-7.616 1.54-.007 2.121 7.623 2.121-7.623h1.54L65.353 34h-1.456l-2.163-7.539L59.571 34h-1.456zm11.345 0v-7.56h1.302v1.834l-.182-.238c.093-.243.215-.464.364-.665a2.04 2.04 0 0 1 .518-.504 2.21 2.21 0 0 1 .637-.322 2.79 2.79 0 0 1 .728-.14 2.78 2.78 0 0 1 .714.035v1.372c-.247-.065-.523-.084-.826-.056s-.574.124-.826.287c-.238.154-.427.341-.567.56s-.233.464-.294.735a3.8 3.8 0 0 0-.091.847V34h-1.477zm5.554-8.799V23.78h1.463v1.421h-1.463zm0 8.799v-7.56h1.463V34h-1.463zm7.891 0c-.476.093-.943.133-1.4.119s-.866-.103-1.225-.266a1.67 1.67 0 0 1-.812-.77c-.163-.313-.252-.63-.266-.952l-.014-1.106V24.34h1.47v6.615l.007.791c.009.224.058.413.147.567.168.289.434.455.798.497s.8.021 1.295-.049V34zm-5.166-6.384V26.44h5.166v1.176H77.74zm9.771 6.594c-.751 0-1.412-.163-1.981-.49s-1.006-.791-1.323-1.379-.469-1.279-.469-2.058c0-.826.154-1.542.462-2.149s.747-1.076 1.302-1.407 1.202-.497 1.939-.497c.77 0 1.426.18 1.967.539s.945.861 1.211 1.519.378 1.44.322 2.345h-1.463v-.532c-.009-.877-.177-1.526-.504-1.946s-.814-.63-1.477-.63c-.733 0-1.283.231-1.652.693s-.553 1.129-.553 2.002c0 .831.184 1.475.553 1.932s.901.679 1.596.679c.457 0 .852-.103 1.183-.308s.597-.509.784-.896l1.435.455c-.294.677-.74 1.202-1.337 1.575s-1.262.553-1.995.553zm-2.695-3.577v-1.141h5.397v1.141h-5.397zM95.314 34V23.92h1.323l3.654 7.581 3.633-7.581h1.337v10.073h-1.386v-6.895L100.62 34h-.665l-3.262-6.902V34h-1.379zm14.043.21c-.56 0-1.029-.103-1.407-.308s-.665-.485-.861-.826-.287-.723-.287-1.134a2.36 2.36 0 0 1 .203-1.008 1.95 1.95 0 0 1 .602-.735c.266-.205.593-.371.98-.497a10.79 10.79 0 0 1 1.141-.259l1.337-.21 1.4-.196-.532.294c.01-.593-.116-1.031-.378-1.316-.256-.289-.7-.434-1.33-.434a2.19 2.19 0 0 0-1.092.28c-.331.182-.562.485-.693.91l-1.365-.42c.187-.649.542-1.164 1.064-1.547.528-.383 1.228-.574 2.1-.574.677 0 1.265.117 1.764.35.504.229.873.593 1.106 1.092a2.28 2.28 0 0 1 .224.784 8.81 8.81 0 0 1 .042.889V34h-1.295v-1.729l.252.224c-.312.579-.711 1.01-1.197 1.295-.48.28-1.073.42-1.778.42zm.259-1.197c.416 0 .773-.072 1.071-.217s.539-.338.721-.567.301-.467.357-.714c.08-.224.124-.476.133-.756l.021-.672.476.175-1.26.189-1.029.168c-.303.051-.574.114-.812.189-.2.07-.38.154-.539.252-.154.098-.277.217-.371.357-.088.14-.133.31-.133.511s.049.378.147.546.248.294.448.392.458.147.77.147zm10.883.987v-3.717c0-.294-.026-.595-.077-.903s-.14-.602-.28-.868a1.64 1.64 0 0 0-.581-.644c-.247-.163-.572-.245-.973-.245a2.07 2.07 0 0 0-.742.133c-.233.084-.439.222-.616.413s-.31.443-.413.756c-.098.313-.147.693-.147 1.141l-.91-.343c0-.686.128-1.29.385-1.813s.625-.938 1.106-1.232 1.062-.441 1.743-.441c.523 0 .961.084 1.316.252s.642.39.861.665.394.567.511.889.196.637.238.945a6.1 6.1 0 0 1 .063.812V34h-1.484zm-5.313 0v-7.56h1.309v2.184h.175V34h-1.484zm11.469.203c-.522 0-.961-.084-1.316-.252s-.644-.387-.868-.658a3.17 3.17 0 0 1-.504-.896c-.116-.322-.196-.637-.238-.945a6.1 6.1 0 0 1-.063-.812v-4.2h1.484v3.717c0 .294.024.597.07.91a2.99 2.99 0 0 0 .28.861 1.72 1.72 0 0 0 .581.644c.252.163.579.245.98.245a2.17 2.17 0 0 0 .742-.126c.234-.089.437-.229.609-.42.178-.191.315-.443.413-.756.103-.313.154-.693.154-1.141l.91.343c0 .686-.128 1.293-.385 1.82s-.625.931-1.106 1.225-1.061.441-1.743.441zm2.499-.203v-2.184h-.175V26.44h1.477V34h-1.302zm5.4.21c-.56 0-1.029-.103-1.407-.308s-.665-.485-.861-.826-.287-.723-.287-1.134a2.36 2.36 0 0 1 .203-1.008 1.95 1.95 0 0 1 .602-.735c.266-.205.593-.371.98-.497a10.79 10.79 0 0 1 1.141-.259l1.337-.21 1.4-.196-.532.294c.01-.593-.116-1.031-.378-1.316-.256-.289-.7-.434-1.33-.434a2.19 2.19 0 0 0-1.092.28c-.331.182-.562.485-.693.91l-1.365-.42c.187-.649.542-1.164 1.064-1.547.528-.383 1.228-.574 2.1-.574.677 0 1.265.117 1.764.35.504.229.873.593 1.106 1.092a2.28 2.28 0 0 1 .224.784 8.81 8.81 0 0 1 .042.889V34h-1.295v-1.729l.252.224c-.312.579-.711 1.01-1.197 1.295-.48.28-1.073.42-1.778.42zm.259-1.197c.416 0 .773-.072 1.071-.217s.539-.338.721-.567.301-.467.357-.714c.08-.224.124-.476.133-.756l.021-.672.476.175-1.26.189-1.029.168c-.303.051-.574.114-.812.189-.2.07-.38.154-.539.252s-.277.217-.371.357c-.088.14-.133.31-.133.511s.049.378.147.546.248.294.448.392.458.147.77.147zm5.717.987V23.71h1.463V34h-1.463zm3.705 0V23.71h1.463V34h-1.463zm4.587 3.36l1.463-3.983.021 1.176-3.297-8.113h1.526l2.464 6.265h-.448l2.352-6.265h1.484l-4.172 10.92h-1.393z" fill="#475367"/><path d="M13 19a6 6 0 0 1 6-6h20a6 6 0 0 1 6 6v20a6 6 0 0 1-6 6H19a6 6 0 0 1-6-6V19z" fill="#fef1e6"/><mask id="A" maskUnits="userSpaceOnUse" x="17" y="17" width="24" height="24" mask-type="alpha"><path fill="#d9d9d9" d="M17 17h24v24H17z"/></mask><g mask="url(#A)"><path d="M23.595 36.199a1.72 1.72 0 0 1-1.268-.529 1.74 1.74 0 0 1-.525-1.271v-.9c0-.255.086-.469.257-.641s.384-.259.637-.259a.88.88 0 0 1 .643.259c.175.172.262.386.262.641v.9h10.8v-.9c0-.255.086-.469.257-.641s.384-.259.637-.259a.88.88 0 0 1 .643.259c.175.172.263.386.263.641v.9a1.73 1.73 0 0 1-.529 1.271c-.353.352-.777.529-1.272.529H23.595zm4.507-12.15l-2 2c-.183.183-.396.275-.637.275s-.458-.092-.649-.275c-.175-.183-.263-.396-.263-.637s.092-.454.275-.637l3.55-3.55c.09-.083.188-.146.293-.187s.218-.062.338-.062.232.021.337.063.199.104.282.188l3.55 3.55a.86.86 0 0 1 .275.625.88.88 0 0 1-.263.625c-.191.183-.408.275-.65.275s-.454-.092-.637-.275l-2-1.975v7.65c0 .255-.086.469-.257.641s-.384.259-.637.259a.88.88 0 0 1-.643-.259c-.175-.172-.262-.386-.262-.641v-7.65z" fill="#faa666"/></g><defs><linearGradient id="B" x1="103" y1="1" x2="103" y2="141" gradientUnits="userSpaceOnUse"><stop stop-color="#e4e7ec"/><stop offset="1" stop-color="#fff"/></linearGradient></defs></svg>