<svg xmlns="http://www.w3.org/2000/svg" width="142" height="50" fill="none" xmlns:v="https://vecta.io/nano"><g fill="#fff"><rect x=".5" y=".5" width="141" height="49" rx="6.5" stroke="url(#A)"/><rect x="13" y="5" width="40" height="40" rx="8"/></g><g clip-path="url(#B)"><path d="M36.11 25.005a7.44 7.44 0 0 1-.478 2.627 7.46 7.46 0 0 1-2.628.479h-.011a7.46 7.46 0 0 1-2.627-.478c-.317-.84-.479-1.73-.478-2.628v-.011a7.45 7.45 0 0 1 .477-2.627c.84-.317 1.73-.479 2.628-.479h.011c.898 0 1.788.162 2.628.479a7.44 7.44 0 0 1 .478 2.627v.011h0zm9.161-2.079h-7.264l5.136-5.137a12.49 12.49 0 0 0-1.344-1.589h0c-.492-.491-1.023-.94-1.589-1.343l-5.136 5.137v-7.264a12.51 12.51 0 0 0-2.067-.173h-.013a12.52 12.52 0 0 0-2.067.173v7.264l-5.137-5.137c-.566.403-1.097.852-1.588 1.344l-.003.002a12.52 12.52 0 0 0-1.343 1.587l5.137 5.137h-7.264l-.173 2.07v.008a12.45 12.45 0 0 0 .173 2.07h7.264l-5.137 5.136a12.53 12.53 0 0 0 2.933 2.934l5.137-5.137v7.264c.682.114 1.373.172 2.065.173h.018c.692-.001 1.383-.059 2.065-.173v-7.264l5.137 5.137c.566-.403 1.097-.852 1.589-1.344l.001-.001c.491-.492.94-1.023 1.343-1.589l-5.137-5.136h7.265a12.51 12.51 0 0 0 .173-2.065v-.018a12.51 12.51 0 0 0-.173-2.065z" fill="#ff4a00"/></g><path d="M57.7 30v-.224l5.327-8.673H57.91V19.92h7.217v.238l-5.299 8.659h5.229V30H57.7zm11.261.21c-.565 0-1.038-.103-1.421-.308s-.665-.485-.861-.826a2.25 2.25 0 0 1-.287-1.12c0-.397.075-.74.224-1.029a2.01 2.01 0 0 1 .644-.728c.275-.196.604-.35.987-.462.359-.098.761-.182 1.204-.252l1.358-.203 1.281-.175-.448.259c.014-.672-.121-1.169-.406-1.491s-.765-.483-1.456-.483c-.457 0-.859.105-1.204.315s-.581.541-.721 1.008l-1.183-.357c.182-.663.534-1.183 1.057-1.561s1.211-.567 2.065-.567c.686 0 1.274.124 1.764.371s.849.611 1.064 1.106a2.39 2.39 0 0 1 .203.763c.028.271.042.555.042.854V30h-1.106v-1.813l.259.168c-.285.611-.684 1.073-1.197 1.386s-1.129.469-1.862.469zm.189-1.043c.448 0 .835-.079 1.162-.238s.597-.376.798-.637.331-.555.392-.868a2.86 2.86 0 0 0 .112-.777l.014-.665.434.189-1.197.161-1.113.168c-.35.056-.665.124-.945.203-.205.065-.399.149-.581.252a1.32 1.32 0 0 0-.434.399c-.107.159-.161.357-.161.595 0 .205.051.401.154.588s.271.338.49.455.516.175.875.175zm9.009 1.043c-.709 0-1.307-.175-1.792-.525a3.32 3.32 0 0 1-1.106-1.435c-.247-.607-.371-1.286-.371-2.037 0-.761.124-1.442.371-2.044s.621-1.076 1.106-1.421 1.09-.518 1.799-.518c.7 0 1.302.175 1.806.525s.898.819 1.169 1.421.406 1.281.406 2.037-.135 1.435-.406 2.037-.66 1.08-1.169 1.435-1.108.525-1.813.525zm-3.479 3.15V22.44h1.113v5.565h.14v5.355H74.68zm3.325-4.291c.499 0 .912-.126 1.239-.378s.572-.593.735-1.022.245-.919.245-1.456-.082-1.013-.245-1.442-.406-.77-.742-1.022-.754-.378-1.267-.378c-.49 0-.896.121-1.218.364s-.562.572-.721 1.001-.238.917-.238 1.477a4.4 4.4 0 0 0 .231 1.477c.159.429.401.768.728 1.015s.744.364 1.253.364zm5.217-7.966v-1.288h1.246v1.288h-1.246zm0 8.897v-7.56h1.246V30h-1.246zm6.622.21c-.742 0-1.391-.163-1.946-.49a3.43 3.43 0 0 1-1.288-1.379c-.308-.593-.462-1.283-.462-2.072 0-.826.152-1.54.455-2.142s.726-1.073 1.267-1.4 1.185-.497 1.918-.497c.761 0 1.407.175 1.939.525s.938.849 1.204 1.498.387 1.421.35 2.317h-1.26v-.448c-.014-.929-.203-1.622-.567-2.079s-.905-.693-1.624-.693c-.77 0-1.356.247-1.757.742s-.602 1.204-.602 2.128c0 .891.201 1.582.602 2.072s.973.735 1.715.735c.499 0 .933-.114 1.302-.343s.658-.558.868-.987l1.197.413a3.39 3.39 0 0 1-1.33 1.554c-.588.364-1.248.546-1.981.546zm-2.793-3.64v-1.001h5.586v1.001h-5.586zM94.839 30v-7.56h1.113v1.827l-.182-.238c.089-.233.203-.448.343-.644a2.15 2.15 0 0 1 .483-.483 2.14 2.14 0 0 1 .665-.364c.247-.084.499-.133.756-.147s.497-.002.721.049v1.169c-.261-.07-.548-.089-.861-.056a1.75 1.75 0 0 0-.868.343 1.87 1.87 0 0 0-.567.63 2.73 2.73 0 0 0-.273.805c-.051.285-.077.576-.077.875V30h-1.253z" fill="#475367"/><defs><linearGradient id="A" x1="71" y1="1" x2="71" y2="49" gradientUnits="userSpaceOnUse"><stop stop-color="#e4e7ec"/><stop offset="1" stop-color="#fff"/></linearGradient><clipPath id="B"><rect x="20.555" y="12.555" width="24.889" height="24.889" rx="8" fill="#fff"/></clipPath></defs></svg>