<svg width="26" height="26" viewBox="0 0 26 26" fill="none" xmlns="http://www.w3.org/2000/svg">
<g clip-path="url(#clip0_1748_1389)">
<path d="M16.1101 13.0046C16.1106 13.902 15.9487 14.7921 15.6323 15.6319C14.7922 15.9483 13.9019 16.1104 13.0042 16.1105H12.9937C12.0693 16.1094 11.1836 15.9404 10.3664 15.6323C10.0498 14.7924 9.88772 13.9022 9.88802 13.0046V12.9937C9.88759 12.0964 10.0493 11.2065 10.3654 10.3667C11.2054 10.0498 12.0959 9.88762 12.9938 9.88802H13.0043C13.902 9.88759 14.7924 10.0497 15.6324 10.3666C15.9488 11.2063 16.1107 12.0963 16.1102 12.9936V13.0045L16.1101 13.0046ZM25.2707 10.9251H18.0067L23.1428 5.78855C22.7397 5.22225 22.29 4.69057 21.7984 4.19906V4.19867C21.3068 3.70769 20.7753 3.2584 20.2093 2.85545L15.0728 7.99199V0.727938C14.3896 0.613014 13.6981 0.555064 13.0054 0.554688L12.9925 0.554688C12.2879 0.555076 11.5977 0.614965 10.9251 0.727938V7.99199L5.78855 2.85545C5.22247 3.25829 4.69116 3.7079 4.20023 4.19955L4.19751 4.20149C3.70678 4.69239 3.25772 5.22324 2.85497 5.78855L7.9919 10.9251H0.727938C0.727938 10.9251 0.554688 12.2894 0.554688 12.9949V13.0034C0.554688 13.7089 0.614479 14.4002 0.727938 15.0732H7.99199L2.85506 20.2097C3.66314 21.3437 4.65455 22.3351 5.78855 23.1432L10.9251 18.0063V25.2707C11.6075 25.3851 12.2982 25.4429 12.9901 25.4436H13.0077C13.6996 25.443 14.3903 25.3851 15.0727 25.2707V18.0063L20.2097 23.1432C20.7756 22.7401 21.307 22.2907 21.7984 21.7996L21.7996 21.7984C22.2905 21.3069 22.7398 20.7755 23.1428 20.2097L18.0059 15.0732H25.2707C25.3838 14.4014 25.4428 13.7121 25.4436 13.0082V12.9901C25.4428 12.2862 25.3838 11.5969 25.2707 10.9251Z" fill="#FF4A00"/>
</g>
<defs>
<clipPath id="clip0_1748_1389">
<rect x="0.554688" y="0.554688" width="24.8889" height="24.8889" rx="8" fill="white"/>
</clipPath>
</defs>
</svg>
