<svg xmlns="http://www.w3.org/2000/svg" width="142" height="50" fill="none" xmlns:v="https://vecta.io/nano"><g fill="#fff"><rect x="141.5" y="49.5" width="141" height="49" rx="6.5" transform="rotate(180 141.5 49.5)" stroke="url(#A)"/><rect x="13" y="5" width="40" height="40" rx="8"/></g><path d="M32.052 20.662v13.922H20.555l11.498-13.922zm0-4.994a5.75 5.75 0 0 1-5.743 5.759 5.76 5.76 0 0 1-5.755-5.759h11.498zm1.894 18.917a5.75 5.75 0 0 1 5.743-5.759 5.75 5.75 0 0 1 5.743 5.759H33.946zm0-4.994V15.668h11.497L33.946 29.591z" fill="#03363d"/><path d="M57.7 30v-.224l5.327-8.673H57.91V19.92h7.217v.238l-5.299 8.659h5.229V30H57.7zm12.388.21c-.742 0-1.391-.163-1.946-.49s-.98-.791-1.288-1.379-.462-1.283-.462-2.072c0-.826.152-1.54.455-2.142s.726-1.073 1.267-1.4 1.185-.497 1.918-.497c.761 0 1.407.175 1.939.525s.938.849 1.204 1.498.387 1.421.35 2.317h-1.26v-.448c-.014-.929-.203-1.622-.567-2.079s-.905-.693-1.624-.693c-.77 0-1.356.247-1.757.742s-.602 1.204-.602 2.128c0 .891.201 1.582.602 2.072s.973.735 1.715.735c.499 0 .933-.114 1.302-.343s.658-.558.868-.987l1.197.413a3.39 3.39 0 0 1-1.33 1.554c-.588.364-1.248.546-1.981.546zm-2.793-3.64v-1.001h5.586v1.001h-5.586zM80.261 30v-3.787a5.34 5.34 0 0 0-.098-1.036c-.061-.331-.17-.628-.329-.889a1.7 1.7 0 0 0-.63-.63c-.261-.154-.593-.231-.994-.231-.313 0-.597.054-.854.161a1.67 1.67 0 0 0-.651.476 2.31 2.31 0 0 0-.427.812c-.098.322-.147.702-.147 1.141l-.819-.252c0-.733.131-1.36.392-1.883a2.86 2.86 0 0 1 1.113-1.211c.481-.285 1.045-.427 1.694-.427.49 0 .908.077 1.253.231s.632.359.861.616.408.537.539.854.222.632.273.959a5.36 5.36 0 0 1 .084.917V30h-1.26zm-5.39 0v-7.56h1.12v2.023h.14V30h-1.26zm11.37.21c-.705 0-1.309-.175-1.813-.525s-.894-.833-1.169-1.435-.406-1.281-.406-2.037.135-1.435.406-2.037.665-1.076 1.169-1.421 1.106-.525 1.806-.525c.714 0 1.314.173 1.799.518s.852.819 1.099 1.421.378 1.283.378 2.044c0 .751-.126 1.43-.378 2.037s-.614 1.08-1.099 1.435-1.083.525-1.792.525zm.154-1.141c.509 0 .926-.121 1.253-.364s.567-.586.721-1.015.238-.926.238-1.477c0-.56-.079-1.052-.238-1.477s-.392-.763-.714-1.001-.73-.364-1.225-.364c-.513 0-.938.126-1.274.378s-.579.593-.742 1.022-.238.91-.238 1.442.082 1.022.245 1.456.408.77.735 1.022.744.378 1.239.378zm2.212.931v-5.565h-.14V19.92h1.253V30h-1.113zm6.35.21c-.742 0-1.391-.163-1.946-.49a3.43 3.43 0 0 1-1.288-1.379c-.308-.593-.462-1.283-.462-2.072 0-.826.152-1.54.455-2.142s.726-1.073 1.267-1.4 1.185-.497 1.918-.497c.761 0 1.407.175 1.939.525s.938.849 1.204 1.498.387 1.421.35 2.317h-1.26v-.448c-.014-.929-.203-1.622-.567-2.079s-.905-.693-1.624-.693c-.77 0-1.356.247-1.757.742s-.602 1.204-.602 2.128c0 .891.201 1.582.602 2.072s.973.735 1.715.735c.499 0 .933-.114 1.302-.343s.658-.558.868-.987l1.197.413a3.39 3.39 0 0 1-1.33 1.554c-.588.364-1.248.546-1.981.546zm-2.793-3.64v-1.001h5.586v1.001h-5.586zm10.645 3.633c-.901 0-1.641-.196-2.219-.588a2.48 2.48 0 0 1-1.057-1.659l1.274-.203c.102.411.338.737.707.98s.826.357 1.372.357c.518 0 .924-.107 1.218-.322s.441-.506.441-.875c0-.215-.049-.387-.147-.518s-.301-.261-.609-.378-.763-.257-1.379-.42c-.668-.177-1.193-.362-1.575-.553s-.656-.413-.819-.665-.245-.558-.245-.917c0-.443.121-.831.364-1.162s.581-.595 1.015-.777.947-.273 1.526-.273c.574 0 1.087.091 1.54.273s.816.441 1.092.777.445.719.497 1.162l-1.274.231c-.061-.406-.257-.726-.588-.959s-.749-.357-1.267-.371c-.49-.019-.889.068-1.197.259s-.455.45-.455.777c0 .182.056.338.168.469s.329.254.637.371.765.25 1.358.399c.667.168 1.192.352 1.575.553s.662.429.826.7.245.595.245.987c0 .728-.269 1.302-.805 1.722s-1.277.623-2.219.623zm4.56-.203l.007-10.08h1.26v6.16l3.171-3.64h1.617l-3.339 3.78 3.731 3.78h-1.743l-3.437-3.64V30h-1.267z" fill="#475367"/><defs><linearGradient id="A" x1="211" y1="49" x2="211" y2="97" gradientUnits="userSpaceOnUse"><stop stop-color="#e4e7ec"/><stop offset="1" stop-color="#fff"/></linearGradient></defs></svg>